M48
;DRILL file {KiCad (5.0.0)} date 09/06/19 15:21:08
;FORMAT={3:3/ absolute / metric / keep zeros}
FMAT,2
METRIC,TZ
T1C0.900
T2C1.000
T3C2.700
%
G90
G05
M71
T1
X208280Y-073660
X210820Y-073660
X237490Y-114300
X240030Y-114300
X223520Y-064770
X226060Y-064770
X231140Y-111760
X231140Y-114300
X213360Y-106680
X213360Y-109220
X209550Y-066040
X212090Y-066040
X217170Y-063500
X219710Y-063500
X247650Y-101600
X247650Y-104140
X252730Y-083820
X252730Y-086360
X251460Y-071120
X251460Y-073660
X245110Y-111760
X247650Y-111760
X231140Y-060960
X233680Y-060960
X242570Y-069850
X245110Y-069850
X199390Y-083820
X199390Y-086360
X200660Y-099060
X203200Y-099060
X223520Y-118110
X226060Y-118110
X252730Y-078740
X255270Y-078740
X205740Y-104140
X205740Y-106680
X201930Y-077470
X204470Y-077470
X215900Y-114300
X218440Y-114300
X204470Y-091440
X204470Y-093980
X257810Y-090170
X257810Y-092710
X238760Y-064770
X241300Y-064770
X252730Y-097790
X255270Y-097790
T2
X223520Y-111760
X256540Y-073660
X251460Y-092710
X238760Y-068580
X208280Y-078740
X201930Y-106680
T3
X190500Y-088900
X266700Y-088900
T0
M30
