  0
SECTION
  2
HEADER
  9
$ACADVER
  1
AC1009
  9
$DWGCODEPAGE
  3
mac-roman
  9
$INSBASE
 10
0.0
 20
0.0
 30
0.0
  9
$EXTMIN
 10
401.0
 20
2213.0
 30
0.0
  9
$EXTMAX
 10
901.0
 20
3013.0
 30
0.0
  9
$LIMMIN
 10
0.0
 20
0.0
  9
$LIMMAX
 10
12.0
 20
9.0
  9
$ORTHOMODE
 70
     0
  9
$REGENMODE
 70
     1
  9
$FILLMODE
 70
     1
  9
$QTEXTMODE
 70
     0
  9
$MIRRTEXT
 70
     1
  9
$DRAGMODE
 70
     2
  9
$LTSCALE
 40
1.0
  9
$OSMODE
 70
    37
  9
$ATTMODE
 70
     1
  9
$TEXTSIZE
 40
0.2
  9
$TRACEWID
 40
0.05
  9
$TEXTSTYLE
  7
STANDARD
  9
$CLAYER
  8
0
  9
$CELTYPE
  6
BYLAYER
  9
$CECOLOR
 62
   256
  9
$DIMSCALE
 40
1.0
  9
$DIMASZ
 40
0.18
  9
$DIMEXO
 40
0.0625
  9
$DIMDLI
 40
0.38
  9
$DIMRND
 40
0.0
  9
$DIMDLE
 40
0.0
  9
$DIMEXE
 40
0.18
  9
$DIMTP
 40
0.0
  9
$DIMTM
 40
0.0
  9
$DIMTXT
 40
0.18
  9
$DIMCEN
 40
0.09
  9
$DIMTSZ
 40
0.0
  9
$DIMTOL
 70
     0
  9
$DIMLIM
 70
     0
  9
$DIMTIH
 70
     1
  9
$DIMTOH
 70
     1
  9
$DIMSE1
 70
     0
  9
$DIMSE2
 70
     0
  9
$DIMTAD
 70
     0
  9
$DIMZIN
 70
     0
  9
$DIMBLK
  1

  9
$DIMASO
 70
     1
  9
$DIMSHO
 70
     1
  9
$DIMPOST
  1

  9
$DIMAPOST
  1

  9
$DIMALT
 70
     0
  9
$DIMALTD
 70
     2
  9
$DIMALTF
 40
25.4
  9
$DIMLFAC
 40
1.0
  9
$DIMTOFL
 70
     0
  9
$DIMTVP
 40
0.0
  9
$DIMTIX
 70
     0
  9
$DIMSOXD
 70
     0
  9
$DIMSAH
 70
     0
  9
$DIMBLK1
  1

  9
$DIMBLK2
  1

  9
$DIMSTYLE
  2
STANDARD
  9
$DIMCLRD
 70
     0
  9
$DIMCLRE
 70
     0
  9
$DIMCLRT
 70
     0
  9
$DIMTFAC
 40
1.0
  9
$DIMGAP
 40
0.09
  9
$LUNITS
 70
     2
  9
$LUPREC
 70
     2
  9
$SKETCHINC
 40
0.1
  9
$FILLETRAD
 40
0.5
  9
$AUNITS
 70
     0
  9
$AUPREC
 70
     0
  9
$MENU
  1
.
  9
$ELEVATION
 40
0.0
  9
$PELEVATION
 40
0.0
  9
$THICKNESS
 40
0.0
  9
$LIMCHECK
 70
     0
  9
$CHAMFERA
 40
0.0
  9
$CHAMFERB
 40
0.0
  9
$SKPOLY
 70
     0
  9
$TDCREATE
 40
2457913.606435185
  9
$TDUPDATE
 40
2457913.606446759
  9
$TDINDWG
 40
0.0000000116
  9
$TDUSRTIMER
 40
0.0000000116
  9
$USRTIMER
 70
     1
  9
$ANGBASE
 50
0.0
  9
$ANGDIR
 70
     0
  9
$PDMODE
 70
     0
  9
$PDSIZE
 40
0.0
  9
$PLINEWID
 40
0.0
  9
$COORDS
 70
     1
  9
$SPLFRAME
 70
     0
  9
$SPLINETYPE
 70
     6
  9
$SPLINESEGS
 70
     8
  9
$ATTDIA
 70
     0
  9
$ATTREQ
 70
     1
  9
$HANDLING
 70
     1
  9
$HANDSEED
  5
3B5
  9
$SURFTAB1
 70
     6
  9
$SURFTAB2
 70
     6
  9
$SURFTYPE
 70
     6
  9
$SURFU
 70
     6
  9
$SURFV
 70
     6
  9
$UCSNAME
  2

  9
$UCSORG
 10
0.0
 20
0.0
 30
0.0
  9
$UCSXDIR
 10
1.0
 20
0.0
 30
0.0
  9
$UCSYDIR
 10
0.0
 20
1.0
 30
0.0
  9
$PUCSNAME
  2

  9
$PUCSORG
 10
0.0
 20
0.0
 30
0.0
  9
$PUCSXDIR
 10
1.0
 20
0.0
 30
0.0
  9
$PUCSYDIR
 10
0.0
 20
1.0
 30
0.0
  9
$USERI1
 70
     0
  9
$USERI2
 70
     0
  9
$USERI3
 70
     0
  9
$USERI4
 70
     0
  9
$USERI5
 70
     0
  9
$USERR1
 40
0.0
  9
$USERR2
 40
0.0
  9
$USERR3
 40
0.0
  9
$USERR4
 40
0.0
  9
$USERR5
 40
0.0
  9
$WORLDVIEW
 70
     1
  9
$SHADEDGE
 70
     3
  9
$SHADEDIF
 70
    70
  9
$TILEMODE
 70
     1
  9
$MAXACTVP
 70
    64
  9
$PLIMCHECK
 70
     0
  9
$PEXTMIN
 10
1.000000000000000E+20
 20
1.000000000000000E+20
 30
1.000000000000000E+20
  9
$PEXTMAX
 10
-1.000000000000000E+20
 20
-1.000000000000000E+20
 30
-1.000000000000000E+20
  9
$PLIMMIN
 10
0.0
 20
0.0
  9
$PLIMMAX
 10
12.0
 20
9.0
  9
$UNITMODE
 70
     0
  9
$VISRETAIN
 70
     1
  9
$PLINEGEN
 70
     0
  9
$PSLTSCALE
 70
     1
  0
ENDSEC
  0
SECTION
  2
TABLES
  0
TABLE
  2
VPORT
 70
     1
  0
VPORT
  2
*ACTIVE
 70
     0
 10
0.0
 20
0.0
 11
1.0
 21
1.0
 12
651.0
 22
2613.0
 13
0.0
 23
0.0
 14
0.5
 24
0.5
 15
0.5
 25
0.5
 16
0.0
 26
0.0
 36
1.0
 17
0.0
 27
0.0
 37
0.0
 40
816.0
 41
0.625
 42
50.0
 43
0.0
 44
0.0
 50
0.0
 51
0.0
 71
     0
 72
   100
 73
     1
 74
     3
 75
     0
 76
     0
 77
     0
 78
     0
  0
ENDTAB
  0
TABLE
  2
LTYPE
 70
     1
  0
LTYPE
  2
CONTINUOUS
 70
     0
  3
Solid line
 72
    65
 73
     0
 40
0.0
  0
ENDTAB
  0
TABLE
  2
LAYER
 70
     2
  0
LAYER
  2
0
 70
     0
 62
     7
  6
CONTINUOUS
  0
LAYER
  2
CORTE_LASER$CORTE
 70
     0
 62
     7
  6
CONTINUOUS
  0
ENDTAB
  0
TABLE
  2
STYLE
 70
     1
  0
STYLE
  2
STANDARD
 70
     0
 40
0.0
 41
1.0
 50
0.0
 71
     0
 42
0.2
  3
txt
  4

  0
ENDTAB
  0
TABLE
  2
VIEW
 70
     0
  0
ENDTAB
  0
TABLE
  2
UCS
 70
     0
  0
ENDTAB
  0
TABLE
  2
APPID
 70
     1
  0
APPID
  2
ACAD
 70
     0
  0
ENDTAB
  0
TABLE
  2
DIMSTYLE
 70
     1
  0
DIMSTYLE
  2
STANDARD
 70
     0
  3

  4

  5

  6

  7

 40
1.0
 41
0.18
 42
0.0625
 43
0.38
 44
0.18
 45
0.0
 46
0.0
 47
0.0
 48
0.0
140
0.18
141
0.09
142
0.0
143
25.4
144
1.0
145
0.0
146
1.0
147
0.09
 71
     0
 72
     0
 73
     1
 74
     1
 75
     0
 76
     0
 77
     0
 78
     0
170
     0
171
     2
172
     0
173
     0
174
     0
175
     0
176
     0
177
     0
178
     0
  0
ENDTAB
  0
ENDSEC
  0
SECTION
  2
BLOCKS
  0
BLOCK
  8
0
  2
$MODEL_SPACE
 70
     0
 10
0.0
 20
0.0
 30
0.0
  3
$MODEL_SPACE
  1

  0
ENDBLK
  5
21
  8
0
  0
BLOCK
 67
     1
  8
0
  2
$PAPER_SPACE
 70
     0
 10
0.0
 20
0.0
 30
0.0
  3
$PAPER_SPACE
  1

  0
ENDBLK
  5
1D
 67
     1
  8
0
  0
ENDSEC
  0
SECTION
  2
ENTITIES
  0
LINE
  5
6F
  8
CORTE_LASER$CORTE
 10
591.0594010767591
 20
2248.499992263657
 30
0.0
 11
593.3688021535172
 21
2252.499992263657
 31
0.0
  0
LINE
  5
70
  8
CORTE_LASER$CORTE
 10
593.3688021535172
 20
2252.499992263657
 30
0.0
 11
591.0594010767591
 21
2256.499992263657
 31
0.0
  0
LINE
  5
71
  8
CORTE_LASER$CORTE
 10
591.0594010767591
 20
2256.499992263657
 30
0.0
 11
586.4405989232419
 21
2256.499992263657
 31
0.0
  0
LINE
  5
72
  8
CORTE_LASER$CORTE
 10
586.4405989232419
 20
2256.499992263657
 30
0.0
 11
584.1311978464832
 21
2252.499992263657
 31
0.0
  0
LINE
  5
73
  8
CORTE_LASER$CORTE
 10
584.1311978464832
 20
2252.499992263657
 30
0.0
 11
586.4405989232419
 21
2248.499992263657
 31
0.0
  0
LINE
  5
74
  8
CORTE_LASER$CORTE
 10
586.4405989232419
 20
2248.499992263657
 30
0.0
 11
591.0594010767591
 21
2248.499992263657
 31
0.0
  0
LINE
  5
75
  8
CORTE_LASER$CORTE
 10
581.25
 20
2246.499992263656
 30
0.0
 11
596.25
 21
2246.499992263656
 31
0.0
  0
LINE
  5
76
  8
CORTE_LASER$CORTE
 10
596.25
 20
2246.499992263656
 30
0.0
 11
596.25
 21
2258.499992263656
 31
0.0
  0
LINE
  5
77
  8
CORTE_LASER$CORTE
 10
596.25
 20
2258.499992263656
 30
0.0
 11
581.25
 21
2258.499992263656
 31
0.0
  0
LINE
  5
78
  8
CORTE_LASER$CORTE
 10
581.25
 20
2258.499992263656
 30
0.0
 11
581.25
 21
2246.499992263656
 31
0.0
  0
LINE
  5
79
  8
CORTE_LASER$CORTE
 10
560.25
 20
2245.499992263656
 30
0.0
 11
575.25
 21
2245.499992263656
 31
0.0
  0
LINE
  5
7A
  8
CORTE_LASER$CORTE
 10
575.25
 20
2245.499992263656
 30
0.0
 11
575.25
 21
2257.499992263656
 31
0.0
  0
LINE
  5
7B
  8
CORTE_LASER$CORTE
 10
575.25
 20
2257.499992263656
 30
0.0
 11
560.25
 21
2257.499992263656
 31
0.0
  0
LINE
  5
7C
  8
CORTE_LASER$CORTE
 10
560.25
 20
2257.499992263656
 30
0.0
 11
560.25
 21
2245.499992263656
 31
0.0
  0
CIRCLE
  5
7D
  8
CORTE_LASER$CORTE
 10
567.75
 20
2251.499992263656
 30
0.0
 40
2.25
  0
CIRCLE
  5
7E
  8
CORTE_LASER$CORTE
 10
565.7499353237931
 20
2280.0
 30
0.0
 40
2.25
  0
CIRCLE
  5
7F
  8
CORTE_LASER$CORTE
 10
603.7500646762069
 20
2280.0
 30
0.0
 40
2.25
  0
LINE
  5
80
  8
CORTE_LASER$CORTE
 10
616.25
 20
2294.999992263656
 30
0.0
 11
616.25
 21
2264.999992263656
 31
0.0
  0
LINE
  5
81
  8
CORTE_LASER$CORTE
 10
616.25
 20
2264.999992263656
 30
0.0
 11
616.25
 21
2262.999992263656
 31
0.0
  0
LINE
  5
82
  8
CORTE_LASER$CORTE
 10
616.25
 20
2262.999992263656
 30
0.0
 11
613.25
 21
2262.999992263656
 31
0.0
  0
LINE
  5
83
  8
CORTE_LASER$CORTE
 10
613.25
 20
2262.999992263656
 30
0.0
 11
613.25
 21
2264.999992263656
 31
0.0
  0
LINE
  5
84
  8
CORTE_LASER$CORTE
 10
613.25
 20
2264.999992263656
 30
0.0
 11
556.2499999999995
 21
2264.999992263656
 31
0.0
  0
LINE
  5
85
  8
CORTE_LASER$CORTE
 10
556.2499999999995
 20
2264.999992263656
 30
0.0
 11
556.2499999999995
 21
2262.999992263656
 31
0.0
  0
LINE
  5
86
  8
CORTE_LASER$CORTE
 10
556.2499999999995
 20
2262.999992263656
 30
0.0
 11
553.2499999999995
 21
2262.999992263656
 31
0.0
  0
LINE
  5
87
  8
CORTE_LASER$CORTE
 10
553.2499999999995
 20
2262.999992263656
 30
0.0
 11
553.25
 21
2264.999992263656
 31
0.0
  0
LINE
  5
88
  8
CORTE_LASER$CORTE
 10
553.25
 20
2264.999992263656
 30
0.0
 11
553.25
 21
2294.999992263656
 31
0.0
  0
LINE
  5
89
  8
CORTE_LASER$CORTE
 10
553.25
 20
2294.999992263656
 30
0.0
 11
616.25
 21
2294.999992263656
 31
0.0
  0
LINE
  5
8A
  8
CORTE_LASER$CORTE
 10
586.75
 20
2269.999992263656
 30
0.0
 11
592.25
 21
2269.999992263656
 31
0.0
  0
LINE
  5
8B
  8
CORTE_LASER$CORTE
 10
592.25
 20
2269.999992263656
 30
0.0
 11
592.25
 21
2273.999992263656
 31
0.0
  0
LINE
  5
8C
  8
CORTE_LASER$CORTE
 10
592.25
 20
2273.999992263656
 30
0.0
 11
586.75
 21
2273.999992263611
 31
0.0
  0
LINE
  5
8D
  8
CORTE_LASER$CORTE
 10
586.75
 20
2273.999992263611
 30
0.0
 11
577.25
 21
2273.999992263656
 31
0.0
  0
LINE
  5
8E
  8
CORTE_LASER$CORTE
 10
577.25
 20
2273.999992263656
 30
0.0
 11
577.25
 21
2269.999992263656
 31
0.0
  0
LINE
  5
8F
  8
CORTE_LASER$CORTE
 10
577.25
 20
2269.999992263656
 30
0.0
 11
586.75
 21
2269.999992263656
 31
0.0
  0
LINE
  5
90
  8
CORTE_LASER$CORTE
 10
582.75
 20
2280.499992263656
 30
0.0
 11
586.75
 21
2280.499992263656
 31
0.0
  0
LINE
  5
91
  8
CORTE_LASER$CORTE
 10
586.75
 20
2280.499992263656
 30
0.0
 11
592.25
 21
2280.499992263656
 31
0.0
  0
LINE
  5
92
  8
CORTE_LASER$CORTE
 10
592.25
 20
2280.499992263656
 30
0.0
 11
592.25
 21
2284.499992263656
 31
0.0
  0
LINE
  5
93
  8
CORTE_LASER$CORTE
 10
592.25
 20
2284.499992263656
 30
0.0
 11
586.75
 21
2284.499992263656
 31
0.0
  0
LINE
  5
94
  8
CORTE_LASER$CORTE
 10
586.75
 20
2284.499992263656
 30
0.0
 11
586.75
 21
2286.999992263538
 31
0.0
  0
LINE
  5
95
  8
CORTE_LASER$CORTE
 10
586.75
 20
2286.999992263538
 30
0.0
 11
582.75
 21
2286.999992263538
 31
0.0
  0
LINE
  5
96
  8
CORTE_LASER$CORTE
 10
582.75
 20
2286.999992263538
 30
0.0
 11
582.75
 21
2284.499992263656
 31
0.0
  0
LINE
  5
97
  8
CORTE_LASER$CORTE
 10
582.75
 20
2284.499992263656
 30
0.0
 11
577.25
 21
2284.499992263656
 31
0.0
  0
LINE
  5
98
  8
CORTE_LASER$CORTE
 10
577.25
 20
2284.499992263656
 30
0.0
 11
577.25
 21
2280.499992263656
 31
0.0
  0
LINE
  5
99
  8
CORTE_LASER$CORTE
 10
577.25
 20
2280.499992263656
 30
0.0
 11
582.75
 21
2280.499992263656
 31
0.0
  0
POLYLINE
  5
9A
  8
CORTE_LASER$CORTE
 66
     1
 10
0.0
 20
0.0
 30
0.0
 70
     1
  0
VERTEX
  5
9B
  8
CORTE_LASER$CORTE
 10
574.3041426406671
 20
2371.628296012013
 30
0.0
  0
VERTEX
  5
9C
  8
CORTE_LASER$CORTE
 10
573.5040742226402
 20
2371.628293299669
 30
0.0
  0
VERTEX
  5
9D
  8
CORTE_LASER$CORTE
 10
573.452332628447
 20
2371.627400333839
 30
0.0
  0
VERTEX
  5
9E
  8
CORTE_LASER$CORTE
 10
573.4006526284562
 20
2371.624723104194
 30
0.0
  0
VERTEX
  5
9F
  8
CORTE_LASER$CORTE
 10
573.3490957331215
 20
2371.620264797221
 30
0.0
  0
VERTEX
  5
A0
  8
CORTE_LASER$CORTE
 10
573.2977233063754
 20
2371.614030719276
 30
0.0
  0
VERTEX
  5
A1
  8
CORTE_LASER$CORTE
 10
573.2465964925924
 20
2371.606028290269
 30
0.0
  0
VERTEX
  5
A2
  8
CORTE_LASER$CORTE
 10
573.1957761438142
 20
2371.596267034833
 30
0.0
  0
VERTEX
  5
A3
  8
CORTE_LASER$CORTE
 10
573.1453227473226
 20
2371.584758570988
 30
0.0
  0
VERTEX
  5
A4
  8
CORTE_LASER$CORTE
 10
573.095296353646
 20
2371.571516596312
 30
0.0
  0
VERTEX
  5
A5
  8
CORTE_LASER$CORTE
 10
573.0457565050864
 20
2371.556556871638
 30
0.0
  0
VERTEX
  5
A6
  8
CORTE_LASER$CORTE
 10
572.9967621648516
 20
2371.539897202295
 30
0.0
  0
VERTEX
  5
A7
  8
CORTE_LASER$CORTE
 10
572.9483716468754
 20
2371.52155741692
 30
0.0
  0
VERTEX
  5
A8
  8
CORTE_LASER$CORTE
 10
572.9006425464115
 20
2371.50155934385
 30
0.0
  0
VERTEX
  5
A9
  8
CORTE_LASER$CORTE
 10
572.8536316714832
 20
2371.479926785146
 30
0.0
  0
VERTEX
  5
AA
  8
CORTE_LASER$CORTE
 10
572.8073949752684
 20
2371.456685488264
 30
0.0
  0
VERTEX
  5
AB
  8
CORTE_LASER$CORTE
 10
572.761987489504
 20
2371.431863115408
 30
0.0
  0
VERTEX
  5
AC
  8
CORTE_LASER$CORTE
 10
572.7174632589863
 20
2371.405489210608
 30
0.0
  0
VERTEX
  5
AD
  8
CORTE_LASER$CORTE
 10
560.4308803451763
 20
2363.838233087396
 30
0.0
  0
VERTEX
  5
AE
  8
CORTE_LASER$CORTE
 10
560.34505943014
 20
2363.783344946042
 30
0.0
  0
VERTEX
  5
AF
  8
CORTE_LASER$CORTE
 10
560.2611515845465
 20
2363.725574616574
 30
0.0
  0
VERTEX
  5
B0
  8
CORTE_LASER$CORTE
 10
560.1792535628824
 20
2363.664988714201
 30
0.0
  0
VERTEX
  5
B1
  8
CORTE_LASER$CORTE
 10
560.0994598020977
 20
2363.601657100777
 30
0.0
  0
VERTEX
  5
B2
  8
CORTE_LASER$CORTE
 10
560.0218623127108
 20
2363.535652804252
 30
0.0
  0
VERTEX
  5
B3
  8
CORTE_LASER$CORTE
 10
559.9465505727102
 20
2363.467051934454
 30
0.0
  0
VERTEX
  5
B4
  8
CORTE_LASER$CORTE
 10
559.873611424377
 20
2363.395933595332
 30
0.0
  0
VERTEX
  5
B5
  8
CORTE_LASER$CORTE
 10
559.8031289741476
 20
2363.322379793741
 30
0.0
  0
VERTEX
  5
B6
  8
CORTE_LASER$CORTE
 10
559.735184495629
 20
2363.246475344873
 30
0.0
  0
VERTEX
  5
B7
  8
CORTE_LASER$CORTE
 10
559.6698563358826
 20
2363.168307774468
 30
0.0
  0
VERTEX
  5
B8
  8
CORTE_LASER$CORTE
 10
559.6072198250816
 20
2363.087967217875
 30
0.0
  0
VERTEX
  5
B9
  8
CORTE_LASER$CORTE
 10
559.547347189648
 20
2363.005546316126
 30
0.0
  0
VERTEX
  5
BA
  8
CORTE_LASER$CORTE
 10
559.4903074689672
 20
2362.921140109105
 30
0.0
  0
VERTEX
  5
BB
  8
CORTE_LASER$CORTE
 10
559.4361664357789
 20
2362.834845925962
 30
0.0
  0
VERTEX
  5
BC
  8
CORTE_LASER$CORTE
 10
559.3849865203341
 20
2362.74676327288
 30
0.0
  0
VERTEX
  5
BD
  8
CORTE_LASER$CORTE
 10
559.3368267384068
 20
2362.656993718332
 30
0.0
  0
VERTEX
  5
BE
  8
CORTE_LASER$CORTE
 10
559.2917426232422
 20
2362.565640775967
 30
0.0
  0
VERTEX
  5
BF
  8
CORTE_LASER$CORTE
 10
559.2497861615213
 20
2362.472809785243
 30
0.0
  0
VERTEX
  5
C0
  8
CORTE_LASER$CORTE
 10
559.2110057334154
 20
2362.378607789962
 30
0.0
  0
VERTEX
  5
C1
  8
CORTE_LASER$CORTE
 10
559.1754460567976
 20
2362.283143414838
 30
0.0
  0
VERTEX
  5
C2
  8
CORTE_LASER$CORTE
 10
559.1431481356791
 20
2362.18652674024
 30
0.0
  0
VERTEX
  5
C3
  8
CORTE_LASER$CORTE
 10
559.1141492129277
 20
2362.088869175258
 30
0.0
  0
VERTEX
  5
C4
  8
CORTE_LASER$CORTE
 10
559.0884827273219
 20
2361.990283329238
 30
0.0
  0
VERTEX
  5
C5
  8
CORTE_LASER$CORTE
 10
559.0661782749933
 20
2361.890882881929
 30
0.0
  0
VERTEX
  5
C6
  8
CORTE_LASER$CORTE
 10
559.0472615752989
 20
2361.790782452401
 30
0.0
  0
VERTEX
  5
C7
  8
CORTE_LASER$CORTE
 10
559.0317544411639
 20
2361.690097466877
 30
0.0
  0
VERTEX
  5
C8
  8
CORTE_LASER$CORTE
 10
559.0196747539294
 20
2361.588944025635
 30
0.0
  0
VERTEX
  5
C9
  8
CORTE_LASER$CORTE
 10
559.011036442733
 20
2361.487438769127
 30
0.0
  0
VERTEX
  5
CA
  8
CORTE_LASER$CORTE
 10
559.0058494684474
 20
2361.38569874349
 30
0.0
  0
VERTEX
  5
CB
  8
CORTE_LASER$CORTE
 10
559.0041198121944
 20
2361.28384126557
 30
0.0
  0
VERTEX
  5
CC
  8
CORTE_LASER$CORTE
 10
559.0041198121944
 20
2339.128293299695
 30
0.0
  0
VERTEX
  5
CD
  8
CORTE_LASER$CORTE
 10
555.504120178769
 20
2339.128293299694
 30
0.0
  0
VERTEX
  5
CE
  8
CORTE_LASER$CORTE
 10
555.4529085055462
 20
2339.127418832972
 30
0.0
  0
VERTEX
  5
CF
  8
CORTE_LASER$CORTE
 10
555.4017565428622
 20
2339.124796452395
 30
0.0
  0
VERTEX
  5
D0
  8
CORTE_LASER$CORTE
 10
555.3507239316356
 20
2339.120429215543
 30
0.0
  0
VERTEX
  5
D1
  8
CORTE_LASER$CORTE
 10
555.299870173627
 20
2339.11432221442
 30
0.0
  0
VERTEX
  5
D2
  8
CORTE_LASER$CORTE
 10
555.2492545620618
 20
2339.106482569518
 30
0.0
  0
VERTEX
  5
D3
  8
CORTE_LASER$CORTE
 10
555.198936112497
 20
2339.096919421515
 30
0.0
  0
VERTEX
  5
D4
  8
CORTE_LASER$CORTE
 10
555.1489734940122
 20
2339.085643920618
 30
0.0
  0
VERTEX
  5
D5
  8
CORTE_LASER$CORTE
 10
555.0994249608041
 20
2339.07266921356
 30
0.0
  0
VERTEX
  5
D6
  8
CORTE_LASER$CORTE
 10
555.0503482842634
 20
2339.058010428275
 30
0.0
  0
VERTEX
  5
D7
  8
CORTE_LASER$CORTE
 10
555.0018006856176
 20
2339.041684656255
 30
0.0
  0
VERTEX
  5
D8
  8
CORTE_LASER$CORTE
 10
554.9538387692126
 20
2339.023710932626
 30
0.0
  0
VERTEX
  5
D9
  8
CORTE_LASER$CORTE
 10
554.9065184565148
 20
2339.004110213953
 30
0.0
  0
VERTEX
  5
DA
  8
CORTE_LASER$CORTE
 10
554.8598949209095
 20
2338.982905353803
 30
0.0
  0
VERTEX
  5
DB
  8
CORTE_LASER$CORTE
 10
554.8140225233701
 20
2338.960121076103
 30
0.0
  0
VERTEX
  5
DC
  8
CORTE_LASER$CORTE
 10
554.7689547490769
 20
2338.93578394631
 30
0.0
  0
VERTEX
  5
DD
  8
CORTE_LASER$CORTE
 10
554.7247441450551
 20
2338.909922340436
 30
0.0
  0
VERTEX
  5
DE
  8
CORTE_LASER$CORTE
 10
554.6814422589073
 20
2338.882566411968
 30
0.0
  0
VERTEX
  5
DF
  8
CORTE_LASER$CORTE
 10
554.6390995787114
 20
2338.853748056703
 30
0.0
  0
VERTEX
  5
E0
  8
CORTE_LASER$CORTE
 10
554.5977654741537
 20
2338.823500875566
 30
0.0
  0
VERTEX
  5
E1
  8
CORTE_LASER$CORTE
 10
554.5574881389662
 20
2338.791860135428
 30
0.0
  0
VERTEX
  5
E2
  8
CORTE_LASER$CORTE
 10
554.5183145347345
 20
2338.758862727987
 30
0.0
  0
VERTEX
  5
E3
  8
CORTE_LASER$CORTE
 10
554.4802903361431
 20
2338.724547126757
 30
0.0
  0
VERTEX
  5
E4
  8
CORTE_LASER$CORTE
 10
554.4434598777202
 20
2338.688953342205
 30
0.0
  0
VERTEX
  5
E5
  8
CORTE_LASER$CORTE
 10
554.4078661021464
 20
2338.652122875106
 30
0.0
  0
VERTEX
  5
E6
  8
CORTE_LASER$CORTE
 10
554.3735505101845
 20
2338.614098668151
 30
0.0
  0
VERTEX
  5
E7
  8
CORTE_LASER$CORTE
 10
554.3405531122922
 20
2338.574925055876
 30
0.0
  0
VERTEX
  5
E8
  8
CORTE_LASER$CORTE
 10
554.3089123819714
 20
2338.534647712976
 30
0.0
  0
VERTEX
  5
E9
  8
CORTE_LASER$CORTE
 10
554.2786652109096
 20
2338.493313601045
 30
0.0
  0
VERTEX
  5
EA
  8
CORTE_LASER$CORTE
 10
554.2498468659662
 20
2338.450970913825
 30
0.0
  0
VERTEX
  5
EB
  8
CORTE_LASER$CORTE
 10
554.222490948053
 20
2338.407669021009
 30
0.0
  0
VERTEX
  5
EC
  8
CORTE_LASER$CORTE
 10
554.196629352956
 20
2338.363458410683
 30
0.0
  0
VERTEX
  5
ED
  8
CORTE_LASER$CORTE
 10
554.1722922341479
 20
2338.318390630458
 30
0.0
  0
VERTEX
  5
EE
  8
CORTE_LASER$CORTE
 10
554.1495079676293
 20
2338.272518227365
 30
0.0
  0
VERTEX
  5
EF
  8
CORTE_LASER$CORTE
 10
554.1283031188442
 20
2338.22589468659
 30
0.0
  0
VERTEX
  5
F0
  8
CORTE_LASER$CORTE
 10
554.1087024117052
 20
2338.178574369115
 30
0.0
  0
VERTEX
  5
F1
  8
CORTE_LASER$CORTE
 10
554.0907286997672
 20
2338.130612448329
 30
0.0
  0
VERTEX
  5
F2
  8
CORTE_LASER$CORTE
 10
554.0744029395806
 20
2338.082064845704
 30
0.0
  0
VERTEX
  5
F3
  8
CORTE_LASER$CORTE
 10
554.0597441662577
 20
2338.03298816559
 30
0.0
  0
VERTEX
  5
F4
  8
CORTE_LASER$CORTE
 10
554.0467694712778
 20
2337.983439629219
 30
0.0
  0
VERTEX
  5
F5
  8
CORTE_LASER$CORTE
 10
554.0354939825593
 20
2337.933477007986
 30
0.0
  0
VERTEX
  5
F6
  8
CORTE_LASER$CORTE
 10
554.0259308468219
 20
2337.883158556091
 30
0.0
  0
VERTEX
  5
F7
  8
CORTE_LASER$CORTE
 10
554.0180912142574
 20
2337.832542942615
 30
0.0
  0
VERTEX
  5
F8
  8
CORTE_LASER$CORTE
 10
554.0119842255298
 20
2337.781689183117
 30
0.0
  0
VERTEX
  5
F9
  8
CORTE_LASER$CORTE
 10
554.0076170011167
 20
2337.730656570826
 30
0.0
  0
VERTEX
  5
FA
  8
CORTE_LASER$CORTE
 10
554.0049946330081
 20
2337.679504607503
 30
0.0
  0
VERTEX
  5
FB
  8
CORTE_LASER$CORTE
 10
554.004120178769
 20
2337.628292934067
 30
0.0
  0
VERTEX
  5
FC
  8
CORTE_LASER$CORTE
 10
554.0
 20
2298.0
 30
0.0
  0
VERTEX
  5
FD
  8
CORTE_LASER$CORTE
 10
557.0
 20
2298.0
 30
0.0
  0
VERTEX
  5
FE
  8
CORTE_LASER$CORTE
 10
557.0
 20
2300.0
 30
0.0
  0
VERTEX
  5
FF
  8
CORTE_LASER$CORTE
 10
614.0000000000005
 20
2300.0
 30
0.0
  0
VERTEX
  5
100
  8
CORTE_LASER$CORTE
 10
614.0000000000005
 20
2298.0
 30
0.0
  0
VERTEX
  5
101
  8
CORTE_LASER$CORTE
 10
617.0000000000005
 20
2298.0
 30
0.0
  0
VERTEX
  5
102
  8
CORTE_LASER$CORTE
 10
617.0042137708206
 20
2337.628289643421
 30
0.0
  0
VERTEX
  5
103
  8
CORTE_LASER$CORTE
 10
617.0037828278387
 20
2337.664246647905
 30
0.0
  0
VERTEX
  5
104
  8
CORTE_LASER$CORTE
 10
617.0024823234409
 20
2337.700344283331
 30
0.0
  0
VERTEX
  5
105
  8
CORTE_LASER$CORTE
 10
617.0003020381387
 20
2337.736551770063
 30
0.0
  0
VERTEX
  5
106
  8
CORTE_LASER$CORTE
 10
616.9972331755708
 20
2337.772837607963
 30
0.0
  0
VERTEX
  5
107
  8
CORTE_LASER$CORTE
 10
616.9932684183423
 20
2337.809169657209
 30
0.0
  0
VERTEX
  5
108
  8
CORTE_LASER$CORTE
 10
616.9884019784373
 20
2337.845515223969
 30
0.0
  0
VERTEX
  5
109
  8
CORTE_LASER$CORTE
 10
616.9826296417366
 20
2337.881841150479
 30
0.0
  0
VERTEX
  5
10A
  8
CORTE_LASER$CORTE
 10
616.9759488062075
 20
2337.918113909086
 30
0.0
  0
VERTEX
  5
10B
  8
CORTE_LASER$CORTE
 10
616.9683585133788
 20
2337.954299699712
 30
0.0
  0
VERTEX
  5
10C
  8
CORTE_LASER$CORTE
 10
616.9598594727595
 20
2337.990364550196
 30
0.0
  0
VERTEX
  5
10D
  8
CORTE_LASER$CORTE
 10
616.9504540789142
 20
2338.026274418918
 30
0.0
  0
VERTEX
  5
10E
  8
CORTE_LASER$CORTE
 10
616.9401464209661
 20
2338.061995299066
 30
0.0
  0
VERTEX
  5
10F
  8
CORTE_LASER$CORTE
 10
616.9289422843592
 20
2338.097493323909
 30
0.0
  0
VERTEX
  5
110
  8
CORTE_LASER$CORTE
 10
616.9168491447766
 20
2338.132734872387
 30
0.0
  0
VERTEX
  5
111
  8
CORTE_LASER$CORTE
 10
616.903876154178
 20
2338.167686674354
 30
0.0
  0
VERTEX
  5
112
  8
CORTE_LASER$CORTE
 10
616.8900341189864
 20
2338.202315914773
 30
0.0
  0
VERTEX
  5
113
  8
CORTE_LASER$CORTE
 10
616.8753354705246
 20
2338.236590336193
 30
0.0
  0
VERTEX
  5
114
  8
CORTE_LASER$CORTE
 10
616.8597942278676
 20
2338.270478338827
 30
0.0
  0
VERTEX
  5
115
  8
CORTE_LASER$CORTE
 10
616.8434259533419
 20
2338.303949077587
 30
0.0
  0
VERTEX
  5
116
  8
CORTE_LASER$CORTE
 10
616.8262477009715
 20
2338.336972555453
 30
0.0
  0
VERTEX
  5
117
  8
CORTE_LASER$CORTE
 10
616.808277958223
 20
2338.369519712571
 30
0.0
  0
VERTEX
  5
118
  8
CORTE_LASER$CORTE
 10
616.7895365814632
 20
2338.401562510548
 30
0.0
  0
VERTEX
  5
119
  8
CORTE_LASER$CORTE
 10
616.7700447255933
 20
2338.433074011411
 30
0.0
  0
VERTEX
  5
11A
  8
CORTE_LASER$CORTE
 10
616.7498247683673
 20
2338.464028450805
 30
0.0
  0
VERTEX
  5
11B
  8
CORTE_LASER$CORTE
 10
616.7289002299415
 20
2338.494401305002
 30
0.0
  0
VERTEX
  5
11C
  8
CORTE_LASER$CORTE
 10
616.7072956882372
 20
2338.524169351387
 30
0.0
  0
VERTEX
  5
11D
  8
CORTE_LASER$CORTE
 10
616.6850366907213
 20
2338.55331072215
 30
0.0
  0
VERTEX
  5
11E
  8
CORTE_LASER$CORTE
 10
616.6621496632296
 20
2338.581804950951
 30
0.0
  0
VERTEX
  5
11F
  8
CORTE_LASER$CORTE
 10
616.638661816469
 20
2338.609633012401
 30
0.0
  0
VERTEX
  5
120
  8
CORTE_LASER$CORTE
 10
616.6146010508394
 20
2338.636777354294
 30
0.0
  0
VERTEX
  5
121
  8
CORTE_LASER$CORTE
 10
616.589995860212
 20
2338.663221922531
 30
0.0
  0
VERTEX
  5
122
  8
CORTE_LASER$CORTE
 10
616.5648752352922
 20
2338.688952178785
 30
0.0
  0
VERTEX
  5
123
  8
CORTE_LASER$CORTE
 10
616.5391450402702
 20
2338.714072866424
 30
0.0
  0
VERTEX
  5
124
  8
CORTE_LASER$CORTE
 10
616.5127005320091
 20
2338.73867812151
 30
0.0
  0
VERTEX
  5
125
  8
CORTE_LASER$CORTE
 10
616.4855562487643
 20
2338.762738953304
 30
0.0
  0
VERTEX
  5
126
  8
CORTE_LASER$CORTE
 10
616.4577282445659
 20
2338.786226867895
 30
0.0
  0
VERTEX
  5
127
  8
CORTE_LASER$CORTE
 10
616.4292340715535
 20
2338.809113964842
 30
0.0
  0
VERTEX
  5
128
  8
CORTE_LASER$CORTE
 10
616.4000927550464
 20
2338.831373033391
 30
0.0
  0
VERTEX
  5
129
  8
CORTE_LASER$CORTE
 10
616.3703247613229
 20
2338.852977647655
 30
0.0
  0
VERTEX
  5
12A
  8
CORTE_LASER$CORTE
 10
616.3399519581303
 20
2338.873902260115
 30
0.0
  0
VERTEX
  5
12B
  8
CORTE_LASER$CORTE
 10
616.3089975680224
 20
2338.894122292792
 30
0.0
  0
VERTEX
  5
12C
  8
CORTE_LASER$CORTE
 10
616.2774861146711
 20
2338.913614225472
 30
0.0
  0
VERTEX
  5
12D
  8
CORTE_LASER$CORTE
 10
616.2454433623775
 20
2338.932355680337
 30
0.0
  0
VERTEX
  5
12E
  8
CORTE_LASER$CORTE
 10
616.2128962490602
 20
2338.95032550242
 30
0.0
  0
VERTEX
  5
12F
  8
CORTE_LASER$CORTE
 10
616.1798728130669
 20
2338.967503835285
 30
0.0
  0
VERTEX
  5
130
  8
CORTE_LASER$CORTE
 10
616.1464021142048
 20
2338.983872191396
 30
0.0
  0
VERTEX
  5
131
  8
CORTE_LASER$CORTE
 10
616.1125141494535
 20
2338.999413516655
 30
0.0
  0
VERTEX
  5
132
  8
CORTE_LASER$CORTE
 10
616.078239763862
 20
2339.014112248662
 30
0.0
  0
VERTEX
  5
133
  8
CORTE_LASER$CORTE
 10
616.0436105571831
 20
2339.027954368263
 30
0.0
  0
VERTEX
  5
134
  8
CORTE_LASER$CORTE
 10
616.0086587868383
 20
2339.040927444057
 30
0.0
  0
VERTEX
  5
135
  8
CORTE_LASER$CORTE
 10
615.9734172678376
 20
2339.053020669541
 30
0.0
  0
VERTEX
  5
136
  8
CORTE_LASER$CORTE
 10
615.9379192703049
 20
2339.064224892676
 30
0.0
  0
VERTEX
  5
137
  8
CORTE_LASER$CORTE
 10
615.9021984152815
 20
2339.074532637694
 30
0.0
  0
VERTEX
  5
138
  8
CORTE_LASER$CORTE
 10
615.8662885694856
 20
2339.08393811907
 30
0.0
  0
VERTEX
  5
139
  8
CORTE_LASER$CORTE
 10
615.8302237397179
 20
2339.092437247598
 30
0.0
  0
VERTEX
  5
13A
  8
CORTE_LASER$CORTE
 10
615.7940379675937
 20
2339.10002762863
 30
0.0
  0
VERTEX
  5
13B
  8
CORTE_LASER$CORTE
 10
615.757765225271
 20
2339.106708552575
 30
0.0
  0
VERTEX
  5
13C
  8
CORTE_LASER$CORTE
 10
615.7214393128305
 20
2339.112480977821
 30
0.0
  0
VERTEX
  5
13D
  8
CORTE_LASER$CORTE
 10
615.6850937579333
 20
2339.117347506318
 30
0.0
  0
VERTEX
  5
13E
  8
CORTE_LASER$CORTE
 10
615.6487617183511
 20
2339.121312352107
 30
0.0
  0
VERTEX
  5
13F
  8
CORTE_LASER$CORTE
 10
615.6124758879322
 20
2339.124381303122
 30
0.0
  0
VERTEX
  5
140
  8
CORTE_LASER$CORTE
 10
615.5762684065137
 20
2339.126561676681
 30
0.0
  0
VERTEX
  5
141
  8
CORTE_LASER$CORTE
 10
615.540170774258
 20
2339.127862269067
 30
0.0
  0
VERTEX
  5
142
  8
CORTE_LASER$CORTE
 10
615.5042137708251
 20
2339.128293299695
 30
0.0
  0
VERTEX
  5
143
  8
CORTE_LASER$CORTE
 10
612.0041375620822
 20
2339.128293299695
 30
0.0
  0
VERTEX
  5
144
  8
CORTE_LASER$CORTE
 10
612.0041375620822
 20
2361.283912005326
 30
0.0
  0
VERTEX
  5
145
  8
CORTE_LASER$CORTE
 10
612.0024079079575
 20
2361.385769420593
 30
0.0
  0
VERTEX
  5
146
  8
CORTE_LASER$CORTE
 10
611.9972209400523
 20
2361.487509383795
 30
0.0
  0
VERTEX
  5
147
  8
CORTE_LASER$CORTE
 10
611.9885826394736
 20
2361.589014578301
 30
0.0
  0
VERTEX
  5
148
  8
CORTE_LASER$CORTE
 10
611.9765029670695
 20
2361.69016795819
 30
0.0
  0
VERTEX
  5
149
  8
CORTE_LASER$CORTE
 10
611.9609958519432
 20
2361.790852883223
 30
0.0
  0
VERTEX
  5
14A
  8
CORTE_LASER$CORTE
 10
611.9420791753921
 20
2361.890953253336
 30
0.0
  0
VERTEX
  5
14B
  8
CORTE_LASER$CORTE
 10
611.919774750288
 20
2361.990353642516
 30
0.0
  0
VERTEX
  5
14C
  8
CORTE_LASER$CORTE
 10
611.8941082959244
 20
2362.088939431902
 30
0.0
  0
VERTEX
  5
14D
  8
CORTE_LASER$CORTE
 10
611.8651094083608
 20
2362.186596941949
 30
0.0
  0
VERTEX
  5
14E
  8
CORTE_LASER$CORTE
 10
611.832811526294
 20
2362.283213563513
 30
0.0
  0
VERTEX
  5
14F
  8
CORTE_LASER$CORTE
 10
611.7972518925008
 20
2362.378677887702
 30
0.0
  0
VERTEX
  5
150
  8
CORTE_LASER$CORTE
 10
611.7584715108925
 20
2362.472879834343
 30
0.0
  0
VERTEX
  5
151
  8
CORTE_LASER$CORTE
 10
611.716515099234
 20
2362.565710778909
 30
0.0
  0
VERTEX
  5
152
  8
CORTE_LASER$CORTE
 10
611.6714310375787
 20
2362.657063677786
 30
0.0
  0
VERTEX
  5
153
  8
CORTE_LASER$CORTE
 10
611.6232713124823
 20
2362.746833191693
 30
0.0
  0
VERTEX
  5
154
  8
CORTE_LASER$CORTE
 10
611.5720914570561
 20
2362.834915807157
 30
0.0
  0
VERTEX
  5
155
  8
CORTE_LASER$CORTE
 10
611.5179504869321
 20
2362.921209955872
 30
0.0
  0
VERTEX
  5
156
  8
CORTE_LASER$CORTE
 10
611.460910832212
 20
2363.005616131818
 30
0.0
  0
VERTEX
  5
157
  8
CORTE_LASER$CORTE
 10
611.4010382654784
 20
2363.088037006002
 30
0.0
  0
VERTEX
  5
158
  8
CORTE_LASER$CORTE
 10
611.3384018259526
 20
2363.168377538686
 30
0.0
  0
VERTEX
  5
159
  8
CORTE_LASER$CORTE
 10
611.2730737398854
 20
2363.246545088982
 30
0.0
  0
VERTEX
  5
15A
  8
CORTE_LASER$CORTE
 10
611.2051293372722
 20
2363.322449521672
 30
0.0
  0
VERTEX
  5
15B
  8
CORTE_LASER$CORTE
 10
611.1346469649908
 20
2363.396003311146
 30
0.0
  0
VERTEX
  5
15C
  8
CORTE_LASER$CORTE
 10
611.0617078964584
 20
2363.467121642328
 30
0.0
  0
VERTEX
  5
15D
  8
CORTE_LASER$CORTE
 10
610.9863962379154
 20
2363.535722508473
 30
0.0
  0
VERTEX
  5
15E
  8
CORTE_LASER$CORTE
 10
610.9087988314424
 20
2363.601726805736
 30
0.0
  0
VERTEX
  5
15F
  8
CORTE_LASER$CORTE
 10
610.8290051548222
 20
2363.665058424378
 30
0.0
  0
VERTEX
  5
160
  8
CORTE_LASER$CORTE
 10
610.7471072183628
 20
2363.725644336537
 30
0.0
  0
VERTEX
  5
161
  8
CORTE_LASER$CORTE
 10
610.6631994587998
 20
2363.783414680431
 30
0.0
  0
VERTEX
  5
162
  8
CORTE_LASER$CORTE
 10
610.5773786304017
 20
2363.838302840916
 30
0.0
  0
VERTEX
  5
163
  8
CORTE_LASER$CORTE
 10
598.6525668140548
 20
2371.182755937153
 30
0.0
  0
VERTEX
  5
164
  8
CORTE_LASER$CORTE
 10
598.5635136641847
 20
2371.235506490656
 30
0.0
  0
VERTEX
  5
165
  8
CORTE_LASER$CORTE
 10
598.4726938220447
 20
2371.285153652411
 30
0.0
  0
VERTEX
  5
166
  8
CORTE_LASER$CORTE
 10
598.3802153943715
 20
2371.33163832528
 30
0.0
  0
VERTEX
  5
167
  8
CORTE_LASER$CORTE
 10
598.2861884621876
 20
2371.374905176572
 30
0.0
  0
VERTEX
  5
168
  8
CORTE_LASER$CORTE
 10
598.1907249497664
 20
2371.414902703906
 30
0.0
  0
VERTEX
  5
169
  8
CORTE_LASER$CORTE
 10
598.0939384914038
 20
2371.451583296517
 30
0.0
  0
VERTEX
  5
16A
  8
CORTE_LASER$CORTE
 10
597.9959442961554
 20
2371.484903291929
 30
0.0
  0
VERTEX
  5
16B
  8
CORTE_LASER$CORTE
 10
597.8968590106969
 20
2371.514823027928
 30
0.0
  0
VERTEX
  5
16C
  8
CORTE_LASER$CORTE
 10
597.7968005804756
 20
2371.541306889775
 30
0.0
  0
VERTEX
  5
16D
  8
CORTE_LASER$CORTE
 10
597.6958881093146
 20
2371.564323352597
 30
0.0
  0
VERTEX
  5
16E
  8
CORTE_LASER$CORTE
 10
597.5942417176385
 20
2371.583845018915
 30
0.0
  0
VERTEX
  5
16F
  8
CORTE_LASER$CORTE
 10
597.4919823994886
 20
2371.599848651258
 30
0.0
  0
VERTEX
  5
170
  8
CORTE_LASER$CORTE
 10
597.3892318784987
 20
2371.612315199817
 30
0.0
  0
VERTEX
  5
171
  8
CORTE_LASER$CORTE
 10
597.2861124630028
 20
2371.621229825127
 30
0.0
  0
VERTEX
  5
172
  8
CORTE_LASER$CORTE
 10
597.1827469004453
 20
2371.62658191573
 30
0.0
  0
VERTEX
  5
173
  8
CORTE_LASER$CORTE
 10
597.0792582312702
 20
2371.628365100802
 30
0.0
  0
VERTEX
  5
174
  8
CORTE_LASER$CORTE
 10
596.6958314642575
 20
2371.628356471851
 30
0.0
  0
VERTEX
  5
175
  8
CORTE_LASER$CORTE
 10
596.6609324810752
 20
2371.627746530928
 30
0.0
  0
VERTEX
  5
176
  8
CORTE_LASER$CORTE
 10
596.6260760431277
 20
2371.625919022048
 30
0.0
  0
VERTEX
  5
177
  8
CORTE_LASER$CORTE
 10
596.5913046163989
 20
2371.622876171685
 30
0.0
  0
VERTEX
  5
178
  8
CORTE_LASER$CORTE
 10
596.5566605633024
 20
2371.618621686977
 30
0.0
  0
VERTEX
  5
179
  8
CORTE_LASER$CORTE
 10
596.5221860910708
 20
2371.613160751212
 30
0.0
  0
VERTEX
  5
17A
  8
CORTE_LASER$CORTE
 10
596.4879232003348
 20
2371.606500017505
 30
0.0
  0
VERTEX
  5
17B
  8
CORTE_LASER$CORTE
 10
596.4539136339532
 20
2371.598647600704
 30
0.0
  0
VERTEX
  5
17C
  8
CORTE_LASER$CORTE
 10
596.4201988261565
 20
2371.589613067494
 30
0.0
  0
VERTEX
  5
17D
  8
CORTE_LASER$CORTE
 10
596.3868198520679
 20
2371.579407424747
 30
0.0
  0
VERTEX
  5
17E
  8
CORTE_LASER$CORTE
 10
596.3538173776603
 20
2371.568043106111
 30
0.0
  0
VERTEX
  5
17F
  8
CORTE_LASER$CORTE
 10
596.3212316102134
 20
2371.55553395686
 30
0.0
  0
VERTEX
  5
180
  8
CORTE_LASER$CORTE
 10
596.2891022493277
 20
2371.541895217029
 30
0.0
  0
VERTEX
  5
181
  8
CORTE_LASER$CORTE
 10
596.2574684385589
 20
2371.527143502846
 30
0.0
  0
VERTEX
  5
182
  8
CORTE_LASER$CORTE
 10
596.2263687177284
 20
2371.511296786488
 30
0.0
  0
VERTEX
  5
183
  8
CORTE_LASER$CORTE
 10
596.1958409759696
 20
2371.494374374184
 30
0.0
  0
VERTEX
  5
184
  8
CORTE_LASER$CORTE
 10
596.1659224055682
 20
2371.476396882695
 30
0.0
  0
VERTEX
  5
185
  8
CORTE_LASER$CORTE
 10
596.1366494566489
 20
2371.457386214199
 30
0.0
  0
VERTEX
  5
186
  8
CORTE_LASER$CORTE
 10
596.1080577927694
 20
2371.437365529604
 30
0.0
  0
VERTEX
  5
187
  8
CORTE_LASER$CORTE
 10
596.0801822474693
 20
2371.416359220329
 30
0.0
  0
VERTEX
  5
188
  8
CORTE_LASER$CORTE
 10
596.0530567818342
 20
2371.394392878596
 30
0.0
  0
VERTEX
  5
189
  8
CORTE_LASER$CORTE
 10
596.0267144431185
 20
2371.371493266239
 30
0.0
  0
VERTEX
  5
18A
  8
CORTE_LASER$CORTE
 10
596.0011873244846
 20
2371.347688282111
 30
0.0
  0
VERTEX
  5
18B
  8
CORTE_LASER$CORTE
 10
595.9765065259033
 20
2371.323006928087
 30
0.0
  0
VERTEX
  5
18C
  8
CORTE_LASER$CORTE
 10
595.9527021162646
 20
2371.297479273732
 30
0.0
  0
VERTEX
  5
18D
  8
CORTE_LASER$CORTE
 10
595.9298030967439
 20
2371.271136419672
 30
0.0
  0
VERTEX
  5
18E
  8
CORTE_LASER$CORTE
 10
595.9078373654695
 20
2371.244010459694
 30
0.0
  0
VERTEX
  5
18F
  8
CORTE_LASER$CORTE
 10
595.8868316835349
 20
2371.216134441658
 30
0.0
  0
VERTEX
  5
190
  8
CORTE_LASER$CORTE
 10
595.8668116423946
 20
2371.187542327224
 30
0.0
  0
VERTEX
  5
191
  8
CORTE_LASER$CORTE
 10
595.8478016326861
 20
2371.15826895048
 30
0.0
  0
VERTEX
  5
192
  8
CORTE_LASER$CORTE
 10
595.8298248145144
 20
2371.128349975506
 30
0.0
  0
VERTEX
  5
193
  8
CORTE_LASER$CORTE
 10
595.8129030892356
 20
2371.097821852919
 30
0.0
  0
VERTEX
  5
194
  8
CORTE_LASER$CORTE
 10
595.7970570727749
 20
2371.066721775469
 30
0.0
  0
VERTEX
  5
195
  8
CORTE_LASER$CORTE
 10
595.7823060705092
 20
2371.035087632723
 30
0.0
  0
VERTEX
  5
196
  8
CORTE_LASER$CORTE
 10
595.7686680537477
 20
2371.002957964909
 30
0.0
  0
VERTEX
  5
197
  8
CORTE_LASER$CORTE
 10
595.7561596378368
 20
2370.970371915954
 30
0.0
  0
VERTEX
  5
198
  8
CORTE_LASER$CORTE
 10
595.7447960619184
 20
2370.937369185802
 30
0.0
  0
VERTEX
  5
199
  8
CORTE_LASER$CORTE
 10
595.734591170362
 20
2370.903989982046
 30
0.0
  0
VERTEX
  5
19A
  8
CORTE_LASER$CORTE
 10
595.7255573959003
 20
2370.870274970937
 30
0.0
  0
VERTEX
  5
19B
  8
CORTE_LASER$CORTE
 10
595.7177057444804
 20
2370.836265227847
 30
0.0
  0
VERTEX
  5
19C
  8
CORTE_LASER$CORTE
 10
595.711045781856
 20
2370.802002187221
 30
0.0
  0
VERTEX
  5
19D
  8
CORTE_LASER$CORTE
 10
595.7055856219332
 20
2370.767527592101
 30
0.0
  0
VERTEX
  5
19E
  8
CORTE_LASER$CORTE
 10
595.7013319168854
 20
2370.732883443267
 30
0.0
  0
VERTEX
  5
19F
  8
CORTE_LASER$CORTE
 10
595.698289849048
 20
2370.698111948068
 30
0.0
  0
VERTEX
  5
1A0
  8
CORTE_LASER$CORTE
 10
595.6964631246065
 20
2370.663255469001
 30
0.0
  0
VERTEX
  5
1A1
  8
CORTE_LASER$CORTE
 10
595.695853969079
 20
2370.628356472101
 30
0.0
  0
VERTEX
  5
1A2
  8
CORTE_LASER$CORTE
 10
595.6958539691818
 20
2342.128293299705
 30
0.0
  0
VERTEX
  5
1A3
  8
CORTE_LASER$CORTE
 10
595.6941050362807
 20
2342.025869969147
 30
0.0
  0
VERTEX
  5
1A4
  8
CORTE_LASER$CORTE
 10
595.6888602767541
 20
2341.923566059611
 30
0.0
  0
VERTEX
  5
1A5
  8
CORTE_LASER$CORTE
 10
595.6801258057571
 20
2341.821500852879
 30
0.0
  0
VERTEX
  5
1A6
  8
CORTE_LASER$CORTE
 10
595.6679118072922
 20
2341.719793352416
 30
0.0
  0
VERTEX
  5
1A7
  8
CORTE_LASER$CORTE
 10
595.652232522335
 20
2341.618562144618
 30
0.0
  0
VERTEX
  5
1A8
  8
CORTE_LASER$CORTE
 10
595.6331062322307
 20
2341.517925260546
 30
0.0
  0
VERTEX
  5
1A9
  8
CORTE_LASER$CORTE
 10
595.6105552373779
 20
2341.418000038304
 30
0.0
  0
VERTEX
  5
1AA
  8
CORTE_LASER$CORTE
 10
595.5846058312276
 20
2341.318902986232
 30
0.0
  0
VERTEX
  5
1AB
  8
CORTE_LASER$CORTE
 10
595.5552882696269
 20
2341.22074964706
 30
0.0
  0
VERTEX
  5
1AC
  8
CORTE_LASER$CORTE
 10
595.5226367355411
 20
2341.12365446319
 30
0.0
  0
VERTEX
  5
1AD
  8
CORTE_LASER$CORTE
 10
595.4866892991984
 20
2341.027730643263
 30
0.0
  0
VERTEX
  5
1AE
  8
CORTE_LASER$CORTE
 10
595.4474878737013
 20
2340.933090030163
 30
0.0
  0
VERTEX
  5
1AF
  8
CORTE_LASER$CORTE
 10
595.4050781661588
 20
2340.839842970611
 30
0.0
  0
VERTEX
  5
1B0
  8
CORTE_LASER$CORTE
 10
595.3595096243924
 20
2340.748098186508
 30
0.0
  0
VERTEX
  5
1B1
  8
CORTE_LASER$CORTE
 10
595.3108353792836
 20
2340.657962648167
 30
0.0
  0
VERTEX
  5
1B2
  8
CORTE_LASER$CORTE
 10
595.2591121828249
 20
2340.569541449594
 30
0.0
  0
VERTEX
  5
1B3
  8
CORTE_LASER$CORTE
 10
595.2044003419496
 20
2340.482937685952
 30
0.0
  0
VERTEX
  5
1B4
  8
CORTE_LASER$CORTE
 10
595.146763648217
 20
2340.398252333355
 30
0.0
  0
VERTEX
  5
1B5
  8
CORTE_LASER$CORTE
 10
595.0862693034334
 20
2340.315584131136
 30
0.0
  0
VERTEX
  5
1B6
  8
CORTE_LASER$CORTE
 10
595.0229878412989
 20
2340.235029466721
 30
0.0
  0
VERTEX
  5
1B7
  8
CORTE_LASER$CORTE
 10
594.9569930451678
 20
2340.156682263245
 30
0.0
  0
VERTEX
  5
1B8
  8
CORTE_LASER$CORTE
 10
594.88836186202
 20
2340.080633870043
 30
0.0
  0
VERTEX
  5
1B9
  8
CORTE_LASER$CORTE
 10
594.8171743127452
 20
2340.006972956139
 30
0.0
  0
VERTEX
  5
1BA
  8
CORTE_LASER$CORTE
 10
594.7435133988415
 20
2339.935785406864
 30
0.0
  0
VERTEX
  5
1BB
  8
CORTE_LASER$CORTE
 10
594.6674650056394
 20
2339.867154223716
 30
0.0
  0
VERTEX
  5
1BC
  8
CORTE_LASER$CORTE
 10
594.5891178021636
 20
2339.801159427584
 30
0.0
  0
VERTEX
  5
1BD
  8
CORTE_LASER$CORTE
 10
594.5085631377486
 20
2339.73787796545
 30
0.0
  0
VERTEX
  5
1BE
  8
CORTE_LASER$CORTE
 10
594.4258949355299
 20
2339.677383620666
 30
0.0
  0
VERTEX
  5
1BF
  8
CORTE_LASER$CORTE
 10
594.3412095829332
 20
2339.619746926933
 30
0.0
  0
VERTEX
  5
1C0
  8
CORTE_LASER$CORTE
 10
594.2546058192913
 20
2339.565035086057
 30
0.0
  0
VERTEX
  5
1C1
  8
CORTE_LASER$CORTE
 10
594.1661846207189
 20
2339.513311889598
 30
0.0
  0
VERTEX
  5
1C2
  8
CORTE_LASER$CORTE
 10
594.0760490823782
 20
2339.464637644489
 30
0.0
  0
VERTEX
  5
1C3
  8
CORTE_LASER$CORTE
 10
593.9843042982748
 20
2339.419069102722
 30
0.0
  0
VERTEX
  5
1C4
  8
CORTE_LASER$CORTE
 10
593.8910572387231
 20
2339.37665939518
 30
0.0
  0
VERTEX
  5
1C5
  8
CORTE_LASER$CORTE
 10
593.7964166256234
 20
2339.337457969682
 30
0.0
  0
VERTEX
  5
1C6
  8
CORTE_LASER$CORTE
 10
593.700492805697
 20
2339.301510533339
 30
0.0
  0
VERTEX
  5
1C7
  8
CORTE_LASER$CORTE
 10
593.6033976218271
 20
2339.268858999253
 30
0.0
  0
VERTEX
  5
1C8
  8
CORTE_LASER$CORTE
 10
593.5052442826546
 20
2339.239541437652
 30
0.0
  0
VERTEX
  5
1C9
  8
CORTE_LASER$CORTE
 10
593.4061472305827
 20
2339.213592031501
 30
0.0
  0
VERTEX
  5
1CA
  8
CORTE_LASER$CORTE
 10
593.3062220083411
 20
2339.191041036648
 30
0.0
  0
VERTEX
  5
1CB
  8
CORTE_LASER$CORTE
 10
593.205585124269
 20
2339.171914746543
 30
0.0
  0
VERTEX
  5
1CC
  8
CORTE_LASER$CORTE
 10
593.1043539164715
 20
2339.156235461586
 30
0.0
  0
VERTEX
  5
1CD
  8
CORTE_LASER$CORTE
 10
593.0026464160086
 20
2339.14402146312
 30
0.0
  0
VERTEX
  5
1CE
  8
CORTE_LASER$CORTE
 10
592.9005812092763
 20
2339.135286992123
 30
0.0
  0
VERTEX
  5
1CF
  8
CORTE_LASER$CORTE
 10
592.79827729974
 20
2339.130042232596
 30
0.0
  0
VERTEX
  5
1D0
  8
CORTE_LASER$CORTE
 10
592.6958539691818
 20
2339.128293299695
 30
0.0
  0
VERTEX
  5
1D1
  8
CORTE_LASER$CORTE
 10
578.3041460308077
 20
2339.128293299695
 30
0.0
  0
VERTEX
  5
1D2
  8
CORTE_LASER$CORTE
 10
578.2017227002498
 20
2339.130042232596
 30
0.0
  0
VERTEX
  5
1D3
  8
CORTE_LASER$CORTE
 10
578.0994187907137
 20
2339.135286992123
 30
0.0
  0
VERTEX
  5
1D4
  8
CORTE_LASER$CORTE
 10
577.9973535839815
 20
2339.14402146312
 30
0.0
  0
VERTEX
  5
1D5
  8
CORTE_LASER$CORTE
 10
577.895646083519
 20
2339.156235461586
 30
0.0
  0
VERTEX
  5
1D6
  8
CORTE_LASER$CORTE
 10
577.7944148757216
 20
2339.171914746543
 30
0.0
  0
VERTEX
  5
1D7
  8
CORTE_LASER$CORTE
 10
577.6937779916498
 20
2339.191041036648
 30
0.0
  0
VERTEX
  5
1D8
  8
CORTE_LASER$CORTE
 10
577.5938527694084
 20
2339.213592031501
 30
0.0
  0
VERTEX
  5
1D9
  8
CORTE_LASER$CORTE
 10
577.4947557173366
 20
2339.239541437651
 30
0.0
  0
VERTEX
  5
1DA
  8
CORTE_LASER$CORTE
 10
577.3966023781644
 20
2339.268858999252
 30
0.0
  0
VERTEX
  5
1DB
  8
CORTE_LASER$CORTE
 10
577.2995071942947
 20
2339.301510533338
 30
0.0
  0
VERTEX
  5
1DC
  8
CORTE_LASER$CORTE
 10
577.2035833743685
 20
2339.337457969681
 30
0.0
  0
VERTEX
  5
1DD
  8
CORTE_LASER$CORTE
 10
577.1089427612688
 20
2339.376659395178
 30
0.0
  0
VERTEX
  5
1DE
  8
CORTE_LASER$CORTE
 10
577.0156957017174
 20
2339.419069102721
 30
0.0
  0
VERTEX
  5
1DF
  8
CORTE_LASER$CORTE
 10
576.9239509176141
 20
2339.464637644488
 30
0.0
  0
VERTEX
  5
1E0
  8
CORTE_LASER$CORTE
 10
576.8338153792735
 20
2339.513311889596
 30
0.0
  0
VERTEX
  5
1E1
  8
CORTE_LASER$CORTE
 10
576.7453941807013
 20
2339.565035086055
 30
0.0
  0
VERTEX
  5
1E2
  8
CORTE_LASER$CORTE
 10
576.6587904170595
 20
2339.61974692693
 30
0.0
  0
VERTEX
  5
1E3
  8
CORTE_LASER$CORTE
 10
576.574105064463
 20
2339.677383620663
 30
0.0
  0
VERTEX
  5
1E4
  8
CORTE_LASER$CORTE
 10
576.4914368622442
 20
2339.737877965447
 30
0.0
  0
VERTEX
  5
1E5
  8
CORTE_LASER$CORTE
 10
576.4108821978293
 20
2339.801159427581
 30
0.0
  0
VERTEX
  5
1E6
  8
CORTE_LASER$CORTE
 10
576.3325349943535
 20
2339.867154223713
 30
0.0
  0
VERTEX
  5
1E7
  8
CORTE_LASER$CORTE
 10
576.2564866011516
 20
2339.93578540686
 30
0.0
  0
VERTEX
  5
1E8
  8
CORTE_LASER$CORTE
 10
576.1828256872478
 20
2340.006972956135
 30
0.0
  0
VERTEX
  5
1E9
  8
CORTE_LASER$CORTE
 10
576.111638137973
 20
2340.080633870039
 30
0.0
  0
VERTEX
  5
1EA
  8
CORTE_LASER$CORTE
 10
576.0430069548254
 20
2340.156682263241
 30
0.0
  0
VERTEX
  5
1EB
  8
CORTE_LASER$CORTE
 10
575.9770121586942
 20
2340.235029466716
 30
0.0
  0
VERTEX
  5
1EC
  8
CORTE_LASER$CORTE
 10
575.9137306965598
 20
2340.315584131131
 30
0.0
  0
VERTEX
  5
1ED
  8
CORTE_LASER$CORTE
 10
575.8532363517761
 20
2340.39825233335
 30
0.0
  0
VERTEX
  5
1EE
  8
CORTE_LASER$CORTE
 10
575.7955996580433
 20
2340.482937685947
 30
0.0
  0
VERTEX
  5
1EF
  8
CORTE_LASER$CORTE
 10
575.740887817168
 20
2340.569541449588
 30
0.0
  0
VERTEX
  5
1F0
  8
CORTE_LASER$CORTE
 10
575.6891646207091
 20
2340.657962648161
 30
0.0
  0
VERTEX
  5
1F1
  8
CORTE_LASER$CORTE
 10
575.6404903756003
 20
2340.748098186501
 30
0.0
  0
VERTEX
  5
1F2
  8
CORTE_LASER$CORTE
 10
575.5949218338337
 20
2340.839842970604
 30
0.0
  0
VERTEX
  5
1F3
  8
CORTE_LASER$CORTE
 10
575.5525121262909
 20
2340.933090030156
 30
0.0
  0
VERTEX
  5
1F4
  8
CORTE_LASER$CORTE
 10
575.5133107007938
 20
2341.027730643255
 30
0.0
  0
VERTEX
  5
1F5
  8
CORTE_LASER$CORTE
 10
575.4773632644508
 20
2341.123654463182
 30
0.0
  0
VERTEX
  5
1F6
  8
CORTE_LASER$CORTE
 10
575.4447117303648
 20
2341.220749647051
 30
0.0
  0
VERTEX
  5
1F7
  8
CORTE_LASER$CORTE
 10
575.4153941687639
 20
2341.318902986223
 30
0.0
  0
VERTEX
  5
1F8
  8
CORTE_LASER$CORTE
 10
575.3894447626135
 20
2341.418000038295
 30
0.0
  0
VERTEX
  5
1F9
  8
CORTE_LASER$CORTE
 10
575.3668937677603
 20
2341.517925260537
 30
0.0
  0
VERTEX
  5
1FA
  8
CORTE_LASER$CORTE
 10
575.3477674776557
 20
2341.618562144608
 30
0.0
  0
VERTEX
  5
1FB
  8
CORTE_LASER$CORTE
 10
575.3320881926983
 20
2341.719793352406
 30
0.0
  0
VERTEX
  5
1FC
  8
CORTE_LASER$CORTE
 10
575.319874194233
 20
2341.821500852869
 30
0.0
  0
VERTEX
  5
1FD
  8
CORTE_LASER$CORTE
 10
575.3111397232357
 20
2341.9235660596
 30
0.0
  0
VERTEX
  5
1FE
  8
CORTE_LASER$CORTE
 10
575.3058949637087
 20
2342.025869969137
 30
0.0
  0
VERTEX
  5
1FF
  8
CORTE_LASER$CORTE
 10
575.3041460308073
 20
2342.128293299695
 30
0.0
  0
VERTEX
  5
200
  8
CORTE_LASER$CORTE
 10
575.3041460308068
 20
2370.628296012019
 30
0.0
  0
VERTEX
  5
201
  8
CORTE_LASER$CORTE
 10
575.3035630506569
 20
2370.662437195861
 30
0.0
  0
VERTEX
  5
202
  8
CORTE_LASER$CORTE
 10
575.3018147899386
 20
2370.696538572437
 30
0.0
  0
VERTEX
  5
203
  8
CORTE_LASER$CORTE
 10
575.2989032870547
 20
2370.730560380898
 30
0.0
  0
VERTEX
  5
204
  8
CORTE_LASER$CORTE
 10
575.2948319367018
 20
2370.764462953164
 30
0.0
  0
VERTEX
  5
205
  8
CORTE_LASER$CORTE
 10
575.2896054859131
 20
2370.798206760183
 30
0.0
  0
VERTEX
  5
206
  8
CORTE_LASER$CORTE
 10
575.2832300285224
 20
2370.831752458015
 30
0.0
  0
VERTEX
  5
207
  8
CORTE_LASER$CORTE
 10
575.27571299806
 20
2370.865060933708
 30
0.0
  0
VERTEX
  5
208
  8
CORTE_LASER$CORTE
 10
575.2670631590851
 20
2370.898093350902
 30
0.0
  0
VERTEX
  5
209
  8
CORTE_LASER$CORTE
 10
575.2572905969664
 20
2370.93081119511
 30
0.0
  0
VERTEX
  5
20A
  8
CORTE_LASER$CORTE
 10
575.2464067061235
 20
2370.963176318623
 30
0.0
  0
VERTEX
  5
20B
  8
CORTE_LASER$CORTE
 10
575.234424176741
 20
2370.995150984995
 30
0.0
  0
VERTEX
  5
20C
  8
CORTE_LASER$CORTE
 10
575.2213569799723
 20
2371.026697913032
 30
0.0
  0
VERTEX
  5
20D
  8
CORTE_LASER$CORTE
 10
575.2072203516501
 20
2371.057780320269
 30
0.0
  0
VERTEX
  5
20E
  8
CORTE_LASER$CORTE
 10
575.1920307745221
 20
2371.088361965853
 30
0.0
  0
VERTEX
  5
20F
  8
CORTE_LASER$CORTE
 10
575.1758059590318
 20
2371.1184071928
 30
0.0
  0
VERTEX
  5
210
  8
CORTE_LASER$CORTE
 10
575.1585648226702
 20
2371.147880969567
 30
0.0
  0
VERTEX
  5
211
  8
CORTE_LASER$CORTE
 10
575.1403274679177
 20
2371.176748930902
 30
0.0
  0
VERTEX
  5
212
  8
CORTE_LASER$CORTE
 10
575.121115158806
 20
2371.204977417906
 30
0.0
  0
VERTEX
  5
213
  8
CORTE_LASER$CORTE
 10
575.1009502961248
 20
2371.232533517286
 30
0.0
  0
VERTEX
  5
214
  8
CORTE_LASER$CORTE
 10
575.0798563913033
 20
2371.259385099722
 30
0.0
  0
VERTEX
  5
215
  8
CORTE_LASER$CORTE
 10
575.0578580389972
 20
2371.285500857337
 30
0.0
  0
VERTEX
  5
216
  8
CORTE_LASER$CORTE
 10
575.034980888412
 20
2371.310850340193
 30
0.0
  0
VERTEX
  5
217
  8
CORTE_LASER$CORTE
 10
575.0112516133969
 20
2371.3354039918
 30
0.0
  0
VERTEX
  5
218
  8
CORTE_LASER$CORTE
 10
574.9866978813448
 20
2371.359133183574
 30
0.0
  0
VERTEX
  5
219
  8
CORTE_LASER$CORTE
 10
574.9613483209321
 20
2371.382010248221
 30
0.0
  0
VERTEX
  5
21A
  8
CORTE_LASER$CORTE
 10
574.9352324887402
 20
2371.404008511991
 30
0.0
  0
VERTEX
  5
21B
  8
CORTE_LASER$CORTE
 10
574.9083808347924
 20
2371.425102325782
 30
0.0
  0
VERTEX
  5
21C
  8
CORTE_LASER$CORTE
 10
574.8808246670513
 20
2371.445267095044
 30
0.0
  0
VERTEX
  5
21D
  8
CORTE_LASER$CORTE
 10
574.8525961149146
 20
2371.464479308457
 30
0.0
  0
VERTEX
  5
21E
  8
CORTE_LASER$CORTE
 10
574.8237280917533
 20
2371.482716565343
 30
0.0
  0
VERTEX
  5
21F
  8
CORTE_LASER$CORTE
 10
574.7942542565363
 20
2371.499957601784
 30
0.0
  0
VERTEX
  5
220
  8
CORTE_LASER$CORTE
 10
574.7642089745855
 20
2371.516182315417
 30
0.0
  0
VERTEX
  5
221
  8
CORTE_LASER$CORTE
 10
574.7336272775066
 20
2371.531371788869
 30
0.0
  0
VERTEX
  5
222
  8
CORTE_LASER$CORTE
 10
574.7025448223446
 20
2371.545508311817
 30
0.0
  0
VERTEX
  5
223
  8
CORTE_LASER$CORTE
 10
574.6709978500081
 20
2371.558575401637
 30
0.0
  0
VERTEX
  5
224
  8
CORTE_LASER$CORTE
 10
574.6390231430144
 20
2371.570557822621
 30
0.0
  0
VERTEX
  5
225
  8
CORTE_LASER$CORTE
 10
574.6066579826025
 20
2371.581441603741
 30
0.0
  0
VERTEX
  5
226
  8
CORTE_LASER$CORTE
 10
574.5739401052646
 20
2371.591214054942
 30
0.0
  0
VERTEX
  5
227
  8
CORTE_LASER$CORTE
 10
574.5409076587466
 20
2371.599863781933
 30
0.0
  0
VERTEX
  5
228
  8
CORTE_LASER$CORTE
 10
574.50759915757
 20
2371.607380699475
 30
0.0
  0
VERTEX
  5
229
  8
CORTE_LASER$CORTE
 10
574.4740534381247
 20
2371.613756043141
 30
0.0
  0
VERTEX
  5
22A
  8
CORTE_LASER$CORTE
 10
574.4403096133876
 20
2371.618982379533
 30
0.0
  0
VERTEX
  5
22B
  8
CORTE_LASER$CORTE
 10
574.4064070273191
 20
2371.623053614951
 30
0.0
  0
VERTEX
  5
22C
  8
CORTE_LASER$CORTE
 10
574.3723852089884
 20
2371.625965002497
 30
0.0
  0
VERTEX
  5
22D
  8
CORTE_LASER$CORTE
 10
574.3382838264849
 20
2371.627713147606
 30
0.0
  0
SEQEND
  5
22E
  8
CORTE_LASER$CORTE
  0
CIRCLE
  5
22F
  8
CORTE_LASER$CORTE
 10
604.5000646762073
 20
2315.000007736344
 30
0.0
 40
2.25
  0
CIRCLE
  5
230
  8
CORTE_LASER$CORTE
 10
566.4999353237936
 20
2315.000007736344
 30
0.0
 40
2.25
  0
LINE
  5
231
  8
CORTE_LASER$CORTE
 10
701.7460194445462
 20
2349.0
 30
0.0
 11
698.2460194445462
 21
2349.0
 31
0.0
  0
LINE
  5
232
  8
CORTE_LASER$CORTE
 10
698.2460194445462
 20
2349.0
 30
0.0
 11
698.2460194445462
 21
2368.0
 31
0.0
  0
LINE
  5
233
  8
CORTE_LASER$CORTE
 10
698.2460194445462
 20
2368.0
 30
0.0
 11
701.7460194445462
 21
2368.0
 31
0.0
  0
LINE
  5
234
  8
CORTE_LASER$CORTE
 10
701.7460194445462
 20
2368.0
 30
0.0
 11
701.7460194445462
 21
2349.0
 31
0.0
  0
LINE
  5
235
  8
CORTE_LASER$CORTE
 10
638.2460194445462
 20
2349.0
 30
0.0
 11
641.7460194445462
 21
2349.0
 31
0.0
  0
LINE
  5
236
  8
CORTE_LASER$CORTE
 10
641.7460194445462
 20
2349.0
 30
0.0
 11
641.7460194445462
 21
2368.0
 31
0.0
  0
LINE
  5
237
  8
CORTE_LASER$CORTE
 10
641.7460194445462
 20
2368.0
 30
0.0
 11
638.2460194445462
 21
2368.0
 31
0.0
  0
LINE
  5
238
  8
CORTE_LASER$CORTE
 10
638.2460194445462
 20
2368.0
 30
0.0
 11
638.2460194445462
 21
2349.0
 31
0.0
  0
CIRCLE
  5
239
  8
CORTE_LASER$CORTE
 10
669.9960194445462
 20
2358.5
 30
0.0
 40
2.25
  0
LINE
  5
23A
  8
CORTE_LASER$CORTE
 10
619.9960194445462
 20
2370.0
 30
0.0
 11
619.9967585254655
 21
2370.066587831285
 31
0.0
  0
LINE
  5
23B
  8
CORTE_LASER$CORTE
 10
619.9967585254655
 20
2370.066587831285
 30
0.0
 11
619.9990020244289
 21
2370.133740732445
 31
0.0
  0
LINE
  5
23C
  8
CORTE_LASER$CORTE
 10
619.9990020244289
 20
2370.133740732445
 30
0.0
 11
620.0027883957787
 21
2370.201414718168
 31
0.0
  0
LINE
  5
23D
  8
CORTE_LASER$CORTE
 10
620.0027883957787
 20
2370.201414718168
 30
0.0
 11
620.0081547187074
 21
2370.269563313693
 31
0.0
  0
LINE
  5
23E
  8
CORTE_LASER$CORTE
 10
620.0081547187074
 20
2370.269563313693
 30
0.0
 11
620.0151365259597
 21
2370.338137583952
 31
0.0
  0
LINE
  5
23F
  8
CORTE_LASER$CORTE
 10
620.0151365259597
 20
2370.338137583952
 30
0.0
 11
620.0237676305412
 21
2370.407086175331
 31
0.0
  0
LINE
  5
240
  8
CORTE_LASER$CORTE
 10
620.0237676305412
 20
2370.407086175331
 30
0.0
 11
620.0340799514224
 21
2370.476355370575
 31
0.0
  0
LINE
  5
241
  8
CORTE_LASER$CORTE
 10
620.0340799514224
 20
2370.476355370575
 30
0.0
 11
620.046103339296
 21
2370.545889157236
 31
0.0
  0
LINE
  5
242
  8
CORTE_LASER$CORTE
 10
620.046103339296
 20
2370.545889157236
 30
0.0
 11
620.0598654035169
 21
2370.615629310016
 31
0.0
  0
LINE
  5
243
  8
CORTE_LASER$CORTE
 10
620.0598654035169
 20
2370.615629310016
 30
0.0
 11
620.0753913414172
 21
2370.685515487219
 31
0.0
  0
LINE
  5
244
  8
CORTE_LASER$CORTE
 10
620.0753913414172
 20
2370.685515487219
 30
0.0
 11
620.09270377124
 21
2370.755485341445
 31
0.0
  0
LINE
  5
245
  8
CORTE_LASER$CORTE
 10
620.09270377124
 20
2370.755485341445
 30
0.0
 11
620.1118225699844
 21
2370.825474644536
 31
0.0
  0
LINE
  5
246
  8
CORTE_LASER$CORTE
 10
620.1118225699844
 20
2370.825474644536
 30
0.0
 11
620.1327647174782
 21
2370.895417426638
 31
0.0
  0
LINE
  5
247
  8
CORTE_LASER$CORTE
 10
620.1327647174782
 20
2370.895417426638
 30
0.0
 11
620.1555441480202
 21
2370.965246129145
 31
0.0
  0
LINE
  5
248
  8
CORTE_LASER$CORTE
 10
620.1555441480202
 20
2370.965246129145
 30
0.0
 11
620.1801716109331
 21
2371.034891771125
 31
0.0
  0
LINE
  5
249
  8
CORTE_LASER$CORTE
 10
620.1801716109331
 20
2371.034891771125
 30
0.0
 11
620.2066545413579
 21
2371.104284128685
 31
0.0
  0
LINE
  5
24A
  8
CORTE_LASER$CORTE
 10
620.2066545413579
 20
2371.104284128685
 30
0.0
 11
620.2349969425993
 21
2371.173351926639
 31
0.0
  0
LINE
  5
24B
  8
CORTE_LASER$CORTE
 10
620.2349969425993
 20
2371.173351926639
 30
0.0
 11
620.2651992812749
 21
2371.242023041605
 31
0.0
  0
LINE
  5
24C
  8
CORTE_LASER$CORTE
 10
620.2651992812749
 20
2371.242023041605
 30
0.0
 11
620.2972583964763
 21
2371.310224715622
 31
0.0
  0
LINE
  5
24D
  8
CORTE_LASER$CORTE
 10
620.2972583964763
 20
2371.310224715622
 30
0.0
 11
620.3311674240559
 21
2371.377883779168
 31
0.0
  0
LINE
  5
24E
  8
CORTE_LASER$CORTE
 10
620.3311674240559
 20
2371.377883779168
 30
0.0
 11
620.3669157370718
 21
2371.444926882355
 31
0.0
  0
LINE
  5
24F
  8
CORTE_LASER$CORTE
 10
620.3669157370718
 20
2371.444926882355
 30
0.0
 11
620.4044889033028
 21
2371.511280732957
 31
0.0
  0
LINE
  5
250
  8
CORTE_LASER$CORTE
 10
620.4044889033028
 20
2371.511280732957
 30
0.0
 11
620.4438686606239
 21
2371.576872339833
 31
0.0
  0
LINE
  5
251
  8
CORTE_LASER$CORTE
 10
620.4438686606239
 20
2371.576872339833
 30
0.0
 11
620.4850329108892
 21
2371.641629260155
 31
0.0
  0
LINE
  5
252
  8
CORTE_LASER$CORTE
 10
620.4850329108892
 20
2371.641629260155
 30
0.0
 11
620.5279557328187
 21
2371.705479848858
 31
0.0
  0
LINE
  5
253
  8
CORTE_LASER$CORTE
 10
620.5279557328187
 20
2371.705479848858
 30
0.0
 11
620.572607414218
 21
2371.768353508568
 31
0.0
  0
LINE
  5
254
  8
CORTE_LASER$CORTE
 10
620.572607414218
 20
2371.768353508568
 30
0.0
 11
620.6189545036907
 21
2371.830180938312
 31
0.0
  0
LINE
  5
255
  8
CORTE_LASER$CORTE
 10
620.6189545036907
 20
2371.830180938312
 30
0.0
 11
620.6669598818206
 21
2371.890894379198
 31
0.0
  0
LINE
  5
256
  8
CORTE_LASER$CORTE
 10
620.6669598818206
 20
2371.890894379198
 30
0.0
 11
620.7165828516215
 21
2371.950427855328
 31
0.0
  0
LINE
  5
257
  8
CORTE_LASER$CORTE
 10
620.7165828516215
 20
2371.950427855328
 30
0.0
 11
620.7677792478678
 21
2372.008717408177
 31
0.0
  0
LINE
  5
258
  8
CORTE_LASER$CORTE
 10
620.7677792478678
 20
2372.008717408177
 30
0.0
 11
620.8205015647318
 21
2372.065701322702
 31
0.0
  0
LINE
  5
259
  8
CORTE_LASER$CORTE
 10
620.8205015647318
 20
2372.065701322702
 30
0.0
 11
620.8746991009853
 21
2372.12132034356
 31
0.0
  0
LINE
  5
25A
  8
CORTE_LASER$CORTE
 10
620.8746991009853
 20
2372.12132034356
 30
0.0
 11
620.9303181218428
 21
2372.175517879813
 31
0.0
  0
LINE
  5
25B
  8
CORTE_LASER$CORTE
 10
620.9303181218428
 20
2372.175517879813
 30
0.0
 11
620.9873020363682
 21
2372.228240196677
 31
0.0
  0
LINE
  5
25C
  8
CORTE_LASER$CORTE
 10
620.9873020363682
 20
2372.228240196677
 30
0.0
 11
621.0455915892163
 21
2372.279436592923
 31
0.0
  0
LINE
  5
25D
  8
CORTE_LASER$CORTE
 10
621.0455915892163
 20
2372.279436592923
 30
0.0
 11
621.1051250653471
 21
2372.329059562725
 31
0.0
  0
LINE
  5
25E
  8
CORTE_LASER$CORTE
 10
621.1051250653471
 20
2372.329059562725
 30
0.0
 11
621.1658385062326
 21
2372.377064940854
 31
0.0
  0
LINE
  5
25F
  8
CORTE_LASER$CORTE
 10
621.1658385062326
 20
2372.377064940854
 30
0.0
 11
621.2276659359763
 21
2372.423412030327
 31
0.0
  0
LINE
  5
260
  8
CORTE_LASER$CORTE
 10
621.2276659359763
 20
2372.423412030327
 30
0.0
 11
621.2905395956874
 21
2372.468063711726
 31
0.0
  0
LINE
  5
261
  8
CORTE_LASER$CORTE
 10
621.2905395956874
 20
2372.468063711726
 30
0.0
 11
621.3543901843894
 21
2372.510986533655
 31
0.0
  0
LINE
  5
262
  8
CORTE_LASER$CORTE
 10
621.3543901843894
 20
2372.510986533655
 30
0.0
 11
621.4191471047119
 21
2372.552150783921
 31
0.0
  0
LINE
  5
263
  8
CORTE_LASER$CORTE
 10
621.4191471047119
 20
2372.552150783921
 30
0.0
 11
621.4847387115873
 21
2372.591530541242
 31
0.0
  0
LINE
  5
264
  8
CORTE_LASER$CORTE
 10
621.4847387115873
 20
2372.591530541242
 30
0.0
 11
621.5510925621907
 21
2372.629103707473
 31
0.0
  0
LINE
  5
265
  8
CORTE_LASER$CORTE
 10
621.5510925621907
 20
2372.629103707473
 30
0.0
 11
621.6181356653769
 21
2372.664852020489
 31
0.0
  0
LINE
  5
266
  8
CORTE_LASER$CORTE
 10
621.6181356653769
 20
2372.664852020489
 30
0.0
 11
621.685794728923
 21
2372.698761048069
 31
0.0
  0
LINE
  5
267
  8
CORTE_LASER$CORTE
 10
621.685794728923
 20
2372.698761048069
 30
0.0
 11
621.7539964029404
 21
2372.73082016327
 31
0.0
  0
LINE
  5
268
  8
CORTE_LASER$CORTE
 10
621.7539964029404
 20
2372.73082016327
 30
0.0
 11
621.8226675179059
 21
2372.761022501946
 31
0.0
  0
LINE
  5
269
  8
CORTE_LASER$CORTE
 10
621.8226675179059
 20
2372.761022501946
 30
0.0
 11
621.8917353158594
 21
2372.789364903187
 31
0.0
  0
LINE
  5
26A
  8
CORTE_LASER$CORTE
 10
621.8917353158594
 20
2372.789364903187
 30
0.0
 11
621.9611276734206
 21
2372.815847833612
 31
0.0
  0
LINE
  5
26B
  8
CORTE_LASER$CORTE
 10
621.9611276734206
 20
2372.815847833612
 30
0.0
 11
622.0307733153992
 21
2372.840475296524
 31
0.0
  0
LINE
  5
26C
  8
CORTE_LASER$CORTE
 10
622.0307733153992
 20
2372.840475296524
 30
0.0
 11
622.100602017907
 21
2372.863254727067
 31
0.0
  0
LINE
  5
26D
  8
CORTE_LASER$CORTE
 10
622.100602017907
 20
2372.863254727067
 30
0.0
 11
622.170544800009
 21
2372.884196874561
 31
0.0
  0
LINE
  5
26E
  8
CORTE_LASER$CORTE
 10
622.170544800009
 20
2372.884196874561
 30
0.0
 11
622.2405341030997
 21
2372.903315673305
 31
0.0
  0
LINE
  5
26F
  8
CORTE_LASER$CORTE
 10
622.2405341030997
 20
2372.903315673305
 30
0.0
 11
622.3105039573259
 21
2372.920628103128
 31
0.0
  0
LINE
  5
270
  8
CORTE_LASER$CORTE
 10
622.3105039573259
 20
2372.920628103128
 30
0.0
 11
622.3803901345285
 21
2372.936154041028
 31
0.0
  0
LINE
  5
271
  8
CORTE_LASER$CORTE
 10
622.3803901345285
 20
2372.936154041028
 30
0.0
 11
622.4501302873089
 21
2372.949916105249
 31
0.0
  0
LINE
  5
272
  8
CORTE_LASER$CORTE
 10
622.4501302873089
 20
2372.949916105249
 30
0.0
 11
622.5196640739706
 21
2372.961939493124
 31
0.0
  0
LINE
  5
273
  8
CORTE_LASER$CORTE
 10
622.5196640739706
 20
2372.961939493124
 30
0.0
 11
622.5889332692144
 21
2372.972251814005
 31
0.0
  0
LINE
  5
274
  8
CORTE_LASER$CORTE
 10
622.5889332692144
 20
2372.972251814005
 30
0.0
 11
622.6578818605939
 21
2372.980882918587
 31
0.0
  0
LINE
  5
275
  8
CORTE_LASER$CORTE
 10
622.6578818605939
 20
2372.980882918587
 30
0.0
 11
622.7264561308524
 21
2372.987864725839
 31
0.0
  0
LINE
  5
276
  8
CORTE_LASER$CORTE
 10
622.7264561308524
 20
2372.987864725839
 30
0.0
 11
622.7946047263773
 21
2372.993231048767
 31
0.0
  0
LINE
  5
277
  8
CORTE_LASER$CORTE
 10
622.7946047263773
 20
2372.993231048767
 30
0.0
 11
622.8622787120995
 21
2372.997017420116
 31
0.0
  0
LINE
  5
278
  8
CORTE_LASER$CORTE
 10
622.8622787120995
 20
2372.997017420116
 30
0.0
 11
622.9294316132609
 21
2372.999260919081
 31
0.0
  0
LINE
  5
279
  8
CORTE_LASER$CORTE
 10
622.9294316132609
 20
2372.999260919081
 30
0.0
 11
622.9960194445457
 21
2373.0
 31
0.0
  0
LINE
  5
27A
  8
CORTE_LASER$CORTE
 10
622.9960194445457
 20
2373.0
 30
0.0
 11
716.9960194445462
 21
2373.0
 31
0.0
  0
LINE
  5
27B
  8
CORTE_LASER$CORTE
 10
716.9960194445462
 20
2373.0
 30
0.0
 11
717.0626072758309
 21
2372.999260919081
 31
0.0
  0
LINE
  5
27C
  8
CORTE_LASER$CORTE
 10
717.0626072758309
 20
2372.999260919081
 30
0.0
 11
717.129760176992
 21
2372.997017420117
 31
0.0
  0
LINE
  5
27D
  8
CORTE_LASER$CORTE
 10
717.129760176992
 20
2372.997017420117
 30
0.0
 11
717.1974341627144
 21
2372.993231048767
 31
0.0
  0
LINE
  5
27E
  8
CORTE_LASER$CORTE
 10
717.1974341627144
 20
2372.993231048767
 30
0.0
 11
717.2655827582391
 21
2372.987864725838
 31
0.0
  0
LINE
  5
27F
  8
CORTE_LASER$CORTE
 10
717.2655827582391
 20
2372.987864725838
 30
0.0
 11
717.3341570284975
 21
2372.980882918586
 31
0.0
  0
LINE
  5
280
  8
CORTE_LASER$CORTE
 10
717.3341570284975
 20
2372.980882918586
 30
0.0
 11
717.403105619877
 21
2372.972251814005
 31
0.0
  0
LINE
  5
281
  8
CORTE_LASER$CORTE
 10
717.403105619877
 20
2372.972251814005
 30
0.0
 11
717.4723748151209
 21
2372.961939493123
 31
0.0
  0
LINE
  5
282
  8
CORTE_LASER$CORTE
 10
717.4723748151209
 20
2372.961939493123
 30
0.0
 11
717.5419086017827
 21
2372.94991610525
 31
0.0
  0
LINE
  5
283
  8
CORTE_LASER$CORTE
 10
717.5419086017827
 20
2372.94991610525
 30
0.0
 11
717.611648754563
 21
2372.936154041029
 31
0.0
  0
LINE
  5
284
  8
CORTE_LASER$CORTE
 10
717.611648754563
 20
2372.936154041029
 30
0.0
 11
717.6815349317656
 21
2372.920628103129
 31
0.0
  0
LINE
  5
285
  8
CORTE_LASER$CORTE
 10
717.6815349317656
 20
2372.920628103129
 30
0.0
 11
717.7515047859918
 21
2372.903315673306
 31
0.0
  0
LINE
  5
286
  8
CORTE_LASER$CORTE
 10
717.7515047859918
 20
2372.903315673306
 30
0.0
 11
717.8214940890823
 21
2372.884196874561
 31
0.0
  0
LINE
  5
287
  8
CORTE_LASER$CORTE
 10
717.8214940890823
 20
2372.884196874561
 30
0.0
 11
717.8914368711842
 21
2372.863254727067
 31
0.0
  0
LINE
  5
288
  8
CORTE_LASER$CORTE
 10
717.8914368711842
 20
2372.863254727067
 30
0.0
 11
717.961265573692
 21
2372.840475296525
 31
0.0
  0
LINE
  5
289
  8
CORTE_LASER$CORTE
 10
717.961265573692
 20
2372.840475296525
 30
0.0
 11
718.0309112156709
 21
2372.815847833613
 31
0.0
  0
LINE
  5
28A
  8
CORTE_LASER$CORTE
 10
718.0309112156709
 20
2372.815847833613
 30
0.0
 11
718.100303573232
 21
2372.789364903188
 31
0.0
  0
LINE
  5
28B
  8
CORTE_LASER$CORTE
 10
718.100303573232
 20
2372.789364903188
 30
0.0
 11
718.1693713711853
 21
2372.761022501946
 31
0.0
  0
LINE
  5
28C
  8
CORTE_LASER$CORTE
 10
718.1693713711853
 20
2372.761022501946
 30
0.0
 11
718.2380424861509
 21
2372.730820163271
 31
0.0
  0
LINE
  5
28D
  8
CORTE_LASER$CORTE
 10
718.2380424861509
 20
2372.730820163271
 30
0.0
 11
718.3062441601681
 21
2372.69876104807
 31
0.0
  0
LINE
  5
28E
  8
CORTE_LASER$CORTE
 10
718.3062441601681
 20
2372.69876104807
 30
0.0
 11
718.3739032237144
 21
2372.66485202049
 31
0.0
  0
LINE
  5
28F
  8
CORTE_LASER$CORTE
 10
718.3739032237144
 20
2372.66485202049
 30
0.0
 11
718.4409463269008
 21
2372.629103707474
 31
0.0
  0
LINE
  5
290
  8
CORTE_LASER$CORTE
 10
718.4409463269008
 20
2372.629103707474
 30
0.0
 11
718.5073001775038
 21
2372.591530541243
 31
0.0
  0
LINE
  5
291
  8
CORTE_LASER$CORTE
 10
718.5073001775038
 20
2372.591530541243
 30
0.0
 11
718.5728917843793
 21
2372.552150783922
 31
0.0
  0
LINE
  5
292
  8
CORTE_LASER$CORTE
 10
718.5728917843793
 20
2372.552150783922
 30
0.0
 11
718.6376487047017
 21
2372.510986533656
 31
0.0
  0
LINE
  5
293
  8
CORTE_LASER$CORTE
 10
718.6376487047017
 20
2372.510986533656
 30
0.0
 11
718.7014992934038
 21
2372.468063711727
 31
0.0
  0
LINE
  5
294
  8
CORTE_LASER$CORTE
 10
718.7014992934038
 20
2372.468063711727
 30
0.0
 11
718.7643729531147
 21
2372.423412030327
 31
0.0
  0
LINE
  5
295
  8
CORTE_LASER$CORTE
 10
718.7643729531147
 20
2372.423412030327
 30
0.0
 11
718.8262003828585
 21
2372.377064940855
 31
0.0
  0
LINE
  5
296
  8
CORTE_LASER$CORTE
 10
718.8262003828585
 20
2372.377064940855
 30
0.0
 11
718.8869138237441
 21
2372.329059562725
 31
0.0
  0
LINE
  5
297
  8
CORTE_LASER$CORTE
 10
718.8869138237441
 20
2372.329059562725
 30
0.0
 11
718.946447299875
 21
2372.279436592924
 31
0.0
  0
LINE
  5
298
  8
CORTE_LASER$CORTE
 10
718.946447299875
 20
2372.279436592924
 30
0.0
 11
719.0047368527229
 21
2372.228240196678
 31
0.0
  0
LINE
  5
299
  8
CORTE_LASER$CORTE
 10
719.0047368527229
 20
2372.228240196678
 30
0.0
 11
719.0617207672483
 21
2372.175517879813
 31
0.0
  0
LINE
  5
29A
  8
CORTE_LASER$CORTE
 10
719.0617207672483
 20
2372.175517879813
 30
0.0
 11
719.1173397881059
 21
2372.12132034356
 31
0.0
  0
LINE
  5
29B
  8
CORTE_LASER$CORTE
 10
719.1173397881059
 20
2372.12132034356
 30
0.0
 11
719.1715373243595
 21
2372.065701322702
 31
0.0
  0
LINE
  5
29C
  8
CORTE_LASER$CORTE
 10
719.1715373243595
 20
2372.065701322702
 30
0.0
 11
719.2242596412236
 21
2372.008717408177
 31
0.0
  0
LINE
  5
29D
  8
CORTE_LASER$CORTE
 10
719.2242596412236
 20
2372.008717408177
 30
0.0
 11
719.27545603747
 21
2371.950427855329
 31
0.0
  0
LINE
  5
29E
  8
CORTE_LASER$CORTE
 10
719.27545603747
 20
2371.950427855329
 30
0.0
 11
719.3250790072709
 21
2371.890894379198
 31
0.0
  0
LINE
  5
29F
  8
CORTE_LASER$CORTE
 10
719.3250790072709
 20
2371.890894379198
 30
0.0
 11
719.3730843854006
 21
2371.830180938312
 31
0.0
  0
LINE
  5
2A0
  8
CORTE_LASER$CORTE
 10
719.3730843854006
 20
2371.830180938312
 30
0.0
 11
719.4194314748734
 21
2371.768353508568
 31
0.0
  0
LINE
  5
2A1
  8
CORTE_LASER$CORTE
 10
719.4194314748734
 20
2371.768353508568
 30
0.0
 11
719.4640831562727
 21
2371.705479848858
 31
0.0
  0
LINE
  5
2A2
  8
CORTE_LASER$CORTE
 10
719.4640831562727
 20
2371.705479848858
 30
0.0
 11
719.5070059782022
 21
2371.641629260156
 31
0.0
  0
LINE
  5
2A3
  8
CORTE_LASER$CORTE
 10
719.5070059782022
 20
2371.641629260156
 30
0.0
 11
719.5481702284676
 21
2371.576872339834
 31
0.0
  0
LINE
  5
2A4
  8
CORTE_LASER$CORTE
 10
719.5481702284676
 20
2371.576872339834
 30
0.0
 11
719.5875499857887
 21
2371.511280732958
 31
0.0
  0
LINE
  5
2A5
  8
CORTE_LASER$CORTE
 10
719.5875499857887
 20
2371.511280732958
 30
0.0
 11
719.6251231520199
 21
2371.444926882355
 31
0.0
  0
LINE
  5
2A6
  8
CORTE_LASER$CORTE
 10
719.6251231520199
 20
2371.444926882355
 30
0.0
 11
719.6608714650357
 21
2371.377883779169
 31
0.0
  0
LINE
  5
2A7
  8
CORTE_LASER$CORTE
 10
719.6608714650357
 20
2371.377883779169
 30
0.0
 11
719.6947804926152
 21
2371.310224715623
 31
0.0
  0
LINE
  5
2A8
  8
CORTE_LASER$CORTE
 10
719.6947804926152
 20
2371.310224715623
 30
0.0
 11
719.7268396078166
 21
2371.242023041605
 31
0.0
  0
LINE
  5
2A9
  8
CORTE_LASER$CORTE
 10
719.7268396078166
 20
2371.242023041605
 30
0.0
 11
719.7570419464922
 21
2371.173351926639
 31
0.0
  0
LINE
  5
2AA
  8
CORTE_LASER$CORTE
 10
719.7570419464922
 20
2371.173351926639
 30
0.0
 11
719.7853843477337
 21
2371.104284128686
 31
0.0
  0
LINE
  5
2AB
  8
CORTE_LASER$CORTE
 10
719.7853843477337
 20
2371.104284128686
 30
0.0
 11
719.8118672781586
 21
2371.034891771125
 31
0.0
  0
LINE
  5
2AC
  8
CORTE_LASER$CORTE
 10
719.8118672781586
 20
2371.034891771125
 30
0.0
 11
719.8364947410713
 21
2370.965246129146
 31
0.0
  0
LINE
  5
2AD
  8
CORTE_LASER$CORTE
 10
719.8364947410713
 20
2370.965246129146
 30
0.0
 11
719.8592741716133
 21
2370.895417426638
 31
0.0
  0
LINE
  5
2AE
  8
CORTE_LASER$CORTE
 10
719.8592741716133
 20
2370.895417426638
 30
0.0
 11
719.8802163191073
 21
2370.825474644536
 31
0.0
  0
LINE
  5
2AF
  8
CORTE_LASER$CORTE
 10
719.8802163191073
 20
2370.825474644536
 30
0.0
 11
719.8993351178516
 21
2370.755485341446
 31
0.0
  0
LINE
  5
2B0
  8
CORTE_LASER$CORTE
 10
719.8993351178516
 20
2370.755485341446
 30
0.0
 11
719.9166475476744
 21
2370.68551548722
 31
0.0
  0
LINE
  5
2B1
  8
CORTE_LASER$CORTE
 10
719.9166475476744
 20
2370.68551548722
 30
0.0
 11
719.9321734855747
 21
2370.615629310017
 31
0.0
  0
LINE
  5
2B2
  8
CORTE_LASER$CORTE
 10
719.9321734855747
 20
2370.615629310017
 30
0.0
 11
719.945935549796
 21
2370.545889157237
 31
0.0
  0
LINE
  5
2B3
  8
CORTE_LASER$CORTE
 10
719.945935549796
 20
2370.545889157237
 30
0.0
 11
719.9579589376697
 21
2370.476355370575
 31
0.0
  0
LINE
  5
2B4
  8
CORTE_LASER$CORTE
 10
719.9579589376697
 20
2370.476355370575
 30
0.0
 11
719.9682712585508
 21
2370.407086175331
 31
0.0
  0
LINE
  5
2B5
  8
CORTE_LASER$CORTE
 10
719.9682712585508
 20
2370.407086175331
 30
0.0
 11
719.9769023631322
 21
2370.338137583952
 31
0.0
  0
LINE
  5
2B6
  8
CORTE_LASER$CORTE
 10
719.9769023631322
 20
2370.338137583952
 30
0.0
 11
719.9838841703847
 21
2370.269563313693
 31
0.0
  0
LINE
  5
2B7
  8
CORTE_LASER$CORTE
 10
719.9838841703847
 20
2370.269563313693
 30
0.0
 11
719.9892504933136
 21
2370.201414718169
 31
0.0
  0
LINE
  5
2B8
  8
CORTE_LASER$CORTE
 10
719.9892504933136
 20
2370.201414718169
 30
0.0
 11
719.993036864663
 21
2370.133740732446
 31
0.0
  0
LINE
  5
2B9
  8
CORTE_LASER$CORTE
 10
719.993036864663
 20
2370.133740732446
 30
0.0
 11
719.9952803636268
 21
2370.066587831285
 31
0.0
  0
LINE
  5
2BA
  8
CORTE_LASER$CORTE
 10
719.9952803636268
 20
2370.066587831285
 30
0.0
 11
719.9960194445462
 21
2370.0
 31
0.0
  0
LINE
  5
2BB
  8
CORTE_LASER$CORTE
 10
719.9960194445462
 20
2370.0
 30
0.0
 11
719.9960194445462
 21
2344.0
 31
0.0
  0
LINE
  5
2BC
  8
CORTE_LASER$CORTE
 10
719.9960194445462
 20
2344.0
 30
0.0
 11
719.9960194445462
 21
2344.171875
 31
0.0
  0
LINE
  5
2BD
  8
CORTE_LASER$CORTE
 10
719.9960194445462
 20
2344.171875
 30
0.0
 11
719.9960194445462
 21
2344.1806640625
 31
0.0
  0
LINE
  5
2BE
  8
CORTE_LASER$CORTE
 10
719.9960194445462
 20
2344.1806640625
 30
0.0
 11
719.9960194445462
 21
2344.179931640625
 31
0.0
  0
LINE
  5
2BF
  8
CORTE_LASER$CORTE
 10
719.9960194445462
 20
2344.179931640625
 30
0.0
 11
719.9960194445462
 21
2241.0
 31
0.0
  0
LINE
  5
2C0
  8
CORTE_LASER$CORTE
 10
719.9960194445462
 20
2241.0
 30
0.0
 11
719.9952803636269
 21
2240.933412168715
 31
0.0
  0
LINE
  5
2C1
  8
CORTE_LASER$CORTE
 10
719.9952803636269
 20
2240.933412168715
 30
0.0
 11
719.9930368646633
 21
2240.866259267554
 31
0.0
  0
LINE
  5
2C2
  8
CORTE_LASER$CORTE
 10
719.9930368646633
 20
2240.866259267554
 30
0.0
 11
719.9892504933136
 21
2240.798585281832
 31
0.0
  0
LINE
  5
2C3
  8
CORTE_LASER$CORTE
 10
719.9892504933136
 20
2240.798585281832
 30
0.0
 11
719.9838841703848
 21
2240.730436686307
 31
0.0
  0
LINE
  5
2C4
  8
CORTE_LASER$CORTE
 10
719.9838841703848
 20
2240.730436686307
 30
0.0
 11
719.9769023631324
 21
2240.661862416049
 31
0.0
  0
LINE
  5
2C5
  8
CORTE_LASER$CORTE
 10
719.9769023631324
 20
2240.661862416049
 30
0.0
 11
719.968271258551
 21
2240.59291382467
 31
0.0
  0
LINE
  5
2C6
  8
CORTE_LASER$CORTE
 10
719.968271258551
 20
2240.59291382467
 30
0.0
 11
719.9579589376698
 21
2240.523644629426
 31
0.0
  0
LINE
  5
2C7
  8
CORTE_LASER$CORTE
 10
719.9579589376698
 20
2240.523644629426
 30
0.0
 11
719.945935549796
 21
2240.454110842764
 31
0.0
  0
LINE
  5
2C8
  8
CORTE_LASER$CORTE
 10
719.945935549796
 20
2240.454110842764
 30
0.0
 11
719.9321734855746
 21
2240.384370689983
 31
0.0
  0
LINE
  5
2C9
  8
CORTE_LASER$CORTE
 10
719.9321734855746
 20
2240.384370689983
 30
0.0
 11
719.9166475476744
 21
2240.314484512781
 31
0.0
  0
LINE
  5
2CA
  8
CORTE_LASER$CORTE
 10
719.9166475476744
 20
2240.314484512781
 30
0.0
 11
719.8993351178514
 21
2240.244514658554
 31
0.0
  0
LINE
  5
2CB
  8
CORTE_LASER$CORTE
 10
719.8993351178514
 20
2240.244514658554
 30
0.0
 11
719.8802163191073
 21
2240.174525355464
 31
0.0
  0
LINE
  5
2CC
  8
CORTE_LASER$CORTE
 10
719.8802163191073
 20
2240.174525355464
 30
0.0
 11
719.8592741716133
 21
2240.104582573362
 31
0.0
  0
LINE
  5
2CD
  8
CORTE_LASER$CORTE
 10
719.8592741716133
 20
2240.104582573362
 30
0.0
 11
719.8364947410712
 21
2240.034753870854
 31
0.0
  0
LINE
  5
2CE
  8
CORTE_LASER$CORTE
 10
719.8364947410712
 20
2240.034753870854
 30
0.0
 11
719.8118672781583
 21
2239.965108228876
 31
0.0
  0
LINE
  5
2CF
  8
CORTE_LASER$CORTE
 10
719.8118672781583
 20
2239.965108228876
 30
0.0
 11
719.7853843477334
 21
2239.895715871314
 31
0.0
  0
LINE
  5
2D0
  8
CORTE_LASER$CORTE
 10
719.7853843477334
 20
2239.895715871314
 30
0.0
 11
719.7570419464921
 21
2239.826648073361
 31
0.0
  0
LINE
  5
2D1
  8
CORTE_LASER$CORTE
 10
719.7570419464921
 20
2239.826648073361
 30
0.0
 11
719.7268396078163
 21
2239.757976958395
 31
0.0
  0
LINE
  5
2D2
  8
CORTE_LASER$CORTE
 10
719.7268396078163
 20
2239.757976958395
 30
0.0
 11
719.6947804926148
 21
2239.689775284378
 31
0.0
  0
LINE
  5
2D3
  8
CORTE_LASER$CORTE
 10
719.6947804926148
 20
2239.689775284378
 30
0.0
 11
719.6608714650353
 21
2239.622116220832
 31
0.0
  0
LINE
  5
2D4
  8
CORTE_LASER$CORTE
 10
719.6608714650353
 20
2239.622116220832
 30
0.0
 11
719.6251231520192
 21
2239.555073117645
 31
0.0
  0
LINE
  5
2D5
  8
CORTE_LASER$CORTE
 10
719.6251231520192
 20
2239.555073117645
 30
0.0
 11
719.5875499857881
 21
2239.488719267042
 31
0.0
  0
LINE
  5
2D6
  8
CORTE_LASER$CORTE
 10
719.5875499857881
 20
2239.488719267042
 30
0.0
 11
719.5481702284671
 21
2239.423127660167
 31
0.0
  0
LINE
  5
2D7
  8
CORTE_LASER$CORTE
 10
719.5481702284671
 20
2239.423127660167
 30
0.0
 11
719.507005978202
 21
2239.358370739844
 31
0.0
  0
LINE
  5
2D8
  8
CORTE_LASER$CORTE
 10
719.507005978202
 20
2239.358370739844
 30
0.0
 11
719.4640831562724
 21
2239.294520151142
 31
0.0
  0
LINE
  5
2D9
  8
CORTE_LASER$CORTE
 10
719.4640831562724
 20
2239.294520151142
 30
0.0
 11
719.419431474873
 21
2239.231646491432
 31
0.0
  0
LINE
  5
2DA
  8
CORTE_LASER$CORTE
 10
719.419431474873
 20
2239.231646491432
 30
0.0
 11
719.3730843854003
 21
2239.169819061688
 31
0.0
  0
LINE
  5
2DB
  8
CORTE_LASER$CORTE
 10
719.3730843854003
 20
2239.169819061688
 30
0.0
 11
719.3250790072703
 21
2239.109105620802
 31
0.0
  0
LINE
  5
2DC
  8
CORTE_LASER$CORTE
 10
719.3250790072703
 20
2239.109105620802
 30
0.0
 11
719.2754560374693
 21
2239.049572144671
 31
0.0
  0
LINE
  5
2DD
  8
CORTE_LASER$CORTE
 10
719.2754560374693
 20
2239.049572144671
 30
0.0
 11
719.2242596412232
 21
2238.991282591823
 31
0.0
  0
LINE
  5
2DE
  8
CORTE_LASER$CORTE
 10
719.2242596412232
 20
2238.991282591823
 30
0.0
 11
719.1715373243592
 21
2238.934298677298
 31
0.0
  0
LINE
  5
2DF
  8
CORTE_LASER$CORTE
 10
719.1715373243592
 20
2238.934298677298
 30
0.0
 11
719.1173397881056
 21
2238.87867965644
 31
0.0
  0
LINE
  5
2E0
  8
CORTE_LASER$CORTE
 10
719.1173397881056
 20
2238.87867965644
 30
0.0
 11
719.061720767248
 21
2238.824482120187
 31
0.0
  0
LINE
  5
2E1
  8
CORTE_LASER$CORTE
 10
719.061720767248
 20
2238.824482120187
 30
0.0
 11
719.0047368527225
 21
2238.771759803322
 31
0.0
  0
LINE
  5
2E2
  8
CORTE_LASER$CORTE
 10
719.0047368527225
 20
2238.771759803322
 30
0.0
 11
718.9464472998744
 21
2238.720563407076
 31
0.0
  0
LINE
  5
2E3
  8
CORTE_LASER$CORTE
 10
718.9464472998744
 20
2238.720563407076
 30
0.0
 11
718.8869138237435
 21
2238.670940437275
 31
0.0
  0
LINE
  5
2E4
  8
CORTE_LASER$CORTE
 10
718.8869138237435
 20
2238.670940437275
 30
0.0
 11
718.8262003828581
 21
2238.622935059146
 31
0.0
  0
LINE
  5
2E5
  8
CORTE_LASER$CORTE
 10
718.8262003828581
 20
2238.622935059146
 30
0.0
 11
718.7643729531145
 21
2238.576587969673
 31
0.0
  0
LINE
  5
2E6
  8
CORTE_LASER$CORTE
 10
718.7643729531145
 20
2238.576587969673
 30
0.0
 11
718.7014992934036
 21
2238.531936288273
 31
0.0
  0
LINE
  5
2E7
  8
CORTE_LASER$CORTE
 10
718.7014992934036
 20
2238.531936288273
 30
0.0
 11
718.6376487047014
 21
2238.489013466344
 31
0.0
  0
LINE
  5
2E8
  8
CORTE_LASER$CORTE
 10
718.6376487047014
 20
2238.489013466344
 30
0.0
 11
718.5728917843788
 21
2238.447849216078
 31
0.0
  0
LINE
  5
2E9
  8
CORTE_LASER$CORTE
 10
718.5728917843788
 20
2238.447849216078
 30
0.0
 11
718.5073001775033
 21
2238.408469458757
 31
0.0
  0
LINE
  5
2EA
  8
CORTE_LASER$CORTE
 10
718.5073001775033
 20
2238.408469458757
 30
0.0
 11
718.4409463269001
 21
2238.370896292526
 31
0.0
  0
LINE
  5
2EB
  8
CORTE_LASER$CORTE
 10
718.4409463269001
 20
2238.370896292526
 30
0.0
 11
718.3739032237139
 21
2238.335147979511
 31
0.0
  0
LINE
  5
2EC
  8
CORTE_LASER$CORTE
 10
718.3739032237139
 20
2238.335147979511
 30
0.0
 11
718.3062441601677
 21
2238.301238951931
 31
0.0
  0
LINE
  5
2ED
  8
CORTE_LASER$CORTE
 10
718.3062441601677
 20
2238.301238951931
 30
0.0
 11
718.2380424861503
 21
2238.26917983673
 31
0.0
  0
LINE
  5
2EE
  8
CORTE_LASER$CORTE
 10
718.2380424861503
 20
2238.26917983673
 30
0.0
 11
718.1693713711851
 21
2238.238977498054
 31
0.0
  0
LINE
  5
2EF
  8
CORTE_LASER$CORTE
 10
718.1693713711851
 20
2238.238977498054
 30
0.0
 11
718.1003035732315
 21
2238.210635096813
 31
0.0
  0
LINE
  5
2F0
  8
CORTE_LASER$CORTE
 10
718.1003035732315
 20
2238.210635096813
 30
0.0
 11
718.0309112156704
 21
2238.184152166388
 31
0.0
  0
LINE
  5
2F1
  8
CORTE_LASER$CORTE
 10
718.0309112156704
 20
2238.184152166388
 30
0.0
 11
717.9612655736918
 21
2238.159524703475
 31
0.0
  0
LINE
  5
2F2
  8
CORTE_LASER$CORTE
 10
717.9612655736918
 20
2238.159524703475
 30
0.0
 11
717.8914368711839
 21
2238.136745272933
 31
0.0
  0
LINE
  5
2F3
  8
CORTE_LASER$CORTE
 10
717.8914368711839
 20
2238.136745272933
 30
0.0
 11
717.8214940890821
 21
2238.115803125439
 31
0.0
  0
LINE
  5
2F4
  8
CORTE_LASER$CORTE
 10
717.8214940890821
 20
2238.115803125439
 30
0.0
 11
717.7515047859913
 21
2238.096684326694
 31
0.0
  0
LINE
  5
2F5
  8
CORTE_LASER$CORTE
 10
717.7515047859913
 20
2238.096684326694
 30
0.0
 11
717.6815349317653
 21
2238.079371896872
 31
0.0
  0
LINE
  5
2F6
  8
CORTE_LASER$CORTE
 10
717.6815349317653
 20
2238.079371896872
 30
0.0
 11
717.6116487545626
 21
2238.063845958972
 31
0.0
  0
LINE
  5
2F7
  8
CORTE_LASER$CORTE
 10
717.6116487545626
 20
2238.063845958972
 30
0.0
 11
717.5419086017822
 21
2238.050083894751
 31
0.0
  0
LINE
  5
2F8
  8
CORTE_LASER$CORTE
 10
717.5419086017822
 20
2238.050083894751
 30
0.0
 11
717.4723748151207
 21
2238.038060506877
 31
0.0
  0
LINE
  5
2F9
  8
CORTE_LASER$CORTE
 10
717.4723748151207
 20
2238.038060506877
 30
0.0
 11
717.4031056198768
 21
2238.027748185996
 31
0.0
  0
LINE
  5
2FA
  8
CORTE_LASER$CORTE
 10
717.4031056198768
 20
2238.027748185996
 30
0.0
 11
717.3341570284973
 21
2238.019117081414
 31
0.0
  0
LINE
  5
2FB
  8
CORTE_LASER$CORTE
 10
717.3341570284973
 20
2238.019117081414
 30
0.0
 11
717.2655827582389
 21
2238.012135274162
 31
0.0
  0
LINE
  5
2FC
  8
CORTE_LASER$CORTE
 10
717.2655827582389
 20
2238.012135274162
 30
0.0
 11
717.197434162714
 21
2238.006768951233
 31
0.0
  0
LINE
  5
2FD
  8
CORTE_LASER$CORTE
 10
717.197434162714
 20
2238.006768951233
 30
0.0
 11
717.1297601769918
 21
2238.002982579883
 31
0.0
  0
LINE
  5
2FE
  8
CORTE_LASER$CORTE
 10
717.1297601769918
 20
2238.002982579883
 30
0.0
 11
717.0626072758306
 21
2238.00073908092
 31
0.0
  0
LINE
  5
2FF
  8
CORTE_LASER$CORTE
 10
717.0626072758306
 20
2238.00073908092
 30
0.0
 11
716.9960194445457
 21
2238.0
 31
0.0
  0
LINE
  5
300
  8
CORTE_LASER$CORTE
 10
716.9960194445457
 20
2238.0
 30
0.0
 11
622.9960194445462
 21
2238.0
 31
0.0
  0
LINE
  5
301
  8
CORTE_LASER$CORTE
 10
622.9960194445462
 20
2238.0
 30
0.0
 11
622.9294316132614
 21
2238.00073908092
 31
0.0
  0
LINE
  5
302
  8
CORTE_LASER$CORTE
 10
622.9294316132614
 20
2238.00073908092
 30
0.0
 11
622.8622787121001
 21
2238.002982579882
 31
0.0
  0
LINE
  5
303
  8
CORTE_LASER$CORTE
 10
622.8622787121001
 20
2238.002982579882
 30
0.0
 11
622.7946047263779
 21
2238.006768951233
 31
0.0
  0
LINE
  5
304
  8
CORTE_LASER$CORTE
 10
622.7946047263779
 20
2238.006768951233
 30
0.0
 11
622.726456130853
 21
2238.012135274161
 31
0.0
  0
LINE
  5
305
  8
CORTE_LASER$CORTE
 10
622.726456130853
 20
2238.012135274161
 30
0.0
 11
622.6578818605946
 21
2238.019117081414
 31
0.0
  0
LINE
  5
306
  8
CORTE_LASER$CORTE
 10
622.6578818605946
 20
2238.019117081414
 30
0.0
 11
622.5889332692153
 21
2238.027748185995
 31
0.0
  0
LINE
  5
307
  8
CORTE_LASER$CORTE
 10
622.5889332692153
 20
2238.027748185995
 30
0.0
 11
622.5196640739714
 21
2238.038060506876
 31
0.0
  0
LINE
  5
308
  8
CORTE_LASER$CORTE
 10
622.5196640739714
 20
2238.038060506876
 30
0.0
 11
622.4501302873099
 21
2238.050083894751
 31
0.0
  0
LINE
  5
309
  8
CORTE_LASER$CORTE
 10
622.4501302873099
 20
2238.050083894751
 30
0.0
 11
622.3803901345293
 21
2238.063845958972
 31
0.0
  0
LINE
  5
30A
  8
CORTE_LASER$CORTE
 10
622.3803901345293
 20
2238.063845958972
 30
0.0
 11
622.3105039573269
 21
2238.079371896872
 31
0.0
  0
LINE
  5
30B
  8
CORTE_LASER$CORTE
 10
622.3105039573269
 20
2238.079371896872
 30
0.0
 11
622.2405341031008
 21
2238.096684326695
 31
0.0
  0
LINE
  5
30C
  8
CORTE_LASER$CORTE
 10
622.2405341031008
 20
2238.096684326695
 30
0.0
 11
622.1705448000102
 21
2238.115803125439
 31
0.0
  0
LINE
  5
30D
  8
CORTE_LASER$CORTE
 10
622.1705448000102
 20
2238.115803125439
 30
0.0
 11
622.1006020179082
 21
2238.136745272933
 31
0.0
  0
LINE
  5
30E
  8
CORTE_LASER$CORTE
 10
622.1006020179082
 20
2238.136745272933
 30
0.0
 11
622.0307733154006
 21
2238.159524703475
 31
0.0
  0
LINE
  5
30F
  8
CORTE_LASER$CORTE
 10
622.0307733154006
 20
2238.159524703475
 30
0.0
 11
621.961127673422
 21
2238.184152166388
 31
0.0
  0
LINE
  5
310
  8
CORTE_LASER$CORTE
 10
621.961127673422
 20
2238.184152166388
 30
0.0
 11
621.891735315861
 21
2238.210635096813
 31
0.0
  0
LINE
  5
311
  8
CORTE_LASER$CORTE
 10
621.891735315861
 20
2238.210635096813
 30
0.0
 11
621.8226675179073
 21
2238.238977498054
 31
0.0
  0
LINE
  5
312
  8
CORTE_LASER$CORTE
 10
621.8226675179073
 20
2238.238977498054
 30
0.0
 11
621.7539964029421
 21
2238.26917983673
 31
0.0
  0
LINE
  5
313
  8
CORTE_LASER$CORTE
 10
621.7539964029421
 20
2238.26917983673
 30
0.0
 11
621.6857947289249
 21
2238.301238951931
 31
0.0
  0
LINE
  5
314
  8
CORTE_LASER$CORTE
 10
621.6857947289249
 20
2238.301238951931
 30
0.0
 11
621.6181356653785
 21
2238.335147979511
 31
0.0
  0
LINE
  5
315
  8
CORTE_LASER$CORTE
 10
621.6181356653785
 20
2238.335147979511
 30
0.0
 11
621.5510925621924
 21
2238.370896292527
 31
0.0
  0
LINE
  5
316
  8
CORTE_LASER$CORTE
 10
621.5510925621924
 20
2238.370896292527
 30
0.0
 11
621.484738711589
 21
2238.408469458758
 31
0.0
  0
LINE
  5
317
  8
CORTE_LASER$CORTE
 10
621.484738711589
 20
2238.408469458758
 30
0.0
 11
621.4191471047136
 21
2238.447849216079
 31
0.0
  0
LINE
  5
318
  8
CORTE_LASER$CORTE
 10
621.4191471047136
 20
2238.447849216079
 30
0.0
 11
621.3543901843909
 21
2238.489013466344
 31
0.0
  0
LINE
  5
319
  8
CORTE_LASER$CORTE
 10
621.3543901843909
 20
2238.489013466344
 30
0.0
 11
621.2905395956889
 21
2238.531936288273
 31
0.0
  0
LINE
  5
31A
  8
CORTE_LASER$CORTE
 10
621.2905395956889
 20
2238.531936288273
 30
0.0
 11
621.227665935978
 21
2238.576587969673
 31
0.0
  0
LINE
  5
31B
  8
CORTE_LASER$CORTE
 10
621.227665935978
 20
2238.576587969673
 30
0.0
 11
621.1658385062343
 21
2238.622935059146
 31
0.0
  0
LINE
  5
31C
  8
CORTE_LASER$CORTE
 10
621.1658385062343
 20
2238.622935059146
 30
0.0
 11
621.105125065349
 21
2238.670940437276
 31
0.0
  0
LINE
  5
31D
  8
CORTE_LASER$CORTE
 10
621.105125065349
 20
2238.670940437276
 30
0.0
 11
621.0455915892181
 21
2238.720563407077
 31
0.0
  0
LINE
  5
31E
  8
CORTE_LASER$CORTE
 10
621.0455915892181
 20
2238.720563407077
 30
0.0
 11
620.98730203637
 21
2238.771759803323
 31
0.0
  0
LINE
  5
31F
  8
CORTE_LASER$CORTE
 10
620.98730203637
 20
2238.771759803323
 30
0.0
 11
620.9303181218445
 21
2238.824482120187
 31
0.0
  0
LINE
  5
320
  8
CORTE_LASER$CORTE
 10
620.9303181218445
 20
2238.824482120187
 30
0.0
 11
620.8746991009868
 21
2238.87867965644
 31
0.0
  0
LINE
  5
321
  8
CORTE_LASER$CORTE
 10
620.8746991009868
 20
2238.87867965644
 30
0.0
 11
620.8205015647333
 21
2238.934298677298
 31
0.0
  0
LINE
  5
322
  8
CORTE_LASER$CORTE
 10
620.8205015647333
 20
2238.934298677298
 30
0.0
 11
620.7677792478694
 21
2238.991282591824
 31
0.0
  0
LINE
  5
323
  8
CORTE_LASER$CORTE
 10
620.7677792478694
 20
2238.991282591824
 30
0.0
 11
620.7165828516231
 21
2239.049572144672
 31
0.0
  0
LINE
  5
324
  8
CORTE_LASER$CORTE
 10
620.7165828516231
 20
2239.049572144672
 30
0.0
 11
620.6669598818221
 21
2239.109105620802
 31
0.0
  0
LINE
  5
325
  8
CORTE_LASER$CORTE
 10
620.6669598818221
 20
2239.109105620802
 30
0.0
 11
620.6189545036922
 21
2239.169819061688
 31
0.0
  0
LINE
  5
326
  8
CORTE_LASER$CORTE
 10
620.6189545036922
 20
2239.169819061688
 30
0.0
 11
620.5726074142194
 21
2239.231646491432
 31
0.0
  0
LINE
  5
327
  8
CORTE_LASER$CORTE
 10
620.5726074142194
 20
2239.231646491432
 30
0.0
 11
620.5279557328199
 21
2239.294520151142
 31
0.0
  0
LINE
  5
328
  8
CORTE_LASER$CORTE
 10
620.5279557328199
 20
2239.294520151142
 30
0.0
 11
620.4850329108905
 21
2239.358370739844
 31
0.0
  0
LINE
  5
329
  8
CORTE_LASER$CORTE
 10
620.4850329108905
 20
2239.358370739844
 30
0.0
 11
620.4438686606253
 21
2239.423127660168
 31
0.0
  0
LINE
  5
32A
  8
CORTE_LASER$CORTE
 10
620.4438686606253
 20
2239.423127660168
 30
0.0
 11
620.4044889033041
 21
2239.488719267043
 31
0.0
  0
LINE
  5
32B
  8
CORTE_LASER$CORTE
 10
620.4044889033041
 20
2239.488719267043
 30
0.0
 11
620.3669157370733
 21
2239.555073117646
 31
0.0
  0
LINE
  5
32C
  8
CORTE_LASER$CORTE
 10
620.3669157370733
 20
2239.555073117646
 30
0.0
 11
620.3311674240573
 21
2239.622116220832
 31
0.0
  0
LINE
  5
32D
  8
CORTE_LASER$CORTE
 10
620.3311674240573
 20
2239.622116220832
 30
0.0
 11
620.2972583964778
 21
2239.689775284378
 31
0.0
  0
LINE
  5
32E
  8
CORTE_LASER$CORTE
 10
620.2972583964778
 20
2239.689775284378
 30
0.0
 11
620.2651992812764
 21
2239.757976958395
 31
0.0
  0
LINE
  5
32F
  8
CORTE_LASER$CORTE
 10
620.2651992812764
 20
2239.757976958395
 30
0.0
 11
620.2349969426004
 21
2239.826648073361
 31
0.0
  0
LINE
  5
330
  8
CORTE_LASER$CORTE
 10
620.2349969426004
 20
2239.826648073361
 30
0.0
 11
620.2066545413593
 21
2239.895715871314
 31
0.0
  0
LINE
  5
331
  8
CORTE_LASER$CORTE
 10
620.2066545413593
 20
2239.895715871314
 30
0.0
 11
620.1801716109342
 21
2239.965108228875
 31
0.0
  0
LINE
  5
332
  8
CORTE_LASER$CORTE
 10
620.1801716109342
 20
2239.965108228875
 30
0.0
 11
620.1555441480214
 21
2240.034753870854
 31
0.0
  0
LINE
  5
333
  8
CORTE_LASER$CORTE
 10
620.1555441480214
 20
2240.034753870854
 30
0.0
 11
620.1327647174791
 21
2240.104582573362
 31
0.0
  0
LINE
  5
334
  8
CORTE_LASER$CORTE
 10
620.1327647174791
 20
2240.104582573362
 30
0.0
 11
620.1118225699853
 21
2240.174525355464
 31
0.0
  0
LINE
  5
335
  8
CORTE_LASER$CORTE
 10
620.1118225699853
 20
2240.174525355464
 30
0.0
 11
620.092703771241
 21
2240.244514658555
 31
0.0
  0
LINE
  5
336
  8
CORTE_LASER$CORTE
 10
620.092703771241
 20
2240.244514658555
 30
0.0
 11
620.075391341418
 21
2240.314484512781
 31
0.0
  0
LINE
  5
337
  8
CORTE_LASER$CORTE
 10
620.075391341418
 20
2240.314484512781
 30
0.0
 11
620.0598654035176
 21
2240.384370689983
 31
0.0
  0
LINE
  5
338
  8
CORTE_LASER$CORTE
 10
620.0598654035176
 20
2240.384370689983
 30
0.0
 11
620.0461033392966
 21
2240.454110842763
 31
0.0
  0
LINE
  5
339
  8
CORTE_LASER$CORTE
 10
620.0461033392966
 20
2240.454110842763
 30
0.0
 11
620.0340799514228
 21
2240.523644629425
 31
0.0
  0
LINE
  5
33A
  8
CORTE_LASER$CORTE
 10
620.0340799514228
 20
2240.523644629425
 30
0.0
 11
620.0237676305416
 21
2240.592913824669
 31
0.0
  0
LINE
  5
33B
  8
CORTE_LASER$CORTE
 10
620.0237676305416
 20
2240.592913824669
 30
0.0
 11
620.0151365259599
 21
2240.661862416048
 31
0.0
  0
LINE
  5
33C
  8
CORTE_LASER$CORTE
 10
620.0151365259599
 20
2240.661862416048
 30
0.0
 11
620.0081547187075
 21
2240.730436686306
 31
0.0
  0
LINE
  5
33D
  8
CORTE_LASER$CORTE
 10
620.0081547187075
 20
2240.730436686306
 30
0.0
 11
620.0027883957787
 21
2240.798585281831
 31
0.0
  0
LINE
  5
33E
  8
CORTE_LASER$CORTE
 10
620.0027883957787
 20
2240.798585281831
 30
0.0
 11
619.999002024429
 21
2240.866259267554
 31
0.0
  0
LINE
  5
33F
  8
CORTE_LASER$CORTE
 10
619.999002024429
 20
2240.866259267554
 30
0.0
 11
619.9967585254656
 21
2240.933412168715
 31
0.0
  0
LINE
  5
340
  8
CORTE_LASER$CORTE
 10
619.9967585254656
 20
2240.933412168715
 30
0.0
 11
619.9960194445462
 21
2241.0
 31
0.0
  0
LINE
  5
341
  8
CORTE_LASER$CORTE
 10
619.9960194445462
 20
2241.0
 30
0.0
 11
619.9960194445462
 21
2370.0
 31
0.0
  0
LINE
  5
342
  8
CORTE_LASER$CORTE
 10
535.25
 20
2280.999992263656
 30
0.0
 11
535.25
 21
2250.999992263656
 31
0.0
  0
LINE
  5
343
  8
CORTE_LASER$CORTE
 10
535.25
 20
2250.999992263656
 30
0.0
 11
535.25
 21
2248.999992263656
 31
0.0
  0
LINE
  5
344
  8
CORTE_LASER$CORTE
 10
535.25
 20
2248.999992263656
 30
0.0
 11
532.25
 21
2248.999992263656
 31
0.0
  0
LINE
  5
345
  8
CORTE_LASER$CORTE
 10
532.25
 20
2248.999992263656
 30
0.0
 11
532.25
 21
2250.999992263656
 31
0.0
  0
LINE
  5
346
  8
CORTE_LASER$CORTE
 10
532.25
 20
2250.999992263656
 30
0.0
 11
505.75
 21
2250.999992263656
 31
0.0
  0
LINE
  5
347
  8
CORTE_LASER$CORTE
 10
505.75
 20
2250.999992263656
 30
0.0
 11
505.75
 21
2255.999992263656
 31
0.0
  0
LINE
  5
348
  8
CORTE_LASER$CORTE
 10
505.75
 20
2255.999992263656
 30
0.0
 11
511.25
 21
2255.999992263656
 31
0.0
  0
LINE
  5
349
  8
CORTE_LASER$CORTE
 10
511.25
 20
2255.999992263656
 30
0.0
 11
511.25
 21
2259.999992263656
 31
0.0
  0
LINE
  5
34A
  8
CORTE_LASER$CORTE
 10
511.25
 20
2259.999992263656
 30
0.0
 11
505.75
 21
2259.999992263612
 31
0.0
  0
LINE
  5
34B
  8
CORTE_LASER$CORTE
 10
505.75
 20
2259.999992263612
 30
0.0
 11
505.75
 21
2266.499992263657
 31
0.0
  0
LINE
  5
34C
  8
CORTE_LASER$CORTE
 10
505.75
 20
2266.499992263657
 30
0.0
 11
511.25
 21
2266.499992263656
 31
0.0
  0
LINE
  5
34D
  8
CORTE_LASER$CORTE
 10
511.25
 20
2266.499992263656
 30
0.0
 11
511.25
 21
2270.499992263657
 31
0.0
  0
LINE
  5
34E
  8
CORTE_LASER$CORTE
 10
511.25
 20
2270.499992263657
 30
0.0
 11
505.75
 21
2270.499992263657
 31
0.0
  0
LINE
  5
34F
  8
CORTE_LASER$CORTE
 10
505.75
 20
2270.499992263657
 30
0.0
 11
505.75
 21
2272.999992263538
 31
0.0
  0
LINE
  5
350
  8
CORTE_LASER$CORTE
 10
505.75
 20
2272.999992263538
 30
0.0
 11
501.75
 21
2272.999992263538
 31
0.0
  0
LINE
  5
351
  8
CORTE_LASER$CORTE
 10
501.75
 20
2272.999992263538
 30
0.0
 11
501.75
 21
2270.499992263656
 31
0.0
  0
LINE
  5
352
  8
CORTE_LASER$CORTE
 10
501.75
 20
2270.499992263656
 30
0.0
 11
496.25
 21
2270.499992263656
 31
0.0
  0
LINE
  5
353
  8
CORTE_LASER$CORTE
 10
496.25
 20
2270.499992263656
 30
0.0
 11
496.25
 21
2266.499992263656
 31
0.0
  0
LINE
  5
354
  8
CORTE_LASER$CORTE
 10
496.25
 20
2266.499992263656
 30
0.0
 11
501.75
 21
2266.499992263656
 31
0.0
  0
LINE
  5
355
  8
CORTE_LASER$CORTE
 10
501.75
 20
2266.499992263656
 30
0.0
 11
501.75
 21
2259.999992263656
 31
0.0
  0
LINE
  5
356
  8
CORTE_LASER$CORTE
 10
501.75
 20
2259.999992263656
 30
0.0
 11
496.25
 21
2259.999992263656
 31
0.0
  0
LINE
  5
357
  8
CORTE_LASER$CORTE
 10
496.25
 20
2259.999992263656
 30
0.0
 11
496.25
 21
2255.999992263656
 31
0.0
  0
LINE
  5
358
  8
CORTE_LASER$CORTE
 10
496.25
 20
2255.999992263656
 30
0.0
 11
501.75
 21
2255.999992263656
 31
0.0
  0
LINE
  5
359
  8
CORTE_LASER$CORTE
 10
501.75
 20
2255.999992263656
 30
0.0
 11
501.75
 21
2250.999992263656
 31
0.0
  0
LINE
  5
35A
  8
CORTE_LASER$CORTE
 10
501.75
 20
2250.999992263656
 30
0.0
 11
475.2499999999995
 21
2250.999992263656
 31
0.0
  0
LINE
  5
35B
  8
CORTE_LASER$CORTE
 10
475.2499999999995
 20
2250.999992263656
 30
0.0
 11
475.2499999999995
 21
2248.999992263656
 31
0.0
  0
LINE
  5
35C
  8
CORTE_LASER$CORTE
 10
475.2499999999995
 20
2248.999992263656
 30
0.0
 11
472.2499999999995
 21
2248.999992263656
 31
0.0
  0
LINE
  5
35D
  8
CORTE_LASER$CORTE
 10
472.2499999999995
 20
2248.999992263656
 30
0.0
 11
472.25
 21
2250.999992263656
 31
0.0
  0
LINE
  5
35E
  8
CORTE_LASER$CORTE
 10
472.25
 20
2250.999992263656
 30
0.0
 11
472.25
 21
2280.999992263656
 31
0.0
  0
LINE
  5
35F
  8
CORTE_LASER$CORTE
 10
472.25
 20
2280.999992263656
 30
0.0
 11
535.25
 21
2280.999992263656
 31
0.0
  0
CIRCLE
  5
360
  8
CORTE_LASER$CORTE
 10
522.7500646762069
 20
2266.0
 30
0.0
 40
2.25
  0
CIRCLE
  5
361
  8
CORTE_LASER$CORTE
 10
484.7499353237931
 20
2266.0
 30
0.0
 40
2.25
  0
LINE
  5
362
  8
CORTE_LASER$CORTE
 10
536.25
 20
2317.999992263656
 30
0.0
 11
536.25
 21
2287.999992263656
 31
0.0
  0
LINE
  5
363
  8
CORTE_LASER$CORTE
 10
536.25
 20
2287.999992263656
 30
0.0
 11
536.25
 21
2285.999992263656
 31
0.0
  0
LINE
  5
364
  8
CORTE_LASER$CORTE
 10
536.25
 20
2285.999992263656
 30
0.0
 11
533.25
 21
2285.999992263656
 31
0.0
  0
LINE
  5
365
  8
CORTE_LASER$CORTE
 10
533.25
 20
2285.999992263656
 30
0.0
 11
533.25
 21
2287.999992263656
 31
0.0
  0
LINE
  5
366
  8
CORTE_LASER$CORTE
 10
533.25
 20
2287.999992263656
 30
0.0
 11
506.75
 21
2287.999992263656
 31
0.0
  0
LINE
  5
367
  8
CORTE_LASER$CORTE
 10
506.75
 20
2287.999992263656
 30
0.0
 11
506.75
 21
2292.999992263656
 31
0.0
  0
LINE
  5
368
  8
CORTE_LASER$CORTE
 10
506.75
 20
2292.999992263656
 30
0.0
 11
512.25
 21
2292.999992263656
 31
0.0
  0
LINE
  5
369
  8
CORTE_LASER$CORTE
 10
512.25
 20
2292.999992263656
 30
0.0
 11
512.25
 21
2296.999992263656
 31
0.0
  0
LINE
  5
36A
  8
CORTE_LASER$CORTE
 10
512.25
 20
2296.999992263656
 30
0.0
 11
506.75
 21
2296.999992263612
 31
0.0
  0
LINE
  5
36B
  8
CORTE_LASER$CORTE
 10
506.75
 20
2296.999992263612
 30
0.0
 11
506.75
 21
2303.499992263657
 31
0.0
  0
LINE
  5
36C
  8
CORTE_LASER$CORTE
 10
506.75
 20
2303.499992263657
 30
0.0
 11
512.25
 21
2303.499992263656
 31
0.0
  0
LINE
  5
36D
  8
CORTE_LASER$CORTE
 10
512.25
 20
2303.499992263656
 30
0.0
 11
512.25
 21
2307.499992263657
 31
0.0
  0
LINE
  5
36E
  8
CORTE_LASER$CORTE
 10
512.25
 20
2307.499992263657
 30
0.0
 11
506.75
 21
2307.499992263657
 31
0.0
  0
LINE
  5
36F
  8
CORTE_LASER$CORTE
 10
506.75
 20
2307.499992263657
 30
0.0
 11
506.75
 21
2309.999992263538
 31
0.0
  0
LINE
  5
370
  8
CORTE_LASER$CORTE
 10
506.75
 20
2309.999992263538
 30
0.0
 11
502.75
 21
2309.999992263538
 31
0.0
  0
LINE
  5
371
  8
CORTE_LASER$CORTE
 10
502.75
 20
2309.999992263538
 30
0.0
 11
502.75
 21
2307.499992263656
 31
0.0
  0
LINE
  5
372
  8
CORTE_LASER$CORTE
 10
502.75
 20
2307.499992263656
 30
0.0
 11
497.25
 21
2307.499992263656
 31
0.0
  0
LINE
  5
373
  8
CORTE_LASER$CORTE
 10
497.25
 20
2307.499992263656
 30
0.0
 11
497.25
 21
2303.499992263656
 31
0.0
  0
LINE
  5
374
  8
CORTE_LASER$CORTE
 10
497.25
 20
2303.499992263656
 30
0.0
 11
502.75
 21
2303.499992263656
 31
0.0
  0
LINE
  5
375
  8
CORTE_LASER$CORTE
 10
502.75
 20
2303.499992263656
 30
0.0
 11
502.75
 21
2296.999992263656
 31
0.0
  0
LINE
  5
376
  8
CORTE_LASER$CORTE
 10
502.75
 20
2296.999992263656
 30
0.0
 11
497.25
 21
2296.999992263656
 31
0.0
  0
LINE
  5
377
  8
CORTE_LASER$CORTE
 10
497.25
 20
2296.999992263656
 30
0.0
 11
497.25
 21
2292.999992263656
 31
0.0
  0
LINE
  5
378
  8
CORTE_LASER$CORTE
 10
497.25
 20
2292.999992263656
 30
0.0
 11
502.75
 21
2292.999992263656
 31
0.0
  0
LINE
  5
379
  8
CORTE_LASER$CORTE
 10
502.75
 20
2292.999992263656
 30
0.0
 11
502.75
 21
2287.999992263656
 31
0.0
  0
LINE
  5
37A
  8
CORTE_LASER$CORTE
 10
502.75
 20
2287.999992263656
 30
0.0
 11
476.2499999999995
 21
2287.999992263656
 31
0.0
  0
LINE
  5
37B
  8
CORTE_LASER$CORTE
 10
476.2499999999995
 20
2287.999992263656
 30
0.0
 11
476.2499999999995
 21
2285.999992263656
 31
0.0
  0
LINE
  5
37C
  8
CORTE_LASER$CORTE
 10
476.2499999999995
 20
2285.999992263656
 30
0.0
 11
473.2499999999995
 21
2285.999992263656
 31
0.0
  0
LINE
  5
37D
  8
CORTE_LASER$CORTE
 10
473.2499999999995
 20
2285.999992263656
 30
0.0
 11
473.25
 21
2287.999992263656
 31
0.0
  0
LINE
  5
37E
  8
CORTE_LASER$CORTE
 10
473.25
 20
2287.999992263656
 30
0.0
 11
473.25
 21
2317.999992263656
 31
0.0
  0
LINE
  5
37F
  8
CORTE_LASER$CORTE
 10
473.25
 20
2317.999992263656
 30
0.0
 11
536.25
 21
2317.999992263656
 31
0.0
  0
CIRCLE
  5
380
  8
CORTE_LASER$CORTE
 10
523.7500646762069
 20
2303.0
 30
0.0
 40
2.25
  0
CIRCLE
  5
381
  8
CORTE_LASER$CORTE
 10
485.7499353237931
 20
2303.0
 30
0.0
 40
2.25
  0
LINE
  5
382
  8
CORTE_LASER$CORTE
 10
436.625
 20
2264.499992263656
 30
0.0
 11
440.625
 21
2264.499992263657
 31
0.0
  0
LINE
  5
383
  8
CORTE_LASER$CORTE
 10
440.625
 20
2264.499992263657
 30
0.0
 11
446.125
 21
2264.499992263656
 31
0.0
  0
LINE
  5
384
  8
CORTE_LASER$CORTE
 10
446.125
 20
2264.499992263656
 30
0.0
 11
446.125
 21
2268.499992263656
 31
0.0
  0
LINE
  5
385
  8
CORTE_LASER$CORTE
 10
446.125
 20
2268.499992263656
 30
0.0
 11
440.625
 21
2268.499992263656
 31
0.0
  0
LINE
  5
386
  8
CORTE_LASER$CORTE
 10
440.625
 20
2268.499992263656
 30
0.0
 11
440.625
 21
2270.999992263538
 31
0.0
  0
LINE
  5
387
  8
CORTE_LASER$CORTE
 10
440.625
 20
2270.999992263538
 30
0.0
 11
436.625
 21
2270.999992263538
 31
0.0
  0
LINE
  5
388
  8
CORTE_LASER$CORTE
 10
436.625
 20
2270.999992263538
 30
0.0
 11
436.625
 21
2268.499992263656
 31
0.0
  0
LINE
  5
389
  8
CORTE_LASER$CORTE
 10
436.625
 20
2268.499992263656
 30
0.0
 11
431.125
 21
2268.499992263656
 31
0.0
  0
LINE
  5
38A
  8
CORTE_LASER$CORTE
 10
431.125
 20
2268.499992263656
 30
0.0
 11
431.125
 21
2264.499992263656
 31
0.0
  0
LINE
  5
38B
  8
CORTE_LASER$CORTE
 10
431.125
 20
2264.499992263656
 30
0.0
 11
436.625
 21
2264.499992263656
 31
0.0
  0
LINE
  5
38C
  8
CORTE_LASER$CORTE
 10
440.625
 20
2253.999992263656
 30
0.0
 11
446.125
 21
2253.999992263656
 31
0.0
  0
LINE
  5
38D
  8
CORTE_LASER$CORTE
 10
446.125
 20
2253.999992263656
 30
0.0
 11
446.125
 21
2257.999992263656
 31
0.0
  0
LINE
  5
38E
  8
CORTE_LASER$CORTE
 10
446.125
 20
2257.999992263656
 30
0.0
 11
440.625
 21
2257.999992263612
 31
0.0
  0
LINE
  5
38F
  8
CORTE_LASER$CORTE
 10
440.625
 20
2257.999992263612
 30
0.0
 11
431.125
 21
2257.999992263656
 31
0.0
  0
LINE
  5
390
  8
CORTE_LASER$CORTE
 10
431.125
 20
2257.999992263656
 30
0.0
 11
431.125
 21
2253.999992263656
 31
0.0
  0
LINE
  5
391
  8
CORTE_LASER$CORTE
 10
431.125
 20
2253.999992263656
 30
0.0
 11
440.625
 21
2253.999992263656
 31
0.0
  0
LINE
  5
392
  8
CORTE_LASER$CORTE
 10
470.125
 20
2278.999992263656
 30
0.0
 11
470.125
 21
2248.999992263656
 31
0.0
  0
LINE
  5
393
  8
CORTE_LASER$CORTE
 10
470.125
 20
2248.999992263656
 30
0.0
 11
470.125
 21
2246.999992263656
 31
0.0
  0
LINE
  5
394
  8
CORTE_LASER$CORTE
 10
470.125
 20
2246.999992263656
 30
0.0
 11
467.125
 21
2246.999992263656
 31
0.0
  0
LINE
  5
395
  8
CORTE_LASER$CORTE
 10
467.125
 20
2246.999992263656
 30
0.0
 11
467.125
 21
2248.999992263656
 31
0.0
  0
LINE
  5
396
  8
CORTE_LASER$CORTE
 10
467.125
 20
2248.999992263656
 30
0.0
 11
410.1249999999995
 21
2248.999992263656
 31
0.0
  0
LINE
  5
397
  8
CORTE_LASER$CORTE
 10
410.1249999999995
 20
2248.999992263656
 30
0.0
 11
410.1249999999995
 21
2246.999992263656
 31
0.0
  0
LINE
  5
398
  8
CORTE_LASER$CORTE
 10
410.1249999999995
 20
2246.999992263656
 30
0.0
 11
407.1249999999995
 21
2246.999992263656
 31
0.0
  0
LINE
  5
399
  8
CORTE_LASER$CORTE
 10
407.1249999999995
 20
2246.999992263656
 30
0.0
 11
407.125
 21
2248.999992263656
 31
0.0
  0
LINE
  5
39A
  8
CORTE_LASER$CORTE
 10
407.125
 20
2248.999992263656
 30
0.0
 11
407.125
 21
2278.999992263656
 31
0.0
  0
LINE
  5
39B
  8
CORTE_LASER$CORTE
 10
407.125
 20
2278.999992263656
 30
0.0
 11
470.125
 21
2278.999992263656
 31
0.0
  0
CIRCLE
  5
39C
  8
CORTE_LASER$CORTE
 10
457.6250646762069
 20
2264.0
 30
0.0
 40
2.25
  0
CIRCLE
  5
39D
  8
CORTE_LASER$CORTE
 10
419.6249353237931
 20
2264.0
 30
0.0
 40
2.25
  0
CIRCLE
  5
39E
  8
CORTE_LASER$CORTE
 10
419.4999353237936
 20
2302.000007736344
 30
0.0
 40
2.25
  0
LINE
  5
39F
  8
CORTE_LASER$CORTE
 10
470.0000000000005
 20
2317.0
 30
0.0
 11
470.0000000000005
 21
2287.0
 31
0.0
  0
LINE
  5
3A0
  8
CORTE_LASER$CORTE
 10
470.0000000000005
 20
2287.0
 30
0.0
 11
470.0000000000005
 21
2285.0
 31
0.0
  0
LINE
  5
3A1
  8
CORTE_LASER$CORTE
 10
470.0000000000005
 20
2285.0
 30
0.0
 11
467.0000000000005
 21
2285.0
 31
0.0
  0
LINE
  5
3A2
  8
CORTE_LASER$CORTE
 10
467.0000000000005
 20
2285.0
 30
0.0
 11
467.0000000000005
 21
2287.0
 31
0.0
  0
LINE
  5
3A3
  8
CORTE_LASER$CORTE
 10
467.0000000000005
 20
2287.0
 30
0.0
 11
410.0
 21
2287.0
 31
0.0
  0
LINE
  5
3A4
  8
CORTE_LASER$CORTE
 10
410.0
 20
2287.0
 30
0.0
 11
410.0
 21
2285.0
 31
0.0
  0
LINE
  5
3A5
  8
CORTE_LASER$CORTE
 10
410.0
 20
2285.0
 30
0.0
 11
407.0
 21
2285.0
 31
0.0
  0
LINE
  5
3A6
  8
CORTE_LASER$CORTE
 10
407.0
 20
2285.0
 30
0.0
 11
407.0000000000005
 21
2287.0
 31
0.0
  0
LINE
  5
3A7
  8
CORTE_LASER$CORTE
 10
407.0000000000005
 20
2287.0
 30
0.0
 11
407.0000000000005
 21
2317.0
 31
0.0
  0
LINE
  5
3A8
  8
CORTE_LASER$CORTE
 10
407.0000000000005
 20
2317.0
 30
0.0
 11
470.0000000000005
 21
2317.0
 31
0.0
  0
CIRCLE
  5
3A9
  8
CORTE_LASER$CORTE
 10
457.5000646762073
 20
2302.000007736344
 30
0.0
 40
2.25
  0
LINE
  5
3AA
  8
CORTE_LASER$CORTE
 10
401.0
 20
2213.0
 30
0.0
 11
901.0
 21
2213.0
 31
0.0
  0
LINE
  5
3AB
  8
CORTE_LASER$CORTE
 10
901.0
 20
2213.0
 30
0.0
 11
901.0
 21
3013.0
 31
0.0
  0
LINE
  5
3AC
  8
CORTE_LASER$CORTE
 10
901.0
 20
3013.0
 30
0.0
 11
401.0
 21
3013.0
 31
0.0
  0
LINE
  5
3AD
  8
CORTE_LASER$CORTE
 10
401.0
 20
3013.0
 30
0.0
 11
401.0
 21
2213.0
 31
0.0
  0
ENDSEC
  0
EOF
