  0
SECTION
  2
HEADER
  9
$ACADVER
  1
AC1009
  9
$DWGCODEPAGE
  3
mac-roman
  9
$INSBASE
 10
0.0
 20
0.0
 30
0.0
  9
$EXTMIN
 10
2199.0
 20
2338.0
 30
0.0
  9
$EXTMAX
 10
2499.0
 20
2638.0
 30
0.0
  9
$LIMMIN
 10
0.0
 20
0.0
  9
$LIMMAX
 10
12.0
 20
9.0
  9
$ORTHOMODE
 70
     0
  9
$REGENMODE
 70
     1
  9
$FILLMODE
 70
     1
  9
$QTEXTMODE
 70
     0
  9
$MIRRTEXT
 70
     1
  9
$DRAGMODE
 70
     2
  9
$LTSCALE
 40
1.0
  9
$OSMODE
 70
    37
  9
$ATTMODE
 70
     1
  9
$TEXTSIZE
 40
0.2
  9
$TRACEWID
 40
0.05
  9
$TEXTSTYLE
  7
STANDARD
  9
$CLAYER
  8
0
  9
$CELTYPE
  6
BYLAYER
  9
$CECOLOR
 62
   256
  9
$DIMSCALE
 40
1.0
  9
$DIMASZ
 40
0.18
  9
$DIMEXO
 40
0.0625
  9
$DIMDLI
 40
0.38
  9
$DIMRND
 40
0.0
  9
$DIMDLE
 40
0.0
  9
$DIMEXE
 40
0.18
  9
$DIMTP
 40
0.0
  9
$DIMTM
 40
0.0
  9
$DIMTXT
 40
0.18
  9
$DIMCEN
 40
0.09
  9
$DIMTSZ
 40
0.0
  9
$DIMTOL
 70
     0
  9
$DIMLIM
 70
     0
  9
$DIMTIH
 70
     1
  9
$DIMTOH
 70
     1
  9
$DIMSE1
 70
     0
  9
$DIMSE2
 70
     0
  9
$DIMTAD
 70
     0
  9
$DIMZIN
 70
     0
  9
$DIMBLK
  1

  9
$DIMASO
 70
     1
  9
$DIMSHO
 70
     1
  9
$DIMPOST
  1

  9
$DIMAPOST
  1

  9
$DIMALT
 70
     0
  9
$DIMALTD
 70
     2
  9
$DIMALTF
 40
25.4
  9
$DIMLFAC
 40
1.0
  9
$DIMTOFL
 70
     0
  9
$DIMTVP
 40
0.0
  9
$DIMTIX
 70
     0
  9
$DIMSOXD
 70
     0
  9
$DIMSAH
 70
     0
  9
$DIMBLK1
  1

  9
$DIMBLK2
  1

  9
$DIMSTYLE
  2
STANDARD
  9
$DIMCLRD
 70
     0
  9
$DIMCLRE
 70
     0
  9
$DIMCLRT
 70
     0
  9
$DIMTFAC
 40
1.0
  9
$DIMGAP
 40
0.09
  9
$LUNITS
 70
     2
  9
$LUPREC
 70
     2
  9
$SKETCHINC
 40
0.1
  9
$FILLETRAD
 40
0.5
  9
$AUNITS
 70
     0
  9
$AUPREC
 70
     0
  9
$MENU
  1
.
  9
$ELEVATION
 40
0.0
  9
$PELEVATION
 40
0.0
  9
$THICKNESS
 40
0.0
  9
$LIMCHECK
 70
     0
  9
$CHAMFERA
 40
0.0
  9
$CHAMFERB
 40
0.0
  9
$SKPOLY
 70
     0
  9
$TDCREATE
 40
2457913.606793982
  9
$TDUPDATE
 40
2457913.606805556
  9
$TDINDWG
 40
0.0000000116
  9
$TDUSRTIMER
 40
0.0000000116
  9
$USRTIMER
 70
     1
  9
$ANGBASE
 50
0.0
  9
$ANGDIR
 70
     0
  9
$PDMODE
 70
     0
  9
$PDSIZE
 40
0.0
  9
$PLINEWID
 40
0.0
  9
$COORDS
 70
     1
  9
$SPLFRAME
 70
     0
  9
$SPLINETYPE
 70
     6
  9
$SPLINESEGS
 70
     8
  9
$ATTDIA
 70
     0
  9
$ATTREQ
 70
     1
  9
$HANDLING
 70
     1
  9
$HANDSEED
  5
187
  9
$SURFTAB1
 70
     6
  9
$SURFTAB2
 70
     6
  9
$SURFTYPE
 70
     6
  9
$SURFU
 70
     6
  9
$SURFV
 70
     6
  9
$UCSNAME
  2

  9
$UCSORG
 10
0.0
 20
0.0
 30
0.0
  9
$UCSXDIR
 10
1.0
 20
0.0
 30
0.0
  9
$UCSYDIR
 10
0.0
 20
1.0
 30
0.0
  9
$PUCSNAME
  2

  9
$PUCSORG
 10
0.0
 20
0.0
 30
0.0
  9
$PUCSXDIR
 10
1.0
 20
0.0
 30
0.0
  9
$PUCSYDIR
 10
0.0
 20
1.0
 30
0.0
  9
$USERI1
 70
     0
  9
$USERI2
 70
     0
  9
$USERI3
 70
     0
  9
$USERI4
 70
     0
  9
$USERI5
 70
     0
  9
$USERR1
 40
0.0
  9
$USERR2
 40
0.0
  9
$USERR3
 40
0.0
  9
$USERR4
 40
0.0
  9
$USERR5
 40
0.0
  9
$WORLDVIEW
 70
     1
  9
$SHADEDGE
 70
     3
  9
$SHADEDIF
 70
    70
  9
$TILEMODE
 70
     1
  9
$MAXACTVP
 70
    64
  9
$PLIMCHECK
 70
     0
  9
$PEXTMIN
 10
1.000000000000000E+20
 20
1.000000000000000E+20
 30
1.000000000000000E+20
  9
$PEXTMAX
 10
-1.000000000000000E+20
 20
-1.000000000000000E+20
 30
-1.000000000000000E+20
  9
$PLIMMIN
 10
0.0
 20
0.0
  9
$PLIMMAX
 10
12.0
 20
9.0
  9
$UNITMODE
 70
     0
  9
$VISRETAIN
 70
     1
  9
$PLINEGEN
 70
     0
  9
$PSLTSCALE
 70
     1
  0
ENDSEC
  0
SECTION
  2
TABLES
  0
TABLE
  2
VPORT
 70
     1
  0
VPORT
  2
*ACTIVE
 70
     0
 10
0.0
 20
0.0
 11
1.0
 21
1.0
 12
2349.0
 22
2488.0
 13
0.0
 23
0.0
 14
0.5
 24
0.5
 15
0.5
 25
0.5
 16
0.0
 26
0.0
 36
1.0
 17
0.0
 27
0.0
 37
0.0
 40
306.0
 41
1.0
 42
50.0
 43
0.0
 44
0.0
 50
0.0
 51
0.0
 71
     0
 72
   100
 73
     1
 74
     3
 75
     0
 76
     0
 77
     0
 78
     0
  0
ENDTAB
  0
TABLE
  2
LTYPE
 70
     1
  0
LTYPE
  2
CONTINUOUS
 70
     0
  3
Solid line
 72
    65
 73
     0
 40
0.0
  0
ENDTAB
  0
TABLE
  2
LAYER
 70
     2
  0
LAYER
  2
0
 70
     0
 62
     7
  6
CONTINUOUS
  0
LAYER
  2
CORTE_LASER$CORTE
 70
     0
 62
     7
  6
CONTINUOUS
  0
ENDTAB
  0
TABLE
  2
STYLE
 70
     1
  0
STYLE
  2
STANDARD
 70
     0
 40
0.0
 41
1.0
 50
0.0
 71
     0
 42
0.2
  3
txt
  4

  0
ENDTAB
  0
TABLE
  2
VIEW
 70
     0
  0
ENDTAB
  0
TABLE
  2
UCS
 70
     0
  0
ENDTAB
  0
TABLE
  2
APPID
 70
     1
  0
APPID
  2
ACAD
 70
     0
  0
ENDTAB
  0
TABLE
  2
DIMSTYLE
 70
     1
  0
DIMSTYLE
  2
STANDARD
 70
     0
  3

  4

  5

  6

  7

 40
1.0
 41
0.18
 42
0.0625
 43
0.38
 44
0.18
 45
0.0
 46
0.0
 47
0.0
 48
0.0
140
0.18
141
0.09
142
0.0
143
25.4
144
1.0
145
0.0
146
1.0
147
0.09
 71
     0
 72
     0
 73
     1
 74
     1
 75
     0
 76
     0
 77
     0
 78
     0
170
     0
171
     2
172
     0
173
     0
174
     0
175
     0
176
     0
177
     0
178
     0
  0
ENDTAB
  0
ENDSEC
  0
SECTION
  2
BLOCKS
  0
BLOCK
  8
0
  2
$MODEL_SPACE
 70
     0
 10
0.0
 20
0.0
 30
0.0
  3
$MODEL_SPACE
  1

  0
ENDBLK
  5
21
  8
0
  0
BLOCK
 67
     1
  8
0
  2
$PAPER_SPACE
 70
     0
 10
0.0
 20
0.0
 30
0.0
  3
$PAPER_SPACE
  1

  0
ENDBLK
  5
1D
 67
     1
  8
0
  0
ENDSEC
  0
SECTION
  2
ENTITIES
  0
POLYLINE
  5
6F
  8
CORTE_LASER$CORTE
 66
     1
 10
0.0
 20
0.0
 30
0.0
 70
     1
  0
VERTEX
  5
70
  8
CORTE_LASER$CORTE
 10
2253.0
 20
2629.0
 30
0.0
  0
VERTEX
  5
71
  8
CORTE_LASER$CORTE
 10
2267.999999999983
 20
2617.0
 30
0.0
  0
VERTEX
  5
72
  8
CORTE_LASER$CORTE
 10
2358.0
 20
2617.0
 30
0.0
  0
VERTEX
  5
73
  8
CORTE_LASER$CORTE
 10
2358.0
 20
2604.0
 30
0.0
  0
VERTEX
  5
74
  8
CORTE_LASER$CORTE
 10
2355.0
 20
2604.0
 30
0.0
  0
VERTEX
  5
75
  8
CORTE_LASER$CORTE
 10
2354.955608112477
 20
2603.999507279387
 30
0.0
  0
VERTEX
  5
76
  8
CORTE_LASER$CORTE
 10
2354.910839511703
 20
2603.998011613411
 30
0.0
  0
VERTEX
  5
77
  8
CORTE_LASER$CORTE
 10
2354.865723521222
 20
2603.995487365844
 30
0.0
  0
VERTEX
  5
78
  8
CORTE_LASER$CORTE
 10
2354.820291124205
 20
2603.991909817226
 30
0.0
  0
VERTEX
  5
79
  8
CORTE_LASER$CORTE
 10
2354.774574944032
 20
2603.987255279057
 30
0.0
  0
VERTEX
  5
7A
  8
CORTE_LASER$CORTE
 10
2354.728609216446
 20
2603.981501209336
 30
0.0
  0
VERTEX
  5
7B
  8
CORTE_LASER$CORTE
 10
2354.68242975295
 20
2603.974626328748
 30
0.0
  0
VERTEX
  5
7C
  8
CORTE_LASER$CORTE
 10
2354.636073895176
 20
2603.966610736833
 30
0.0
  0
VERTEX
  5
7D
  8
CORTE_LASER$CORTE
 10
2354.589580459989
 20
2603.957436027352
 30
0.0
  0
VERTEX
  5
7E
  8
CORTE_LASER$CORTE
 10
2354.542989675188
 20
2603.947085402085
 30
0.0
  0
VERTEX
  5
7F
  8
CORTE_LASER$CORTE
 10
2354.496343105703
 20
2603.935543782203
 30
0.0
  0
VERTEX
  5
80
  8
CORTE_LASER$CORTE
 10
2354.449683570309
 20
2603.922797916374
 30
0.0
  0
VERTEX
  5
81
  8
CORTE_LASER$CORTE
 10
2354.403055048907
 20
2603.908836484711
 30
0.0
  0
VERTEX
  5
82
  8
CORTE_LASER$CORTE
 10
2354.356502580569
 20
2603.893650197683
 30
0.0
  0
VERTEX
  5
83
  8
CORTE_LASER$CORTE
 10
2354.310072152584
 20
2603.877231889075
 30
0.0
  0
VERTEX
  5
84
  8
CORTE_LASER$CORTE
 10
2354.263810580876
 20
2603.859576602124
 30
0.0
  0
VERTEX
  5
85
  8
CORTE_LASER$CORTE
 10
2354.217765382241
 20
2603.840681667964
 30
0.0
  0
VERTEX
  5
86
  8
CORTE_LASER$CORTE
 10
2354.171984638931
 20
2603.820546775513
 30
0.0
  0
VERTEX
  5
87
  8
CORTE_LASER$CORTE
 10
2354.126516856253
 20
2603.799174032045
 30
0.0
  0
VERTEX
  5
88
  8
CORTE_LASER$CORTE
 10
2354.081410813888
 20
2603.776568013659
 30
0.0
  0
VERTEX
  5
89
  8
CORTE_LASER$CORTE
 10
2354.036715411764
 20
2603.752735804982
 30
0.0
  0
VERTEX
  5
8A
  8
CORTE_LASER$CORTE
 10
2353.992479511362
 20
2603.727687027495
 30
0.0
  0
VERTEX
  5
8B
  8
CORTE_LASER$CORTE
 10
2353.948751773445
 20
2603.701433855947
 30
0.0
  0
VERTEX
  5
8C
  8
CORTE_LASER$CORTE
 10
2353.90558049323
 20
2603.673991022437
 30
0.0
  0
VERTEX
  5
8D
  8
CORTE_LASER$CORTE
 10
2353.863013434095
 20
2603.645375807817
 30
0.0
  0
VERTEX
  5
8E
  8
CORTE_LASER$CORTE
 10
2353.821097660955
 20
2603.615608020218
 30
0.0
  0
VERTEX
  5
8F
  8
CORTE_LASER$CORTE
 10
2353.779879374458
 20
2603.584709960569
 30
0.0
  0
VERTEX
  5
90
  8
CORTE_LASER$CORTE
 10
2353.739403747202
 20
2603.55270637515
 30
0.0
  0
VERTEX
  5
91
  8
CORTE_LASER$CORTE
 10
2353.699714763115
 20
2603.519624395282
 30
0.0
  0
VERTEX
  5
92
  8
CORTE_LASER$CORTE
 10
2353.660855061216
 20
2603.485493464451
 30
0.0
  0
VERTEX
  5
93
  8
CORTE_LASER$CORTE
 10
2353.622865784866
 20
2603.450345253208
 30
0.0
  0
VERTEX
  5
94
  8
CORTE_LASER$CORTE
 10
2353.585786437627
 20
2603.414213562373
 30
0.0
  0
VERTEX
  5
95
  8
CORTE_LASER$CORTE
 10
2353.549654746791
 20
2603.377134215134
 30
0.0
  0
VERTEX
  5
96
  8
CORTE_LASER$CORTE
 10
2353.514506535549
 20
2603.339144938784
 30
0.0
  0
VERTEX
  5
97
  8
CORTE_LASER$CORTE
 10
2353.480375604718
 20
2603.300285236885
 30
0.0
  0
VERTEX
  5
98
  8
CORTE_LASER$CORTE
 10
2353.447293624851
 20
2603.260596252798
 30
0.0
  0
VERTEX
  5
99
  8
CORTE_LASER$CORTE
 10
2353.41529003943
 20
2603.220120625541
 30
0.0
  0
VERTEX
  5
9A
  8
CORTE_LASER$CORTE
 10
2353.384391979782
 20
2603.178902339045
 30
0.0
  0
VERTEX
  5
9B
  8
CORTE_LASER$CORTE
 10
2353.354624192182
 20
2603.136986565904
 30
0.0
  0
VERTEX
  5
9C
  8
CORTE_LASER$CORTE
 10
2353.326008977563
 20
2603.09441950677
 30
0.0
  0
VERTEX
  5
9D
  8
CORTE_LASER$CORTE
 10
2353.298566144053
 20
2603.051248226554
 30
0.0
  0
VERTEX
  5
9E
  8
CORTE_LASER$CORTE
 10
2353.272312972505
 20
2603.007520488638
 30
0.0
  0
VERTEX
  5
9F
  8
CORTE_LASER$CORTE
 10
2353.247264195018
 20
2602.963284588236
 30
0.0
  0
VERTEX
  5
A0
  8
CORTE_LASER$CORTE
 10
2353.22343198634
 20
2602.918589186111
 30
0.0
  0
VERTEX
  5
A1
  8
CORTE_LASER$CORTE
 10
2353.200825967955
 20
2602.873483143747
 30
0.0
  0
VERTEX
  5
A2
  8
CORTE_LASER$CORTE
 10
2353.179453224487
 20
2602.828015361069
 30
0.0
  0
VERTEX
  5
A3
  8
CORTE_LASER$CORTE
 10
2353.159318332036
 20
2602.782234617759
 30
0.0
  0
VERTEX
  5
A4
  8
CORTE_LASER$CORTE
 10
2353.140423397875
 20
2602.736189419123
 30
0.0
  0
VERTEX
  5
A5
  8
CORTE_LASER$CORTE
 10
2353.122768110925
 20
2602.689927847416
 30
0.0
  0
VERTEX
  5
A6
  8
CORTE_LASER$CORTE
 10
2353.106349802316
 20
2602.64349741943
 30
0.0
  0
VERTEX
  5
A7
  8
CORTE_LASER$CORTE
 10
2353.091163515288
 20
2602.596944951092
 30
0.0
  0
VERTEX
  5
A8
  8
CORTE_LASER$CORTE
 10
2353.077202083626
 20
2602.55031642969
 30
0.0
  0
VERTEX
  5
A9
  8
CORTE_LASER$CORTE
 10
2353.064456217797
 20
2602.503656894297
 30
0.0
  0
VERTEX
  5
AA
  8
CORTE_LASER$CORTE
 10
2353.052914597915
 20
2602.457010324812
 30
0.0
  0
VERTEX
  5
AB
  8
CORTE_LASER$CORTE
 10
2353.042563972647
 20
2602.410419540011
 30
0.0
  0
VERTEX
  5
AC
  8
CORTE_LASER$CORTE
 10
2353.033389263167
 20
2602.363926104824
 30
0.0
  0
VERTEX
  5
AD
  8
CORTE_LASER$CORTE
 10
2353.025373671251
 20
2602.317570247049
 30
0.0
  0
VERTEX
  5
AE
  8
CORTE_LASER$CORTE
 10
2353.018498790664
 20
2602.271390783553
 30
0.0
  0
VERTEX
  5
AF
  8
CORTE_LASER$CORTE
 10
2353.012744720942
 20
2602.225425055967
 30
0.0
  0
VERTEX
  5
B0
  8
CORTE_LASER$CORTE
 10
2353.008090182775
 20
2602.179708875795
 30
0.0
  0
VERTEX
  5
B1
  8
CORTE_LASER$CORTE
 10
2353.004512634156
 20
2602.134276478778
 30
0.0
  0
VERTEX
  5
B2
  8
CORTE_LASER$CORTE
 10
2353.001988386589
 20
2602.089160488297
 30
0.0
  0
VERTEX
  5
B3
  8
CORTE_LASER$CORTE
 10
2353.000492720613
 20
2602.044391887523
 30
0.0
  0
VERTEX
  5
B4
  8
CORTE_LASER$CORTE
 10
2353.0
 20
2602.0
 30
0.0
  0
VERTEX
  5
B5
  8
CORTE_LASER$CORTE
 10
2353.0
 20
2469.0
 30
0.0
  0
VERTEX
  5
B6
  8
CORTE_LASER$CORTE
 10
2352.998768198468
 20
2468.889020281193
 30
0.0
  0
VERTEX
  5
B7
  8
CORTE_LASER$CORTE
 10
2352.995029033528
 20
2468.777098779258
 30
0.0
  0
VERTEX
  5
B8
  8
CORTE_LASER$CORTE
 10
2352.988718414612
 20
2468.664308803054
 30
0.0
  0
VERTEX
  5
B9
  8
CORTE_LASER$CORTE
 10
2352.979774543065
 20
2468.550727810512
 30
0.0
  0
VERTEX
  5
BA
  8
CORTE_LASER$CORTE
 10
2352.968138197644
 20
2468.436437360082
 30
0.0
  0
VERTEX
  5
BB
  8
CORTE_LASER$CORTE
 10
2352.953753023341
 20
2468.321523041116
 30
0.0
  0
VERTEX
  5
BC
  8
CORTE_LASER$CORTE
 10
2352.936565821873
 20
2468.206074382376
 30
0.0
  0
VERTEX
  5
BD
  8
CORTE_LASER$CORTE
 10
2352.916526842083
 20
2468.09018473794
 30
0.0
  0
VERTEX
  5
BE
  8
CORTE_LASER$CORTE
 10
2352.893590068381
 20
2467.973951149973
 30
0.0
  0
VERTEX
  5
BF
  8
CORTE_LASER$CORTE
 10
2352.867713505213
 20
2467.857474187969
 30
0.0
  0
VERTEX
  5
C0
  8
CORTE_LASER$CORTE
 10
2352.838859455509
 20
2467.740857764259
 30
0.0
  0
VERTEX
  5
C1
  8
CORTE_LASER$CORTE
 10
2352.806994790935
 20
2467.624208925774
 30
0.0
  0
VERTEX
  5
C2
  8
CORTE_LASER$CORTE
 10
2352.772091211779
 20
2467.50763762227
 30
0.0
  0
VERTEX
  5
C3
  8
CORTE_LASER$CORTE
 10
2352.734125494208
 20
2467.391256451424
 30
0.0
  0
VERTEX
  5
C4
  8
CORTE_LASER$CORTE
 10
2352.693079722688
 20
2467.27518038146
 30
0.0
  0
VERTEX
  5
C5
  8
CORTE_LASER$CORTE
 10
2352.648941505312
 20
2467.159526452191
 30
0.0
  0
VERTEX
  5
C6
  8
CORTE_LASER$CORTE
 10
2352.60170416991
 20
2467.044413455602
 30
0.0
  0
VERTEX
  5
C7
  8
CORTE_LASER$CORTE
 10
2352.551366938784
 20
2466.929961597327
 30
0.0
  0
VERTEX
  5
C8
  8
CORTE_LASER$CORTE
 10
2352.497935080115
 20
2466.816292140631
 30
0.0
  0
VERTEX
  5
C9
  8
CORTE_LASER$CORTE
 10
2352.441420034149
 20
2466.703527034721
 30
0.0
  0
VERTEX
  5
CA
  8
CORTE_LASER$CORTE
 10
2352.381839512455
 20
2466.591788529411
 30
0.0
  0
VERTEX
  5
CB
  8
CORTE_LASER$CORTE
 10
2352.319217568737
 20
2466.481198778406
 30
0.0
  0
VERTEX
  5
CC
  8
CORTE_LASER$CORTE
 10
2352.253584639869
 20
2466.371879433613
 30
0.0
  0
VERTEX
  5
CD
  8
CORTE_LASER$CORTE
 10
2352.184977556094
 20
2466.263951233076
 30
0.0
  0
VERTEX
  5
CE
  8
CORTE_LASER$CORTE
 10
2352.113439519544
 20
2466.157533585239
 30
0.0
  0
VERTEX
  5
CF
  8
CORTE_LASER$CORTE
 10
2352.039020050545
 20
2466.052744152387
 30
0.0
  0
VERTEX
  5
D0
  8
CORTE_LASER$CORTE
 10
2351.961774901424
 20
2465.949698436148
 30
0.0
  0
VERTEX
  5
D1
  8
CORTE_LASER$CORTE
 10
2351.881765937875
 20
2465.848509368005
 30
0.0
  0
VERTEX
  5
D2
  8
CORTE_LASER$CORTE
 10
2351.799060988206
 20
2465.749286907786
 30
0.0
  0
VERTEX
  5
D3
  8
CORTE_LASER$CORTE
 10
2351.713733661129
 20
2465.65213765304
 30
0.0
  0
VERTEX
  5
D4
  8
CORTE_LASER$CORTE
 10
2351.625863133022
 20
2465.557164462164
 30
0.0
  0
VERTEX
  5
D5
  8
CORTE_LASER$CORTE
 10
2351.535533905933
 20
2465.464466094068
 30
0.0
  0
VERTEX
  5
D6
  8
CORTE_LASER$CORTE
 10
2351.442835537837
 20
2465.374136866979
 30
0.0
  0
VERTEX
  5
D7
  8
CORTE_LASER$CORTE
 10
2351.347862346961
 20
2465.286266338872
 30
0.0
  0
VERTEX
  5
D8
  8
CORTE_LASER$CORTE
 10
2351.250713092214
 20
2465.200939011795
 30
0.0
  0
VERTEX
  5
D9
  8
CORTE_LASER$CORTE
 10
2351.151490631996
 20
2465.118234062127
 30
0.0
  0
VERTEX
  5
DA
  8
CORTE_LASER$CORTE
 10
2351.050301563854
 20
2465.038225098577
 30
0.0
  0
VERTEX
  5
DB
  8
CORTE_LASER$CORTE
 10
2350.947255847614
 20
2464.960979949456
 30
0.0
  0
VERTEX
  5
DC
  8
CORTE_LASER$CORTE
 10
2350.842466414763
 20
2464.886560480457
 30
0.0
  0
VERTEX
  5
DD
  8
CORTE_LASER$CORTE
 10
2350.736048766926
 20
2464.815022443908
 30
0.0
  0
VERTEX
  5
DE
  8
CORTE_LASER$CORTE
 10
2350.628120566388
 20
2464.746415360133
 30
0.0
  0
VERTEX
  5
DF
  8
CORTE_LASER$CORTE
 10
2350.518801221596
 20
2464.680782431265
 30
0.0
  0
VERTEX
  5
E0
  8
CORTE_LASER$CORTE
 10
2350.40821147059
 20
2464.618160487546
 30
0.0
  0
VERTEX
  5
E1
  8
CORTE_LASER$CORTE
 10
2350.29647296528
 20
2464.558579965852
 30
0.0
  0
VERTEX
  5
E2
  8
CORTE_LASER$CORTE
 10
2350.183707859369
 20
2464.502064919886
 30
0.0
  0
VERTEX
  5
E3
  8
CORTE_LASER$CORTE
 10
2350.070038402675
 20
2464.448633061217
 30
0.0
  0
VERTEX
  5
E4
  8
CORTE_LASER$CORTE
 10
2349.955586544399
 20
2464.398295830091
 30
0.0
  0
VERTEX
  5
E5
  8
CORTE_LASER$CORTE
 10
2349.840473547809
 20
2464.351058494688
 30
0.0
  0
VERTEX
  5
E6
  8
CORTE_LASER$CORTE
 10
2349.724819618541
 20
2464.306920277314
 30
0.0
  0
VERTEX
  5
E7
  8
CORTE_LASER$CORTE
 10
2349.608743548577
 20
2464.265874505792
 30
0.0
  0
VERTEX
  5
E8
  8
CORTE_LASER$CORTE
 10
2349.49236237773
 20
2464.227908788222
 30
0.0
  0
VERTEX
  5
E9
  8
CORTE_LASER$CORTE
 10
2349.375791074227
 20
2464.193005209066
 30
0.0
  0
VERTEX
  5
EA
  8
CORTE_LASER$CORTE
 10
2349.259142235743
 20
2464.161140544492
 30
0.0
  0
VERTEX
  5
EB
  8
CORTE_LASER$CORTE
 10
2349.142525812032
 20
2464.132286494787
 30
0.0
  0
VERTEX
  5
EC
  8
CORTE_LASER$CORTE
 10
2349.026048850028
 20
2464.10640993162
 30
0.0
  0
VERTEX
  5
ED
  8
CORTE_LASER$CORTE
 10
2348.909815262061
 20
2464.083473157918
 30
0.0
  0
VERTEX
  5
EE
  8
CORTE_LASER$CORTE
 10
2348.793925617625
 20
2464.063434178128
 30
0.0
  0
VERTEX
  5
EF
  8
CORTE_LASER$CORTE
 10
2348.678476958885
 20
2464.046246976659
 30
0.0
  0
VERTEX
  5
F0
  8
CORTE_LASER$CORTE
 10
2348.56356263992
 20
2464.031861802357
 30
0.0
  0
VERTEX
  5
F1
  8
CORTE_LASER$CORTE
 10
2348.449272189489
 20
2464.020225456936
 30
0.0
  0
VERTEX
  5
F2
  8
CORTE_LASER$CORTE
 10
2348.335691196947
 20
2464.011281585388
 30
0.0
  0
VERTEX
  5
F3
  8
CORTE_LASER$CORTE
 10
2348.222901220744
 20
2464.004970966473
 30
0.0
  0
VERTEX
  5
F4
  8
CORTE_LASER$CORTE
 10
2348.110979718808
 20
2464.001231801533
 30
0.0
  0
VERTEX
  5
F5
  8
CORTE_LASER$CORTE
 10
2348.0
 20
2464.0
 30
0.0
  0
VERTEX
  5
F6
  8
CORTE_LASER$CORTE
 10
2218.0
 20
2464.0
 30
0.0
  0
VERTEX
  5
F7
  8
CORTE_LASER$CORTE
 10
2217.889020281192
 20
2464.001231801532
 30
0.0
  0
VERTEX
  5
F8
  8
CORTE_LASER$CORTE
 10
2217.777098779257
 20
2464.004970966472
 30
0.0
  0
VERTEX
  5
F9
  8
CORTE_LASER$CORTE
 10
2217.664308803052
 20
2464.011281585387
 30
0.0
  0
VERTEX
  5
FA
  8
CORTE_LASER$CORTE
 10
2217.550727810511
 20
2464.020225456935
 30
0.0
  0
VERTEX
  5
FB
  8
CORTE_LASER$CORTE
 10
2217.43643736008
 20
2464.031861802356
 30
0.0
  0
VERTEX
  5
FC
  8
CORTE_LASER$CORTE
 10
2217.321523041115
 20
2464.046246976658
 30
0.0
  0
VERTEX
  5
FD
  8
CORTE_LASER$CORTE
 10
2217.206074382375
 20
2464.063434178127
 30
0.0
  0
VERTEX
  5
FE
  8
CORTE_LASER$CORTE
 10
2217.090184737939
 20
2464.083473157917
 30
0.0
  0
VERTEX
  5
FF
  8
CORTE_LASER$CORTE
 10
2216.973951149972
 20
2464.106409931619
 30
0.0
  0
VERTEX
  5
100
  8
CORTE_LASER$CORTE
 10
2216.857474187968
 20
2464.132286494786
 30
0.0
  0
VERTEX
  5
101
  8
CORTE_LASER$CORTE
 10
2216.740857764258
 20
2464.161140544491
 30
0.0
  0
VERTEX
  5
102
  8
CORTE_LASER$CORTE
 10
2216.624208925773
 20
2464.193005209064
 30
0.0
  0
VERTEX
  5
103
  8
CORTE_LASER$CORTE
 10
2216.50763762227
 20
2464.227908788221
 30
0.0
  0
VERTEX
  5
104
  8
CORTE_LASER$CORTE
 10
2216.391256451424
 20
2464.265874505792
 30
0.0
  0
VERTEX
  5
105
  8
CORTE_LASER$CORTE
 10
2216.275180381459
 20
2464.306920277313
 30
0.0
  0
VERTEX
  5
106
  8
CORTE_LASER$CORTE
 10
2216.159526452191
 20
2464.351058494688
 30
0.0
  0
VERTEX
  5
107
  8
CORTE_LASER$CORTE
 10
2216.044413455601
 20
2464.39829583009
 30
0.0
  0
VERTEX
  5
108
  8
CORTE_LASER$CORTE
 10
2215.929961597325
 20
2464.448633061216
 30
0.0
  0
VERTEX
  5
109
  8
CORTE_LASER$CORTE
 10
2215.81629214063
 20
2464.502064919885
 30
0.0
  0
VERTEX
  5
10A
  8
CORTE_LASER$CORTE
 10
2215.703527034721
 20
2464.558579965851
 30
0.0
  0
VERTEX
  5
10B
  8
CORTE_LASER$CORTE
 10
2215.59178852941
 20
2464.618160487544
 30
0.0
  0
VERTEX
  5
10C
  8
CORTE_LASER$CORTE
 10
2215.481198778404
 20
2464.680782431263
 30
0.0
  0
VERTEX
  5
10D
  8
CORTE_LASER$CORTE
 10
2215.371879433612
 20
2464.746415360131
 30
0.0
  0
VERTEX
  5
10E
  8
CORTE_LASER$CORTE
 10
2215.263951233074
 20
2464.815022443906
 30
0.0
  0
VERTEX
  5
10F
  8
CORTE_LASER$CORTE
 10
2215.157533585238
 20
2464.886560480456
 30
0.0
  0
VERTEX
  5
110
  8
CORTE_LASER$CORTE
 10
2215.052744152386
 20
2464.960979949455
 30
0.0
  0
VERTEX
  5
111
  8
CORTE_LASER$CORTE
 10
2214.949698436146
 20
2465.038225098575
 30
0.0
  0
VERTEX
  5
112
  8
CORTE_LASER$CORTE
 10
2214.848509368004
 20
2465.118234062125
 30
0.0
  0
VERTEX
  5
113
  8
CORTE_LASER$CORTE
 10
2214.749286907786
 20
2465.200939011794
 30
0.0
  0
VERTEX
  5
114
  8
CORTE_LASER$CORTE
 10
2214.65213765304
 20
2465.286266338871
 30
0.0
  0
VERTEX
  5
115
  8
CORTE_LASER$CORTE
 10
2214.557164462164
 20
2465.374136866978
 30
0.0
  0
VERTEX
  5
116
  8
CORTE_LASER$CORTE
 10
2214.464466094068
 20
2465.464466094067
 30
0.0
  0
VERTEX
  5
117
  8
CORTE_LASER$CORTE
 10
2214.374136866978
 20
2465.557164462163
 30
0.0
  0
VERTEX
  5
118
  8
CORTE_LASER$CORTE
 10
2214.286266338872
 20
2465.652137653039
 30
0.0
  0
VERTEX
  5
119
  8
CORTE_LASER$CORTE
 10
2214.200939011795
 20
2465.749286907786
 30
0.0
  0
VERTEX
  5
11A
  8
CORTE_LASER$CORTE
 10
2214.118234062126
 20
2465.848509368003
 30
0.0
  0
VERTEX
  5
11B
  8
CORTE_LASER$CORTE
 10
2214.038225098576
 20
2465.949698436146
 30
0.0
  0
VERTEX
  5
11C
  8
CORTE_LASER$CORTE
 10
2213.960979949456
 20
2466.052744152386
 30
0.0
  0
VERTEX
  5
11D
  8
CORTE_LASER$CORTE
 10
2213.886560480456
 20
2466.157533585237
 30
0.0
  0
VERTEX
  5
11E
  8
CORTE_LASER$CORTE
 10
2213.815022443907
 20
2466.263951233074
 30
0.0
  0
VERTEX
  5
11F
  8
CORTE_LASER$CORTE
 10
2213.746415360132
 20
2466.371879433611
 30
0.0
  0
VERTEX
  5
120
  8
CORTE_LASER$CORTE
 10
2213.680782431263
 20
2466.481198778404
 30
0.0
  0
VERTEX
  5
121
  8
CORTE_LASER$CORTE
 10
2213.618160487545
 20
2466.591788529409
 30
0.0
  0
VERTEX
  5
122
  8
CORTE_LASER$CORTE
 10
2213.558579965852
 20
2466.70352703472
 30
0.0
  0
VERTEX
  5
123
  8
CORTE_LASER$CORTE
 10
2213.502064919885
 20
2466.81629214063
 30
0.0
  0
VERTEX
  5
124
  8
CORTE_LASER$CORTE
 10
2213.448633061216
 20
2466.929961597325
 30
0.0
  0
VERTEX
  5
125
  8
CORTE_LASER$CORTE
 10
2213.39829583009
 20
2467.044413455601
 30
0.0
  0
VERTEX
  5
126
  8
CORTE_LASER$CORTE
 10
2213.351058494688
 20
2467.159526452191
 30
0.0
  0
VERTEX
  5
127
  8
CORTE_LASER$CORTE
 10
2213.306920277313
 20
2467.275180381459
 30
0.0
  0
VERTEX
  5
128
  8
CORTE_LASER$CORTE
 10
2213.265874505792
 20
2467.391256451424
 30
0.0
  0
VERTEX
  5
129
  8
CORTE_LASER$CORTE
 10
2213.227908788221
 20
2467.50763762227
 30
0.0
  0
VERTEX
  5
12A
  8
CORTE_LASER$CORTE
 10
2213.193005209065
 20
2467.624208925773
 30
0.0
  0
VERTEX
  5
12B
  8
CORTE_LASER$CORTE
 10
2213.161140544491
 20
2467.740857764257
 30
0.0
  0
VERTEX
  5
12C
  8
CORTE_LASER$CORTE
 10
2213.132286494787
 20
2467.857474187967
 30
0.0
  0
VERTEX
  5
12D
  8
CORTE_LASER$CORTE
 10
2213.10640993162
 20
2467.973951149972
 30
0.0
  0
VERTEX
  5
12E
  8
CORTE_LASER$CORTE
 10
2213.083473157918
 20
2468.090184737939
 30
0.0
  0
VERTEX
  5
12F
  8
CORTE_LASER$CORTE
 10
2213.063434178128
 20
2468.206074382375
 30
0.0
  0
VERTEX
  5
130
  8
CORTE_LASER$CORTE
 10
2213.046246976659
 20
2468.321523041115
 30
0.0
  0
VERTEX
  5
131
  8
CORTE_LASER$CORTE
 10
2213.031861802356
 20
2468.43643736008
 30
0.0
  0
VERTEX
  5
132
  8
CORTE_LASER$CORTE
 10
2213.020225456936
 20
2468.550727810511
 30
0.0
  0
VERTEX
  5
133
  8
CORTE_LASER$CORTE
 10
2213.011281585388
 20
2468.664308803053
 30
0.0
  0
VERTEX
  5
134
  8
CORTE_LASER$CORTE
 10
2213.004970966472
 20
2468.777098779257
 30
0.0
  0
VERTEX
  5
135
  8
CORTE_LASER$CORTE
 10
2213.001231801533
 20
2468.889020281192
 30
0.0
  0
VERTEX
  5
136
  8
CORTE_LASER$CORTE
 10
2213.0
 20
2469.0
 30
0.0
  0
VERTEX
  5
137
  8
CORTE_LASER$CORTE
 10
2213.0
 20
2602.0
 30
0.0
  0
VERTEX
  5
138
  8
CORTE_LASER$CORTE
 10
2212.999507279387
 20
2602.044391887523
 30
0.0
  0
VERTEX
  5
139
  8
CORTE_LASER$CORTE
 10
2212.998011613411
 20
2602.089160488296
 30
0.0
  0
VERTEX
  5
13A
  8
CORTE_LASER$CORTE
 10
2212.995487365845
 20
2602.134276478779
 30
0.0
  0
VERTEX
  5
13B
  8
CORTE_LASER$CORTE
 10
2212.991909817226
 20
2602.179708875795
 30
0.0
  0
VERTEX
  5
13C
  8
CORTE_LASER$CORTE
 10
2212.987255279058
 20
2602.225425055968
 30
0.0
  0
VERTEX
  5
13D
  8
CORTE_LASER$CORTE
 10
2212.981501209337
 20
2602.271390783554
 30
0.0
  0
VERTEX
  5
13E
  8
CORTE_LASER$CORTE
 10
2212.974626328749
 20
2602.31757024705
 30
0.0
  0
VERTEX
  5
13F
  8
CORTE_LASER$CORTE
 10
2212.966610736833
 20
2602.363926104824
 30
0.0
  0
VERTEX
  5
140
  8
CORTE_LASER$CORTE
 10
2212.957436027352
 20
2602.410419540011
 30
0.0
  0
VERTEX
  5
141
  8
CORTE_LASER$CORTE
 10
2212.947085402086
 20
2602.457010324813
 30
0.0
  0
VERTEX
  5
142
  8
CORTE_LASER$CORTE
 10
2212.935543782204
 20
2602.503656894297
 30
0.0
  0
VERTEX
  5
143
  8
CORTE_LASER$CORTE
 10
2212.922797916374
 20
2602.550316429691
 30
0.0
  0
VERTEX
  5
144
  8
CORTE_LASER$CORTE
 10
2212.908836484711
 20
2602.596944951093
 30
0.0
  0
VERTEX
  5
145
  8
CORTE_LASER$CORTE
 10
2212.893650197683
 20
2602.643497419431
 30
0.0
  0
VERTEX
  5
146
  8
CORTE_LASER$CORTE
 10
2212.877231889075
 20
2602.689927847417
 30
0.0
  0
VERTEX
  5
147
  8
CORTE_LASER$CORTE
 10
2212.859576602125
 20
2602.736189419124
 30
0.0
  0
VERTEX
  5
148
  8
CORTE_LASER$CORTE
 10
2212.840681667964
 20
2602.78223461776
 30
0.0
  0
VERTEX
  5
149
  8
CORTE_LASER$CORTE
 10
2212.820546775513
 20
2602.828015361069
 30
0.0
  0
VERTEX
  5
14A
  8
CORTE_LASER$CORTE
 10
2212.799174032045
 20
2602.873483143747
 30
0.0
  0
VERTEX
  5
14B
  8
CORTE_LASER$CORTE
 10
2212.776568013659
 20
2602.918589186112
 30
0.0
  0
VERTEX
  5
14C
  8
CORTE_LASER$CORTE
 10
2212.752735804982
 20
2602.963284588236
 30
0.0
  0
VERTEX
  5
14D
  8
CORTE_LASER$CORTE
 10
2212.727687027494
 20
2603.007520488638
 30
0.0
  0
VERTEX
  5
14E
  8
CORTE_LASER$CORTE
 10
2212.701433855947
 20
2603.051248226555
 30
0.0
  0
VERTEX
  5
14F
  8
CORTE_LASER$CORTE
 10
2212.673991022437
 20
2603.09441950677
 30
0.0
  0
VERTEX
  5
150
  8
CORTE_LASER$CORTE
 10
2212.645375807818
 20
2603.136986565906
 30
0.0
  0
VERTEX
  5
151
  8
CORTE_LASER$CORTE
 10
2212.615608020218
 20
2603.178902339046
 30
0.0
  0
VERTEX
  5
152
  8
CORTE_LASER$CORTE
 10
2212.584709960569
 20
2603.220120625542
 30
0.0
  0
VERTEX
  5
153
  8
CORTE_LASER$CORTE
 10
2212.55270637515
 20
2603.260596252799
 30
0.0
  0
VERTEX
  5
154
  8
CORTE_LASER$CORTE
 10
2212.519624395282
 20
2603.300285236886
 30
0.0
  0
VERTEX
  5
155
  8
CORTE_LASER$CORTE
 10
2212.485493464451
 20
2603.339144938785
 30
0.0
  0
VERTEX
  5
156
  8
CORTE_LASER$CORTE
 10
2212.450345253209
 20
2603.377134215135
 30
0.0
  0
VERTEX
  5
157
  8
CORTE_LASER$CORTE
 10
2212.414213562373
 20
2603.414213562373
 30
0.0
  0
VERTEX
  5
158
  8
CORTE_LASER$CORTE
 10
2212.377134215135
 20
2603.450345253209
 30
0.0
  0
VERTEX
  5
159
  8
CORTE_LASER$CORTE
 10
2212.339144938785
 20
2603.485493464452
 30
0.0
  0
VERTEX
  5
15A
  8
CORTE_LASER$CORTE
 10
2212.300285236886
 20
2603.519624395283
 30
0.0
  0
VERTEX
  5
15B
  8
CORTE_LASER$CORTE
 10
2212.260596252799
 20
2603.552706375151
 30
0.0
  0
VERTEX
  5
15C
  8
CORTE_LASER$CORTE
 10
2212.220120625541
 20
2603.58470996057
 30
0.0
  0
VERTEX
  5
15D
  8
CORTE_LASER$CORTE
 10
2212.178902339046
 20
2603.615608020218
 30
0.0
  0
VERTEX
  5
15E
  8
CORTE_LASER$CORTE
 10
2212.136986565905
 20
2603.645375807818
 30
0.0
  0
VERTEX
  5
15F
  8
CORTE_LASER$CORTE
 10
2212.09441950677
 20
2603.673991022437
 30
0.0
  0
VERTEX
  5
160
  8
CORTE_LASER$CORTE
 10
2212.051248226555
 20
2603.701433855947
 30
0.0
  0
VERTEX
  5
161
  8
CORTE_LASER$CORTE
 10
2212.007520488638
 20
2603.727687027495
 30
0.0
  0
VERTEX
  5
162
  8
CORTE_LASER$CORTE
 10
2211.963284588236
 20
2603.752735804982
 30
0.0
  0
VERTEX
  5
163
  8
CORTE_LASER$CORTE
 10
2211.918589186112
 20
2603.776568013659
 30
0.0
  0
VERTEX
  5
164
  8
CORTE_LASER$CORTE
 10
2211.873483143747
 20
2603.799174032045
 30
0.0
  0
VERTEX
  5
165
  8
CORTE_LASER$CORTE
 10
2211.828015361069
 20
2603.820546775513
 30
0.0
  0
VERTEX
  5
166
  8
CORTE_LASER$CORTE
 10
2211.78223461776
 20
2603.840681667964
 30
0.0
  0
VERTEX
  5
167
  8
CORTE_LASER$CORTE
 10
2211.736189419124
 20
2603.859576602125
 30
0.0
  0
VERTEX
  5
168
  8
CORTE_LASER$CORTE
 10
2211.689927847416
 20
2603.877231889075
 30
0.0
  0
VERTEX
  5
169
  8
CORTE_LASER$CORTE
 10
2211.64349741943
 20
2603.893650197684
 30
0.0
  0
VERTEX
  5
16A
  8
CORTE_LASER$CORTE
 10
2211.596944951092
 20
2603.908836484712
 30
0.0
  0
VERTEX
  5
16B
  8
CORTE_LASER$CORTE
 10
2211.550316429691
 20
2603.922797916374
 30
0.0
  0
VERTEX
  5
16C
  8
CORTE_LASER$CORTE
 10
2211.503656894297
 20
2603.935543782204
 30
0.0
  0
VERTEX
  5
16D
  8
CORTE_LASER$CORTE
 10
2211.457010324813
 20
2603.947085402086
 30
0.0
  0
VERTEX
  5
16E
  8
CORTE_LASER$CORTE
 10
2211.410419540011
 20
2603.957436027352
 30
0.0
  0
VERTEX
  5
16F
  8
CORTE_LASER$CORTE
 10
2211.363926104824
 20
2603.966610736833
 30
0.0
  0
VERTEX
  5
170
  8
CORTE_LASER$CORTE
 10
2211.31757024705
 20
2603.974626328749
 30
0.0
  0
VERTEX
  5
171
  8
CORTE_LASER$CORTE
 10
2211.271390783554
 20
2603.981501209336
 30
0.0
  0
VERTEX
  5
172
  8
CORTE_LASER$CORTE
 10
2211.225425055968
 20
2603.987255279058
 30
0.0
  0
VERTEX
  5
173
  8
CORTE_LASER$CORTE
 10
2211.179708875795
 20
2603.991909817225
 30
0.0
  0
VERTEX
  5
174
  8
CORTE_LASER$CORTE
 10
2211.134276478779
 20
2603.995487365845
 30
0.0
  0
VERTEX
  5
175
  8
CORTE_LASER$CORTE
 10
2211.089160488297
 20
2603.99801161341
 30
0.0
  0
VERTEX
  5
176
  8
CORTE_LASER$CORTE
 10
2211.044391887523
 20
2603.999507279387
 30
0.0
  0
VERTEX
  5
177
  8
CORTE_LASER$CORTE
 10
2211.0
 20
2604.0
 30
0.0
  0
VERTEX
  5
178
  8
CORTE_LASER$CORTE
 10
2208.0
 20
2604.0
 30
0.0
  0
VERTEX
  5
179
  8
CORTE_LASER$CORTE
 10
2208.0
 20
2614.0
 30
0.0
  0
VERTEX
  5
17A
  8
CORTE_LASER$CORTE
 10
2208.0
 20
2629.0
 30
0.0
  0
SEQEND
  5
17B
  8
CORTE_LASER$CORTE
  0
LINE
  5
17C
  8
CORTE_LASER$CORTE
 10
2199.0
 20
2338.0
 30
0.0
 11
2499.0
 21
2338.0
 31
0.0
  0
LINE
  5
17D
  8
CORTE_LASER$CORTE
 10
2499.0
 20
2338.0
 30
0.0
 11
2499.0
 21
2638.0
 31
0.0
  0
LINE
  5
17E
  8
CORTE_LASER$CORTE
 10
2499.0
 20
2638.0
 30
0.0
 11
2199.0
 21
2638.0
 31
0.0
  0
LINE
  5
17F
  8
CORTE_LASER$CORTE
 10
2199.0
 20
2638.0
 30
0.0
 11
2199.0
 21
2338.0
 31
0.0
  0
ENDSEC
  0
EOF
