  0
SECTION
  2
HEADER
  9
$ACADVER
  1
AC1009
  9
$DWGCODEPAGE
  3
mac-roman
  9
$INSBASE
 10
0.0
 20
0.0
 30
0.0
  9
$EXTMIN
 10
3365.0
 20
1095.0
 30
0.0
  9
$EXTMAX
 10
3581.0
 20
1351.0
 30
0.0
  9
$LIMMIN
 10
0.0
 20
0.0
  9
$LIMMAX
 10
12.0
 20
9.0
  9
$ORTHOMODE
 70
     0
  9
$REGENMODE
 70
     1
  9
$FILLMODE
 70
     1
  9
$QTEXTMODE
 70
     0
  9
$MIRRTEXT
 70
     1
  9
$DRAGMODE
 70
     2
  9
$LTSCALE
 40
1.0
  9
$OSMODE
 70
    37
  9
$ATTMODE
 70
     1
  9
$TEXTSIZE
 40
0.2
  9
$TRACEWID
 40
0.05
  9
$TEXTSTYLE
  7
STANDARD
  9
$CLAYER
  8
DEFAULT
  9
$CELTYPE
  6
BYLAYER
  9
$CECOLOR
 62
   256
  9
$DIMSCALE
 40
1.0
  9
$DIMASZ
 40
0.18
  9
$DIMEXO
 40
0.0625
  9
$DIMDLI
 40
0.38
  9
$DIMRND
 40
0.0
  9
$DIMDLE
 40
0.0
  9
$DIMEXE
 40
0.18
  9
$DIMTP
 40
0.0
  9
$DIMTM
 40
0.0
  9
$DIMTXT
 40
0.18
  9
$DIMCEN
 40
0.09
  9
$DIMTSZ
 40
0.0
  9
$DIMTOL
 70
     0
  9
$DIMLIM
 70
     0
  9
$DIMTIH
 70
     1
  9
$DIMTOH
 70
     1
  9
$DIMSE1
 70
     0
  9
$DIMSE2
 70
     0
  9
$DIMTAD
 70
     0
  9
$DIMZIN
 70
     0
  9
$DIMBLK
  1

  9
$DIMASO
 70
     1
  9
$DIMSHO
 70
     1
  9
$DIMPOST
  1

  9
$DIMAPOST
  1

  9
$DIMALT
 70
     0
  9
$DIMALTD
 70
     2
  9
$DIMALTF
 40
25.4
  9
$DIMLFAC
 40
1.0
  9
$DIMTOFL
 70
     0
  9
$DIMTVP
 40
0.0
  9
$DIMTIX
 70
     0
  9
$DIMSOXD
 70
     0
  9
$DIMSAH
 70
     0
  9
$DIMBLK1
  1

  9
$DIMBLK2
  1

  9
$DIMSTYLE
  2
STANDARD
  9
$DIMCLRD
 70
     0
  9
$DIMCLRE
 70
     0
  9
$DIMCLRT
 70
     0
  9
$DIMTFAC
 40
1.0
  9
$DIMGAP
 40
0.09
  9
$LUNITS
 70
     2
  9
$LUPREC
 70
     2
  9
$SKETCHINC
 40
0.1
  9
$FILLETRAD
 40
0.5
  9
$AUNITS
 70
     0
  9
$AUPREC
 70
     0
  9
$MENU
  1
.
  9
$ELEVATION
 40
0.0
  9
$PELEVATION
 40
0.0
  9
$THICKNESS
 40
0.0
  9
$LIMCHECK
 70
     0
  9
$CHAMFERA
 40
0.0
  9
$CHAMFERB
 40
0.0
  9
$SKPOLY
 70
     0
  9
$TDCREATE
 40
2457819.458136574
  9
$TDUPDATE
 40
2457819.458159722
  9
$TDINDWG
 40
0.0000000116
  9
$TDUSRTIMER
 40
0.0000000116
  9
$USRTIMER
 70
     1
  9
$ANGBASE
 50
0.0
  9
$ANGDIR
 70
     0
  9
$PDMODE
 70
     0
  9
$PDSIZE
 40
0.0
  9
$PLINEWID
 40
0.0
  9
$COORDS
 70
     1
  9
$SPLFRAME
 70
     0
  9
$SPLINETYPE
 70
     6
  9
$SPLINESEGS
 70
     8
  9
$ATTDIA
 70
     0
  9
$ATTREQ
 70
     1
  9
$HANDLING
 70
     1
  9
$HANDSEED
  5
13F
  9
$SURFTAB1
 70
     6
  9
$SURFTAB2
 70
     6
  9
$SURFTYPE
 70
     6
  9
$SURFU
 70
     6
  9
$SURFV
 70
     6
  9
$UCSNAME
  2

  9
$UCSORG
 10
0.0
 20
0.0
 30
0.0
  9
$UCSXDIR
 10
1.0
 20
0.0
 30
0.0
  9
$UCSYDIR
 10
0.0
 20
1.0
 30
0.0
  9
$PUCSNAME
  2

  9
$PUCSORG
 10
0.0
 20
0.0
 30
0.0
  9
$PUCSXDIR
 10
1.0
 20
0.0
 30
0.0
  9
$PUCSYDIR
 10
0.0
 20
1.0
 30
0.0
  9
$USERI1
 70
     0
  9
$USERI2
 70
     0
  9
$USERI3
 70
     0
  9
$USERI4
 70
     0
  9
$USERI5
 70
     0
  9
$USERR1
 40
0.0
  9
$USERR2
 40
0.0
  9
$USERR3
 40
0.0
  9
$USERR4
 40
0.0
  9
$USERR5
 40
0.0
  9
$WORLDVIEW
 70
     1
  9
$SHADEDGE
 70
     3
  9
$SHADEDIF
 70
    70
  9
$TILEMODE
 70
     1
  9
$MAXACTVP
 70
    64
  9
$PLIMCHECK
 70
     0
  9
$PEXTMIN
 10
1.000000000000000E+20
 20
1.000000000000000E+20
 30
1.000000000000000E+20
  9
$PEXTMAX
 10
-1.000000000000000E+20
 20
-1.000000000000000E+20
 30
-1.000000000000000E+20
  9
$PLIMMIN
 10
0.0
 20
0.0
  9
$PLIMMAX
 10
12.0
 20
9.0
  9
$UNITMODE
 70
     0
  9
$VISRETAIN
 70
     1
  9
$PLINEGEN
 70
     0
  9
$PSLTSCALE
 70
     1
  0
ENDSEC
  0
SECTION
  2
TABLES
  0
TABLE
  2
VPORT
 70
     1
  0
VPORT
  2
*ACTIVE
 70
     0
 10
0.0
 20
0.0
 11
1.0
 21
1.0
 12
3473.0
 22
1223.0
 13
0.0
 23
0.0
 14
0.5
 24
0.5
 15
0.5
 25
0.5
 16
0.0
 26
0.0
 36
1.0
 17
0.0
 27
0.0
 37
0.0
 40
261.12
 41
0.84375
 42
50.0
 43
0.0
 44
0.0
 50
0.0
 51
0.0
 71
     0
 72
   100
 73
     1
 74
     3
 75
     0
 76
     0
 77
     0
 78
     0
  0
ENDTAB
  0
TABLE
  2
LTYPE
 70
     1
  0
LTYPE
  2
CONTINUOUS
 70
     0
  3
Solid line
 72
    65
 73
     0
 40
0.0
  0
ENDTAB
  0
TABLE
  2
LAYER
 70
     3
  0
LAYER
  2
0
 70
     0
 62
     7
  6
CONTINUOUS
  0
LAYER
  2
DEFAULT
 70
     0
 62
     7
  6
CONTINUOUS
  0
LAYER
  2
2D$MOD_SUP
 70
     0
 62
     7
  6
CONTINUOUS
  0
ENDTAB
  0
TABLE
  2
STYLE
 70
     1
  0
STYLE
  2
STANDARD
 70
     0
 40
0.0
 41
1.0
 50
0.0
 71
     0
 42
0.2
  3
txt
  4

  0
ENDTAB
  0
TABLE
  2
VIEW
 70
     0
  0
ENDTAB
  0
TABLE
  2
UCS
 70
     0
  0
ENDTAB
  0
TABLE
  2
APPID
 70
     1
  0
APPID
  2
ACAD
 70
     0
  0
ENDTAB
  0
TABLE
  2
DIMSTYLE
 70
     1
  0
DIMSTYLE
  2
STANDARD
 70
     0
  3

  4

  5

  6

  7

 40
1.0
 41
0.18
 42
0.0625
 43
0.38
 44
0.18
 45
0.0
 46
0.0
 47
0.0
 48
0.0
140
0.18
141
0.09
142
0.0
143
25.4
144
1.0
145
0.0
146
1.0
147
0.09
 71
     0
 72
     0
 73
     1
 74
     1
 75
     0
 76
     0
 77
     0
 78
     0
170
     0
171
     2
172
     0
173
     0
174
     0
175
     0
176
     0
177
     0
178
     0
  0
ENDTAB
  0
ENDSEC
  0
SECTION
  2
BLOCKS
  0
BLOCK
  8
0
  2
$MODEL_SPACE
 70
     0
 10
0.0
 20
0.0
 30
0.0
  3
$MODEL_SPACE
  1

  0
ENDBLK
  5
21
  8
0
  0
BLOCK
 67
     1
  8
0
  2
$PAPER_SPACE
 70
     0
 10
0.0
 20
0.0
 30
0.0
  3
$PAPER_SPACE
  1

  0
ENDBLK
  5
1D
 67
     1
  8
0
  0
ENDSEC
  0
SECTION
  2
ENTITIES
  0
POLYLINE
  5
6F
  8
DEFAULT
 66
     1
 10
0.0
 20
0.0
 30
0.0
 70
     1
  0
VERTEX
  5
70
  8
DEFAULT
 10
3365.0
 20
1095.0
 30
0.0
  0
VERTEX
  5
71
  8
DEFAULT
 10
3581.0
 20
1095.0
 30
0.0
  0
VERTEX
  5
72
  8
DEFAULT
 10
3581.0
 20
1351.0
 30
0.0
  0
VERTEX
  5
73
  8
DEFAULT
 10
3365.0
 20
1351.0
 30
0.0
  0
SEQEND
  5
74
  8
DEFAULT
  0
CIRCLE
  5
76
  8
2D$MOD_SUP
 10
3413.939438582675
 20
1329.06066017178
 30
0.0
 40
1.250005439838446
  0
CIRCLE
  5
77
  8
2D$MOD_SUP
 10
3413.939438582675
 20
1216.636673161553
 30
0.0
 40
1.250005439838333
  0
CIRCLE
  5
78
  8
2D$MOD_SUP
 10
3526.060857680692
 20
1329.06066017178
 30
0.0
 40
1.25000543983856
  0
CIRCLE
  5
79
  8
2D$MOD_SUP
 10
3526.060857680692
 20
1216.636673161553
 30
0.0
 40
1.25000543983856
  0
POLYLINE
  5
7A
  8
DEFAULT
 66
     1
 10
0.0
 20
0.0
 30
0.0
 70
     1
  0
VERTEX
  5
7B
  8
DEFAULT
 10
3405.999950622774
 20
1216.5
 30
0.0
  0
VERTEX
  5
7C
  8
DEFAULT
 10
3406.002865510943
 20
1216.32929444907
 30
0.0
  0
VERTEX
  5
7D
  8
DEFAULT
 10
3406.011606776821
 20
1216.158787933177
 30
0.0
  0
VERTEX
  5
7E
  8
DEFAULT
 10
3406.026164228484
 20
1215.98867925529
 30
0.0
  0
VERTEX
  5
7F
  8
DEFAULT
 10
3406.046520892593
 20
1215.819166754519
 30
0.0
  0
VERTEX
  5
80
  8
DEFAULT
 10
3406.072653034188
 20
1215.650448074857
 30
0.0
  0
VERTEX
  5
81
  8
DEFAULT
 10
3406.104530184362
 20
1215.482719934737
 30
0.0
  0
VERTEX
  5
82
  8
DEFAULT
 10
3406.142115175785
 20
1215.316177897668
 30
0.0
  0
VERTEX
  5
83
  8
DEFAULT
 10
3406.185364186035
 20
1215.151016144215
 30
0.0
  0
VERTEX
  5
84
  8
DEFAULT
 10
3406.234226788703
 20
1214.987427245595
 30
0.0
  0
VERTEX
  5
85
  8
DEFAULT
 10
3406.28864601218
 20
1214.825601939145
 30
0.0
  0
VERTEX
  5
86
  8
DEFAULT
 10
3406.348558406085
 20
1214.665728905935
 30
0.0
  0
VERTEX
  5
87
  8
DEFAULT
 10
3406.413894115247
 20
1214.507994550769
 30
0.0
  0
VERTEX
  5
88
  8
DEFAULT
 10
3406.484576961152
 20
1214.35258278485
 30
0.0
  0
VERTEX
  5
89
  8
DEFAULT
 10
3406.560524530762
 20
1214.199674811344
 30
0.0
  0
VERTEX
  5
8A
  8
DEFAULT
 10
3406.64164827261
 20
1214.04944891411
 30
0.0
  0
VERTEX
  5
8B
  8
DEFAULT
 10
3406.727853600042
 20
1213.902080249823
 30
0.0
  0
VERTEX
  5
8C
  8
DEFAULT
 10
3406.819040001501
 20
1213.757740643753
 30
0.0
  0
VERTEX
  5
8D
  8
DEFAULT
 10
3406.915101157722
 20
1213.616598389426
 30
0.0
  0
VERTEX
  5
8E
  8
DEFAULT
 10
3407.015925065695
 20
1213.478818052394
 30
0.0
  0
VERTEX
  5
8F
  8
DEFAULT
 10
3407.121394169252
 20
1213.34456027837
 30
0.0
  0
VERTEX
  5
90
  8
DEFAULT
 10
3407.231385496137
 20
1213.21398160591
 30
0.0
  0
VERTEX
  5
91
  8
DEFAULT
 10
3407.345770801383
 20
1213.087234283907
 30
0.0
  0
VERTEX
  5
92
  8
DEFAULT
 10
3407.464416716841
 20
1212.964466094067
 30
0.0
  0
VERTEX
  5
93
  8
DEFAULT
 10
3407.587184906681
 20
1212.845820178609
 30
0.0
  0
VERTEX
  5
94
  8
DEFAULT
 10
3407.713932228684
 20
1212.731434873363
 30
0.0
  0
VERTEX
  5
95
  8
DEFAULT
 10
3407.844510901144
 20
1212.621443546478
 30
0.0
  0
VERTEX
  5
96
  8
DEFAULT
 10
3407.978768675169
 20
1212.51597444292
 30
0.0
  0
VERTEX
  5
97
  8
DEFAULT
 10
3408.1165490122
 20
1212.415150534948
 30
0.0
  0
VERTEX
  5
98
  8
DEFAULT
 10
3408.257691266528
 20
1212.319089378726
 30
0.0
  0
VERTEX
  5
99
  8
DEFAULT
 10
3408.402030872597
 20
1212.227902977268
 30
0.0
  0
VERTEX
  5
9A
  8
DEFAULT
 10
3408.549399536884
 20
1212.141697649836
 30
0.0
  0
VERTEX
  5
9B
  8
DEFAULT
 10
3408.699625434118
 20
1212.060573907988
 30
0.0
  0
VERTEX
  5
9C
  8
DEFAULT
 10
3408.852533407624
 20
1211.984626338377
 30
0.0
  0
VERTEX
  5
9D
  8
DEFAULT
 10
3409.007945173543
 20
1211.913943492473
 30
0.0
  0
VERTEX
  5
9E
  8
DEFAULT
 10
3409.165679528709
 20
1211.848607783311
 30
0.0
  0
VERTEX
  5
9F
  8
DEFAULT
 10
3409.325552561919
 20
1211.788695389406
 30
0.0
  0
VERTEX
  5
A0
  8
DEFAULT
 10
3409.487377868369
 20
1211.734276165929
 30
0.0
  0
VERTEX
  5
A1
  8
DEFAULT
 10
3409.650966766989
 20
1211.685413563261
 30
0.0
  0
VERTEX
  5
A2
  8
DEFAULT
 10
3409.816128520442
 20
1211.64216455301
 30
0.0
  0
VERTEX
  5
A3
  8
DEFAULT
 10
3409.982670557511
 20
1211.604579561588
 30
0.0
  0
VERTEX
  5
A4
  8
DEFAULT
 10
3410.150398697631
 20
1211.572702411414
 30
0.0
  0
VERTEX
  5
A5
  8
DEFAULT
 10
3410.319117377293
 20
1211.546570269818
 30
0.0
  0
VERTEX
  5
A6
  8
DEFAULT
 10
3410.488629878064
 20
1211.526213605709
 30
0.0
  0
VERTEX
  5
A7
  8
DEFAULT
 10
3410.658738555951
 20
1211.511656154047
 30
0.0
  0
VERTEX
  5
A8
  8
DEFAULT
 10
3410.829245071844
 20
1211.502914888169
 30
0.0
  0
VERTEX
  5
A9
  8
DEFAULT
 10
3410.999950622774
 20
1211.5
 30
0.0
  0
VERTEX
  5
AA
  8
DEFAULT
 10
3529.000049377228
 20
1211.5
 30
0.0
  0
VERTEX
  5
AB
  8
DEFAULT
 10
3529.170754928158
 20
1211.502914888169
 30
0.0
  0
VERTEX
  5
AC
  8
DEFAULT
 10
3529.341261444051
 20
1211.511656154047
 30
0.0
  0
VERTEX
  5
AD
  8
DEFAULT
 10
3529.511370121938
 20
1211.526213605709
 30
0.0
  0
VERTEX
  5
AE
  8
DEFAULT
 10
3529.680882622709
 20
1211.546570269818
 30
0.0
  0
VERTEX
  5
AF
  8
DEFAULT
 10
3529.849601302371
 20
1211.572702411414
 30
0.0
  0
VERTEX
  5
B0
  8
DEFAULT
 10
3530.017329442491
 20
1211.604579561588
 30
0.0
  0
VERTEX
  5
B1
  8
DEFAULT
 10
3530.18387147956
 20
1211.64216455301
 30
0.0
  0
VERTEX
  5
B2
  8
DEFAULT
 10
3530.349033233013
 20
1211.685413563261
 30
0.0
  0
VERTEX
  5
B3
  8
DEFAULT
 10
3530.512622131634
 20
1211.734276165929
 30
0.0
  0
VERTEX
  5
B4
  8
DEFAULT
 10
3530.674447438083
 20
1211.788695389406
 30
0.0
  0
VERTEX
  5
B5
  8
DEFAULT
 10
3530.834320471293
 20
1211.848607783311
 30
0.0
  0
VERTEX
  5
B6
  8
DEFAULT
 10
3530.992054826459
 20
1211.913943492473
 30
0.0
  0
VERTEX
  5
B7
  8
DEFAULT
 10
3531.147466592378
 20
1211.984626338377
 30
0.0
  0
VERTEX
  5
B8
  8
DEFAULT
 10
3531.300374565884
 20
1212.060573907988
 30
0.0
  0
VERTEX
  5
B9
  8
DEFAULT
 10
3531.450600463118
 20
1212.141697649836
 30
0.0
  0
VERTEX
  5
BA
  8
DEFAULT
 10
3531.597969127405
 20
1212.227902977268
 30
0.0
  0
VERTEX
  5
BB
  8
DEFAULT
 10
3531.742308733475
 20
1212.319089378726
 30
0.0
  0
VERTEX
  5
BC
  8
DEFAULT
 10
3531.883450987802
 20
1212.415150534948
 30
0.0
  0
VERTEX
  5
BD
  8
DEFAULT
 10
3532.021231324833
 20
1212.51597444292
 30
0.0
  0
VERTEX
  5
BE
  8
DEFAULT
 10
3532.155489098858
 20
1212.621443546478
 30
0.0
  0
VERTEX
  5
BF
  8
DEFAULT
 10
3532.286067771318
 20
1212.731434873363
 30
0.0
  0
VERTEX
  5
C0
  8
DEFAULT
 10
3532.412815093322
 20
1212.845820178609
 30
0.0
  0
VERTEX
  5
C1
  8
DEFAULT
 10
3532.535583283161
 20
1212.964466094067
 30
0.0
  0
VERTEX
  5
C2
  8
DEFAULT
 10
3532.654229198619
 20
1213.087234283907
 30
0.0
  0
VERTEX
  5
C3
  8
DEFAULT
 10
3532.768614503865
 20
1213.21398160591
 30
0.0
  0
VERTEX
  5
C4
  8
DEFAULT
 10
3532.87860583075
 20
1213.34456027837
 30
0.0
  0
VERTEX
  5
C5
  8
DEFAULT
 10
3532.984074934308
 20
1213.478818052394
 30
0.0
  0
VERTEX
  5
C6
  8
DEFAULT
 10
3533.08489884228
 20
1213.616598389426
 30
0.0
  0
VERTEX
  5
C7
  8
DEFAULT
 10
3533.180959998502
 20
1213.757740643753
 30
0.0
  0
VERTEX
  5
C8
  8
DEFAULT
 10
3533.272146399961
 20
1213.902080249823
 30
0.0
  0
VERTEX
  5
C9
  8
DEFAULT
 10
3533.358351727392
 20
1214.04944891411
 30
0.0
  0
VERTEX
  5
CA
  8
DEFAULT
 10
3533.43947546924
 20
1214.199674811344
 30
0.0
  0
VERTEX
  5
CB
  8
DEFAULT
 10
3533.515423038851
 20
1214.35258278485
 30
0.0
  0
VERTEX
  5
CC
  8
DEFAULT
 10
3533.586105884755
 20
1214.507994550769
 30
0.0
  0
VERTEX
  5
CD
  8
DEFAULT
 10
3533.651441593917
 20
1214.665728905935
 30
0.0
  0
VERTEX
  5
CE
  8
DEFAULT
 10
3533.711353987822
 20
1214.825601939145
 30
0.0
  0
VERTEX
  5
CF
  8
DEFAULT
 10
3533.765773211299
 20
1214.987427245595
 30
0.0
  0
VERTEX
  5
D0
  8
DEFAULT
 10
3533.814635813967
 20
1215.151016144215
 30
0.0
  0
VERTEX
  5
D1
  8
DEFAULT
 10
3533.857884824218
 20
1215.316177897668
 30
0.0
  0
VERTEX
  5
D2
  8
DEFAULT
 10
3533.89546981564
 20
1215.482719934737
 30
0.0
  0
VERTEX
  5
D3
  8
DEFAULT
 10
3533.927346965814
 20
1215.650448074857
 30
0.0
  0
VERTEX
  5
D4
  8
DEFAULT
 10
3533.95347910741
 20
1215.819166754519
 30
0.0
  0
VERTEX
  5
D5
  8
DEFAULT
 10
3533.973835771519
 20
1215.98867925529
 30
0.0
  0
VERTEX
  5
D6
  8
DEFAULT
 10
3533.988393223181
 20
1216.158787933177
 30
0.0
  0
VERTEX
  5
D7
  8
DEFAULT
 10
3533.997134489059
 20
1216.32929444907
 30
0.0
  0
VERTEX
  5
D8
  8
DEFAULT
 10
3534.000049377228
 20
1216.5
 30
0.0
  0
VERTEX
  5
D9
  8
DEFAULT
 10
3534.000049377228
 20
1329.5
 30
0.0
  0
VERTEX
  5
DA
  8
DEFAULT
 10
3533.997134489059
 20
1329.67070555093
 30
0.0
  0
VERTEX
  5
DB
  8
DEFAULT
 10
3533.988393223181
 20
1329.841212066823
 30
0.0
  0
VERTEX
  5
DC
  8
DEFAULT
 10
3533.973835771519
 20
1330.01132074471
 30
0.0
  0
VERTEX
  5
DD
  8
DEFAULT
 10
3533.95347910741
 20
1330.180833245481
 30
0.0
  0
VERTEX
  5
DE
  8
DEFAULT
 10
3533.927346965814
 20
1330.349551925143
 30
0.0
  0
VERTEX
  5
DF
  8
DEFAULT
 10
3533.89546981564
 20
1330.517280065263
 30
0.0
  0
VERTEX
  5
E0
  8
DEFAULT
 10
3533.857884824218
 20
1330.683822102332
 30
0.0
  0
VERTEX
  5
E1
  8
DEFAULT
 10
3533.814635813967
 20
1330.848983855785
 30
0.0
  0
VERTEX
  5
E2
  8
DEFAULT
 10
3533.765773211299
 20
1331.012572754405
 30
0.0
  0
VERTEX
  5
E3
  8
DEFAULT
 10
3533.711353987822
 20
1331.174398060855
 30
0.0
  0
VERTEX
  5
E4
  8
DEFAULT
 10
3533.651441593917
 20
1331.334271094065
 30
0.0
  0
VERTEX
  5
E5
  8
DEFAULT
 10
3533.586105884755
 20
1331.492005449231
 30
0.0
  0
VERTEX
  5
E6
  8
DEFAULT
 10
3533.515423038851
 20
1331.64741721515
 30
0.0
  0
VERTEX
  5
E7
  8
DEFAULT
 10
3533.43947546924
 20
1331.800325188656
 30
0.0
  0
VERTEX
  5
E8
  8
DEFAULT
 10
3533.358351727392
 20
1331.95055108589
 30
0.0
  0
VERTEX
  5
E9
  8
DEFAULT
 10
3533.272146399961
 20
1332.097919750177
 30
0.0
  0
VERTEX
  5
EA
  8
DEFAULT
 10
3533.180959998502
 20
1332.242259356247
 30
0.0
  0
VERTEX
  5
EB
  8
DEFAULT
 10
3533.08489884228
 20
1332.383401610574
 30
0.0
  0
VERTEX
  5
EC
  8
DEFAULT
 10
3532.984074934308
 20
1332.521181947606
 30
0.0
  0
VERTEX
  5
ED
  8
DEFAULT
 10
3532.87860583075
 20
1332.65543972163
 30
0.0
  0
VERTEX
  5
EE
  8
DEFAULT
 10
3532.768614503865
 20
1332.78601839409
 30
0.0
  0
VERTEX
  5
EF
  8
DEFAULT
 10
3532.654229198619
 20
1332.912765716093
 30
0.0
  0
VERTEX
  5
F0
  8
DEFAULT
 10
3532.535583283161
 20
1333.035533905933
 30
0.0
  0
VERTEX
  5
F1
  8
DEFAULT
 10
3532.412815093322
 20
1333.154179821391
 30
0.0
  0
VERTEX
  5
F2
  8
DEFAULT
 10
3532.286067771318
 20
1333.268565126637
 30
0.0
  0
VERTEX
  5
F3
  8
DEFAULT
 10
3532.155489098859
 20
1333.378556453522
 30
0.0
  0
VERTEX
  5
F4
  8
DEFAULT
 10
3532.021231324833
 20
1333.48402555708
 30
0.0
  0
VERTEX
  5
F5
  8
DEFAULT
 10
3531.883450987802
 20
1333.584849465052
 30
0.0
  0
VERTEX
  5
F6
  8
DEFAULT
 10
3531.742308733475
 20
1333.680910621274
 30
0.0
  0
VERTEX
  5
F7
  8
DEFAULT
 10
3531.597969127405
 20
1333.772097022732
 30
0.0
  0
VERTEX
  5
F8
  8
DEFAULT
 10
3531.450600463118
 20
1333.858302350164
 30
0.0
  0
VERTEX
  5
F9
  8
DEFAULT
 10
3531.300374565884
 20
1333.939426092012
 30
0.0
  0
VERTEX
  5
FA
  8
DEFAULT
 10
3531.147466592378
 20
1334.015373661623
 30
0.0
  0
VERTEX
  5
FB
  8
DEFAULT
 10
3530.992054826459
 20
1334.086056507527
 30
0.0
  0
VERTEX
  5
FC
  8
DEFAULT
 10
3530.834320471293
 20
1334.151392216689
 30
0.0
  0
VERTEX
  5
FD
  8
DEFAULT
 10
3530.674447438083
 20
1334.211304610594
 30
0.0
  0
VERTEX
  5
FE
  8
DEFAULT
 10
3530.512622131634
 20
1334.265723834071
 30
0.0
  0
VERTEX
  5
FF
  8
DEFAULT
 10
3530.349033233013
 20
1334.314586436739
 30
0.0
  0
VERTEX
  5
100
  8
DEFAULT
 10
3530.18387147956
 20
1334.35783544699
 30
0.0
  0
VERTEX
  5
101
  8
DEFAULT
 10
3530.017329442491
 20
1334.395420438412
 30
0.0
  0
VERTEX
  5
102
  8
DEFAULT
 10
3529.849601302371
 20
1334.427297588586
 30
0.0
  0
VERTEX
  5
103
  8
DEFAULT
 10
3529.680882622709
 20
1334.453429730182
 30
0.0
  0
VERTEX
  5
104
  8
DEFAULT
 10
3529.511370121938
 20
1334.473786394291
 30
0.0
  0
VERTEX
  5
105
  8
DEFAULT
 10
3529.341261444052
 20
1334.488343845953
 30
0.0
  0
VERTEX
  5
106
  8
DEFAULT
 10
3529.170754928158
 20
1334.497085111831
 30
0.0
  0
VERTEX
  5
107
  8
DEFAULT
 10
3529.000049377228
 20
1334.5
 30
0.0
  0
VERTEX
  5
108
  8
DEFAULT
 10
3410.999950622774
 20
1334.5
 30
0.0
  0
VERTEX
  5
109
  8
DEFAULT
 10
3410.829245071844
 20
1334.497085111831
 30
0.0
  0
VERTEX
  5
10A
  8
DEFAULT
 10
3410.658738555951
 20
1334.488343845953
 30
0.0
  0
VERTEX
  5
10B
  8
DEFAULT
 10
3410.488629878064
 20
1334.473786394291
 30
0.0
  0
VERTEX
  5
10C
  8
DEFAULT
 10
3410.319117377293
 20
1334.453429730182
 30
0.0
  0
VERTEX
  5
10D
  8
DEFAULT
 10
3410.150398697631
 20
1334.427297588586
 30
0.0
  0
VERTEX
  5
10E
  8
DEFAULT
 10
3409.982670557511
 20
1334.395420438412
 30
0.0
  0
VERTEX
  5
10F
  8
DEFAULT
 10
3409.816128520442
 20
1334.35783544699
 30
0.0
  0
VERTEX
  5
110
  8
DEFAULT
 10
3409.650966766989
 20
1334.314586436739
 30
0.0
  0
VERTEX
  5
111
  8
DEFAULT
 10
3409.487377868369
 20
1334.265723834071
 30
0.0
  0
VERTEX
  5
112
  8
DEFAULT
 10
3409.325552561919
 20
1334.211304610594
 30
0.0
  0
VERTEX
  5
113
  8
DEFAULT
 10
3409.165679528709
 20
1334.151392216689
 30
0.0
  0
VERTEX
  5
114
  8
DEFAULT
 10
3409.007945173543
 20
1334.086056507527
 30
0.0
  0
VERTEX
  5
115
  8
DEFAULT
 10
3408.852533407624
 20
1334.015373661623
 30
0.0
  0
VERTEX
  5
116
  8
DEFAULT
 10
3408.699625434118
 20
1333.939426092012
 30
0.0
  0
VERTEX
  5
117
  8
DEFAULT
 10
3408.549399536884
 20
1333.858302350164
 30
0.0
  0
VERTEX
  5
118
  8
DEFAULT
 10
3408.402030872597
 20
1333.772097022732
 30
0.0
  0
VERTEX
  5
119
  8
DEFAULT
 10
3408.257691266528
 20
1333.680910621274
 30
0.0
  0
VERTEX
  5
11A
  8
DEFAULT
 10
3408.1165490122
 20
1333.584849465052
 30
0.0
  0
VERTEX
  5
11B
  8
DEFAULT
 10
3407.978768675169
 20
1333.48402555708
 30
0.0
  0
VERTEX
  5
11C
  8
DEFAULT
 10
3407.844510901144
 20
1333.378556453522
 30
0.0
  0
VERTEX
  5
11D
  8
DEFAULT
 10
3407.713932228684
 20
1333.268565126637
 30
0.0
  0
VERTEX
  5
11E
  8
DEFAULT
 10
3407.587184906681
 20
1333.154179821391
 30
0.0
  0
VERTEX
  5
11F
  8
DEFAULT
 10
3407.464416716841
 20
1333.035533905933
 30
0.0
  0
VERTEX
  5
120
  8
DEFAULT
 10
3407.345770801383
 20
1332.912765716093
 30
0.0
  0
VERTEX
  5
121
  8
DEFAULT
 10
3407.231385496137
 20
1332.78601839409
 30
0.0
  0
VERTEX
  5
122
  8
DEFAULT
 10
3407.121394169252
 20
1332.65543972163
 30
0.0
  0
VERTEX
  5
123
  8
DEFAULT
 10
3407.015925065695
 20
1332.521181947606
 30
0.0
  0
VERTEX
  5
124
  8
DEFAULT
 10
3406.915101157722
 20
1332.383401610574
 30
0.0
  0
VERTEX
  5
125
  8
DEFAULT
 10
3406.819040001501
 20
1332.242259356247
 30
0.0
  0
VERTEX
  5
126
  8
DEFAULT
 10
3406.727853600042
 20
1332.097919750177
 30
0.0
  0
VERTEX
  5
127
  8
DEFAULT
 10
3406.64164827261
 20
1331.95055108589
 30
0.0
  0
VERTEX
  5
128
  8
DEFAULT
 10
3406.560524530762
 20
1331.800325188656
 30
0.0
  0
VERTEX
  5
129
  8
DEFAULT
 10
3406.484576961152
 20
1331.64741721515
 30
0.0
  0
VERTEX
  5
12A
  8
DEFAULT
 10
3406.413894115247
 20
1331.492005449231
 30
0.0
  0
VERTEX
  5
12B
  8
DEFAULT
 10
3406.348558406085
 20
1331.334271094065
 30
0.0
  0
VERTEX
  5
12C
  8
DEFAULT
 10
3406.28864601218
 20
1331.174398060855
 30
0.0
  0
VERTEX
  5
12D
  8
DEFAULT
 10
3406.234226788703
 20
1331.012572754405
 30
0.0
  0
VERTEX
  5
12E
  8
DEFAULT
 10
3406.185364186035
 20
1330.848983855785
 30
0.0
  0
VERTEX
  5
12F
  8
DEFAULT
 10
3406.142115175785
 20
1330.683822102332
 30
0.0
  0
VERTEX
  5
130
  8
DEFAULT
 10
3406.104530184362
 20
1330.517280065263
 30
0.0
  0
VERTEX
  5
131
  8
DEFAULT
 10
3406.072653034188
 20
1330.349551925143
 30
0.0
  0
VERTEX
  5
132
  8
DEFAULT
 10
3406.046520892593
 20
1330.180833245481
 30
0.0
  0
VERTEX
  5
133
  8
DEFAULT
 10
3406.026164228484
 20
1330.01132074471
 30
0.0
  0
VERTEX
  5
134
  8
DEFAULT
 10
3406.011606776821
 20
1329.841212066823
 30
0.0
  0
VERTEX
  5
135
  8
DEFAULT
 10
3406.002865510943
 20
1329.67070555093
 30
0.0
  0
VERTEX
  5
136
  8
DEFAULT
 10
3405.999950622774
 20
1329.5
 30
0.0
  0
SEQEND
  5
137
  8
DEFAULT
  0
ENDSEC
  0
EOF
