  0
SECTION
  2
HEADER
  9
$ACADVER
  1
AC1009
  9
$DWGCODEPAGE
  3
mac-roman
  9
$INSBASE
 10
0.0
 20
0.0
 30
0.0
  9
$EXTMIN
 10
3362.0
 20
1423.0
 30
0.0
  9
$EXTMAX
 10
3682.0
 20
1743.0
 30
2.0
  9
$LIMMIN
 10
0.0
 20
0.0
  9
$LIMMAX
 10
12.0
 20
9.0
  9
$ORTHOMODE
 70
     0
  9
$REGENMODE
 70
     1
  9
$FILLMODE
 70
     1
  9
$QTEXTMODE
 70
     0
  9
$MIRRTEXT
 70
     1
  9
$DRAGMODE
 70
     2
  9
$LTSCALE
 40
1.0
  9
$OSMODE
 70
    37
  9
$ATTMODE
 70
     1
  9
$TEXTSIZE
 40
0.2
  9
$TRACEWID
 40
0.05
  9
$TEXTSTYLE
  7
STANDARD
  9
$CLAYER
  8
0
  9
$CELTYPE
  6
BYLAYER
  9
$CECOLOR
 62
   256
  9
$DIMSCALE
 40
1.0
  9
$DIMASZ
 40
0.18
  9
$DIMEXO
 40
0.0625
  9
$DIMDLI
 40
0.38
  9
$DIMRND
 40
0.0
  9
$DIMDLE
 40
0.0
  9
$DIMEXE
 40
0.18
  9
$DIMTP
 40
0.0
  9
$DIMTM
 40
0.0
  9
$DIMTXT
 40
0.18
  9
$DIMCEN
 40
0.09
  9
$DIMTSZ
 40
0.0
  9
$DIMTOL
 70
     0
  9
$DIMLIM
 70
     0
  9
$DIMTIH
 70
     1
  9
$DIMTOH
 70
     1
  9
$DIMSE1
 70
     0
  9
$DIMSE2
 70
     0
  9
$DIMTAD
 70
     0
  9
$DIMZIN
 70
     0
  9
$DIMBLK
  1

  9
$DIMASO
 70
     1
  9
$DIMSHO
 70
     1
  9
$DIMPOST
  1

  9
$DIMAPOST
  1

  9
$DIMALT
 70
     0
  9
$DIMALTD
 70
     2
  9
$DIMALTF
 40
25.4
  9
$DIMLFAC
 40
1.0
  9
$DIMTOFL
 70
     0
  9
$DIMTVP
 40
0.0
  9
$DIMTIX
 70
     0
  9
$DIMSOXD
 70
     0
  9
$DIMSAH
 70
     0
  9
$DIMBLK1
  1

  9
$DIMBLK2
  1

  9
$DIMSTYLE
  2
STANDARD
  9
$DIMCLRD
 70
     0
  9
$DIMCLRE
 70
     0
  9
$DIMCLRT
 70
     0
  9
$DIMTFAC
 40
1.0
  9
$DIMGAP
 40
0.09
  9
$LUNITS
 70
     2
  9
$LUPREC
 70
     2
  9
$SKETCHINC
 40
0.1
  9
$FILLETRAD
 40
0.5
  9
$AUNITS
 70
     0
  9
$AUPREC
 70
     0
  9
$MENU
  1
.
  9
$ELEVATION
 40
0.0
  9
$PELEVATION
 40
0.0
  9
$THICKNESS
 40
0.0
  9
$LIMCHECK
 70
     0
  9
$CHAMFERA
 40
0.0
  9
$CHAMFERB
 40
0.0
  9
$SKPOLY
 70
     0
  9
$TDCREATE
 40
2457819.457673611
  9
$TDUPDATE
 40
2457819.457696759
  9
$TDINDWG
 40
0.0000000116
  9
$TDUSRTIMER
 40
0.0000000116
  9
$USRTIMER
 70
     1
  9
$ANGBASE
 50
0.0
  9
$ANGDIR
 70
     0
  9
$PDMODE
 70
     0
  9
$PDSIZE
 40
0.0
  9
$PLINEWID
 40
0.0
  9
$COORDS
 70
     1
  9
$SPLFRAME
 70
     0
  9
$SPLINETYPE
 70
     6
  9
$SPLINESEGS
 70
     8
  9
$ATTDIA
 70
     0
  9
$ATTREQ
 70
     1
  9
$HANDLING
 70
     1
  9
$HANDSEED
  5
13A
  9
$SURFTAB1
 70
     6
  9
$SURFTAB2
 70
     6
  9
$SURFTYPE
 70
     6
  9
$SURFU
 70
     6
  9
$SURFV
 70
     6
  9
$UCSNAME
  2

  9
$UCSORG
 10
0.0
 20
0.0
 30
0.0
  9
$UCSXDIR
 10
1.0
 20
0.0
 30
0.0
  9
$UCSYDIR
 10
0.0
 20
1.0
 30
0.0
  9
$PUCSNAME
  2

  9
$PUCSORG
 10
0.0
 20
0.0
 30
0.0
  9
$PUCSXDIR
 10
1.0
 20
0.0
 30
0.0
  9
$PUCSYDIR
 10
0.0
 20
1.0
 30
0.0
  9
$USERI1
 70
     0
  9
$USERI2
 70
     0
  9
$USERI3
 70
     0
  9
$USERI4
 70
     0
  9
$USERI5
 70
     0
  9
$USERR1
 40
0.0
  9
$USERR2
 40
0.0
  9
$USERR3
 40
0.0
  9
$USERR4
 40
0.0
  9
$USERR5
 40
0.0
  9
$WORLDVIEW
 70
     1
  9
$SHADEDGE
 70
     3
  9
$SHADEDIF
 70
    70
  9
$TILEMODE
 70
     1
  9
$MAXACTVP
 70
    64
  9
$PLIMCHECK
 70
     0
  9
$PEXTMIN
 10
1.000000000000000E+20
 20
1.000000000000000E+20
 30
1.000000000000000E+20
  9
$PEXTMAX
 10
-1.000000000000000E+20
 20
-1.000000000000000E+20
 30
-1.000000000000000E+20
  9
$PLIMMIN
 10
0.0
 20
0.0
  9
$PLIMMAX
 10
12.0
 20
9.0
  9
$UNITMODE
 70
     0
  9
$VISRETAIN
 70
     1
  9
$PLINEGEN
 70
     0
  9
$PSLTSCALE
 70
     1
  0
ENDSEC
  0
SECTION
  2
TABLES
  0
TABLE
  2
VPORT
 70
     1
  0
VPORT
  2
*ACTIVE
 70
     0
 10
0.0
 20
0.0
 11
1.0
 21
1.0
 12
3522.0
 22
1583.0
 13
0.0
 23
0.0
 14
0.5
 24
0.5
 15
0.5
 25
0.5
 16
0.0
 26
0.0
 36
1.0
 17
0.0
 27
0.0
 37
0.0
 40
326.4
 41
1.0
 42
50.0
 43
0.0
 44
0.0
 50
0.0
 51
0.0
 71
     0
 72
   100
 73
     1
 74
     3
 75
     0
 76
     0
 77
     0
 78
     0
  0
ENDTAB
  0
TABLE
  2
LTYPE
 70
     1
  0
LTYPE
  2
CONTINUOUS
 70
     0
  3
Solid line
 72
    65
 73
     0
 40
0.0
  0
ENDTAB
  0
TABLE
  2
LAYER
 70
     2
  0
LAYER
  2
0
 70
     0
 62
     7
  6
CONTINUOUS
  0
LAYER
  2
CORTE_LASER
 70
     0
 62
     7
  6
CONTINUOUS
  0
ENDTAB
  0
TABLE
  2
STYLE
 70
     1
  0
STYLE
  2
STANDARD
 70
     0
 40
0.0
 41
1.0
 50
0.0
 71
     0
 42
0.2
  3
txt
  4

  0
ENDTAB
  0
TABLE
  2
VIEW
 70
     0
  0
ENDTAB
  0
TABLE
  2
UCS
 70
     0
  0
ENDTAB
  0
TABLE
  2
APPID
 70
     1
  0
APPID
  2
ACAD
 70
     0
  0
ENDTAB
  0
TABLE
  2
DIMSTYLE
 70
     1
  0
DIMSTYLE
  2
STANDARD
 70
     0
  3

  4

  5

  6

  7

 40
1.0
 41
0.18
 42
0.0625
 43
0.38
 44
0.18
 45
0.0
 46
0.0
 47
0.0
 48
0.0
140
0.18
141
0.09
142
0.0
143
25.4
144
1.0
145
0.0
146
1.0
147
0.09
 71
     0
 72
     0
 73
     1
 74
     1
 75
     0
 76
     0
 77
     0
 78
     0
170
     0
171
     2
172
     0
173
     0
174
     0
175
     0
176
     0
177
     0
178
     0
  0
ENDTAB
  0
ENDSEC
  0
SECTION
  2
BLOCKS
  0
BLOCK
  8
0
  2
$MODEL_SPACE
 70
     0
 10
0.0
 20
0.0
 30
0.0
  3
$MODEL_SPACE
  1

  0
ENDBLK
  5
21
  8
0
  0
BLOCK
 67
     1
  8
0
  2
$PAPER_SPACE
 70
     0
 10
0.0
 20
0.0
 30
0.0
  3
$PAPER_SPACE
  1

  0
ENDBLK
  5
1D
 67
     1
  8
0
  0
ENDSEC
  0
SECTION
  2
ENTITIES
  0
POLYLINE
  5
6F
  8
CORTE_LASER
 66
     1
 10
0.0
 20
0.0
 30
2.0
 70
     1
  0
VERTEX
  5
70
  8
CORTE_LASER
 10
3371.0
 20
1706.9
 30
2.0
  0
VERTEX
  5
71
  8
CORTE_LASER
 10
3371.001748932902
 20
1706.797576669442
 30
2.0
  0
VERTEX
  5
72
  8
CORTE_LASER
 10
3371.006993692428
 20
1706.695272759906
 30
2.0
  0
VERTEX
  5
73
  8
CORTE_LASER
 10
3371.015728163426
 20
1706.593207553174
 30
2.0
  0
VERTEX
  5
74
  8
CORTE_LASER
 10
3371.027942161891
 20
1706.491500052711
 30
2.0
  0
VERTEX
  5
75
  8
CORTE_LASER
 10
3371.043621446848
 20
1706.390268844914
 30
2.0
  0
VERTEX
  5
76
  8
CORTE_LASER
 10
3371.062747736953
 20
1706.289631960842
 30
2.0
  0
VERTEX
  5
77
  8
CORTE_LASER
 10
3371.085298731806
 20
1706.189706738601
 30
2.0
  0
VERTEX
  5
78
  8
CORTE_LASER
 10
3371.111248137956
 20
1706.090609686529
 30
2.0
  0
VERTEX
  5
79
  8
CORTE_LASER
 10
3371.140565699558
 20
1705.992456347357
 30
2.0
  0
VERTEX
  5
7A
  8
CORTE_LASER
 10
3371.173217233644
 20
1705.895361163487
 30
2.0
  0
VERTEX
  5
7B
  8
CORTE_LASER
 10
3371.209164669986
 20
1705.799437343561
 30
2.0
  0
VERTEX
  5
7C
  8
CORTE_LASER
 10
3371.248366095484
 20
1705.704796730461
 30
2.0
  0
VERTEX
  5
7D
  8
CORTE_LASER
 10
3371.290775803026
 20
1705.61154967091
 30
2.0
  0
VERTEX
  5
7E
  8
CORTE_LASER
 10
3371.336344344793
 20
1705.519804886807
 30
2.0
  0
VERTEX
  5
7F
  8
CORTE_LASER
 10
3371.385018589902
 20
1705.429669348466
 30
2.0
  0
VERTEX
  5
80
  8
CORTE_LASER
 10
3371.43674178636
 20
1705.341248149894
 30
2.0
  0
VERTEX
  5
81
  8
CORTE_LASER
 10
3371.491453627236
 20
1705.254644386252
 30
2.0
  0
VERTEX
  5
82
  8
CORTE_LASER
 10
3371.549090320969
 20
1705.169959033655
 30
2.0
  0
VERTEX
  5
83
  8
CORTE_LASER
 10
3371.609584665752
 20
1705.087290831437
 30
2.0
  0
VERTEX
  5
84
  8
CORTE_LASER
 10
3371.672866127887
 20
1705.006736167022
 30
2.0
  0
VERTEX
  5
85
  8
CORTE_LASER
 10
3371.738860924018
 20
1704.928388963546
 30
2.0
  0
VERTEX
  5
86
  8
CORTE_LASER
 10
3371.807492107166
 20
1704.852340570344
 30
2.0
  0
VERTEX
  5
87
  8
CORTE_LASER
 10
3371.87867965644
 20
1704.778679656441
 30
2.0
  0
VERTEX
  5
88
  8
CORTE_LASER
 10
3371.952340570344
 20
1704.707492107166
 30
2.0
  0
VERTEX
  5
89
  8
CORTE_LASER
 10
3372.028388963546
 20
1704.638860924018
 30
2.0
  0
VERTEX
  5
8A
  8
CORTE_LASER
 10
3372.106736167022
 20
1704.572866127887
 30
2.0
  0
VERTEX
  5
8B
  8
CORTE_LASER
 10
3372.187290831437
 20
1704.509584665752
 30
2.0
  0
VERTEX
  5
8C
  8
CORTE_LASER
 10
3372.269959033656
 20
1704.449090320969
 30
2.0
  0
VERTEX
  5
8D
  8
CORTE_LASER
 10
3372.354644386252
 20
1704.391453627236
 30
2.0
  0
VERTEX
  5
8E
  8
CORTE_LASER
 10
3372.441248149894
 20
1704.336741786361
 30
2.0
  0
VERTEX
  5
8F
  8
CORTE_LASER
 10
3372.529669348466
 20
1704.285018589902
 30
2.0
  0
VERTEX
  5
90
  8
CORTE_LASER
 10
3372.619804886806
 20
1704.236344344793
 30
2.0
  0
VERTEX
  5
91
  8
CORTE_LASER
 10
3372.71154967091
 20
1704.190775803027
 30
2.0
  0
VERTEX
  5
92
  8
CORTE_LASER
 10
3372.804796730461
 20
1704.148366095484
 30
2.0
  0
VERTEX
  5
93
  8
CORTE_LASER
 10
3372.899437343561
 20
1704.109164669987
 30
2.0
  0
VERTEX
  5
94
  8
CORTE_LASER
 10
3372.995361163487
 20
1704.073217233644
 30
2.0
  0
VERTEX
  5
95
  8
CORTE_LASER
 10
3373.092456347357
 20
1704.040565699558
 30
2.0
  0
VERTEX
  5
96
  8
CORTE_LASER
 10
3373.190609686529
 20
1704.011248137957
 30
2.0
  0
VERTEX
  5
97
  8
CORTE_LASER
 10
3373.289706738601
 20
1703.985298731806
 30
2.0
  0
VERTEX
  5
98
  8
CORTE_LASER
 10
3373.389631960842
 20
1703.962747736953
 30
2.0
  0
VERTEX
  5
99
  8
CORTE_LASER
 10
3373.490268844914
 20
1703.943621446849
 30
2.0
  0
VERTEX
  5
9A
  8
CORTE_LASER
 10
3373.591500052711
 20
1703.927942161891
 30
2.0
  0
VERTEX
  5
9B
  8
CORTE_LASER
 10
3373.693207553174
 20
1703.915728163426
 30
2.0
  0
VERTEX
  5
9C
  8
CORTE_LASER
 10
3373.795272759906
 20
1703.906993692428
 30
2.0
  0
VERTEX
  5
9D
  8
CORTE_LASER
 10
3373.897576669442
 20
1703.901748932902
 30
2.0
  0
VERTEX
  5
9E
  8
CORTE_LASER
 10
3374.0
 20
1703.9
 30
2.0
  0
VERTEX
  5
9F
  8
CORTE_LASER
 10
3412.0
 20
1703.9
 30
2.0
  0
VERTEX
  5
A0
  8
CORTE_LASER
 10
3412.102423330558
 20
1703.901748932902
 30
2.0
  0
VERTEX
  5
A1
  8
CORTE_LASER
 10
3412.204727240095
 20
1703.906993692429
 30
2.0
  0
VERTEX
  5
A2
  8
CORTE_LASER
 10
3412.306792446826
 20
1703.915728163426
 30
2.0
  0
VERTEX
  5
A3
  8
CORTE_LASER
 10
3412.408499947289
 20
1703.927942161891
 30
2.0
  0
VERTEX
  5
A4
  8
CORTE_LASER
 10
3412.509731155086
 20
1703.943621446849
 30
2.0
  0
VERTEX
  5
A5
  8
CORTE_LASER
 10
3412.610368039158
 20
1703.962747736953
 30
2.0
  0
VERTEX
  5
A6
  8
CORTE_LASER
 10
3412.7102932614
 20
1703.985298731806
 30
2.0
  0
VERTEX
  5
A7
  8
CORTE_LASER
 10
3412.809390313471
 20
1704.011248137957
 30
2.0
  0
VERTEX
  5
A8
  8
CORTE_LASER
 10
3412.907543652644
 20
1704.040565699558
 30
2.0
  0
VERTEX
  5
A9
  8
CORTE_LASER
 10
3413.004638836513
 20
1704.073217233644
 30
2.0
  0
VERTEX
  5
AA
  8
CORTE_LASER
 10
3413.10056265644
 20
1704.109164669987
 30
2.0
  0
VERTEX
  5
AB
  8
CORTE_LASER
 10
3413.195203269539
 20
1704.148366095484
 30
2.0
  0
VERTEX
  5
AC
  8
CORTE_LASER
 10
3413.288450329091
 20
1704.190775803027
 30
2.0
  0
VERTEX
  5
AD
  8
CORTE_LASER
 10
3413.380195113194
 20
1704.236344344793
 30
2.0
  0
VERTEX
  5
AE
  8
CORTE_LASER
 10
3413.470330651534
 20
1704.285018589902
 30
2.0
  0
VERTEX
  5
AF
  8
CORTE_LASER
 10
3413.558751850107
 20
1704.336741786361
 30
2.0
  0
VERTEX
  5
B0
  8
CORTE_LASER
 10
3413.645355613748
 20
1704.391453627236
 30
2.0
  0
VERTEX
  5
B1
  8
CORTE_LASER
 10
3413.730040966345
 20
1704.449090320969
 30
2.0
  0
VERTEX
  5
B2
  8
CORTE_LASER
 10
3413.812709168563
 20
1704.509584665753
 30
2.0
  0
VERTEX
  5
B3
  8
CORTE_LASER
 10
3413.893263832978
 20
1704.572866127887
 30
2.0
  0
VERTEX
  5
B4
  8
CORTE_LASER
 10
3413.971611036454
 20
1704.638860924018
 30
2.0
  0
VERTEX
  5
B5
  8
CORTE_LASER
 10
3414.047659429656
 20
1704.707492107166
 30
2.0
  0
VERTEX
  5
B6
  8
CORTE_LASER
 10
3414.12132034356
 20
1704.778679656441
 30
2.0
  0
VERTEX
  5
B7
  8
CORTE_LASER
 10
3414.192507892834
 20
1704.852340570344
 30
2.0
  0
VERTEX
  5
B8
  8
CORTE_LASER
 10
3414.261139075982
 20
1704.928388963546
 30
2.0
  0
VERTEX
  5
B9
  8
CORTE_LASER
 10
3414.327133872113
 20
1705.006736167022
 30
2.0
  0
VERTEX
  5
BA
  8
CORTE_LASER
 10
3414.390415334248
 20
1705.087290831437
 30
2.0
  0
VERTEX
  5
BB
  8
CORTE_LASER
 10
3414.450909679032
 20
1705.169959033656
 30
2.0
  0
VERTEX
  5
BC
  8
CORTE_LASER
 10
3414.508546372764
 20
1705.254644386252
 30
2.0
  0
VERTEX
  5
BD
  8
CORTE_LASER
 10
3414.56325821364
 20
1705.341248149894
 30
2.0
  0
VERTEX
  5
BE
  8
CORTE_LASER
 10
3414.614981410098
 20
1705.429669348466
 30
2.0
  0
VERTEX
  5
BF
  8
CORTE_LASER
 10
3414.663655655207
 20
1705.519804886807
 30
2.0
  0
VERTEX
  5
C0
  8
CORTE_LASER
 10
3414.709224196974
 20
1705.61154967091
 30
2.0
  0
VERTEX
  5
C1
  8
CORTE_LASER
 10
3414.751633904516
 20
1705.704796730462
 30
2.0
  0
VERTEX
  5
C2
  8
CORTE_LASER
 10
3414.790835330014
 20
1705.799437343561
 30
2.0
  0
VERTEX
  5
C3
  8
CORTE_LASER
 10
3414.826782766357
 20
1705.895361163487
 30
2.0
  0
VERTEX
  5
C4
  8
CORTE_LASER
 10
3414.859434300442
 20
1705.992456347357
 30
2.0
  0
VERTEX
  5
C5
  8
CORTE_LASER
 10
3414.888751862044
 20
1706.090609686529
 30
2.0
  0
VERTEX
  5
C6
  8
CORTE_LASER
 10
3414.914701268194
 20
1706.189706738601
 30
2.0
  0
VERTEX
  5
C7
  8
CORTE_LASER
 10
3414.937252263047
 20
1706.289631960842
 30
2.0
  0
VERTEX
  5
C8
  8
CORTE_LASER
 10
3414.956378553152
 20
1706.390268844914
 30
2.0
  0
VERTEX
  5
C9
  8
CORTE_LASER
 10
3414.972057838109
 20
1706.491500052711
 30
2.0
  0
VERTEX
  5
CA
  8
CORTE_LASER
 10
3414.984271836574
 20
1706.593207553174
 30
2.0
  0
VERTEX
  5
CB
  8
CORTE_LASER
 10
3414.993006307572
 20
1706.695272759906
 30
2.0
  0
VERTEX
  5
CC
  8
CORTE_LASER
 10
3414.998251067098
 20
1706.797576669442
 30
2.0
  0
VERTEX
  5
CD
  8
CORTE_LASER
 10
3415.0
 20
1706.9
 30
2.0
  0
VERTEX
  5
CE
  8
CORTE_LASER
 10
3415.0
 20
1732.4
 30
2.0
  0
VERTEX
  5
CF
  8
CORTE_LASER
 10
3414.998251067098
 20
1732.502423330558
 30
2.0
  0
VERTEX
  5
D0
  8
CORTE_LASER
 10
3414.993006307572
 20
1732.604727240094
 30
2.0
  0
VERTEX
  5
D1
  8
CORTE_LASER
 10
3414.984271836574
 20
1732.706792446826
 30
2.0
  0
VERTEX
  5
D2
  8
CORTE_LASER
 10
3414.972057838109
 20
1732.808499947289
 30
2.0
  0
VERTEX
  5
D3
  8
CORTE_LASER
 10
3414.956378553152
 20
1732.909731155086
 30
2.0
  0
VERTEX
  5
D4
  8
CORTE_LASER
 10
3414.937252263047
 20
1733.010368039158
 30
2.0
  0
VERTEX
  5
D5
  8
CORTE_LASER
 10
3414.914701268194
 20
1733.110293261399
 30
2.0
  0
VERTEX
  5
D6
  8
CORTE_LASER
 10
3414.888751862044
 20
1733.209390313471
 30
2.0
  0
VERTEX
  5
D7
  8
CORTE_LASER
 10
3414.859434300442
 20
1733.307543652643
 30
2.0
  0
VERTEX
  5
D8
  8
CORTE_LASER
 10
3414.826782766356
 20
1733.404638836513
 30
2.0
  0
VERTEX
  5
D9
  8
CORTE_LASER
 10
3414.790835330014
 20
1733.500562656439
 30
2.0
  0
VERTEX
  5
DA
  8
CORTE_LASER
 10
3414.751633904516
 20
1733.595203269539
 30
2.0
  0
VERTEX
  5
DB
  8
CORTE_LASER
 10
3414.709224196974
 20
1733.68845032909
 30
2.0
  0
VERTEX
  5
DC
  8
CORTE_LASER
 10
3414.663655655207
 20
1733.780195113193
 30
2.0
  0
VERTEX
  5
DD
  8
CORTE_LASER
 10
3414.614981410098
 20
1733.870330651534
 30
2.0
  0
VERTEX
  5
DE
  8
CORTE_LASER
 10
3414.56325821364
 20
1733.958751850106
 30
2.0
  0
VERTEX
  5
DF
  8
CORTE_LASER
 10
3414.508546372764
 20
1734.045355613748
 30
2.0
  0
VERTEX
  5
E0
  8
CORTE_LASER
 10
3414.450909679031
 20
1734.130040966345
 30
2.0
  0
VERTEX
  5
E1
  8
CORTE_LASER
 10
3414.390415334248
 20
1734.212709168563
 30
2.0
  0
VERTEX
  5
E2
  8
CORTE_LASER
 10
3414.327133872113
 20
1734.293263832978
 30
2.0
  0
VERTEX
  5
E3
  8
CORTE_LASER
 10
3414.261139075982
 20
1734.371611036454
 30
2.0
  0
VERTEX
  5
E4
  8
CORTE_LASER
 10
3414.192507892834
 20
1734.447659429656
 30
2.0
  0
VERTEX
  5
E5
  8
CORTE_LASER
 10
3414.12132034356
 20
1734.52132034356
 30
2.0
  0
VERTEX
  5
E6
  8
CORTE_LASER
 10
3414.047659429656
 20
1734.592507892834
 30
2.0
  0
VERTEX
  5
E7
  8
CORTE_LASER
 10
3413.971611036454
 20
1734.661139075982
 30
2.0
  0
VERTEX
  5
E8
  8
CORTE_LASER
 10
3413.893263832978
 20
1734.727133872113
 30
2.0
  0
VERTEX
  5
E9
  8
CORTE_LASER
 10
3413.812709168563
 20
1734.790415334248
 30
2.0
  0
VERTEX
  5
EA
  8
CORTE_LASER
 10
3413.730040966344
 20
1734.850909679031
 30
2.0
  0
VERTEX
  5
EB
  8
CORTE_LASER
 10
3413.645355613748
 20
1734.908546372764
 30
2.0
  0
VERTEX
  5
EC
  8
CORTE_LASER
 10
3413.558751850106
 20
1734.96325821364
 30
2.0
  0
VERTEX
  5
ED
  8
CORTE_LASER
 10
3413.470330651534
 20
1735.014981410098
 30
2.0
  0
VERTEX
  5
EE
  8
CORTE_LASER
 10
3413.380195113194
 20
1735.063655655207
 30
2.0
  0
VERTEX
  5
EF
  8
CORTE_LASER
 10
3413.28845032909
 20
1735.109224196974
 30
2.0
  0
VERTEX
  5
F0
  8
CORTE_LASER
 10
3413.195203269539
 20
1735.151633904517
 30
2.0
  0
VERTEX
  5
F1
  8
CORTE_LASER
 10
3413.100562656439
 20
1735.190835330014
 30
2.0
  0
VERTEX
  5
F2
  8
CORTE_LASER
 10
3413.004638836513
 20
1735.226782766357
 30
2.0
  0
VERTEX
  5
F3
  8
CORTE_LASER
 10
3412.907543652643
 20
1735.259434300443
 30
2.0
  0
VERTEX
  5
F4
  8
CORTE_LASER
 10
3412.809390313471
 20
1735.288751862043
 30
2.0
  0
VERTEX
  5
F5
  8
CORTE_LASER
 10
3412.710293261399
 20
1735.314701268194
 30
2.0
  0
VERTEX
  5
F6
  8
CORTE_LASER
 10
3412.610368039158
 20
1735.337252263047
 30
2.0
  0
VERTEX
  5
F7
  8
CORTE_LASER
 10
3412.509731155086
 20
1735.356378553152
 30
2.0
  0
VERTEX
  5
F8
  8
CORTE_LASER
 10
3412.408499947289
 20
1735.372057838109
 30
2.0
  0
VERTEX
  5
F9
  8
CORTE_LASER
 10
3412.306792446826
 20
1735.384271836574
 30
2.0
  0
VERTEX
  5
FA
  8
CORTE_LASER
 10
3412.204727240094
 20
1735.393006307572
 30
2.0
  0
VERTEX
  5
FB
  8
CORTE_LASER
 10
3412.102423330558
 20
1735.398251067098
 30
2.0
  0
VERTEX
  5
FC
  8
CORTE_LASER
 10
3412.0
 20
1735.4
 30
2.0
  0
VERTEX
  5
FD
  8
CORTE_LASER
 10
3374.0
 20
1735.4
 30
2.0
  0
VERTEX
  5
FE
  8
CORTE_LASER
 10
3373.897576669442
 20
1735.398251067098
 30
2.0
  0
VERTEX
  5
FF
  8
CORTE_LASER
 10
3373.795272759906
 20
1735.393006307572
 30
2.0
  0
VERTEX
  5
100
  8
CORTE_LASER
 10
3373.693207553174
 20
1735.384271836574
 30
2.0
  0
VERTEX
  5
101
  8
CORTE_LASER
 10
3373.591500052711
 20
1735.372057838109
 30
2.0
  0
VERTEX
  5
102
  8
CORTE_LASER
 10
3373.490268844914
 20
1735.356378553152
 30
2.0
  0
VERTEX
  5
103
  8
CORTE_LASER
 10
3373.389631960842
 20
1735.337252263047
 30
2.0
  0
VERTEX
  5
104
  8
CORTE_LASER
 10
3373.289706738601
 20
1735.314701268194
 30
2.0
  0
VERTEX
  5
105
  8
CORTE_LASER
 10
3373.190609686529
 20
1735.288751862043
 30
2.0
  0
VERTEX
  5
106
  8
CORTE_LASER
 10
3373.092456347357
 20
1735.259434300443
 30
2.0
  0
VERTEX
  5
107
  8
CORTE_LASER
 10
3372.995361163487
 20
1735.226782766357
 30
2.0
  0
VERTEX
  5
108
  8
CORTE_LASER
 10
3372.899437343561
 20
1735.190835330014
 30
2.0
  0
VERTEX
  5
109
  8
CORTE_LASER
 10
3372.804796730461
 20
1735.151633904517
 30
2.0
  0
VERTEX
  5
10A
  8
CORTE_LASER
 10
3372.71154967091
 20
1735.109224196974
 30
2.0
  0
VERTEX
  5
10B
  8
CORTE_LASER
 10
3372.619804886806
 20
1735.063655655207
 30
2.0
  0
VERTEX
  5
10C
  8
CORTE_LASER
 10
3372.529669348466
 20
1735.014981410098
 30
2.0
  0
VERTEX
  5
10D
  8
CORTE_LASER
 10
3372.441248149894
 20
1734.96325821364
 30
2.0
  0
VERTEX
  5
10E
  8
CORTE_LASER
 10
3372.354644386252
 20
1734.908546372764
 30
2.0
  0
VERTEX
  5
10F
  8
CORTE_LASER
 10
3372.269959033656
 20
1734.850909679031
 30
2.0
  0
VERTEX
  5
110
  8
CORTE_LASER
 10
3372.187290831437
 20
1734.790415334248
 30
2.0
  0
VERTEX
  5
111
  8
CORTE_LASER
 10
3372.106736167022
 20
1734.727133872113
 30
2.0
  0
VERTEX
  5
112
  8
CORTE_LASER
 10
3372.028388963546
 20
1734.661139075982
 30
2.0
  0
VERTEX
  5
113
  8
CORTE_LASER
 10
3371.952340570344
 20
1734.592507892834
 30
2.0
  0
VERTEX
  5
114
  8
CORTE_LASER
 10
3371.87867965644
 20
1734.52132034356
 30
2.0
  0
VERTEX
  5
115
  8
CORTE_LASER
 10
3371.807492107166
 20
1734.447659429656
 30
2.0
  0
VERTEX
  5
116
  8
CORTE_LASER
 10
3371.738860924018
 20
1734.371611036454
 30
2.0
  0
VERTEX
  5
117
  8
CORTE_LASER
 10
3371.672866127887
 20
1734.293263832978
 30
2.0
  0
VERTEX
  5
118
  8
CORTE_LASER
 10
3371.609584665752
 20
1734.212709168563
 30
2.0
  0
VERTEX
  5
119
  8
CORTE_LASER
 10
3371.549090320969
 20
1734.130040966345
 30
2.0
  0
VERTEX
  5
11A
  8
CORTE_LASER
 10
3371.491453627236
 20
1734.045355613748
 30
2.0
  0
VERTEX
  5
11B
  8
CORTE_LASER
 10
3371.43674178636
 20
1733.958751850106
 30
2.0
  0
VERTEX
  5
11C
  8
CORTE_LASER
 10
3371.385018589902
 20
1733.870330651534
 30
2.0
  0
VERTEX
  5
11D
  8
CORTE_LASER
 10
3371.336344344793
 20
1733.780195113193
 30
2.0
  0
VERTEX
  5
11E
  8
CORTE_LASER
 10
3371.290775803026
 20
1733.68845032909
 30
2.0
  0
VERTEX
  5
11F
  8
CORTE_LASER
 10
3371.248366095484
 20
1733.595203269539
 30
2.0
  0
VERTEX
  5
120
  8
CORTE_LASER
 10
3371.209164669986
 20
1733.500562656439
 30
2.0
  0
VERTEX
  5
121
  8
CORTE_LASER
 10
3371.173217233644
 20
1733.404638836513
 30
2.0
  0
VERTEX
  5
122
  8
CORTE_LASER
 10
3371.140565699558
 20
1733.307543652643
 30
2.0
  0
VERTEX
  5
123
  8
CORTE_LASER
 10
3371.111248137956
 20
1733.209390313471
 30
2.0
  0
VERTEX
  5
124
  8
CORTE_LASER
 10
3371.085298731806
 20
1733.110293261399
 30
2.0
  0
VERTEX
  5
125
  8
CORTE_LASER
 10
3371.062747736953
 20
1733.010368039158
 30
2.0
  0
VERTEX
  5
126
  8
CORTE_LASER
 10
3371.043621446848
 20
1732.909731155086
 30
2.0
  0
VERTEX
  5
127
  8
CORTE_LASER
 10
3371.027942161891
 20
1732.808499947289
 30
2.0
  0
VERTEX
  5
128
  8
CORTE_LASER
 10
3371.015728163426
 20
1732.706792446826
 30
2.0
  0
VERTEX
  5
129
  8
CORTE_LASER
 10
3371.006993692428
 20
1732.604727240094
 30
2.0
  0
VERTEX
  5
12A
  8
CORTE_LASER
 10
3371.001748932902
 20
1732.502423330558
 30
2.0
  0
VERTEX
  5
12B
  8
CORTE_LASER
 10
3371.0
 20
1732.4
 30
2.0
  0
SEQEND
  5
12C
  8
CORTE_LASER
  0
POLYLINE
  5
12D
  8
CORTE_LASER
 66
     1
 10
0.0
 20
0.0
 30
0.0
 70
     1
  0
VERTEX
  5
12E
  8
CORTE_LASER
 10
3362.0
 20
1423.0
 30
0.0
  0
VERTEX
  5
12F
  8
CORTE_LASER
 10
3682.0
 20
1423.0
 30
0.0
  0
VERTEX
  5
130
  8
CORTE_LASER
 10
3682.0
 20
1743.0
 30
0.0
  0
VERTEX
  5
131
  8
CORTE_LASER
 10
3362.0
 20
1743.0
 30
0.0
  0
SEQEND
  5
132
  8
CORTE_LASER
  0
ENDSEC
  0
EOF
