  0
SECTION
  2
HEADER
  9
$ACADVER
  1
AC1009
  9
$DWGCODEPAGE
  3
mac-roman
  9
$INSBASE
 10
0.0
 20
0.0
 30
0.0
  9
$EXTMIN
 10
1799.0
 20
2693.0
 30
0.0
  9
$EXTMAX
 10
2099.0
 20
2993.0
 30
0.0
  9
$LIMMIN
 10
0.0
 20
0.0
  9
$LIMMAX
 10
12.0
 20
9.0
  9
$ORTHOMODE
 70
     0
  9
$REGENMODE
 70
     1
  9
$FILLMODE
 70
     1
  9
$QTEXTMODE
 70
     0
  9
$MIRRTEXT
 70
     1
  9
$DRAGMODE
 70
     2
  9
$LTSCALE
 40
1.0
  9
$OSMODE
 70
    37
  9
$ATTMODE
 70
     1
  9
$TEXTSIZE
 40
0.2
  9
$TRACEWID
 40
0.05
  9
$TEXTSTYLE
  7
STANDARD
  9
$CLAYER
  8
0
  9
$CELTYPE
  6
BYLAYER
  9
$CECOLOR
 62
   256
  9
$DIMSCALE
 40
1.0
  9
$DIMASZ
 40
0.18
  9
$DIMEXO
 40
0.0625
  9
$DIMDLI
 40
0.38
  9
$DIMRND
 40
0.0
  9
$DIMDLE
 40
0.0
  9
$DIMEXE
 40
0.18
  9
$DIMTP
 40
0.0
  9
$DIMTM
 40
0.0
  9
$DIMTXT
 40
0.18
  9
$DIMCEN
 40
0.09
  9
$DIMTSZ
 40
0.0
  9
$DIMTOL
 70
     0
  9
$DIMLIM
 70
     0
  9
$DIMTIH
 70
     1
  9
$DIMTOH
 70
     1
  9
$DIMSE1
 70
     0
  9
$DIMSE2
 70
     0
  9
$DIMTAD
 70
     0
  9
$DIMZIN
 70
     0
  9
$DIMBLK
  1

  9
$DIMASO
 70
     1
  9
$DIMSHO
 70
     1
  9
$DIMPOST
  1

  9
$DIMAPOST
  1

  9
$DIMALT
 70
     0
  9
$DIMALTD
 70
     2
  9
$DIMALTF
 40
25.4
  9
$DIMLFAC
 40
1.0
  9
$DIMTOFL
 70
     0
  9
$DIMTVP
 40
0.0
  9
$DIMTIX
 70
     0
  9
$DIMSOXD
 70
     0
  9
$DIMSAH
 70
     0
  9
$DIMBLK1
  1

  9
$DIMBLK2
  1

  9
$DIMSTYLE
  2
STANDARD
  9
$DIMCLRD
 70
     0
  9
$DIMCLRE
 70
     0
  9
$DIMCLRT
 70
     0
  9
$DIMTFAC
 40
1.0
  9
$DIMGAP
 40
0.09
  9
$LUNITS
 70
     2
  9
$LUPREC
 70
     2
  9
$SKETCHINC
 40
0.1
  9
$FILLETRAD
 40
0.5
  9
$AUNITS
 70
     0
  9
$AUPREC
 70
     0
  9
$MENU
  1
.
  9
$ELEVATION
 40
0.0
  9
$PELEVATION
 40
0.0
  9
$THICKNESS
 40
0.0
  9
$LIMCHECK
 70
     0
  9
$CHAMFERA
 40
0.0
  9
$CHAMFERB
 40
0.0
  9
$SKPOLY
 70
     0
  9
$TDCREATE
 40
2458005.815740741
  9
$TDUPDATE
 40
2458005.815752315
  9
$TDINDWG
 40
0.0000000116
  9
$TDUSRTIMER
 40
0.0000000116
  9
$USRTIMER
 70
     1
  9
$ANGBASE
 50
0.0
  9
$ANGDIR
 70
     0
  9
$PDMODE
 70
     0
  9
$PDSIZE
 40
0.0
  9
$PLINEWID
 40
0.0
  9
$COORDS
 70
     1
  9
$SPLFRAME
 70
     0
  9
$SPLINETYPE
 70
     6
  9
$SPLINESEGS
 70
     8
  9
$ATTDIA
 70
     0
  9
$ATTREQ
 70
     1
  9
$HANDLING
 70
     1
  9
$HANDSEED
  5
68C
  9
$SURFTAB1
 70
     6
  9
$SURFTAB2
 70
     6
  9
$SURFTYPE
 70
     6
  9
$SURFU
 70
     6
  9
$SURFV
 70
     6
  9
$UCSNAME
  2

  9
$UCSORG
 10
0.0
 20
0.0
 30
0.0
  9
$UCSXDIR
 10
1.0
 20
0.0
 30
0.0
  9
$UCSYDIR
 10
0.0
 20
1.0
 30
0.0
  9
$PUCSNAME
  2

  9
$PUCSORG
 10
0.0
 20
0.0
 30
0.0
  9
$PUCSXDIR
 10
1.0
 20
0.0
 30
0.0
  9
$PUCSYDIR
 10
0.0
 20
1.0
 30
0.0
  9
$USERI1
 70
     0
  9
$USERI2
 70
     0
  9
$USERI3
 70
     0
  9
$USERI4
 70
     0
  9
$USERI5
 70
     0
  9
$USERR1
 40
0.0
  9
$USERR2
 40
0.0
  9
$USERR3
 40
0.0
  9
$USERR4
 40
0.0
  9
$USERR5
 40
0.0
  9
$WORLDVIEW
 70
     1
  9
$SHADEDGE
 70
     3
  9
$SHADEDIF
 70
    70
  9
$TILEMODE
 70
     1
  9
$MAXACTVP
 70
    64
  9
$PLIMCHECK
 70
     0
  9
$PEXTMIN
 10
1.000000000000000E+20
 20
1.000000000000000E+20
 30
1.000000000000000E+20
  9
$PEXTMAX
 10
-1.000000000000000E+20
 20
-1.000000000000000E+20
 30
-1.000000000000000E+20
  9
$PLIMMIN
 10
0.0
 20
0.0
  9
$PLIMMAX
 10
12.0
 20
9.0
  9
$UNITMODE
 70
     0
  9
$VISRETAIN
 70
     1
  9
$PLINEGEN
 70
     0
  9
$PSLTSCALE
 70
     1
  0
ENDSEC
  0
SECTION
  2
TABLES
  0
TABLE
  2
VPORT
 70
     1
  0
VPORT
  2
*ACTIVE
 70
     0
 10
0.0
 20
0.0
 11
1.0
 21
1.0
 12
1949.0
 22
2843.0
 13
0.0
 23
0.0
 14
0.5
 24
0.5
 15
0.5
 25
0.5
 16
0.0
 26
0.0
 36
1.0
 17
0.0
 27
0.0
 37
0.0
 40
306.0
 41
1.0
 42
50.0
 43
0.0
 44
0.0
 50
0.0
 51
0.0
 71
     0
 72
   100
 73
     1
 74
     3
 75
     0
 76
     0
 77
     0
 78
     0
  0
ENDTAB
  0
TABLE
  2
LTYPE
 70
     1
  0
LTYPE
  2
CONTINUOUS
 70
     0
  3
Solid line
 72
    65
 73
     0
 40
0.0
  0
ENDTAB
  0
TABLE
  2
LAYER
 70
     2
  0
LAYER
  2
0
 70
     0
 62
     7
  6
CONTINUOUS
  0
LAYER
  2
CORTE_LASER$CORTE
 70
     0
 62
     7
  6
CONTINUOUS
  0
ENDTAB
  0
TABLE
  2
STYLE
 70
     1
  0
STYLE
  2
STANDARD
 70
     0
 40
0.0
 41
1.0
 50
0.0
 71
     0
 42
0.2
  3
txt
  4

  0
ENDTAB
  0
TABLE
  2
VIEW
 70
     0
  0
ENDTAB
  0
TABLE
  2
UCS
 70
     0
  0
ENDTAB
  0
TABLE
  2
APPID
 70
     1
  0
APPID
  2
ACAD
 70
     0
  0
ENDTAB
  0
TABLE
  2
DIMSTYLE
 70
     1
  0
DIMSTYLE
  2
STANDARD
 70
     0
  3

  4

  5

  6

  7

 40
1.0
 41
0.18
 42
0.0625
 43
0.38
 44
0.18
 45
0.0
 46
0.0
 47
0.0
 48
0.0
140
0.18
141
0.09
142
0.0
143
25.4
144
1.0
145
0.0
146
1.0
147
0.09
 71
     0
 72
     0
 73
     1
 74
     1
 75
     0
 76
     0
 77
     0
 78
     0
170
     0
171
     2
172
     0
173
     0
174
     0
175
     0
176
     0
177
     0
178
     0
  0
ENDTAB
  0
ENDSEC
  0
SECTION
  2
BLOCKS
  0
BLOCK
  8
0
  2
$MODEL_SPACE
 70
     0
 10
0.0
 20
0.0
 30
0.0
  3
$MODEL_SPACE
  1

  0
ENDBLK
  5
21
  8
0
  0
BLOCK
 67
     1
  8
0
  2
$PAPER_SPACE
 70
     0
 10
0.0
 20
0.0
 30
0.0
  3
$PAPER_SPACE
  1

  0
ENDBLK
  5
1D
 67
     1
  8
0
  0
ENDSEC
  0
SECTION
  2
ENTITIES
  0
CIRCLE
  5
6F
  8
CORTE_LASER$CORTE
 10
1993.249999999487
 20
2873.461993505113
 30
0.0
 40
1.75
  0
POLYLINE
  5
70
  8
CORTE_LASER$CORTE
 66
     1
 10
0.0
 20
0.0
 30
0.0
 70
     1
  0
VERTEX
  5
71
  8
CORTE_LASER$CORTE
 10
1984.753980554941
 20
2870.461993505113
 30
0.0
  0
VERTEX
  5
72
  8
CORTE_LASER$CORTE
 10
1984.753980554942
 20
2877.461993505113
 30
0.0
  0
VERTEX
  5
73
  8
CORTE_LASER$CORTE
 10
1984.754719635861
 20
2877.528581336398
 30
0.0
  0
VERTEX
  5
74
  8
CORTE_LASER$CORTE
 10
1984.756963134824
 20
2877.595734237559
 30
0.0
  0
VERTEX
  5
75
  8
CORTE_LASER$CORTE
 10
1984.760749506175
 20
2877.663408223282
 30
0.0
  0
VERTEX
  5
76
  8
CORTE_LASER$CORTE
 10
1984.766115829103
 20
2877.731556818806
 30
0.0
  0
VERTEX
  5
77
  8
CORTE_LASER$CORTE
 10
1984.773097636355
 20
2877.800131089065
 30
0.0
  0
VERTEX
  5
78
  8
CORTE_LASER$CORTE
 10
1984.781728740937
 20
2877.869079680444
 30
0.0
  0
VERTEX
  5
79
  8
CORTE_LASER$CORTE
 10
1984.792041061818
 20
2877.938348875688
 30
0.0
  0
VERTEX
  5
7A
  8
CORTE_LASER$CORTE
 10
1984.804064449692
 20
2878.007882662349
 30
0.0
  0
VERTEX
  5
7B
  8
CORTE_LASER$CORTE
 10
1984.817826513913
 20
2878.07762281513
 30
0.0
  0
VERTEX
  5
7C
  8
CORTE_LASER$CORTE
 10
1984.833352451814
 20
2878.147508992333
 30
0.0
  0
VERTEX
  5
7D
  8
CORTE_LASER$CORTE
 10
1984.850664881637
 20
2878.21747884656
 30
0.0
  0
VERTEX
  5
7E
  8
CORTE_LASER$CORTE
 10
1984.869783680381
 20
2878.28746814965
 30
0.0
  0
VERTEX
  5
7F
  8
CORTE_LASER$CORTE
 10
1984.890725827875
 20
2878.357410931751
 30
0.0
  0
VERTEX
  5
80
  8
CORTE_LASER$CORTE
 10
1984.913505258417
 20
2878.427239634259
 30
0.0
  0
VERTEX
  5
81
  8
CORTE_LASER$CORTE
 10
1984.93813272133
 20
2878.496885276239
 30
0.0
  0
VERTEX
  5
82
  8
CORTE_LASER$CORTE
 10
1984.964615651755
 20
2878.566277633799
 30
0.0
  0
VERTEX
  5
83
  8
CORTE_LASER$CORTE
 10
1984.992958052996
 20
2878.635345431752
 30
0.0
  0
VERTEX
  5
84
  8
CORTE_LASER$CORTE
 10
1985.023160391672
 20
2878.704016546718
 30
0.0
  0
VERTEX
  5
85
  8
CORTE_LASER$CORTE
 10
1985.055219506874
 20
2878.772218220736
 30
0.0
  0
VERTEX
  5
86
  8
CORTE_LASER$CORTE
 10
1985.089128534453
 20
2878.839877284282
 30
0.0
  0
VERTEX
  5
87
  8
CORTE_LASER$CORTE
 10
1985.124876847469
 20
2878.906920387469
 30
0.0
  0
VERTEX
  5
88
  8
CORTE_LASER$CORTE
 10
1985.1624500137
 20
2878.973274238072
 30
0.0
  0
VERTEX
  5
89
  8
CORTE_LASER$CORTE
 10
1985.201829771021
 20
2879.038865844948
 30
0.0
  0
VERTEX
  5
8A
  8
CORTE_LASER$CORTE
 10
1985.242994021286
 20
2879.103622765269
 30
0.0
  0
VERTEX
  5
8B
  8
CORTE_LASER$CORTE
 10
1985.285916843216
 20
2879.167473353971
 30
0.0
  0
VERTEX
  5
8C
  8
CORTE_LASER$CORTE
 10
1985.330568524615
 20
2879.230347013681
 30
0.0
  0
VERTEX
  5
8D
  8
CORTE_LASER$CORTE
 10
1985.376915614088
 20
2879.292174443425
 30
0.0
  0
VERTEX
  5
8E
  8
CORTE_LASER$CORTE
 10
1985.424920992218
 20
2879.352887884311
 30
0.0
  0
VERTEX
  5
8F
  8
CORTE_LASER$CORTE
 10
1985.474543962019
 20
2879.412421360443
 30
0.0
  0
VERTEX
  5
90
  8
CORTE_LASER$CORTE
 10
1985.525740358265
 20
2879.470710913291
 30
0.0
  0
VERTEX
  5
91
  8
CORTE_LASER$CORTE
 10
1985.578462675129
 20
2879.527694827815
 30
0.0
  0
VERTEX
  5
92
  8
CORTE_LASER$CORTE
 10
1985.632660211382
 20
2879.583313848673
 30
0.0
  0
VERTEX
  5
93
  8
CORTE_LASER$CORTE
 10
1985.68827923224
 20
2879.637511384926
 30
0.0
  0
VERTEX
  5
94
  8
CORTE_LASER$CORTE
 10
1985.745263146766
 20
2879.690233701791
 30
0.0
  0
VERTEX
  5
95
  8
CORTE_LASER$CORTE
 10
1985.803552699614
 20
2879.741430098038
 30
0.0
  0
VERTEX
  5
96
  8
CORTE_LASER$CORTE
 10
1985.863086175745
 20
2879.791053067838
 30
0.0
  0
VERTEX
  5
97
  8
CORTE_LASER$CORTE
 10
1985.92379961663
 20
2879.839058445968
 30
0.0
  0
VERTEX
  5
98
  8
CORTE_LASER$CORTE
 10
1985.985627046374
 20
2879.88540553544
 30
0.0
  0
VERTEX
  5
99
  8
CORTE_LASER$CORTE
 10
1986.048500706084
 20
2879.93005721684
 30
0.0
  0
VERTEX
  5
9A
  8
CORTE_LASER$CORTE
 10
1986.112351294787
 20
2879.972980038769
 30
0.0
  0
VERTEX
  5
9B
  8
CORTE_LASER$CORTE
 10
1986.17710821511
 20
2880.014144289036
 30
0.0
  0
VERTEX
  5
9C
  8
CORTE_LASER$CORTE
 10
1986.242699821985
 20
2880.053524046357
 30
0.0
  0
VERTEX
  5
9D
  8
CORTE_LASER$CORTE
 10
1986.309053672589
 20
2880.091097212588
 30
0.0
  0
VERTEX
  5
9E
  8
CORTE_LASER$CORTE
 10
1986.376096775774
 20
2880.126845525604
 30
0.0
  0
VERTEX
  5
9F
  8
CORTE_LASER$CORTE
 10
1986.443755839321
 20
2880.160754553183
 30
0.0
  0
VERTEX
  5
A0
  8
CORTE_LASER$CORTE
 10
1986.511957513338
 20
2880.192813668384
 30
0.0
  0
VERTEX
  5
A1
  8
CORTE_LASER$CORTE
 10
1986.580628628303
 20
2880.223016007059
 30
0.0
  0
VERTEX
  5
A2
  8
CORTE_LASER$CORTE
 10
1986.649696426257
 20
2880.251358408301
 30
0.0
  0
VERTEX
  5
A3
  8
CORTE_LASER$CORTE
 10
1986.719088783818
 20
2880.277841338726
 30
0.0
  0
VERTEX
  5
A4
  8
CORTE_LASER$CORTE
 10
1986.788734425796
 20
2880.302468801638
 30
0.0
  0
VERTEX
  5
A5
  8
CORTE_LASER$CORTE
 10
1986.858563128304
 20
2880.325248232181
 30
0.0
  0
VERTEX
  5
A6
  8
CORTE_LASER$CORTE
 10
1986.928505910406
 20
2880.346190379675
 30
0.0
  0
VERTEX
  5
A7
  8
CORTE_LASER$CORTE
 10
1986.998495213497
 20
2880.36530917842
 30
0.0
  0
VERTEX
  5
A8
  8
CORTE_LASER$CORTE
 10
1987.068465067723
 20
2880.382621608242
 30
0.0
  0
VERTEX
  5
A9
  8
CORTE_LASER$CORTE
 10
1987.138351244925
 20
2880.398147546142
 30
0.0
  0
VERTEX
  5
AA
  8
CORTE_LASER$CORTE
 10
1987.208091397705
 20
2880.411909610363
 30
0.0
  0
VERTEX
  5
AB
  8
CORTE_LASER$CORTE
 10
1987.277625184367
 20
2880.423932998236
 30
0.0
  0
VERTEX
  5
AC
  8
CORTE_LASER$CORTE
 10
1987.346894379611
 20
2880.434245319118
 30
0.0
  0
VERTEX
  5
AD
  8
CORTE_LASER$CORTE
 10
1987.41584297099
 20
2880.4428764237
 30
0.0
  0
VERTEX
  5
AE
  8
CORTE_LASER$CORTE
 10
1987.484417241248
 20
2880.449858230952
 30
0.0
  0
VERTEX
  5
AF
  8
CORTE_LASER$CORTE
 10
1987.552565836774
 20
2880.455224553881
 30
0.0
  0
VERTEX
  5
B0
  8
CORTE_LASER$CORTE
 10
1987.620239822495
 20
2880.45901092523
 30
0.0
  0
VERTEX
  5
B1
  8
CORTE_LASER$CORTE
 10
1987.687392723657
 20
2880.461254424195
 30
0.0
  0
VERTEX
  5
B2
  8
CORTE_LASER$CORTE
 10
1987.753980554942
 20
2880.461993505113
 30
0.0
  0
VERTEX
  5
B3
  8
CORTE_LASER$CORTE
 10
1993.249999999488
 20
2880.461993505113
 30
0.0
  0
VERTEX
  5
B4
  8
CORTE_LASER$CORTE
 10
1993.352423330046
 20
2880.460244572212
 30
0.0
  0
VERTEX
  5
B5
  8
CORTE_LASER$CORTE
 10
1993.454727239582
 20
2880.454999812685
 30
0.0
  0
VERTEX
  5
B6
  8
CORTE_LASER$CORTE
 10
1993.556792446314
 20
2880.446265341688
 30
0.0
  0
VERTEX
  5
B7
  8
CORTE_LASER$CORTE
 10
1993.658499946776
 20
2880.434051343222
 30
0.0
  0
VERTEX
  5
B8
  8
CORTE_LASER$CORTE
 10
1993.759731154574
 20
2880.418372058265
 30
0.0
  0
VERTEX
  5
B9
  8
CORTE_LASER$CORTE
 10
1993.860368038646
 20
2880.39924576816
 30
0.0
  0
VERTEX
  5
BA
  8
CORTE_LASER$CORTE
 10
1993.960293260887
 20
2880.376694773307
 30
0.0
  0
VERTEX
  5
BB
  8
CORTE_LASER$CORTE
 10
1994.059390312959
 20
2880.350745367157
 30
0.0
  0
VERTEX
  5
BC
  8
CORTE_LASER$CORTE
 10
1994.157543652131
 20
2880.321427805556
 30
0.0
  0
VERTEX
  5
BD
  8
CORTE_LASER$CORTE
 10
1994.254638836001
 20
2880.28877627147
 30
0.0
  0
VERTEX
  5
BE
  8
CORTE_LASER$CORTE
 10
1994.350562655927
 20
2880.252828835127
 30
0.0
  0
VERTEX
  5
BF
  8
CORTE_LASER$CORTE
 10
1994.445203269026
 20
2880.21362740963
 30
0.0
  0
VERTEX
  5
C0
  8
CORTE_LASER$CORTE
 10
1994.538450328578
 20
2880.171217702087
 30
0.0
  0
VERTEX
  5
C1
  8
CORTE_LASER$CORTE
 10
1994.630195112681
 20
2880.12564916032
 30
0.0
  0
VERTEX
  5
C2
  8
CORTE_LASER$CORTE
 10
1994.720330651022
 20
2880.076974915211
 30
0.0
  0
VERTEX
  5
C3
  8
CORTE_LASER$CORTE
 10
1994.808751849594
 20
2880.025251718753
 30
0.0
  0
VERTEX
  5
C4
  8
CORTE_LASER$CORTE
 10
1994.895355613236
 20
2879.970539877877
 30
0.0
  0
VERTEX
  5
C5
  8
CORTE_LASER$CORTE
 10
1994.980040965832
 20
2879.912903184145
 30
0.0
  0
VERTEX
  5
C6
  8
CORTE_LASER$CORTE
 10
1995.062709168051
 20
2879.852408839361
 30
0.0
  0
VERTEX
  5
C7
  8
CORTE_LASER$CORTE
 10
1995.143263832466
 20
2879.789127377227
 30
0.0
  0
VERTEX
  5
C8
  8
CORTE_LASER$CORTE
 10
1995.221611035942
 20
2879.723132581095
 30
0.0
  0
VERTEX
  5
C9
  8
CORTE_LASER$CORTE
 10
1995.297659429144
 20
2879.654501397948
 30
0.0
  0
VERTEX
  5
CA
  8
CORTE_LASER$CORTE
 10
1995.371320343047
 20
2879.583313848673
 30
0.0
  0
VERTEX
  5
CB
  8
CORTE_LASER$CORTE
 10
1995.442507892322
 20
2879.509652934769
 30
0.0
  0
VERTEX
  5
CC
  8
CORTE_LASER$CORTE
 10
1995.51113907547
 20
2879.433604541568
 30
0.0
  0
VERTEX
  5
CD
  8
CORTE_LASER$CORTE
 10
1995.577133871601
 20
2879.355257338092
 30
0.0
  0
VERTEX
  5
CE
  8
CORTE_LASER$CORTE
 10
1995.640415333735
 20
2879.274702673677
 30
0.0
  0
VERTEX
  5
CF
  8
CORTE_LASER$CORTE
 10
1995.700909678519
 20
2879.192034471458
 30
0.0
  0
VERTEX
  5
D0
  8
CORTE_LASER$CORTE
 10
1995.758546372252
 20
2879.107349118861
 30
0.0
  0
VERTEX
  5
D1
  8
CORTE_LASER$CORTE
 10
1995.813258213127
 20
2879.02074535522
 30
0.0
  0
VERTEX
  5
D2
  8
CORTE_LASER$CORTE
 10
1995.864981409586
 20
2878.932324156648
 30
0.0
  0
VERTEX
  5
D3
  8
CORTE_LASER$CORTE
 10
1995.913655654694
 20
2878.842188618307
 30
0.0
  0
VERTEX
  5
D4
  8
CORTE_LASER$CORTE
 10
1995.959224196461
 20
2878.750443834204
 30
0.0
  0
VERTEX
  5
D5
  8
CORTE_LASER$CORTE
 10
1996.001633904004
 20
2878.657196774652
 30
0.0
  0
VERTEX
  5
D6
  8
CORTE_LASER$CORTE
 10
1996.040835329501
 20
2878.562556161553
 30
0.0
  0
VERTEX
  5
D7
  8
CORTE_LASER$CORTE
 10
1996.076782765844
 20
2878.466632341627
 30
0.0
  0
VERTEX
  5
D8
  8
CORTE_LASER$CORTE
 10
1996.10943429993
 20
2878.369537157757
 30
0.0
  0
VERTEX
  5
D9
  8
CORTE_LASER$CORTE
 10
1996.138751861531
 20
2878.271383818585
 30
0.0
  0
VERTEX
  5
DA
  8
CORTE_LASER$CORTE
 10
1996.164701267681
 20
2878.172286766513
 30
0.0
  0
VERTEX
  5
DB
  8
CORTE_LASER$CORTE
 10
1996.187252262534
 20
2878.072361544272
 30
0.0
  0
VERTEX
  5
DC
  8
CORTE_LASER$CORTE
 10
1996.206378552639
 20
2877.971724660199
 30
0.0
  0
VERTEX
  5
DD
  8
CORTE_LASER$CORTE
 10
1996.222057837596
 20
2877.870493452403
 30
0.0
  0
VERTEX
  5
DE
  8
CORTE_LASER$CORTE
 10
1996.234271836062
 20
2877.76878595194
 30
0.0
  0
VERTEX
  5
DF
  8
CORTE_LASER$CORTE
 10
1996.243006307059
 20
2877.666720745208
 30
0.0
  0
VERTEX
  5
E0
  8
CORTE_LASER$CORTE
 10
1996.248251066586
 20
2877.564416835672
 30
0.0
  0
VERTEX
  5
E1
  8
CORTE_LASER$CORTE
 10
1996.249999999487
 20
2877.461993505113
 30
0.0
  0
VERTEX
  5
E2
  8
CORTE_LASER$CORTE
 10
1996.249999999487
 20
2876.961993505113
 30
0.0
  0
VERTEX
  5
E3
  8
CORTE_LASER$CORTE
 10
1996.249999999487
 20
2873.461993505113
 30
0.0
  0
VERTEX
  5
E4
  8
CORTE_LASER$CORTE
 10
1996.248251066586
 20
2873.359570174555
 30
0.0
  0
VERTEX
  5
E5
  8
CORTE_LASER$CORTE
 10
1996.243006307059
 20
2873.257266265019
 30
0.0
  0
VERTEX
  5
E6
  8
CORTE_LASER$CORTE
 10
1996.234271836062
 20
2873.155201058287
 30
0.0
  0
VERTEX
  5
E7
  8
CORTE_LASER$CORTE
 10
1996.222057837597
 20
2873.053493557824
 30
0.0
  0
VERTEX
  5
E8
  8
CORTE_LASER$CORTE
 10
1996.206378552639
 20
2872.952262350027
 30
0.0
  0
VERTEX
  5
E9
  8
CORTE_LASER$CORTE
 10
1996.187252262534
 20
2872.851625465955
 30
0.0
  0
VERTEX
  5
EA
  8
CORTE_LASER$CORTE
 10
1996.164701267681
 20
2872.751700243714
 30
0.0
  0
VERTEX
  5
EB
  8
CORTE_LASER$CORTE
 10
1996.138751861531
 20
2872.652603191642
 30
0.0
  0
VERTEX
  5
EC
  8
CORTE_LASER$CORTE
 10
1996.10943429993
 20
2872.55444985247
 30
0.0
  0
VERTEX
  5
ED
  8
CORTE_LASER$CORTE
 10
1996.076782765844
 20
2872.4573546686
 30
0.0
  0
VERTEX
  5
EE
  8
CORTE_LASER$CORTE
 10
1996.040835329501
 20
2872.361430848674
 30
0.0
  0
VERTEX
  5
EF
  8
CORTE_LASER$CORTE
 10
1996.001633904004
 20
2872.266790235574
 30
0.0
  0
VERTEX
  5
F0
  8
CORTE_LASER$CORTE
 10
1995.959224196461
 20
2872.173543176023
 30
0.0
  0
VERTEX
  5
F1
  8
CORTE_LASER$CORTE
 10
1995.913655654695
 20
2872.08179839192
 30
0.0
  0
VERTEX
  5
F2
  8
CORTE_LASER$CORTE
 10
1995.864981409586
 20
2871.991662853579
 30
0.0
  0
VERTEX
  5
F3
  8
CORTE_LASER$CORTE
 10
1995.813258213127
 20
2871.903241655007
 30
0.0
  0
VERTEX
  5
F4
  8
CORTE_LASER$CORTE
 10
1995.758546372252
 20
2871.816637891365
 30
0.0
  0
VERTEX
  5
F5
  8
CORTE_LASER$CORTE
 10
1995.700909678519
 20
2871.731952538769
 30
0.0
  0
VERTEX
  5
F6
  8
CORTE_LASER$CORTE
 10
1995.640415333735
 20
2871.64928433655
 30
0.0
  0
VERTEX
  5
F7
  8
CORTE_LASER$CORTE
 10
1995.577133871601
 20
2871.568729672135
 30
0.0
  0
VERTEX
  5
F8
  8
CORTE_LASER$CORTE
 10
1995.51113907547
 20
2871.490382468659
 30
0.0
  0
VERTEX
  5
F9
  8
CORTE_LASER$CORTE
 10
1995.442507892322
 20
2871.414334075457
 30
0.0
  0
VERTEX
  5
FA
  8
CORTE_LASER$CORTE
 10
1995.371320343047
 20
2871.340673161554
 30
0.0
  0
VERTEX
  5
FB
  8
CORTE_LASER$CORTE
 10
1995.297659429143
 20
2871.269485612279
 30
0.0
  0
VERTEX
  5
FC
  8
CORTE_LASER$CORTE
 10
1995.221611035941
 20
2871.200854429131
 30
0.0
  0
VERTEX
  5
FD
  8
CORTE_LASER$CORTE
 10
1995.143263832466
 20
2871.134859633
 30
0.0
  0
VERTEX
  5
FE
  8
CORTE_LASER$CORTE
 10
1995.062709168051
 20
2871.071578170865
 30
0.0
  0
VERTEX
  5
FF
  8
CORTE_LASER$CORTE
 10
1994.980040965832
 20
2871.011083826082
 30
0.0
  0
VERTEX
  5
100
  8
CORTE_LASER$CORTE
 10
1994.895355613235
 20
2870.953447132349
 30
0.0
  0
VERTEX
  5
101
  8
CORTE_LASER$CORTE
 10
1994.808751849594
 20
2870.898735291474
 30
0.0
  0
VERTEX
  5
102
  8
CORTE_LASER$CORTE
 10
1994.720330651022
 20
2870.847012095015
 30
0.0
  0
VERTEX
  5
103
  8
CORTE_LASER$CORTE
 10
1994.630195112681
 20
2870.798337849906
 30
0.0
  0
VERTEX
  5
104
  8
CORTE_LASER$CORTE
 10
1994.538450328578
 20
2870.75276930814
 30
0.0
  0
VERTEX
  5
105
  8
CORTE_LASER$CORTE
 10
1994.445203269026
 20
2870.710359600597
 30
0.0
  0
VERTEX
  5
106
  8
CORTE_LASER$CORTE
 10
1994.350562655927
 20
2870.6711581751
 30
0.0
  0
VERTEX
  5
107
  8
CORTE_LASER$CORTE
 10
1994.254638836
 20
2870.635210738757
 30
0.0
  0
VERTEX
  5
108
  8
CORTE_LASER$CORTE
 10
1994.157543652131
 20
2870.602559204671
 30
0.0
  0
VERTEX
  5
109
  8
CORTE_LASER$CORTE
 10
1994.059390312959
 20
2870.57324164307
 30
0.0
  0
VERTEX
  5
10A
  8
CORTE_LASER$CORTE
 10
1993.960293260887
 20
2870.547292236919
 30
0.0
  0
VERTEX
  5
10B
  8
CORTE_LASER$CORTE
 10
1993.860368038645
 20
2870.524741242066
 30
0.0
  0
VERTEX
  5
10C
  8
CORTE_LASER$CORTE
 10
1993.759731154574
 20
2870.505614951962
 30
0.0
  0
VERTEX
  5
10D
  8
CORTE_LASER$CORTE
 10
1993.658499946776
 20
2870.489935667004
 30
0.0
  0
VERTEX
  5
10E
  8
CORTE_LASER$CORTE
 10
1993.556792446314
 20
2870.477721668539
 30
0.0
  0
VERTEX
  5
10F
  8
CORTE_LASER$CORTE
 10
1993.454727239582
 20
2870.468987197542
 30
0.0
  0
VERTEX
  5
110
  8
CORTE_LASER$CORTE
 10
1993.352423330045
 20
2870.463742438015
 30
0.0
  0
VERTEX
  5
111
  8
CORTE_LASER$CORTE
 10
1993.249999999487
 20
2870.461993505113
 30
0.0
  0
VERTEX
  5
112
  8
CORTE_LASER$CORTE
 10
1989.749999999488
 20
2870.461993505113
 30
0.0
  0
SEQEND
  5
113
  8
CORTE_LASER$CORTE
  0
POLYLINE
  5
114
  8
CORTE_LASER$CORTE
 66
     1
 10
0.0
 20
0.0
 30
0.0
 70
     1
  0
VERTEX
  5
115
  8
CORTE_LASER$CORTE
 10
2027.003980554942
 20
2973.000000000001
 30
0.0
  0
VERTEX
  5
116
  8
CORTE_LASER$CORTE
 10
2093.003980554942
 20
2973.0
 30
0.0
  0
VERTEX
  5
117
  8
CORTE_LASER$CORTE
 10
2093.003980554942
 20
2939.211993505113
 30
0.0
  0
VERTEX
  5
118
  8
CORTE_LASER$CORTE
 10
2093.003241474022
 20
2939.145405673829
 30
0.0
  0
VERTEX
  5
119
  8
CORTE_LASER$CORTE
 10
2093.000997975058
 20
2939.078252772667
 30
0.0
  0
VERTEX
  5
11A
  8
CORTE_LASER$CORTE
 10
2092.997211603709
 20
2939.010578786945
 30
0.0
  0
VERTEX
  5
11B
  8
CORTE_LASER$CORTE
 10
2092.99184528078
 20
2938.94243019142
 30
0.0
  0
VERTEX
  5
11C
  8
CORTE_LASER$CORTE
 10
2092.984863473528
 20
2938.873855921162
 30
0.0
  0
VERTEX
  5
11D
  8
CORTE_LASER$CORTE
 10
2092.976232368946
 20
2938.804907329783
 30
0.0
  0
VERTEX
  5
11E
  8
CORTE_LASER$CORTE
 10
2092.965920048065
 20
2938.735638134538
 30
0.0
  0
VERTEX
  5
11F
  8
CORTE_LASER$CORTE
 10
2092.953896660191
 20
2938.666104347878
 30
0.0
  0
VERTEX
  5
120
  8
CORTE_LASER$CORTE
 10
2092.94013459597
 20
2938.596364195097
 30
0.0
  0
VERTEX
  5
121
  8
CORTE_LASER$CORTE
 10
2092.92460865807
 20
2938.526478017895
 30
0.0
  0
VERTEX
  5
122
  8
CORTE_LASER$CORTE
 10
2092.907296228248
 20
2938.456508163668
 30
0.0
  0
VERTEX
  5
123
  8
CORTE_LASER$CORTE
 10
2092.888177429503
 20
2938.386518860578
 30
0.0
  0
VERTEX
  5
124
  8
CORTE_LASER$CORTE
 10
2092.867235282009
 20
2938.316576078475
 30
0.0
  0
VERTEX
  5
125
  8
CORTE_LASER$CORTE
 10
2092.844455851467
 20
2938.246747375968
 30
0.0
  0
VERTEX
  5
126
  8
CORTE_LASER$CORTE
 10
2092.819828388554
 20
2938.177101733989
 30
0.0
  0
VERTEX
  5
127
  8
CORTE_LASER$CORTE
 10
2092.79334545813
 20
2938.107709376428
 30
0.0
  0
VERTEX
  5
128
  8
CORTE_LASER$CORTE
 10
2092.765003056888
 20
2938.038641578475
 30
0.0
  0
VERTEX
  5
129
  8
CORTE_LASER$CORTE
 10
2092.734800718213
 20
2937.96997046351
 30
0.0
  0
VERTEX
  5
12A
  8
CORTE_LASER$CORTE
 10
2092.702741603011
 20
2937.901768789492
 30
0.0
  0
VERTEX
  5
12B
  8
CORTE_LASER$CORTE
 10
2092.668832575432
 20
2937.834109725946
 30
0.0
  0
VERTEX
  5
12C
  8
CORTE_LASER$CORTE
 10
2092.633084262416
 20
2937.76706662276
 30
0.0
  0
VERTEX
  5
12D
  8
CORTE_LASER$CORTE
 10
2092.595511096185
 20
2937.700712772155
 30
0.0
  0
VERTEX
  5
12E
  8
CORTE_LASER$CORTE
 10
2092.556131338863
 20
2937.63512116528
 30
0.0
  0
VERTEX
  5
12F
  8
CORTE_LASER$CORTE
 10
2092.514967088598
 20
2937.570364244958
 30
0.0
  0
VERTEX
  5
130
  8
CORTE_LASER$CORTE
 10
2092.472044266668
 20
2937.506513656255
 30
0.0
  0
VERTEX
  5
131
  8
CORTE_LASER$CORTE
 10
2092.427392585269
 20
2937.443639996544
 30
0.0
  0
VERTEX
  5
132
  8
CORTE_LASER$CORTE
 10
2092.381045495796
 20
2937.381812566801
 30
0.0
  0
VERTEX
  5
133
  8
CORTE_LASER$CORTE
 10
2092.333040117666
 20
2937.321099125916
 30
0.0
  0
VERTEX
  5
134
  8
CORTE_LASER$CORTE
 10
2092.283417147866
 20
2937.261565649786
 30
0.0
  0
VERTEX
  5
135
  8
CORTE_LASER$CORTE
 10
2092.232220751619
 20
2937.203276096937
 30
0.0
  0
VERTEX
  5
136
  8
CORTE_LASER$CORTE
 10
2092.179498434755
 20
2937.146292182411
 30
0.0
  0
VERTEX
  5
137
  8
CORTE_LASER$CORTE
 10
2092.125300898501
 20
2937.090673161554
 30
0.0
  0
VERTEX
  5
138
  8
CORTE_LASER$CORTE
 10
2092.069681877644
 20
2937.0364756253
 30
0.0
  0
VERTEX
  5
139
  8
CORTE_LASER$CORTE
 10
2092.012697963119
 20
2936.983753308436
 30
0.0
  0
VERTEX
  5
13A
  8
CORTE_LASER$CORTE
 10
2091.95440841027
 20
2936.932556912191
 30
0.0
  0
VERTEX
  5
13B
  8
CORTE_LASER$CORTE
 10
2091.89487493414
 20
2936.882933942389
 30
0.0
  0
VERTEX
  5
13C
  8
CORTE_LASER$CORTE
 10
2091.834161493254
 20
2936.834928564259
 30
0.0
  0
VERTEX
  5
13D
  8
CORTE_LASER$CORTE
 10
2091.77233406351
 20
2936.788581474786
 30
0.0
  0
VERTEX
  5
13E
  8
CORTE_LASER$CORTE
 10
2091.709460403799
 20
2936.743929793387
 30
0.0
  0
VERTEX
  5
13F
  8
CORTE_LASER$CORTE
 10
2091.645609815097
 20
2936.701006971457
 30
0.0
  0
VERTEX
  5
140
  8
CORTE_LASER$CORTE
 10
2091.580852894775
 20
2936.659842721192
 30
0.0
  0
VERTEX
  5
141
  8
CORTE_LASER$CORTE
 10
2091.5152612879
 20
2936.620462963871
 30
0.0
  0
VERTEX
  5
142
  8
CORTE_LASER$CORTE
 10
2091.448907437297
 20
2936.58288979764
 30
0.0
  0
VERTEX
  5
143
  8
CORTE_LASER$CORTE
 10
2091.38186433411
 20
2936.547141484624
 30
0.0
  0
VERTEX
  5
144
  8
CORTE_LASER$CORTE
 10
2091.314205270564
 20
2936.513232457045
 30
0.0
  0
VERTEX
  5
145
  8
CORTE_LASER$CORTE
 10
2091.246003596547
 20
2936.481173341844
 30
0.0
  0
VERTEX
  5
146
  8
CORTE_LASER$CORTE
 10
2091.177332481581
 20
2936.450971003168
 30
0.0
  0
VERTEX
  5
147
  8
CORTE_LASER$CORTE
 10
2091.108264683628
 20
2936.422628601927
 30
0.0
  0
VERTEX
  5
148
  8
CORTE_LASER$CORTE
 10
2091.038872326067
 20
2936.396145671501
 30
0.0
  0
VERTEX
  5
149
  8
CORTE_LASER$CORTE
 10
2090.969226684088
 20
2936.371518208588
 30
0.0
  0
VERTEX
  5
14A
  8
CORTE_LASER$CORTE
 10
2090.89939798158
 20
2936.348738778046
 30
0.0
  0
VERTEX
  5
14B
  8
CORTE_LASER$CORTE
 10
2090.829455199478
 20
2936.327796630553
 30
0.0
  0
VERTEX
  5
14C
  8
CORTE_LASER$CORTE
 10
2090.759465896388
 20
2936.308677831809
 30
0.0
  0
VERTEX
  5
14D
  8
CORTE_LASER$CORTE
 10
2090.689496042161
 20
2936.291365401985
 30
0.0
  0
VERTEX
  5
14E
  8
CORTE_LASER$CORTE
 10
2090.619609864958
 20
2936.275839464085
 30
0.0
  0
VERTEX
  5
14F
  8
CORTE_LASER$CORTE
 10
2090.549869712178
 20
2936.262077399864
 30
0.0
  0
VERTEX
  5
150
  8
CORTE_LASER$CORTE
 10
2090.480335925516
 20
2936.25005401199
 30
0.0
  0
VERTEX
  5
151
  8
CORTE_LASER$CORTE
 10
2090.411066730273
 20
2936.239741691109
 30
0.0
  0
VERTEX
  5
152
  8
CORTE_LASER$CORTE
 10
2090.342118138893
 20
2936.231110586527
 30
0.0
  0
VERTEX
  5
153
  8
CORTE_LASER$CORTE
 10
2090.273543868635
 20
2936.224128779274
 30
0.0
  0
VERTEX
  5
154
  8
CORTE_LASER$CORTE
 10
2090.20539527311
 20
2936.218762456346
 30
0.0
  0
VERTEX
  5
155
  8
CORTE_LASER$CORTE
 10
2090.137721287387
 20
2936.214976084996
 30
0.0
  0
VERTEX
  5
156
  8
CORTE_LASER$CORTE
 10
2090.070568386226
 20
2936.212732586033
 30
0.0
  0
VERTEX
  5
157
  8
CORTE_LASER$CORTE
 10
2090.003980554942
 20
2936.211993505113
 30
0.0
  0
VERTEX
  5
158
  8
CORTE_LASER$CORTE
 10
2030.003980554942
 20
2936.211993505113
 30
0.0
  0
VERTEX
  5
159
  8
CORTE_LASER$CORTE
 10
2029.937392723657
 20
2936.212732586033
 30
0.0
  0
VERTEX
  5
15A
  8
CORTE_LASER$CORTE
 10
2029.870239822495
 20
2936.214976084996
 30
0.0
  0
VERTEX
  5
15B
  8
CORTE_LASER$CORTE
 10
2029.802565836774
 20
2936.218762456346
 30
0.0
  0
VERTEX
  5
15C
  8
CORTE_LASER$CORTE
 10
2029.734417241249
 20
2936.224128779274
 30
0.0
  0
VERTEX
  5
15D
  8
CORTE_LASER$CORTE
 10
2029.66584297099
 20
2936.231110586527
 30
0.0
  0
VERTEX
  5
15E
  8
CORTE_LASER$CORTE
 10
2029.596894379611
 20
2936.239741691109
 30
0.0
  0
VERTEX
  5
15F
  8
CORTE_LASER$CORTE
 10
2029.527625184367
 20
2936.25005401199
 30
0.0
  0
VERTEX
  5
160
  8
CORTE_LASER$CORTE
 10
2029.458091397706
 20
2936.262077399864
 30
0.0
  0
VERTEX
  5
161
  8
CORTE_LASER$CORTE
 10
2029.388351244925
 20
2936.275839464085
 30
0.0
  0
VERTEX
  5
162
  8
CORTE_LASER$CORTE
 10
2029.318465067723
 20
2936.291365401985
 30
0.0
  0
VERTEX
  5
163
  8
CORTE_LASER$CORTE
 10
2029.248495213497
 20
2936.308677831809
 30
0.0
  0
VERTEX
  5
164
  8
CORTE_LASER$CORTE
 10
2029.178505910406
 20
2936.327796630553
 30
0.0
  0
VERTEX
  5
165
  8
CORTE_LASER$CORTE
 10
2029.108563128304
 20
2936.348738778046
 30
0.0
  0
VERTEX
  5
166
  8
CORTE_LASER$CORTE
 10
2029.038734425796
 20
2936.371518208588
 30
0.0
  0
VERTEX
  5
167
  8
CORTE_LASER$CORTE
 10
2028.969088783817
 20
2936.396145671501
 30
0.0
  0
VERTEX
  5
168
  8
CORTE_LASER$CORTE
 10
2028.899696426256
 20
2936.422628601927
 30
0.0
  0
VERTEX
  5
169
  8
CORTE_LASER$CORTE
 10
2028.830628628303
 20
2936.450971003168
 30
0.0
  0
VERTEX
  5
16A
  8
CORTE_LASER$CORTE
 10
2028.761957513337
 20
2936.481173341844
 30
0.0
  0
VERTEX
  5
16B
  8
CORTE_LASER$CORTE
 10
2028.69375583932
 20
2936.513232457045
 30
0.0
  0
VERTEX
  5
16C
  8
CORTE_LASER$CORTE
 10
2028.626096775774
 20
2936.547141484625
 30
0.0
  0
VERTEX
  5
16D
  8
CORTE_LASER$CORTE
 10
2028.559053672588
 20
2936.582889797641
 30
0.0
  0
VERTEX
  5
16E
  8
CORTE_LASER$CORTE
 10
2028.492699821984
 20
2936.620462963872
 30
0.0
  0
VERTEX
  5
16F
  8
CORTE_LASER$CORTE
 10
2028.427108215109
 20
2936.659842721193
 30
0.0
  0
VERTEX
  5
170
  8
CORTE_LASER$CORTE
 10
2028.362351294786
 20
2936.701006971458
 30
0.0
  0
VERTEX
  5
171
  8
CORTE_LASER$CORTE
 10
2028.298500706084
 20
2936.743929793387
 30
0.0
  0
VERTEX
  5
172
  8
CORTE_LASER$CORTE
 10
2028.235627046373
 20
2936.788581474786
 30
0.0
  0
VERTEX
  5
173
  8
CORTE_LASER$CORTE
 10
2028.17379961663
 20
2936.83492856426
 30
0.0
  0
VERTEX
  5
174
  8
CORTE_LASER$CORTE
 10
2028.113086175744
 20
2936.88293394239
 30
0.0
  0
VERTEX
  5
175
  8
CORTE_LASER$CORTE
 10
2028.053552699613
 20
2936.932556912191
 30
0.0
  0
VERTEX
  5
176
  8
CORTE_LASER$CORTE
 10
2027.995263146765
 20
2936.983753308437
 30
0.0
  0
VERTEX
  5
177
  8
CORTE_LASER$CORTE
 10
2027.93827923224
 20
2937.036475625301
 30
0.0
  0
VERTEX
  5
178
  8
CORTE_LASER$CORTE
 10
2027.882660211382
 20
2937.090673161554
 30
0.0
  0
VERTEX
  5
179
  8
CORTE_LASER$CORTE
 10
2027.828462675129
 20
2937.146292182412
 30
0.0
  0
VERTEX
  5
17A
  8
CORTE_LASER$CORTE
 10
2027.775740358265
 20
2937.203276096938
 30
0.0
  0
VERTEX
  5
17B
  8
CORTE_LASER$CORTE
 10
2027.724543962019
 20
2937.261565649786
 30
0.0
  0
VERTEX
  5
17C
  8
CORTE_LASER$CORTE
 10
2027.674920992217
 20
2937.321099125917
 30
0.0
  0
VERTEX
  5
17D
  8
CORTE_LASER$CORTE
 10
2027.626915614087
 20
2937.381812566802
 30
0.0
  0
VERTEX
  5
17E
  8
CORTE_LASER$CORTE
 10
2027.580568524614
 20
2937.443639996545
 30
0.0
  0
VERTEX
  5
17F
  8
CORTE_LASER$CORTE
 10
2027.535916843215
 20
2937.506513656256
 30
0.0
  0
VERTEX
  5
180
  8
CORTE_LASER$CORTE
 10
2027.492994021285
 20
2937.570364244958
 30
0.0
  0
VERTEX
  5
181
  8
CORTE_LASER$CORTE
 10
2027.451829771021
 20
2937.635121165282
 30
0.0
  0
VERTEX
  5
182
  8
CORTE_LASER$CORTE
 10
2027.4124500137
 20
2937.700712772157
 30
0.0
  0
VERTEX
  5
183
  8
CORTE_LASER$CORTE
 10
2027.374876847469
 20
2937.76706662276
 30
0.0
  0
VERTEX
  5
184
  8
CORTE_LASER$CORTE
 10
2027.339128534453
 20
2937.834109725946
 30
0.0
  0
VERTEX
  5
185
  8
CORTE_LASER$CORTE
 10
2027.305219506873
 20
2937.901768789492
 30
0.0
  0
VERTEX
  5
186
  8
CORTE_LASER$CORTE
 10
2027.273160391672
 20
2937.96997046351
 30
0.0
  0
VERTEX
  5
187
  8
CORTE_LASER$CORTE
 10
2027.242958052996
 20
2938.038641578475
 30
0.0
  0
VERTEX
  5
188
  8
CORTE_LASER$CORTE
 10
2027.214615651755
 20
2938.107709376428
 30
0.0
  0
VERTEX
  5
189
  8
CORTE_LASER$CORTE
 10
2027.18813272133
 20
2938.177101733989
 30
0.0
  0
VERTEX
  5
18A
  8
CORTE_LASER$CORTE
 10
2027.163505258417
 20
2938.246747375968
 30
0.0
  0
VERTEX
  5
18B
  8
CORTE_LASER$CORTE
 10
2027.140725827875
 20
2938.316576078475
 30
0.0
  0
VERTEX
  5
18C
  8
CORTE_LASER$CORTE
 10
2027.119783680381
 20
2938.386518860578
 30
0.0
  0
VERTEX
  5
18D
  8
CORTE_LASER$CORTE
 10
2027.100664881637
 20
2938.456508163668
 30
0.0
  0
VERTEX
  5
18E
  8
CORTE_LASER$CORTE
 10
2027.083352451814
 20
2938.526478017895
 30
0.0
  0
VERTEX
  5
18F
  8
CORTE_LASER$CORTE
 10
2027.067826513913
 20
2938.596364195097
 30
0.0
  0
VERTEX
  5
190
  8
CORTE_LASER$CORTE
 10
2027.054064449692
 20
2938.666104347878
 30
0.0
  0
VERTEX
  5
191
  8
CORTE_LASER$CORTE
 10
2027.042041061818
 20
2938.735638134538
 30
0.0
  0
VERTEX
  5
192
  8
CORTE_LASER$CORTE
 10
2027.031728740937
 20
2938.804907329783
 30
0.0
  0
VERTEX
  5
193
  8
CORTE_LASER$CORTE
 10
2027.023097636355
 20
2938.873855921162
 30
0.0
  0
VERTEX
  5
194
  8
CORTE_LASER$CORTE
 10
2027.016115829103
 20
2938.94243019142
 30
0.0
  0
VERTEX
  5
195
  8
CORTE_LASER$CORTE
 10
2027.010749506175
 20
2939.010578786945
 30
0.0
  0
VERTEX
  5
196
  8
CORTE_LASER$CORTE
 10
2027.006963134824
 20
2939.078252772667
 30
0.0
  0
VERTEX
  5
197
  8
CORTE_LASER$CORTE
 10
2027.004719635861
 20
2939.145405673829
 30
0.0
  0
VERTEX
  5
198
  8
CORTE_LASER$CORTE
 10
2027.003980554942
 20
2939.211993505113
 30
0.0
  0
SEQEND
  5
199
  8
CORTE_LASER$CORTE
  0
CIRCLE
  5
19A
  8
CORTE_LASER$CORTE
 10
2035.499999999487
 20
2964.711993505113
 30
0.0
 40
1.75
  0
CIRCLE
  5
19B
  8
CORTE_LASER$CORTE
 10
2084.499999999487
 20
2964.711993505113
 30
0.0
 40
1.75
  0
POLYLINE
  5
19C
  8
CORTE_LASER$CORTE
 66
     1
 10
0.0
 20
0.0
 30
0.0
 70
     1
  0
VERTEX
  5
19D
  8
CORTE_LASER$CORTE
 10
2025.003980554942
 20
2975.273346323107
 30
0.0
  0
VERTEX
  5
19E
  8
CORTE_LASER$CORTE
 10
2091.003980554942
 20
2975.273346323108
 30
0.0
  0
VERTEX
  5
19F
  8
CORTE_LASER$CORTE
 10
2091.003980554942
 20
2982.711993505113
 30
0.0
  0
VERTEX
  5
1A0
  8
CORTE_LASER$CORTE
 10
2091.003241474022
 20
2982.778581336398
 30
0.0
  0
VERTEX
  5
1A1
  8
CORTE_LASER$CORTE
 10
2091.000997975058
 20
2982.845734237559
 30
0.0
  0
VERTEX
  5
1A2
  8
CORTE_LASER$CORTE
 10
2090.997211603709
 20
2982.913408223281
 30
0.0
  0
VERTEX
  5
1A3
  8
CORTE_LASER$CORTE
 10
2090.99184528078
 20
2982.981556818806
 30
0.0
  0
VERTEX
  5
1A4
  8
CORTE_LASER$CORTE
 10
2090.984863473528
 20
2983.050131089065
 30
0.0
  0
VERTEX
  5
1A5
  8
CORTE_LASER$CORTE
 10
2090.976232368947
 20
2983.119079680444
 30
0.0
  0
VERTEX
  5
1A6
  8
CORTE_LASER$CORTE
 10
2090.965920048065
 20
2983.188348875688
 30
0.0
  0
VERTEX
  5
1A7
  8
CORTE_LASER$CORTE
 10
2090.953896660192
 20
2983.257882662349
 30
0.0
  0
VERTEX
  5
1A8
  8
CORTE_LASER$CORTE
 10
2090.94013459597
 20
2983.32762281513
 30
0.0
  0
VERTEX
  5
1A9
  8
CORTE_LASER$CORTE
 10
2090.92460865807
 20
2983.397508992332
 30
0.0
  0
VERTEX
  5
1AA
  8
CORTE_LASER$CORTE
 10
2090.907296228248
 20
2983.467478846559
 30
0.0
  0
VERTEX
  5
1AB
  8
CORTE_LASER$CORTE
 10
2090.888177429503
 20
2983.537468149649
 30
0.0
  0
VERTEX
  5
1AC
  8
CORTE_LASER$CORTE
 10
2090.867235282009
 20
2983.607410931751
 30
0.0
  0
VERTEX
  5
1AD
  8
CORTE_LASER$CORTE
 10
2090.844455851467
 20
2983.677239634259
 30
0.0
  0
VERTEX
  5
1AE
  8
CORTE_LASER$CORTE
 10
2090.819828388554
 20
2983.746885276238
 30
0.0
  0
VERTEX
  5
1AF
  8
CORTE_LASER$CORTE
 10
2090.793345458129
 20
2983.816277633799
 30
0.0
  0
VERTEX
  5
1B0
  8
CORTE_LASER$CORTE
 10
2090.765003056888
 20
2983.885345431753
 30
0.0
  0
VERTEX
  5
1B1
  8
CORTE_LASER$CORTE
 10
2090.734800718212
 20
2983.954016546719
 30
0.0
  0
VERTEX
  5
1B2
  8
CORTE_LASER$CORTE
 10
2090.702741603011
 20
2984.022218220736
 30
0.0
  0
VERTEX
  5
1B3
  8
CORTE_LASER$CORTE
 10
2090.668832575431
 20
2984.089877284282
 30
0.0
  0
VERTEX
  5
1B4
  8
CORTE_LASER$CORTE
 10
2090.633084262416
 20
2984.156920387469
 30
0.0
  0
VERTEX
  5
1B5
  8
CORTE_LASER$CORTE
 10
2090.595511096185
 20
2984.223274238072
 30
0.0
  0
VERTEX
  5
1B6
  8
CORTE_LASER$CORTE
 10
2090.556131338863
 20
2984.288865844947
 30
0.0
  0
VERTEX
  5
1B7
  8
CORTE_LASER$CORTE
 10
2090.514967088598
 20
2984.353622765268
 30
0.0
  0
VERTEX
  5
1B8
  8
CORTE_LASER$CORTE
 10
2090.472044266668
 20
2984.417473353971
 30
0.0
  0
VERTEX
  5
1B9
  8
CORTE_LASER$CORTE
 10
2090.427392585269
 20
2984.480347013682
 30
0.0
  0
VERTEX
  5
1BA
  8
CORTE_LASER$CORTE
 10
2090.381045495796
 20
2984.542174443426
 30
0.0
  0
VERTEX
  5
1BB
  8
CORTE_LASER$CORTE
 10
2090.333040117666
 20
2984.602887884312
 30
0.0
  0
VERTEX
  5
1BC
  8
CORTE_LASER$CORTE
 10
2090.283417147865
 20
2984.662421360443
 30
0.0
  0
VERTEX
  5
1BD
  8
CORTE_LASER$CORTE
 10
2090.232220751619
 20
2984.720710913291
 30
0.0
  0
VERTEX
  5
1BE
  8
CORTE_LASER$CORTE
 10
2090.179498434755
 20
2984.777694827816
 30
0.0
  0
VERTEX
  5
1BF
  8
CORTE_LASER$CORTE
 10
2090.125300898501
 20
2984.833313848673
 30
0.0
  0
VERTEX
  5
1C0
  8
CORTE_LASER$CORTE
 10
2090.069681877644
 20
2984.887511384927
 30
0.0
  0
VERTEX
  5
1C1
  8
CORTE_LASER$CORTE
 10
2090.012697963119
 20
2984.940233701791
 30
0.0
  0
VERTEX
  5
1C2
  8
CORTE_LASER$CORTE
 10
2089.95440841027
 20
2984.991430098038
 30
0.0
  0
VERTEX
  5
1C3
  8
CORTE_LASER$CORTE
 10
2089.89487493414
 20
2985.041053067839
 30
0.0
  0
VERTEX
  5
1C4
  8
CORTE_LASER$CORTE
 10
2089.834161493254
 20
2985.089058445968
 30
0.0
  0
VERTEX
  5
1C5
  8
CORTE_LASER$CORTE
 10
2089.77233406351
 20
2985.13540553544
 30
0.0
  0
VERTEX
  5
1C6
  8
CORTE_LASER$CORTE
 10
2089.709460403799
 20
2985.180057216839
 30
0.0
  0
VERTEX
  5
1C7
  8
CORTE_LASER$CORTE
 10
2089.645609815097
 20
2985.222980038769
 30
0.0
  0
VERTEX
  5
1C8
  8
CORTE_LASER$CORTE
 10
2089.580852894775
 20
2985.264144289035
 30
0.0
  0
VERTEX
  5
1C9
  8
CORTE_LASER$CORTE
 10
2089.5152612879
 20
2985.303524046356
 30
0.0
  0
VERTEX
  5
1CA
  8
CORTE_LASER$CORTE
 10
2089.448907437296
 20
2985.341097212588
 30
0.0
  0
VERTEX
  5
1CB
  8
CORTE_LASER$CORTE
 10
2089.38186433411
 20
2985.376845525603
 30
0.0
  0
VERTEX
  5
1CC
  8
CORTE_LASER$CORTE
 10
2089.314205270564
 20
2985.410754553183
 30
0.0
  0
VERTEX
  5
1CD
  8
CORTE_LASER$CORTE
 10
2089.246003596546
 20
2985.442813668385
 30
0.0
  0
VERTEX
  5
1CE
  8
CORTE_LASER$CORTE
 10
2089.177332481581
 20
2985.47301600706
 30
0.0
  0
VERTEX
  5
1CF
  8
CORTE_LASER$CORTE
 10
2089.108264683628
 20
2985.501358408301
 30
0.0
  0
VERTEX
  5
1D0
  8
CORTE_LASER$CORTE
 10
2089.038872326066
 20
2985.527841338726
 30
0.0
  0
VERTEX
  5
1D1
  8
CORTE_LASER$CORTE
 10
2088.969226684088
 20
2985.552468801638
 30
0.0
  0
VERTEX
  5
1D2
  8
CORTE_LASER$CORTE
 10
2088.89939798158
 20
2985.57524823218
 30
0.0
  0
VERTEX
  5
1D3
  8
CORTE_LASER$CORTE
 10
2088.829455199478
 20
2985.596190379674
 30
0.0
  0
VERTEX
  5
1D4
  8
CORTE_LASER$CORTE
 10
2088.759465896388
 20
2985.615309178419
 30
0.0
  0
VERTEX
  5
1D5
  8
CORTE_LASER$CORTE
 10
2088.689496042161
 20
2985.632621608242
 30
0.0
  0
VERTEX
  5
1D6
  8
CORTE_LASER$CORTE
 10
2088.619609864958
 20
2985.648147546141
 30
0.0
  0
VERTEX
  5
1D7
  8
CORTE_LASER$CORTE
 10
2088.549869712178
 20
2985.661909610363
 30
0.0
  0
VERTEX
  5
1D8
  8
CORTE_LASER$CORTE
 10
2088.480335925516
 20
2985.673932998237
 30
0.0
  0
VERTEX
  5
1D9
  8
CORTE_LASER$CORTE
 10
2088.411066730273
 20
2985.684245319118
 30
0.0
  0
VERTEX
  5
1DA
  8
CORTE_LASER$CORTE
 10
2088.342118138893
 20
2985.6928764237
 30
0.0
  0
VERTEX
  5
1DB
  8
CORTE_LASER$CORTE
 10
2088.273543868635
 20
2985.699858230952
 30
0.0
  0
VERTEX
  5
1DC
  8
CORTE_LASER$CORTE
 10
2088.20539527311
 20
2985.705224553881
 30
0.0
  0
VERTEX
  5
1DD
  8
CORTE_LASER$CORTE
 10
2088.137721287388
 20
2985.70901092523
 30
0.0
  0
VERTEX
  5
1DE
  8
CORTE_LASER$CORTE
 10
2088.070568386227
 20
2985.711254424195
 30
0.0
  0
VERTEX
  5
1DF
  8
CORTE_LASER$CORTE
 10
2088.003980554942
 20
2985.711993505113
 30
0.0
  0
VERTEX
  5
1E0
  8
CORTE_LASER$CORTE
 10
2028.003980554942
 20
2985.711993505113
 30
0.0
  0
VERTEX
  5
1E1
  8
CORTE_LASER$CORTE
 10
2027.937392723657
 20
2985.711254424195
 30
0.0
  0
VERTEX
  5
1E2
  8
CORTE_LASER$CORTE
 10
2027.870239822496
 20
2985.70901092523
 30
0.0
  0
VERTEX
  5
1E3
  8
CORTE_LASER$CORTE
 10
2027.802565836774
 20
2985.705224553881
 30
0.0
  0
VERTEX
  5
1E4
  8
CORTE_LASER$CORTE
 10
2027.734417241249
 20
2985.699858230952
 30
0.0
  0
VERTEX
  5
1E5
  8
CORTE_LASER$CORTE
 10
2027.66584297099
 20
2985.6928764237
 30
0.0
  0
VERTEX
  5
1E6
  8
CORTE_LASER$CORTE
 10
2027.596894379611
 20
2985.684245319118
 30
0.0
  0
VERTEX
  5
1E7
  8
CORTE_LASER$CORTE
 10
2027.527625184367
 20
2985.673932998237
 30
0.0
  0
VERTEX
  5
1E8
  8
CORTE_LASER$CORTE
 10
2027.458091397705
 20
2985.661909610363
 30
0.0
  0
VERTEX
  5
1E9
  8
CORTE_LASER$CORTE
 10
2027.388351244925
 20
2985.648147546141
 30
0.0
  0
VERTEX
  5
1EA
  8
CORTE_LASER$CORTE
 10
2027.318465067723
 20
2985.632621608242
 30
0.0
  0
VERTEX
  5
1EB
  8
CORTE_LASER$CORTE
 10
2027.248495213497
 20
2985.615309178419
 30
0.0
  0
VERTEX
  5
1EC
  8
CORTE_LASER$CORTE
 10
2027.178505910406
 20
2985.596190379674
 30
0.0
  0
VERTEX
  5
1ED
  8
CORTE_LASER$CORTE
 10
2027.108563128304
 20
2985.57524823218
 30
0.0
  0
VERTEX
  5
1EE
  8
CORTE_LASER$CORTE
 10
2027.038734425796
 20
2985.552468801638
 30
0.0
  0
VERTEX
  5
1EF
  8
CORTE_LASER$CORTE
 10
2026.969088783817
 20
2985.527841338726
 30
0.0
  0
VERTEX
  5
1F0
  8
CORTE_LASER$CORTE
 10
2026.899696426256
 20
2985.501358408301
 30
0.0
  0
VERTEX
  5
1F1
  8
CORTE_LASER$CORTE
 10
2026.830628628303
 20
2985.47301600706
 30
0.0
  0
VERTEX
  5
1F2
  8
CORTE_LASER$CORTE
 10
2026.761957513338
 20
2985.442813668385
 30
0.0
  0
VERTEX
  5
1F3
  8
CORTE_LASER$CORTE
 10
2026.69375583932
 20
2985.410754553183
 30
0.0
  0
VERTEX
  5
1F4
  8
CORTE_LASER$CORTE
 10
2026.626096775774
 20
2985.376845525603
 30
0.0
  0
VERTEX
  5
1F5
  8
CORTE_LASER$CORTE
 10
2026.559053672588
 20
2985.341097212588
 30
0.0
  0
VERTEX
  5
1F6
  8
CORTE_LASER$CORTE
 10
2026.492699821985
 20
2985.303524046356
 30
0.0
  0
VERTEX
  5
1F7
  8
CORTE_LASER$CORTE
 10
2026.427108215109
 20
2985.264144289035
 30
0.0
  0
VERTEX
  5
1F8
  8
CORTE_LASER$CORTE
 10
2026.362351294786
 20
2985.222980038769
 30
0.0
  0
VERTEX
  5
1F9
  8
CORTE_LASER$CORTE
 10
2026.298500706084
 20
2985.180057216839
 30
0.0
  0
VERTEX
  5
1FA
  8
CORTE_LASER$CORTE
 10
2026.235627046373
 20
2985.13540553544
 30
0.0
  0
VERTEX
  5
1FB
  8
CORTE_LASER$CORTE
 10
2026.17379961663
 20
2985.089058445968
 30
0.0
  0
VERTEX
  5
1FC
  8
CORTE_LASER$CORTE
 10
2026.113086175745
 20
2985.041053067839
 30
0.0
  0
VERTEX
  5
1FD
  8
CORTE_LASER$CORTE
 10
2026.053552699614
 20
2984.991430098038
 30
0.0
  0
VERTEX
  5
1FE
  8
CORTE_LASER$CORTE
 10
2025.995263146766
 20
2984.940233701791
 30
0.0
  0
VERTEX
  5
1FF
  8
CORTE_LASER$CORTE
 10
2025.93827923224
 20
2984.887511384927
 30
0.0
  0
VERTEX
  5
200
  8
CORTE_LASER$CORTE
 10
2025.882660211382
 20
2984.833313848673
 30
0.0
  0
VERTEX
  5
201
  8
CORTE_LASER$CORTE
 10
2025.828462675129
 20
2984.777694827816
 30
0.0
  0
VERTEX
  5
202
  8
CORTE_LASER$CORTE
 10
2025.775740358265
 20
2984.720710913291
 30
0.0
  0
VERTEX
  5
203
  8
CORTE_LASER$CORTE
 10
2025.724543962019
 20
2984.662421360443
 30
0.0
  0
VERTEX
  5
204
  8
CORTE_LASER$CORTE
 10
2025.674920992218
 20
2984.602887884312
 30
0.0
  0
VERTEX
  5
205
  8
CORTE_LASER$CORTE
 10
2025.626915614088
 20
2984.542174443426
 30
0.0
  0
VERTEX
  5
206
  8
CORTE_LASER$CORTE
 10
2025.580568524615
 20
2984.480347013682
 30
0.0
  0
VERTEX
  5
207
  8
CORTE_LASER$CORTE
 10
2025.535916843215
 20
2984.417473353971
 30
0.0
  0
VERTEX
  5
208
  8
CORTE_LASER$CORTE
 10
2025.492994021286
 20
2984.353622765268
 30
0.0
  0
VERTEX
  5
209
  8
CORTE_LASER$CORTE
 10
2025.451829771021
 20
2984.288865844947
 30
0.0
  0
VERTEX
  5
20A
  8
CORTE_LASER$CORTE
 10
2025.4124500137
 20
2984.223274238072
 30
0.0
  0
VERTEX
  5
20B
  8
CORTE_LASER$CORTE
 10
2025.374876847469
 20
2984.156920387469
 30
0.0
  0
VERTEX
  5
20C
  8
CORTE_LASER$CORTE
 10
2025.339128534453
 20
2984.089877284282
 30
0.0
  0
VERTEX
  5
20D
  8
CORTE_LASER$CORTE
 10
2025.305219506873
 20
2984.022218220736
 30
0.0
  0
VERTEX
  5
20E
  8
CORTE_LASER$CORTE
 10
2025.273160391672
 20
2983.954016546719
 30
0.0
  0
VERTEX
  5
20F
  8
CORTE_LASER$CORTE
 10
2025.242958052996
 20
2983.885345431753
 30
0.0
  0
VERTEX
  5
210
  8
CORTE_LASER$CORTE
 10
2025.214615651755
 20
2983.816277633799
 30
0.0
  0
VERTEX
  5
211
  8
CORTE_LASER$CORTE
 10
2025.18813272133
 20
2983.746885276238
 30
0.0
  0
VERTEX
  5
212
  8
CORTE_LASER$CORTE
 10
2025.163505258417
 20
2983.677239634259
 30
0.0
  0
VERTEX
  5
213
  8
CORTE_LASER$CORTE
 10
2025.140725827875
 20
2983.607410931751
 30
0.0
  0
VERTEX
  5
214
  8
CORTE_LASER$CORTE
 10
2025.119783680381
 20
2983.537468149649
 30
0.0
  0
VERTEX
  5
215
  8
CORTE_LASER$CORTE
 10
2025.100664881637
 20
2983.467478846559
 30
0.0
  0
VERTEX
  5
216
  8
CORTE_LASER$CORTE
 10
2025.083352451814
 20
2983.397508992332
 30
0.0
  0
VERTEX
  5
217
  8
CORTE_LASER$CORTE
 10
2025.067826513913
 20
2983.32762281513
 30
0.0
  0
VERTEX
  5
218
  8
CORTE_LASER$CORTE
 10
2025.054064449692
 20
2983.257882662349
 30
0.0
  0
VERTEX
  5
219
  8
CORTE_LASER$CORTE
 10
2025.042041061818
 20
2983.188348875688
 30
0.0
  0
VERTEX
  5
21A
  8
CORTE_LASER$CORTE
 10
2025.031728740937
 20
2983.119079680444
 30
0.0
  0
VERTEX
  5
21B
  8
CORTE_LASER$CORTE
 10
2025.023097636355
 20
2983.050131089065
 30
0.0
  0
VERTEX
  5
21C
  8
CORTE_LASER$CORTE
 10
2025.016115829103
 20
2982.981556818806
 30
0.0
  0
VERTEX
  5
21D
  8
CORTE_LASER$CORTE
 10
2025.010749506175
 20
2982.913408223281
 30
0.0
  0
VERTEX
  5
21E
  8
CORTE_LASER$CORTE
 10
2025.006963134825
 20
2982.845734237559
 30
0.0
  0
VERTEX
  5
21F
  8
CORTE_LASER$CORTE
 10
2025.004719635861
 20
2982.778581336398
 30
0.0
  0
VERTEX
  5
220
  8
CORTE_LASER$CORTE
 10
2025.003980554942
 20
2982.711993505113
 30
0.0
  0
SEQEND
  5
221
  8
CORTE_LASER$CORTE
  0
CIRCLE
  5
222
  8
CORTE_LASER$CORTE
 10
2082.499999999487
 20
2978.711993505113
 30
0.0
 40
1.75
  0
CIRCLE
  5
223
  8
CORTE_LASER$CORTE
 10
2033.499999999487
 20
2978.711993505113
 30
0.0
 40
1.75
  0
POLYLINE
  5
224
  8
CORTE_LASER$CORTE
 66
     1
 10
0.0
 20
0.0
 30
0.0
 70
     1
  0
VERTEX
  5
225
  8
CORTE_LASER$CORTE
 10
2010.499999999487
 20
2939.711993505113
 30
0.0
  0
VERTEX
  5
226
  8
CORTE_LASER$CORTE
 10
2010.499999999487
 20
2943.711993505113
 30
0.0
  0
VERTEX
  5
227
  8
CORTE_LASER$CORTE
 10
2010.501748932389
 20
2943.814416835671
 30
0.0
  0
VERTEX
  5
228
  8
CORTE_LASER$CORTE
 10
2010.506993691916
 20
2943.916720745207
 30
0.0
  0
VERTEX
  5
229
  8
CORTE_LASER$CORTE
 10
2010.515728162913
 20
2944.018785951939
 30
0.0
  0
VERTEX
  5
22A
  8
CORTE_LASER$CORTE
 10
2010.527942161378
 20
2944.120493452402
 30
0.0
  0
VERTEX
  5
22B
  8
CORTE_LASER$CORTE
 10
2010.543621446336
 20
2944.221724660199
 30
0.0
  0
VERTEX
  5
22C
  8
CORTE_LASER$CORTE
 10
2010.562747736441
 20
2944.322361544271
 30
0.0
  0
VERTEX
  5
22D
  8
CORTE_LASER$CORTE
 10
2010.585298731294
 20
2944.422286766513
 30
0.0
  0
VERTEX
  5
22E
  8
CORTE_LASER$CORTE
 10
2010.611248137444
 20
2944.521383818584
 30
0.0
  0
VERTEX
  5
22F
  8
CORTE_LASER$CORTE
 10
2010.640565699045
 20
2944.619537157756
 30
0.0
  0
VERTEX
  5
230
  8
CORTE_LASER$CORTE
 10
2010.673217233131
 20
2944.716632341626
 30
0.0
  0
VERTEX
  5
231
  8
CORTE_LASER$CORTE
 10
2010.709164669474
 20
2944.812556161552
 30
0.0
  0
VERTEX
  5
232
  8
CORTE_LASER$CORTE
 10
2010.748366094971
 20
2944.907196774652
 30
0.0
  0
VERTEX
  5
233
  8
CORTE_LASER$CORTE
 10
2010.790775802514
 20
2945.000443834203
 30
0.0
  0
VERTEX
  5
234
  8
CORTE_LASER$CORTE
 10
2010.83634434428
 20
2945.092188618307
 30
0.0
  0
VERTEX
  5
235
  8
CORTE_LASER$CORTE
 10
2010.885018589389
 20
2945.182324156647
 30
0.0
  0
VERTEX
  5
236
  8
CORTE_LASER$CORTE
 10
2010.936741785848
 20
2945.270745355219
 30
0.0
  0
VERTEX
  5
237
  8
CORTE_LASER$CORTE
 10
2010.991453626723
 20
2945.357349118861
 30
0.0
  0
VERTEX
  5
238
  8
CORTE_LASER$CORTE
 10
2011.049090320456
 20
2945.442034471458
 30
0.0
  0
VERTEX
  5
239
  8
CORTE_LASER$CORTE
 10
2011.10958466524
 20
2945.524702673677
 30
0.0
  0
VERTEX
  5
23A
  8
CORTE_LASER$CORTE
 10
2011.172866127374
 20
2945.605257338091
 30
0.0
  0
VERTEX
  5
23B
  8
CORTE_LASER$CORTE
 10
2011.238860923505
 20
2945.683604541567
 30
0.0
  0
VERTEX
  5
23C
  8
CORTE_LASER$CORTE
 10
2011.307492106653
 20
2945.759652934769
 30
0.0
  0
VERTEX
  5
23D
  8
CORTE_LASER$CORTE
 10
2011.378679655928
 20
2945.833313848673
 30
0.0
  0
VERTEX
  5
23E
  8
CORTE_LASER$CORTE
 10
2011.452340569831
 20
2945.904501397948
 30
0.0
  0
VERTEX
  5
23F
  8
CORTE_LASER$CORTE
 10
2011.528388963034
 20
2945.973132581095
 30
0.0
  0
VERTEX
  5
240
  8
CORTE_LASER$CORTE
 10
2011.606736166509
 20
2946.039127377227
 30
0.0
  0
VERTEX
  5
241
  8
CORTE_LASER$CORTE
 10
2011.687290830924
 20
2946.102408839361
 30
0.0
  0
VERTEX
  5
242
  8
CORTE_LASER$CORTE
 10
2011.769959033143
 20
2946.162903184144
 30
0.0
  0
VERTEX
  5
243
  8
CORTE_LASER$CORTE
 10
2011.854644385739
 20
2946.220539877877
 30
0.0
  0
VERTEX
  5
244
  8
CORTE_LASER$CORTE
 10
2011.941248149381
 20
2946.275251718753
 30
0.0
  0
VERTEX
  5
245
  8
CORTE_LASER$CORTE
 10
2012.029669347953
 20
2946.326974915211
 30
0.0
  0
VERTEX
  5
246
  8
CORTE_LASER$CORTE
 10
2012.119804886294
 20
2946.37564916032
 30
0.0
  0
VERTEX
  5
247
  8
CORTE_LASER$CORTE
 10
2012.211549670397
 20
2946.421217702087
 30
0.0
  0
VERTEX
  5
248
  8
CORTE_LASER$CORTE
 10
2012.304796729949
 20
2946.46362740963
 30
0.0
  0
VERTEX
  5
249
  8
CORTE_LASER$CORTE
 10
2012.399437343048
 20
2946.502828835127
 30
0.0
  0
VERTEX
  5
24A
  8
CORTE_LASER$CORTE
 10
2012.495361162975
 20
2946.538776271469
 30
0.0
  0
VERTEX
  5
24B
  8
CORTE_LASER$CORTE
 10
2012.592456346844
 20
2946.571427805556
 30
0.0
  0
VERTEX
  5
24C
  8
CORTE_LASER$CORTE
 10
2012.690609686016
 20
2946.600745367157
 30
0.0
  0
VERTEX
  5
24D
  8
CORTE_LASER$CORTE
 10
2012.789706738088
 20
2946.626694773307
 30
0.0
  0
VERTEX
  5
24E
  8
CORTE_LASER$CORTE
 10
2012.88963196033
 20
2946.64924576816
 30
0.0
  0
VERTEX
  5
24F
  8
CORTE_LASER$CORTE
 10
2012.990268844401
 20
2946.668372058265
 30
0.0
  0
VERTEX
  5
250
  8
CORTE_LASER$CORTE
 10
2013.091500052199
 20
2946.684051343222
 30
0.0
  0
VERTEX
  5
251
  8
CORTE_LASER$CORTE
 10
2013.193207552661
 20
2946.696265341688
 30
0.0
  0
VERTEX
  5
252
  8
CORTE_LASER$CORTE
 10
2013.295272759394
 20
2946.704999812685
 30
0.0
  0
VERTEX
  5
253
  8
CORTE_LASER$CORTE
 10
2013.39757666893
 20
2946.710244572212
 30
0.0
  0
VERTEX
  5
254
  8
CORTE_LASER$CORTE
 10
2013.499999999487
 20
2946.711993505113
 30
0.0
  0
VERTEX
  5
255
  8
CORTE_LASER$CORTE
 10
2019.003980554942
 20
2946.711993505113
 30
0.0
  0
VERTEX
  5
256
  8
CORTE_LASER$CORTE
 10
2019.070568401679
 20
2946.711254401891
 30
0.0
  0
VERTEX
  5
257
  8
CORTE_LASER$CORTE
 10
2019.137721317571
 20
2946.709010880757
 30
0.0
  0
VERTEX
  5
258
  8
CORTE_LASER$CORTE
 10
2019.205395317283
 20
2946.705224487413
 30
0.0
  0
VERTEX
  5
259
  8
CORTE_LASER$CORTE
 10
2019.273543926038
 20
2946.699858142714
 30
0.0
  0
VERTEX
  5
25A
  8
CORTE_LASER$CORTE
 10
2019.34211820875
 20
2946.692876313966
 30
0.0
  0
VERTEX
  5
25B
  8
CORTE_LASER$CORTE
 10
2019.411066811791
 20
2946.684245188212
 30
0.0
  0
VERTEX
  5
25C
  8
CORTE_LASER$CORTE
 10
2019.480336017893
 20
2946.673932846532
 30
0.0
  0
VERTEX
  5
25D
  8
CORTE_LASER$CORTE
 10
2019.5498698146
 20
2946.661909438285
 30
0.0
  0
VERTEX
  5
25E
  8
CORTE_LASER$CORTE
 10
2019.619609976605
 20
2946.648147354167
 30
0.0
  0
VERTEX
  5
25F
  8
CORTE_LASER$CORTE
 10
2019.689496162207
 20
2946.632621396896
 30
0.0
  0
VERTEX
  5
260
  8
CORTE_LASER$CORTE
 10
2019.759466024006
 20
2946.615308948281
 30
0.0
  0
VERTEX
  5
261
  8
CORTE_LASER$CORTE
 10
2019.829455333843
 20
2946.596190131373
 30
0.0
  0
VERTEX
  5
262
  8
CORTE_LASER$CORTE
 10
2019.899398121871
 20
2946.575247966392
 30
0.0
  0
VERTEX
  5
263
  8
CORTE_LASER$CORTE
 10
2019.96922682949
 20
2946.552468519089
 30
0.0
  0
VERTEX
  5
264
  8
CORTE_LASER$CORTE
 10
2020.038872475776
 20
2946.527841040187
 30
0.0
  0
VERTEX
  5
265
  8
CORTE_LASER$CORTE
 10
2020.108264836852
 20
2946.501358094592
 30
0.0
  0
VERTEX
  5
266
  8
CORTE_LASER$CORTE
 10
2020.177332637545
 20
2946.47301567904
 30
0.0
  0
VERTEX
  5
267
  8
CORTE_LASER$CORTE
 10
2020.246003754494
 20
2946.442813326955
 30
0.0
  0
VERTEX
  5
268
  8
CORTE_LASER$CORTE
 10
2020.314205429759
 20
2946.410754199285
 30
0.0
  0
VERTEX
  5
269
  8
CORTE_LASER$CORTE
 10
2020.381864493842
 20
2946.376845160213
 30
0.0
  0
VERTEX
  5
26A
  8
CORTE_LASER$CORTE
 10
2020.448907596882
 20
2946.341096836712
 30
0.0
  0
VERTEX
  5
26B
  8
CORTE_LASER$CORTE
 10
2020.515261446685
 20
2946.303523661034
 30
0.0
  0
VERTEX
  5
26C
  8
CORTE_LASER$CORTE
 10
2020.580853052138
 20
2946.26414389533
 30
0.0
  0
VERTEX
  5
26D
  8
CORTE_LASER$CORTE
 10
2020.64560997045
 20
2946.222979637766
 30
0.0
  0
VERTEX
  5
26E
  8
CORTE_LASER$CORTE
 10
2020.70946055659
 20
2946.180056809642
 30
0.0
  0
VERTEX
  5
26F
  8
CORTE_LASER$CORTE
 10
2020.772334213224
 20
2946.135405123166
 30
0.0
  0
VERTEX
  5
270
  8
CORTE_LASER$CORTE
 10
2020.834161639415
 20
2946.089058029746
 30
0.0
  0
VERTEX
  5
271
  8
CORTE_LASER$CORTE
 10
2020.894875076313
 20
2946.041052648801
 30
0.0
  0
VERTEX
  5
272
  8
CORTE_LASER$CORTE
 10
2020.954408548065
 20
2945.991429677322
 30
0.0
  0
VERTEX
  5
273
  8
CORTE_LASER$CORTE
 10
2021.012698096182
 20
2945.940233280529
 30
0.0
  0
VERTEX
  5
274
  8
CORTE_LASER$CORTE
 10
2021.069682005667
 20
2945.887510964245
 30
0.0
  0
VERTEX
  5
275
  8
CORTE_LASER$CORTE
 10
2021.12530102122
 20
2945.833313429686
 30
0.0
  0
VERTEX
  5
276
  8
CORTE_LASER$CORTE
 10
2021.179498551946
 20
2945.777694411621
 30
0.0
  0
VERTEX
  5
277
  8
CORTE_LASER$CORTE
 10
2021.232220863102
 20
2945.720710500967
 30
0.0
  0
VERTEX
  5
278
  8
CORTE_LASER$CORTE
 10
2021.283417253502
 20
2945.662420953047
 30
0.0
  0
VERTEX
  5
279
  8
CORTE_LASER$CORTE
 10
2021.333040217359
 20
2945.602887482871
 30
0.0
  0
VERTEX
  5
27A
  8
CORTE_LASER$CORTE
 10
2021.381045589487
 20
2945.542174048937
 30
0.0
  0
VERTEX
  5
27B
  8
CORTE_LASER$CORTE
 10
2021.42739267294
 20
2945.480346627107
 30
0.0
  0
VERTEX
  5
27C
  8
CORTE_LASER$CORTE
 10
2021.472044348336
 20
2945.417472976234
 30
0.0
  0
VERTEX
  5
27D
  8
CORTE_LASER$CORTE
 10
2021.514967164316
 20
2945.353622397251
 30
0.0
  0
VERTEX
  5
27E
  8
CORTE_LASER$CORTE
 10
2021.556131408718
 20
2945.28886548749
 30
0.0
  0
VERTEX
  5
27F
  8
CORTE_LASER$CORTE
 10
2021.595511160293
 20
2945.223273891967
 30
0.0
  0
VERTEX
  5
280
  8
CORTE_LASER$CORTE
 10
2021.633084320924
 20
2945.156920053461
 30
0.0
  0
VERTEX
  5
281
  8
CORTE_LASER$CORTE
 10
2021.668832628513
 20
2945.089876963068
 30
0.0
  0
VERTEX
  5
282
  8
CORTE_LASER$CORTE
 10
2021.702741650863
 20
2945.022217912958
 30
0.0
  0
VERTEX
  5
283
  8
CORTE_LASER$CORTE
 10
2021.734800761054
 20
2944.954016252969
 30
0.0
  0
VERTEX
  5
284
  8
CORTE_LASER$CORTE
 10
2021.765003094956
 20
2944.885345152568
 30
0.0
  0
VERTEX
  5
285
  8
CORTE_LASER$CORTE
 10
2021.793345491678
 20
2944.816277369662
 30
0.0
  0
VERTEX
  5
286
  8
CORTE_LASER$CORTE
 10
2021.819828417851
 20
2944.746885027576
 30
0.0
  0
VERTEX
  5
287
  8
CORTE_LASER$CORTE
 10
2021.844455876792
 20
2944.677239401447
 30
0.0
  0
VERTEX
  5
288
  8
CORTE_LASER$CORTE
 10
2021.867235303651
 20
2944.607410715109
 30
0.0
  0
VERTEX
  5
289
  8
CORTE_LASER$CORTE
 10
2021.888177447757
 20
2944.537467949443
 30
0.0
  0
VERTEX
  5
28A
  8
CORTE_LASER$CORTE
 10
2021.907296243412
 20
2944.467478663002
 30
0.0
  0
VERTEX
  5
28B
  8
CORTE_LASER$CORTE
 10
2021.924608670446
 20
2944.397508825586
 30
0.0
  0
VERTEX
  5
28C
  8
CORTE_LASER$CORTE
 10
2021.940134605857
 20
2944.327622665305
 30
0.0
  0
VERTEX
  5
28D
  8
CORTE_LASER$CORTE
 10
2021.953896667887
 20
2944.257882529509
 30
0.0
  0
VERTEX
  5
28E
  8
CORTE_LASER$CORTE
 10
2021.965920053862
 20
2944.188348759846
 30
0.0
  0
VERTEX
  5
28F
  8
CORTE_LASER$CORTE
 10
2021.976232373132
 20
2944.11907958157
 30
0.0
  0
VERTEX
  5
290
  8
CORTE_LASER$CORTE
 10
2021.984863476382
 20
2944.050131007084
 30
0.0
  0
VERTEX
  5
291
  8
CORTE_LASER$CORTE
 10
2021.991845282571
 20
2943.981556753604
 30
0.0
  0
VERTEX
  5
292
  8
CORTE_LASER$CORTE
 10
2021.997211604695
 20
2943.913408174701
 30
0.0
  0
VERTEX
  5
293
  8
CORTE_LASER$CORTE
 10
2022.000997975488
 20
2943.84573420541
 30
0.0
  0
VERTEX
  5
294
  8
CORTE_LASER$CORTE
 10
2022.003241474127
 20
2943.778581320453
 30
0.0
  0
VERTEX
  5
295
  8
CORTE_LASER$CORTE
 10
2022.003980554942
 20
2943.711993505113
 30
0.0
  0
VERTEX
  5
296
  8
CORTE_LASER$CORTE
 10
2022.003980554942
 20
2856.211993505113
 30
0.0
  0
VERTEX
  5
297
  8
CORTE_LASER$CORTE
 10
2022.00223162204
 20
2856.109570174555
 30
0.0
  0
VERTEX
  5
298
  8
CORTE_LASER$CORTE
 10
2021.996986862513
 20
2856.007266265019
 30
0.0
  0
VERTEX
  5
299
  8
CORTE_LASER$CORTE
 10
2021.988252391516
 20
2855.905201058287
 30
0.0
  0
VERTEX
  5
29A
  8
CORTE_LASER$CORTE
 10
2021.976038393051
 20
2855.803493557824
 30
0.0
  0
VERTEX
  5
29B
  8
CORTE_LASER$CORTE
 10
2021.960359108093
 20
2855.702262350027
 30
0.0
  0
VERTEX
  5
29C
  8
CORTE_LASER$CORTE
 10
2021.941232817989
 20
2855.601625465955
 30
0.0
  0
VERTEX
  5
29D
  8
CORTE_LASER$CORTE
 10
2021.918681823136
 20
2855.501700243714
 30
0.0
  0
VERTEX
  5
29E
  8
CORTE_LASER$CORTE
 10
2021.892732416985
 20
2855.402603191642
 30
0.0
  0
VERTEX
  5
29F
  8
CORTE_LASER$CORTE
 10
2021.863414855384
 20
2855.30444985247
 30
0.0
  0
VERTEX
  5
2A0
  8
CORTE_LASER$CORTE
 10
2021.830763321298
 20
2855.2073546686
 30
0.0
  0
VERTEX
  5
2A1
  8
CORTE_LASER$CORTE
 10
2021.794815884955
 20
2855.111430848674
 30
0.0
  0
VERTEX
  5
2A2
  8
CORTE_LASER$CORTE
 10
2021.755614459458
 20
2855.016790235574
 30
0.0
  0
VERTEX
  5
2A3
  8
CORTE_LASER$CORTE
 10
2021.713204751916
 20
2854.923543176023
 30
0.0
  0
VERTEX
  5
2A4
  8
CORTE_LASER$CORTE
 10
2021.667636210149
 20
2854.83179839192
 30
0.0
  0
VERTEX
  5
2A5
  8
CORTE_LASER$CORTE
 10
2021.61896196504
 20
2854.741662853579
 30
0.0
  0
VERTEX
  5
2A6
  8
CORTE_LASER$CORTE
 10
2021.567238768581
 20
2854.653241655007
 30
0.0
  0
VERTEX
  5
2A7
  8
CORTE_LASER$CORTE
 10
2021.512526927706
 20
2854.566637891365
 30
0.0
  0
VERTEX
  5
2A8
  8
CORTE_LASER$CORTE
 10
2021.454890233973
 20
2854.481952538769
 30
0.0
  0
VERTEX
  5
2A9
  8
CORTE_LASER$CORTE
 10
2021.39439588919
 20
2854.39928433655
 30
0.0
  0
VERTEX
  5
2AA
  8
CORTE_LASER$CORTE
 10
2021.331114427055
 20
2854.318729672135
 30
0.0
  0
VERTEX
  5
2AB
  8
CORTE_LASER$CORTE
 10
2021.265119630924
 20
2854.240382468659
 30
0.0
  0
VERTEX
  5
2AC
  8
CORTE_LASER$CORTE
 10
2021.196488447776
 20
2854.164334075457
 30
0.0
  0
VERTEX
  5
2AD
  8
CORTE_LASER$CORTE
 10
2021.125300898502
 20
2854.090673161554
 30
0.0
  0
VERTEX
  5
2AE
  8
CORTE_LASER$CORTE
 10
2021.051639984598
 20
2854.019485612279
 30
0.0
  0
VERTEX
  5
2AF
  8
CORTE_LASER$CORTE
 10
2020.975591591396
 20
2853.950854429131
 30
0.0
  0
VERTEX
  5
2B0
  8
CORTE_LASER$CORTE
 10
2020.89724438792
 20
2853.884859633
 30
0.0
  0
VERTEX
  5
2B1
  8
CORTE_LASER$CORTE
 10
2020.816689723505
 20
2853.821578170865
 30
0.0
  0
VERTEX
  5
2B2
  8
CORTE_LASER$CORTE
 10
2020.734021521287
 20
2853.761083826082
 30
0.0
  0
VERTEX
  5
2B3
  8
CORTE_LASER$CORTE
 10
2020.64933616869
 20
2853.703447132349
 30
0.0
  0
VERTEX
  5
2B4
  8
CORTE_LASER$CORTE
 10
2020.562732405048
 20
2853.648735291474
 30
0.0
  0
VERTEX
  5
2B5
  8
CORTE_LASER$CORTE
 10
2020.474311206476
 20
2853.597012095015
 30
0.0
  0
VERTEX
  5
2B6
  8
CORTE_LASER$CORTE
 10
2020.384175668135
 20
2853.548337849906
 30
0.0
  0
VERTEX
  5
2B7
  8
CORTE_LASER$CORTE
 10
2020.292430884032
 20
2853.502769308139
 30
0.0
  0
VERTEX
  5
2B8
  8
CORTE_LASER$CORTE
 10
2020.199183824481
 20
2853.460359600596
 30
0.0
  0
VERTEX
  5
2B9
  8
CORTE_LASER$CORTE
 10
2020.104543211381
 20
2853.4211581751
 30
0.0
  0
VERTEX
  5
2BA
  8
CORTE_LASER$CORTE
 10
2020.008619391455
 20
2853.385210738757
 30
0.0
  0
VERTEX
  5
2BB
  8
CORTE_LASER$CORTE
 10
2019.911524207585
 20
2853.35255920467
 30
0.0
  0
VERTEX
  5
2BC
  8
CORTE_LASER$CORTE
 10
2019.813370868413
 20
2853.32324164307
 30
0.0
  0
VERTEX
  5
2BD
  8
CORTE_LASER$CORTE
 10
2019.714273816341
 20
2853.297292236919
 30
0.0
  0
VERTEX
  5
2BE
  8
CORTE_LASER$CORTE
 10
2019.6143485941
 20
2853.274741242066
 30
0.0
  0
VERTEX
  5
2BF
  8
CORTE_LASER$CORTE
 10
2019.513711710028
 20
2853.255614951961
 30
0.0
  0
VERTEX
  5
2C0
  8
CORTE_LASER$CORTE
 10
2019.412480502231
 20
2853.239935667004
 30
0.0
  0
VERTEX
  5
2C1
  8
CORTE_LASER$CORTE
 10
2019.310773001768
 20
2853.227721668539
 30
0.0
  0
VERTEX
  5
2C2
  8
CORTE_LASER$CORTE
 10
2019.208707795036
 20
2853.218987197542
 30
0.0
  0
VERTEX
  5
2C3
  8
CORTE_LASER$CORTE
 10
2019.1064038855
 20
2853.213742438015
 30
0.0
  0
VERTEX
  5
2C4
  8
CORTE_LASER$CORTE
 10
2019.003980554942
 20
2853.211993505113
 30
0.0
  0
VERTEX
  5
2C5
  8
CORTE_LASER$CORTE
 10
1959.003980554942
 20
2853.211993505113
 30
0.0
  0
VERTEX
  5
2C6
  8
CORTE_LASER$CORTE
 10
1958.901557224384
 20
2853.213742438014
 30
0.0
  0
VERTEX
  5
2C7
  8
CORTE_LASER$CORTE
 10
1958.799253314848
 20
2853.218987197542
 30
0.0
  0
VERTEX
  5
2C8
  8
CORTE_LASER$CORTE
 10
1958.697188108116
 20
2853.227721668539
 30
0.0
  0
VERTEX
  5
2C9
  8
CORTE_LASER$CORTE
 10
1958.595480607653
 20
2853.239935667004
 30
0.0
  0
VERTEX
  5
2CA
  8
CORTE_LASER$CORTE
 10
1958.494249399856
 20
2853.255614951961
 30
0.0
  0
VERTEX
  5
2CB
  8
CORTE_LASER$CORTE
 10
1958.393612515784
 20
2853.274741242066
 30
0.0
  0
VERTEX
  5
2CC
  8
CORTE_LASER$CORTE
 10
1958.293687293542
 20
2853.297292236919
 30
0.0
  0
VERTEX
  5
2CD
  8
CORTE_LASER$CORTE
 10
1958.194590241471
 20
2853.32324164307
 30
0.0
  0
VERTEX
  5
2CE
  8
CORTE_LASER$CORTE
 10
1958.096436902299
 20
2853.352559204671
 30
0.0
  0
VERTEX
  5
2CF
  8
CORTE_LASER$CORTE
 10
1957.999341718429
 20
2853.385210738757
 30
0.0
  0
VERTEX
  5
2D0
  8
CORTE_LASER$CORTE
 10
1957.903417898503
 20
2853.4211581751
 30
0.0
  0
VERTEX
  5
2D1
  8
CORTE_LASER$CORTE
 10
1957.808777285403
 20
2853.460359600597
 30
0.0
  0
VERTEX
  5
2D2
  8
CORTE_LASER$CORTE
 10
1957.715530225852
 20
2853.50276930814
 30
0.0
  0
VERTEX
  5
2D3
  8
CORTE_LASER$CORTE
 10
1957.623785441748
 20
2853.548337849906
 30
0.0
  0
VERTEX
  5
2D4
  8
CORTE_LASER$CORTE
 10
1957.533649903408
 20
2853.597012095015
 30
0.0
  0
VERTEX
  5
2D5
  8
CORTE_LASER$CORTE
 10
1957.445228704835
 20
2853.648735291474
 30
0.0
  0
VERTEX
  5
2D6
  8
CORTE_LASER$CORTE
 10
1957.358624941194
 20
2853.703447132349
 30
0.0
  0
VERTEX
  5
2D7
  8
CORTE_LASER$CORTE
 10
1957.273939588597
 20
2853.761083826082
 30
0.0
  0
VERTEX
  5
2D8
  8
CORTE_LASER$CORTE
 10
1957.191271386379
 20
2853.821578170865
 30
0.0
  0
VERTEX
  5
2D9
  8
CORTE_LASER$CORTE
 10
1957.110716721964
 20
2853.884859633
 30
0.0
  0
VERTEX
  5
2DA
  8
CORTE_LASER$CORTE
 10
1957.032369518488
 20
2853.950854429131
 30
0.0
  0
VERTEX
  5
2DB
  8
CORTE_LASER$CORTE
 10
1956.956321125286
 20
2854.019485612279
 30
0.0
  0
VERTEX
  5
2DC
  8
CORTE_LASER$CORTE
 10
1956.882660211382
 20
2854.090673161554
 30
0.0
  0
VERTEX
  5
2DD
  8
CORTE_LASER$CORTE
 10
1956.811472662107
 20
2854.164334075457
 30
0.0
  0
VERTEX
  5
2DE
  8
CORTE_LASER$CORTE
 10
1956.74284147896
 20
2854.240382468659
 30
0.0
  0
VERTEX
  5
2DF
  8
CORTE_LASER$CORTE
 10
1956.676846682828
 20
2854.318729672135
 30
0.0
  0
VERTEX
  5
2E0
  8
CORTE_LASER$CORTE
 10
1956.613565220694
 20
2854.39928433655
 30
0.0
  0
VERTEX
  5
2E1
  8
CORTE_LASER$CORTE
 10
1956.55307087591
 20
2854.481952538768
 30
0.0
  0
VERTEX
  5
2E2
  8
CORTE_LASER$CORTE
 10
1956.495434182178
 20
2854.566637891365
 30
0.0
  0
VERTEX
  5
2E3
  8
CORTE_LASER$CORTE
 10
1956.440722341302
 20
2854.653241655007
 30
0.0
  0
VERTEX
  5
2E4
  8
CORTE_LASER$CORTE
 10
1956.388999144843
 20
2854.741662853579
 30
0.0
  0
VERTEX
  5
2E5
  8
CORTE_LASER$CORTE
 10
1956.340324899735
 20
2854.83179839192
 30
0.0
  0
VERTEX
  5
2E6
  8
CORTE_LASER$CORTE
 10
1956.294756357968
 20
2854.923543176023
 30
0.0
  0
VERTEX
  5
2E7
  8
CORTE_LASER$CORTE
 10
1956.252346650425
 20
2855.016790235574
 30
0.0
  0
VERTEX
  5
2E8
  8
CORTE_LASER$CORTE
 10
1956.213145224928
 20
2855.111430848674
 30
0.0
  0
VERTEX
  5
2E9
  8
CORTE_LASER$CORTE
 10
1956.177197788585
 20
2855.2073546686
 30
0.0
  0
VERTEX
  5
2EA
  8
CORTE_LASER$CORTE
 10
1956.144546254499
 20
2855.30444985247
 30
0.0
  0
VERTEX
  5
2EB
  8
CORTE_LASER$CORTE
 10
1956.115228692898
 20
2855.402603191642
 30
0.0
  0
VERTEX
  5
2EC
  8
CORTE_LASER$CORTE
 10
1956.089279286748
 20
2855.501700243714
 30
0.0
  0
VERTEX
  5
2ED
  8
CORTE_LASER$CORTE
 10
1956.066728291895
 20
2855.601625465955
 30
0.0
  0
VERTEX
  5
2EE
  8
CORTE_LASER$CORTE
 10
1956.04760200179
 20
2855.702262350027
 30
0.0
  0
VERTEX
  5
2EF
  8
CORTE_LASER$CORTE
 10
1956.031922716833
 20
2855.803493557824
 30
0.0
  0
VERTEX
  5
2F0
  8
CORTE_LASER$CORTE
 10
1956.019708718367
 20
2855.905201058287
 30
0.0
  0
VERTEX
  5
2F1
  8
CORTE_LASER$CORTE
 10
1956.01097424737
 20
2856.007266265019
 30
0.0
  0
VERTEX
  5
2F2
  8
CORTE_LASER$CORTE
 10
1956.005729487843
 20
2856.109570174555
 30
0.0
  0
VERTEX
  5
2F3
  8
CORTE_LASER$CORTE
 10
1956.003980554942
 20
2856.211993505113
 30
0.0
  0
VERTEX
  5
2F4
  8
CORTE_LASER$CORTE
 10
1956.003980554942
 20
2884.711993505113
 30
0.0
  0
VERTEX
  5
2F5
  8
CORTE_LASER$CORTE
 10
1964.499999999487
 20
2884.711993505113
 30
0.0
  0
VERTEX
  5
2F6
  8
CORTE_LASER$CORTE
 10
1964.603548416397
 20
2884.710205926766
 30
0.0
  0
VERTEX
  5
2F7
  8
CORTE_LASER$CORTE
 10
1964.706973432701
 20
2884.704845322017
 30
0.0
  0
VERTEX
  5
2F8
  8
CORTE_LASER$CORTE
 10
1964.810151794853
 20
2884.695918079199
 30
0.0
  0
VERTEX
  5
2F9
  8
CORTE_LASER$CORTE
 10
1964.912960543249
 20
2884.683434837076
 30
0.0
  0
VERTEX
  5
2FA
  8
CORTE_LASER$CORTE
 10
1965.015277158761
 20
2884.667410472164
 30
0.0
  0
VERTEX
  5
2FB
  8
CORTE_LASER$CORTE
 10
1965.116979708745
 20
2884.647864081001
 30
0.0
  0
VERTEX
  5
2FC
  8
CORTE_LASER$CORTE
 10
1965.21794699235
 20
2884.624818957391
 30
0.0
  0
VERTEX
  5
2FD
  8
CORTE_LASER$CORTE
 10
1965.318058684956
 20
2884.598302564644
 30
0.0
  0
VERTEX
  5
2FE
  8
CORTE_LASER$CORTE
 10
1965.417195481567
 20
2884.568346502846
 30
0.0
  0
VERTEX
  5
2FF
  8
CORTE_LASER$CORTE
 10
1965.515239238988
 20
2884.5349864712
 30
0.0
  0
VERTEX
  5
300
  8
CORTE_LASER$CORTE
 10
1965.612073116623
 20
2884.498262225489
 30
0.0
  0
VERTEX
  5
301
  8
CORTE_LASER$CORTE
 10
1965.707581715707
 20
2884.458217530689
 30
0.0
  0
VERTEX
  5
302
  8
CORTE_LASER$CORTE
 10
1965.80165121684
 20
2884.41490010882
 30
0.0
  0
VERTEX
  5
303
  8
CORTE_LASER$CORTE
 10
1965.894169515619
 20
2884.368361582073
 30
0.0
  0
VERTEX
  5
304
  8
CORTE_LASER$CORTE
 10
1965.985026356238
 20
2884.318657411288
 30
0.0
  0
VERTEX
  5
305
  8
CORTE_LASER$CORTE
 10
1966.074113462884
 20
2884.265846829866
 30
0.0
  0
VERTEX
  5
306
  8
CORTE_LASER$CORTE
 10
1966.161324668769
 20
2884.209992773175
 30
0.0
  0
VERTEX
  5
307
  8
CORTE_LASER$CORTE
 10
1966.24655604265
 20
2884.151161803549
 30
0.0
  0
VERTEX
  5
308
  8
CORTE_LASER$CORTE
 10
1966.329706012688
 20
2884.089424030967
 30
0.0
  0
VERTEX
  5
309
  8
CORTE_LASER$CORTE
 10
1966.410675487492
 20
2884.024853029498
 30
0.0
  0
VERTEX
  5
30A
  8
CORTE_LASER$CORTE
 10
1966.48936797421
 20
2883.957525749627
 30
0.0
  0
VERTEX
  5
30B
  8
CORTE_LASER$CORTE
 10
1966.565689693517
 20
2883.887522426543
 30
0.0
  0
VERTEX
  5
30C
  8
CORTE_LASER$CORTE
 10
1966.639549691379
 20
2883.814926484531
 30
0.0
  0
VERTEX
  5
30D
  8
CORTE_LASER$CORTE
 10
1966.71085994744
 20
2883.739824437548
 30
0.0
  0
VERTEX
  5
30E
  8
CORTE_LASER$CORTE
 10
1966.779535479921
 20
2883.662305786119
 30
0.0
  0
VERTEX
  5
30F
  8
CORTE_LASER$CORTE
 10
1966.845494446892
 20
2883.58246291069
 30
0.0
  0
VERTEX
  5
310
  8
CORTE_LASER$CORTE
 10
1966.908658243804
 20
2883.500390961521
 30
0.0
  0
VERTEX
  5
311
  8
CORTE_LASER$CORTE
 10
1966.968951597168
 20
2883.416187745307
 30
0.0
  0
VERTEX
  5
312
  8
CORTE_LASER$CORTE
 10
1967.026302654256
 20
2883.329953608611
 30
0.0
  0
VERTEX
  5
313
  8
CORTE_LASER$CORTE
 10
1967.080643068728
 20
2883.241791318284
 30
0.0
  0
VERTEX
  5
314
  8
CORTE_LASER$CORTE
 10
1967.131908082086
 20
2883.151805938993
 30
0.0
  0
VERTEX
  5
315
  8
CORTE_LASER$CORTE
 10
1967.180036600844
 20
2883.060104708015
 30
0.0
  0
VERTEX
  5
316
  8
CORTE_LASER$CORTE
 10
1967.224971269338
 20
2882.96679690744
 30
0.0
  0
VERTEX
  5
317
  8
CORTE_LASER$CORTE
 10
1967.266658538073
 20
2882.871993733937
 30
0.0
  0
VERTEX
  5
318
  8
CORTE_LASER$CORTE
 10
1967.305048727544
 20
2882.775808166241
 30
0.0
  0
VERTEX
  5
319
  8
CORTE_LASER$CORTE
 10
1967.340096087436
 20
2882.678354830509
 30
0.0
  0
VERTEX
  5
31A
  8
CORTE_LASER$CORTE
 10
1967.371758851148
 20
2882.579749863723
 30
0.0
  0
VERTEX
  5
31B
  8
CORTE_LASER$CORTE
 10
1967.399999285567
 20
2882.480110775286
 30
0.0
  0
VERTEX
  5
31C
  8
CORTE_LASER$CORTE
 10
1967.424783736033
 20
2882.379556306982
 30
0.0
  0
VERTEX
  5
31D
  8
CORTE_LASER$CORTE
 10
1967.446082666448
 20
2882.278206291472
 30
0.0
  0
VERTEX
  5
31E
  8
CORTE_LASER$CORTE
 10
1967.463870694474
 20
2882.176181509484
 30
0.0
  0
VERTEX
  5
31F
  8
CORTE_LASER$CORTE
 10
1967.478126621782
 20
2882.073603545879
 30
0.0
  0
VERTEX
  5
320
  8
CORTE_LASER$CORTE
 10
1967.488833459314
 20
2881.970594644755
 30
0.0
  0
VERTEX
  5
321
  8
CORTE_LASER$CORTE
 10
1967.495978447529
 20
2881.867277563766
 30
0.0
  0
VERTEX
  5
322
  8
CORTE_LASER$CORTE
 10
1967.49955307161
 20
2881.763775427829
 30
0.0
  0
VERTEX
  5
323
  8
CORTE_LASER$CORTE
 10
1967.49955307161
 20
2881.660211582397
 30
0.0
  0
VERTEX
  5
324
  8
CORTE_LASER$CORTE
 10
1967.495978447529
 20
2881.55670944646
 30
0.0
  0
VERTEX
  5
325
  8
CORTE_LASER$CORTE
 10
1967.488833459314
 20
2881.453392365471
 30
0.0
  0
VERTEX
  5
326
  8
CORTE_LASER$CORTE
 10
1967.478126621782
 20
2881.350383464347
 30
0.0
  0
VERTEX
  5
327
  8
CORTE_LASER$CORTE
 10
1967.463870694474
 20
2881.247805500742
 30
0.0
  0
VERTEX
  5
328
  8
CORTE_LASER$CORTE
 10
1967.446082666448
 20
2881.145780718754
 30
0.0
  0
VERTEX
  5
329
  8
CORTE_LASER$CORTE
 10
1967.424783736033
 20
2881.044430703244
 30
0.0
  0
VERTEX
  5
32A
  8
CORTE_LASER$CORTE
 10
1967.399999285567
 20
2880.94387623494
 30
0.0
  0
VERTEX
  5
32B
  8
CORTE_LASER$CORTE
 10
1967.371758851148
 20
2880.844237146503
 30
0.0
  0
VERTEX
  5
32C
  8
CORTE_LASER$CORTE
 10
1967.340096087436
 20
2880.745632179718
 30
0.0
  0
VERTEX
  5
32D
  8
CORTE_LASER$CORTE
 10
1967.305048727544
 20
2880.648178843986
 30
0.0
  0
VERTEX
  5
32E
  8
CORTE_LASER$CORTE
 10
1967.266658538073
 20
2880.551993276289
 30
0.0
  0
VERTEX
  5
32F
  8
CORTE_LASER$CORTE
 10
1967.224971269338
 20
2880.457190102787
 30
0.0
  0
VERTEX
  5
330
  8
CORTE_LASER$CORTE
 10
1967.180036600844
 20
2880.363882302212
 30
0.0
  0
VERTEX
  5
331
  8
CORTE_LASER$CORTE
 10
1967.131908082086
 20
2880.272181071234
 30
0.0
  0
VERTEX
  5
332
  8
CORTE_LASER$CORTE
 10
1967.080643068728
 20
2880.182195691943
 30
0.0
  0
VERTEX
  5
333
  8
CORTE_LASER$CORTE
 10
1967.026302654256
 20
2880.094033401615
 30
0.0
  0
VERTEX
  5
334
  8
CORTE_LASER$CORTE
 10
1966.968951597168
 20
2880.00779926492
 30
0.0
  0
VERTEX
  5
335
  8
CORTE_LASER$CORTE
 10
1966.908658243804
 20
2879.923596048705
 30
0.0
  0
VERTEX
  5
336
  8
CORTE_LASER$CORTE
 10
1966.845494446892
 20
2879.841524099537
 30
0.0
  0
VERTEX
  5
337
  8
CORTE_LASER$CORTE
 10
1966.779535479921
 20
2879.761681224107
 30
0.0
  0
VERTEX
  5
338
  8
CORTE_LASER$CORTE
 10
1966.71085994744
 20
2879.684162572679
 30
0.0
  0
VERTEX
  5
339
  8
CORTE_LASER$CORTE
 10
1966.639549691379
 20
2879.609060525695
 30
0.0
  0
VERTEX
  5
33A
  8
CORTE_LASER$CORTE
 10
1966.565689693517
 20
2879.536464583683
 30
0.0
  0
VERTEX
  5
33B
  8
CORTE_LASER$CORTE
 10
1966.48936797421
 20
2879.4664612606
 30
0.0
  0
VERTEX
  5
33C
  8
CORTE_LASER$CORTE
 10
1966.410675487492
 20
2879.399133980728
 30
0.0
  0
VERTEX
  5
33D
  8
CORTE_LASER$CORTE
 10
1966.329706012688
 20
2879.33456297926
 30
0.0
  0
VERTEX
  5
33E
  8
CORTE_LASER$CORTE
 10
1966.24655604265
 20
2879.272825206678
 30
0.0
  0
VERTEX
  5
33F
  8
CORTE_LASER$CORTE
 10
1966.161324668769
 20
2879.213994237052
 30
0.0
  0
VERTEX
  5
340
  8
CORTE_LASER$CORTE
 10
1966.074113462884
 20
2879.15814018036
 30
0.0
  0
VERTEX
  5
341
  8
CORTE_LASER$CORTE
 10
1965.985026356238
 20
2879.105329598938
 30
0.0
  0
VERTEX
  5
342
  8
CORTE_LASER$CORTE
 10
1965.894169515619
 20
2879.055625428154
 30
0.0
  0
VERTEX
  5
343
  8
CORTE_LASER$CORTE
 10
1965.80165121684
 20
2879.009086901406
 30
0.0
  0
VERTEX
  5
344
  8
CORTE_LASER$CORTE
 10
1965.707581715707
 20
2878.965769479537
 30
0.0
  0
VERTEX
  5
345
  8
CORTE_LASER$CORTE
 10
1965.612073116623
 20
2878.925724784737
 30
0.0
  0
VERTEX
  5
346
  8
CORTE_LASER$CORTE
 10
1965.515239238988
 20
2878.889000539026
 30
0.0
  0
VERTEX
  5
347
  8
CORTE_LASER$CORTE
 10
1965.417195481567
 20
2878.855640507381
 30
0.0
  0
VERTEX
  5
348
  8
CORTE_LASER$CORTE
 10
1965.318058684956
 20
2878.825684445582
 30
0.0
  0
VERTEX
  5
349
  8
CORTE_LASER$CORTE
 10
1965.21794699235
 20
2878.799168052835
 30
0.0
  0
VERTEX
  5
34A
  8
CORTE_LASER$CORTE
 10
1965.116979708745
 20
2878.776122929225
 30
0.0
  0
VERTEX
  5
34B
  8
CORTE_LASER$CORTE
 10
1965.015277158761
 20
2878.756576538063
 30
0.0
  0
VERTEX
  5
34C
  8
CORTE_LASER$CORTE
 10
1964.912960543249
 20
2878.740552173151
 30
0.0
  0
VERTEX
  5
34D
  8
CORTE_LASER$CORTE
 10
1964.810151794853
 20
2878.728068931028
 30
0.0
  0
VERTEX
  5
34E
  8
CORTE_LASER$CORTE
 10
1964.706973432701
 20
2878.71914168821
 30
0.0
  0
VERTEX
  5
34F
  8
CORTE_LASER$CORTE
 10
1964.603548416397
 20
2878.71378108346
 30
0.0
  0
VERTEX
  5
350
  8
CORTE_LASER$CORTE
 10
1964.499999999487
 20
2878.711993505113
 30
0.0
  0
VERTEX
  5
351
  8
CORTE_LASER$CORTE
 10
1960.999999999488
 20
2878.711993505113
 30
0.0
  0
VERTEX
  5
352
  8
CORTE_LASER$CORTE
 10
1960.999999999488
 20
2858.211993505113
 30
0.0
  0
VERTEX
  5
353
  8
CORTE_LASER$CORTE
 10
2016.999999999487
 20
2858.211993505113
 30
0.0
  0
VERTEX
  5
354
  8
CORTE_LASER$CORTE
 10
2016.999999999487
 20
2878.711993505113
 30
0.0
  0
VERTEX
  5
355
  8
CORTE_LASER$CORTE
 10
2013.499999999487
 20
2878.711993505113
 30
0.0
  0
VERTEX
  5
356
  8
CORTE_LASER$CORTE
 10
2013.396451582578
 20
2878.71378108346
 30
0.0
  0
VERTEX
  5
357
  8
CORTE_LASER$CORTE
 10
2013.293026566275
 20
2878.71914168821
 30
0.0
  0
VERTEX
  5
358
  8
CORTE_LASER$CORTE
 10
2013.189848204122
 20
2878.728068931028
 30
0.0
  0
VERTEX
  5
359
  8
CORTE_LASER$CORTE
 10
2013.087039455726
 20
2878.740552173151
 30
0.0
  0
VERTEX
  5
35A
  8
CORTE_LASER$CORTE
 10
2012.984722840214
 20
2878.756576538063
 30
0.0
  0
VERTEX
  5
35B
  8
CORTE_LASER$CORTE
 10
2012.88302029023
 20
2878.776122929225
 30
0.0
  0
VERTEX
  5
35C
  8
CORTE_LASER$CORTE
 10
2012.782053006625
 20
2878.799168052835
 30
0.0
  0
VERTEX
  5
35D
  8
CORTE_LASER$CORTE
 10
2012.681941314019
 20
2878.825684445582
 30
0.0
  0
VERTEX
  5
35E
  8
CORTE_LASER$CORTE
 10
2012.582804517408
 20
2878.855640507381
 30
0.0
  0
VERTEX
  5
35F
  8
CORTE_LASER$CORTE
 10
2012.484760759987
 20
2878.889000539026
 30
0.0
  0
VERTEX
  5
360
  8
CORTE_LASER$CORTE
 10
2012.387926882352
 20
2878.925724784737
 30
0.0
  0
VERTEX
  5
361
  8
CORTE_LASER$CORTE
 10
2012.292418283268
 20
2878.965769479537
 30
0.0
  0
VERTEX
  5
362
  8
CORTE_LASER$CORTE
 10
2012.198348782135
 20
2879.009086901406
 30
0.0
  0
VERTEX
  5
363
  8
CORTE_LASER$CORTE
 10
2012.105830483356
 20
2879.055625428154
 30
0.0
  0
VERTEX
  5
364
  8
CORTE_LASER$CORTE
 10
2012.014973642737
 20
2879.105329598938
 30
0.0
  0
VERTEX
  5
365
  8
CORTE_LASER$CORTE
 10
2011.925886536091
 20
2879.15814018036
 30
0.0
  0
VERTEX
  5
366
  8
CORTE_LASER$CORTE
 10
2011.838675330206
 20
2879.213994237052
 30
0.0
  0
VERTEX
  5
367
  8
CORTE_LASER$CORTE
 10
2011.753443956325
 20
2879.272825206678
 30
0.0
  0
VERTEX
  5
368
  8
CORTE_LASER$CORTE
 10
2011.670293986287
 20
2879.33456297926
 30
0.0
  0
VERTEX
  5
369
  8
CORTE_LASER$CORTE
 10
2011.589324511483
 20
2879.399133980728
 30
0.0
  0
VERTEX
  5
36A
  8
CORTE_LASER$CORTE
 10
2011.510632024765
 20
2879.4664612606
 30
0.0
  0
VERTEX
  5
36B
  8
CORTE_LASER$CORTE
 10
2011.434310305458
 20
2879.536464583683
 30
0.0
  0
VERTEX
  5
36C
  8
CORTE_LASER$CORTE
 10
2011.360450307596
 20
2879.609060525695
 30
0.0
  0
VERTEX
  5
36D
  8
CORTE_LASER$CORTE
 10
2011.289140051535
 20
2879.684162572679
 30
0.0
  0
VERTEX
  5
36E
  8
CORTE_LASER$CORTE
 10
2011.220464519054
 20
2879.761681224107
 30
0.0
  0
VERTEX
  5
36F
  8
CORTE_LASER$CORTE
 10
2011.154505552083
 20
2879.841524099537
 30
0.0
  0
VERTEX
  5
370
  8
CORTE_LASER$CORTE
 10
2011.091341755171
 20
2879.923596048705
 30
0.0
  0
VERTEX
  5
371
  8
CORTE_LASER$CORTE
 10
2011.031048401807
 20
2880.00779926492
 30
0.0
  0
VERTEX
  5
372
  8
CORTE_LASER$CORTE
 10
2010.973697344719
 20
2880.094033401616
 30
0.0
  0
VERTEX
  5
373
  8
CORTE_LASER$CORTE
 10
2010.919356930247
 20
2880.182195691943
 30
0.0
  0
VERTEX
  5
374
  8
CORTE_LASER$CORTE
 10
2010.868091916889
 20
2880.272181071234
 30
0.0
  0
VERTEX
  5
375
  8
CORTE_LASER$CORTE
 10
2010.819963398131
 20
2880.363882302212
 30
0.0
  0
VERTEX
  5
376
  8
CORTE_LASER$CORTE
 10
2010.775028729637
 20
2880.457190102787
 30
0.0
  0
VERTEX
  5
377
  8
CORTE_LASER$CORTE
 10
2010.733341460902
 20
2880.551993276289
 30
0.0
  0
VERTEX
  5
378
  8
CORTE_LASER$CORTE
 10
2010.694951271431
 20
2880.648178843986
 30
0.0
  0
VERTEX
  5
379
  8
CORTE_LASER$CORTE
 10
2010.659903911539
 20
2880.745632179718
 30
0.0
  0
VERTEX
  5
37A
  8
CORTE_LASER$CORTE
 10
2010.628241147827
 20
2880.844237146503
 30
0.0
  0
VERTEX
  5
37B
  8
CORTE_LASER$CORTE
 10
2010.600000713408
 20
2880.94387623494
 30
0.0
  0
VERTEX
  5
37C
  8
CORTE_LASER$CORTE
 10
2010.575216262942
 20
2881.044430703244
 30
0.0
  0
VERTEX
  5
37D
  8
CORTE_LASER$CORTE
 10
2010.553917332527
 20
2881.145780718754
 30
0.0
  0
VERTEX
  5
37E
  8
CORTE_LASER$CORTE
 10
2010.536129304501
 20
2881.247805500742
 30
0.0
  0
VERTEX
  5
37F
  8
CORTE_LASER$CORTE
 10
2010.521873377193
 20
2881.350383464347
 30
0.0
  0
VERTEX
  5
380
  8
CORTE_LASER$CORTE
 10
2010.511166539661
 20
2881.453392365471
 30
0.0
  0
VERTEX
  5
381
  8
CORTE_LASER$CORTE
 10
2010.504021551446
 20
2881.55670944646
 30
0.0
  0
VERTEX
  5
382
  8
CORTE_LASER$CORTE
 10
2010.500446927365
 20
2881.660211582397
 30
0.0
  0
VERTEX
  5
383
  8
CORTE_LASER$CORTE
 10
2010.500446927365
 20
2881.763775427829
 30
0.0
  0
VERTEX
  5
384
  8
CORTE_LASER$CORTE
 10
2010.504021551446
 20
2881.867277563766
 30
0.0
  0
VERTEX
  5
385
  8
CORTE_LASER$CORTE
 10
2010.511166539661
 20
2881.970594644755
 30
0.0
  0
VERTEX
  5
386
  8
CORTE_LASER$CORTE
 10
2010.521873377193
 20
2882.073603545879
 30
0.0
  0
VERTEX
  5
387
  8
CORTE_LASER$CORTE
 10
2010.536129304501
 20
2882.176181509484
 30
0.0
  0
VERTEX
  5
388
  8
CORTE_LASER$CORTE
 10
2010.553917332527
 20
2882.278206291472
 30
0.0
  0
VERTEX
  5
389
  8
CORTE_LASER$CORTE
 10
2010.575216262942
 20
2882.379556306982
 30
0.0
  0
VERTEX
  5
38A
  8
CORTE_LASER$CORTE
 10
2010.600000713408
 20
2882.480110775286
 30
0.0
  0
VERTEX
  5
38B
  8
CORTE_LASER$CORTE
 10
2010.628241147827
 20
2882.579749863723
 30
0.0
  0
VERTEX
  5
38C
  8
CORTE_LASER$CORTE
 10
2010.659903911539
 20
2882.678354830509
 30
0.0
  0
VERTEX
  5
38D
  8
CORTE_LASER$CORTE
 10
2010.694951271431
 20
2882.775808166241
 30
0.0
  0
VERTEX
  5
38E
  8
CORTE_LASER$CORTE
 10
2010.733341460902
 20
2882.871993733937
 30
0.0
  0
VERTEX
  5
38F
  8
CORTE_LASER$CORTE
 10
2010.775028729637
 20
2882.96679690744
 30
0.0
  0
VERTEX
  5
390
  8
CORTE_LASER$CORTE
 10
2010.819963398131
 20
2883.060104708014
 30
0.0
  0
VERTEX
  5
391
  8
CORTE_LASER$CORTE
 10
2010.868091916889
 20
2883.151805938993
 30
0.0
  0
VERTEX
  5
392
  8
CORTE_LASER$CORTE
 10
2010.919356930247
 20
2883.241791318284
 30
0.0
  0
VERTEX
  5
393
  8
CORTE_LASER$CORTE
 10
2010.973697344719
 20
2883.329953608611
 30
0.0
  0
VERTEX
  5
394
  8
CORTE_LASER$CORTE
 10
2011.031048401807
 20
2883.416187745307
 30
0.0
  0
VERTEX
  5
395
  8
CORTE_LASER$CORTE
 10
2011.091341755171
 20
2883.500390961521
 30
0.0
  0
VERTEX
  5
396
  8
CORTE_LASER$CORTE
 10
2011.154505552083
 20
2883.58246291069
 30
0.0
  0
VERTEX
  5
397
  8
CORTE_LASER$CORTE
 10
2011.220464519054
 20
2883.662305786119
 30
0.0
  0
VERTEX
  5
398
  8
CORTE_LASER$CORTE
 10
2011.289140051535
 20
2883.739824437548
 30
0.0
  0
VERTEX
  5
399
  8
CORTE_LASER$CORTE
 10
2011.360450307596
 20
2883.814926484531
 30
0.0
  0
VERTEX
  5
39A
  8
CORTE_LASER$CORTE
 10
2011.434310305458
 20
2883.887522426543
 30
0.0
  0
VERTEX
  5
39B
  8
CORTE_LASER$CORTE
 10
2011.510632024765
 20
2883.957525749627
 30
0.0
  0
VERTEX
  5
39C
  8
CORTE_LASER$CORTE
 10
2011.589324511483
 20
2884.024853029498
 30
0.0
  0
VERTEX
  5
39D
  8
CORTE_LASER$CORTE
 10
2011.670293986287
 20
2884.089424030967
 30
0.0
  0
VERTEX
  5
39E
  8
CORTE_LASER$CORTE
 10
2011.753443956325
 20
2884.151161803549
 30
0.0
  0
VERTEX
  5
39F
  8
CORTE_LASER$CORTE
 10
2011.838675330206
 20
2884.209992773175
 30
0.0
  0
VERTEX
  5
3A0
  8
CORTE_LASER$CORTE
 10
2011.925886536091
 20
2884.265846829866
 30
0.0
  0
VERTEX
  5
3A1
  8
CORTE_LASER$CORTE
 10
2012.014973642737
 20
2884.318657411288
 30
0.0
  0
VERTEX
  5
3A2
  8
CORTE_LASER$CORTE
 10
2012.105830483356
 20
2884.368361582073
 30
0.0
  0
VERTEX
  5
3A3
  8
CORTE_LASER$CORTE
 10
2012.198348782135
 20
2884.41490010882
 30
0.0
  0
VERTEX
  5
3A4
  8
CORTE_LASER$CORTE
 10
2012.292418283268
 20
2884.458217530689
 30
0.0
  0
VERTEX
  5
3A5
  8
CORTE_LASER$CORTE
 10
2012.387926882352
 20
2884.498262225489
 30
0.0
  0
VERTEX
  5
3A6
  8
CORTE_LASER$CORTE
 10
2012.484760759987
 20
2884.5349864712
 30
0.0
  0
VERTEX
  5
3A7
  8
CORTE_LASER$CORTE
 10
2012.582804517408
 20
2884.568346502846
 30
0.0
  0
VERTEX
  5
3A8
  8
CORTE_LASER$CORTE
 10
2012.681941314019
 20
2884.598302564644
 30
0.0
  0
VERTEX
  5
3A9
  8
CORTE_LASER$CORTE
 10
2012.782053006625
 20
2884.624818957391
 30
0.0
  0
VERTEX
  5
3AA
  8
CORTE_LASER$CORTE
 10
2012.88302029023
 20
2884.647864081001
 30
0.0
  0
VERTEX
  5
3AB
  8
CORTE_LASER$CORTE
 10
2012.984722840214
 20
2884.667410472164
 30
0.0
  0
VERTEX
  5
3AC
  8
CORTE_LASER$CORTE
 10
2013.087039455726
 20
2884.683434837076
 30
0.0
  0
VERTEX
  5
3AD
  8
CORTE_LASER$CORTE
 10
2013.189848204122
 20
2884.695918079199
 30
0.0
  0
VERTEX
  5
3AE
  8
CORTE_LASER$CORTE
 10
2013.293026566274
 20
2884.704845322017
 30
0.0
  0
VERTEX
  5
3AF
  8
CORTE_LASER$CORTE
 10
2013.396451582578
 20
2884.710205926766
 30
0.0
  0
VERTEX
  5
3B0
  8
CORTE_LASER$CORTE
 10
2013.499999999487
 20
2884.711993505113
 30
0.0
  0
VERTEX
  5
3B1
  8
CORTE_LASER$CORTE
 10
2016.999999999487
 20
2884.711993505113
 30
0.0
  0
VERTEX
  5
3B2
  8
CORTE_LASER$CORTE
 10
2016.999999999487
 20
2936.711993505113
 30
0.0
  0
VERTEX
  5
3B3
  8
CORTE_LASER$CORTE
 10
2013.499999999455
 20
2936.711993505113
 30
0.0
  0
VERTEX
  5
3B4
  8
CORTE_LASER$CORTE
 10
2013.39757666893
 20
2936.713742438015
 30
0.0
  0
VERTEX
  5
3B5
  8
CORTE_LASER$CORTE
 10
2013.295272759394
 20
2936.718987197542
 30
0.0
  0
VERTEX
  5
3B6
  8
CORTE_LASER$CORTE
 10
2013.193207552661
 20
2936.727721668539
 30
0.0
  0
VERTEX
  5
3B7
  8
CORTE_LASER$CORTE
 10
2013.091500052199
 20
2936.739935667004
 30
0.0
  0
VERTEX
  5
3B8
  8
CORTE_LASER$CORTE
 10
2012.990268844401
 20
2936.755614951961
 30
0.0
  0
VERTEX
  5
3B9
  8
CORTE_LASER$CORTE
 10
2012.88963196033
 20
2936.774741242066
 30
0.0
  0
VERTEX
  5
3BA
  8
CORTE_LASER$CORTE
 10
2012.789706738088
 20
2936.797292236919
 30
0.0
  0
VERTEX
  5
3BB
  8
CORTE_LASER$CORTE
 10
2012.690609686016
 20
2936.82324164307
 30
0.0
  0
VERTEX
  5
3BC
  8
CORTE_LASER$CORTE
 10
2012.592456346844
 20
2936.852559204671
 30
0.0
  0
VERTEX
  5
3BD
  8
CORTE_LASER$CORTE
 10
2012.495361162975
 20
2936.885210738757
 30
0.0
  0
VERTEX
  5
3BE
  8
CORTE_LASER$CORTE
 10
2012.399437343048
 20
2936.9211581751
 30
0.0
  0
VERTEX
  5
3BF
  8
CORTE_LASER$CORTE
 10
2012.304796729949
 20
2936.960359600597
 30
0.0
  0
VERTEX
  5
3C0
  8
CORTE_LASER$CORTE
 10
2012.211549670397
 20
2937.00276930814
 30
0.0
  0
VERTEX
  5
3C1
  8
CORTE_LASER$CORTE
 10
2012.119804886294
 20
2937.048337849906
 30
0.0
  0
VERTEX
  5
3C2
  8
CORTE_LASER$CORTE
 10
2012.029669347954
 20
2937.097012095015
 30
0.0
  0
VERTEX
  5
3C3
  8
CORTE_LASER$CORTE
 10
2011.941248149381
 20
2937.148735291474
 30
0.0
  0
VERTEX
  5
3C4
  8
CORTE_LASER$CORTE
 10
2011.854644385739
 20
2937.203447132349
 30
0.0
  0
VERTEX
  5
3C5
  8
CORTE_LASER$CORTE
 10
2011.769959033143
 20
2937.261083826082
 30
0.0
  0
VERTEX
  5
3C6
  8
CORTE_LASER$CORTE
 10
2011.687290830924
 20
2937.321578170865
 30
0.0
  0
VERTEX
  5
3C7
  8
CORTE_LASER$CORTE
 10
2011.606736166509
 20
2937.384859633
 30
0.0
  0
VERTEX
  5
3C8
  8
CORTE_LASER$CORTE
 10
2011.528388963034
 20
2937.450854429131
 30
0.0
  0
VERTEX
  5
3C9
  8
CORTE_LASER$CORTE
 10
2011.452340569831
 20
2937.519485612279
 30
0.0
  0
VERTEX
  5
3CA
  8
CORTE_LASER$CORTE
 10
2011.378679655928
 20
2937.590673161554
 30
0.0
  0
VERTEX
  5
3CB
  8
CORTE_LASER$CORTE
 10
2011.307492106653
 20
2937.664334075457
 30
0.0
  0
VERTEX
  5
3CC
  8
CORTE_LASER$CORTE
 10
2011.238860923505
 20
2937.740382468659
 30
0.0
  0
VERTEX
  5
3CD
  8
CORTE_LASER$CORTE
 10
2011.172866127374
 20
2937.818729672135
 30
0.0
  0
VERTEX
  5
3CE
  8
CORTE_LASER$CORTE
 10
2011.10958466524
 20
2937.89928433655
 30
0.0
  0
VERTEX
  5
3CF
  8
CORTE_LASER$CORTE
 10
2011.049090320456
 20
2937.981952538769
 30
0.0
  0
VERTEX
  5
3D0
  8
CORTE_LASER$CORTE
 10
2010.991453626723
 20
2938.066637891365
 30
0.0
  0
VERTEX
  5
3D1
  8
CORTE_LASER$CORTE
 10
2010.936741785848
 20
2938.153241655007
 30
0.0
  0
VERTEX
  5
3D2
  8
CORTE_LASER$CORTE
 10
2010.885018589389
 20
2938.241662853579
 30
0.0
  0
VERTEX
  5
3D3
  8
CORTE_LASER$CORTE
 10
2010.83634434428
 20
2938.33179839192
 30
0.0
  0
VERTEX
  5
3D4
  8
CORTE_LASER$CORTE
 10
2010.790775802514
 20
2938.423543176023
 30
0.0
  0
VERTEX
  5
3D5
  8
CORTE_LASER$CORTE
 10
2010.748366094971
 20
2938.516790235575
 30
0.0
  0
VERTEX
  5
3D6
  8
CORTE_LASER$CORTE
 10
2010.709164669474
 20
2938.611430848674
 30
0.0
  0
VERTEX
  5
3D7
  8
CORTE_LASER$CORTE
 10
2010.673217233131
 20
2938.7073546686
 30
0.0
  0
VERTEX
  5
3D8
  8
CORTE_LASER$CORTE
 10
2010.640565699045
 20
2938.80444985247
 30
0.0
  0
VERTEX
  5
3D9
  8
CORTE_LASER$CORTE
 10
2010.611248137444
 20
2938.902603191642
 30
0.0
  0
VERTEX
  5
3DA
  8
CORTE_LASER$CORTE
 10
2010.585298731294
 20
2939.001700243714
 30
0.0
  0
VERTEX
  5
3DB
  8
CORTE_LASER$CORTE
 10
2010.562747736441
 20
2939.101625465955
 30
0.0
  0
VERTEX
  5
3DC
  8
CORTE_LASER$CORTE
 10
2010.543621446336
 20
2939.202262350027
 30
0.0
  0
VERTEX
  5
3DD
  8
CORTE_LASER$CORTE
 10
2010.527942161378
 20
2939.303493557824
 30
0.0
  0
VERTEX
  5
3DE
  8
CORTE_LASER$CORTE
 10
2010.515728162913
 20
2939.405201058287
 30
0.0
  0
VERTEX
  5
3DF
  8
CORTE_LASER$CORTE
 10
2010.506993691916
 20
2939.507266265019
 30
0.0
  0
VERTEX
  5
3E0
  8
CORTE_LASER$CORTE
 10
2010.501748932389
 20
2939.609570174555
 30
0.0
  0
SEQEND
  5
3E1
  8
CORTE_LASER$CORTE
  0
CIRCLE
  5
3E2
  8
CORTE_LASER$CORTE
 10
2013.499999999487
 20
2939.711993505113
 30
0.0
 40
1.75
  0
CIRCLE
  5
3E3
  8
CORTE_LASER$CORTE
 10
1964.499999999487
 20
2881.711993505113
 30
0.0
 40
1.75
  0
CIRCLE
  5
3E4
  8
CORTE_LASER$CORTE
 10
2013.499999999487
 20
2881.711993505113
 30
0.0
 40
1.75
  0
CIRCLE
  5
3E5
  8
CORTE_LASER$CORTE
 10
2033.492038889604
 20
2925.711993505113
 30
0.0
 40
1.75
  0
CIRCLE
  5
3E6
  8
CORTE_LASER$CORTE
 10
2082.492038889604
 20
2925.711993505113
 30
0.0
 40
1.75
  0
POLYLINE
  5
3E7
  8
CORTE_LASER$CORTE
 66
     1
 10
0.0
 20
0.0
 30
0.0
 70
     1
  0
VERTEX
  5
3E8
  8
CORTE_LASER$CORTE
 10
2024.996019445059
 20
2900.211993505113
 30
0.0
  0
VERTEX
  5
3E9
  8
CORTE_LASER$CORTE
 10
2024.996019445059
 20
2921.711993505113
 30
0.0
  0
VERTEX
  5
3EA
  8
CORTE_LASER$CORTE
 10
2030.624999449803
 20
2921.711993505113
 30
0.0
  0
VERTEX
  5
3EB
  8
CORTE_LASER$CORTE
 10
2030.624999999487
 20
2925.711993611309
 30
0.0
  0
VERTEX
  5
3EC
  8
CORTE_LASER$CORTE
 10
2030.626673481668
 20
2925.809937756827
 30
0.0
  0
VERTEX
  5
3ED
  8
CORTE_LASER$CORTE
 10
2030.631691967345
 20
2925.907767563048
 30
0.0
  0
VERTEX
  5
3EE
  8
CORTE_LASER$CORTE
 10
2030.640049597979
 20
2926.005368824279
 30
0.0
  0
VERTEX
  5
3EF
  8
CORTE_LASER$CORTE
 10
2030.651736616944
 20
2926.102627601629
 30
0.0
  0
VERTEX
  5
3F0
  8
CORTE_LASER$CORTE
 10
2030.666739380911
 20
2926.199430356017
 30
0.0
  0
VERTEX
  5
3F1
  8
CORTE_LASER$CORTE
 10
2030.68504037578
 20
2926.295664080722
 30
0.0
  0
VERTEX
  5
3F2
  8
CORTE_LASER$CORTE
 10
2030.706618237124
 20
2926.391216433301
 30
0.0
  0
VERTEX
  5
3F3
  8
CORTE_LASER$CORTE
 10
2030.731447775128
 20
2926.485975866744
 30
0.0
  0
VERTEX
  5
3F4
  8
CORTE_LASER$CORTE
 10
2030.759500003998
 20
2926.579831759681
 30
0.0
  0
VERTEX
  5
3F5
  8
CORTE_LASER$CORTE
 10
2030.790742175799
 20
2926.672674545534
 30
0.0
  0
VERTEX
  5
3F6
  8
CORTE_LASER$CORTE
 10
2030.825137818681
 20
2926.764395840414
 30
0.0
  0
VERTEX
  5
3F7
  8
CORTE_LASER$CORTE
 10
2030.862646779459
 20
2926.854888569653
 30
0.0
  0
VERTEX
  5
3F8
  8
CORTE_LASER$CORTE
 10
2030.903225270489
 20
2926.944047092798
 30
0.0
  0
VERTEX
  5
3F9
  8
CORTE_LASER$CORTE
 10
2030.946825920782
 20
2927.03176732694
 30
0.0
  0
VERTEX
  5
3FA
  8
CORTE_LASER$CORTE
 10
2030.993397831303
 20
2927.117946868213
 30
0.0
  0
VERTEX
  5
3FB
  8
CORTE_LASER$CORTE
 10
2031.042886634397
 20
2927.202485111347
 30
0.0
  0
VERTEX
  5
3FC
  8
CORTE_LASER$CORTE
 10
2031.09523455725
 20
2927.285283367106
 30
0.0
  0
VERTEX
  5
3FD
  8
CORTE_LASER$CORTE
 10
2031.150380489337
 20
2927.366244977502
 30
0.0
  0
VERTEX
  5
3FE
  8
CORTE_LASER$CORTE
 10
2031.208260053761
 20
2927.445275428632
 30
0.0
  0
VERTEX
  5
3FF
  8
CORTE_LASER$CORTE
 10
2031.268805682405
 20
2927.522282461012
 30
0.0
  0
VERTEX
  5
400
  8
CORTE_LASER$CORTE
 10
2031.33194669481
 20
2927.597176177278
 30
0.0
  0
VERTEX
  5
401
  8
CORTE_LASER$CORTE
 10
2031.39760938069
 20
2927.669869147137
 30
0.0
  0
VERTEX
  5
402
  8
CORTE_LASER$CORTE
 10
2031.465717085975
 20
2927.740276509425
 30
0.0
  0
VERTEX
  5
403
  8
CORTE_LASER$CORTE
 10
2031.536190302305
 20
2927.80831607118
 30
0.0
  0
VERTEX
  5
404
  8
CORTE_LASER$CORTE
 10
2031.608946759839
 20
2927.873908403591
 30
0.0
  0
VERTEX
  5
405
  8
CORTE_LASER$CORTE
 10
2031.683901523299
 20
2927.936976934716
 30
0.0
  0
VERTEX
  5
406
  8
CORTE_LASER$CORTE
 10
2031.760967091124
 20
2927.997448038886
 30
0.0
  0
VERTEX
  5
407
  8
CORTE_LASER$CORTE
 10
2031.840053497618
 20
2928.055251122641
 30
0.0
  0
VERTEX
  5
408
  8
CORTE_LASER$CORTE
 10
2031.921068417975
 20
2928.110318707147
 30
0.0
  0
VERTEX
  5
409
  8
CORTE_LASER$CORTE
 10
2032.003917276058
 20
2928.162586506968
 30
0.0
  0
VERTEX
  5
40A
  8
CORTE_LASER$CORTE
 10
2032.088503354806
 20
2928.211993505113
 30
0.0
  0
VERTEX
  5
40B
  8
CORTE_LASER$CORTE
 10
2083.90353553531
 20
2928.211993505113
 30
0.0
  0
VERTEX
  5
40C
  8
CORTE_LASER$CORTE
 10
2083.988121614058
 20
2928.162586506968
 30
0.0
  0
VERTEX
  5
40D
  8
CORTE_LASER$CORTE
 10
2084.070970472141
 20
2928.110318707147
 30
0.0
  0
VERTEX
  5
40E
  8
CORTE_LASER$CORTE
 10
2084.151985392499
 20
2928.055251122641
 30
0.0
  0
VERTEX
  5
40F
  8
CORTE_LASER$CORTE
 10
2084.231071798993
 20
2927.997448038886
 30
0.0
  0
VERTEX
  5
410
  8
CORTE_LASER$CORTE
 10
2084.308137366818
 20
2927.936976934716
 30
0.0
  0
VERTEX
  5
411
  8
CORTE_LASER$CORTE
 10
2084.383092130278
 20
2927.873908403591
 30
0.0
  0
VERTEX
  5
412
  8
CORTE_LASER$CORTE
 10
2084.455848587811
 20
2927.80831607118
 30
0.0
  0
VERTEX
  5
413
  8
CORTE_LASER$CORTE
 10
2084.52632180414
 20
2927.740276509425
 30
0.0
  0
VERTEX
  5
414
  8
CORTE_LASER$CORTE
 10
2084.594429509427
 20
2927.669869147137
 30
0.0
  0
VERTEX
  5
415
  8
CORTE_LASER$CORTE
 10
2084.660092195306
 20
2927.597176177278
 30
0.0
  0
VERTEX
  5
416
  8
CORTE_LASER$CORTE
 10
2084.723233207711
 20
2927.522282461012
 30
0.0
  0
VERTEX
  5
417
  8
CORTE_LASER$CORTE
 10
2084.783778836355
 20
2927.445275428633
 30
0.0
  0
VERTEX
  5
418
  8
CORTE_LASER$CORTE
 10
2084.841658400779
 20
2927.366244977502
 30
0.0
  0
VERTEX
  5
419
  8
CORTE_LASER$CORTE
 10
2084.896804332866
 20
2927.285283367106
 30
0.0
  0
VERTEX
  5
41A
  8
CORTE_LASER$CORTE
 10
2084.94915225572
 20
2927.202485111347
 30
0.0
  0
VERTEX
  5
41B
  8
CORTE_LASER$CORTE
 10
2084.998641058814
 20
2927.117946868213
 30
0.0
  0
VERTEX
  5
41C
  8
CORTE_LASER$CORTE
 10
2085.045212969335
 20
2927.03176732694
 30
0.0
  0
VERTEX
  5
41D
  8
CORTE_LASER$CORTE
 10
2085.088813619627
 20
2926.944047092798
 30
0.0
  0
VERTEX
  5
41E
  8
CORTE_LASER$CORTE
 10
2085.129392110657
 20
2926.854888569653
 30
0.0
  0
VERTEX
  5
41F
  8
CORTE_LASER$CORTE
 10
2085.166901071436
 20
2926.764395840414
 30
0.0
  0
VERTEX
  5
420
  8
CORTE_LASER$CORTE
 10
2085.201296714318
 20
2926.672674545534
 30
0.0
  0
VERTEX
  5
421
  8
CORTE_LASER$CORTE
 10
2085.232538886119
 20
2926.579831759681
 30
0.0
  0
VERTEX
  5
422
  8
CORTE_LASER$CORTE
 10
2085.260591114989
 20
2926.485975866744
 30
0.0
  0
VERTEX
  5
423
  8
CORTE_LASER$CORTE
 10
2085.285420652993
 20
2926.391216433301
 30
0.0
  0
VERTEX
  5
424
  8
CORTE_LASER$CORTE
 10
2085.306998514337
 20
2926.295664080722
 30
0.0
  0
VERTEX
  5
425
  8
CORTE_LASER$CORTE
 10
2085.325299509205
 20
2926.199430356017
 30
0.0
  0
VERTEX
  5
426
  8
CORTE_LASER$CORTE
 10
2085.340302273173
 20
2926.102627601629
 30
0.0
  0
VERTEX
  5
427
  8
CORTE_LASER$CORTE
 10
2085.351989292137
 20
2926.005368824279
 30
0.0
  0
VERTEX
  5
428
  8
CORTE_LASER$CORTE
 10
2085.360346922772
 20
2925.907767563048
 30
0.0
  0
VERTEX
  5
429
  8
CORTE_LASER$CORTE
 10
2085.365365408449
 20
2925.809937756827
 30
0.0
  0
VERTEX
  5
42A
  8
CORTE_LASER$CORTE
 10
2085.367038890629
 20
2925.71199361131
 30
0.0
  0
VERTEX
  5
42B
  8
CORTE_LASER$CORTE
 10
2085.367039440314
 20
2921.711993505113
 30
0.0
  0
VERTEX
  5
42C
  8
CORTE_LASER$CORTE
 10
2090.996019445058
 20
2921.711993505113
 30
0.0
  0
VERTEX
  5
42D
  8
CORTE_LASER$CORTE
 10
2090.996019445058
 20
2900.211993505113
 30
0.0
  0
VERTEX
  5
42E
  8
CORTE_LASER$CORTE
 10
2090.994270512157
 20
2900.109570174555
 30
0.0
  0
VERTEX
  5
42F
  8
CORTE_LASER$CORTE
 10
2090.98902575263
 20
2900.007266265019
 30
0.0
  0
VERTEX
  5
430
  8
CORTE_LASER$CORTE
 10
2090.980291281633
 20
2899.905201058287
 30
0.0
  0
VERTEX
  5
431
  8
CORTE_LASER$CORTE
 10
2090.968077283167
 20
2899.803493557824
 30
0.0
  0
VERTEX
  5
432
  8
CORTE_LASER$CORTE
 10
2090.95239799821
 20
2899.702262350027
 30
0.0
  0
VERTEX
  5
433
  8
CORTE_LASER$CORTE
 10
2090.933271708105
 20
2899.601625465955
 30
0.0
  0
VERTEX
  5
434
  8
CORTE_LASER$CORTE
 10
2090.910720713252
 20
2899.501700243714
 30
0.0
  0
VERTEX
  5
435
  8
CORTE_LASER$CORTE
 10
2090.884771307102
 20
2899.402603191642
 30
0.0
  0
VERTEX
  5
436
  8
CORTE_LASER$CORTE
 10
2090.855453745501
 20
2899.30444985247
 30
0.0
  0
VERTEX
  5
437
  8
CORTE_LASER$CORTE
 10
2090.822802211414
 20
2899.2073546686
 30
0.0
  0
VERTEX
  5
438
  8
CORTE_LASER$CORTE
 10
2090.786854775072
 20
2899.111430848674
 30
0.0
  0
VERTEX
  5
439
  8
CORTE_LASER$CORTE
 10
2090.747653349575
 20
2899.016790235575
 30
0.0
  0
VERTEX
  5
43A
  8
CORTE_LASER$CORTE
 10
2090.705243642032
 20
2898.923543176023
 30
0.0
  0
VERTEX
  5
43B
  8
CORTE_LASER$CORTE
 10
2090.659675100265
 20
2898.83179839192
 30
0.0
  0
VERTEX
  5
43C
  8
CORTE_LASER$CORTE
 10
2090.611000855156
 20
2898.741662853579
 30
0.0
  0
VERTEX
  5
43D
  8
CORTE_LASER$CORTE
 10
2090.559277658698
 20
2898.653241655007
 30
0.0
  0
VERTEX
  5
43E
  8
CORTE_LASER$CORTE
 10
2090.504565817822
 20
2898.566637891365
 30
0.0
  0
VERTEX
  5
43F
  8
CORTE_LASER$CORTE
 10
2090.446929124089
 20
2898.481952538769
 30
0.0
  0
VERTEX
  5
440
  8
CORTE_LASER$CORTE
 10
2090.386434779306
 20
2898.39928433655
 30
0.0
  0
VERTEX
  5
441
  8
CORTE_LASER$CORTE
 10
2090.323153317172
 20
2898.318729672135
 30
0.0
  0
VERTEX
  5
442
  8
CORTE_LASER$CORTE
 10
2090.25715852104
 20
2898.240382468659
 30
0.0
  0
VERTEX
  5
443
  8
CORTE_LASER$CORTE
 10
2090.188527337893
 20
2898.164334075457
 30
0.0
  0
VERTEX
  5
444
  8
CORTE_LASER$CORTE
 10
2090.117339788618
 20
2898.090673161554
 30
0.0
  0
VERTEX
  5
445
  8
CORTE_LASER$CORTE
 10
2090.043678874714
 20
2898.019485612279
 30
0.0
  0
VERTEX
  5
446
  8
CORTE_LASER$CORTE
 10
2089.967630481512
 20
2897.950854429131
 30
0.0
  0
VERTEX
  5
447
  8
CORTE_LASER$CORTE
 10
2089.889283278036
 20
2897.884859633
 30
0.0
  0
VERTEX
  5
448
  8
CORTE_LASER$CORTE
 10
2089.808728613621
 20
2897.821578170865
 30
0.0
  0
VERTEX
  5
449
  8
CORTE_LASER$CORTE
 10
2089.726060411403
 20
2897.761083826082
 30
0.0
  0
VERTEX
  5
44A
  8
CORTE_LASER$CORTE
 10
2089.641375058806
 20
2897.703447132349
 30
0.0
  0
VERTEX
  5
44B
  8
CORTE_LASER$CORTE
 10
2089.554771295164
 20
2897.648735291474
 30
0.0
  0
VERTEX
  5
44C
  8
CORTE_LASER$CORTE
 10
2089.466350096592
 20
2897.597012095015
 30
0.0
  0
VERTEX
  5
44D
  8
CORTE_LASER$CORTE
 10
2089.376214558252
 20
2897.548337849906
 30
0.0
  0
VERTEX
  5
44E
  8
CORTE_LASER$CORTE
 10
2089.284469774148
 20
2897.50276930814
 30
0.0
  0
VERTEX
  5
44F
  8
CORTE_LASER$CORTE
 10
2089.191222714597
 20
2897.460359600597
 30
0.0
  0
VERTEX
  5
450
  8
CORTE_LASER$CORTE
 10
2089.096582101497
 20
2897.4211581751
 30
0.0
  0
VERTEX
  5
451
  8
CORTE_LASER$CORTE
 10
2089.000658281571
 20
2897.385210738757
 30
0.0
  0
VERTEX
  5
452
  8
CORTE_LASER$CORTE
 10
2088.903563097701
 20
2897.352559204671
 30
0.0
  0
VERTEX
  5
453
  8
CORTE_LASER$CORTE
 10
2088.805409758529
 20
2897.32324164307
 30
0.0
  0
VERTEX
  5
454
  8
CORTE_LASER$CORTE
 10
2088.706312706458
 20
2897.297292236919
 30
0.0
  0
VERTEX
  5
455
  8
CORTE_LASER$CORTE
 10
2088.606387484216
 20
2897.274741242066
 30
0.0
  0
VERTEX
  5
456
  8
CORTE_LASER$CORTE
 10
2088.505750600144
 20
2897.255614951961
 30
0.0
  0
VERTEX
  5
457
  8
CORTE_LASER$CORTE
 10
2088.404519392347
 20
2897.239935667004
 30
0.0
  0
VERTEX
  5
458
  8
CORTE_LASER$CORTE
 10
2088.302811891884
 20
2897.227721668539
 30
0.0
  0
VERTEX
  5
459
  8
CORTE_LASER$CORTE
 10
2088.200746685152
 20
2897.218987197542
 30
0.0
  0
VERTEX
  5
45A
  8
CORTE_LASER$CORTE
 10
2088.098442775616
 20
2897.213742438015
 30
0.0
  0
VERTEX
  5
45B
  8
CORTE_LASER$CORTE
 10
2087.996019445058
 20
2897.211993505113
 30
0.0
  0
VERTEX
  5
45C
  8
CORTE_LASER$CORTE
 10
2027.996019445058
 20
2897.211993505113
 30
0.0
  0
VERTEX
  5
45D
  8
CORTE_LASER$CORTE
 10
2027.8935961145
 20
2897.213742438015
 30
0.0
  0
VERTEX
  5
45E
  8
CORTE_LASER$CORTE
 10
2027.791292204965
 20
2897.218987197542
 30
0.0
  0
VERTEX
  5
45F
  8
CORTE_LASER$CORTE
 10
2027.689226998232
 20
2897.227721668539
 30
0.0
  0
VERTEX
  5
460
  8
CORTE_LASER$CORTE
 10
2027.58751949777
 20
2897.239935667004
 30
0.0
  0
VERTEX
  5
461
  8
CORTE_LASER$CORTE
 10
2027.486288289972
 20
2897.255614951961
 30
0.0
  0
VERTEX
  5
462
  8
CORTE_LASER$CORTE
 10
2027.3856514059
 20
2897.274741242066
 30
0.0
  0
VERTEX
  5
463
  8
CORTE_LASER$CORTE
 10
2027.285726183659
 20
2897.297292236919
 30
0.0
  0
VERTEX
  5
464
  8
CORTE_LASER$CORTE
 10
2027.186629131587
 20
2897.32324164307
 30
0.0
  0
VERTEX
  5
465
  8
CORTE_LASER$CORTE
 10
2027.088475792415
 20
2897.352559204671
 30
0.0
  0
VERTEX
  5
466
  8
CORTE_LASER$CORTE
 10
2026.991380608546
 20
2897.385210738757
 30
0.0
  0
VERTEX
  5
467
  8
CORTE_LASER$CORTE
 10
2026.895456788619
 20
2897.4211581751
 30
0.0
  0
VERTEX
  5
468
  8
CORTE_LASER$CORTE
 10
2026.80081617552
 20
2897.460359600597
 30
0.0
  0
VERTEX
  5
469
  8
CORTE_LASER$CORTE
 10
2026.707569115968
 20
2897.50276930814
 30
0.0
  0
VERTEX
  5
46A
  8
CORTE_LASER$CORTE
 10
2026.615824331865
 20
2897.548337849906
 30
0.0
  0
VERTEX
  5
46B
  8
CORTE_LASER$CORTE
 10
2026.525688793525
 20
2897.597012095015
 30
0.0
  0
VERTEX
  5
46C
  8
CORTE_LASER$CORTE
 10
2026.437267594952
 20
2897.648735291474
 30
0.0
  0
VERTEX
  5
46D
  8
CORTE_LASER$CORTE
 10
2026.350663831311
 20
2897.703447132349
 30
0.0
  0
VERTEX
  5
46E
  8
CORTE_LASER$CORTE
 10
2026.265978478714
 20
2897.761083826082
 30
0.0
  0
VERTEX
  5
46F
  8
CORTE_LASER$CORTE
 10
2026.183310276495
 20
2897.821578170865
 30
0.0
  0
VERTEX
  5
470
  8
CORTE_LASER$CORTE
 10
2026.10275561208
 20
2897.884859633
 30
0.0
  0
VERTEX
  5
471
  8
CORTE_LASER$CORTE
 10
2026.024408408605
 20
2897.950854429131
 30
0.0
  0
VERTEX
  5
472
  8
CORTE_LASER$CORTE
 10
2025.948360015403
 20
2898.019485612279
 30
0.0
  0
VERTEX
  5
473
  8
CORTE_LASER$CORTE
 10
2025.874699101499
 20
2898.090673161554
 30
0.0
  0
VERTEX
  5
474
  8
CORTE_LASER$CORTE
 10
2025.803511552224
 20
2898.164334075457
 30
0.0
  0
VERTEX
  5
475
  8
CORTE_LASER$CORTE
 10
2025.734880369077
 20
2898.240382468659
 30
0.0
  0
VERTEX
  5
476
  8
CORTE_LASER$CORTE
 10
2025.668885572946
 20
2898.318729672135
 30
0.0
  0
VERTEX
  5
477
  8
CORTE_LASER$CORTE
 10
2025.605604110811
 20
2898.39928433655
 30
0.0
  0
VERTEX
  5
478
  8
CORTE_LASER$CORTE
 10
2025.545109766028
 20
2898.481952538768
 30
0.0
  0
VERTEX
  5
479
  8
CORTE_LASER$CORTE
 10
2025.487473072295
 20
2898.566637891365
 30
0.0
  0
VERTEX
  5
47A
  8
CORTE_LASER$CORTE
 10
2025.432761231419
 20
2898.653241655007
 30
0.0
  0
VERTEX
  5
47B
  8
CORTE_LASER$CORTE
 10
2025.381038034961
 20
2898.741662853579
 30
0.0
  0
VERTEX
  5
47C
  8
CORTE_LASER$CORTE
 10
2025.332363789852
 20
2898.83179839192
 30
0.0
  0
VERTEX
  5
47D
  8
CORTE_LASER$CORTE
 10
2025.286795248085
 20
2898.923543176023
 30
0.0
  0
VERTEX
  5
47E
  8
CORTE_LASER$CORTE
 10
2025.244385540542
 20
2899.016790235574
 30
0.0
  0
VERTEX
  5
47F
  8
CORTE_LASER$CORTE
 10
2025.205184115045
 20
2899.111430848674
 30
0.0
  0
VERTEX
  5
480
  8
CORTE_LASER$CORTE
 10
2025.169236678702
 20
2899.2073546686
 30
0.0
  0
VERTEX
  5
481
  8
CORTE_LASER$CORTE
 10
2025.136585144616
 20
2899.30444985247
 30
0.0
  0
VERTEX
  5
482
  8
CORTE_LASER$CORTE
 10
2025.107267583015
 20
2899.402603191642
 30
0.0
  0
VERTEX
  5
483
  8
CORTE_LASER$CORTE
 10
2025.081318176865
 20
2899.501700243714
 30
0.0
  0
VERTEX
  5
484
  8
CORTE_LASER$CORTE
 10
2025.058767182012
 20
2899.601625465955
 30
0.0
  0
VERTEX
  5
485
  8
CORTE_LASER$CORTE
 10
2025.039640891907
 20
2899.702262350027
 30
0.0
  0
VERTEX
  5
486
  8
CORTE_LASER$CORTE
 10
2025.02396160695
 20
2899.803493557824
 30
0.0
  0
VERTEX
  5
487
  8
CORTE_LASER$CORTE
 10
2025.011747608484
 20
2899.905201058287
 30
0.0
  0
VERTEX
  5
488
  8
CORTE_LASER$CORTE
 10
2025.003013137487
 20
2900.007266265019
 30
0.0
  0
VERTEX
  5
489
  8
CORTE_LASER$CORTE
 10
2024.99776837796
 20
2900.109570174555
 30
0.0
  0
SEQEND
  5
48A
  8
CORTE_LASER$CORTE
  0
POLYLINE
  5
48B
  8
CORTE_LASER$CORTE
 66
     1
 10
0.0
 20
0.0
 30
0.0
 70
     1
  0
VERTEX
  5
48C
  8
CORTE_LASER$CORTE
 10
2024.996019445059
 20
2854.211993505113
 30
0.0
  0
VERTEX
  5
48D
  8
CORTE_LASER$CORTE
 10
2024.996019445059
 20
2893.0
 30
0.0
  0
VERTEX
  5
48E
  8
CORTE_LASER$CORTE
 10
2091.003980554942
 20
2893.0
 30
0.0
  0
VERTEX
  5
48F
  8
CORTE_LASER$CORTE
 10
2091.003980554942
 20
2854.211993505113
 30
0.0
  0
VERTEX
  5
490
  8
CORTE_LASER$CORTE
 10
2091.00223162204
 20
2854.109570174555
 30
0.0
  0
VERTEX
  5
491
  8
CORTE_LASER$CORTE
 10
2090.996986862513
 20
2854.007266265019
 30
0.0
  0
VERTEX
  5
492
  8
CORTE_LASER$CORTE
 10
2090.988252391516
 20
2853.905201058287
 30
0.0
  0
VERTEX
  5
493
  8
CORTE_LASER$CORTE
 10
2090.976038393051
 20
2853.803493557824
 30
0.0
  0
VERTEX
  5
494
  8
CORTE_LASER$CORTE
 10
2090.960359108094
 20
2853.702262350027
 30
0.0
  0
VERTEX
  5
495
  8
CORTE_LASER$CORTE
 10
2090.941232817989
 20
2853.601625465955
 30
0.0
  0
VERTEX
  5
496
  8
CORTE_LASER$CORTE
 10
2090.918681823136
 20
2853.501700243714
 30
0.0
  0
VERTEX
  5
497
  8
CORTE_LASER$CORTE
 10
2090.892732416985
 20
2853.402603191642
 30
0.0
  0
VERTEX
  5
498
  8
CORTE_LASER$CORTE
 10
2090.863414855384
 20
2853.30444985247
 30
0.0
  0
VERTEX
  5
499
  8
CORTE_LASER$CORTE
 10
2090.830763321298
 20
2853.2073546686
 30
0.0
  0
VERTEX
  5
49A
  8
CORTE_LASER$CORTE
 10
2090.794815884955
 20
2853.111430848674
 30
0.0
  0
VERTEX
  5
49B
  8
CORTE_LASER$CORTE
 10
2090.755614459458
 20
2853.016790235575
 30
0.0
  0
VERTEX
  5
49C
  8
CORTE_LASER$CORTE
 10
2090.713204751915
 20
2852.923543176023
 30
0.0
  0
VERTEX
  5
49D
  8
CORTE_LASER$CORTE
 10
2090.667636210149
 20
2852.83179839192
 30
0.0
  0
VERTEX
  5
49E
  8
CORTE_LASER$CORTE
 10
2090.61896196504
 20
2852.741662853579
 30
0.0
  0
VERTEX
  5
49F
  8
CORTE_LASER$CORTE
 10
2090.567238768581
 20
2852.653241655007
 30
0.0
  0
VERTEX
  5
4A0
  8
CORTE_LASER$CORTE
 10
2090.512526927706
 20
2852.566637891365
 30
0.0
  0
VERTEX
  5
4A1
  8
CORTE_LASER$CORTE
 10
2090.454890233973
 20
2852.481952538769
 30
0.0
  0
VERTEX
  5
4A2
  8
CORTE_LASER$CORTE
 10
2090.39439588919
 20
2852.39928433655
 30
0.0
  0
VERTEX
  5
4A3
  8
CORTE_LASER$CORTE
 10
2090.331114427055
 20
2852.318729672135
 30
0.0
  0
VERTEX
  5
4A4
  8
CORTE_LASER$CORTE
 10
2090.265119630924
 20
2852.240382468659
 30
0.0
  0
VERTEX
  5
4A5
  8
CORTE_LASER$CORTE
 10
2090.196488447776
 20
2852.164334075457
 30
0.0
  0
VERTEX
  5
4A6
  8
CORTE_LASER$CORTE
 10
2090.125300898501
 20
2852.090673161554
 30
0.0
  0
VERTEX
  5
4A7
  8
CORTE_LASER$CORTE
 10
2090.051639984598
 20
2852.019485612279
 30
0.0
  0
VERTEX
  5
4A8
  8
CORTE_LASER$CORTE
 10
2089.975591591396
 20
2851.950854429131
 30
0.0
  0
VERTEX
  5
4A9
  8
CORTE_LASER$CORTE
 10
2089.89724438792
 20
2851.884859633
 30
0.0
  0
VERTEX
  5
4AA
  8
CORTE_LASER$CORTE
 10
2089.816689723505
 20
2851.821578170865
 30
0.0
  0
VERTEX
  5
4AB
  8
CORTE_LASER$CORTE
 10
2089.734021521286
 20
2851.761083826082
 30
0.0
  0
VERTEX
  5
4AC
  8
CORTE_LASER$CORTE
 10
2089.64933616869
 20
2851.703447132349
 30
0.0
  0
VERTEX
  5
4AD
  8
CORTE_LASER$CORTE
 10
2089.562732405048
 20
2851.648735291474
 30
0.0
  0
VERTEX
  5
4AE
  8
CORTE_LASER$CORTE
 10
2089.474311206476
 20
2851.597012095015
 30
0.0
  0
VERTEX
  5
4AF
  8
CORTE_LASER$CORTE
 10
2089.384175668135
 20
2851.548337849906
 30
0.0
  0
VERTEX
  5
4B0
  8
CORTE_LASER$CORTE
 10
2089.292430884032
 20
2851.50276930814
 30
0.0
  0
VERTEX
  5
4B1
  8
CORTE_LASER$CORTE
 10
2089.19918382448
 20
2851.460359600597
 30
0.0
  0
VERTEX
  5
4B2
  8
CORTE_LASER$CORTE
 10
2089.104543211381
 20
2851.4211581751
 30
0.0
  0
VERTEX
  5
4B3
  8
CORTE_LASER$CORTE
 10
2089.008619391455
 20
2851.385210738757
 30
0.0
  0
VERTEX
  5
4B4
  8
CORTE_LASER$CORTE
 10
2088.911524207585
 20
2851.352559204671
 30
0.0
  0
VERTEX
  5
4B5
  8
CORTE_LASER$CORTE
 10
2088.813370868413
 20
2851.32324164307
 30
0.0
  0
VERTEX
  5
4B6
  8
CORTE_LASER$CORTE
 10
2088.714273816341
 20
2851.297292236919
 30
0.0
  0
VERTEX
  5
4B7
  8
CORTE_LASER$CORTE
 10
2088.6143485941
 20
2851.274741242066
 30
0.0
  0
VERTEX
  5
4B8
  8
CORTE_LASER$CORTE
 10
2088.513711710028
 20
2851.255614951961
 30
0.0
  0
VERTEX
  5
4B9
  8
CORTE_LASER$CORTE
 10
2088.412480502231
 20
2851.239935667004
 30
0.0
  0
VERTEX
  5
4BA
  8
CORTE_LASER$CORTE
 10
2088.310773001768
 20
2851.227721668539
 30
0.0
  0
VERTEX
  5
4BB
  8
CORTE_LASER$CORTE
 10
2088.208707795036
 20
2851.218987197542
 30
0.0
  0
VERTEX
  5
4BC
  8
CORTE_LASER$CORTE
 10
2088.1064038855
 20
2851.213742438015
 30
0.0
  0
VERTEX
  5
4BD
  8
CORTE_LASER$CORTE
 10
2088.003980554942
 20
2851.211993505113
 30
0.0
  0
VERTEX
  5
4BE
  8
CORTE_LASER$CORTE
 10
2027.996019445059
 20
2851.211993505113
 30
0.0
  0
VERTEX
  5
4BF
  8
CORTE_LASER$CORTE
 10
2027.893596114501
 20
2851.213742438015
 30
0.0
  0
VERTEX
  5
4C0
  8
CORTE_LASER$CORTE
 10
2027.791292204965
 20
2851.218987197542
 30
0.0
  0
VERTEX
  5
4C1
  8
CORTE_LASER$CORTE
 10
2027.689226998232
 20
2851.227721668539
 30
0.0
  0
VERTEX
  5
4C2
  8
CORTE_LASER$CORTE
 10
2027.58751949777
 20
2851.239935667004
 30
0.0
  0
VERTEX
  5
4C3
  8
CORTE_LASER$CORTE
 10
2027.486288289973
 20
2851.255614951961
 30
0.0
  0
VERTEX
  5
4C4
  8
CORTE_LASER$CORTE
 10
2027.385651405901
 20
2851.274741242066
 30
0.0
  0
VERTEX
  5
4C5
  8
CORTE_LASER$CORTE
 10
2027.285726183659
 20
2851.297292236919
 30
0.0
  0
VERTEX
  5
4C6
  8
CORTE_LASER$CORTE
 10
2027.186629131588
 20
2851.32324164307
 30
0.0
  0
VERTEX
  5
4C7
  8
CORTE_LASER$CORTE
 10
2027.088475792415
 20
2851.352559204671
 30
0.0
  0
VERTEX
  5
4C8
  8
CORTE_LASER$CORTE
 10
2026.991380608546
 20
2851.385210738757
 30
0.0
  0
VERTEX
  5
4C9
  8
CORTE_LASER$CORTE
 10
2026.895456788619
 20
2851.4211581751
 30
0.0
  0
VERTEX
  5
4CA
  8
CORTE_LASER$CORTE
 10
2026.80081617552
 20
2851.460359600597
 30
0.0
  0
VERTEX
  5
4CB
  8
CORTE_LASER$CORTE
 10
2026.707569115968
 20
2851.50276930814
 30
0.0
  0
VERTEX
  5
4CC
  8
CORTE_LASER$CORTE
 10
2026.615824331865
 20
2851.548337849906
 30
0.0
  0
VERTEX
  5
4CD
  8
CORTE_LASER$CORTE
 10
2026.525688793525
 20
2851.597012095015
 30
0.0
  0
VERTEX
  5
4CE
  8
CORTE_LASER$CORTE
 10
2026.437267594952
 20
2851.648735291474
 30
0.0
  0
VERTEX
  5
4CF
  8
CORTE_LASER$CORTE
 10
2026.350663831311
 20
2851.703447132349
 30
0.0
  0
VERTEX
  5
4D0
  8
CORTE_LASER$CORTE
 10
2026.265978478714
 20
2851.761083826082
 30
0.0
  0
VERTEX
  5
4D1
  8
CORTE_LASER$CORTE
 10
2026.183310276495
 20
2851.821578170865
 30
0.0
  0
VERTEX
  5
4D2
  8
CORTE_LASER$CORTE
 10
2026.102755612081
 20
2851.884859633
 30
0.0
  0
VERTEX
  5
4D3
  8
CORTE_LASER$CORTE
 10
2026.024408408605
 20
2851.950854429131
 30
0.0
  0
VERTEX
  5
4D4
  8
CORTE_LASER$CORTE
 10
2025.948360015403
 20
2852.019485612279
 30
0.0
  0
VERTEX
  5
4D5
  8
CORTE_LASER$CORTE
 10
2025.874699101499
 20
2852.090673161554
 30
0.0
  0
VERTEX
  5
4D6
  8
CORTE_LASER$CORTE
 10
2025.803511552224
 20
2852.164334075457
 30
0.0
  0
VERTEX
  5
4D7
  8
CORTE_LASER$CORTE
 10
2025.734880369077
 20
2852.240382468659
 30
0.0
  0
VERTEX
  5
4D8
  8
CORTE_LASER$CORTE
 10
2025.668885572945
 20
2852.318729672135
 30
0.0
  0
VERTEX
  5
4D9
  8
CORTE_LASER$CORTE
 10
2025.605604110811
 20
2852.39928433655
 30
0.0
  0
VERTEX
  5
4DA
  8
CORTE_LASER$CORTE
 10
2025.545109766027
 20
2852.481952538769
 30
0.0
  0
VERTEX
  5
4DB
  8
CORTE_LASER$CORTE
 10
2025.487473072295
 20
2852.566637891365
 30
0.0
  0
VERTEX
  5
4DC
  8
CORTE_LASER$CORTE
 10
2025.432761231419
 20
2852.653241655007
 30
0.0
  0
VERTEX
  5
4DD
  8
CORTE_LASER$CORTE
 10
2025.381038034961
 20
2852.741662853579
 30
0.0
  0
VERTEX
  5
4DE
  8
CORTE_LASER$CORTE
 10
2025.332363789852
 20
2852.83179839192
 30
0.0
  0
VERTEX
  5
4DF
  8
CORTE_LASER$CORTE
 10
2025.286795248085
 20
2852.923543176023
 30
0.0
  0
VERTEX
  5
4E0
  8
CORTE_LASER$CORTE
 10
2025.244385540542
 20
2853.016790235575
 30
0.0
  0
VERTEX
  5
4E1
  8
CORTE_LASER$CORTE
 10
2025.205184115045
 20
2853.111430848674
 30
0.0
  0
VERTEX
  5
4E2
  8
CORTE_LASER$CORTE
 10
2025.169236678702
 20
2853.2073546686
 30
0.0
  0
VERTEX
  5
4E3
  8
CORTE_LASER$CORTE
 10
2025.136585144616
 20
2853.30444985247
 30
0.0
  0
VERTEX
  5
4E4
  8
CORTE_LASER$CORTE
 10
2025.107267583015
 20
2853.402603191642
 30
0.0
  0
VERTEX
  5
4E5
  8
CORTE_LASER$CORTE
 10
2025.081318176865
 20
2853.501700243714
 30
0.0
  0
VERTEX
  5
4E6
  8
CORTE_LASER$CORTE
 10
2025.058767182012
 20
2853.601625465955
 30
0.0
  0
VERTEX
  5
4E7
  8
CORTE_LASER$CORTE
 10
2025.039640891907
 20
2853.702262350027
 30
0.0
  0
VERTEX
  5
4E8
  8
CORTE_LASER$CORTE
 10
2025.02396160695
 20
2853.803493557824
 30
0.0
  0
VERTEX
  5
4E9
  8
CORTE_LASER$CORTE
 10
2025.011747608484
 20
2853.905201058287
 30
0.0
  0
VERTEX
  5
4EA
  8
CORTE_LASER$CORTE
 10
2025.003013137487
 20
2854.007266265019
 30
0.0
  0
VERTEX
  5
4EB
  8
CORTE_LASER$CORTE
 10
2024.99776837796
 20
2854.109570174555
 30
0.0
  0
SEQEND
  5
4EC
  8
CORTE_LASER$CORTE
  0
CIRCLE
  5
4ED
  8
CORTE_LASER$CORTE
 10
2082.492038889604
 20
2879.711993505113
 30
0.0
 40
1.75
  0
CIRCLE
  5
4EE
  8
CORTE_LASER$CORTE
 10
2033.492038889604
 20
2879.711993505113
 30
0.0
 40
1.75
  0
POLYLINE
  5
4EF
  8
CORTE_LASER$CORTE
 66
     1
 10
0.0
 20
0.0
 30
0.0
 70
     1
  0
VERTEX
  5
4F0
  8
CORTE_LASER$CORTE
 10
1997.499999999487
 20
2976.211993505113
 30
0.0
  0
VERTEX
  5
4F1
  8
CORTE_LASER$CORTE
 10
1997.499999999487
 20
2980.711993505113
 30
0.0
  0
VERTEX
  5
4F2
  8
CORTE_LASER$CORTE
 10
1997.501748932389
 20
2980.814416835671
 30
0.0
  0
VERTEX
  5
4F3
  8
CORTE_LASER$CORTE
 10
1997.506993691916
 20
2980.916720745207
 30
0.0
  0
VERTEX
  5
4F4
  8
CORTE_LASER$CORTE
 10
1997.515728162913
 20
2981.018785951939
 30
0.0
  0
VERTEX
  5
4F5
  8
CORTE_LASER$CORTE
 10
1997.527942161378
 20
2981.120493452402
 30
0.0
  0
VERTEX
  5
4F6
  8
CORTE_LASER$CORTE
 10
1997.543621446336
 20
2981.221724660199
 30
0.0
  0
VERTEX
  5
4F7
  8
CORTE_LASER$CORTE
 10
1997.562747736441
 20
2981.322361544271
 30
0.0
  0
VERTEX
  5
4F8
  8
CORTE_LASER$CORTE
 10
1997.585298731294
 20
2981.422286766513
 30
0.0
  0
VERTEX
  5
4F9
  8
CORTE_LASER$CORTE
 10
1997.611248137444
 20
2981.521383818584
 30
0.0
  0
VERTEX
  5
4FA
  8
CORTE_LASER$CORTE
 10
1997.640565699045
 20
2981.619537157756
 30
0.0
  0
VERTEX
  5
4FB
  8
CORTE_LASER$CORTE
 10
1997.673217233131
 20
2981.716632341626
 30
0.0
  0
VERTEX
  5
4FC
  8
CORTE_LASER$CORTE
 10
1997.709164669474
 20
2981.812556161552
 30
0.0
  0
VERTEX
  5
4FD
  8
CORTE_LASER$CORTE
 10
1997.748366094971
 20
2981.907196774652
 30
0.0
  0
VERTEX
  5
4FE
  8
CORTE_LASER$CORTE
 10
1997.790775802514
 20
2982.000443834203
 30
0.0
  0
VERTEX
  5
4FF
  8
CORTE_LASER$CORTE
 10
1997.83634434428
 20
2982.092188618307
 30
0.0
  0
VERTEX
  5
500
  8
CORTE_LASER$CORTE
 10
1997.885018589389
 20
2982.182324156647
 30
0.0
  0
VERTEX
  5
501
  8
CORTE_LASER$CORTE
 10
1997.936741785848
 20
2982.27074535522
 30
0.0
  0
VERTEX
  5
502
  8
CORTE_LASER$CORTE
 10
1997.991453626723
 20
2982.357349118861
 30
0.0
  0
VERTEX
  5
503
  8
CORTE_LASER$CORTE
 10
1998.049090320456
 20
2982.442034471458
 30
0.0
  0
VERTEX
  5
504
  8
CORTE_LASER$CORTE
 10
1998.10958466524
 20
2982.524702673677
 30
0.0
  0
VERTEX
  5
505
  8
CORTE_LASER$CORTE
 10
1998.172866127374
 20
2982.605257338092
 30
0.0
  0
VERTEX
  5
506
  8
CORTE_LASER$CORTE
 10
1998.238860923505
 20
2982.683604541567
 30
0.0
  0
VERTEX
  5
507
  8
CORTE_LASER$CORTE
 10
1998.307492106653
 20
2982.759652934769
 30
0.0
  0
VERTEX
  5
508
  8
CORTE_LASER$CORTE
 10
1998.378679655928
 20
2982.833313848673
 30
0.0
  0
VERTEX
  5
509
  8
CORTE_LASER$CORTE
 10
1998.452340569832
 20
2982.904501397948
 30
0.0
  0
VERTEX
  5
50A
  8
CORTE_LASER$CORTE
 10
1998.528388963034
 20
2982.973132581095
 30
0.0
  0
VERTEX
  5
50B
  8
CORTE_LASER$CORTE
 10
1998.606736166509
 20
2983.039127377227
 30
0.0
  0
VERTEX
  5
50C
  8
CORTE_LASER$CORTE
 10
1998.687290830924
 20
2983.102408839361
 30
0.0
  0
VERTEX
  5
50D
  8
CORTE_LASER$CORTE
 10
1998.769959033143
 20
2983.162903184144
 30
0.0
  0
VERTEX
  5
50E
  8
CORTE_LASER$CORTE
 10
1998.85464438574
 20
2983.220539877877
 30
0.0
  0
VERTEX
  5
50F
  8
CORTE_LASER$CORTE
 10
1998.941248149381
 20
2983.275251718753
 30
0.0
  0
VERTEX
  5
510
  8
CORTE_LASER$CORTE
 10
1999.029669347954
 20
2983.326974915211
 30
0.0
  0
VERTEX
  5
511
  8
CORTE_LASER$CORTE
 10
1999.119804886294
 20
2983.37564916032
 30
0.0
  0
VERTEX
  5
512
  8
CORTE_LASER$CORTE
 10
1999.211549670397
 20
2983.421217702087
 30
0.0
  0
VERTEX
  5
513
  8
CORTE_LASER$CORTE
 10
1999.304796729949
 20
2983.46362740963
 30
0.0
  0
VERTEX
  5
514
  8
CORTE_LASER$CORTE
 10
1999.399437343048
 20
2983.502828835127
 30
0.0
  0
VERTEX
  5
515
  8
CORTE_LASER$CORTE
 10
1999.495361162975
 20
2983.53877627147
 30
0.0
  0
VERTEX
  5
516
  8
CORTE_LASER$CORTE
 10
1999.592456346844
 20
2983.571427805556
 30
0.0
  0
VERTEX
  5
517
  8
CORTE_LASER$CORTE
 10
1999.690609686017
 20
2983.600745367157
 30
0.0
  0
VERTEX
  5
518
  8
CORTE_LASER$CORTE
 10
1999.789706738088
 20
2983.626694773307
 30
0.0
  0
VERTEX
  5
519
  8
CORTE_LASER$CORTE
 10
1999.88963196033
 20
2983.64924576816
 30
0.0
  0
VERTEX
  5
51A
  8
CORTE_LASER$CORTE
 10
1999.990268844401
 20
2983.668372058265
 30
0.0
  0
VERTEX
  5
51B
  8
CORTE_LASER$CORTE
 10
2000.091500052199
 20
2983.684051343222
 30
0.0
  0
VERTEX
  5
51C
  8
CORTE_LASER$CORTE
 10
2000.193207552662
 20
2983.696265341688
 30
0.0
  0
VERTEX
  5
51D
  8
CORTE_LASER$CORTE
 10
2000.295272759394
 20
2983.704999812685
 30
0.0
  0
VERTEX
  5
51E
  8
CORTE_LASER$CORTE
 10
2000.39757666893
 20
2983.710244572212
 30
0.0
  0
VERTEX
  5
51F
  8
CORTE_LASER$CORTE
 10
2000.499999999488
 20
2983.711993505113
 30
0.0
  0
VERTEX
  5
520
  8
CORTE_LASER$CORTE
 10
2006.003980554942
 20
2983.711993505113
 30
0.0
  0
VERTEX
  5
521
  8
CORTE_LASER$CORTE
 10
2006.1064038855
 20
2983.710244572212
 30
0.0
  0
VERTEX
  5
522
  8
CORTE_LASER$CORTE
 10
2006.208707795036
 20
2983.704999812685
 30
0.0
  0
VERTEX
  5
523
  8
CORTE_LASER$CORTE
 10
2006.310773001768
 20
2983.696265341687
 30
0.0
  0
VERTEX
  5
524
  8
CORTE_LASER$CORTE
 10
2006.41248050223
 20
2983.684051343222
 30
0.0
  0
VERTEX
  5
525
  8
CORTE_LASER$CORTE
 10
2006.513711710028
 20
2983.668372058265
 30
0.0
  0
VERTEX
  5
526
  8
CORTE_LASER$CORTE
 10
2006.6143485941
 20
2983.64924576816
 30
0.0
  0
VERTEX
  5
527
  8
CORTE_LASER$CORTE
 10
2006.714273816341
 20
2983.626694773307
 30
0.0
  0
VERTEX
  5
528
  8
CORTE_LASER$CORTE
 10
2006.813370868413
 20
2983.600745367156
 30
0.0
  0
VERTEX
  5
529
  8
CORTE_LASER$CORTE
 10
2006.911524207585
 20
2983.571427805556
 30
0.0
  0
VERTEX
  5
52A
  8
CORTE_LASER$CORTE
 10
2007.008619391455
 20
2983.538776271469
 30
0.0
  0
VERTEX
  5
52B
  8
CORTE_LASER$CORTE
 10
2007.104543211381
 20
2983.502828835127
 30
0.0
  0
VERTEX
  5
52C
  8
CORTE_LASER$CORTE
 10
2007.199183824481
 20
2983.46362740963
 30
0.0
  0
VERTEX
  5
52D
  8
CORTE_LASER$CORTE
 10
2007.292430884032
 20
2983.421217702087
 30
0.0
  0
VERTEX
  5
52E
  8
CORTE_LASER$CORTE
 10
2007.384175668135
 20
2983.37564916032
 30
0.0
  0
VERTEX
  5
52F
  8
CORTE_LASER$CORTE
 10
2007.474311206476
 20
2983.326974915211
 30
0.0
  0
VERTEX
  5
530
  8
CORTE_LASER$CORTE
 10
2007.562732405048
 20
2983.275251718753
 30
0.0
  0
VERTEX
  5
531
  8
CORTE_LASER$CORTE
 10
2007.64933616869
 20
2983.220539877877
 30
0.0
  0
VERTEX
  5
532
  8
CORTE_LASER$CORTE
 10
2007.734021521286
 20
2983.162903184144
 30
0.0
  0
VERTEX
  5
533
  8
CORTE_LASER$CORTE
 10
2007.816689723505
 20
2983.102408839361
 30
0.0
  0
VERTEX
  5
534
  8
CORTE_LASER$CORTE
 10
2007.89724438792
 20
2983.039127377226
 30
0.0
  0
VERTEX
  5
535
  8
CORTE_LASER$CORTE
 10
2007.975591591396
 20
2982.973132581095
 30
0.0
  0
VERTEX
  5
536
  8
CORTE_LASER$CORTE
 10
2008.051639984598
 20
2982.904501397948
 30
0.0
  0
VERTEX
  5
537
  8
CORTE_LASER$CORTE
 10
2008.125300898501
 20
2982.833313848673
 30
0.0
  0
VERTEX
  5
538
  8
CORTE_LASER$CORTE
 10
2008.196488447776
 20
2982.759652934769
 30
0.0
  0
VERTEX
  5
539
  8
CORTE_LASER$CORTE
 10
2008.265119630924
 20
2982.683604541567
 30
0.0
  0
VERTEX
  5
53A
  8
CORTE_LASER$CORTE
 10
2008.331114427055
 20
2982.605257338091
 30
0.0
  0
VERTEX
  5
53B
  8
CORTE_LASER$CORTE
 10
2008.39439588919
 20
2982.524702673677
 30
0.0
  0
VERTEX
  5
53C
  8
CORTE_LASER$CORTE
 10
2008.454890233973
 20
2982.442034471458
 30
0.0
  0
VERTEX
  5
53D
  8
CORTE_LASER$CORTE
 10
2008.512526927706
 20
2982.357349118861
 30
0.0
  0
VERTEX
  5
53E
  8
CORTE_LASER$CORTE
 10
2008.567238768581
 20
2982.270745355219
 30
0.0
  0
VERTEX
  5
53F
  8
CORTE_LASER$CORTE
 10
2008.61896196504
 20
2982.182324156647
 30
0.0
  0
VERTEX
  5
540
  8
CORTE_LASER$CORTE
 10
2008.667636210149
 20
2982.092188618306
 30
0.0
  0
VERTEX
  5
541
  8
CORTE_LASER$CORTE
 10
2008.713204751915
 20
2982.000443834203
 30
0.0
  0
VERTEX
  5
542
  8
CORTE_LASER$CORTE
 10
2008.755614459458
 20
2981.907196774652
 30
0.0
  0
VERTEX
  5
543
  8
CORTE_LASER$CORTE
 10
2008.794815884955
 20
2981.812556161552
 30
0.0
  0
VERTEX
  5
544
  8
CORTE_LASER$CORTE
 10
2008.830763321298
 20
2981.716632341626
 30
0.0
  0
VERTEX
  5
545
  8
CORTE_LASER$CORTE
 10
2008.863414855384
 20
2981.619537157756
 30
0.0
  0
VERTEX
  5
546
  8
CORTE_LASER$CORTE
 10
2008.892732416985
 20
2981.521383818584
 30
0.0
  0
VERTEX
  5
547
  8
CORTE_LASER$CORTE
 10
2008.918681823136
 20
2981.422286766513
 30
0.0
  0
VERTEX
  5
548
  8
CORTE_LASER$CORTE
 10
2008.941232817989
 20
2981.322361544271
 30
0.0
  0
VERTEX
  5
549
  8
CORTE_LASER$CORTE
 10
2008.960359108093
 20
2981.221724660199
 30
0.0
  0
VERTEX
  5
54A
  8
CORTE_LASER$CORTE
 10
2008.976038393051
 20
2981.120493452402
 30
0.0
  0
VERTEX
  5
54B
  8
CORTE_LASER$CORTE
 10
2008.988252391516
 20
2981.018785951939
 30
0.0
  0
VERTEX
  5
54C
  8
CORTE_LASER$CORTE
 10
2008.996986862513
 20
2980.916720745207
 30
0.0
  0
VERTEX
  5
54D
  8
CORTE_LASER$CORTE
 10
2009.00223162204
 20
2980.814416835671
 30
0.0
  0
VERTEX
  5
54E
  8
CORTE_LASER$CORTE
 10
2009.003980554942
 20
2980.711993505113
 30
0.0
  0
VERTEX
  5
54F
  8
CORTE_LASER$CORTE
 10
2009.003980554942
 20
2893.211993505113
 30
0.0
  0
VERTEX
  5
550
  8
CORTE_LASER$CORTE
 10
2009.00223162204
 20
2893.109570174555
 30
0.0
  0
VERTEX
  5
551
  8
CORTE_LASER$CORTE
 10
2008.996986862513
 20
2893.007266265019
 30
0.0
  0
VERTEX
  5
552
  8
CORTE_LASER$CORTE
 10
2008.988252391516
 20
2892.905201058287
 30
0.0
  0
VERTEX
  5
553
  8
CORTE_LASER$CORTE
 10
2008.976038393051
 20
2892.803493557824
 30
0.0
  0
VERTEX
  5
554
  8
CORTE_LASER$CORTE
 10
2008.960359108093
 20
2892.702262350027
 30
0.0
  0
VERTEX
  5
555
  8
CORTE_LASER$CORTE
 10
2008.941232817989
 20
2892.601625465955
 30
0.0
  0
VERTEX
  5
556
  8
CORTE_LASER$CORTE
 10
2008.918681823136
 20
2892.501700243714
 30
0.0
  0
VERTEX
  5
557
  8
CORTE_LASER$CORTE
 10
2008.892732416985
 20
2892.402603191642
 30
0.0
  0
VERTEX
  5
558
  8
CORTE_LASER$CORTE
 10
2008.863414855384
 20
2892.30444985247
 30
0.0
  0
VERTEX
  5
559
  8
CORTE_LASER$CORTE
 10
2008.830763321298
 20
2892.2073546686
 30
0.0
  0
VERTEX
  5
55A
  8
CORTE_LASER$CORTE
 10
2008.794815884955
 20
2892.111430848674
 30
0.0
  0
VERTEX
  5
55B
  8
CORTE_LASER$CORTE
 10
2008.755614459458
 20
2892.016790235575
 30
0.0
  0
VERTEX
  5
55C
  8
CORTE_LASER$CORTE
 10
2008.713204751915
 20
2891.923543176023
 30
0.0
  0
VERTEX
  5
55D
  8
CORTE_LASER$CORTE
 10
2008.667636210149
 20
2891.83179839192
 30
0.0
  0
VERTEX
  5
55E
  8
CORTE_LASER$CORTE
 10
2008.61896196504
 20
2891.741662853579
 30
0.0
  0
VERTEX
  5
55F
  8
CORTE_LASER$CORTE
 10
2008.567238768581
 20
2891.653241655007
 30
0.0
  0
VERTEX
  5
560
  8
CORTE_LASER$CORTE
 10
2008.512526927706
 20
2891.566637891365
 30
0.0
  0
VERTEX
  5
561
  8
CORTE_LASER$CORTE
 10
2008.454890233973
 20
2891.481952538769
 30
0.0
  0
VERTEX
  5
562
  8
CORTE_LASER$CORTE
 10
2008.39439588919
 20
2891.39928433655
 30
0.0
  0
VERTEX
  5
563
  8
CORTE_LASER$CORTE
 10
2008.331114427055
 20
2891.318729672135
 30
0.0
  0
VERTEX
  5
564
  8
CORTE_LASER$CORTE
 10
2008.265119630924
 20
2891.240382468659
 30
0.0
  0
VERTEX
  5
565
  8
CORTE_LASER$CORTE
 10
2008.196488447776
 20
2891.164334075457
 30
0.0
  0
VERTEX
  5
566
  8
CORTE_LASER$CORTE
 10
2008.125300898501
 20
2891.090673161554
 30
0.0
  0
VERTEX
  5
567
  8
CORTE_LASER$CORTE
 10
2008.051639984598
 20
2891.019485612279
 30
0.0
  0
VERTEX
  5
568
  8
CORTE_LASER$CORTE
 10
2007.975591591396
 20
2890.950854429131
 30
0.0
  0
VERTEX
  5
569
  8
CORTE_LASER$CORTE
 10
2007.89724438792
 20
2890.884859633
 30
0.0
  0
VERTEX
  5
56A
  8
CORTE_LASER$CORTE
 10
2007.816689723505
 20
2890.821578170865
 30
0.0
  0
VERTEX
  5
56B
  8
CORTE_LASER$CORTE
 10
2007.734021521286
 20
2890.761083826082
 30
0.0
  0
VERTEX
  5
56C
  8
CORTE_LASER$CORTE
 10
2007.64933616869
 20
2890.703447132349
 30
0.0
  0
VERTEX
  5
56D
  8
CORTE_LASER$CORTE
 10
2007.562732405048
 20
2890.648735291474
 30
0.0
  0
VERTEX
  5
56E
  8
CORTE_LASER$CORTE
 10
2007.474311206476
 20
2890.597012095015
 30
0.0
  0
VERTEX
  5
56F
  8
CORTE_LASER$CORTE
 10
2007.384175668135
 20
2890.548337849906
 30
0.0
  0
VERTEX
  5
570
  8
CORTE_LASER$CORTE
 10
2007.292430884032
 20
2890.50276930814
 30
0.0
  0
VERTEX
  5
571
  8
CORTE_LASER$CORTE
 10
2007.199183824481
 20
2890.460359600597
 30
0.0
  0
VERTEX
  5
572
  8
CORTE_LASER$CORTE
 10
2007.104543211381
 20
2890.4211581751
 30
0.0
  0
VERTEX
  5
573
  8
CORTE_LASER$CORTE
 10
2007.008619391455
 20
2890.385210738757
 30
0.0
  0
VERTEX
  5
574
  8
CORTE_LASER$CORTE
 10
2006.911524207585
 20
2890.352559204671
 30
0.0
  0
VERTEX
  5
575
  8
CORTE_LASER$CORTE
 10
2006.813370868413
 20
2890.32324164307
 30
0.0
  0
VERTEX
  5
576
  8
CORTE_LASER$CORTE
 10
2006.714273816341
 20
2890.297292236919
 30
0.0
  0
VERTEX
  5
577
  8
CORTE_LASER$CORTE
 10
2006.6143485941
 20
2890.274741242066
 30
0.0
  0
VERTEX
  5
578
  8
CORTE_LASER$CORTE
 10
2006.513711710028
 20
2890.255614951961
 30
0.0
  0
VERTEX
  5
579
  8
CORTE_LASER$CORTE
 10
2006.41248050223
 20
2890.239935667004
 30
0.0
  0
VERTEX
  5
57A
  8
CORTE_LASER$CORTE
 10
2006.310773001768
 20
2890.227721668539
 30
0.0
  0
VERTEX
  5
57B
  8
CORTE_LASER$CORTE
 10
2006.208707795036
 20
2890.218987197542
 30
0.0
  0
VERTEX
  5
57C
  8
CORTE_LASER$CORTE
 10
2006.1064038855
 20
2890.213742438015
 30
0.0
  0
VERTEX
  5
57D
  8
CORTE_LASER$CORTE
 10
2006.003980554942
 20
2890.211993505113
 30
0.0
  0
VERTEX
  5
57E
  8
CORTE_LASER$CORTE
 10
1946.003980554942
 20
2890.211993505113
 30
0.0
  0
VERTEX
  5
57F
  8
CORTE_LASER$CORTE
 10
1945.901557224384
 20
2890.213742438015
 30
0.0
  0
VERTEX
  5
580
  8
CORTE_LASER$CORTE
 10
1945.799253314848
 20
2890.218987197542
 30
0.0
  0
VERTEX
  5
581
  8
CORTE_LASER$CORTE
 10
1945.697188108116
 20
2890.227721668539
 30
0.0
  0
VERTEX
  5
582
  8
CORTE_LASER$CORTE
 10
1945.595480607653
 20
2890.239935667004
 30
0.0
  0
VERTEX
  5
583
  8
CORTE_LASER$CORTE
 10
1945.494249399856
 20
2890.255614951961
 30
0.0
  0
VERTEX
  5
584
  8
CORTE_LASER$CORTE
 10
1945.393612515784
 20
2890.274741242066
 30
0.0
  0
VERTEX
  5
585
  8
CORTE_LASER$CORTE
 10
1945.293687293543
 20
2890.297292236919
 30
0.0
  0
VERTEX
  5
586
  8
CORTE_LASER$CORTE
 10
1945.194590241471
 20
2890.32324164307
 30
0.0
  0
VERTEX
  5
587
  8
CORTE_LASER$CORTE
 10
1945.096436902299
 20
2890.352559204671
 30
0.0
  0
VERTEX
  5
588
  8
CORTE_LASER$CORTE
 10
1944.999341718429
 20
2890.385210738757
 30
0.0
  0
VERTEX
  5
589
  8
CORTE_LASER$CORTE
 10
1944.903417898503
 20
2890.4211581751
 30
0.0
  0
VERTEX
  5
58A
  8
CORTE_LASER$CORTE
 10
1944.808777285403
 20
2890.460359600597
 30
0.0
  0
VERTEX
  5
58B
  8
CORTE_LASER$CORTE
 10
1944.715530225852
 20
2890.50276930814
 30
0.0
  0
VERTEX
  5
58C
  8
CORTE_LASER$CORTE
 10
1944.623785441749
 20
2890.548337849906
 30
0.0
  0
VERTEX
  5
58D
  8
CORTE_LASER$CORTE
 10
1944.533649903408
 20
2890.597012095015
 30
0.0
  0
VERTEX
  5
58E
  8
CORTE_LASER$CORTE
 10
1944.445228704836
 20
2890.648735291474
 30
0.0
  0
VERTEX
  5
58F
  8
CORTE_LASER$CORTE
 10
1944.358624941194
 20
2890.703447132349
 30
0.0
  0
VERTEX
  5
590
  8
CORTE_LASER$CORTE
 10
1944.273939588597
 20
2890.761083826082
 30
0.0
  0
VERTEX
  5
591
  8
CORTE_LASER$CORTE
 10
1944.191271386379
 20
2890.821578170865
 30
0.0
  0
VERTEX
  5
592
  8
CORTE_LASER$CORTE
 10
1944.110716721964
 20
2890.884859633
 30
0.0
  0
VERTEX
  5
593
  8
CORTE_LASER$CORTE
 10
1944.032369518488
 20
2890.950854429131
 30
0.0
  0
VERTEX
  5
594
  8
CORTE_LASER$CORTE
 10
1943.956321125286
 20
2891.019485612279
 30
0.0
  0
VERTEX
  5
595
  8
CORTE_LASER$CORTE
 10
1943.882660211382
 20
2891.090673161554
 30
0.0
  0
VERTEX
  5
596
  8
CORTE_LASER$CORTE
 10
1943.811472662108
 20
2891.164334075457
 30
0.0
  0
VERTEX
  5
597
  8
CORTE_LASER$CORTE
 10
1943.74284147896
 20
2891.240382468659
 30
0.0
  0
VERTEX
  5
598
  8
CORTE_LASER$CORTE
 10
1943.676846682829
 20
2891.318729672135
 30
0.0
  0
VERTEX
  5
599
  8
CORTE_LASER$CORTE
 10
1943.613565220695
 20
2891.39928433655
 30
0.0
  0
VERTEX
  5
59A
  8
CORTE_LASER$CORTE
 10
1943.553070875911
 20
2891.481952538768
 30
0.0
  0
VERTEX
  5
59B
  8
CORTE_LASER$CORTE
 10
1943.495434182178
 20
2891.566637891365
 30
0.0
  0
VERTEX
  5
59C
  8
CORTE_LASER$CORTE
 10
1943.440722341303
 20
2891.653241655007
 30
0.0
  0
VERTEX
  5
59D
  8
CORTE_LASER$CORTE
 10
1943.388999144844
 20
2891.741662853579
 30
0.0
  0
VERTEX
  5
59E
  8
CORTE_LASER$CORTE
 10
1943.340324899735
 20
2891.83179839192
 30
0.0
  0
VERTEX
  5
59F
  8
CORTE_LASER$CORTE
 10
1943.294756357969
 20
2891.923543176023
 30
0.0
  0
VERTEX
  5
5A0
  8
CORTE_LASER$CORTE
 10
1943.252346650426
 20
2892.016790235574
 30
0.0
  0
VERTEX
  5
5A1
  8
CORTE_LASER$CORTE
 10
1943.213145224929
 20
2892.111430848674
 30
0.0
  0
VERTEX
  5
5A2
  8
CORTE_LASER$CORTE
 10
1943.177197788586
 20
2892.2073546686
 30
0.0
  0
VERTEX
  5
5A3
  8
CORTE_LASER$CORTE
 10
1943.1445462545
 20
2892.30444985247
 30
0.0
  0
VERTEX
  5
5A4
  8
CORTE_LASER$CORTE
 10
1943.115228692899
 20
2892.402603191642
 30
0.0
  0
VERTEX
  5
5A5
  8
CORTE_LASER$CORTE
 10
1943.089279286748
 20
2892.501700243714
 30
0.0
  0
VERTEX
  5
5A6
  8
CORTE_LASER$CORTE
 10
1943.066728291895
 20
2892.601625465955
 30
0.0
  0
VERTEX
  5
5A7
  8
CORTE_LASER$CORTE
 10
1943.047602001791
 20
2892.702262350027
 30
0.0
  0
VERTEX
  5
5A8
  8
CORTE_LASER$CORTE
 10
1943.031922716833
 20
2892.803493557824
 30
0.0
  0
VERTEX
  5
5A9
  8
CORTE_LASER$CORTE
 10
1943.019708718368
 20
2892.905201058287
 30
0.0
  0
VERTEX
  5
5AA
  8
CORTE_LASER$CORTE
 10
1943.010974247371
 20
2893.007266265019
 30
0.0
  0
VERTEX
  5
5AB
  8
CORTE_LASER$CORTE
 10
1943.005729487844
 20
2893.109570174555
 30
0.0
  0
VERTEX
  5
5AC
  8
CORTE_LASER$CORTE
 10
1943.003980554942
 20
2893.211993505113
 30
0.0
  0
VERTEX
  5
5AD
  8
CORTE_LASER$CORTE
 10
1943.003980554942
 20
2980.711993505113
 30
0.0
  0
VERTEX
  5
5AE
  8
CORTE_LASER$CORTE
 10
1943.005729487843
 20
2980.814416835671
 30
0.0
  0
VERTEX
  5
5AF
  8
CORTE_LASER$CORTE
 10
1943.01097424737
 20
2980.916720745207
 30
0.0
  0
VERTEX
  5
5B0
  8
CORTE_LASER$CORTE
 10
1943.019708718368
 20
2981.018785951939
 30
0.0
  0
VERTEX
  5
5B1
  8
CORTE_LASER$CORTE
 10
1943.031922716833
 20
2981.120493452402
 30
0.0
  0
VERTEX
  5
5B2
  8
CORTE_LASER$CORTE
 10
1943.04760200179
 20
2981.221724660199
 30
0.0
  0
VERTEX
  5
5B3
  8
CORTE_LASER$CORTE
 10
1943.066728291895
 20
2981.322361544271
 30
0.0
  0
VERTEX
  5
5B4
  8
CORTE_LASER$CORTE
 10
1943.089279286748
 20
2981.422286766513
 30
0.0
  0
VERTEX
  5
5B5
  8
CORTE_LASER$CORTE
 10
1943.115228692898
 20
2981.521383818584
 30
0.0
  0
VERTEX
  5
5B6
  8
CORTE_LASER$CORTE
 10
1943.144546254499
 20
2981.619537157756
 30
0.0
  0
VERTEX
  5
5B7
  8
CORTE_LASER$CORTE
 10
1943.177197788585
 20
2981.716632341626
 30
0.0
  0
VERTEX
  5
5B8
  8
CORTE_LASER$CORTE
 10
1943.213145224928
 20
2981.812556161552
 30
0.0
  0
VERTEX
  5
5B9
  8
CORTE_LASER$CORTE
 10
1943.252346650426
 20
2981.907196774652
 30
0.0
  0
VERTEX
  5
5BA
  8
CORTE_LASER$CORTE
 10
1943.294756357968
 20
2982.000443834203
 30
0.0
  0
VERTEX
  5
5BB
  8
CORTE_LASER$CORTE
 10
1943.340324899735
 20
2982.092188618307
 30
0.0
  0
VERTEX
  5
5BC
  8
CORTE_LASER$CORTE
 10
1943.388999144844
 20
2982.182324156647
 30
0.0
  0
VERTEX
  5
5BD
  8
CORTE_LASER$CORTE
 10
1943.440722341302
 20
2982.270745355219
 30
0.0
  0
VERTEX
  5
5BE
  8
CORTE_LASER$CORTE
 10
1943.495434182178
 20
2982.357349118861
 30
0.0
  0
VERTEX
  5
5BF
  8
CORTE_LASER$CORTE
 10
1943.55307087591
 20
2982.442034471458
 30
0.0
  0
VERTEX
  5
5C0
  8
CORTE_LASER$CORTE
 10
1943.613565220694
 20
2982.524702673677
 30
0.0
  0
VERTEX
  5
5C1
  8
CORTE_LASER$CORTE
 10
1943.676846682829
 20
2982.605257338091
 30
0.0
  0
VERTEX
  5
5C2
  8
CORTE_LASER$CORTE
 10
1943.74284147896
 20
2982.683604541567
 30
0.0
  0
VERTEX
  5
5C3
  8
CORTE_LASER$CORTE
 10
1943.811472662107
 20
2982.759652934769
 30
0.0
  0
VERTEX
  5
5C4
  8
CORTE_LASER$CORTE
 10
1943.882660211382
 20
2982.833313848673
 30
0.0
  0
VERTEX
  5
5C5
  8
CORTE_LASER$CORTE
 10
1943.956321125286
 20
2982.904501397948
 30
0.0
  0
VERTEX
  5
5C6
  8
CORTE_LASER$CORTE
 10
1944.032369518488
 20
2982.973132581095
 30
0.0
  0
VERTEX
  5
5C7
  8
CORTE_LASER$CORTE
 10
1944.110716721964
 20
2983.039127377227
 30
0.0
  0
VERTEX
  5
5C8
  8
CORTE_LASER$CORTE
 10
1944.191271386379
 20
2983.102408839361
 30
0.0
  0
VERTEX
  5
5C9
  8
CORTE_LASER$CORTE
 10
1944.273939588597
 20
2983.162903184144
 30
0.0
  0
VERTEX
  5
5CA
  8
CORTE_LASER$CORTE
 10
1944.358624941194
 20
2983.220539877877
 30
0.0
  0
VERTEX
  5
5CB
  8
CORTE_LASER$CORTE
 10
1944.445228704835
 20
2983.275251718753
 30
0.0
  0
VERTEX
  5
5CC
  8
CORTE_LASER$CORTE
 10
1944.533649903408
 20
2983.326974915211
 30
0.0
  0
VERTEX
  5
5CD
  8
CORTE_LASER$CORTE
 10
1944.623785441748
 20
2983.37564916032
 30
0.0
  0
VERTEX
  5
5CE
  8
CORTE_LASER$CORTE
 10
1944.715530225852
 20
2983.421217702087
 30
0.0
  0
VERTEX
  5
5CF
  8
CORTE_LASER$CORTE
 10
1944.808777285403
 20
2983.46362740963
 30
0.0
  0
VERTEX
  5
5D0
  8
CORTE_LASER$CORTE
 10
1944.903417898503
 20
2983.502828835127
 30
0.0
  0
VERTEX
  5
5D1
  8
CORTE_LASER$CORTE
 10
1944.999341718429
 20
2983.538776271469
 30
0.0
  0
VERTEX
  5
5D2
  8
CORTE_LASER$CORTE
 10
1945.096436902299
 20
2983.571427805556
 30
0.0
  0
VERTEX
  5
5D3
  8
CORTE_LASER$CORTE
 10
1945.194590241471
 20
2983.600745367156
 30
0.0
  0
VERTEX
  5
5D4
  8
CORTE_LASER$CORTE
 10
1945.293687293542
 20
2983.626694773307
 30
0.0
  0
VERTEX
  5
5D5
  8
CORTE_LASER$CORTE
 10
1945.393612515784
 20
2983.64924576816
 30
0.0
  0
VERTEX
  5
5D6
  8
CORTE_LASER$CORTE
 10
1945.494249399856
 20
2983.668372058265
 30
0.0
  0
VERTEX
  5
5D7
  8
CORTE_LASER$CORTE
 10
1945.595480607653
 20
2983.684051343222
 30
0.0
  0
VERTEX
  5
5D8
  8
CORTE_LASER$CORTE
 10
1945.697188108116
 20
2983.696265341688
 30
0.0
  0
VERTEX
  5
5D9
  8
CORTE_LASER$CORTE
 10
1945.799253314848
 20
2983.704999812685
 30
0.0
  0
VERTEX
  5
5DA
  8
CORTE_LASER$CORTE
 10
1945.901557224384
 20
2983.710244572212
 30
0.0
  0
VERTEX
  5
5DB
  8
CORTE_LASER$CORTE
 10
1946.003980554942
 20
2983.711993505113
 30
0.0
  0
VERTEX
  5
5DC
  8
CORTE_LASER$CORTE
 10
1951.499999999487
 20
2983.711993505113
 30
0.0
  0
VERTEX
  5
5DD
  8
CORTE_LASER$CORTE
 10
1951.602423330045
 20
2983.710244572212
 30
0.0
  0
VERTEX
  5
5DE
  8
CORTE_LASER$CORTE
 10
1951.704727239582
 20
2983.704999812685
 30
0.0
  0
VERTEX
  5
5DF
  8
CORTE_LASER$CORTE
 10
1951.806792446314
 20
2983.696265341688
 30
0.0
  0
VERTEX
  5
5E0
  8
CORTE_LASER$CORTE
 10
1951.908499946776
 20
2983.684051343222
 30
0.0
  0
VERTEX
  5
5E1
  8
CORTE_LASER$CORTE
 10
1952.009731154574
 20
2983.668372058265
 30
0.0
  0
VERTEX
  5
5E2
  8
CORTE_LASER$CORTE
 10
1952.110368038645
 20
2983.64924576816
 30
0.0
  0
VERTEX
  5
5E3
  8
CORTE_LASER$CORTE
 10
1952.210293260887
 20
2983.626694773307
 30
0.0
  0
VERTEX
  5
5E4
  8
CORTE_LASER$CORTE
 10
1952.309390312959
 20
2983.600745367157
 30
0.0
  0
VERTEX
  5
5E5
  8
CORTE_LASER$CORTE
 10
1952.407543652131
 20
2983.571427805556
 30
0.0
  0
VERTEX
  5
5E6
  8
CORTE_LASER$CORTE
 10
1952.504638836001
 20
2983.538776271469
 30
0.0
  0
VERTEX
  5
5E7
  8
CORTE_LASER$CORTE
 10
1952.600562655927
 20
2983.502828835127
 30
0.0
  0
VERTEX
  5
5E8
  8
CORTE_LASER$CORTE
 10
1952.695203269026
 20
2983.46362740963
 30
0.0
  0
VERTEX
  5
5E9
  8
CORTE_LASER$CORTE
 10
1952.788450328578
 20
2983.421217702087
 30
0.0
  0
VERTEX
  5
5EA
  8
CORTE_LASER$CORTE
 10
1952.880195112681
 20
2983.37564916032
 30
0.0
  0
VERTEX
  5
5EB
  8
CORTE_LASER$CORTE
 10
1952.970330651022
 20
2983.326974915211
 30
0.0
  0
VERTEX
  5
5EC
  8
CORTE_LASER$CORTE
 10
1953.058751849594
 20
2983.275251718753
 30
0.0
  0
VERTEX
  5
5ED
  8
CORTE_LASER$CORTE
 10
1953.145355613236
 20
2983.220539877877
 30
0.0
  0
VERTEX
  5
5EE
  8
CORTE_LASER$CORTE
 10
1953.230040965832
 20
2983.162903184144
 30
0.0
  0
VERTEX
  5
5EF
  8
CORTE_LASER$CORTE
 10
1953.312709168051
 20
2983.102408839361
 30
0.0
  0
VERTEX
  5
5F0
  8
CORTE_LASER$CORTE
 10
1953.393263832466
 20
2983.039127377227
 30
0.0
  0
VERTEX
  5
5F1
  8
CORTE_LASER$CORTE
 10
1953.471611035941
 20
2982.973132581095
 30
0.0
  0
VERTEX
  5
5F2
  8
CORTE_LASER$CORTE
 10
1953.547659429144
 20
2982.904501397948
 30
0.0
  0
VERTEX
  5
5F3
  8
CORTE_LASER$CORTE
 10
1953.621320343047
 20
2982.833313848673
 30
0.0
  0
VERTEX
  5
5F4
  8
CORTE_LASER$CORTE
 10
1953.692507892322
 20
2982.759652934769
 30
0.0
  0
VERTEX
  5
5F5
  8
CORTE_LASER$CORTE
 10
1953.76113907547
 20
2982.683604541567
 30
0.0
  0
VERTEX
  5
5F6
  8
CORTE_LASER$CORTE
 10
1953.827133871601
 20
2982.605257338091
 30
0.0
  0
VERTEX
  5
5F7
  8
CORTE_LASER$CORTE
 10
1953.890415333735
 20
2982.524702673677
 30
0.0
  0
VERTEX
  5
5F8
  8
CORTE_LASER$CORTE
 10
1953.950909678519
 20
2982.442034471458
 30
0.0
  0
VERTEX
  5
5F9
  8
CORTE_LASER$CORTE
 10
1954.008546372252
 20
2982.357349118861
 30
0.0
  0
VERTEX
  5
5FA
  8
CORTE_LASER$CORTE
 10
1954.063258213127
 20
2982.270745355219
 30
0.0
  0
VERTEX
  5
5FB
  8
CORTE_LASER$CORTE
 10
1954.114981409586
 20
2982.182324156647
 30
0.0
  0
VERTEX
  5
5FC
  8
CORTE_LASER$CORTE
 10
1954.163655654695
 20
2982.092188618307
 30
0.0
  0
VERTEX
  5
5FD
  8
CORTE_LASER$CORTE
 10
1954.209224196461
 20
2982.000443834203
 30
0.0
  0
VERTEX
  5
5FE
  8
CORTE_LASER$CORTE
 10
1954.251633904004
 20
2981.907196774652
 30
0.0
  0
VERTEX
  5
5FF
  8
CORTE_LASER$CORTE
 10
1954.290835329501
 20
2981.812556161552
 30
0.0
  0
VERTEX
  5
600
  8
CORTE_LASER$CORTE
 10
1954.326782765844
 20
2981.716632341626
 30
0.0
  0
VERTEX
  5
601
  8
CORTE_LASER$CORTE
 10
1954.35943429993
 20
2981.619537157756
 30
0.0
  0
VERTEX
  5
602
  8
CORTE_LASER$CORTE
 10
1954.388751861531
 20
2981.521383818584
 30
0.0
  0
VERTEX
  5
603
  8
CORTE_LASER$CORTE
 10
1954.414701267681
 20
2981.422286766513
 30
0.0
  0
VERTEX
  5
604
  8
CORTE_LASER$CORTE
 10
1954.437252262534
 20
2981.322361544271
 30
0.0
  0
VERTEX
  5
605
  8
CORTE_LASER$CORTE
 10
1954.456378552639
 20
2981.221724660199
 30
0.0
  0
VERTEX
  5
606
  8
CORTE_LASER$CORTE
 10
1954.472057837597
 20
2981.120493452402
 30
0.0
  0
VERTEX
  5
607
  8
CORTE_LASER$CORTE
 10
1954.484271836062
 20
2981.018785951939
 30
0.0
  0
VERTEX
  5
608
  8
CORTE_LASER$CORTE
 10
1954.493006307059
 20
2980.916720745207
 30
0.0
  0
VERTEX
  5
609
  8
CORTE_LASER$CORTE
 10
1954.498251066586
 20
2980.814416835671
 30
0.0
  0
VERTEX
  5
60A
  8
CORTE_LASER$CORTE
 10
1954.499999999487
 20
2980.711993505113
 30
0.0
  0
VERTEX
  5
60B
  8
CORTE_LASER$CORTE
 10
1954.499999999487
 20
2976.211993505113
 30
0.0
  0
VERTEX
  5
60C
  8
CORTE_LASER$CORTE
 10
1954.501748932389
 20
2976.109570174556
 30
0.0
  0
VERTEX
  5
60D
  8
CORTE_LASER$CORTE
 10
1954.506993691916
 20
2976.00726626502
 30
0.0
  0
VERTEX
  5
60E
  8
CORTE_LASER$CORTE
 10
1954.515728162913
 20
2975.905201058288
 30
0.0
  0
VERTEX
  5
60F
  8
CORTE_LASER$CORTE
 10
1954.527942161379
 20
2975.803493557825
 30
0.0
  0
VERTEX
  5
610
  8
CORTE_LASER$CORTE
 10
1954.543621446336
 20
2975.702262350028
 30
0.0
  0
VERTEX
  5
611
  8
CORTE_LASER$CORTE
 10
1954.562747736441
 20
2975.601625465956
 30
0.0
  0
VERTEX
  5
612
  8
CORTE_LASER$CORTE
 10
1954.585298731294
 20
2975.501700243714
 30
0.0
  0
VERTEX
  5
613
  8
CORTE_LASER$CORTE
 10
1954.611248137444
 20
2975.402603191643
 30
0.0
  0
VERTEX
  5
614
  8
CORTE_LASER$CORTE
 10
1954.640565699045
 20
2975.30444985247
 30
0.0
  0
VERTEX
  5
615
  8
CORTE_LASER$CORTE
 10
1954.673217233131
 20
2975.207354668601
 30
0.0
  0
VERTEX
  5
616
  8
CORTE_LASER$CORTE
 10
1954.709164669474
 20
2975.111430848674
 30
0.0
  0
VERTEX
  5
617
  8
CORTE_LASER$CORTE
 10
1954.748366094972
 20
2975.016790235575
 30
0.0
  0
VERTEX
  5
618
  8
CORTE_LASER$CORTE
 10
1954.790775802514
 20
2974.923543176023
 30
0.0
  0
VERTEX
  5
619
  8
CORTE_LASER$CORTE
 10
1954.836344344281
 20
2974.83179839192
 30
0.0
  0
VERTEX
  5
61A
  8
CORTE_LASER$CORTE
 10
1954.88501858939
 20
2974.74166285358
 30
0.0
  0
VERTEX
  5
61B
  8
CORTE_LASER$CORTE
 10
1954.936741785848
 20
2974.653241655008
 30
0.0
  0
VERTEX
  5
61C
  8
CORTE_LASER$CORTE
 10
1954.991453626724
 20
2974.566637891366
 30
0.0
  0
VERTEX
  5
61D
  8
CORTE_LASER$CORTE
 10
1955.049090320456
 20
2974.481952538769
 30
0.0
  0
VERTEX
  5
61E
  8
CORTE_LASER$CORTE
 10
1955.10958466524
 20
2974.39928433655
 30
0.0
  0
VERTEX
  5
61F
  8
CORTE_LASER$CORTE
 10
1955.172866127374
 20
2974.318729672136
 30
0.0
  0
VERTEX
  5
620
  8
CORTE_LASER$CORTE
 10
1955.238860923506
 20
2974.24038246866
 30
0.0
  0
VERTEX
  5
621
  8
CORTE_LASER$CORTE
 10
1955.307492106653
 20
2974.164334075458
 30
0.0
  0
VERTEX
  5
622
  8
CORTE_LASER$CORTE
 10
1955.378679655928
 20
2974.090673161554
 30
0.0
  0
VERTEX
  5
623
  8
CORTE_LASER$CORTE
 10
1955.452340569832
 20
2974.019485612279
 30
0.0
  0
VERTEX
  5
624
  8
CORTE_LASER$CORTE
 10
1955.528388963034
 20
2973.950854429132
 30
0.0
  0
VERTEX
  5
625
  8
CORTE_LASER$CORTE
 10
1955.60673616651
 20
2973.884859633
 30
0.0
  0
VERTEX
  5
626
  8
CORTE_LASER$CORTE
 10
1955.687290830924
 20
2973.821578170866
 30
0.0
  0
VERTEX
  5
627
  8
CORTE_LASER$CORTE
 10
1955.769959033143
 20
2973.761083826083
 30
0.0
  0
VERTEX
  5
628
  8
CORTE_LASER$CORTE
 10
1955.85464438574
 20
2973.70344713235
 30
0.0
  0
VERTEX
  5
629
  8
CORTE_LASER$CORTE
 10
1955.941248149381
 20
2973.648735291474
 30
0.0
  0
VERTEX
  5
62A
  8
CORTE_LASER$CORTE
 10
1956.029669347954
 20
2973.597012095016
 30
0.0
  0
VERTEX
  5
62B
  8
CORTE_LASER$CORTE
 10
1956.119804886294
 20
2973.548337849907
 30
0.0
  0
VERTEX
  5
62C
  8
CORTE_LASER$CORTE
 10
1956.211549670398
 20
2973.502769308141
 30
0.0
  0
VERTEX
  5
62D
  8
CORTE_LASER$CORTE
 10
1956.304796729949
 20
2973.460359600598
 30
0.0
  0
VERTEX
  5
62E
  8
CORTE_LASER$CORTE
 10
1956.399437343048
 20
2973.421158175101
 30
0.0
  0
VERTEX
  5
62F
  8
CORTE_LASER$CORTE
 10
1956.495361162975
 20
2973.385210738757
 30
0.0
  0
VERTEX
  5
630
  8
CORTE_LASER$CORTE
 10
1956.592456346845
 20
2973.352559204672
 30
0.0
  0
VERTEX
  5
631
  8
CORTE_LASER$CORTE
 10
1956.690609686017
 20
2973.323241643071
 30
0.0
  0
VERTEX
  5
632
  8
CORTE_LASER$CORTE
 10
1956.789706738088
 20
2973.29729223692
 30
0.0
  0
VERTEX
  5
633
  8
CORTE_LASER$CORTE
 10
1956.88963196033
 20
2973.274741242067
 30
0.0
  0
VERTEX
  5
634
  8
CORTE_LASER$CORTE
 10
1956.990268844402
 20
2973.255614951962
 30
0.0
  0
VERTEX
  5
635
  8
CORTE_LASER$CORTE
 10
1957.091500052199
 20
2973.239935667005
 30
0.0
  0
VERTEX
  5
636
  8
CORTE_LASER$CORTE
 10
1957.193207552662
 20
2973.22772166854
 30
0.0
  0
VERTEX
  5
637
  8
CORTE_LASER$CORTE
 10
1957.295272759394
 20
2973.218987197542
 30
0.0
  0
VERTEX
  5
638
  8
CORTE_LASER$CORTE
 10
1957.39757666893
 20
2973.213742438015
 30
0.0
  0
VERTEX
  5
639
  8
CORTE_LASER$CORTE
 10
1957.499999999487
 20
2973.211993505114
 30
0.0
  0
VERTEX
  5
63A
  8
CORTE_LASER$CORTE
 10
1994.499999999487
 20
2973.211993505113
 30
0.0
  0
VERTEX
  5
63B
  8
CORTE_LASER$CORTE
 10
1994.602423330046
 20
2973.213742438015
 30
0.0
  0
VERTEX
  5
63C
  8
CORTE_LASER$CORTE
 10
1994.704727239582
 20
2973.218987197542
 30
0.0
  0
VERTEX
  5
63D
  8
CORTE_LASER$CORTE
 10
1994.806792446314
 20
2973.227721668539
 30
0.0
  0
VERTEX
  5
63E
  8
CORTE_LASER$CORTE
 10
1994.908499946777
 20
2973.239935667004
 30
0.0
  0
VERTEX
  5
63F
  8
CORTE_LASER$CORTE
 10
1995.009731154574
 20
2973.255614951962
 30
0.0
  0
VERTEX
  5
640
  8
CORTE_LASER$CORTE
 10
1995.110368038646
 20
2973.274741242066
 30
0.0
  0
VERTEX
  5
641
  8
CORTE_LASER$CORTE
 10
1995.210293260887
 20
2973.297292236919
 30
0.0
  0
VERTEX
  5
642
  8
CORTE_LASER$CORTE
 10
1995.309390312959
 20
2973.32324164307
 30
0.0
  0
VERTEX
  5
643
  8
CORTE_LASER$CORTE
 10
1995.407543652131
 20
2973.352559204671
 30
0.0
  0
VERTEX
  5
644
  8
CORTE_LASER$CORTE
 10
1995.504638836001
 20
2973.385210738757
 30
0.0
  0
VERTEX
  5
645
  8
CORTE_LASER$CORTE
 10
1995.600562655927
 20
2973.421158175099
 30
0.0
  0
VERTEX
  5
646
  8
CORTE_LASER$CORTE
 10
1995.695203269026
 20
2973.460359600596
 30
0.0
  0
VERTEX
  5
647
  8
CORTE_LASER$CORTE
 10
1995.788450328578
 20
2973.502769308139
 30
0.0
  0
VERTEX
  5
648
  8
CORTE_LASER$CORTE
 10
1995.880195112681
 20
2973.548337849906
 30
0.0
  0
VERTEX
  5
649
  8
CORTE_LASER$CORTE
 10
1995.970330651022
 20
2973.597012095015
 30
0.0
  0
VERTEX
  5
64A
  8
CORTE_LASER$CORTE
 10
1996.058751849594
 20
2973.648735291473
 30
0.0
  0
VERTEX
  5
64B
  8
CORTE_LASER$CORTE
 10
1996.145355613236
 20
2973.703447132349
 30
0.0
  0
VERTEX
  5
64C
  8
CORTE_LASER$CORTE
 10
1996.230040965833
 20
2973.761083826082
 30
0.0
  0
VERTEX
  5
64D
  8
CORTE_LASER$CORTE
 10
1996.312709168051
 20
2973.821578170865
 30
0.0
  0
VERTEX
  5
64E
  8
CORTE_LASER$CORTE
 10
1996.393263832466
 20
2973.884859633
 30
0.0
  0
VERTEX
  5
64F
  8
CORTE_LASER$CORTE
 10
1996.471611035942
 20
2973.950854429131
 30
0.0
  0
VERTEX
  5
650
  8
CORTE_LASER$CORTE
 10
1996.547659429144
 20
2974.019485612279
 30
0.0
  0
VERTEX
  5
651
  8
CORTE_LASER$CORTE
 10
1996.621320343048
 20
2974.090673161553
 30
0.0
  0
VERTEX
  5
652
  8
CORTE_LASER$CORTE
 10
1996.692507892322
 20
2974.164334075457
 30
0.0
  0
VERTEX
  5
653
  8
CORTE_LASER$CORTE
 10
1996.76113907547
 20
2974.240382468659
 30
0.0
  0
VERTEX
  5
654
  8
CORTE_LASER$CORTE
 10
1996.827133871601
 20
2974.318729672135
 30
0.0
  0
VERTEX
  5
655
  8
CORTE_LASER$CORTE
 10
1996.890415333736
 20
2974.39928433655
 30
0.0
  0
VERTEX
  5
656
  8
CORTE_LASER$CORTE
 10
1996.950909678519
 20
2974.481952538769
 30
0.0
  0
VERTEX
  5
657
  8
CORTE_LASER$CORTE
 10
1997.008546372252
 20
2974.566637891365
 30
0.0
  0
VERTEX
  5
658
  8
CORTE_LASER$CORTE
 10
1997.063258213127
 20
2974.653241655007
 30
0.0
  0
VERTEX
  5
659
  8
CORTE_LASER$CORTE
 10
1997.114981409586
 20
2974.741662853579
 30
0.0
  0
VERTEX
  5
65A
  8
CORTE_LASER$CORTE
 10
1997.163655654695
 20
2974.83179839192
 30
0.0
  0
VERTEX
  5
65B
  8
CORTE_LASER$CORTE
 10
1997.209224196461
 20
2974.923543176023
 30
0.0
  0
VERTEX
  5
65C
  8
CORTE_LASER$CORTE
 10
1997.251633904004
 20
2975.016790235575
 30
0.0
  0
VERTEX
  5
65D
  8
CORTE_LASER$CORTE
 10
1997.290835329501
 20
2975.111430848674
 30
0.0
  0
VERTEX
  5
65E
  8
CORTE_LASER$CORTE
 10
1997.326782765844
 20
2975.207354668601
 30
0.0
  0
VERTEX
  5
65F
  8
CORTE_LASER$CORTE
 10
1997.35943429993
 20
2975.30444985247
 30
0.0
  0
VERTEX
  5
660
  8
CORTE_LASER$CORTE
 10
1997.388751861531
 20
2975.402603191642
 30
0.0
  0
VERTEX
  5
661
  8
CORTE_LASER$CORTE
 10
1997.414701267681
 20
2975.501700243714
 30
0.0
  0
VERTEX
  5
662
  8
CORTE_LASER$CORTE
 10
1997.437252262534
 20
2975.601625465955
 30
0.0
  0
VERTEX
  5
663
  8
CORTE_LASER$CORTE
 10
1997.456378552639
 20
2975.702262350027
 30
0.0
  0
VERTEX
  5
664
  8
CORTE_LASER$CORTE
 10
1997.472057837597
 20
2975.803493557825
 30
0.0
  0
VERTEX
  5
665
  8
CORTE_LASER$CORTE
 10
1997.484271836062
 20
2975.905201058287
 30
0.0
  0
VERTEX
  5
666
  8
CORTE_LASER$CORTE
 10
1997.493006307059
 20
2976.00726626502
 30
0.0
  0
VERTEX
  5
667
  8
CORTE_LASER$CORTE
 10
1997.498251066586
 20
2976.109570174556
 30
0.0
  0
SEQEND
  5
668
  8
CORTE_LASER$CORTE
  0
CIRCLE
  5
669
  8
CORTE_LASER$CORTE
 10
1951.499999999487
 20
2976.711993505113
 30
0.0
 40
1.75
  0
CIRCLE
  5
66A
  8
CORTE_LASER$CORTE
 10
2000.499999999487
 20
2976.711993505113
 30
0.0
 40
1.75
  0
CIRCLE
  5
66B
  8
CORTE_LASER$CORTE
 10
2000.499999999487
 20
2918.711993505113
 30
0.0
 40
1.75
  0
CIRCLE
  5
66C
  8
CORTE_LASER$CORTE
 10
1951.499999999487
 20
2918.711993505113
 30
0.0
 40
1.75
  0
CIRCLE
  5
66D
  8
CORTE_LASER$CORTE
 10
1812.939241073764
 20
2980.56066017178
 30
0.0
 40
1.75
  0
CIRCLE
  5
66E
  8
CORTE_LASER$CORTE
 10
1925.06066017178
 20
2980.56066017178
 30
0.0
 40
1.75
  0
CIRCLE
  5
66F
  8
CORTE_LASER$CORTE
 10
1925.06066017178
 20
2868.136673161553
 30
0.0
 40
1.75
  0
CIRCLE
  5
670
  8
CORTE_LASER$CORTE
 10
1812.939241073764
 20
2868.136673161553
 30
0.0
 40
1.75
  0
LINE
  5
671
  8
CORTE_LASER$CORTE
 10
1804.99975311386
 20
2934.5
 30
0.0
 11
1804.999753113862
 21
2986.0
 31
0.0
  0
LINE
  5
672
  8
CORTE_LASER$CORTE
 10
1804.999753113862
 20
2986.0
 30
0.0
 11
1932.999851868316
 21
2986.0
 31
0.0
  0
LINE
  5
673
  8
CORTE_LASER$CORTE
 10
1932.999851868316
 20
2986.0
 30
0.0
 11
1932.999851868316
 21
2934.5
 31
0.0
  0
LINE
  5
674
  8
CORTE_LASER$CORTE
 10
1932.999851868316
 20
2934.5
 30
0.0
 11
1935.999851868316
 21
2934.5
 31
0.0
  0
LINE
  5
675
  8
CORTE_LASER$CORTE
 10
1935.999851868316
 20
2934.5
 30
0.0
 11
1935.999851868316
 21
2914.5
 31
0.0
  0
LINE
  5
676
  8
CORTE_LASER$CORTE
 10
1935.999851868316
 20
2914.5
 30
0.0
 11
1932.999851868316
 21
2914.500000000001
 31
0.0
  0
LINE
  5
677
  8
CORTE_LASER$CORTE
 10
1932.999851868316
 20
2914.500000000001
 30
0.0
 11
1932.999851868316
 21
2863.0
 31
0.0
  0
LINE
  5
678
  8
CORTE_LASER$CORTE
 10
1932.999851868316
 20
2863.0
 30
0.0
 11
1878.999950622772
 21
2863.0
 31
0.0
  0
LINE
  5
679
  8
CORTE_LASER$CORTE
 10
1878.999950622772
 20
2863.0
 30
0.0
 11
1878.999950622772
 21
2860.0
 31
0.0
  0
LINE
  5
67A
  8
CORTE_LASER$CORTE
 10
1878.999950622772
 20
2860.0
 30
0.0
 11
1858.999950622772
 21
2860.0
 31
0.0
  0
LINE
  5
67B
  8
CORTE_LASER$CORTE
 10
1858.999950622772
 20
2860.0
 30
0.0
 11
1858.999950622775
 21
2863.0
 31
0.0
  0
LINE
  5
67C
  8
CORTE_LASER$CORTE
 10
1858.999950622775
 20
2863.0
 30
0.0
 11
1804.99975311386
 21
2863.0
 31
0.0
  0
LINE
  5
67D
  8
CORTE_LASER$CORTE
 10
1804.99975311386
 20
2863.0
 30
0.0
 11
1804.99975311386
 21
2914.5
 31
0.0
  0
LINE
  5
67E
  8
CORTE_LASER$CORTE
 10
1804.99975311386
 20
2914.5
 30
0.0
 11
1801.99975311386
 21
2914.5
 31
0.0
  0
LINE
  5
67F
  8
CORTE_LASER$CORTE
 10
1801.99975311386
 20
2914.5
 30
0.0
 11
1801.99975311386
 21
2934.5
 31
0.0
  0
LINE
  5
680
  8
CORTE_LASER$CORTE
 10
1801.99975311386
 20
2934.5
 30
0.0
 11
1804.99975311386
 21
2934.5
 31
0.0
  0
LINE
  5
681
  8
CORTE_LASER$CORTE
 10
1799.0
 20
2693.0
 30
0.0
 11
2099.0
 21
2693.0
 31
0.0
  0
LINE
  5
682
  8
CORTE_LASER$CORTE
 10
2099.0
 20
2693.0
 30
0.0
 11
2099.0
 21
2993.0
 31
0.0
  0
LINE
  5
683
  8
CORTE_LASER$CORTE
 10
2099.0
 20
2993.0
 30
0.0
 11
1799.0
 21
2993.0
 31
0.0
  0
LINE
  5
684
  8
CORTE_LASER$CORTE
 10
1799.0
 20
2993.0
 30
0.0
 11
1799.0
 21
2693.0
 31
0.0
  0
ENDSEC
  0
EOF
