  0
SECTION
  2
HEADER
  9
$ACADVER
  1
AC1009
  9
$DWGCODEPAGE
  3
mac-roman
  9
$INSBASE
 10
0.0
 20
0.0
 30
0.0
  9
$EXTMIN
 10
124.0
 20
1659.0
 30
0.0
  9
$EXTMAX
 10
724.0
 20
2059.0
 30
0.0
  9
$LIMMIN
 10
0.0
 20
0.0
  9
$LIMMAX
 10
12.0
 20
9.0
  9
$ORTHOMODE
 70
     0
  9
$REGENMODE
 70
     1
  9
$FILLMODE
 70
     1
  9
$QTEXTMODE
 70
     0
  9
$MIRRTEXT
 70
     1
  9
$DRAGMODE
 70
     2
  9
$LTSCALE
 40
1.0
  9
$OSMODE
 70
    37
  9
$ATTMODE
 70
     1
  9
$TEXTSIZE
 40
0.2
  9
$TRACEWID
 40
0.05
  9
$TEXTSTYLE
  7
STANDARD
  9
$CLAYER
  8
DEFAULT
  9
$CELTYPE
  6
BYLAYER
  9
$CECOLOR
 62
   256
  9
$DIMSCALE
 40
1.0
  9
$DIMASZ
 40
0.18
  9
$DIMEXO
 40
0.0625
  9
$DIMDLI
 40
0.38
  9
$DIMRND
 40
0.0
  9
$DIMDLE
 40
0.0
  9
$DIMEXE
 40
0.18
  9
$DIMTP
 40
0.0
  9
$DIMTM
 40
0.0
  9
$DIMTXT
 40
0.18
  9
$DIMCEN
 40
0.09
  9
$DIMTSZ
 40
0.0
  9
$DIMTOL
 70
     0
  9
$DIMLIM
 70
     0
  9
$DIMTIH
 70
     1
  9
$DIMTOH
 70
     1
  9
$DIMSE1
 70
     0
  9
$DIMSE2
 70
     0
  9
$DIMTAD
 70
     0
  9
$DIMZIN
 70
     0
  9
$DIMBLK
  1

  9
$DIMASO
 70
     1
  9
$DIMSHO
 70
     1
  9
$DIMPOST
  1

  9
$DIMAPOST
  1

  9
$DIMALT
 70
     0
  9
$DIMALTD
 70
     2
  9
$DIMALTF
 40
25.4
  9
$DIMLFAC
 40
1.0
  9
$DIMTOFL
 70
     0
  9
$DIMTVP
 40
0.0
  9
$DIMTIX
 70
     0
  9
$DIMSOXD
 70
     0
  9
$DIMSAH
 70
     0
  9
$DIMBLK1
  1

  9
$DIMBLK2
  1

  9
$DIMSTYLE
  2
STANDARD
  9
$DIMCLRD
 70
     0
  9
$DIMCLRE
 70
     0
  9
$DIMCLRT
 70
     0
  9
$DIMTFAC
 40
1.0
  9
$DIMGAP
 40
0.09
  9
$LUNITS
 70
     2
  9
$LUPREC
 70
     2
  9
$SKETCHINC
 40
0.1
  9
$FILLETRAD
 40
0.5
  9
$AUNITS
 70
     0
  9
$AUPREC
 70
     0
  9
$MENU
  1
.
  9
$ELEVATION
 40
0.0
  9
$PELEVATION
 40
0.0
  9
$THICKNESS
 40
0.0
  9
$LIMCHECK
 70
     0
  9
$CHAMFERA
 40
0.0
  9
$CHAMFERB
 40
0.0
  9
$SKPOLY
 70
     0
  9
$TDCREATE
 40
2457878.646203704
  9
$TDUPDATE
 40
2457878.646215278
  9
$TDINDWG
 40
0.0000000116
  9
$TDUSRTIMER
 40
0.0000000116
  9
$USRTIMER
 70
     1
  9
$ANGBASE
 50
0.0
  9
$ANGDIR
 70
     0
  9
$PDMODE
 70
     0
  9
$PDSIZE
 40
0.0
  9
$PLINEWID
 40
0.0
  9
$COORDS
 70
     1
  9
$SPLFRAME
 70
     0
  9
$SPLINETYPE
 70
     6
  9
$SPLINESEGS
 70
     8
  9
$ATTDIA
 70
     0
  9
$ATTREQ
 70
     1
  9
$HANDLING
 70
     1
  9
$HANDSEED
  5
2F8
  9
$SURFTAB1
 70
     6
  9
$SURFTAB2
 70
     6
  9
$SURFTYPE
 70
     6
  9
$SURFU
 70
     6
  9
$SURFV
 70
     6
  9
$UCSNAME
  2

  9
$UCSORG
 10
0.0
 20
0.0
 30
0.0
  9
$UCSXDIR
 10
1.0
 20
0.0
 30
0.0
  9
$UCSYDIR
 10
0.0
 20
1.0
 30
0.0
  9
$PUCSNAME
  2

  9
$PUCSORG
 10
0.0
 20
0.0
 30
0.0
  9
$PUCSXDIR
 10
1.0
 20
0.0
 30
0.0
  9
$PUCSYDIR
 10
0.0
 20
1.0
 30
0.0
  9
$USERI1
 70
     0
  9
$USERI2
 70
     0
  9
$USERI3
 70
     0
  9
$USERI4
 70
     0
  9
$USERI5
 70
     0
  9
$USERR1
 40
0.0
  9
$USERR2
 40
0.0
  9
$USERR3
 40
0.0
  9
$USERR4
 40
0.0
  9
$USERR5
 40
0.0
  9
$WORLDVIEW
 70
     1
  9
$SHADEDGE
 70
     3
  9
$SHADEDIF
 70
    70
  9
$TILEMODE
 70
     1
  9
$MAXACTVP
 70
    64
  9
$PLIMCHECK
 70
     0
  9
$PEXTMIN
 10
1.000000000000000E+20
 20
1.000000000000000E+20
 30
1.000000000000000E+20
  9
$PEXTMAX
 10
-1.000000000000000E+20
 20
-1.000000000000000E+20
 30
-1.000000000000000E+20
  9
$PLIMMIN
 10
0.0
 20
0.0
  9
$PLIMMAX
 10
12.0
 20
9.0
  9
$UNITMODE
 70
     0
  9
$VISRETAIN
 70
     1
  9
$PLINEGEN
 70
     0
  9
$PSLTSCALE
 70
     1
  0
ENDSEC
  0
SECTION
  2
TABLES
  0
TABLE
  2
VPORT
 70
     1
  0
VPORT
  2
*ACTIVE
 70
     0
 10
0.0
 20
0.0
 11
1.0
 21
1.0
 12
424.0
 22
1859.0
 13
0.0
 23
0.0
 14
0.5
 24
0.5
 15
0.5
 25
0.5
 16
0.0
 26
0.0
 36
1.0
 17
0.0
 27
0.0
 37
0.0
 40
408.0
 41
1.5
 42
50.0
 43
0.0
 44
0.0
 50
0.0
 51
0.0
 71
     0
 72
   100
 73
     1
 74
     3
 75
     0
 76
     0
 77
     0
 78
     0
  0
ENDTAB
  0
TABLE
  2
LTYPE
 70
     1
  0
LTYPE
  2
CONTINUOUS
 70
     0
  3
Solid line
 72
    65
 73
     0
 40
0.0
  0
ENDTAB
  0
TABLE
  2
LAYER
 70
     3
  0
LAYER
  2
0
 70
     0
 62
     7
  6
CONTINUOUS
  0
LAYER
  2
2D$MOD_SUP
 70
     0
 62
     7
  6
CONTINUOUS
  0
LAYER
  2
DEFAULT
 70
     0
 62
     7
  6
CONTINUOUS
  0
ENDTAB
  0
TABLE
  2
STYLE
 70
     1
  0
STYLE
  2
STANDARD
 70
     0
 40
0.0
 41
1.0
 50
0.0
 71
     0
 42
0.2
  3
txt
  4

  0
ENDTAB
  0
TABLE
  2
VIEW
 70
     0
  0
ENDTAB
  0
TABLE
  2
UCS
 70
     0
  0
ENDTAB
  0
TABLE
  2
APPID
 70
     1
  0
APPID
  2
ACAD
 70
     0
  0
ENDTAB
  0
TABLE
  2
DIMSTYLE
 70
     1
  0
DIMSTYLE
  2
STANDARD
 70
     0
  3

  4

  5

  6

  7

 40
1.0
 41
0.18
 42
0.0625
 43
0.38
 44
0.18
 45
0.0
 46
0.0
 47
0.0
 48
0.0
140
0.18
141
0.09
142
0.0
143
25.4
144
1.0
145
0.0
146
1.0
147
0.09
 71
     0
 72
     0
 73
     1
 74
     1
 75
     0
 76
     0
 77
     0
 78
     0
170
     0
171
     2
172
     0
173
     0
174
     0
175
     0
176
     0
177
     0
178
     0
  0
ENDTAB
  0
ENDSEC
  0
SECTION
  2
BLOCKS
  0
BLOCK
  8
0
  2
$MODEL_SPACE
 70
     0
 10
0.0
 20
0.0
 30
0.0
  3
$MODEL_SPACE
  1

  0
ENDBLK
  5
21
  8
0
  0
BLOCK
 67
     1
  8
0
  2
$PAPER_SPACE
 70
     0
 10
0.0
 20
0.0
 30
0.0
  3
$PAPER_SPACE
  1

  0
ENDBLK
  5
1D
 67
     1
  8
0
  0
ENDSEC
  0
SECTION
  2
ENTITIES
  0
POLYLINE
  5
6F
  8
2D$MOD_SUP
 66
     1
 10
0.0
 20
0.0
 30
0.0
 70
     1
  0
VERTEX
  5
70
  8
2D$MOD_SUP
 10
152.9394385826755
 20
1924.886678601391
 30
0.0
  0
VERTEX
  5
71
  8
2D$MOD_SUP
 10
152.9671836331199
 20
1924.886370649668
 30
0.0
  0
VERTEX
  5
72
  8
2D$MOD_SUP
 10
152.9951641303707
 20
1924.885435854365
 30
0.0
  0
VERTEX
  5
73
  8
2D$MOD_SUP
 10
153.0233617471335
 20
1924.883858192771
 30
0.0
  0
VERTEX
  5
74
  8
2D$MOD_SUP
 10
153.0517571188413
 20
1924.881622215153
 30
0.0
  0
VERTEX
  5
75
  8
2D$MOD_SUP
 10
153.0803298557933
 20
1924.878713116138
 30
0.0
  0
VERTEX
  5
76
  8
2D$MOD_SUP
 10
153.1090585605577
 20
1924.875116806911
 30
0.0
  0
VERTEX
  5
77
  8
2D$MOD_SUP
 10
153.1379208508471
 20
1924.870819987845
 30
0.0
  0
VERTEX
  5
78
  8
2D$MOD_SUP
 10
153.1668933880403
 20
1924.865810221096
 30
0.0
  0
VERTEX
  5
79
  8
2D$MOD_SUP
 10
153.1959519114905
 20
1924.860076002716
 30
0.0
  0
VERTEX
  5
7A
  8
2D$MOD_SUP
 10
153.2250712787147
 20
1924.853606833771
 30
0.0
  0
VERTEX
  5
7B
  8
2D$MOD_SUP
 10
153.2542255115172
 20
1924.846393289953
 30
0.0
  0
VERTEX
  5
7C
  8
2D$MOD_SUP
 10
153.2833878480484
 20
1924.838427089142
 30
0.0
  0
VERTEX
  5
7D
  8
2D$MOD_SUP
 10
153.3125308007501
 20
1924.829701156378
 30
0.0
  0
VERTEX
  5
7E
  8
2D$MOD_SUP
 10
153.3416262200806
 20
1924.82020968568
 30
0.0
  0
VERTEX
  5
7F
  8
2D$MOD_SUP
 10
153.3706453638587
 20
1924.809948198144
 30
0.0
  0
VERTEX
  5
80
  8
2D$MOD_SUP
 10
153.3995589720036
 20
1924.798913595779
 30
0.0
  0
VERTEX
  5
81
  8
2D$MOD_SUP
 10
153.4283373463901
 20
1924.787104210536
 30
0.0
  0
VERTEX
  5
82
  8
2D$MOD_SUP
 10
153.4569504354789
 20
1924.774519847989
 30
0.0
  0
VERTEX
  5
83
  8
2D$MOD_SUP
 10
153.4853679233215
 20
1924.761161825189
 30
0.0
  0
VERTEX
  5
84
  8
2D$MOD_SUP
 10
153.5135593224839
 20
1924.747033002212
 30
0.0
  0
VERTEX
  5
85
  8
2D$MOD_SUP
 10
153.5414940703794
 20
1924.732137806967
 30
0.0
  0
VERTEX
  5
86
  8
2D$MOD_SUP
 10
153.5691416284488
 20
1924.716482252906
 30
0.0
  0
VERTEX
  5
87
  8
2D$MOD_SUP
 10
153.5964715835828
 20
1924.700073949283
 30
0.0
  0
VERTEX
  5
88
  8
2D$MOD_SUP
 10
153.6234537511395
 20
1924.682922103696
 30
0.0
  0
VERTEX
  5
89
  8
2D$MOD_SUP
 10
153.6500582788777
 20
1924.665037516728
 30
0.0
  0
VERTEX
  5
8A
  8
2D$MOD_SUP
 10
153.6762557510981
 20
1924.646432568513
 30
0.0
  0
VERTEX
  5
8B
  8
2D$MOD_SUP
 10
153.7020172922684
 20
1924.627121197192
 30
0.0
  0
VERTEX
  5
8C
  8
2D$MOD_SUP
 10
153.7273146693945
 20
1924.607118869257
 30
0.0
  0
VERTEX
  5
8D
  8
2D$MOD_SUP
 10
153.7521203923998
 20
1924.58644254186
 30
0.0
  0
VERTEX
  5
8E
  8
2D$MOD_SUP
 10
153.7764078117817
 20
1924.565110617257
 30
0.0
  0
VERTEX
  5
8F
  8
2D$MOD_SUP
 10
153.8001512128284
 20
1924.543142889631
 30
0.0
  0
VERTEX
  5
90
  8
2D$MOD_SUP
 10
153.8233259057052
 20
1924.520560484583
 30
0.0
  0
VERTEX
  5
91
  8
2D$MOD_SUP
 10
153.8459083107528
 20
1924.497385791706
 30
0.0
  0
VERTEX
  5
92
  8
2D$MOD_SUP
 10
153.8678760383798
 20
1924.473642390659
 30
0.0
  0
VERTEX
  5
93
  8
2D$MOD_SUP
 10
153.8892079629825
 20
1924.449354971277
 30
0.0
  0
VERTEX
  5
94
  8
2D$MOD_SUP
 10
153.9098842903799
 20
1924.424549248272
 30
0.0
  0
VERTEX
  5
95
  8
2D$MOD_SUP
 10
153.9298866183144
 20
1924.399251871146
 30
0.0
  0
VERTEX
  5
96
  8
2D$MOD_SUP
 10
153.949197989635
 20
1924.373490329976
 30
0.0
  0
VERTEX
  5
97
  8
2D$MOD_SUP
 10
153.9678029378507
 20
1924.347292857755
 30
0.0
  0
VERTEX
  5
98
  8
2D$MOD_SUP
 10
153.985687524819
 20
1924.320688330017
 30
0.0
  0
VERTEX
  5
99
  8
2D$MOD_SUP
 10
154.0028393704052
 20
1924.29370616246
 30
0.0
  0
VERTEX
  5
9A
  8
2D$MOD_SUP
 10
154.0192476740288
 20
1924.266376207326
 30
0.0
  0
VERTEX
  5
9B
  8
2D$MOD_SUP
 10
154.0349032280891
 20
1924.238728649257
 30
0.0
  0
VERTEX
  5
9C
  8
2D$MOD_SUP
 10
154.049798423334
 20
1924.210793901361
 30
0.0
  0
VERTEX
  5
9D
  8
2D$MOD_SUP
 10
154.0639272463121
 20
1924.182602502199
 30
0.0
  0
VERTEX
  5
9E
  8
2D$MOD_SUP
 10
154.0772852691115
 20
1924.154185014356
 30
0.0
  0
VERTEX
  5
9F
  8
2D$MOD_SUP
 10
154.0898696316583
 20
1924.125571925268
 30
0.0
  0
VERTEX
  5
A0
  8
2D$MOD_SUP
 10
154.1016790169015
 20
1924.096793550881
 30
0.0
  0
VERTEX
  5
A1
  8
2D$MOD_SUP
 10
154.1127136192662
 20
1924.067879942736
 30
0.0
  0
VERTEX
  5
A2
  8
2D$MOD_SUP
 10
154.122975106803
 20
1924.038860798958
 30
0.0
  0
VERTEX
  5
A3
  8
2D$MOD_SUP
 10
154.132466577501
 20
1924.009765379627
 30
0.0
  0
VERTEX
  5
A4
  8
2D$MOD_SUP
 10
154.1411925102641
 20
1923.980622426926
 30
0.0
  0
VERTEX
  5
A5
  8
2D$MOD_SUP
 10
154.1491587110753
 20
1923.951460090395
 30
0.0
  0
VERTEX
  5
A6
  8
2D$MOD_SUP
 10
154.1563722548938
 20
1923.922305857592
 30
0.0
  0
VERTEX
  5
A7
  8
2D$MOD_SUP
 10
154.1628414238384
 20
1923.893186490368
 30
0.0
  0
VERTEX
  5
A8
  8
2D$MOD_SUP
 10
154.1685756422184
 20
1923.864127966918
 30
0.0
  0
VERTEX
  5
A9
  8
2D$MOD_SUP
 10
154.1735854089675
 20
1923.835155429725
 30
0.0
  0
VERTEX
  5
AA
  8
2D$MOD_SUP
 10
154.1778822280338
 20
1923.806293139435
 30
0.0
  0
VERTEX
  5
AB
  8
2D$MOD_SUP
 10
154.1814785372601
 20
1923.777564434671
 30
0.0
  0
VERTEX
  5
AC
  8
2D$MOD_SUP
 10
154.1843876362752
 20
1923.748991697719
 30
0.0
  0
VERTEX
  5
AD
  8
2D$MOD_SUP
 10
154.1866236138928
 20
1923.720596326011
 30
0.0
  0
VERTEX
  5
AE
  8
2D$MOD_SUP
 10
154.1882012754876
 20
1923.692398709248
 30
0.0
  0
VERTEX
  5
AF
  8
2D$MOD_SUP
 10
154.1891360707905
 20
1923.664418211998
 30
0.0
  0
VERTEX
  5
B0
  8
2D$MOD_SUP
 10
154.1894440225137
 20
1923.636673161553
 30
0.0
  0
VERTEX
  5
B1
  8
2D$MOD_SUP
 10
154.1894440225137
 20
1920.0
 30
0.0
  0
VERTEX
  5
B2
  8
2D$MOD_SUP
 10
154.1903184889644
 20
1919.948788334721
 30
0.0
  0
VERTEX
  5
B3
  8
2D$MOD_SUP
 10
154.1929408687278
 20
1919.897636379953
 30
0.0
  0
VERTEX
  5
B4
  8
2D$MOD_SUP
 10
154.1973081042265
 20
1919.846603776587
 30
0.0
  0
VERTEX
  5
B5
  8
2D$MOD_SUP
 10
154.2034151034591
 20
1919.795750026356
 30
0.0
  0
VERTEX
  5
B6
  8
2D$MOD_SUP
 10
154.2112547459378
 20
1919.745134422457
 30
0.0
  0
VERTEX
  5
B7
  8
2D$MOD_SUP
 10
154.2208178909901
 20
1919.694815980421
 30
0.0
  0
VERTEX
  5
B8
  8
2D$MOD_SUP
 10
154.2320933884167
 20
1919.6448533693
 30
0.0
  0
VERTEX
  5
B9
  8
2D$MOD_SUP
 10
154.2450680914919
 20
1919.595304843264
 30
0.0
  0
VERTEX
  5
BA
  8
2D$MOD_SUP
 10
154.2597268722924
 20
1919.546228173678
 30
0.0
  0
VERTEX
  5
BB
  8
2D$MOD_SUP
 10
154.2760526393354
 20
1919.497680581743
 30
0.0
  0
VERTEX
  5
BC
  8
2D$MOD_SUP
 10
154.2940263575069
 20
1919.44971867178
 30
0.0
  0
VERTEX
  5
BD
  8
2D$MOD_SUP
 10
154.3136270702554
 20
1919.402398365231
 30
0.0
  0
VERTEX
  5
BE
  8
2D$MOD_SUP
 10
154.3348319240268
 20
1919.355774835455
 30
0.0
  0
VERTEX
  5
BF
  8
2D$MOD_SUP
 10
154.3576161949101
 20
1919.309902443403
 30
0.0
  0
VERTEX
  5
C0
  8
2D$MOD_SUP
 10
154.3819533174645
 20
1919.264834674233
 30
0.0
  0
VERTEX
  5
C1
  8
2D$MOD_SUP
 10
154.4078149156939
 20
1919.220624074947
 30
0.0
  0
VERTEX
  5
C2
  8
2D$MOD_SUP
 10
154.4351708361316
 20
1919.177322193126
 30
0.0
  0
VERTEX
  5
C3
  8
2D$MOD_SUP
 10
154.463989182998
 20
1919.134979516828
 30
0.0
  0
VERTEX
  5
C4
  8
2D$MOD_SUP
 10
154.4942363553898
 20
1919.093645415718
 30
0.0
  0
VERTEX
  5
C5
  8
2D$MOD_SUP
 10
154.525877086457
 20
1919.053368083511
 30
0.0
  0
VERTEX
  5
C6
  8
2D$MOD_SUP
 10
154.5588744845226
 20
1919.014194481773
 30
0.0
  0
VERTEX
  5
C7
  8
2D$MOD_SUP
 10
154.5931900760964
 20
1918.976170285172
 30
0.0
  0
VERTEX
  5
C8
  8
2D$MOD_SUP
 10
154.6287838507338
 20
1918.93933982822
 30
0.0
  0
VERTEX
  5
C9
  8
2D$MOD_SUP
 10
154.6656143076857
 20
1918.903746053583
 30
0.0
  0
VERTEX
  5
CA
  8
2D$MOD_SUP
 10
154.7036385042867
 20
1918.869430462009
 30
0.0
  0
VERTEX
  5
CB
  8
2D$MOD_SUP
 10
154.7428121060246
 20
1918.836433063943
 30
0.0
  0
VERTEX
  5
CC
  8
2D$MOD_SUP
 10
154.783089438232
 20
1918.804792332876
 30
0.0
  0
VERTEX
  5
CD
  8
2D$MOD_SUP
 10
154.8244235393414
 20
1918.774545160484
 30
0.0
  0
VERTEX
  5
CE
  8
2D$MOD_SUP
 10
154.8667662156397
 20
1918.745726813618
 30
0.0
  0
VERTEX
  5
CF
  8
2D$MOD_SUP
 10
154.9100680974605
 20
1918.71837089318
 30
0.0
  0
VERTEX
  5
D0
  8
2D$MOD_SUP
 10
154.9542786967467
 20
1918.692509294951
 30
0.0
  0
VERTEX
  5
D1
  8
2D$MOD_SUP
 10
154.9993464659169
 20
1918.668172172396
 30
0.0
  0
VERTEX
  5
D2
  8
2D$MOD_SUP
 10
155.0452188579686
 20
1918.645387901513
 30
0.0
  0
VERTEX
  5
D3
  8
2D$MOD_SUP
 10
155.0918423877443
 20
1918.624183047742
 30
0.0
  0
VERTEX
  5
D4
  8
2D$MOD_SUP
 10
155.1391626942941
 20
1918.604582334993
 30
0.0
  0
VERTEX
  5
D5
  8
2D$MOD_SUP
 10
155.1871246042572
 20
1918.586608616822
 30
0.0
  0
VERTEX
  5
D6
  8
2D$MOD_SUP
 10
155.2356721961921
 20
1918.570282849779
 30
0.0
  0
VERTEX
  5
D7
  8
2D$MOD_SUP
 10
155.2847488657782
 20
1918.555624068978
 30
0.0
  0
VERTEX
  5
D8
  8
2D$MOD_SUP
 10
155.334297391814
 20
1918.542649365903
 30
0.0
  0
VERTEX
  5
D9
  8
2D$MOD_SUP
 10
155.3842600029348
 20
1918.531373868476
 30
0.0
  0
VERTEX
  5
DA
  8
2D$MOD_SUP
 10
155.4345784449707
 20
1918.521810723424
 30
0.0
  0
VERTEX
  5
DB
  8
2D$MOD_SUP
 10
155.4851940488693
 20
1918.513971080945
 30
0.0
  0
VERTEX
  5
DC
  8
2D$MOD_SUP
 10
155.5360477991007
 20
1918.507864081713
 30
0.0
  0
VERTEX
  5
DD
  8
2D$MOD_SUP
 10
155.5870804024667
 20
1918.503496846214
 30
0.0
  0
VERTEX
  5
DE
  8
2D$MOD_SUP
 10
155.6382323572348
 20
1918.500874466451
 30
0.0
  0
VERTEX
  5
DF
  8
2D$MOD_SUP
 10
155.6894440225137
 20
1918.5
 30
0.0
  0
VERTEX
  5
E0
  8
2D$MOD_SUP
 10
262.3108522408531
 20
1918.5
 30
0.0
  0
VERTEX
  5
E1
  8
2D$MOD_SUP
 10
262.3620639061321
 20
1918.500874466451
 30
0.0
  0
VERTEX
  5
E2
  8
2D$MOD_SUP
 10
262.4132158609001
 20
1918.503496846214
 30
0.0
  0
VERTEX
  5
E3
  8
2D$MOD_SUP
 10
262.4642484642661
 20
1918.507864081713
 30
0.0
  0
VERTEX
  5
E4
  8
2D$MOD_SUP
 10
262.5151022144975
 20
1918.513971080946
 30
0.0
  0
VERTEX
  5
E5
  8
2D$MOD_SUP
 10
262.5657178183961
 20
1918.521810723424
 30
0.0
  0
VERTEX
  5
E6
  8
2D$MOD_SUP
 10
262.6160362604321
 20
1918.531373868477
 30
0.0
  0
VERTEX
  5
E7
  8
2D$MOD_SUP
 10
262.6659988715527
 20
1918.542649365903
 30
0.0
  0
VERTEX
  5
E8
  8
2D$MOD_SUP
 10
262.7155473975886
 20
1918.555624068978
 30
0.0
  0
VERTEX
  5
E9
  8
2D$MOD_SUP
 10
262.7646240671747
 20
1918.570282849779
 30
0.0
  0
VERTEX
  5
EA
  8
2D$MOD_SUP
 10
262.8131716591096
 20
1918.586608616822
 30
0.0
  0
VERTEX
  5
EB
  8
2D$MOD_SUP
 10
262.8611335690727
 20
1918.604582334993
 30
0.0
  0
VERTEX
  5
EC
  8
2D$MOD_SUP
 10
262.9084538756225
 20
1918.624183047742
 30
0.0
  0
VERTEX
  5
ED
  8
2D$MOD_SUP
 10
262.9550774053982
 20
1918.645387901513
 30
0.0
  0
VERTEX
  5
EE
  8
2D$MOD_SUP
 10
263.0009497974498
 20
1918.668172172396
 30
0.0
  0
VERTEX
  5
EF
  8
2D$MOD_SUP
 10
263.0460175666202
 20
1918.692509294951
 30
0.0
  0
VERTEX
  5
F0
  8
2D$MOD_SUP
 10
263.0902281659063
 20
1918.71837089318
 30
0.0
  0
VERTEX
  5
F1
  8
2D$MOD_SUP
 10
263.1335300477271
 20
1918.745726813618
 30
0.0
  0
VERTEX
  5
F2
  8
2D$MOD_SUP
 10
263.1758727240255
 20
1918.774545160484
 30
0.0
  0
VERTEX
  5
F3
  8
2D$MOD_SUP
 10
263.2172068251348
 20
1918.804792332876
 30
0.0
  0
VERTEX
  5
F4
  8
2D$MOD_SUP
 10
263.2574841573422
 20
1918.836433063943
 30
0.0
  0
VERTEX
  5
F5
  8
2D$MOD_SUP
 10
263.2966577590801
 20
1918.869430462009
 30
0.0
  0
VERTEX
  5
F6
  8
2D$MOD_SUP
 10
263.334681955681
 20
1918.903746053583
 30
0.0
  0
VERTEX
  5
F7
  8
2D$MOD_SUP
 10
263.3715124126329
 20
1918.93933982822
 30
0.0
  0
VERTEX
  5
F8
  8
2D$MOD_SUP
 10
263.4071061872703
 20
1918.976170285172
 30
0.0
  0
VERTEX
  5
F9
  8
2D$MOD_SUP
 10
263.4414217788441
 20
1919.014194481773
 30
0.0
  0
VERTEX
  5
FA
  8
2D$MOD_SUP
 10
263.4744191769097
 20
1919.053368083511
 30
0.0
  0
VERTEX
  5
FB
  8
2D$MOD_SUP
 10
263.506059907977
 20
1919.093645415718
 30
0.0
  0
VERTEX
  5
FC
  8
2D$MOD_SUP
 10
263.5363070803688
 20
1919.134979516828
 30
0.0
  0
VERTEX
  5
FD
  8
2D$MOD_SUP
 10
263.5651254272352
 20
1919.177322193126
 30
0.0
  0
VERTEX
  5
FE
  8
2D$MOD_SUP
 10
263.5924813476728
 20
1919.220624074947
 30
0.0
  0
VERTEX
  5
FF
  8
2D$MOD_SUP
 10
263.6183429459023
 20
1919.264834674233
 30
0.0
  0
VERTEX
  5
100
  8
2D$MOD_SUP
 10
263.6426800684567
 20
1919.309902443403
 30
0.0
  0
VERTEX
  5
101
  8
2D$MOD_SUP
 10
263.6654643393399
 20
1919.355774835455
 30
0.0
  0
VERTEX
  5
102
  8
2D$MOD_SUP
 10
263.6866691931113
 20
1919.402398365231
 30
0.0
  0
VERTEX
  5
103
  8
2D$MOD_SUP
 10
263.7062699058599
 20
1919.44971867178
 30
0.0
  0
VERTEX
  5
104
  8
2D$MOD_SUP
 10
263.7242436240314
 20
1919.497680581743
 30
0.0
  0
VERTEX
  5
105
  8
2D$MOD_SUP
 10
263.7405693910744
 20
1919.546228173678
 30
0.0
  0
VERTEX
  5
106
  8
2D$MOD_SUP
 10
263.7552281718748
 20
1919.595304843265
 30
0.0
  0
VERTEX
  5
107
  8
2D$MOD_SUP
 10
263.76820287495
 20
1919.6448533693
 30
0.0
  0
VERTEX
  5
108
  8
2D$MOD_SUP
 10
263.7794783723766
 20
1919.694815980421
 30
0.0
  0
VERTEX
  5
109
  8
2D$MOD_SUP
 10
263.7890415174289
 20
1919.745134422457
 30
0.0
  0
VERTEX
  5
10A
  8
2D$MOD_SUP
 10
263.7968811599076
 20
1919.795750026356
 30
0.0
  0
VERTEX
  5
10B
  8
2D$MOD_SUP
 10
263.8029881591402
 20
1919.846603776587
 30
0.0
  0
VERTEX
  5
10C
  8
2D$MOD_SUP
 10
263.8073553946389
 20
1919.897636379953
 30
0.0
  0
VERTEX
  5
10D
  8
2D$MOD_SUP
 10
263.8099777744023
 20
1919.948788334721
 30
0.0
  0
VERTEX
  5
10E
  8
2D$MOD_SUP
 10
263.8108522408531
 20
1920.0
 30
0.0
  0
VERTEX
  5
10F
  8
2D$MOD_SUP
 10
263.8108522408531
 20
1923.636673161553
 30
0.0
  0
VERTEX
  5
110
  8
2D$MOD_SUP
 10
263.8111601925763
 20
1923.664418211997
 30
0.0
  0
VERTEX
  5
111
  8
2D$MOD_SUP
 10
263.8120949878793
 20
1923.692398709248
 30
0.0
  0
VERTEX
  5
112
  8
2D$MOD_SUP
 10
263.813672649474
 20
1923.72059632601
 30
0.0
  0
VERTEX
  5
113
  8
2D$MOD_SUP
 10
263.8159086270916
 20
1923.748991697718
 30
0.0
  0
VERTEX
  5
114
  8
2D$MOD_SUP
 10
263.8188177261068
 20
1923.77756443467
 30
0.0
  0
VERTEX
  5
115
  8
2D$MOD_SUP
 10
263.822414035333
 20
1923.806293139435
 30
0.0
  0
VERTEX
  5
116
  8
2D$MOD_SUP
 10
263.8267108543994
 20
1923.835155429724
 30
0.0
  0
VERTEX
  5
117
  8
2D$MOD_SUP
 10
263.8317206211485
 20
1923.864127966918
 30
0.0
  0
VERTEX
  5
118
  8
2D$MOD_SUP
 10
263.8374548395286
 20
1923.893186490368
 30
0.0
  0
VERTEX
  5
119
  8
2D$MOD_SUP
 10
263.8439240084732
 20
1923.922305857592
 30
0.0
  0
VERTEX
  5
11A
  8
2D$MOD_SUP
 10
263.8511375522916
 20
1923.951460090395
 30
0.0
  0
VERTEX
  5
11B
  8
2D$MOD_SUP
 10
263.8591037531028
 20
1923.980622426926
 30
0.0
  0
VERTEX
  5
11C
  8
2D$MOD_SUP
 10
263.8678296858659
 20
1924.009765379628
 30
0.0
  0
VERTEX
  5
11D
  8
2D$MOD_SUP
 10
263.8773211565639
 20
1924.038860798958
 30
0.0
  0
VERTEX
  5
11E
  8
2D$MOD_SUP
 10
263.8875826441008
 20
1924.067879942737
 30
0.0
  0
VERTEX
  5
11F
  8
2D$MOD_SUP
 10
263.8986172464655
 20
1924.096793550882
 30
0.0
  0
VERTEX
  5
120
  8
2D$MOD_SUP
 10
263.9104266317086
 20
1924.125571925268
 30
0.0
  0
VERTEX
  5
121
  8
2D$MOD_SUP
 10
263.9230109942555
 20
1924.154185014356
 30
0.0
  0
VERTEX
  5
122
  8
2D$MOD_SUP
 10
263.9363690170549
 20
1924.182602502199
 30
0.0
  0
VERTEX
  5
123
  8
2D$MOD_SUP
 10
263.9504978400329
 20
1924.210793901362
 30
0.0
  0
VERTEX
  5
124
  8
2D$MOD_SUP
 10
263.9653930352779
 20
1924.238728649257
 30
0.0
  0
VERTEX
  5
125
  8
2D$MOD_SUP
 10
263.9810485893382
 20
1924.266376207326
 30
0.0
  0
VERTEX
  5
126
  8
2D$MOD_SUP
 10
263.9974568929618
 20
1924.293706162461
 30
0.0
  0
VERTEX
  5
127
  8
2D$MOD_SUP
 10
264.014608738548
 20
1924.320688330017
 30
0.0
  0
VERTEX
  5
128
  8
2D$MOD_SUP
 10
264.0324933255163
 20
1924.347292857755
 30
0.0
  0
VERTEX
  5
129
  8
2D$MOD_SUP
 10
264.0510982737321
 20
1924.373490329976
 30
0.0
  0
VERTEX
  5
12A
  8
2D$MOD_SUP
 10
264.0704096450526
 20
1924.399251871146
 30
0.0
  0
VERTEX
  5
12B
  8
2D$MOD_SUP
 10
264.0904119729872
 20
1924.424549248272
 30
0.0
  0
VERTEX
  5
12C
  8
2D$MOD_SUP
 10
264.1110883003846
 20
1924.449354971278
 30
0.0
  0
VERTEX
  5
12D
  8
2D$MOD_SUP
 10
264.1324202249872
 20
1924.473642390659
 30
0.0
  0
VERTEX
  5
12E
  8
2D$MOD_SUP
 10
264.1543879526142
 20
1924.497385791706
 30
0.0
  0
VERTEX
  5
12F
  8
2D$MOD_SUP
 10
264.1769703576618
 20
1924.520560484583
 30
0.0
  0
VERTEX
  5
130
  8
2D$MOD_SUP
 10
264.2001450505387
 20
1924.543142889631
 30
0.0
  0
VERTEX
  5
131
  8
2D$MOD_SUP
 10
264.2238884515854
 20
1924.565110617257
 30
0.0
  0
VERTEX
  5
132
  8
2D$MOD_SUP
 10
264.2481758709673
 20
1924.586442541861
 30
0.0
  0
VERTEX
  5
133
  8
2D$MOD_SUP
 10
264.2729815939726
 20
1924.607118869258
 30
0.0
  0
VERTEX
  5
134
  8
2D$MOD_SUP
 10
264.2982789710987
 20
1924.627121197193
 30
0.0
  0
VERTEX
  5
135
  8
2D$MOD_SUP
 10
264.3240405122691
 20
1924.646432568513
 30
0.0
  0
VERTEX
  5
136
  8
2D$MOD_SUP
 10
264.3502379844894
 20
1924.665037516729
 30
0.0
  0
VERTEX
  5
137
  8
2D$MOD_SUP
 10
264.3768425122275
 20
1924.682922103697
 30
0.0
  0
VERTEX
  5
138
  8
2D$MOD_SUP
 10
264.4038246797843
 20
1924.700073949283
 30
0.0
  0
VERTEX
  5
139
  8
2D$MOD_SUP
 10
264.4311546349184
 20
1924.716482252906
 30
0.0
  0
VERTEX
  5
13A
  8
2D$MOD_SUP
 10
264.4588021929878
 20
1924.732137806967
 30
0.0
  0
VERTEX
  5
13B
  8
2D$MOD_SUP
 10
264.4867369408832
 20
1924.747033002212
 30
0.0
  0
VERTEX
  5
13C
  8
2D$MOD_SUP
 10
264.5149283400457
 20
1924.76116182519
 30
0.0
  0
VERTEX
  5
13D
  8
2D$MOD_SUP
 10
264.5433458278882
 20
1924.774519847989
 30
0.0
  0
VERTEX
  5
13E
  8
2D$MOD_SUP
 10
264.571958916977
 20
1924.787104210536
 30
0.0
  0
VERTEX
  5
13F
  8
2D$MOD_SUP
 10
264.6007372913636
 20
1924.79891359578
 30
0.0
  0
VERTEX
  5
140
  8
2D$MOD_SUP
 10
264.6296508995085
 20
1924.809948198144
 30
0.0
  0
VERTEX
  5
141
  8
2D$MOD_SUP
 10
264.6586700432866
 20
1924.820209685681
 30
0.0
  0
VERTEX
  5
142
  8
2D$MOD_SUP
 10
264.6877654626171
 20
1924.829701156379
 30
0.0
  0
VERTEX
  5
143
  8
2D$MOD_SUP
 10
264.7169084153188
 20
1924.838427089142
 30
0.0
  0
VERTEX
  5
144
  8
2D$MOD_SUP
 10
264.74607075185
 20
1924.846393289953
 30
0.0
  0
VERTEX
  5
145
  8
2D$MOD_SUP
 10
264.7752249846525
 20
1924.853606833772
 30
0.0
  0
VERTEX
  5
146
  8
2D$MOD_SUP
 10
264.8043443518768
 20
1924.860076002717
 30
0.0
  0
VERTEX
  5
147
  8
2D$MOD_SUP
 10
264.8334028753268
 20
1924.865810221096
 30
0.0
  0
VERTEX
  5
148
  8
2D$MOD_SUP
 10
264.8623754125201
 20
1924.870819987845
 30
0.0
  0
VERTEX
  5
149
  8
2D$MOD_SUP
 10
264.8912377028094
 20
1924.875116806911
 30
0.0
  0
VERTEX
  5
14A
  8
2D$MOD_SUP
 10
264.9199664075739
 20
1924.878713116138
 30
0.0
  0
VERTEX
  5
14B
  8
2D$MOD_SUP
 10
264.9485391445259
 20
1924.881622215153
 30
0.0
  0
VERTEX
  5
14C
  8
2D$MOD_SUP
 10
264.9769345162337
 20
1924.88385819277
 30
0.0
  0
VERTEX
  5
14D
  8
2D$MOD_SUP
 10
265.0051321329965
 20
1924.885435854365
 30
0.0
  0
VERTEX
  5
14E
  8
2D$MOD_SUP
 10
265.0331126302473
 20
1924.886370649668
 30
0.0
  0
VERTEX
  5
14F
  8
2D$MOD_SUP
 10
265.0608576806916
 20
1924.886678601391
 30
0.0
  0
VERTEX
  5
150
  8
2D$MOD_SUP
 10
271.5000493772282
 20
1924.886678601391
 30
0.0
  0
VERTEX
  5
151
  8
2D$MOD_SUP
 10
271.5512610425071
 20
1924.887553067842
 30
0.0
  0
VERTEX
  5
152
  8
2D$MOD_SUP
 10
271.6024129972752
 20
1924.890175447605
 30
0.0
  0
VERTEX
  5
153
  8
2D$MOD_SUP
 10
271.6534456006412
 20
1924.894542683104
 30
0.0
  0
VERTEX
  5
154
  8
2D$MOD_SUP
 10
271.7042993508725
 20
1924.900649682337
 30
0.0
  0
VERTEX
  5
155
  8
2D$MOD_SUP
 10
271.7549149547712
 20
1924.908489324815
 30
0.0
  0
VERTEX
  5
156
  8
2D$MOD_SUP
 10
271.8052333968071
 20
1924.918052469868
 30
0.0
  0
VERTEX
  5
157
  8
2D$MOD_SUP
 10
271.8551960079278
 20
1924.929327967294
 30
0.0
  0
VERTEX
  5
158
  8
2D$MOD_SUP
 10
271.9047445339637
 20
1924.942302670369
 30
0.0
  0
VERTEX
  5
159
  8
2D$MOD_SUP
 10
271.9538212035498
 20
1924.95696145117
 30
0.0
  0
VERTEX
  5
15A
  8
2D$MOD_SUP
 10
272.0023687954846
 20
1924.973287218213
 30
0.0
  0
VERTEX
  5
15B
  8
2D$MOD_SUP
 10
272.0503307054478
 20
1924.991260936384
 30
0.0
  0
VERTEX
  5
15C
  8
2D$MOD_SUP
 10
272.0976510119975
 20
1925.010861649133
 30
0.0
  0
VERTEX
  5
15D
  8
2D$MOD_SUP
 10
272.1442745417733
 20
1925.032066502904
 30
0.0
  0
VERTEX
  5
15E
  8
2D$MOD_SUP
 10
272.1901469338249
 20
1925.054850773788
 30
0.0
  0
VERTEX
  5
15F
  8
2D$MOD_SUP
 10
272.2352147029952
 20
1925.079187896342
 30
0.0
  0
VERTEX
  5
160
  8
2D$MOD_SUP
 10
272.2794253022814
 20
1925.105049494571
 30
0.0
  0
VERTEX
  5
161
  8
2D$MOD_SUP
 10
272.3227271841022
 20
1925.132405415009
 30
0.0
  0
VERTEX
  5
162
  8
2D$MOD_SUP
 10
272.3650698604005
 20
1925.161223761875
 30
0.0
  0
VERTEX
  5
163
  8
2D$MOD_SUP
 10
272.4064039615099
 20
1925.191470934267
 30
0.0
  0
VERTEX
  5
164
  8
2D$MOD_SUP
 10
272.4466812937173
 20
1925.223111665334
 30
0.0
  0
VERTEX
  5
165
  8
2D$MOD_SUP
 10
272.4858548954552
 20
1925.2561090634
 30
0.0
  0
VERTEX
  5
166
  8
2D$MOD_SUP
 10
272.5238790920561
 20
1925.290424654974
 30
0.0
  0
VERTEX
  5
167
  8
2D$MOD_SUP
 10
272.560709549008
 20
1925.326018429611
 30
0.0
  0
VERTEX
  5
168
  8
2D$MOD_SUP
 10
272.5963033236454
 20
1925.362848886563
 30
0.0
  0
VERTEX
  5
169
  8
2D$MOD_SUP
 10
272.6306189152192
 20
1925.400873083164
 30
0.0
  0
VERTEX
  5
16A
  8
2D$MOD_SUP
 10
272.6636163132848
 20
1925.440046684902
 30
0.0
  0
VERTEX
  5
16B
  8
2D$MOD_SUP
 10
272.695257044352
 20
1925.48032401711
 30
0.0
  0
VERTEX
  5
16C
  8
2D$MOD_SUP
 10
272.7255042167438
 20
1925.521658118219
 30
0.0
  0
VERTEX
  5
16D
  8
2D$MOD_SUP
 10
272.7543225636102
 20
1925.564000794517
 30
0.0
  0
VERTEX
  5
16E
  8
2D$MOD_SUP
 10
272.7816784840479
 20
1925.607302676338
 30
0.0
  0
VERTEX
  5
16F
  8
2D$MOD_SUP
 10
272.8075400822773
 20
1925.651513275624
 30
0.0
  0
VERTEX
  5
170
  8
2D$MOD_SUP
 10
272.8318772048318
 20
1925.696581044794
 30
0.0
  0
VERTEX
  5
171
  8
2D$MOD_SUP
 10
272.854661475715
 20
1925.742453436846
 30
0.0
  0
VERTEX
  5
172
  8
2D$MOD_SUP
 10
272.8758663294864
 20
1925.789076966622
 30
0.0
  0
VERTEX
  5
173
  8
2D$MOD_SUP
 10
272.8954670422349
 20
1925.836397273172
 30
0.0
  0
VERTEX
  5
174
  8
2D$MOD_SUP
 10
272.9134407604064
 20
1925.884359183135
 30
0.0
  0
VERTEX
  5
175
  8
2D$MOD_SUP
 10
272.9297665274494
 20
1925.93290677507
 30
0.0
  0
VERTEX
  5
176
  8
2D$MOD_SUP
 10
272.9444253082499
 20
1925.981983444656
 30
0.0
  0
VERTEX
  5
177
  8
2D$MOD_SUP
 10
272.957400011325
 20
1926.031531970692
 30
0.0
  0
VERTEX
  5
178
  8
2D$MOD_SUP
 10
272.9686755087516
 20
1926.081494581812
 30
0.0
  0
VERTEX
  5
179
  8
2D$MOD_SUP
 10
272.9782386538039
 20
1926.131813023848
 30
0.0
  0
VERTEX
  5
17A
  8
2D$MOD_SUP
 10
272.9860782962826
 20
1926.182428627747
 30
0.0
  0
VERTEX
  5
17B
  8
2D$MOD_SUP
 10
272.9921852955153
 20
1926.233282377978
 30
0.0
  0
VERTEX
  5
17C
  8
2D$MOD_SUP
 10
272.9965525310139
 20
1926.284314981344
 30
0.0
  0
VERTEX
  5
17D
  8
2D$MOD_SUP
 10
272.9991749107774
 20
1926.335466936112
 30
0.0
  0
VERTEX
  5
17E
  8
2D$MOD_SUP
 10
273.0000493772282
 20
1926.386678601391
 30
0.0
  0
VERTEX
  5
17F
  8
2D$MOD_SUP
 10
273.0000493772282
 20
2033.310654731943
 30
0.0
  0
VERTEX
  5
180
  8
2D$MOD_SUP
 10
272.9991749107775
 20
2033.361866397222
 30
0.0
  0
VERTEX
  5
181
  8
2D$MOD_SUP
 10
272.9965525310141
 20
2033.41301835199
 30
0.0
  0
VERTEX
  5
182
  8
2D$MOD_SUP
 10
272.9921852955153
 20
2033.464050955356
 30
0.0
  0
VERTEX
  5
183
  8
2D$MOD_SUP
 10
272.9860782962827
 20
2033.514904705587
 30
0.0
  0
VERTEX
  5
184
  8
2D$MOD_SUP
 10
272.978238653804
 20
2033.565520309486
 30
0.0
  0
VERTEX
  5
185
  8
2D$MOD_SUP
 10
272.9686755087517
 20
2033.615838751522
 30
0.0
  0
VERTEX
  5
186
  8
2D$MOD_SUP
 10
272.9574000113251
 20
2033.665801362643
 30
0.0
  0
VERTEX
  5
187
  8
2D$MOD_SUP
 10
272.9444253082499
 20
2033.715349888678
 30
0.0
  0
VERTEX
  5
188
  8
2D$MOD_SUP
 10
272.9297665274494
 20
2033.764426558265
 30
0.0
  0
VERTEX
  5
189
  8
2D$MOD_SUP
 10
272.9134407604064
 20
2033.8129741502
 30
0.0
  0
VERTEX
  5
18A
  8
2D$MOD_SUP
 10
272.8954670422349
 20
2033.860936060163
 30
0.0
  0
VERTEX
  5
18B
  8
2D$MOD_SUP
 10
272.8758663294864
 20
2033.908256366713
 30
0.0
  0
VERTEX
  5
18C
  8
2D$MOD_SUP
 10
272.8546614757149
 20
2033.954879896488
 30
0.0
  0
VERTEX
  5
18D
  8
2D$MOD_SUP
 10
272.8318772048317
 20
2034.00075228854
 30
0.0
  0
VERTEX
  5
18E
  8
2D$MOD_SUP
 10
272.8075400822773
 20
2034.04582005771
 30
0.0
  0
VERTEX
  5
18F
  8
2D$MOD_SUP
 10
272.7816784840479
 20
2034.090030656996
 30
0.0
  0
VERTEX
  5
190
  8
2D$MOD_SUP
 10
272.7543225636102
 20
2034.133332538817
 30
0.0
  0
VERTEX
  5
191
  8
2D$MOD_SUP
 10
272.7255042167438
 20
2034.175675215115
 30
0.0
  0
VERTEX
  5
192
  8
2D$MOD_SUP
 10
272.6952570443519
 20
2034.217009316225
 30
0.0
  0
VERTEX
  5
193
  8
2D$MOD_SUP
 10
272.6636163132847
 20
2034.257286648432
 30
0.0
  0
VERTEX
  5
194
  8
2D$MOD_SUP
 10
272.6306189152191
 20
2034.29646025017
 30
0.0
  0
VERTEX
  5
195
  8
2D$MOD_SUP
 10
272.5963033236453
 20
2034.334484446771
 30
0.0
  0
VERTEX
  5
196
  8
2D$MOD_SUP
 10
272.5607095490079
 20
2034.371314903723
 30
0.0
  0
VERTEX
  5
197
  8
2D$MOD_SUP
 10
272.5238790920561
 20
2034.40690867836
 30
0.0
  0
VERTEX
  5
198
  8
2D$MOD_SUP
 10
272.485854895455
 20
2034.441224269934
 30
0.0
  0
VERTEX
  5
199
  8
2D$MOD_SUP
 10
272.4466812937171
 20
2034.474221668
 30
0.0
  0
VERTEX
  5
19A
  8
2D$MOD_SUP
 10
272.4064039615097
 20
2034.505862399067
 30
0.0
  0
VERTEX
  5
19B
  8
2D$MOD_SUP
 10
272.3650698604003
 20
2034.536109571459
 30
0.0
  0
VERTEX
  5
19C
  8
2D$MOD_SUP
 10
272.322727184102
 20
2034.564927918325
 30
0.0
  0
VERTEX
  5
19D
  8
2D$MOD_SUP
 10
272.2794253022811
 20
2034.592283838763
 30
0.0
  0
VERTEX
  5
19E
  8
2D$MOD_SUP
 10
272.235214702995
 20
2034.618145436992
 30
0.0
  0
VERTEX
  5
19F
  8
2D$MOD_SUP
 10
272.1901469338247
 20
2034.642482559547
 30
0.0
  0
VERTEX
  5
1A0
  8
2D$MOD_SUP
 10
272.1442745417731
 20
2034.66526683043
 30
0.0
  0
VERTEX
  5
1A1
  8
2D$MOD_SUP
 10
272.0976510119973
 20
2034.686471684201
 30
0.0
  0
VERTEX
  5
1A2
  8
2D$MOD_SUP
 10
272.0503307054475
 20
2034.70607239695
 30
0.0
  0
VERTEX
  5
1A3
  8
2D$MOD_SUP
 10
272.0023687954844
 20
2034.724046115122
 30
0.0
  0
VERTEX
  5
1A4
  8
2D$MOD_SUP
 10
271.9538212035495
 20
2034.740371882164
 30
0.0
  0
VERTEX
  5
1A5
  8
2D$MOD_SUP
 10
271.9047445339634
 20
2034.755030662965
 30
0.0
  0
VERTEX
  5
1A6
  8
2D$MOD_SUP
 10
271.8551960079275
 20
2034.76800536604
 30
0.0
  0
VERTEX
  5
1A7
  8
2D$MOD_SUP
 10
271.8052333968068
 20
2034.779280863467
 30
0.0
  0
VERTEX
  5
1A8
  8
2D$MOD_SUP
 10
271.7549149547709
 20
2034.788844008519
 30
0.0
  0
VERTEX
  5
1A9
  8
2D$MOD_SUP
 10
271.7042993508722
 20
2034.796683650998
 30
0.0
  0
VERTEX
  5
1AA
  8
2D$MOD_SUP
 10
271.6534456006409
 20
2034.80279065023
 30
0.0
  0
VERTEX
  5
1AB
  8
2D$MOD_SUP
 10
271.6024129972748
 20
2034.807157885729
 30
0.0
  0
VERTEX
  5
1AC
  8
2D$MOD_SUP
 10
271.5512610425068
 20
2034.809780265492
 30
0.0
  0
VERTEX
  5
1AD
  8
2D$MOD_SUP
 10
271.5000493772278
 20
2034.810654731943
 30
0.0
  0
VERTEX
  5
1AE
  8
2D$MOD_SUP
 10
265.0608576806917
 20
2034.810654731941
 30
0.0
  0
VERTEX
  5
1AF
  8
2D$MOD_SUP
 10
265.0331126302473
 20
2034.810962683664
 30
0.0
  0
VERTEX
  5
1B0
  8
2D$MOD_SUP
 10
265.0051321329965
 20
2034.811897478967
 30
0.0
  0
VERTEX
  5
1B1
  8
2D$MOD_SUP
 10
264.9769345162337
 20
2034.813475140562
 30
0.0
  0
VERTEX
  5
1B2
  8
2D$MOD_SUP
 10
264.9485391445259
 20
2034.81571111818
 30
0.0
  0
VERTEX
  5
1B3
  8
2D$MOD_SUP
 10
264.919966407574
 20
2034.818620217195
 30
0.0
  0
VERTEX
  5
1B4
  8
2D$MOD_SUP
 10
264.8912377028095
 20
2034.822216526421
 30
0.0
  0
VERTEX
  5
1B5
  8
2D$MOD_SUP
 10
264.8623754125201
 20
2034.826513345488
 30
0.0
  0
VERTEX
  5
1B6
  8
2D$MOD_SUP
 10
264.8334028753269
 20
2034.831523112237
 30
0.0
  0
VERTEX
  5
1B7
  8
2D$MOD_SUP
 10
264.8043443518768
 20
2034.837257330617
 30
0.0
  0
VERTEX
  5
1B8
  8
2D$MOD_SUP
 10
264.7752249846525
 20
2034.843726499562
 30
0.0
  0
VERTEX
  5
1B9
  8
2D$MOD_SUP
 10
264.74607075185
 20
2034.85094004338
 30
0.0
  0
VERTEX
  5
1BA
  8
2D$MOD_SUP
 10
264.7169084153188
 20
2034.858906244192
 30
0.0
  0
VERTEX
  5
1BB
  8
2D$MOD_SUP
 10
264.6877654626171
 20
2034.867632176954
 30
0.0
  0
VERTEX
  5
1BC
  8
2D$MOD_SUP
 10
264.6586700432866
 20
2034.877123647652
 30
0.0
  0
VERTEX
  5
1BD
  8
2D$MOD_SUP
 10
264.6296508995085
 20
2034.887385135189
 30
0.0
  0
VERTEX
  5
1BE
  8
2D$MOD_SUP
 10
264.6007372913637
 20
2034.898419737554
 30
0.0
  0
VERTEX
  5
1BF
  8
2D$MOD_SUP
 10
264.5719589169771
 20
2034.910229122797
 30
0.0
  0
VERTEX
  5
1C0
  8
2D$MOD_SUP
 10
264.5433458278882
 20
2034.922813485344
 30
0.0
  0
VERTEX
  5
1C1
  8
2D$MOD_SUP
 10
264.5149283400457
 20
2034.936171508144
 30
0.0
  0
VERTEX
  5
1C2
  8
2D$MOD_SUP
 10
264.4867369408833
 20
2034.950300331121
 30
0.0
  0
VERTEX
  5
1C3
  8
2D$MOD_SUP
 10
264.4588021929878
 20
2034.965195526366
 30
0.0
  0
VERTEX
  5
1C4
  8
2D$MOD_SUP
 10
264.4311546349184
 20
2034.980851080426
 30
0.0
  0
VERTEX
  5
1C5
  8
2D$MOD_SUP
 10
264.4038246797844
 20
2034.99725938405
 30
0.0
  0
VERTEX
  5
1C6
  8
2D$MOD_SUP
 10
264.3768425122276
 20
2035.014411229636
 30
0.0
  0
VERTEX
  5
1C7
  8
2D$MOD_SUP
 10
264.3502379844895
 20
2035.032295816605
 30
0.0
  0
VERTEX
  5
1C8
  8
2D$MOD_SUP
 10
264.3240405122691
 20
2035.050900764821
 30
0.0
  0
VERTEX
  5
1C9
  8
2D$MOD_SUP
 10
264.2982789710988
 20
2035.070212136141
 30
0.0
  0
VERTEX
  5
1CA
  8
2D$MOD_SUP
 10
264.2729815939726
 20
2035.090214464075
 30
0.0
  0
VERTEX
  5
1CB
  8
2D$MOD_SUP
 10
264.2481758709674
 20
2035.110890791473
 30
0.0
  0
VERTEX
  5
1CC
  8
2D$MOD_SUP
 10
264.2238884515854
 20
2035.132222716075
 30
0.0
  0
VERTEX
  5
1CD
  8
2D$MOD_SUP
 10
264.2001450505387
 20
2035.154190443703
 30
0.0
  0
VERTEX
  5
1CE
  8
2D$MOD_SUP
 10
264.1769703576618
 20
2035.17677284875
 30
0.0
  0
VERTEX
  5
1CF
  8
2D$MOD_SUP
 10
264.1543879526142
 20
2035.199947541627
 30
0.0
  0
VERTEX
  5
1D0
  8
2D$MOD_SUP
 10
264.1324202249872
 20
2035.223690942674
 30
0.0
  0
VERTEX
  5
1D1
  8
2D$MOD_SUP
 10
264.1110883003846
 20
2035.247978362056
 30
0.0
  0
VERTEX
  5
1D2
  8
2D$MOD_SUP
 10
264.0904119729872
 20
2035.272784085061
 30
0.0
  0
VERTEX
  5
1D3
  8
2D$MOD_SUP
 10
264.0704096450526
 20
2035.298081462187
 30
0.0
  0
VERTEX
  5
1D4
  8
2D$MOD_SUP
 10
264.0510982737321
 20
2035.323843003358
 30
0.0
  0
VERTEX
  5
1D5
  8
2D$MOD_SUP
 10
264.0324933255163
 20
2035.350040475578
 30
0.0
  0
VERTEX
  5
1D6
  8
2D$MOD_SUP
 10
264.014608738548
 20
2035.376645003316
 30
0.0
  0
VERTEX
  5
1D7
  8
2D$MOD_SUP
 10
263.9974568929618
 20
2035.403627170873
 30
0.0
  0
VERTEX
  5
1D8
  8
2D$MOD_SUP
 10
263.9810485893382
 20
2035.430957126006
 30
0.0
  0
VERTEX
  5
1D9
  8
2D$MOD_SUP
 10
263.9653930352779
 20
2035.458604684076
 30
0.0
  0
VERTEX
  5
1DA
  8
2D$MOD_SUP
 10
263.9504978400329
 20
2035.486539431972
 30
0.0
  0
VERTEX
  5
1DB
  8
2D$MOD_SUP
 10
263.9363690170549
 20
2035.514730831134
 30
0.0
  0
VERTEX
  5
1DC
  8
2D$MOD_SUP
 10
263.9230109942555
 20
2035.543148318976
 30
0.0
  0
VERTEX
  5
1DD
  8
2D$MOD_SUP
 10
263.9104266317086
 20
2035.571761408065
 30
0.0
  0
VERTEX
  5
1DE
  8
2D$MOD_SUP
 10
263.8986172464655
 20
2035.600539782452
 30
0.0
  0
VERTEX
  5
1DF
  8
2D$MOD_SUP
 10
263.8875826441008
 20
2035.629453390597
 30
0.0
  0
VERTEX
  5
1E0
  8
2D$MOD_SUP
 10
263.8773211565639
 20
2035.658472534375
 30
0.0
  0
VERTEX
  5
1E1
  8
2D$MOD_SUP
 10
263.8678296858659
 20
2035.687567953705
 30
0.0
  0
VERTEX
  5
1E2
  8
2D$MOD_SUP
 10
263.8591037531028
 20
2035.716710906407
 30
0.0
  0
VERTEX
  5
1E3
  8
2D$MOD_SUP
 10
263.8511375522916
 20
2035.745873242938
 30
0.0
  0
VERTEX
  5
1E4
  8
2D$MOD_SUP
 10
263.8439240084732
 20
2035.775027475741
 30
0.0
  0
VERTEX
  5
1E5
  8
2D$MOD_SUP
 10
263.8374548395286
 20
2035.804146842965
 30
0.0
  0
VERTEX
  5
1E6
  8
2D$MOD_SUP
 10
263.8317206211485
 20
2035.833205366415
 30
0.0
  0
VERTEX
  5
1E7
  8
2D$MOD_SUP
 10
263.8267108543994
 20
2035.862177903608
 30
0.0
  0
VERTEX
  5
1E8
  8
2D$MOD_SUP
 10
263.822414035333
 20
2035.891040193897
 30
0.0
  0
VERTEX
  5
1E9
  8
2D$MOD_SUP
 10
263.8188177261068
 20
2035.919768898662
 30
0.0
  0
VERTEX
  5
1EA
  8
2D$MOD_SUP
 10
263.8159086270916
 20
2035.948341635614
 30
0.0
  0
VERTEX
  5
1EB
  8
2D$MOD_SUP
 10
263.813672649474
 20
2035.976737007322
 30
0.0
  0
VERTEX
  5
1EC
  8
2D$MOD_SUP
 10
263.8120949878793
 20
2036.004934624085
 30
0.0
  0
VERTEX
  5
1ED
  8
2D$MOD_SUP
 10
263.8111601925763
 20
2036.032915121335
 30
0.0
  0
VERTEX
  5
1EE
  8
2D$MOD_SUP
 10
263.8108522408531
 20
2036.06066017178
 30
0.0
  0
VERTEX
  5
1EF
  8
2D$MOD_SUP
 10
263.8106376732193
 20
2040.000081700181
 30
0.0
  0
VERTEX
  5
1F0
  8
2D$MOD_SUP
 10
263.8097211259139
 20
2040.052429080937
 30
0.0
  0
VERTEX
  5
1F1
  8
2D$MOD_SUP
 10
263.8069783029849
 20
2040.104712589364
 30
0.0
  0
VERTEX
  5
1F2
  8
2D$MOD_SUP
 10
263.8024125459077
 20
2040.156868530476
 30
0.0
  0
VERTEX
  5
1F3
  8
2D$MOD_SUP
 10
263.7960294169683
 20
2040.2088333647
 30
0.0
  0
VERTEX
  5
1F4
  8
2D$MOD_SUP
 10
263.7878366924868
 20
2040.260543785281
 30
0.0
  0
VERTEX
  5
1F5
  8
2D$MOD_SUP
 10
263.7778443533439
 20
2040.311936795403
 30
0.0
  0
VERTEX
  5
1F6
  8
2D$MOD_SUP
 10
263.7660645728215
 20
2040.362949784944
 30
0.0
  0
VERTEX
  5
1F7
  8
2D$MOD_SUP
 10
263.7525117017723
 20
2040.413520606742
 30
0.0
  0
VERTEX
  5
1F8
  8
2D$MOD_SUP
 10
263.7372022511373
 20
2040.463587652314
 30
0.0
  0
VERTEX
  5
1F9
  8
2D$MOD_SUP
 10
263.7201548718303
 20
2040.513089926906
 30
0.0
  0
VERTEX
  5
1FA
  8
2D$MOD_SUP
 10
263.7013903320168
 20
2040.561967123804
 30
0.0
  0
VERTEX
  5
1FB
  8
2D$MOD_SUP
 10
263.6809314918131
 20
2040.610159697801
 30
0.0
  0
VERTEX
  5
1FC
  8
2D$MOD_SUP
 10
263.658803275436
 20
2040.657608937743
 30
0.0
  0
VERTEX
  5
1FD
  8
2D$MOD_SUP
 10
263.6350326408391
 20
2040.704257038046
 30
0.0
  0
VERTEX
  5
1FE
  8
2D$MOD_SUP
 10
263.609648546871
 20
2040.750047169127
 30
0.0
  0
VERTEX
  5
1FF
  8
2D$MOD_SUP
 10
263.5826819179955
 20
2040.794923546633
 30
0.0
  0
VERTEX
  5
200
  8
2D$MOD_SUP
 10
263.5541656066179
 20
2040.838831499403
 30
0.0
  0
VERTEX
  5
201
  8
2D$MOD_SUP
 10
263.5241343530619
 20
2040.881717536069
 30
0.0
  0
VERTEX
  5
202
  8
2D$MOD_SUP
 10
263.4926247432468
 20
2040.923529410223
 30
0.0
  0
VERTEX
  5
203
  8
2D$MOD_SUP
 10
263.4596751641167
 20
2040.964216184071
 30
0.0
  0
VERTEX
  5
204
  8
2D$MOD_SUP
 10
263.4253257568746
 20
2041.003728290484
 30
0.0
  0
VERTEX
  5
205
  8
2D$MOD_SUP
 10
263.3896183680801
 20
2041.042017593383
 30
0.0
  0
VERTEX
  5
206
  8
2D$MOD_SUP
 10
263.3525964986696
 20
2041.079037446386
 30
0.0
  0
VERTEX
  5
207
  8
2D$MOD_SUP
 10
263.3143052509606
 20
2041.114742749632
 30
0.0
  0
VERTEX
  5
208
  8
2D$MOD_SUP
 10
263.2747912737051
 20
2041.149090004726
 30
0.0
  0
VERTEX
  5
209
  8
2D$MOD_SUP
 10
263.2341027052597
 20
2041.182037367729
 30
0.0
  0
VERTEX
  5
20A
  8
2D$MOD_SUP
 10
263.1922891149399
 20
2041.213544700139
 30
0.0
  0
VERTEX
  5
20B
  8
2D$MOD_SUP
 10
263.1494014426321
 20
2041.243573617786
 30
0.0
  0
VERTEX
  5
20C
  8
2D$MOD_SUP
 10
263.1054919367356
 20
2041.272087537596
 30
0.0
  0
VERTEX
  5
20D
  8
2D$MOD_SUP
 10
263.06061409051
 20
2041.299051722159
 30
0.0
  0
VERTEX
  5
20E
  8
2D$MOD_SUP
 10
263.0148225769066
 20
2041.324433322048
 30
0.0
  0
VERTEX
  5
20F
  8
2D$MOD_SUP
 10
262.9681731819628
 20
2041.348201415838
 30
0.0
  0
VERTEX
  5
210
  8
2D$MOD_SUP
 10
262.9207227368392
 20
2041.370327047775
 30
0.0
  0
VERTEX
  5
211
  8
2D$MOD_SUP
 10
262.8725290485856
 20
2041.390783263053
 30
0.0
  0
VERTEX
  5
212
  8
2D$MOD_SUP
 10
262.8236508297159
 20
2041.409545140655
 30
0.0
  0
VERTEX
  5
213
  8
2D$MOD_SUP
 10
262.7741476266813
 20
2041.426589823707
 30
0.0
  0
VERTEX
  5
214
  8
2D$MOD_SUP
 10
262.7240797473274
 20
2041.441896547328
 30
0.0
  0
VERTEX
  5
215
  8
2D$MOD_SUP
 10
262.6735081874229
 20
2041.455446663927
 30
0.0
  0
VERTEX
  5
216
  8
2D$MOD_SUP
 10
262.6224945563512
 20
2041.467223665918
 30
0.0
  0
VERTEX
  5
217
  8
2D$MOD_SUP
 10
262.5711010020541
 20
2041.477213205834
 30
0.0
  0
VERTEX
  5
218
  8
2D$MOD_SUP
 10
262.5193901353192
 20
2041.485403113803
 30
0.0
  0
VERTEX
  5
219
  8
2D$MOD_SUP
 10
262.4674249535034
 20
2041.491783412376
 30
0.0
  0
VERTEX
  5
21A
  8
2D$MOD_SUP
 10
262.4152687637862
 20
2041.496346328679
 30
0.0
  0
VERTEX
  5
21B
  8
2D$MOD_SUP
 10
262.3629851060444
 20
2041.49908630389
 30
0.0
  0
VERTEX
  5
21C
  8
2D$MOD_SUP
 10
262.3106376754442
 20
2041.5
 30
0.0
  0
VERTEX
  5
21D
  8
2D$MOD_SUP
 10
155.6894440225138
 20
2041.5
 30
0.0
  0
VERTEX
  5
21E
  8
2D$MOD_SUP
 10
155.6382323572349
 20
2041.499125533549
 30
0.0
  0
VERTEX
  5
21F
  8
2D$MOD_SUP
 10
155.5870804024668
 20
2041.496503153786
 30
0.0
  0
VERTEX
  5
220
  8
2D$MOD_SUP
 10
155.5360477991008
 20
2041.492135918287
 30
0.0
  0
VERTEX
  5
221
  8
2D$MOD_SUP
 10
155.4851940488695
 20
2041.486028919054
 30
0.0
  0
VERTEX
  5
222
  8
2D$MOD_SUP
 10
155.4345784449708
 20
2041.478189276576
 30
0.0
  0
VERTEX
  5
223
  8
2D$MOD_SUP
 10
155.3842600029349
 20
2041.468626131523
 30
0.0
  0
VERTEX
  5
224
  8
2D$MOD_SUP
 10
155.3342973918142
 20
2041.457350634097
 30
0.0
  0
VERTEX
  5
225
  8
2D$MOD_SUP
 10
155.2847488657783
 20
2041.444375931022
 30
0.0
  0
VERTEX
  5
226
  8
2D$MOD_SUP
 10
155.2356721961922
 20
2041.429717150221
 30
0.0
  0
VERTEX
  5
227
  8
2D$MOD_SUP
 10
155.1871246042573
 20
2041.413391383178
 30
0.0
  0
VERTEX
  5
228
  8
2D$MOD_SUP
 10
155.1391626942942
 20
2041.395417665007
 30
0.0
  0
VERTEX
  5
229
  8
2D$MOD_SUP
 10
155.0918423877445
 20
2041.375816952258
 30
0.0
  0
VERTEX
  5
22A
  8
2D$MOD_SUP
 10
155.0452188579687
 20
2041.354612098487
 30
0.0
  0
VERTEX
  5
22B
  8
2D$MOD_SUP
 10
154.9993464659171
 20
2041.331827827604
 30
0.0
  0
VERTEX
  5
22C
  8
2D$MOD_SUP
 10
154.9542786967468
 20
2041.307490705049
 30
0.0
  0
VERTEX
  5
22D
  8
2D$MOD_SUP
 10
154.9100680974607
 20
2041.28162910682
 30
0.0
  0
VERTEX
  5
22E
  8
2D$MOD_SUP
 10
154.8667662156399
 20
2041.254273186382
 30
0.0
  0
VERTEX
  5
22F
  8
2D$MOD_SUP
 10
154.8244235393416
 20
2041.225454839516
 30
0.0
  0
VERTEX
  5
230
  8
2D$MOD_SUP
 10
154.7830894382322
 20
2041.195207667124
 30
0.0
  0
VERTEX
  5
231
  8
2D$MOD_SUP
 10
154.7428121060248
 20
2041.163566936057
 30
0.0
  0
VERTEX
  5
232
  8
2D$MOD_SUP
 10
154.7036385042869
 20
2041.130569537991
 30
0.0
  0
VERTEX
  5
233
  8
2D$MOD_SUP
 10
154.6656143076859
 20
2041.096253946417
 30
0.0
  0
VERTEX
  5
234
  8
2D$MOD_SUP
 10
154.628783850734
 20
2041.06066017178
 30
0.0
  0
VERTEX
  5
235
  8
2D$MOD_SUP
 10
154.5931900760966
 20
2041.023829714828
 30
0.0
  0
VERTEX
  5
236
  8
2D$MOD_SUP
 10
154.5588744845228
 20
2040.985805518227
 30
0.0
  0
VERTEX
  5
237
  8
2D$MOD_SUP
 10
154.5258770864572
 20
2040.946631916489
 30
0.0
  0
VERTEX
  5
238
  8
2D$MOD_SUP
 10
154.49423635539
 20
2040.906354584282
 30
0.0
  0
VERTEX
  5
239
  8
2D$MOD_SUP
 10
154.4639891829982
 20
2040.865020483172
 30
0.0
  0
VERTEX
  5
23A
  8
2D$MOD_SUP
 10
154.4351708361318
 20
2040.822677806874
 30
0.0
  0
VERTEX
  5
23B
  8
2D$MOD_SUP
 10
154.4078149156941
 20
2040.779375925053
 30
0.0
  0
VERTEX
  5
23C
  8
2D$MOD_SUP
 10
154.3819533174647
 20
2040.735165325767
 30
0.0
  0
VERTEX
  5
23D
  8
2D$MOD_SUP
 10
154.3576161949103
 20
2040.690097556597
 30
0.0
  0
VERTEX
  5
23E
  8
2D$MOD_SUP
 10
154.334831924027
 20
2040.644225164545
 30
0.0
  0
VERTEX
  5
23F
  8
2D$MOD_SUP
 10
154.3136270702556
 20
2040.597601634769
 30
0.0
  0
VERTEX
  5
240
  8
2D$MOD_SUP
 10
154.2940263575071
 20
2040.55028132822
 30
0.0
  0
VERTEX
  5
241
  8
2D$MOD_SUP
 10
154.2760526393356
 20
2040.502319418257
 30
0.0
  0
VERTEX
  5
242
  8
2D$MOD_SUP
 10
154.2597268722926
 20
2040.453771826322
 30
0.0
  0
VERTEX
  5
243
  8
2D$MOD_SUP
 10
154.2450680914921
 20
2040.404695156735
 30
0.0
  0
VERTEX
  5
244
  8
2D$MOD_SUP
 10
154.2320933884169
 20
2040.3551466307
 30
0.0
  0
VERTEX
  5
245
  8
2D$MOD_SUP
 10
154.2208178909904
 20
2040.305184019579
 30
0.0
  0
VERTEX
  5
246
  8
2D$MOD_SUP
 10
154.211254745938
 20
2040.254865577543
 30
0.0
  0
VERTEX
  5
247
  8
2D$MOD_SUP
 10
154.2034151034593
 20
2040.204249973644
 30
0.0
  0
VERTEX
  5
248
  8
2D$MOD_SUP
 10
154.1973081042267
 20
2040.153396223413
 30
0.0
  0
VERTEX
  5
249
  8
2D$MOD_SUP
 10
154.192940868728
 20
2040.102363620047
 30
0.0
  0
VERTEX
  5
24A
  8
2D$MOD_SUP
 10
154.1903184889646
 20
2040.051211665279
 30
0.0
  0
VERTEX
  5
24B
  8
2D$MOD_SUP
 10
154.1894440225138
 20
2040.0
 30
0.0
  0
VERTEX
  5
24C
  8
2D$MOD_SUP
 10
154.1894440225138
 20
2036.06066017178
 30
0.0
  0
VERTEX
  5
24D
  8
2D$MOD_SUP
 10
154.1891360707907
 20
2036.032915121335
 30
0.0
  0
VERTEX
  5
24E
  8
2D$MOD_SUP
 10
154.1882012754877
 20
2036.004934624084
 30
0.0
  0
VERTEX
  5
24F
  8
2D$MOD_SUP
 10
154.1866236138929
 20
2035.976737007322
 30
0.0
  0
VERTEX
  5
250
  8
2D$MOD_SUP
 10
154.1843876362753
 20
2035.948341635614
 30
0.0
  0
VERTEX
  5
251
  8
2D$MOD_SUP
 10
154.1814785372602
 20
2035.919768898662
 30
0.0
  0
VERTEX
  5
252
  8
2D$MOD_SUP
 10
154.177882228034
 20
2035.891040193897
 30
0.0
  0
VERTEX
  5
253
  8
2D$MOD_SUP
 10
154.1735854089677
 20
2035.862177903608
 30
0.0
  0
VERTEX
  5
254
  8
2D$MOD_SUP
 10
154.1685756422185
 20
2035.833205366415
 30
0.0
  0
VERTEX
  5
255
  8
2D$MOD_SUP
 10
154.1628414238385
 20
2035.804146842965
 30
0.0
  0
VERTEX
  5
256
  8
2D$MOD_SUP
 10
154.1563722548939
 20
2035.77502747574
 30
0.0
  0
VERTEX
  5
257
  8
2D$MOD_SUP
 10
154.1491587110754
 20
2035.745873242938
 30
0.0
  0
VERTEX
  5
258
  8
2D$MOD_SUP
 10
154.1411925102642
 20
2035.716710906407
 30
0.0
  0
VERTEX
  5
259
  8
2D$MOD_SUP
 10
154.1324665775012
 20
2035.687567953705
 30
0.0
  0
VERTEX
  5
25A
  8
2D$MOD_SUP
 10
154.1229751068031
 20
2035.658472534374
 30
0.0
  0
VERTEX
  5
25B
  8
2D$MOD_SUP
 10
154.1127136192663
 20
2035.629453390596
 30
0.0
  0
VERTEX
  5
25C
  8
2D$MOD_SUP
 10
154.1016790169016
 20
2035.600539782451
 30
0.0
  0
VERTEX
  5
25D
  8
2D$MOD_SUP
 10
154.0898696316584
 20
2035.571761408065
 30
0.0
  0
VERTEX
  5
25E
  8
2D$MOD_SUP
 10
154.0772852691115
 20
2035.543148318976
 30
0.0
  0
VERTEX
  5
25F
  8
2D$MOD_SUP
 10
154.0639272463122
 20
2035.514730831134
 30
0.0
  0
VERTEX
  5
260
  8
2D$MOD_SUP
 10
154.0497984233341
 20
2035.486539431971
 30
0.0
  0
VERTEX
  5
261
  8
2D$MOD_SUP
 10
154.0349032280892
 20
2035.458604684076
 30
0.0
  0
VERTEX
  5
262
  8
2D$MOD_SUP
 10
154.0192476740289
 20
2035.430957126006
 30
0.0
  0
VERTEX
  5
263
  8
2D$MOD_SUP
 10
154.0028393704053
 20
2035.403627170873
 30
0.0
  0
VERTEX
  5
264
  8
2D$MOD_SUP
 10
153.9856875248191
 20
2035.376645003315
 30
0.0
  0
VERTEX
  5
265
  8
2D$MOD_SUP
 10
153.9678029378508
 20
2035.350040475577
 30
0.0
  0
VERTEX
  5
266
  8
2D$MOD_SUP
 10
153.949197989635
 20
2035.323843003357
 30
0.0
  0
VERTEX
  5
267
  8
2D$MOD_SUP
 10
153.9298866183145
 20
2035.298081462187
 30
0.0
  0
VERTEX
  5
268
  8
2D$MOD_SUP
 10
153.9098842903799
 20
2035.27278408506
 30
0.0
  0
VERTEX
  5
269
  8
2D$MOD_SUP
 10
153.8892079629825
 20
2035.247978362055
 30
0.0
  0
VERTEX
  5
26A
  8
2D$MOD_SUP
 10
153.8678760383799
 20
2035.223690942673
 30
0.0
  0
VERTEX
  5
26B
  8
2D$MOD_SUP
 10
153.8459083107529
 20
2035.199947541626
 30
0.0
  0
VERTEX
  5
26C
  8
2D$MOD_SUP
 10
153.8233259057053
 20
2035.17677284875
 30
0.0
  0
VERTEX
  5
26D
  8
2D$MOD_SUP
 10
153.8001512128285
 20
2035.154190443702
 30
0.0
  0
VERTEX
  5
26E
  8
2D$MOD_SUP
 10
153.7764078117818
 20
2035.132222716075
 30
0.0
  0
VERTEX
  5
26F
  8
2D$MOD_SUP
 10
153.7521203923998
 20
2035.110890791473
 30
0.0
  0
VERTEX
  5
270
  8
2D$MOD_SUP
 10
153.7273146693945
 20
2035.090214464075
 30
0.0
  0
VERTEX
  5
271
  8
2D$MOD_SUP
 10
153.7020172922685
 20
2035.07021213614
 30
0.0
  0
VERTEX
  5
272
  8
2D$MOD_SUP
 10
153.6762557510981
 20
2035.05090076482
 30
0.0
  0
VERTEX
  5
273
  8
2D$MOD_SUP
 10
153.6500582788777
 20
2035.032295816604
 30
0.0
  0
VERTEX
  5
274
  8
2D$MOD_SUP
 10
153.6234537511396
 20
2035.014411229636
 30
0.0
  0
VERTEX
  5
275
  8
2D$MOD_SUP
 10
153.5964715835828
 20
2034.99725938405
 30
0.0
  0
VERTEX
  5
276
  8
2D$MOD_SUP
 10
153.5691416284488
 20
2034.980851080426
 30
0.0
  0
VERTEX
  5
277
  8
2D$MOD_SUP
 10
153.5414940703794
 20
2034.965195526366
 30
0.0
  0
VERTEX
  5
278
  8
2D$MOD_SUP
 10
153.5135593224839
 20
2034.950300331121
 30
0.0
  0
VERTEX
  5
279
  8
2D$MOD_SUP
 10
153.4853679233215
 20
2034.936171508143
 30
0.0
  0
VERTEX
  5
27A
  8
2D$MOD_SUP
 10
153.4569504354789
 20
2034.922813485344
 30
0.0
  0
VERTEX
  5
27B
  8
2D$MOD_SUP
 10
153.4283373463901
 20
2034.910229122797
 30
0.0
  0
VERTEX
  5
27C
  8
2D$MOD_SUP
 10
153.3995589720036
 20
2034.898419737553
 30
0.0
  0
VERTEX
  5
27D
  8
2D$MOD_SUP
 10
153.3706453638587
 20
2034.887385135189
 30
0.0
  0
VERTEX
  5
27E
  8
2D$MOD_SUP
 10
153.3416262200806
 20
2034.877123647652
 30
0.0
  0
VERTEX
  5
27F
  8
2D$MOD_SUP
 10
153.3125308007501
 20
2034.867632176953
 30
0.0
  0
VERTEX
  5
280
  8
2D$MOD_SUP
 10
153.2833878480484
 20
2034.858906244191
 30
0.0
  0
VERTEX
  5
281
  8
2D$MOD_SUP
 10
153.2542255115172
 20
2034.85094004338
 30
0.0
  0
VERTEX
  5
282
  8
2D$MOD_SUP
 10
153.2250712787147
 20
2034.843726499561
 30
0.0
  0
VERTEX
  5
283
  8
2D$MOD_SUP
 10
153.1959519114905
 20
2034.837257330616
 30
0.0
  0
VERTEX
  5
284
  8
2D$MOD_SUP
 10
153.1668933880403
 20
2034.831523112236
 30
0.0
  0
VERTEX
  5
285
  8
2D$MOD_SUP
 10
153.1379208508471
 20
2034.826513345487
 30
0.0
  0
VERTEX
  5
286
  8
2D$MOD_SUP
 10
153.1090585605578
 20
2034.822216526421
 30
0.0
  0
VERTEX
  5
287
  8
2D$MOD_SUP
 10
153.0803298557933
 20
2034.818620217195
 30
0.0
  0
VERTEX
  5
288
  8
2D$MOD_SUP
 10
153.0517571188413
 20
2034.815711118179
 30
0.0
  0
VERTEX
  5
289
  8
2D$MOD_SUP
 10
153.0233617471335
 20
2034.813475140562
 30
0.0
  0
VERTEX
  5
28A
  8
2D$MOD_SUP
 10
152.9951641303707
 20
2034.811897478967
 30
0.0
  0
VERTEX
  5
28B
  8
2D$MOD_SUP
 10
152.9671836331199
 20
2034.810962683664
 30
0.0
  0
VERTEX
  5
28C
  8
2D$MOD_SUP
 10
152.9394385826755
 20
2034.810654731941
 30
0.0
  0
VERTEX
  5
28D
  8
2D$MOD_SUP
 10
146.4999506227739
 20
2034.81065473194
 30
0.0
  0
VERTEX
  5
28E
  8
2D$MOD_SUP
 10
146.448738957495
 20
2034.80978026549
 30
0.0
  0
VERTEX
  5
28F
  8
2D$MOD_SUP
 10
146.3975870027269
 20
2034.807157885726
 30
0.0
  0
VERTEX
  5
290
  8
2D$MOD_SUP
 10
146.3465543993609
 20
2034.802790650228
 30
0.0
  0
VERTEX
  5
291
  8
2D$MOD_SUP
 10
146.2957006491296
 20
2034.796683650995
 30
0.0
  0
VERTEX
  5
292
  8
2D$MOD_SUP
 10
146.245085045231
 20
2034.788844008516
 30
0.0
  0
VERTEX
  5
293
  8
2D$MOD_SUP
 10
146.194766603195
 20
2034.779280863464
 30
0.0
  0
VERTEX
  5
294
  8
2D$MOD_SUP
 10
146.1448039920743
 20
2034.768005366037
 30
0.0
  0
VERTEX
  5
295
  8
2D$MOD_SUP
 10
146.0952554660384
 20
2034.755030662962
 30
0.0
  0
VERTEX
  5
296
  8
2D$MOD_SUP
 10
146.0461787964524
 20
2034.740371882162
 30
0.0
  0
VERTEX
  5
297
  8
2D$MOD_SUP
 10
145.9976312045175
 20
2034.724046115118
 30
0.0
  0
VERTEX
  5
298
  8
2D$MOD_SUP
 10
145.9496692945544
 20
2034.706072396947
 30
0.0
  0
VERTEX
  5
299
  8
2D$MOD_SUP
 10
145.9023489880046
 20
2034.686471684199
 30
0.0
  0
VERTEX
  5
29A
  8
2D$MOD_SUP
 10
145.8557254582289
 20
2034.665266830427
 30
0.0
  0
VERTEX
  5
29B
  8
2D$MOD_SUP
 10
145.8098530661773
 20
2034.642482559544
 30
0.0
  0
VERTEX
  5
29C
  8
2D$MOD_SUP
 10
145.764785297007
 20
2034.618145436989
 30
0.0
  0
VERTEX
  5
29D
  8
2D$MOD_SUP
 10
145.7205746977208
 20
2034.59228383876
 30
0.0
  0
VERTEX
  5
29E
  8
2D$MOD_SUP
 10
145.6772728159
 20
2034.564927918322
 30
0.0
  0
VERTEX
  5
29F
  8
2D$MOD_SUP
 10
145.6349301396017
 20
2034.536109571456
 30
0.0
  0
VERTEX
  5
2A0
  8
2D$MOD_SUP
 10
145.5935960384924
 20
2034.505862399064
 30
0.0
  0
VERTEX
  5
2A1
  8
2D$MOD_SUP
 10
145.553318706285
 20
2034.474221667997
 30
0.0
  0
VERTEX
  5
2A2
  8
2D$MOD_SUP
 10
145.5141451045471
 20
2034.441224269931
 30
0.0
  0
VERTEX
  5
2A3
  8
2D$MOD_SUP
 10
145.4761209079461
 20
2034.406908678357
 30
0.0
  0
VERTEX
  5
2A4
  8
2D$MOD_SUP
 10
145.4392904509942
 20
2034.37131490372
 30
0.0
  0
VERTEX
  5
2A5
  8
2D$MOD_SUP
 10
145.4036966763569
 20
2034.334484446768
 30
0.0
  0
VERTEX
  5
2A6
  8
2D$MOD_SUP
 10
145.369381084783
 20
2034.296460250167
 30
0.0
  0
VERTEX
  5
2A7
  8
2D$MOD_SUP
 10
145.3363836867174
 20
2034.257286648429
 30
0.0
  0
VERTEX
  5
2A8
  8
2D$MOD_SUP
 10
145.3047429556502
 20
2034.217009316222
 30
0.0
  0
VERTEX
  5
2A9
  8
2D$MOD_SUP
 10
145.2744957832584
 20
2034.175675215113
 30
0.0
  0
VERTEX
  5
2AA
  8
2D$MOD_SUP
 10
145.245677436392
 20
2034.133332538814
 30
0.0
  0
VERTEX
  5
2AB
  8
2D$MOD_SUP
 10
145.2183215159544
 20
2034.090030656993
 30
0.0
  0
VERTEX
  5
2AC
  8
2D$MOD_SUP
 10
145.192459917725
 20
2034.045820057707
 30
0.0
  0
VERTEX
  5
2AD
  8
2D$MOD_SUP
 10
145.1681227951705
 20
2034.000752288537
 30
0.0
  0
VERTEX
  5
2AE
  8
2D$MOD_SUP
 10
145.1453385242873
 20
2033.954879896485
 30
0.0
  0
VERTEX
  5
2AF
  8
2D$MOD_SUP
 10
145.1241336705159
 20
2033.90825636671
 30
0.0
  0
VERTEX
  5
2B0
  8
2D$MOD_SUP
 10
145.1045329577674
 20
2033.86093606016
 30
0.0
  0
VERTEX
  5
2B1
  8
2D$MOD_SUP
 10
145.0865592395959
 20
2033.812974150197
 30
0.0
  0
VERTEX
  5
2B2
  8
2D$MOD_SUP
 10
145.0702334725529
 20
2033.764426558262
 30
0.0
  0
VERTEX
  5
2B3
  8
2D$MOD_SUP
 10
145.0555746917524
 20
2033.715349888676
 30
0.0
  0
VERTEX
  5
2B4
  8
2D$MOD_SUP
 10
145.0425999886772
 20
2033.66580136264
 30
0.0
  0
VERTEX
  5
2B5
  8
2D$MOD_SUP
 10
145.0313244912506
 20
2033.615838751519
 30
0.0
  0
VERTEX
  5
2B6
  8
2D$MOD_SUP
 10
145.0217613461983
 20
2033.565520309483
 30
0.0
  0
VERTEX
  5
2B7
  8
2D$MOD_SUP
 10
145.0139217037196
 20
2033.514904705585
 30
0.0
  0
VERTEX
  5
2B8
  8
2D$MOD_SUP
 10
145.007814704487
 20
2033.464050955353
 30
0.0
  0
VERTEX
  5
2B9
  8
2D$MOD_SUP
 10
145.0034474689883
 20
2033.413018351987
 30
0.0
  0
VERTEX
  5
2BA
  8
2D$MOD_SUP
 10
145.0008250892249
 20
2033.361866397219
 30
0.0
  0
VERTEX
  5
2BB
  8
2D$MOD_SUP
 10
144.9999506227741
 20
2033.31065473194
 30
0.0
  0
VERTEX
  5
2BC
  8
2D$MOD_SUP
 10
144.9999506227741
 20
1926.386678601391
 30
0.0
  0
VERTEX
  5
2BD
  8
2D$MOD_SUP
 10
145.0008250892249
 20
1926.335466936112
 30
0.0
  0
VERTEX
  5
2BE
  8
2D$MOD_SUP
 10
145.0034474689884
 20
1926.284314981344
 30
0.0
  0
VERTEX
  5
2BF
  8
2D$MOD_SUP
 10
145.0078147044871
 20
1926.233282377978
 30
0.0
  0
VERTEX
  5
2C0
  8
2D$MOD_SUP
 10
145.0139217037197
 20
1926.182428627747
 30
0.0
  0
VERTEX
  5
2C1
  8
2D$MOD_SUP
 10
145.0217613461984
 20
1926.131813023848
 30
0.0
  0
VERTEX
  5
2C2
  8
2D$MOD_SUP
 10
145.0313244912507
 20
1926.081494581812
 30
0.0
  0
VERTEX
  5
2C3
  8
2D$MOD_SUP
 10
145.0425999886773
 20
1926.031531970692
 30
0.0
  0
VERTEX
  5
2C4
  8
2D$MOD_SUP
 10
145.0555746917525
 20
1925.981983444656
 30
0.0
  0
VERTEX
  5
2C5
  8
2D$MOD_SUP
 10
145.070233472553
 20
1925.93290677507
 30
0.0
  0
VERTEX
  5
2C6
  8
2D$MOD_SUP
 10
145.086559239596
 20
1925.884359183135
 30
0.0
  0
VERTEX
  5
2C7
  8
2D$MOD_SUP
 10
145.1045329577674
 20
1925.836397273172
 30
0.0
  0
VERTEX
  5
2C8
  8
2D$MOD_SUP
 10
145.124133670516
 20
1925.789076966622
 30
0.0
  0
VERTEX
  5
2C9
  8
2D$MOD_SUP
 10
145.1453385242874
 20
1925.742453436846
 30
0.0
  0
VERTEX
  5
2CA
  8
2D$MOD_SUP
 10
145.1681227951706
 20
1925.696581044795
 30
0.0
  0
VERTEX
  5
2CB
  8
2D$MOD_SUP
 10
145.1924599177251
 20
1925.651513275624
 30
0.0
  0
VERTEX
  5
2CC
  8
2D$MOD_SUP
 10
145.2183215159545
 20
1925.607302676338
 30
0.0
  0
VERTEX
  5
2CD
  8
2D$MOD_SUP
 10
145.2456774363922
 20
1925.564000794517
 30
0.0
  0
VERTEX
  5
2CE
  8
2D$MOD_SUP
 10
145.2744957832585
 20
1925.521658118219
 30
0.0
  0
VERTEX
  5
2CF
  8
2D$MOD_SUP
 10
145.3047429556503
 20
1925.48032401711
 30
0.0
  0
VERTEX
  5
2D0
  8
2D$MOD_SUP
 10
145.3363836867176
 20
1925.440046684902
 30
0.0
  0
VERTEX
  5
2D1
  8
2D$MOD_SUP
 10
145.3693810847832
 20
1925.400873083164
 30
0.0
  0
VERTEX
  5
2D2
  8
2D$MOD_SUP
 10
145.403696676357
 20
1925.362848886563
 30
0.0
  0
VERTEX
  5
2D3
  8
2D$MOD_SUP
 10
145.4392904509944
 20
1925.326018429612
 30
0.0
  0
VERTEX
  5
2D4
  8
2D$MOD_SUP
 10
145.4761209079462
 20
1925.290424654974
 30
0.0
  0
VERTEX
  5
2D5
  8
2D$MOD_SUP
 10
145.5141451045472
 20
1925.2561090634
 30
0.0
  0
VERTEX
  5
2D6
  8
2D$MOD_SUP
 10
145.5533187062851
 20
1925.223111665335
 30
0.0
  0
VERTEX
  5
2D7
  8
2D$MOD_SUP
 10
145.5935960384925
 20
1925.191470934267
 30
0.0
  0
VERTEX
  5
2D8
  8
2D$MOD_SUP
 10
145.6349301396019
 20
1925.161223761876
 30
0.0
  0
VERTEX
  5
2D9
  8
2D$MOD_SUP
 10
145.6772728159002
 20
1925.132405415009
 30
0.0
  0
VERTEX
  5
2DA
  8
2D$MOD_SUP
 10
145.720574697721
 20
1925.105049494572
 30
0.0
  0
VERTEX
  5
2DB
  8
2D$MOD_SUP
 10
145.7647852970071
 20
1925.079187896342
 30
0.0
  0
VERTEX
  5
2DC
  8
2D$MOD_SUP
 10
145.8098530661775
 20
1925.054850773788
 30
0.0
  0
VERTEX
  5
2DD
  8
2D$MOD_SUP
 10
145.855725458229
 20
1925.032066502905
 30
0.0
  0
VERTEX
  5
2DE
  8
2D$MOD_SUP
 10
145.9023489880048
 20
1925.010861649133
 30
0.0
  0
VERTEX
  5
2DF
  8
2D$MOD_SUP
 10
145.9496692945546
 20
1924.991260936385
 30
0.0
  0
VERTEX
  5
2E0
  8
2D$MOD_SUP
 10
145.9976312045177
 20
1924.973287218213
 30
0.0
  0
VERTEX
  5
2E1
  8
2D$MOD_SUP
 10
146.0461787964526
 20
1924.95696145117
 30
0.0
  0
VERTEX
  5
2E2
  8
2D$MOD_SUP
 10
146.0952554660386
 20
1924.94230267037
 30
0.0
  0
VERTEX
  5
2E3
  8
2D$MOD_SUP
 10
146.1448039920745
 20
1924.929327967295
 30
0.0
  0
VERTEX
  5
2E4
  8
2D$MOD_SUP
 10
146.1947666031952
 20
1924.918052469868
 30
0.0
  0
VERTEX
  5
2E5
  8
2D$MOD_SUP
 10
146.2450850452311
 20
1924.908489324815
 30
0.0
  0
VERTEX
  5
2E6
  8
2D$MOD_SUP
 10
146.2957006491298
 20
1924.900649682337
 30
0.0
  0
VERTEX
  5
2E7
  8
2D$MOD_SUP
 10
146.3465543993611
 20
1924.894542683104
 30
0.0
  0
VERTEX
  5
2E8
  8
2D$MOD_SUP
 10
146.3975870027271
 20
1924.890175447606
 30
0.0
  0
VERTEX
  5
2E9
  8
2D$MOD_SUP
 10
146.4487389574952
 20
1924.887553067842
 30
0.0
  0
VERTEX
  5
2EA
  8
2D$MOD_SUP
 10
146.4999506227741
 20
1924.886678601391
 30
0.0
  0
SEQEND
  5
2EB
  8
2D$MOD_SUP
  0
LINE
  5
2ED
  8
DEFAULT
 10
124.0
 20
1659.0
 30
0.0
 11
724.0
 21
1659.0
 31
0.0
  0
LINE
  5
2EE
  8
DEFAULT
 10
724.0
 20
1659.0
 30
0.0
 11
724.0
 21
2059.0
 31
0.0
  0
LINE
  5
2EF
  8
DEFAULT
 10
724.0
 20
2059.0
 30
0.0
 11
124.0
 21
2059.0
 31
0.0
  0
LINE
  5
2F0
  8
DEFAULT
 10
124.0
 20
2059.0
 30
0.0
 11
124.0
 21
1659.0
 31
0.0
  0
ENDSEC
  0
EOF
