  0
SECTION
  2
HEADER
  9
$ACADVER
  1
AC1009
  9
$DWGCODEPAGE
  3
mac-roman
  9
$INSBASE
 10
0.0
 20
0.0
 30
0.0
  9
$EXTMIN
 10
2824.0
 20
1197.0
 30
0.0
  9
$EXTMAX
 10
3424.0
 20
1597.0
 30
0.0
  9
$LIMMIN
 10
0.0
 20
0.0
  9
$LIMMAX
 10
12.0
 20
9.0
  9
$ORTHOMODE
 70
     0
  9
$REGENMODE
 70
     1
  9
$FILLMODE
 70
     1
  9
$QTEXTMODE
 70
     0
  9
$MIRRTEXT
 70
     1
  9
$DRAGMODE
 70
     2
  9
$LTSCALE
 40
1.0
  9
$OSMODE
 70
    37
  9
$ATTMODE
 70
     1
  9
$TEXTSIZE
 40
0.2
  9
$TRACEWID
 40
0.05
  9
$TEXTSTYLE
  7
STANDARD
  9
$CLAYER
  8
DEFAULT
  9
$CELTYPE
  6
BYLAYER
  9
$CECOLOR
 62
   256
  9
$DIMSCALE
 40
1.0
  9
$DIMASZ
 40
0.18
  9
$DIMEXO
 40
0.0625
  9
$DIMDLI
 40
0.38
  9
$DIMRND
 40
0.0
  9
$DIMDLE
 40
0.0
  9
$DIMEXE
 40
0.18
  9
$DIMTP
 40
0.0
  9
$DIMTM
 40
0.0
  9
$DIMTXT
 40
0.18
  9
$DIMCEN
 40
0.09
  9
$DIMTSZ
 40
0.0
  9
$DIMTOL
 70
     0
  9
$DIMLIM
 70
     0
  9
$DIMTIH
 70
     1
  9
$DIMTOH
 70
     1
  9
$DIMSE1
 70
     0
  9
$DIMSE2
 70
     0
  9
$DIMTAD
 70
     0
  9
$DIMZIN
 70
     0
  9
$DIMBLK
  1

  9
$DIMASO
 70
     1
  9
$DIMSHO
 70
     1
  9
$DIMPOST
  1

  9
$DIMAPOST
  1

  9
$DIMALT
 70
     0
  9
$DIMALTD
 70
     2
  9
$DIMALTF
 40
25.4
  9
$DIMLFAC
 40
1.0
  9
$DIMTOFL
 70
     0
  9
$DIMTVP
 40
0.0
  9
$DIMTIX
 70
     0
  9
$DIMSOXD
 70
     0
  9
$DIMSAH
 70
     0
  9
$DIMBLK1
  1

  9
$DIMBLK2
  1

  9
$DIMSTYLE
  2
STANDARD
  9
$DIMCLRD
 70
     0
  9
$DIMCLRE
 70
     0
  9
$DIMCLRT
 70
     0
  9
$DIMTFAC
 40
1.0
  9
$DIMGAP
 40
0.09
  9
$LUNITS
 70
     2
  9
$LUPREC
 70
     2
  9
$SKETCHINC
 40
0.1
  9
$FILLETRAD
 40
0.5
  9
$AUNITS
 70
     0
  9
$AUPREC
 70
     0
  9
$MENU
  1
.
  9
$ELEVATION
 40
0.0
  9
$PELEVATION
 40
0.0
  9
$THICKNESS
 40
0.0
  9
$LIMCHECK
 70
     0
  9
$CHAMFERA
 40
0.0
  9
$CHAMFERB
 40
0.0
  9
$SKPOLY
 70
     0
  9
$TDCREATE
 40
2457878.545914352
  9
$TDUPDATE
 40
2457878.545925926
  9
$TDINDWG
 40
0.0000000116
  9
$TDUSRTIMER
 40
0.0000000116
  9
$USRTIMER
 70
     1
  9
$ANGBASE
 50
0.0
  9
$ANGDIR
 70
     0
  9
$PDMODE
 70
     0
  9
$PDSIZE
 40
0.0
  9
$PLINEWID
 40
0.0
  9
$COORDS
 70
     1
  9
$SPLFRAME
 70
     0
  9
$SPLINETYPE
 70
     6
  9
$SPLINESEGS
 70
     8
  9
$ATTDIA
 70
     0
  9
$ATTREQ
 70
     1
  9
$HANDLING
 70
     1
  9
$HANDSEED
  5
188
  9
$SURFTAB1
 70
     6
  9
$SURFTAB2
 70
     6
  9
$SURFTYPE
 70
     6
  9
$SURFU
 70
     6
  9
$SURFV
 70
     6
  9
$UCSNAME
  2

  9
$UCSORG
 10
0.0
 20
0.0
 30
0.0
  9
$UCSXDIR
 10
1.0
 20
0.0
 30
0.0
  9
$UCSYDIR
 10
0.0
 20
1.0
 30
0.0
  9
$PUCSNAME
  2

  9
$PUCSORG
 10
0.0
 20
0.0
 30
0.0
  9
$PUCSXDIR
 10
1.0
 20
0.0
 30
0.0
  9
$PUCSYDIR
 10
0.0
 20
1.0
 30
0.0
  9
$USERI1
 70
     0
  9
$USERI2
 70
     0
  9
$USERI3
 70
     0
  9
$USERI4
 70
     0
  9
$USERI5
 70
     0
  9
$USERR1
 40
0.0
  9
$USERR2
 40
0.0
  9
$USERR3
 40
0.0
  9
$USERR4
 40
0.0
  9
$USERR5
 40
0.0
  9
$WORLDVIEW
 70
     1
  9
$SHADEDGE
 70
     3
  9
$SHADEDIF
 70
    70
  9
$TILEMODE
 70
     1
  9
$MAXACTVP
 70
    64
  9
$PLIMCHECK
 70
     0
  9
$PEXTMIN
 10
1.000000000000000E+20
 20
1.000000000000000E+20
 30
1.000000000000000E+20
  9
$PEXTMAX
 10
-1.000000000000000E+20
 20
-1.000000000000000E+20
 30
-1.000000000000000E+20
  9
$PLIMMIN
 10
0.0
 20
0.0
  9
$PLIMMAX
 10
12.0
 20
9.0
  9
$UNITMODE
 70
     0
  9
$VISRETAIN
 70
     1
  9
$PLINEGEN
 70
     0
  9
$PSLTSCALE
 70
     1
  0
ENDSEC
  0
SECTION
  2
TABLES
  0
TABLE
  2
VPORT
 70
     1
  0
VPORT
  2
*ACTIVE
 70
     0
 10
0.0
 20
0.0
 11
1.0
 21
1.0
 12
3124.0
 22
1397.0
 13
0.0
 23
0.0
 14
0.5
 24
0.5
 15
0.5
 25
0.5
 16
0.0
 26
0.0
 36
1.0
 17
0.0
 27
0.0
 37
0.0
 40
408.0
 41
1.5
 42
50.0
 43
0.0
 44
0.0
 50
0.0
 51
0.0
 71
     0
 72
   100
 73
     1
 74
     3
 75
     0
 76
     0
 77
     0
 78
     0
  0
ENDTAB
  0
TABLE
  2
LTYPE
 70
     1
  0
LTYPE
  2
CONTINUOUS
 70
     0
  3
Solid line
 72
    65
 73
     0
 40
0.0
  0
ENDTAB
  0
TABLE
  2
LAYER
 70
     3
  0
LAYER
  2
0
 70
     0
 62
     7
  6
CONTINUOUS
  0
LAYER
  2
2D$FILTROS
 70
     0
 62
     7
  6
CONTINUOUS
  0
LAYER
  2
DEFAULT
 70
     0
 62
     7
  6
CONTINUOUS
  0
ENDTAB
  0
TABLE
  2
STYLE
 70
     1
  0
STYLE
  2
STANDARD
 70
     0
 40
0.0
 41
1.0
 50
0.0
 71
     0
 42
0.2
  3
txt
  4

  0
ENDTAB
  0
TABLE
  2
VIEW
 70
     0
  0
ENDTAB
  0
TABLE
  2
UCS
 70
     0
  0
ENDTAB
  0
TABLE
  2
APPID
 70
     1
  0
APPID
  2
ACAD
 70
     0
  0
ENDTAB
  0
TABLE
  2
DIMSTYLE
 70
     1
  0
DIMSTYLE
  2
STANDARD
 70
     0
  3

  4

  5

  6

  7

 40
1.0
 41
0.18
 42
0.0625
 43
0.38
 44
0.18
 45
0.0
 46
0.0
 47
0.0
 48
0.0
140
0.18
141
0.09
142
0.0
143
25.4
144
1.0
145
0.0
146
1.0
147
0.09
 71
     0
 72
     0
 73
     1
 74
     1
 75
     0
 76
     0
 77
     0
 78
     0
170
     0
171
     2
172
     0
173
     0
174
     0
175
     0
176
     0
177
     0
178
     0
  0
ENDTAB
  0
ENDSEC
  0
SECTION
  2
BLOCKS
  0
BLOCK
  8
0
  2
$MODEL_SPACE
 70
     0
 10
0.0
 20
0.0
 30
0.0
  3
$MODEL_SPACE
  1

  0
ENDBLK
  5
21
  8
0
  0
BLOCK
 67
     1
  8
0
  2
$PAPER_SPACE
 70
     0
 10
0.0
 20
0.0
 30
0.0
  3
$PAPER_SPACE
  1

  0
ENDBLK
  5
1D
 67
     1
  8
0
  0
ENDSEC
  0
SECTION
  2
ENTITIES
  0
POLYLINE
  5
6F
  8
2D$FILTROS
 66
     1
 10
0.0
 20
0.0
 30
0.0
 70
     1
  0
VERTEX
  5
70
  8
2D$FILTROS
 10
2897.0
 20
1576.0
 30
0.0
  0
VERTEX
  5
71
  8
2D$FILTROS
 10
2911.999999999983
 20
1564.0
 30
0.0
  0
VERTEX
  5
72
  8
2D$FILTROS
 10
3002.0
 20
1564.0
 30
0.0
  0
VERTEX
  5
73
  8
2D$FILTROS
 10
3002.0
 20
1551.0
 30
0.0
  0
VERTEX
  5
74
  8
2D$FILTROS
 10
2999.0
 20
1551.0
 30
0.0
  0
VERTEX
  5
75
  8
2D$FILTROS
 10
2998.955608112477
 20
1550.999507279387
 30
0.0
  0
VERTEX
  5
76
  8
2D$FILTROS
 10
2998.910839511704
 20
1550.998011613412
 30
0.0
  0
VERTEX
  5
77
  8
2D$FILTROS
 10
2998.865723521222
 20
1550.995487365845
 30
0.0
  0
VERTEX
  5
78
  8
2D$FILTROS
 10
2998.820291124205
 20
1550.991909817226
 30
0.0
  0
VERTEX
  5
79
  8
2D$FILTROS
 10
2998.774574944032
 20
1550.987255279057
 30
0.0
  0
VERTEX
  5
7A
  8
2D$FILTROS
 10
2998.728609216446
 20
1550.981501209336
 30
0.0
  0
VERTEX
  5
7B
  8
2D$FILTROS
 10
2998.68242975295
 20
1550.974626328749
 30
0.0
  0
VERTEX
  5
7C
  8
2D$FILTROS
 10
2998.636073895176
 20
1550.966610736833
 30
0.0
  0
VERTEX
  5
7D
  8
2D$FILTROS
 10
2998.589580459989
 20
1550.957436027353
 30
0.0
  0
VERTEX
  5
7E
  8
2D$FILTROS
 10
2998.542989675188
 20
1550.947085402086
 30
0.0
  0
VERTEX
  5
7F
  8
2D$FILTROS
 10
2998.496343105704
 20
1550.935543782204
 30
0.0
  0
VERTEX
  5
80
  8
2D$FILTROS
 10
2998.449683570309
 20
1550.922797916374
 30
0.0
  0
VERTEX
  5
81
  8
2D$FILTROS
 10
2998.403055048908
 20
1550.908836484711
 30
0.0
  0
VERTEX
  5
82
  8
2D$FILTROS
 10
2998.35650258057
 20
1550.893650197683
 30
0.0
  0
VERTEX
  5
83
  8
2D$FILTROS
 10
2998.310072152584
 20
1550.877231889075
 30
0.0
  0
VERTEX
  5
84
  8
2D$FILTROS
 10
2998.263810580876
 20
1550.859576602125
 30
0.0
  0
VERTEX
  5
85
  8
2D$FILTROS
 10
2998.217765382241
 20
1550.840681667964
 30
0.0
  0
VERTEX
  5
86
  8
2D$FILTROS
 10
2998.171984638931
 20
1550.820546775514
 30
0.0
  0
VERTEX
  5
87
  8
2D$FILTROS
 10
2998.126516856252
 20
1550.799174032046
 30
0.0
  0
VERTEX
  5
88
  8
2D$FILTROS
 10
2998.081410813888
 20
1550.776568013659
 30
0.0
  0
VERTEX
  5
89
  8
2D$FILTROS
 10
2998.036715411764
 20
1550.752735804982
 30
0.0
  0
VERTEX
  5
8A
  8
2D$FILTROS
 10
2997.992479511362
 20
1550.727687027495
 30
0.0
  0
VERTEX
  5
8B
  8
2D$FILTROS
 10
2997.948751773445
 20
1550.701433855947
 30
0.0
  0
VERTEX
  5
8C
  8
2D$FILTROS
 10
2997.90558049323
 20
1550.673991022437
 30
0.0
  0
VERTEX
  5
8D
  8
2D$FILTROS
 10
2997.863013434095
 20
1550.645375807817
 30
0.0
  0
VERTEX
  5
8E
  8
2D$FILTROS
 10
2997.821097660955
 20
1550.615608020218
 30
0.0
  0
VERTEX
  5
8F
  8
2D$FILTROS
 10
2997.779879374458
 20
1550.584709960569
 30
0.0
  0
VERTEX
  5
90
  8
2D$FILTROS
 10
2997.739403747202
 20
1550.55270637515
 30
0.0
  0
VERTEX
  5
91
  8
2D$FILTROS
 10
2997.699714763115
 20
1550.519624395282
 30
0.0
  0
VERTEX
  5
92
  8
2D$FILTROS
 10
2997.660855061216
 20
1550.485493464452
 30
0.0
  0
VERTEX
  5
93
  8
2D$FILTROS
 10
2997.622865784865
 20
1550.450345253209
 30
0.0
  0
VERTEX
  5
94
  8
2D$FILTROS
 10
2997.585786437627
 20
1550.414213562373
 30
0.0
  0
VERTEX
  5
95
  8
2D$FILTROS
 10
2997.549654746791
 20
1550.377134215134
 30
0.0
  0
VERTEX
  5
96
  8
2D$FILTROS
 10
2997.514506535549
 20
1550.339144938785
 30
0.0
  0
VERTEX
  5
97
  8
2D$FILTROS
 10
2997.480375604718
 20
1550.300285236886
 30
0.0
  0
VERTEX
  5
98
  8
2D$FILTROS
 10
2997.44729362485
 20
1550.260596252799
 30
0.0
  0
VERTEX
  5
99
  8
2D$FILTROS
 10
2997.41529003943
 20
1550.220120625541
 30
0.0
  0
VERTEX
  5
9A
  8
2D$FILTROS
 10
2997.384391979782
 20
1550.178902339045
 30
0.0
  0
VERTEX
  5
9B
  8
2D$FILTROS
 10
2997.354624192182
 20
1550.136986565905
 30
0.0
  0
VERTEX
  5
9C
  8
2D$FILTROS
 10
2997.326008977563
 20
1550.09441950677
 30
0.0
  0
VERTEX
  5
9D
  8
2D$FILTROS
 10
2997.298566144053
 20
1550.051248226555
 30
0.0
  0
VERTEX
  5
9E
  8
2D$FILTROS
 10
2997.272312972505
 20
1550.007520488638
 30
0.0
  0
VERTEX
  5
9F
  8
2D$FILTROS
 10
2997.247264195018
 20
1549.963284588236
 30
0.0
  0
VERTEX
  5
A0
  8
2D$FILTROS
 10
2997.223431986341
 20
1549.918589186112
 30
0.0
  0
VERTEX
  5
A1
  8
2D$FILTROS
 10
2997.200825967954
 20
1549.873483143748
 30
0.0
  0
VERTEX
  5
A2
  8
2D$FILTROS
 10
2997.179453224487
 20
1549.82801536107
 30
0.0
  0
VERTEX
  5
A3
  8
2D$FILTROS
 10
2997.159318332036
 20
1549.78223461776
 30
0.0
  0
VERTEX
  5
A4
  8
2D$FILTROS
 10
2997.140423397876
 20
1549.736189419124
 30
0.0
  0
VERTEX
  5
A5
  8
2D$FILTROS
 10
2997.122768110925
 20
1549.689927847416
 30
0.0
  0
VERTEX
  5
A6
  8
2D$FILTROS
 10
2997.106349802317
 20
1549.643497419431
 30
0.0
  0
VERTEX
  5
A7
  8
2D$FILTROS
 10
2997.091163515288
 20
1549.596944951092
 30
0.0
  0
VERTEX
  5
A8
  8
2D$FILTROS
 10
2997.077202083626
 20
1549.550316429691
 30
0.0
  0
VERTEX
  5
A9
  8
2D$FILTROS
 10
2997.064456217797
 20
1549.503656894297
 30
0.0
  0
VERTEX
  5
AA
  8
2D$FILTROS
 10
2997.052914597915
 20
1549.457010324813
 30
0.0
  0
VERTEX
  5
AB
  8
2D$FILTROS
 10
2997.042563972648
 20
1549.410419540011
 30
0.0
  0
VERTEX
  5
AC
  8
2D$FILTROS
 10
2997.033389263167
 20
1549.363926104824
 30
0.0
  0
VERTEX
  5
AD
  8
2D$FILTROS
 10
2997.025373671251
 20
1549.317570247049
 30
0.0
  0
VERTEX
  5
AE
  8
2D$FILTROS
 10
2997.018498790664
 20
1549.271390783554
 30
0.0
  0
VERTEX
  5
AF
  8
2D$FILTROS
 10
2997.012744720942
 20
1549.225425055967
 30
0.0
  0
VERTEX
  5
B0
  8
2D$FILTROS
 10
2997.008090182775
 20
1549.179708875796
 30
0.0
  0
VERTEX
  5
B1
  8
2D$FILTROS
 10
2997.004512634156
 20
1549.134276478779
 30
0.0
  0
VERTEX
  5
B2
  8
2D$FILTROS
 10
2997.001988386589
 20
1549.089160488297
 30
0.0
  0
VERTEX
  5
B3
  8
2D$FILTROS
 10
2997.000492720613
 20
1549.044391887523
 30
0.0
  0
VERTEX
  5
B4
  8
2D$FILTROS
 10
2997.0
 20
1549.0
 30
0.0
  0
VERTEX
  5
B5
  8
2D$FILTROS
 10
2997.0
 20
1416.0
 30
0.0
  0
VERTEX
  5
B6
  8
2D$FILTROS
 10
2996.998768198468
 20
1415.889020281192
 30
0.0
  0
VERTEX
  5
B7
  8
2D$FILTROS
 10
2996.995029033529
 20
1415.777098779257
 30
0.0
  0
VERTEX
  5
B8
  8
2D$FILTROS
 10
2996.988718414612
 20
1415.664308803053
 30
0.0
  0
VERTEX
  5
B9
  8
2D$FILTROS
 10
2996.979774543064
 20
1415.550727810512
 30
0.0
  0
VERTEX
  5
BA
  8
2D$FILTROS
 10
2996.968138197644
 20
1415.436437360081
 30
0.0
  0
VERTEX
  5
BB
  8
2D$FILTROS
 10
2996.953753023341
 20
1415.321523041115
 30
0.0
  0
VERTEX
  5
BC
  8
2D$FILTROS
 10
2996.936565821873
 20
1415.206074382376
 30
0.0
  0
VERTEX
  5
BD
  8
2D$FILTROS
 10
2996.916526842082
 20
1415.09018473794
 30
0.0
  0
VERTEX
  5
BE
  8
2D$FILTROS
 10
2996.893590068381
 20
1414.973951149973
 30
0.0
  0
VERTEX
  5
BF
  8
2D$FILTROS
 10
2996.867713505213
 20
1414.857474187968
 30
0.0
  0
VERTEX
  5
C0
  8
2D$FILTROS
 10
2996.838859455509
 20
1414.740857764258
 30
0.0
  0
VERTEX
  5
C1
  8
2D$FILTROS
 10
2996.806994790935
 20
1414.624208925774
 30
0.0
  0
VERTEX
  5
C2
  8
2D$FILTROS
 10
2996.772091211779
 20
1414.507637622271
 30
0.0
  0
VERTEX
  5
C3
  8
2D$FILTROS
 10
2996.734125494208
 20
1414.391256451424
 30
0.0
  0
VERTEX
  5
C4
  8
2D$FILTROS
 10
2996.693079722687
 20
1414.27518038146
 30
0.0
  0
VERTEX
  5
C5
  8
2D$FILTROS
 10
2996.648941505312
 20
1414.159526452191
 30
0.0
  0
VERTEX
  5
C6
  8
2D$FILTROS
 10
2996.601704169911
 20
1414.044413455602
 30
0.0
  0
VERTEX
  5
C7
  8
2D$FILTROS
 10
2996.551366938784
 20
1413.929961597327
 30
0.0
  0
VERTEX
  5
C8
  8
2D$FILTROS
 10
2996.497935080115
 20
1413.816292140631
 30
0.0
  0
VERTEX
  5
C9
  8
2D$FILTROS
 10
2996.441420034149
 20
1413.703527034721
 30
0.0
  0
VERTEX
  5
CA
  8
2D$FILTROS
 10
2996.381839512456
 20
1413.59178852941
 30
0.0
  0
VERTEX
  5
CB
  8
2D$FILTROS
 10
2996.319217568738
 20
1413.481198778405
 30
0.0
  0
VERTEX
  5
CC
  8
2D$FILTROS
 10
2996.25358463987
 20
1413.371879433613
 30
0.0
  0
VERTEX
  5
CD
  8
2D$FILTROS
 10
2996.184977556094
 20
1413.263951233075
 30
0.0
  0
VERTEX
  5
CE
  8
2D$FILTROS
 10
2996.113439519544
 20
1413.157533585238
 30
0.0
  0
VERTEX
  5
CF
  8
2D$FILTROS
 10
2996.039020050545
 20
1413.052744152387
 30
0.0
  0
VERTEX
  5
D0
  8
2D$FILTROS
 10
2995.961774901425
 20
1412.949698436147
 30
0.0
  0
VERTEX
  5
D1
  8
2D$FILTROS
 10
2995.881765937875
 20
1412.848509368004
 30
0.0
  0
VERTEX
  5
D2
  8
2D$FILTROS
 10
2995.799060988206
 20
1412.749286907786
 30
0.0
  0
VERTEX
  5
D3
  8
2D$FILTROS
 10
2995.713733661129
 20
1412.652137653039
 30
0.0
  0
VERTEX
  5
D4
  8
2D$FILTROS
 10
2995.625863133022
 20
1412.557164462164
 30
0.0
  0
VERTEX
  5
D5
  8
2D$FILTROS
 10
2995.535533905933
 20
1412.464466094068
 30
0.0
  0
VERTEX
  5
D6
  8
2D$FILTROS
 10
2995.442835537837
 20
1412.374136866978
 30
0.0
  0
VERTEX
  5
D7
  8
2D$FILTROS
 10
2995.347862346961
 20
1412.286266338871
 30
0.0
  0
VERTEX
  5
D8
  8
2D$FILTROS
 10
2995.250713092214
 20
1412.200939011795
 30
0.0
  0
VERTEX
  5
D9
  8
2D$FILTROS
 10
2995.151490631997
 20
1412.118234062126
 30
0.0
  0
VERTEX
  5
DA
  8
2D$FILTROS
 10
2995.050301563854
 20
1412.038225098577
 30
0.0
  0
VERTEX
  5
DB
  8
2D$FILTROS
 10
2994.947255847614
 20
1411.960979949456
 30
0.0
  0
VERTEX
  5
DC
  8
2D$FILTROS
 10
2994.842466414763
 20
1411.886560480457
 30
0.0
  0
VERTEX
  5
DD
  8
2D$FILTROS
 10
2994.736048766926
 20
1411.815022443907
 30
0.0
  0
VERTEX
  5
DE
  8
2D$FILTROS
 10
2994.628120566389
 20
1411.746415360132
 30
0.0
  0
VERTEX
  5
DF
  8
2D$FILTROS
 10
2994.518801221597
 20
1411.680782431263
 30
0.0
  0
VERTEX
  5
E0
  8
2D$FILTROS
 10
2994.408211470591
 20
1411.618160487545
 30
0.0
  0
VERTEX
  5
E1
  8
2D$FILTROS
 10
2994.29647296528
 20
1411.558579965852
 30
0.0
  0
VERTEX
  5
E2
  8
2D$FILTROS
 10
2994.183707859369
 20
1411.502064919886
 30
0.0
  0
VERTEX
  5
E3
  8
2D$FILTROS
 10
2994.070038402675
 20
1411.448633061217
 30
0.0
  0
VERTEX
  5
E4
  8
2D$FILTROS
 10
2993.955586544399
 20
1411.398295830091
 30
0.0
  0
VERTEX
  5
E5
  8
2D$FILTROS
 10
2993.840473547809
 20
1411.351058494688
 30
0.0
  0
VERTEX
  5
E6
  8
2D$FILTROS
 10
2993.724819618541
 20
1411.306920277314
 30
0.0
  0
VERTEX
  5
E7
  8
2D$FILTROS
 10
2993.608743548577
 20
1411.265874505792
 30
0.0
  0
VERTEX
  5
E8
  8
2D$FILTROS
 10
2993.49236237773
 20
1411.227908788222
 30
0.0
  0
VERTEX
  5
E9
  8
2D$FILTROS
 10
2993.375791074227
 20
1411.193005209065
 30
0.0
  0
VERTEX
  5
EA
  8
2D$FILTROS
 10
2993.259142235743
 20
1411.161140544491
 30
0.0
  0
VERTEX
  5
EB
  8
2D$FILTROS
 10
2993.142525812032
 20
1411.132286494787
 30
0.0
  0
VERTEX
  5
EC
  8
2D$FILTROS
 10
2993.026048850028
 20
1411.10640993162
 30
0.0
  0
VERTEX
  5
ED
  8
2D$FILTROS
 10
2992.90981526206
 20
1411.083473157917
 30
0.0
  0
VERTEX
  5
EE
  8
2D$FILTROS
 10
2992.793925617625
 20
1411.063434178128
 30
0.0
  0
VERTEX
  5
EF
  8
2D$FILTROS
 10
2992.678476958884
 20
1411.046246976659
 30
0.0
  0
VERTEX
  5
F0
  8
2D$FILTROS
 10
2992.563562639919
 20
1411.031861802357
 30
0.0
  0
VERTEX
  5
F1
  8
2D$FILTROS
 10
2992.449272189489
 20
1411.020225456936
 30
0.0
  0
VERTEX
  5
F2
  8
2D$FILTROS
 10
2992.335691196947
 20
1411.011281585388
 30
0.0
  0
VERTEX
  5
F3
  8
2D$FILTROS
 10
2992.222901220744
 20
1411.004970966472
 30
0.0
  0
VERTEX
  5
F4
  8
2D$FILTROS
 10
2992.110979718808
 20
1411.001231801533
 30
0.0
  0
VERTEX
  5
F5
  8
2D$FILTROS
 10
2992.0
 20
1411.0
 30
0.0
  0
VERTEX
  5
F6
  8
2D$FILTROS
 10
2862.0
 20
1411.0
 30
0.0
  0
VERTEX
  5
F7
  8
2D$FILTROS
 10
2861.889020281192
 20
1411.001231801532
 30
0.0
  0
VERTEX
  5
F8
  8
2D$FILTROS
 10
2861.777098779257
 20
1411.004970966472
 30
0.0
  0
VERTEX
  5
F9
  8
2D$FILTROS
 10
2861.664308803053
 20
1411.011281585387
 30
0.0
  0
VERTEX
  5
FA
  8
2D$FILTROS
 10
2861.550727810511
 20
1411.020225456935
 30
0.0
  0
VERTEX
  5
FB
  8
2D$FILTROS
 10
2861.43643736008
 20
1411.031861802356
 30
0.0
  0
VERTEX
  5
FC
  8
2D$FILTROS
 10
2861.321523041115
 20
1411.046246976658
 30
0.0
  0
VERTEX
  5
FD
  8
2D$FILTROS
 10
2861.206074382375
 20
1411.063434178127
 30
0.0
  0
VERTEX
  5
FE
  8
2D$FILTROS
 10
2861.090184737939
 20
1411.083473157917
 30
0.0
  0
VERTEX
  5
FF
  8
2D$FILTROS
 10
2860.973951149972
 20
1411.106409931619
 30
0.0
  0
VERTEX
  5
100
  8
2D$FILTROS
 10
2860.857474187967
 20
1411.132286494786
 30
0.0
  0
VERTEX
  5
101
  8
2D$FILTROS
 10
2860.740857764257
 20
1411.161140544491
 30
0.0
  0
VERTEX
  5
102
  8
2D$FILTROS
 10
2860.624208925773
 20
1411.193005209064
 30
0.0
  0
VERTEX
  5
103
  8
2D$FILTROS
 10
2860.50763762227
 20
1411.227908788221
 30
0.0
  0
VERTEX
  5
104
  8
2D$FILTROS
 10
2860.391256451424
 20
1411.265874505792
 30
0.0
  0
VERTEX
  5
105
  8
2D$FILTROS
 10
2860.275180381459
 20
1411.306920277313
 30
0.0
  0
VERTEX
  5
106
  8
2D$FILTROS
 10
2860.159526452191
 20
1411.351058494688
 30
0.0
  0
VERTEX
  5
107
  8
2D$FILTROS
 10
2860.044413455601
 20
1411.39829583009
 30
0.0
  0
VERTEX
  5
108
  8
2D$FILTROS
 10
2859.929961597325
 20
1411.448633061216
 30
0.0
  0
VERTEX
  5
109
  8
2D$FILTROS
 10
2859.81629214063
 20
1411.502064919885
 30
0.0
  0
VERTEX
  5
10A
  8
2D$FILTROS
 10
2859.703527034721
 20
1411.558579965851
 30
0.0
  0
VERTEX
  5
10B
  8
2D$FILTROS
 10
2859.59178852941
 20
1411.618160487544
 30
0.0
  0
VERTEX
  5
10C
  8
2D$FILTROS
 10
2859.481198778404
 20
1411.680782431263
 30
0.0
  0
VERTEX
  5
10D
  8
2D$FILTROS
 10
2859.371879433612
 20
1411.746415360131
 30
0.0
  0
VERTEX
  5
10E
  8
2D$FILTROS
 10
2859.263951233074
 20
1411.815022443906
 30
0.0
  0
VERTEX
  5
10F
  8
2D$FILTROS
 10
2859.157533585238
 20
1411.886560480456
 30
0.0
  0
VERTEX
  5
110
  8
2D$FILTROS
 10
2859.052744152386
 20
1411.960979949455
 30
0.0
  0
VERTEX
  5
111
  8
2D$FILTROS
 10
2858.949698436146
 20
1412.038225098576
 30
0.0
  0
VERTEX
  5
112
  8
2D$FILTROS
 10
2858.848509368003
 20
1412.118234062125
 30
0.0
  0
VERTEX
  5
113
  8
2D$FILTROS
 10
2858.749286907786
 20
1412.200939011794
 30
0.0
  0
VERTEX
  5
114
  8
2D$FILTROS
 10
2858.65213765304
 20
1412.286266338871
 30
0.0
  0
VERTEX
  5
115
  8
2D$FILTROS
 10
2858.557164462164
 20
1412.374136866978
 30
0.0
  0
VERTEX
  5
116
  8
2D$FILTROS
 10
2858.464466094068
 20
1412.464466094067
 30
0.0
  0
VERTEX
  5
117
  8
2D$FILTROS
 10
2858.374136866978
 20
1412.557164462163
 30
0.0
  0
VERTEX
  5
118
  8
2D$FILTROS
 10
2858.286266338871
 20
1412.652137653039
 30
0.0
  0
VERTEX
  5
119
  8
2D$FILTROS
 10
2858.200939011794
 20
1412.749286907786
 30
0.0
  0
VERTEX
  5
11A
  8
2D$FILTROS
 10
2858.118234062125
 20
1412.848509368003
 30
0.0
  0
VERTEX
  5
11B
  8
2D$FILTROS
 10
2858.038225098576
 20
1412.949698436146
 30
0.0
  0
VERTEX
  5
11C
  8
2D$FILTROS
 10
2857.960979949455
 20
1413.052744152386
 30
0.0
  0
VERTEX
  5
11D
  8
2D$FILTROS
 10
2857.886560480456
 20
1413.157533585238
 30
0.0
  0
VERTEX
  5
11E
  8
2D$FILTROS
 10
2857.815022443906
 20
1413.263951233074
 30
0.0
  0
VERTEX
  5
11F
  8
2D$FILTROS
 10
2857.746415360131
 20
1413.371879433611
 30
0.0
  0
VERTEX
  5
120
  8
2D$FILTROS
 10
2857.680782431263
 20
1413.481198778404
 30
0.0
  0
VERTEX
  5
121
  8
2D$FILTROS
 10
2857.618160487545
 20
1413.59178852941
 30
0.0
  0
VERTEX
  5
122
  8
2D$FILTROS
 10
2857.558579965852
 20
1413.70352703472
 30
0.0
  0
VERTEX
  5
123
  8
2D$FILTROS
 10
2857.502064919885
 20
1413.81629214063
 30
0.0
  0
VERTEX
  5
124
  8
2D$FILTROS
 10
2857.448633061216
 20
1413.929961597325
 30
0.0
  0
VERTEX
  5
125
  8
2D$FILTROS
 10
2857.39829583009
 20
1414.044413455601
 30
0.0
  0
VERTEX
  5
126
  8
2D$FILTROS
 10
2857.351058494688
 20
1414.15952645219
 30
0.0
  0
VERTEX
  5
127
  8
2D$FILTROS
 10
2857.306920277312
 20
1414.275180381459
 30
0.0
  0
VERTEX
  5
128
  8
2D$FILTROS
 10
2857.265874505792
 20
1414.391256451423
 30
0.0
  0
VERTEX
  5
129
  8
2D$FILTROS
 10
2857.227908788221
 20
1414.50763762227
 30
0.0
  0
VERTEX
  5
12A
  8
2D$FILTROS
 10
2857.193005209065
 20
1414.624208925773
 30
0.0
  0
VERTEX
  5
12B
  8
2D$FILTROS
 10
2857.161140544491
 20
1414.740857764257
 30
0.0
  0
VERTEX
  5
12C
  8
2D$FILTROS
 10
2857.132286494787
 20
1414.857474187968
 30
0.0
  0
VERTEX
  5
12D
  8
2D$FILTROS
 10
2857.106409931619
 20
1414.973951149972
 30
0.0
  0
VERTEX
  5
12E
  8
2D$FILTROS
 10
2857.083473157917
 20
1415.090184737939
 30
0.0
  0
VERTEX
  5
12F
  8
2D$FILTROS
 10
2857.063434178128
 20
1415.206074382375
 30
0.0
  0
VERTEX
  5
130
  8
2D$FILTROS
 10
2857.046246976659
 20
1415.321523041115
 30
0.0
  0
VERTEX
  5
131
  8
2D$FILTROS
 10
2857.031861802357
 20
1415.436437360081
 30
0.0
  0
VERTEX
  5
132
  8
2D$FILTROS
 10
2857.020225456936
 20
1415.550727810512
 30
0.0
  0
VERTEX
  5
133
  8
2D$FILTROS
 10
2857.011281585388
 20
1415.664308803053
 30
0.0
  0
VERTEX
  5
134
  8
2D$FILTROS
 10
2857.004970966472
 20
1415.777098779257
 30
0.0
  0
VERTEX
  5
135
  8
2D$FILTROS
 10
2857.001231801533
 20
1415.889020281192
 30
0.0
  0
VERTEX
  5
136
  8
2D$FILTROS
 10
2857.0
 20
1416.0
 30
0.0
  0
VERTEX
  5
137
  8
2D$FILTROS
 10
2857.0
 20
1549.0
 30
0.0
  0
VERTEX
  5
138
  8
2D$FILTROS
 10
2856.999507279387
 20
1549.044391887523
 30
0.0
  0
VERTEX
  5
139
  8
2D$FILTROS
 10
2856.998011613411
 20
1549.089160488297
 30
0.0
  0
VERTEX
  5
13A
  8
2D$FILTROS
 10
2856.995487365845
 20
1549.134276478779
 30
0.0
  0
VERTEX
  5
13B
  8
2D$FILTROS
 10
2856.991909817226
 20
1549.179708875795
 30
0.0
  0
VERTEX
  5
13C
  8
2D$FILTROS
 10
2856.987255279058
 20
1549.225425055968
 30
0.0
  0
VERTEX
  5
13D
  8
2D$FILTROS
 10
2856.981501209336
 20
1549.271390783554
 30
0.0
  0
VERTEX
  5
13E
  8
2D$FILTROS
 10
2856.97462632875
 20
1549.31757024705
 30
0.0
  0
VERTEX
  5
13F
  8
2D$FILTROS
 10
2856.966610736833
 20
1549.363926104824
 30
0.0
  0
VERTEX
  5
140
  8
2D$FILTROS
 10
2856.957436027352
 20
1549.410419540011
 30
0.0
  0
VERTEX
  5
141
  8
2D$FILTROS
 10
2856.947085402086
 20
1549.457010324813
 30
0.0
  0
VERTEX
  5
142
  8
2D$FILTROS
 10
2856.935543782204
 20
1549.503656894297
 30
0.0
  0
VERTEX
  5
143
  8
2D$FILTROS
 10
2856.922797916374
 20
1549.550316429691
 30
0.0
  0
VERTEX
  5
144
  8
2D$FILTROS
 10
2856.908836484712
 20
1549.596944951092
 30
0.0
  0
VERTEX
  5
145
  8
2D$FILTROS
 10
2856.893650197683
 20
1549.64349741943
 30
0.0
  0
VERTEX
  5
146
  8
2D$FILTROS
 10
2856.877231889075
 20
1549.689927847416
 30
0.0
  0
VERTEX
  5
147
  8
2D$FILTROS
 10
2856.859576602125
 20
1549.736189419124
 30
0.0
  0
VERTEX
  5
148
  8
2D$FILTROS
 10
2856.840681667964
 20
1549.782234617759
 30
0.0
  0
VERTEX
  5
149
  8
2D$FILTROS
 10
2856.820546775513
 20
1549.828015361069
 30
0.0
  0
VERTEX
  5
14A
  8
2D$FILTROS
 10
2856.799174032046
 20
1549.873483143748
 30
0.0
  0
VERTEX
  5
14B
  8
2D$FILTROS
 10
2856.776568013659
 20
1549.918589186112
 30
0.0
  0
VERTEX
  5
14C
  8
2D$FILTROS
 10
2856.752735804982
 20
1549.963284588236
 30
0.0
  0
VERTEX
  5
14D
  8
2D$FILTROS
 10
2856.727687027495
 20
1550.007520488638
 30
0.0
  0
VERTEX
  5
14E
  8
2D$FILTROS
 10
2856.701433855947
 20
1550.051248226555
 30
0.0
  0
VERTEX
  5
14F
  8
2D$FILTROS
 10
2856.673991022437
 20
1550.09441950677
 30
0.0
  0
VERTEX
  5
150
  8
2D$FILTROS
 10
2856.645375807817
 20
1550.136986565905
 30
0.0
  0
VERTEX
  5
151
  8
2D$FILTROS
 10
2856.615608020217
 20
1550.178902339045
 30
0.0
  0
VERTEX
  5
152
  8
2D$FILTROS
 10
2856.584709960569
 20
1550.220120625541
 30
0.0
  0
VERTEX
  5
153
  8
2D$FILTROS
 10
2856.55270637515
 20
1550.260596252798
 30
0.0
  0
VERTEX
  5
154
  8
2D$FILTROS
 10
2856.519624395282
 20
1550.300285236885
 30
0.0
  0
VERTEX
  5
155
  8
2D$FILTROS
 10
2856.485493464451
 20
1550.339144938784
 30
0.0
  0
VERTEX
  5
156
  8
2D$FILTROS
 10
2856.450345253209
 20
1550.377134215135
 30
0.0
  0
VERTEX
  5
157
  8
2D$FILTROS
 10
2856.414213562373
 20
1550.414213562373
 30
0.0
  0
VERTEX
  5
158
  8
2D$FILTROS
 10
2856.377134215135
 20
1550.450345253209
 30
0.0
  0
VERTEX
  5
159
  8
2D$FILTROS
 10
2856.339144938784
 20
1550.485493464451
 30
0.0
  0
VERTEX
  5
15A
  8
2D$FILTROS
 10
2856.300285236886
 20
1550.519624395282
 30
0.0
  0
VERTEX
  5
15B
  8
2D$FILTROS
 10
2856.260596252799
 20
1550.55270637515
 30
0.0
  0
VERTEX
  5
15C
  8
2D$FILTROS
 10
2856.220120625541
 20
1550.584709960569
 30
0.0
  0
VERTEX
  5
15D
  8
2D$FILTROS
 10
2856.178902339045
 20
1550.615608020218
 30
0.0
  0
VERTEX
  5
15E
  8
2D$FILTROS
 10
2856.136986565905
 20
1550.645375807817
 30
0.0
  0
VERTEX
  5
15F
  8
2D$FILTROS
 10
2856.09441950677
 20
1550.673991022437
 30
0.0
  0
VERTEX
  5
160
  8
2D$FILTROS
 10
2856.051248226555
 20
1550.701433855947
 30
0.0
  0
VERTEX
  5
161
  8
2D$FILTROS
 10
2856.007520488638
 20
1550.727687027494
 30
0.0
  0
VERTEX
  5
162
  8
2D$FILTROS
 10
2855.963284588237
 20
1550.752735804982
 30
0.0
  0
VERTEX
  5
163
  8
2D$FILTROS
 10
2855.918589186112
 20
1550.776568013659
 30
0.0
  0
VERTEX
  5
164
  8
2D$FILTROS
 10
2855.873483143748
 20
1550.799174032046
 30
0.0
  0
VERTEX
  5
165
  8
2D$FILTROS
 10
2855.828015361069
 20
1550.820546775513
 30
0.0
  0
VERTEX
  5
166
  8
2D$FILTROS
 10
2855.782234617759
 20
1550.840681667964
 30
0.0
  0
VERTEX
  5
167
  8
2D$FILTROS
 10
2855.736189419124
 20
1550.859576602125
 30
0.0
  0
VERTEX
  5
168
  8
2D$FILTROS
 10
2855.689927847417
 20
1550.877231889074
 30
0.0
  0
VERTEX
  5
169
  8
2D$FILTROS
 10
2855.64349741943
 20
1550.893650197683
 30
0.0
  0
VERTEX
  5
16A
  8
2D$FILTROS
 10
2855.596944951092
 20
1550.908836484711
 30
0.0
  0
VERTEX
  5
16B
  8
2D$FILTROS
 10
2855.550316429691
 20
1550.922797916374
 30
0.0
  0
VERTEX
  5
16C
  8
2D$FILTROS
 10
2855.503656894297
 20
1550.935543782203
 30
0.0
  0
VERTEX
  5
16D
  8
2D$FILTROS
 10
2855.457010324813
 20
1550.947085402086
 30
0.0
  0
VERTEX
  5
16E
  8
2D$FILTROS
 10
2855.410419540011
 20
1550.957436027352
 30
0.0
  0
VERTEX
  5
16F
  8
2D$FILTROS
 10
2855.363926104824
 20
1550.966610736833
 30
0.0
  0
VERTEX
  5
170
  8
2D$FILTROS
 10
2855.31757024705
 20
1550.974626328749
 30
0.0
  0
VERTEX
  5
171
  8
2D$FILTROS
 10
2855.271390783554
 20
1550.981501209337
 30
0.0
  0
VERTEX
  5
172
  8
2D$FILTROS
 10
2855.225425055969
 20
1550.987255279058
 30
0.0
  0
VERTEX
  5
173
  8
2D$FILTROS
 10
2855.179708875796
 20
1550.991909817226
 30
0.0
  0
VERTEX
  5
174
  8
2D$FILTROS
 10
2855.134276478779
 20
1550.995487365845
 30
0.0
  0
VERTEX
  5
175
  8
2D$FILTROS
 10
2855.089160488297
 20
1550.998011613411
 30
0.0
  0
VERTEX
  5
176
  8
2D$FILTROS
 10
2855.044391887523
 20
1550.999507279387
 30
0.0
  0
VERTEX
  5
177
  8
2D$FILTROS
 10
2855.0
 20
1551.0
 30
0.0
  0
VERTEX
  5
178
  8
2D$FILTROS
 10
2852.0
 20
1551.0
 30
0.0
  0
VERTEX
  5
179
  8
2D$FILTROS
 10
2852.0
 20
1561.0
 30
0.0
  0
VERTEX
  5
17A
  8
2D$FILTROS
 10
2852.0
 20
1576.0
 30
0.0
  0
SEQEND
  5
17B
  8
2D$FILTROS
  0
LINE
  5
17D
  8
DEFAULT
 10
2824.0
 20
1197.0
 30
0.0
 11
3424.0
 21
1197.0
 31
0.0
  0
LINE
  5
17E
  8
DEFAULT
 10
3424.0
 20
1197.0
 30
0.0
 11
3424.0
 21
1597.0
 31
0.0
  0
LINE
  5
17F
  8
DEFAULT
 10
3424.0
 20
1597.0
 30
0.0
 11
2824.0
 21
1597.0
 31
0.0
  0
LINE
  5
180
  8
DEFAULT
 10
2824.0
 20
1597.0
 30
0.0
 11
2824.0
 21
1197.0
 31
0.0
  0
ENDSEC
  0
EOF
