  0
SECTION
  2
HEADER
  9
$ACADVER
  1
AC1009
  9
$DWGCODEPAGE
  3
mac-roman
  9
$INSBASE
 10
0.0
 20
0.0
 30
0.0
  9
$EXTMIN
 10
2145.0
 20
1197.0
 30
0.0
  9
$EXTMAX
 10
2745.0
 20
1597.0
 30
0.0
  9
$LIMMIN
 10
0.0
 20
0.0
  9
$LIMMAX
 10
12.0
 20
9.0
  9
$ORTHOMODE
 70
     0
  9
$REGENMODE
 70
     1
  9
$FILLMODE
 70
     1
  9
$QTEXTMODE
 70
     0
  9
$MIRRTEXT
 70
     1
  9
$DRAGMODE
 70
     2
  9
$LTSCALE
 40
1.0
  9
$OSMODE
 70
    37
  9
$ATTMODE
 70
     1
  9
$TEXTSIZE
 40
0.2
  9
$TRACEWID
 40
0.05
  9
$TEXTSTYLE
  7
STANDARD
  9
$CLAYER
  8
DEFAULT
  9
$CELTYPE
  6
BYLAYER
  9
$CECOLOR
 62
   256
  9
$DIMSCALE
 40
1.0
  9
$DIMASZ
 40
0.18
  9
$DIMEXO
 40
0.0625
  9
$DIMDLI
 40
0.38
  9
$DIMRND
 40
0.0
  9
$DIMDLE
 40
0.0
  9
$DIMEXE
 40
0.18
  9
$DIMTP
 40
0.0
  9
$DIMTM
 40
0.0
  9
$DIMTXT
 40
0.18
  9
$DIMCEN
 40
0.09
  9
$DIMTSZ
 40
0.0
  9
$DIMTOL
 70
     0
  9
$DIMLIM
 70
     0
  9
$DIMTIH
 70
     1
  9
$DIMTOH
 70
     1
  9
$DIMSE1
 70
     0
  9
$DIMSE2
 70
     0
  9
$DIMTAD
 70
     0
  9
$DIMZIN
 70
     0
  9
$DIMBLK
  1

  9
$DIMASO
 70
     1
  9
$DIMSHO
 70
     1
  9
$DIMPOST
  1

  9
$DIMAPOST
  1

  9
$DIMALT
 70
     0
  9
$DIMALTD
 70
     2
  9
$DIMALTF
 40
25.4
  9
$DIMLFAC
 40
1.0
  9
$DIMTOFL
 70
     0
  9
$DIMTVP
 40
0.0
  9
$DIMTIX
 70
     0
  9
$DIMSOXD
 70
     0
  9
$DIMSAH
 70
     0
  9
$DIMBLK1
  1

  9
$DIMBLK2
  1

  9
$DIMSTYLE
  2
STANDARD
  9
$DIMCLRD
 70
     0
  9
$DIMCLRE
 70
     0
  9
$DIMCLRT
 70
     0
  9
$DIMTFAC
 40
1.0
  9
$DIMGAP
 40
0.09
  9
$LUNITS
 70
     2
  9
$LUPREC
 70
     2
  9
$SKETCHINC
 40
0.1
  9
$FILLETRAD
 40
0.5
  9
$AUNITS
 70
     0
  9
$AUPREC
 70
     0
  9
$MENU
  1
.
  9
$ELEVATION
 40
0.0
  9
$PELEVATION
 40
0.0
  9
$THICKNESS
 40
0.0
  9
$LIMCHECK
 70
     0
  9
$CHAMFERA
 40
0.0
  9
$CHAMFERB
 40
0.0
  9
$SKPOLY
 70
     0
  9
$TDCREATE
 40
2457878.545613426
  9
$TDUPDATE
 40
2457878.545625
  9
$TDINDWG
 40
0.0000000116
  9
$TDUSRTIMER
 40
0.0000000116
  9
$USRTIMER
 70
     1
  9
$ANGBASE
 50
0.0
  9
$ANGDIR
 70
     0
  9
$PDMODE
 70
     0
  9
$PDSIZE
 40
0.0
  9
$PLINEWID
 40
0.0
  9
$COORDS
 70
     1
  9
$SPLFRAME
 70
     0
  9
$SPLINETYPE
 70
     6
  9
$SPLINESEGS
 70
     8
  9
$ATTDIA
 70
     0
  9
$ATTREQ
 70
     1
  9
$HANDLING
 70
     1
  9
$HANDSEED
  5
3B6
  9
$SURFTAB1
 70
     6
  9
$SURFTAB2
 70
     6
  9
$SURFTYPE
 70
     6
  9
$SURFU
 70
     6
  9
$SURFV
 70
     6
  9
$UCSNAME
  2

  9
$UCSORG
 10
0.0
 20
0.0
 30
0.0
  9
$UCSXDIR
 10
1.0
 20
0.0
 30
0.0
  9
$UCSYDIR
 10
0.0
 20
1.0
 30
0.0
  9
$PUCSNAME
  2

  9
$PUCSORG
 10
0.0
 20
0.0
 30
0.0
  9
$PUCSXDIR
 10
1.0
 20
0.0
 30
0.0
  9
$PUCSYDIR
 10
0.0
 20
1.0
 30
0.0
  9
$USERI1
 70
     0
  9
$USERI2
 70
     0
  9
$USERI3
 70
     0
  9
$USERI4
 70
     0
  9
$USERI5
 70
     0
  9
$USERR1
 40
0.0
  9
$USERR2
 40
0.0
  9
$USERR3
 40
0.0
  9
$USERR4
 40
0.0
  9
$USERR5
 40
0.0
  9
$WORLDVIEW
 70
     1
  9
$SHADEDGE
 70
     3
  9
$SHADEDIF
 70
    70
  9
$TILEMODE
 70
     1
  9
$MAXACTVP
 70
    64
  9
$PLIMCHECK
 70
     0
  9
$PEXTMIN
 10
1.000000000000000E+20
 20
1.000000000000000E+20
 30
1.000000000000000E+20
  9
$PEXTMAX
 10
-1.000000000000000E+20
 20
-1.000000000000000E+20
 30
-1.000000000000000E+20
  9
$PLIMMIN
 10
0.0
 20
0.0
  9
$PLIMMAX
 10
12.0
 20
9.0
  9
$UNITMODE
 70
     0
  9
$VISRETAIN
 70
     1
  9
$PLINEGEN
 70
     0
  9
$PSLTSCALE
 70
     1
  0
ENDSEC
  0
SECTION
  2
TABLES
  0
TABLE
  2
VPORT
 70
     1
  0
VPORT
  2
*ACTIVE
 70
     0
 10
0.0
 20
0.0
 11
1.0
 21
1.0
 12
2445.0
 22
1397.0
 13
0.0
 23
0.0
 14
0.5
 24
0.5
 15
0.5
 25
0.5
 16
0.0
 26
0.0
 36
1.0
 17
0.0
 27
0.0
 37
0.0
 40
408.0
 41
1.5
 42
50.0
 43
0.0
 44
0.0
 50
0.0
 51
0.0
 71
     0
 72
   100
 73
     1
 74
     3
 75
     0
 76
     0
 77
     0
 78
     0
  0
ENDTAB
  0
TABLE
  2
LTYPE
 70
     1
  0
LTYPE
  2
CONTINUOUS
 70
     0
  3
Solid line
 72
    65
 73
     0
 40
0.0
  0
ENDTAB
  0
TABLE
  2
LAYER
 70
     3
  0
LAYER
  2
0
 70
     0
 62
     7
  6
CONTINUOUS
  0
LAYER
  2
2D$CAMA_CAMARA
 70
     0
 62
     7
  6
CONTINUOUS
  0
LAYER
  2
DEFAULT
 70
     0
 62
     7
  6
CONTINUOUS
  0
ENDTAB
  0
TABLE
  2
STYLE
 70
     1
  0
STYLE
  2
STANDARD
 70
     0
 40
0.0
 41
1.0
 50
0.0
 71
     0
 42
0.2
  3
txt
  4

  0
ENDTAB
  0
TABLE
  2
VIEW
 70
     0
  0
ENDTAB
  0
TABLE
  2
UCS
 70
     0
  0
ENDTAB
  0
TABLE
  2
APPID
 70
     1
  0
APPID
  2
ACAD
 70
     0
  0
ENDTAB
  0
TABLE
  2
DIMSTYLE
 70
     1
  0
DIMSTYLE
  2
STANDARD
 70
     0
  3

  4

  5

  6

  7

 40
1.0
 41
0.18
 42
0.0625
 43
0.38
 44
0.18
 45
0.0
 46
0.0
 47
0.0
 48
0.0
140
0.18
141
0.09
142
0.0
143
25.4
144
1.0
145
0.0
146
1.0
147
0.09
 71
     0
 72
     0
 73
     1
 74
     1
 75
     0
 76
     0
 77
     0
 78
     0
170
     0
171
     2
172
     0
173
     0
174
     0
175
     0
176
     0
177
     0
178
     0
  0
ENDTAB
  0
ENDSEC
  0
SECTION
  2
BLOCKS
  0
BLOCK
  8
0
  2
$MODEL_SPACE
 70
     0
 10
0.0
 20
0.0
 30
0.0
  3
$MODEL_SPACE
  1

  0
ENDBLK
  5
21
  8
0
  0
BLOCK
 67
     1
  8
0
  2
$PAPER_SPACE
 70
     0
 10
0.0
 20
0.0
 30
0.0
  3
$PAPER_SPACE
  1

  0
ENDBLK
  5
1D
 67
     1
  8
0
  0
ENDSEC
  0
SECTION
  2
ENTITIES
  0
POLYLINE
  5
6F
  8
2D$CAMA_CAMARA
 66
     1
 10
0.0
 20
0.0
 30
0.0
 70
     1
  0
VERTEX
  5
70
  8
2D$CAMA_CAMARA
 10
2190.304142640668
 20
1404.628296012013
 30
0.0
  0
VERTEX
  5
71
  8
2D$CAMA_CAMARA
 10
2189.504074222641
 20
1404.628293299669
 30
0.0
  0
VERTEX
  5
72
  8
2D$CAMA_CAMARA
 10
2189.452332628447
 20
1404.627400333839
 30
0.0
  0
VERTEX
  5
73
  8
2D$CAMA_CAMARA
 10
2189.400652628457
 20
1404.624723104194
 30
0.0
  0
VERTEX
  5
74
  8
2D$CAMA_CAMARA
 10
2189.349095733122
 20
1404.620264797221
 30
0.0
  0
VERTEX
  5
75
  8
2D$CAMA_CAMARA
 10
2189.297723306376
 20
1404.614030719276
 30
0.0
  0
VERTEX
  5
76
  8
2D$CAMA_CAMARA
 10
2189.246596492593
 20
1404.606028290269
 30
0.0
  0
VERTEX
  5
77
  8
2D$CAMA_CAMARA
 10
2189.195776143814
 20
1404.596267034833
 30
0.0
  0
VERTEX
  5
78
  8
2D$CAMA_CAMARA
 10
2189.145322747323
 20
1404.584758570988
 30
0.0
  0
VERTEX
  5
79
  8
2D$CAMA_CAMARA
 10
2189.095296353646
 20
1404.571516596312
 30
0.0
  0
VERTEX
  5
7A
  8
2D$CAMA_CAMARA
 10
2189.045756505087
 20
1404.556556871637
 30
0.0
  0
VERTEX
  5
7B
  8
2D$CAMA_CAMARA
 10
2188.996762164852
 20
1404.539897202296
 30
0.0
  0
VERTEX
  5
7C
  8
2D$CAMA_CAMARA
 10
2188.948371646876
 20
1404.52155741692
 30
0.0
  0
VERTEX
  5
7D
  8
2D$CAMA_CAMARA
 10
2188.900642546412
 20
1404.50155934385
 30
0.0
  0
VERTEX
  5
7E
  8
2D$CAMA_CAMARA
 10
2188.853631671484
 20
1404.479926785146
 30
0.0
  0
VERTEX
  5
7F
  8
2D$CAMA_CAMARA
 10
2188.807394975269
 20
1404.456685488264
 30
0.0
  0
VERTEX
  5
80
  8
2D$CAMA_CAMARA
 10
2188.761987489504
 20
1404.431863115408
 30
0.0
  0
VERTEX
  5
81
  8
2D$CAMA_CAMARA
 10
2188.717463258987
 20
1404.405489210608
 30
0.0
  0
VERTEX
  5
82
  8
2D$CAMA_CAMARA
 10
2176.430880345177
 20
1396.838233087396
 30
0.0
  0
VERTEX
  5
83
  8
2D$CAMA_CAMARA
 10
2176.345059430141
 20
1396.783344946042
 30
0.0
  0
VERTEX
  5
84
  8
2D$CAMA_CAMARA
 10
2176.261151584547
 20
1396.725574616574
 30
0.0
  0
VERTEX
  5
85
  8
2D$CAMA_CAMARA
 10
2176.179253562883
 20
1396.6649887142
 30
0.0
  0
VERTEX
  5
86
  8
2D$CAMA_CAMARA
 10
2176.099459802098
 20
1396.601657100777
 30
0.0
  0
VERTEX
  5
87
  8
2D$CAMA_CAMARA
 10
2176.021862312712
 20
1396.535652804252
 30
0.0
  0
VERTEX
  5
88
  8
2D$CAMA_CAMARA
 10
2175.946550572711
 20
1396.467051934454
 30
0.0
  0
VERTEX
  5
89
  8
2D$CAMA_CAMARA
 10
2175.873611424377
 20
1396.395933595332
 30
0.0
  0
VERTEX
  5
8A
  8
2D$CAMA_CAMARA
 10
2175.803128974148
 20
1396.32237979374
 30
0.0
  0
VERTEX
  5
8B
  8
2D$CAMA_CAMARA
 10
2175.735184495629
 20
1396.246475344873
 30
0.0
  0
VERTEX
  5
8C
  8
2D$CAMA_CAMARA
 10
2175.669856335883
 20
1396.168307774468
 30
0.0
  0
VERTEX
  5
8D
  8
2D$CAMA_CAMARA
 10
2175.607219825082
 20
1396.087967217875
 30
0.0
  0
VERTEX
  5
8E
  8
2D$CAMA_CAMARA
 10
2175.547347189648
 20
1396.005546316126
 30
0.0
  0
VERTEX
  5
8F
  8
2D$CAMA_CAMARA
 10
2175.490307468968
 20
1395.921140109105
 30
0.0
  0
VERTEX
  5
90
  8
2D$CAMA_CAMARA
 10
2175.436166435779
 20
1395.834845925962
 30
0.0
  0
VERTEX
  5
91
  8
2D$CAMA_CAMARA
 10
2175.384986520334
 20
1395.74676327288
 30
0.0
  0
VERTEX
  5
92
  8
2D$CAMA_CAMARA
 10
2175.336826738407
 20
1395.656993718332
 30
0.0
  0
VERTEX
  5
93
  8
2D$CAMA_CAMARA
 10
2175.291742623242
 20
1395.565640775967
 30
0.0
  0
VERTEX
  5
94
  8
2D$CAMA_CAMARA
 10
2175.249786161522
 20
1395.472809785243
 30
0.0
  0
VERTEX
  5
95
  8
2D$CAMA_CAMARA
 10
2175.211005733416
 20
1395.378607789962
 30
0.0
  0
VERTEX
  5
96
  8
2D$CAMA_CAMARA
 10
2175.175446056798
 20
1395.283143414838
 30
0.0
  0
VERTEX
  5
97
  8
2D$CAMA_CAMARA
 10
2175.14314813568
 20
1395.18652674024
 30
0.0
  0
VERTEX
  5
98
  8
2D$CAMA_CAMARA
 10
2175.114149212928
 20
1395.088869175258
 30
0.0
  0
VERTEX
  5
99
  8
2D$CAMA_CAMARA
 10
2175.088482727322
 20
1394.990283329238
 30
0.0
  0
VERTEX
  5
9A
  8
2D$CAMA_CAMARA
 10
2175.066178274994
 20
1394.890882881929
 30
0.0
  0
VERTEX
  5
9B
  8
2D$CAMA_CAMARA
 10
2175.047261575299
 20
1394.790782452401
 30
0.0
  0
VERTEX
  5
9C
  8
2D$CAMA_CAMARA
 10
2175.031754441164
 20
1394.690097466877
 30
0.0
  0
VERTEX
  5
9D
  8
2D$CAMA_CAMARA
 10
2175.01967475393
 20
1394.588944025634
 30
0.0
  0
VERTEX
  5
9E
  8
2D$CAMA_CAMARA
 10
2175.011036442734
 20
1394.487438769127
 30
0.0
  0
VERTEX
  5
9F
  8
2D$CAMA_CAMARA
 10
2175.005849468448
 20
1394.385698743489
 30
0.0
  0
VERTEX
  5
A0
  8
2D$CAMA_CAMARA
 10
2175.004119812195
 20
1394.283841265569
 30
0.0
  0
VERTEX
  5
A1
  8
2D$CAMA_CAMARA
 10
2175.004119812195
 20
1372.128293299694
 30
0.0
  0
VERTEX
  5
A2
  8
2D$CAMA_CAMARA
 10
2171.504120178769
 20
1372.128293299694
 30
0.0
  0
VERTEX
  5
A3
  8
2D$CAMA_CAMARA
 10
2171.452908505547
 20
1372.127418832972
 30
0.0
  0
VERTEX
  5
A4
  8
2D$CAMA_CAMARA
 10
2171.401756542863
 20
1372.124796452395
 30
0.0
  0
VERTEX
  5
A5
  8
2D$CAMA_CAMARA
 10
2171.350723931636
 20
1372.120429215543
 30
0.0
  0
VERTEX
  5
A6
  8
2D$CAMA_CAMARA
 10
2171.299870173628
 20
1372.11432221442
 30
0.0
  0
VERTEX
  5
A7
  8
2D$CAMA_CAMARA
 10
2171.249254562062
 20
1372.106482569518
 30
0.0
  0
VERTEX
  5
A8
  8
2D$CAMA_CAMARA
 10
2171.198936112497
 20
1372.096919421515
 30
0.0
  0
VERTEX
  5
A9
  8
2D$CAMA_CAMARA
 10
2171.148973494013
 20
1372.085643920618
 30
0.0
  0
VERTEX
  5
AA
  8
2D$CAMA_CAMARA
 10
2171.099424960804
 20
1372.07266921356
 30
0.0
  0
VERTEX
  5
AB
  8
2D$CAMA_CAMARA
 10
2171.050348284264
 20
1372.058010428275
 30
0.0
  0
VERTEX
  5
AC
  8
2D$CAMA_CAMARA
 10
2171.001800685618
 20
1372.041684656255
 30
0.0
  0
VERTEX
  5
AD
  8
2D$CAMA_CAMARA
 10
2170.953838769213
 20
1372.023710932626
 30
0.0
  0
VERTEX
  5
AE
  8
2D$CAMA_CAMARA
 10
2170.906518456516
 20
1372.004110213953
 30
0.0
  0
VERTEX
  5
AF
  8
2D$CAMA_CAMARA
 10
2170.85989492091
 20
1371.982905353803
 30
0.0
  0
VERTEX
  5
B0
  8
2D$CAMA_CAMARA
 10
2170.814022523371
 20
1371.960121076103
 30
0.0
  0
VERTEX
  5
B1
  8
2D$CAMA_CAMARA
 10
2170.768954749078
 20
1371.935783946309
 30
0.0
  0
VERTEX
  5
B2
  8
2D$CAMA_CAMARA
 10
2170.724744145055
 20
1371.909922340436
 30
0.0
  0
VERTEX
  5
B3
  8
2D$CAMA_CAMARA
 10
2170.681442258908
 20
1371.882566411968
 30
0.0
  0
VERTEX
  5
B4
  8
2D$CAMA_CAMARA
 10
2170.639099578711
 20
1371.853748056703
 30
0.0
  0
VERTEX
  5
B5
  8
2D$CAMA_CAMARA
 10
2170.597765474154
 20
1371.823500875566
 30
0.0
  0
VERTEX
  5
B6
  8
2D$CAMA_CAMARA
 10
2170.557488138967
 20
1371.791860135428
 30
0.0
  0
VERTEX
  5
B7
  8
2D$CAMA_CAMARA
 10
2170.518314534735
 20
1371.758862727987
 30
0.0
  0
VERTEX
  5
B8
  8
2D$CAMA_CAMARA
 10
2170.480290336143
 20
1371.724547126757
 30
0.0
  0
VERTEX
  5
B9
  8
2D$CAMA_CAMARA
 10
2170.443459877721
 20
1371.688953342205
 30
0.0
  0
VERTEX
  5
BA
  8
2D$CAMA_CAMARA
 10
2170.407866102147
 20
1371.652122875107
 30
0.0
  0
VERTEX
  5
BB
  8
2D$CAMA_CAMARA
 10
2170.373550510185
 20
1371.614098668151
 30
0.0
  0
VERTEX
  5
BC
  8
2D$CAMA_CAMARA
 10
2170.340553112293
 20
1371.574925055876
 30
0.0
  0
VERTEX
  5
BD
  8
2D$CAMA_CAMARA
 10
2170.308912381972
 20
1371.534647712976
 30
0.0
  0
VERTEX
  5
BE
  8
2D$CAMA_CAMARA
 10
2170.27866521091
 20
1371.493313601045
 30
0.0
  0
VERTEX
  5
BF
  8
2D$CAMA_CAMARA
 10
2170.249846865966
 20
1371.450970913825
 30
0.0
  0
VERTEX
  5
C0
  8
2D$CAMA_CAMARA
 10
2170.222490948053
 20
1371.407669021009
 30
0.0
  0
VERTEX
  5
C1
  8
2D$CAMA_CAMARA
 10
2170.196629352956
 20
1371.363458410683
 30
0.0
  0
VERTEX
  5
C2
  8
2D$CAMA_CAMARA
 10
2170.172292234149
 20
1371.318390630458
 30
0.0
  0
VERTEX
  5
C3
  8
2D$CAMA_CAMARA
 10
2170.14950796763
 20
1371.272518227365
 30
0.0
  0
VERTEX
  5
C4
  8
2D$CAMA_CAMARA
 10
2170.128303118845
 20
1371.225894686591
 30
0.0
  0
VERTEX
  5
C5
  8
2D$CAMA_CAMARA
 10
2170.108702411706
 20
1371.178574369115
 30
0.0
  0
VERTEX
  5
C6
  8
2D$CAMA_CAMARA
 10
2170.090728699768
 20
1371.130612448329
 30
0.0
  0
VERTEX
  5
C7
  8
2D$CAMA_CAMARA
 10
2170.074402939581
 20
1371.082064845704
 30
0.0
  0
VERTEX
  5
C8
  8
2D$CAMA_CAMARA
 10
2170.059744166258
 20
1371.03298816559
 30
0.0
  0
VERTEX
  5
C9
  8
2D$CAMA_CAMARA
 10
2170.046769471278
 20
1370.983439629219
 30
0.0
  0
VERTEX
  5
CA
  8
2D$CAMA_CAMARA
 10
2170.035493982559
 20
1370.933477007986
 30
0.0
  0
VERTEX
  5
CB
  8
2D$CAMA_CAMARA
 10
2170.025930846822
 20
1370.88315855609
 30
0.0
  0
VERTEX
  5
CC
  8
2D$CAMA_CAMARA
 10
2170.018091214258
 20
1370.832542942614
 30
0.0
  0
VERTEX
  5
CD
  8
2D$CAMA_CAMARA
 10
2170.01198422553
 20
1370.781689183117
 30
0.0
  0
VERTEX
  5
CE
  8
2D$CAMA_CAMARA
 10
2170.007617001117
 20
1370.730656570826
 30
0.0
  0
VERTEX
  5
CF
  8
2D$CAMA_CAMARA
 10
2170.004994633009
 20
1370.679504607503
 30
0.0
  0
VERTEX
  5
D0
  8
2D$CAMA_CAMARA
 10
2170.004120178769
 20
1370.628292934067
 30
0.0
  0
VERTEX
  5
D1
  8
2D$CAMA_CAMARA
 10
2170.0
 20
1331.0
 30
0.0
  0
VERTEX
  5
D2
  8
2D$CAMA_CAMARA
 10
2173.0
 20
1331.0
 30
0.0
  0
VERTEX
  5
D3
  8
2D$CAMA_CAMARA
 10
2173.0
 20
1333.0
 30
0.0
  0
VERTEX
  5
D4
  8
2D$CAMA_CAMARA
 10
2230.000000000001
 20
1333.0
 30
0.0
  0
VERTEX
  5
D5
  8
2D$CAMA_CAMARA
 10
2230.000000000001
 20
1331.0
 30
0.0
  0
VERTEX
  5
D6
  8
2D$CAMA_CAMARA
 10
2233.000000000001
 20
1331.0
 30
0.0
  0
VERTEX
  5
D7
  8
2D$CAMA_CAMARA
 10
2233.004213770821
 20
1370.628289643421
 30
0.0
  0
VERTEX
  5
D8
  8
2D$CAMA_CAMARA
 10
2233.003782827839
 20
1370.664246647904
 30
0.0
  0
VERTEX
  5
D9
  8
2D$CAMA_CAMARA
 10
2233.002482323441
 20
1370.70034428333
 30
0.0
  0
VERTEX
  5
DA
  8
2D$CAMA_CAMARA
 10
2233.00030203814
 20
1370.736551770063
 30
0.0
  0
VERTEX
  5
DB
  8
2D$CAMA_CAMARA
 10
2232.997233175571
 20
1370.772837607962
 30
0.0
  0
VERTEX
  5
DC
  8
2D$CAMA_CAMARA
 10
2232.993268418343
 20
1370.809169657208
 30
0.0
  0
VERTEX
  5
DD
  8
2D$CAMA_CAMARA
 10
2232.988401978438
 20
1370.845515223968
 30
0.0
  0
VERTEX
  5
DE
  8
2D$CAMA_CAMARA
 10
2232.982629641738
 20
1370.881841150479
 30
0.0
  0
VERTEX
  5
DF
  8
2D$CAMA_CAMARA
 10
2232.975948806208
 20
1370.918113909086
 30
0.0
  0
VERTEX
  5
E0
  8
2D$CAMA_CAMARA
 10
2232.968358513379
 20
1370.954299699712
 30
0.0
  0
VERTEX
  5
E1
  8
2D$CAMA_CAMARA
 10
2232.959859472759
 20
1370.990364550196
 30
0.0
  0
VERTEX
  5
E2
  8
2D$CAMA_CAMARA
 10
2232.950454078914
 20
1371.026274418918
 30
0.0
  0
VERTEX
  5
E3
  8
2D$CAMA_CAMARA
 10
2232.940146420966
 20
1371.061995299067
 30
0.0
  0
VERTEX
  5
E4
  8
2D$CAMA_CAMARA
 10
2232.92894228436
 20
1371.09749332391
 30
0.0
  0
VERTEX
  5
E5
  8
2D$CAMA_CAMARA
 10
2232.916849144777
 20
1371.132734872388
 30
0.0
  0
VERTEX
  5
E6
  8
2D$CAMA_CAMARA
 10
2232.903876154179
 20
1371.167686674354
 30
0.0
  0
VERTEX
  5
E7
  8
2D$CAMA_CAMARA
 10
2232.890034118986
 20
1371.202315914774
 30
0.0
  0
VERTEX
  5
E8
  8
2D$CAMA_CAMARA
 10
2232.875335470525
 20
1371.236590336194
 30
0.0
  0
VERTEX
  5
E9
  8
2D$CAMA_CAMARA
 10
2232.859794227867
 20
1371.270478338827
 30
0.0
  0
VERTEX
  5
EA
  8
2D$CAMA_CAMARA
 10
2232.843425953342
 20
1371.303949077587
 30
0.0
  0
VERTEX
  5
EB
  8
2D$CAMA_CAMARA
 10
2232.826247700972
 20
1371.336972555453
 30
0.0
  0
VERTEX
  5
EC
  8
2D$CAMA_CAMARA
 10
2232.808277958223
 20
1371.369519712572
 30
0.0
  0
VERTEX
  5
ED
  8
2D$CAMA_CAMARA
 10
2232.789536581463
 20
1371.401562510548
 30
0.0
  0
VERTEX
  5
EE
  8
2D$CAMA_CAMARA
 10
2232.770044725593
 20
1371.433074011411
 30
0.0
  0
VERTEX
  5
EF
  8
2D$CAMA_CAMARA
 10
2232.749824768367
 20
1371.464028450805
 30
0.0
  0
VERTEX
  5
F0
  8
2D$CAMA_CAMARA
 10
2232.728900229942
 20
1371.494401305002
 30
0.0
  0
VERTEX
  5
F1
  8
2D$CAMA_CAMARA
 10
2232.707295688238
 20
1371.524169351387
 30
0.0
  0
VERTEX
  5
F2
  8
2D$CAMA_CAMARA
 10
2232.685036690722
 20
1371.553310722151
 30
0.0
  0
VERTEX
  5
F3
  8
2D$CAMA_CAMARA
 10
2232.66214966323
 20
1371.581804950951
 30
0.0
  0
VERTEX
  5
F4
  8
2D$CAMA_CAMARA
 10
2232.638661816469
 20
1371.609633012401
 30
0.0
  0
VERTEX
  5
F5
  8
2D$CAMA_CAMARA
 10
2232.61460105084
 20
1371.636777354295
 30
0.0
  0
VERTEX
  5
F6
  8
2D$CAMA_CAMARA
 10
2232.589995860213
 20
1371.663221922531
 30
0.0
  0
VERTEX
  5
F7
  8
2D$CAMA_CAMARA
 10
2232.564875235293
 20
1371.688952178785
 30
0.0
  0
VERTEX
  5
F8
  8
2D$CAMA_CAMARA
 10
2232.539145040271
 20
1371.714072866423
 30
0.0
  0
VERTEX
  5
F9
  8
2D$CAMA_CAMARA
 10
2232.51270053201
 20
1371.738678121509
 30
0.0
  0
VERTEX
  5
FA
  8
2D$CAMA_CAMARA
 10
2232.485556248765
 20
1371.762738953303
 30
0.0
  0
VERTEX
  5
FB
  8
2D$CAMA_CAMARA
 10
2232.457728244566
 20
1371.786226867895
 30
0.0
  0
VERTEX
  5
FC
  8
2D$CAMA_CAMARA
 10
2232.429234071554
 20
1371.809113964842
 30
0.0
  0
VERTEX
  5
FD
  8
2D$CAMA_CAMARA
 10
2232.400092755047
 20
1371.831373033391
 30
0.0
  0
VERTEX
  5
FE
  8
2D$CAMA_CAMARA
 10
2232.370324761323
 20
1371.852977647655
 30
0.0
  0
VERTEX
  5
FF
  8
2D$CAMA_CAMARA
 10
2232.339951958131
 20
1371.873902260115
 30
0.0
  0
VERTEX
  5
100
  8
2D$CAMA_CAMARA
 10
2232.308997568023
 20
1371.894122292793
 30
0.0
  0
VERTEX
  5
101
  8
2D$CAMA_CAMARA
 10
2232.277486114672
 20
1371.913614225472
 30
0.0
  0
VERTEX
  5
102
  8
2D$CAMA_CAMARA
 10
2232.245443362378
 20
1371.932355680337
 30
0.0
  0
VERTEX
  5
103
  8
2D$CAMA_CAMARA
 10
2232.212896249061
 20
1371.950325502419
 30
0.0
  0
VERTEX
  5
104
  8
2D$CAMA_CAMARA
 10
2232.179872813067
 20
1371.967503835285
 30
0.0
  0
VERTEX
  5
105
  8
2D$CAMA_CAMARA
 10
2232.146402114205
 20
1371.983872191396
 30
0.0
  0
VERTEX
  5
106
  8
2D$CAMA_CAMARA
 10
2232.112514149454
 20
1371.999413516656
 30
0.0
  0
VERTEX
  5
107
  8
2D$CAMA_CAMARA
 10
2232.078239763862
 20
1372.014112248662
 30
0.0
  0
VERTEX
  5
108
  8
2D$CAMA_CAMARA
 10
2232.043610557183
 20
1372.027954368263
 30
0.0
  0
VERTEX
  5
109
  8
2D$CAMA_CAMARA
 10
2232.008658786839
 20
1372.040927444057
 30
0.0
  0
VERTEX
  5
10A
  8
2D$CAMA_CAMARA
 10
2231.973417267838
 20
1372.053020669542
 30
0.0
  0
VERTEX
  5
10B
  8
2D$CAMA_CAMARA
 10
2231.937919270305
 20
1372.064224892675
 30
0.0
  0
VERTEX
  5
10C
  8
2D$CAMA_CAMARA
 10
2231.902198415281
 20
1372.074532637694
 30
0.0
  0
VERTEX
  5
10D
  8
2D$CAMA_CAMARA
 10
2231.866288569485
 20
1372.08393811907
 30
0.0
  0
VERTEX
  5
10E
  8
2D$CAMA_CAMARA
 10
2231.830223739718
 20
1372.092437247598
 30
0.0
  0
VERTEX
  5
10F
  8
2D$CAMA_CAMARA
 10
2231.794037967594
 20
1372.10002762863
 30
0.0
  0
VERTEX
  5
110
  8
2D$CAMA_CAMARA
 10
2231.757765225271
 20
1372.106708552575
 30
0.0
  0
VERTEX
  5
111
  8
2D$CAMA_CAMARA
 10
2231.721439312831
 20
1372.11248097782
 30
0.0
  0
VERTEX
  5
112
  8
2D$CAMA_CAMARA
 10
2231.685093757933
 20
1372.117347506318
 30
0.0
  0
VERTEX
  5
113
  8
2D$CAMA_CAMARA
 10
2231.648761718352
 20
1372.121312352107
 30
0.0
  0
VERTEX
  5
114
  8
2D$CAMA_CAMARA
 10
2231.612475887933
 20
1372.124381303122
 30
0.0
  0
VERTEX
  5
115
  8
2D$CAMA_CAMARA
 10
2231.576268406514
 20
1372.12656167668
 30
0.0
  0
VERTEX
  5
116
  8
2D$CAMA_CAMARA
 10
2231.540170774259
 20
1372.127862269067
 30
0.0
  0
VERTEX
  5
117
  8
2D$CAMA_CAMARA
 10
2231.504213770826
 20
1372.128293299694
 30
0.0
  0
VERTEX
  5
118
  8
2D$CAMA_CAMARA
 10
2228.004137562083
 20
1372.128293299695
 30
0.0
  0
VERTEX
  5
119
  8
2D$CAMA_CAMARA
 10
2228.004137562083
 20
1394.283912005326
 30
0.0
  0
VERTEX
  5
11A
  8
2D$CAMA_CAMARA
 10
2228.002407907958
 20
1394.385769420594
 30
0.0
  0
VERTEX
  5
11B
  8
2D$CAMA_CAMARA
 10
2227.997220940053
 20
1394.487509383796
 30
0.0
  0
VERTEX
  5
11C
  8
2D$CAMA_CAMARA
 10
2227.988582639474
 20
1394.589014578301
 30
0.0
  0
VERTEX
  5
11D
  8
2D$CAMA_CAMARA
 10
2227.97650296707
 20
1394.69016795819
 30
0.0
  0
VERTEX
  5
11E
  8
2D$CAMA_CAMARA
 10
2227.960995851944
 20
1394.790852883224
 30
0.0
  0
VERTEX
  5
11F
  8
2D$CAMA_CAMARA
 10
2227.942079175393
 20
1394.890953253336
 30
0.0
  0
VERTEX
  5
120
  8
2D$CAMA_CAMARA
 10
2227.919774750289
 20
1394.990353642517
 30
0.0
  0
VERTEX
  5
121
  8
2D$CAMA_CAMARA
 10
2227.894108295925
 20
1395.088939431903
 30
0.0
  0
VERTEX
  5
122
  8
2D$CAMA_CAMARA
 10
2227.865109408361
 20
1395.186596941949
 30
0.0
  0
VERTEX
  5
123
  8
2D$CAMA_CAMARA
 10
2227.832811526295
 20
1395.283213563513
 30
0.0
  0
VERTEX
  5
124
  8
2D$CAMA_CAMARA
 10
2227.797251892501
 20
1395.378677887703
 30
0.0
  0
VERTEX
  5
125
  8
2D$CAMA_CAMARA
 10
2227.758471510893
 20
1395.472879834343
 30
0.0
  0
VERTEX
  5
126
  8
2D$CAMA_CAMARA
 10
2227.716515099234
 20
1395.56571077891
 30
0.0
  0
VERTEX
  5
127
  8
2D$CAMA_CAMARA
 10
2227.671431037579
 20
1395.657063677786
 30
0.0
  0
VERTEX
  5
128
  8
2D$CAMA_CAMARA
 10
2227.623271312483
 20
1395.746833191693
 30
0.0
  0
VERTEX
  5
129
  8
2D$CAMA_CAMARA
 10
2227.572091457057
 20
1395.834915807157
 30
0.0
  0
VERTEX
  5
12A
  8
2D$CAMA_CAMARA
 10
2227.517950486933
 20
1395.921209955872
 30
0.0
  0
VERTEX
  5
12B
  8
2D$CAMA_CAMARA
 10
2227.460910832212
 20
1396.005616131818
 30
0.0
  0
VERTEX
  5
12C
  8
2D$CAMA_CAMARA
 10
2227.401038265479
 20
1396.088037006002
 30
0.0
  0
VERTEX
  5
12D
  8
2D$CAMA_CAMARA
 10
2227.338401825953
 20
1396.168377538686
 30
0.0
  0
VERTEX
  5
12E
  8
2D$CAMA_CAMARA
 10
2227.273073739886
 20
1396.246545088982
 30
0.0
  0
VERTEX
  5
12F
  8
2D$CAMA_CAMARA
 10
2227.205129337272
 20
1396.322449521672
 30
0.0
  0
VERTEX
  5
130
  8
2D$CAMA_CAMARA
 10
2227.134646964991
 20
1396.396003311146
 30
0.0
  0
VERTEX
  5
131
  8
2D$CAMA_CAMARA
 10
2227.061707896459
 20
1396.467121642328
 30
0.0
  0
VERTEX
  5
132
  8
2D$CAMA_CAMARA
 10
2226.986396237916
 20
1396.535722508474
 30
0.0
  0
VERTEX
  5
133
  8
2D$CAMA_CAMARA
 10
2226.908798831443
 20
1396.601726805736
 30
0.0
  0
VERTEX
  5
134
  8
2D$CAMA_CAMARA
 10
2226.829005154822
 20
1396.665058424378
 30
0.0
  0
VERTEX
  5
135
  8
2D$CAMA_CAMARA
 10
2226.747107218363
 20
1396.725644336537
 30
0.0
  0
VERTEX
  5
136
  8
2D$CAMA_CAMARA
 10
2226.6631994588
 20
1396.783414680431
 30
0.0
  0
VERTEX
  5
137
  8
2D$CAMA_CAMARA
 10
2226.577378630402
 20
1396.838302840917
 30
0.0
  0
VERTEX
  5
138
  8
2D$CAMA_CAMARA
 10
2214.652566814055
 20
1404.182755937153
 30
0.0
  0
VERTEX
  5
139
  8
2D$CAMA_CAMARA
 10
2214.563513664185
 20
1404.235506490656
 30
0.0
  0
VERTEX
  5
13A
  8
2D$CAMA_CAMARA
 10
2214.472693822045
 20
1404.285153652411
 30
0.0
  0
VERTEX
  5
13B
  8
2D$CAMA_CAMARA
 10
2214.380215394372
 20
1404.33163832528
 30
0.0
  0
VERTEX
  5
13C
  8
2D$CAMA_CAMARA
 10
2214.286188462188
 20
1404.374905176572
 30
0.0
  0
VERTEX
  5
13D
  8
2D$CAMA_CAMARA
 10
2214.190724949767
 20
1404.414902703906
 30
0.0
  0
VERTEX
  5
13E
  8
2D$CAMA_CAMARA
 10
2214.093938491405
 20
1404.451583296517
 30
0.0
  0
VERTEX
  5
13F
  8
2D$CAMA_CAMARA
 10
2213.995944296156
 20
1404.484903291929
 30
0.0
  0
VERTEX
  5
140
  8
2D$CAMA_CAMARA
 10
2213.896859010697
 20
1404.514823027928
 30
0.0
  0
VERTEX
  5
141
  8
2D$CAMA_CAMARA
 10
2213.796800580476
 20
1404.541306889774
 30
0.0
  0
VERTEX
  5
142
  8
2D$CAMA_CAMARA
 10
2213.695888109315
 20
1404.564323352597
 30
0.0
  0
VERTEX
  5
143
  8
2D$CAMA_CAMARA
 10
2213.594241717639
 20
1404.583845018915
 30
0.0
  0
VERTEX
  5
144
  8
2D$CAMA_CAMARA
 10
2213.491982399489
 20
1404.599848651258
 30
0.0
  0
VERTEX
  5
145
  8
2D$CAMA_CAMARA
 10
2213.389231878499
 20
1404.612315199817
 30
0.0
  0
VERTEX
  5
146
  8
2D$CAMA_CAMARA
 10
2213.286112463004
 20
1404.621229825127
 30
0.0
  0
VERTEX
  5
147
  8
2D$CAMA_CAMARA
 10
2213.182746900446
 20
1404.62658191573
 30
0.0
  0
VERTEX
  5
148
  8
2D$CAMA_CAMARA
 10
2213.079258231271
 20
1404.628365100802
 30
0.0
  0
VERTEX
  5
149
  8
2D$CAMA_CAMARA
 10
2212.695831464258
 20
1404.628356471851
 30
0.0
  0
VERTEX
  5
14A
  8
2D$CAMA_CAMARA
 10
2212.660932481076
 20
1404.627746530928
 30
0.0
  0
VERTEX
  5
14B
  8
2D$CAMA_CAMARA
 10
2212.626076043128
 20
1404.625919022048
 30
0.0
  0
VERTEX
  5
14C
  8
2D$CAMA_CAMARA
 10
2212.591304616399
 20
1404.622876171685
 30
0.0
  0
VERTEX
  5
14D
  8
2D$CAMA_CAMARA
 10
2212.556660563303
 20
1404.618621686978
 30
0.0
  0
VERTEX
  5
14E
  8
2D$CAMA_CAMARA
 10
2212.522186091071
 20
1404.613160751212
 30
0.0
  0
VERTEX
  5
14F
  8
2D$CAMA_CAMARA
 10
2212.487923200335
 20
1404.606500017506
 30
0.0
  0
VERTEX
  5
150
  8
2D$CAMA_CAMARA
 10
2212.453913633954
 20
1404.598647600704
 30
0.0
  0
VERTEX
  5
151
  8
2D$CAMA_CAMARA
 10
2212.420198826157
 20
1404.589613067494
 30
0.0
  0
VERTEX
  5
152
  8
2D$CAMA_CAMARA
 10
2212.386819852068
 20
1404.579407424748
 30
0.0
  0
VERTEX
  5
153
  8
2D$CAMA_CAMARA
 10
2212.353817377661
 20
1404.568043106111
 30
0.0
  0
VERTEX
  5
154
  8
2D$CAMA_CAMARA
 10
2212.321231610214
 20
1404.55553395686
 30
0.0
  0
VERTEX
  5
155
  8
2D$CAMA_CAMARA
 10
2212.289102249328
 20
1404.54189521703
 30
0.0
  0
VERTEX
  5
156
  8
2D$CAMA_CAMARA
 10
2212.257468438559
 20
1404.527143502847
 30
0.0
  0
VERTEX
  5
157
  8
2D$CAMA_CAMARA
 10
2212.226368717729
 20
1404.511296786488
 30
0.0
  0
VERTEX
  5
158
  8
2D$CAMA_CAMARA
 10
2212.19584097597
 20
1404.494374374184
 30
0.0
  0
VERTEX
  5
159
  8
2D$CAMA_CAMARA
 10
2212.165922405568
 20
1404.476396882695
 30
0.0
  0
VERTEX
  5
15A
  8
2D$CAMA_CAMARA
 10
2212.136649456649
 20
1404.457386214199
 30
0.0
  0
VERTEX
  5
15B
  8
2D$CAMA_CAMARA
 10
2212.10805779277
 20
1404.437365529604
 30
0.0
  0
VERTEX
  5
15C
  8
2D$CAMA_CAMARA
 10
2212.08018224747
 20
1404.416359220329
 30
0.0
  0
VERTEX
  5
15D
  8
2D$CAMA_CAMARA
 10
2212.053056781835
 20
1404.394392878596
 30
0.0
  0
VERTEX
  5
15E
  8
2D$CAMA_CAMARA
 10
2212.026714443119
 20
1404.371493266239
 30
0.0
  0
VERTEX
  5
15F
  8
2D$CAMA_CAMARA
 10
2212.001187324485
 20
1404.347688282111
 30
0.0
  0
VERTEX
  5
160
  8
2D$CAMA_CAMARA
 10
2211.976506525903
 20
1404.323006928087
 30
0.0
  0
VERTEX
  5
161
  8
2D$CAMA_CAMARA
 10
2211.952702116265
 20
1404.297479273733
 30
0.0
  0
VERTEX
  5
162
  8
2D$CAMA_CAMARA
 10
2211.929803096744
 20
1404.271136419672
 30
0.0
  0
VERTEX
  5
163
  8
2D$CAMA_CAMARA
 10
2211.90783736547
 20
1404.244010459695
 30
0.0
  0
VERTEX
  5
164
  8
2D$CAMA_CAMARA
 10
2211.886831683536
 20
1404.216134441659
 30
0.0
  0
VERTEX
  5
165
  8
2D$CAMA_CAMARA
 10
2211.866811642395
 20
1404.187542327224
 30
0.0
  0
VERTEX
  5
166
  8
2D$CAMA_CAMARA
 10
2211.847801632687
 20
1404.158268950481
 30
0.0
  0
VERTEX
  5
167
  8
2D$CAMA_CAMARA
 10
2211.829824814515
 20
1404.128349975506
 30
0.0
  0
VERTEX
  5
168
  8
2D$CAMA_CAMARA
 10
2211.812903089236
 20
1404.097821852919
 30
0.0
  0
VERTEX
  5
169
  8
2D$CAMA_CAMARA
 10
2211.797057072775
 20
1404.066721775469
 30
0.0
  0
VERTEX
  5
16A
  8
2D$CAMA_CAMARA
 10
2211.78230607051
 20
1404.035087632724
 30
0.0
  0
VERTEX
  5
16B
  8
2D$CAMA_CAMARA
 10
2211.768668053748
 20
1404.002957964909
 30
0.0
  0
VERTEX
  5
16C
  8
2D$CAMA_CAMARA
 10
2211.756159637837
 20
1403.970371915954
 30
0.0
  0
VERTEX
  5
16D
  8
2D$CAMA_CAMARA
 10
2211.744796061919
 20
1403.937369185802
 30
0.0
  0
VERTEX
  5
16E
  8
2D$CAMA_CAMARA
 10
2211.734591170363
 20
1403.903989982046
 30
0.0
  0
VERTEX
  5
16F
  8
2D$CAMA_CAMARA
 10
2211.725557395901
 20
1403.870274970937
 30
0.0
  0
VERTEX
  5
170
  8
2D$CAMA_CAMARA
 10
2211.717705744481
 20
1403.836265227847
 30
0.0
  0
VERTEX
  5
171
  8
2D$CAMA_CAMARA
 10
2211.711045781856
 20
1403.802002187221
 30
0.0
  0
VERTEX
  5
172
  8
2D$CAMA_CAMARA
 10
2211.705585621934
 20
1403.767527592101
 30
0.0
  0
VERTEX
  5
173
  8
2D$CAMA_CAMARA
 10
2211.701331916885
 20
1403.732883443267
 30
0.0
  0
VERTEX
  5
174
  8
2D$CAMA_CAMARA
 10
2211.698289849048
 20
1403.698111948068
 30
0.0
  0
VERTEX
  5
175
  8
2D$CAMA_CAMARA
 10
2211.696463124607
 20
1403.663255469002
 30
0.0
  0
VERTEX
  5
176
  8
2D$CAMA_CAMARA
 10
2211.69585396908
 20
1403.628356472102
 30
0.0
  0
VERTEX
  5
177
  8
2D$CAMA_CAMARA
 10
2211.695853969182
 20
1375.128293299705
 30
0.0
  0
VERTEX
  5
178
  8
2D$CAMA_CAMARA
 10
2211.694105036281
 20
1375.025869969147
 30
0.0
  0
VERTEX
  5
179
  8
2D$CAMA_CAMARA
 10
2211.688860276754
 20
1374.923566059611
 30
0.0
  0
VERTEX
  5
17A
  8
2D$CAMA_CAMARA
 10
2211.680125805758
 20
1374.821500852878
 30
0.0
  0
VERTEX
  5
17B
  8
2D$CAMA_CAMARA
 10
2211.667911807293
 20
1374.719793352415
 30
0.0
  0
VERTEX
  5
17C
  8
2D$CAMA_CAMARA
 10
2211.652232522335
 20
1374.618562144618
 30
0.0
  0
VERTEX
  5
17D
  8
2D$CAMA_CAMARA
 10
2211.633106232231
 20
1374.517925260546
 30
0.0
  0
VERTEX
  5
17E
  8
2D$CAMA_CAMARA
 10
2211.610555237378
 20
1374.418000038304
 30
0.0
  0
VERTEX
  5
17F
  8
2D$CAMA_CAMARA
 10
2211.584605831228
 20
1374.318902986232
 30
0.0
  0
VERTEX
  5
180
  8
2D$CAMA_CAMARA
 10
2211.555288269627
 20
1374.220749647059
 30
0.0
  0
VERTEX
  5
181
  8
2D$CAMA_CAMARA
 10
2211.522636735542
 20
1374.123654463189
 30
0.0
  0
VERTEX
  5
182
  8
2D$CAMA_CAMARA
 10
2211.486689299199
 20
1374.027730643263
 30
0.0
  0
VERTEX
  5
183
  8
2D$CAMA_CAMARA
 10
2211.447487873702
 20
1373.933090030163
 30
0.0
  0
VERTEX
  5
184
  8
2D$CAMA_CAMARA
 10
2211.405078166159
 20
1373.839842970611
 30
0.0
  0
VERTEX
  5
185
  8
2D$CAMA_CAMARA
 10
2211.359509624393
 20
1373.748098186508
 30
0.0
  0
VERTEX
  5
186
  8
2D$CAMA_CAMARA
 10
2211.310835379284
 20
1373.657962648167
 30
0.0
  0
VERTEX
  5
187
  8
2D$CAMA_CAMARA
 10
2211.259112182825
 20
1373.569541449594
 30
0.0
  0
VERTEX
  5
188
  8
2D$CAMA_CAMARA
 10
2211.20440034195
 20
1373.482937685952
 30
0.0
  0
VERTEX
  5
189
  8
2D$CAMA_CAMARA
 10
2211.146763648218
 20
1373.398252333355
 30
0.0
  0
VERTEX
  5
18A
  8
2D$CAMA_CAMARA
 10
2211.086269303434
 20
1373.315584131136
 30
0.0
  0
VERTEX
  5
18B
  8
2D$CAMA_CAMARA
 10
2211.022987841299
 20
1373.235029466721
 30
0.0
  0
VERTEX
  5
18C
  8
2D$CAMA_CAMARA
 10
2210.956993045168
 20
1373.156682263245
 30
0.0
  0
VERTEX
  5
18D
  8
2D$CAMA_CAMARA
 10
2210.88836186202
 20
1373.080633870042
 30
0.0
  0
VERTEX
  5
18E
  8
2D$CAMA_CAMARA
 10
2210.817174312746
 20
1373.006972956138
 30
0.0
  0
VERTEX
  5
18F
  8
2D$CAMA_CAMARA
 10
2210.743513398842
 20
1372.935785406863
 30
0.0
  0
VERTEX
  5
190
  8
2D$CAMA_CAMARA
 10
2210.66746500564
 20
1372.867154223715
 30
0.0
  0
VERTEX
  5
191
  8
2D$CAMA_CAMARA
 10
2210.589117802164
 20
1372.801159427584
 30
0.0
  0
VERTEX
  5
192
  8
2D$CAMA_CAMARA
 10
2210.508563137749
 20
1372.737877965449
 30
0.0
  0
VERTEX
  5
193
  8
2D$CAMA_CAMARA
 10
2210.42589493553
 20
1372.677383620666
 30
0.0
  0
VERTEX
  5
194
  8
2D$CAMA_CAMARA
 10
2210.341209582934
 20
1372.619746926933
 30
0.0
  0
VERTEX
  5
195
  8
2D$CAMA_CAMARA
 10
2210.254605819292
 20
1372.565035086057
 30
0.0
  0
VERTEX
  5
196
  8
2D$CAMA_CAMARA
 10
2210.166184620719
 20
1372.513311889598
 30
0.0
  0
VERTEX
  5
197
  8
2D$CAMA_CAMARA
 10
2210.076049082379
 20
1372.464637644489
 30
0.0
  0
VERTEX
  5
198
  8
2D$CAMA_CAMARA
 10
2209.984304298275
 20
1372.419069102722
 30
0.0
  0
VERTEX
  5
199
  8
2D$CAMA_CAMARA
 10
2209.891057238724
 20
1372.376659395179
 30
0.0
  0
VERTEX
  5
19A
  8
2D$CAMA_CAMARA
 10
2209.796416625624
 20
1372.337457969682
 30
0.0
  0
VERTEX
  5
19B
  8
2D$CAMA_CAMARA
 10
2209.700492805697
 20
1372.301510533339
 30
0.0
  0
VERTEX
  5
19C
  8
2D$CAMA_CAMARA
 10
2209.603397621827
 20
1372.268858999253
 30
0.0
  0
VERTEX
  5
19D
  8
2D$CAMA_CAMARA
 10
2209.505244282655
 20
1372.239541437651
 30
0.0
  0
VERTEX
  5
19E
  8
2D$CAMA_CAMARA
 10
2209.406147230583
 20
1372.213592031501
 30
0.0
  0
VERTEX
  5
19F
  8
2D$CAMA_CAMARA
 10
2209.306222008342
 20
1372.191041036648
 30
0.0
  0
VERTEX
  5
1A0
  8
2D$CAMA_CAMARA
 10
2209.205585124269
 20
1372.171914746543
 30
0.0
  0
VERTEX
  5
1A1
  8
2D$CAMA_CAMARA
 10
2209.104353916472
 20
1372.156235461586
 30
0.0
  0
VERTEX
  5
1A2
  8
2D$CAMA_CAMARA
 10
2209.002646416009
 20
1372.14402146312
 30
0.0
  0
VERTEX
  5
1A3
  8
2D$CAMA_CAMARA
 10
2208.900581209277
 20
1372.135286992123
 30
0.0
  0
VERTEX
  5
1A4
  8
2D$CAMA_CAMARA
 10
2208.79827729974
 20
1372.130042232596
 30
0.0
  0
VERTEX
  5
1A5
  8
2D$CAMA_CAMARA
 10
2208.695853969182
 20
1372.128293299694
 30
0.0
  0
VERTEX
  5
1A6
  8
2D$CAMA_CAMARA
 10
2194.304146030808
 20
1372.128293299694
 30
0.0
  0
VERTEX
  5
1A7
  8
2D$CAMA_CAMARA
 10
2194.20172270025
 20
1372.130042232596
 30
0.0
  0
VERTEX
  5
1A8
  8
2D$CAMA_CAMARA
 10
2194.099418790714
 20
1372.135286992123
 30
0.0
  0
VERTEX
  5
1A9
  8
2D$CAMA_CAMARA
 10
2193.997353583982
 20
1372.14402146312
 30
0.0
  0
VERTEX
  5
1AA
  8
2D$CAMA_CAMARA
 10
2193.895646083519
 20
1372.156235461585
 30
0.0
  0
VERTEX
  5
1AB
  8
2D$CAMA_CAMARA
 10
2193.794414875722
 20
1372.171914746543
 30
0.0
  0
VERTEX
  5
1AC
  8
2D$CAMA_CAMARA
 10
2193.69377799165
 20
1372.191041036647
 30
0.0
  0
VERTEX
  5
1AD
  8
2D$CAMA_CAMARA
 10
2193.593852769409
 20
1372.2135920315
 30
0.0
  0
VERTEX
  5
1AE
  8
2D$CAMA_CAMARA
 10
2193.494755717337
 20
1372.239541437651
 30
0.0
  0
VERTEX
  5
1AF
  8
2D$CAMA_CAMARA
 10
2193.396602378165
 20
1372.268858999252
 30
0.0
  0
VERTEX
  5
1B0
  8
2D$CAMA_CAMARA
 10
2193.299507194295
 20
1372.301510533338
 30
0.0
  0
VERTEX
  5
1B1
  8
2D$CAMA_CAMARA
 10
2193.203583374369
 20
1372.337457969681
 30
0.0
  0
VERTEX
  5
1B2
  8
2D$CAMA_CAMARA
 10
2193.108942761269
 20
1372.376659395178
 30
0.0
  0
VERTEX
  5
1B3
  8
2D$CAMA_CAMARA
 10
2193.015695701718
 20
1372.419069102721
 30
0.0
  0
VERTEX
  5
1B4
  8
2D$CAMA_CAMARA
 10
2192.923950917615
 20
1372.464637644487
 30
0.0
  0
VERTEX
  5
1B5
  8
2D$CAMA_CAMARA
 10
2192.833815379274
 20
1372.513311889596
 30
0.0
  0
VERTEX
  5
1B6
  8
2D$CAMA_CAMARA
 10
2192.745394180702
 20
1372.565035086055
 30
0.0
  0
VERTEX
  5
1B7
  8
2D$CAMA_CAMARA
 10
2192.65879041706
 20
1372.61974692693
 30
0.0
  0
VERTEX
  5
1B8
  8
2D$CAMA_CAMARA
 10
2192.574105064463
 20
1372.677383620663
 30
0.0
  0
VERTEX
  5
1B9
  8
2D$CAMA_CAMARA
 10
2192.491436862244
 20
1372.737877965447
 30
0.0
  0
VERTEX
  5
1BA
  8
2D$CAMA_CAMARA
 10
2192.41088219783
 20
1372.801159427581
 30
0.0
  0
VERTEX
  5
1BB
  8
2D$CAMA_CAMARA
 10
2192.332534994354
 20
1372.867154223712
 30
0.0
  0
VERTEX
  5
1BC
  8
2D$CAMA_CAMARA
 10
2192.256486601152
 20
1372.93578540686
 30
0.0
  0
VERTEX
  5
1BD
  8
2D$CAMA_CAMARA
 10
2192.182825687248
 20
1373.006972956135
 30
0.0
  0
VERTEX
  5
1BE
  8
2D$CAMA_CAMARA
 10
2192.111638137973
 20
1373.080633870038
 30
0.0
  0
VERTEX
  5
1BF
  8
2D$CAMA_CAMARA
 10
2192.043006954826
 20
1373.15668226324
 30
0.0
  0
VERTEX
  5
1C0
  8
2D$CAMA_CAMARA
 10
2191.977012158694
 20
1373.235029466716
 30
0.0
  0
VERTEX
  5
1C1
  8
2D$CAMA_CAMARA
 10
2191.91373069656
 20
1373.315584131131
 30
0.0
  0
VERTEX
  5
1C2
  8
2D$CAMA_CAMARA
 10
2191.853236351777
 20
1373.39825233335
 30
0.0
  0
VERTEX
  5
1C3
  8
2D$CAMA_CAMARA
 10
2191.795599658044
 20
1373.482937685946
 30
0.0
  0
VERTEX
  5
1C4
  8
2D$CAMA_CAMARA
 10
2191.740887817168
 20
1373.569541449588
 30
0.0
  0
VERTEX
  5
1C5
  8
2D$CAMA_CAMARA
 10
2191.68916462071
 20
1373.65796264816
 30
0.0
  0
VERTEX
  5
1C6
  8
2D$CAMA_CAMARA
 10
2191.640490375601
 20
1373.748098186501
 30
0.0
  0
VERTEX
  5
1C7
  8
2D$CAMA_CAMARA
 10
2191.594921833834
 20
1373.839842970604
 30
0.0
  0
VERTEX
  5
1C8
  8
2D$CAMA_CAMARA
 10
2191.552512126291
 20
1373.933090030155
 30
0.0
  0
VERTEX
  5
1C9
  8
2D$CAMA_CAMARA
 10
2191.513310700794
 20
1374.027730643255
 30
0.0
  0
VERTEX
  5
1CA
  8
2D$CAMA_CAMARA
 10
2191.477363264451
 20
1374.123654463181
 30
0.0
  0
VERTEX
  5
1CB
  8
2D$CAMA_CAMARA
 10
2191.444711730365
 20
1374.220749647051
 30
0.0
  0
VERTEX
  5
1CC
  8
2D$CAMA_CAMARA
 10
2191.415394168764
 20
1374.318902986223
 30
0.0
  0
VERTEX
  5
1CD
  8
2D$CAMA_CAMARA
 10
2191.389444762614
 20
1374.418000038295
 30
0.0
  0
VERTEX
  5
1CE
  8
2D$CAMA_CAMARA
 10
2191.366893767761
 20
1374.517925260536
 30
0.0
  0
VERTEX
  5
1CF
  8
2D$CAMA_CAMARA
 10
2191.347767477656
 20
1374.618562144608
 30
0.0
  0
VERTEX
  5
1D0
  8
2D$CAMA_CAMARA
 10
2191.332088192699
 20
1374.719793352406
 30
0.0
  0
VERTEX
  5
1D1
  8
2D$CAMA_CAMARA
 10
2191.319874194233
 20
1374.821500852868
 30
0.0
  0
VERTEX
  5
1D2
  8
2D$CAMA_CAMARA
 10
2191.311139723236
 20
1374.9235660596
 30
0.0
  0
VERTEX
  5
1D3
  8
2D$CAMA_CAMARA
 10
2191.305894963709
 20
1375.025869969136
 30
0.0
  0
VERTEX
  5
1D4
  8
2D$CAMA_CAMARA
 10
2191.304146030808
 20
1375.128293299694
 30
0.0
  0
VERTEX
  5
1D5
  8
2D$CAMA_CAMARA
 10
2191.304146030807
 20
1403.628296012019
 30
0.0
  0
VERTEX
  5
1D6
  8
2D$CAMA_CAMARA
 10
2191.303563050657
 20
1403.662437195861
 30
0.0
  0
VERTEX
  5
1D7
  8
2D$CAMA_CAMARA
 10
2191.301814789939
 20
1403.696538572437
 30
0.0
  0
VERTEX
  5
1D8
  8
2D$CAMA_CAMARA
 10
2191.298903287055
 20
1403.730560380898
 30
0.0
  0
VERTEX
  5
1D9
  8
2D$CAMA_CAMARA
 10
2191.294831936702
 20
1403.764462953164
 30
0.0
  0
VERTEX
  5
1DA
  8
2D$CAMA_CAMARA
 10
2191.289605485913
 20
1403.798206760183
 30
0.0
  0
VERTEX
  5
1DB
  8
2D$CAMA_CAMARA
 10
2191.283230028523
 20
1403.831752458015
 30
0.0
  0
VERTEX
  5
1DC
  8
2D$CAMA_CAMARA
 10
2191.27571299806
 20
1403.865060933708
 30
0.0
  0
VERTEX
  5
1DD
  8
2D$CAMA_CAMARA
 10
2191.267063159085
 20
1403.898093350902
 30
0.0
  0
VERTEX
  5
1DE
  8
2D$CAMA_CAMARA
 10
2191.257290596967
 20
1403.93081119511
 30
0.0
  0
VERTEX
  5
1DF
  8
2D$CAMA_CAMARA
 10
2191.246406706124
 20
1403.963176318624
 30
0.0
  0
VERTEX
  5
1E0
  8
2D$CAMA_CAMARA
 10
2191.234424176741
 20
1403.995150984995
 30
0.0
  0
VERTEX
  5
1E1
  8
2D$CAMA_CAMARA
 10
2191.221356979973
 20
1404.026697913032
 30
0.0
  0
VERTEX
  5
1E2
  8
2D$CAMA_CAMARA
 10
2191.20722035165
 20
1404.057780320269
 30
0.0
  0
VERTEX
  5
1E3
  8
2D$CAMA_CAMARA
 10
2191.192030774523
 20
1404.088361965853
 30
0.0
  0
VERTEX
  5
1E4
  8
2D$CAMA_CAMARA
 10
2191.175805959032
 20
1404.1184071928
 30
0.0
  0
VERTEX
  5
1E5
  8
2D$CAMA_CAMARA
 10
2191.158564822671
 20
1404.147880969567
 30
0.0
  0
VERTEX
  5
1E6
  8
2D$CAMA_CAMARA
 10
2191.140327467918
 20
1404.176748930902
 30
0.0
  0
VERTEX
  5
1E7
  8
2D$CAMA_CAMARA
 10
2191.121115158806
 20
1404.204977417906
 30
0.0
  0
VERTEX
  5
1E8
  8
2D$CAMA_CAMARA
 10
2191.100950296125
 20
1404.232533517286
 30
0.0
  0
VERTEX
  5
1E9
  8
2D$CAMA_CAMARA
 10
2191.079856391304
 20
1404.259385099722
 30
0.0
  0
VERTEX
  5
1EA
  8
2D$CAMA_CAMARA
 10
2191.057858038998
 20
1404.285500857337
 30
0.0
  0
VERTEX
  5
1EB
  8
2D$CAMA_CAMARA
 10
2191.034980888413
 20
1404.310850340193
 30
0.0
  0
VERTEX
  5
1EC
  8
2D$CAMA_CAMARA
 10
2191.011251613397
 20
1404.3354039918
 30
0.0
  0
VERTEX
  5
1ED
  8
2D$CAMA_CAMARA
 10
2190.986697881345
 20
1404.359133183574
 30
0.0
  0
VERTEX
  5
1EE
  8
2D$CAMA_CAMARA
 10
2190.961348320933
 20
1404.382010248221
 30
0.0
  0
VERTEX
  5
1EF
  8
2D$CAMA_CAMARA
 10
2190.93523248874
 20
1404.404008511991
 30
0.0
  0
VERTEX
  5
1F0
  8
2D$CAMA_CAMARA
 10
2190.908380834793
 20
1404.425102325782
 30
0.0
  0
VERTEX
  5
1F1
  8
2D$CAMA_CAMARA
 10
2190.880824667052
 20
1404.445267095044
 30
0.0
  0
VERTEX
  5
1F2
  8
2D$CAMA_CAMARA
 10
2190.852596114915
 20
1404.464479308457
 30
0.0
  0
VERTEX
  5
1F3
  8
2D$CAMA_CAMARA
 10
2190.823728091754
 20
1404.482716565343
 30
0.0
  0
VERTEX
  5
1F4
  8
2D$CAMA_CAMARA
 10
2190.794254256537
 20
1404.499957601784
 30
0.0
  0
VERTEX
  5
1F5
  8
2D$CAMA_CAMARA
 10
2190.764208974586
 20
1404.516182315417
 30
0.0
  0
VERTEX
  5
1F6
  8
2D$CAMA_CAMARA
 10
2190.733627277507
 20
1404.531371788869
 30
0.0
  0
VERTEX
  5
1F7
  8
2D$CAMA_CAMARA
 10
2190.702544822345
 20
1404.545508311817
 30
0.0
  0
VERTEX
  5
1F8
  8
2D$CAMA_CAMARA
 10
2190.670997850008
 20
1404.558575401637
 30
0.0
  0
VERTEX
  5
1F9
  8
2D$CAMA_CAMARA
 10
2190.639023143015
 20
1404.570557822621
 30
0.0
  0
VERTEX
  5
1FA
  8
2D$CAMA_CAMARA
 10
2190.606657982603
 20
1404.581441603742
 30
0.0
  0
VERTEX
  5
1FB
  8
2D$CAMA_CAMARA
 10
2190.573940105265
 20
1404.591214054942
 30
0.0
  0
VERTEX
  5
1FC
  8
2D$CAMA_CAMARA
 10
2190.540907658747
 20
1404.599863781933
 30
0.0
  0
VERTEX
  5
1FD
  8
2D$CAMA_CAMARA
 10
2190.50759915757
 20
1404.607380699475
 30
0.0
  0
VERTEX
  5
1FE
  8
2D$CAMA_CAMARA
 10
2190.474053438125
 20
1404.613756043141
 30
0.0
  0
VERTEX
  5
1FF
  8
2D$CAMA_CAMARA
 10
2190.440309613388
 20
1404.618982379533
 30
0.0
  0
VERTEX
  5
200
  8
2D$CAMA_CAMARA
 10
2190.406407027319
 20
1404.623053614951
 30
0.0
  0
VERTEX
  5
201
  8
2D$CAMA_CAMARA
 10
2190.372385208989
 20
1404.625965002497
 30
0.0
  0
VERTEX
  5
202
  8
2D$CAMA_CAMARA
 10
2190.338283826486
 20
1404.627713147607
 30
0.0
  0
SEQEND
  5
203
  8
2D$CAMA_CAMARA
  0
CIRCLE
  5
204
  8
2D$CAMA_CAMARA
 10
2220.500064676207
 20
1347.999999999882
 30
0.0
 40
1.250005439838434
  0
CIRCLE
  5
205
  8
2D$CAMA_CAMARA
 10
2182.499935323794
 20
1347.999999999882
 30
0.0
 40
1.250005439838434
  0
LINE
  5
206
  8
2D$CAMA_CAMARA
 10
2233.000000000001
 20
1437.999992263656
 30
0.0
 11
2233.000000000001
 21
1407.999992263656
 31
0.0
  0
LINE
  5
207
  8
2D$CAMA_CAMARA
 10
2233.000000000001
 20
1407.999992263656
 30
0.0
 11
2233.000000000001
 21
1405.999992263656
 31
0.0
  0
LINE
  5
208
  8
2D$CAMA_CAMARA
 10
2233.000000000001
 20
1405.999992263656
 30
0.0
 11
2230.000000000001
 21
1405.999992263656
 31
0.0
  0
LINE
  5
209
  8
2D$CAMA_CAMARA
 10
2230.000000000001
 20
1405.999992263656
 30
0.0
 11
2230.000000000001
 21
1407.999992263656
 31
0.0
  0
LINE
  5
20A
  8
2D$CAMA_CAMARA
 10
2230.000000000001
 20
1407.999992263656
 30
0.0
 11
2173.0
 21
1407.999992263656
 31
0.0
  0
LINE
  5
20B
  8
2D$CAMA_CAMARA
 10
2173.0
 20
1407.999992263656
 30
0.0
 11
2173.0
 21
1405.999992263656
 31
0.0
  0
LINE
  5
20C
  8
2D$CAMA_CAMARA
 10
2173.0
 20
1405.999992263656
 30
0.0
 11
2170.0
 21
1405.999992263656
 31
0.0
  0
LINE
  5
20D
  8
2D$CAMA_CAMARA
 10
2170.0
 20
1405.999992263656
 30
0.0
 11
2170.000000000001
 21
1407.999992263656
 31
0.0
  0
LINE
  5
20E
  8
2D$CAMA_CAMARA
 10
2170.000000000001
 20
1407.999992263656
 30
0.0
 11
2170.000000000001
 21
1437.999992263656
 31
0.0
  0
LINE
  5
20F
  8
2D$CAMA_CAMARA
 10
2170.000000000001
 20
1437.999992263656
 30
0.0
 11
2233.000000000001
 21
1437.999992263656
 31
0.0
  0
LINE
  5
210
  8
2D$CAMA_CAMARA
 10
2203.500000000001
 20
1412.999992263656
 30
0.0
 11
2209.000000000001
 21
1412.999992263656
 31
0.0
  0
LINE
  5
211
  8
2D$CAMA_CAMARA
 10
2209.000000000001
 20
1412.999992263656
 30
0.0
 11
2209.000000000001
 21
1415.999992263656
 31
0.0
  0
LINE
  5
212
  8
2D$CAMA_CAMARA
 10
2209.000000000001
 20
1415.999992263656
 30
0.0
 11
2203.500000000001
 21
1415.999992263612
 31
0.0
  0
LINE
  5
213
  8
2D$CAMA_CAMARA
 10
2203.500000000001
 20
1415.999992263612
 30
0.0
 11
2194.000000000001
 21
1415.999992263656
 31
0.0
  0
LINE
  5
214
  8
2D$CAMA_CAMARA
 10
2194.000000000001
 20
1415.999992263656
 30
0.0
 11
2194.000000000001
 21
1412.999992263656
 31
0.0
  0
LINE
  5
215
  8
2D$CAMA_CAMARA
 10
2194.000000000001
 20
1412.999992263656
 30
0.0
 11
2203.500000000001
 21
1412.999992263656
 31
0.0
  0
CIRCLE
  5
216
  8
2D$CAMA_CAMARA
 10
2220.500064676208
 20
1423.0
 30
0.0
 40
1.250005439838434
  0
CIRCLE
  5
217
  8
2D$CAMA_CAMARA
 10
2182.499935323794
 20
1423.0
 30
0.0
 40
1.250005439838434
  0
LINE
  5
218
  8
2D$CAMA_CAMARA
 10
2199.500000000001
 20
1424.499992263656
 30
0.0
 11
2203.500000000001
 21
1424.499992263657
 31
0.0
  0
LINE
  5
219
  8
2D$CAMA_CAMARA
 10
2203.500000000001
 20
1424.499992263657
 30
0.0
 11
2209.000000000001
 21
1424.499992263656
 31
0.0
  0
LINE
  5
21A
  8
2D$CAMA_CAMARA
 10
2209.000000000001
 20
1424.499992263656
 30
0.0
 11
2209.000000000001
 21
1427.499992263656
 31
0.0
  0
LINE
  5
21B
  8
2D$CAMA_CAMARA
 10
2209.000000000001
 20
1427.499992263656
 30
0.0
 11
2203.500000000001
 21
1427.499992263656
 31
0.0
  0
LINE
  5
21C
  8
2D$CAMA_CAMARA
 10
2203.500000000001
 20
1427.499992263656
 30
0.0
 11
2203.500000000001
 21
1429.999992263538
 31
0.0
  0
LINE
  5
21D
  8
2D$CAMA_CAMARA
 10
2203.500000000001
 20
1429.999992263538
 30
0.0
 11
2199.500000000001
 21
1429.999992263538
 31
0.0
  0
LINE
  5
21E
  8
2D$CAMA_CAMARA
 10
2199.500000000001
 20
1429.999992263538
 30
0.0
 11
2199.500000000001
 21
1427.499992263656
 31
0.0
  0
LINE
  5
21F
  8
2D$CAMA_CAMARA
 10
2199.500000000001
 20
1427.499992263656
 30
0.0
 11
2194.000000000001
 21
1427.499992263656
 31
0.0
  0
LINE
  5
220
  8
2D$CAMA_CAMARA
 10
2194.000000000001
 20
1427.499992263656
 30
0.0
 11
2194.000000000001
 21
1424.499992263656
 31
0.0
  0
LINE
  5
221
  8
2D$CAMA_CAMARA
 10
2194.000000000001
 20
1424.499992263656
 30
0.0
 11
2199.500000000001
 21
1424.499992263656
 31
0.0
  0
LINE
  5
222
  8
2D$CAMA_CAMARA
 10
2233.000000000001
 20
1471.999992263656
 30
0.0
 11
2233.000000000001
 21
1441.999992263656
 31
0.0
  0
LINE
  5
223
  8
2D$CAMA_CAMARA
 10
2233.000000000001
 20
1441.999992263656
 30
0.0
 11
2233.000000000001
 21
1439.999992263656
 31
0.0
  0
LINE
  5
224
  8
2D$CAMA_CAMARA
 10
2233.000000000001
 20
1439.999992263656
 30
0.0
 11
2230.000000000001
 21
1439.999992263656
 31
0.0
  0
LINE
  5
225
  8
2D$CAMA_CAMARA
 10
2230.000000000001
 20
1439.999992263656
 30
0.0
 11
2230.000000000001
 21
1441.999992263656
 31
0.0
  0
LINE
  5
226
  8
2D$CAMA_CAMARA
 10
2230.000000000001
 20
1441.999992263656
 30
0.0
 11
2203.500000000001
 21
1441.999992263656
 31
0.0
  0
LINE
  5
227
  8
2D$CAMA_CAMARA
 10
2203.500000000001
 20
1441.999992263656
 30
0.0
 11
2203.500000000001
 21
1446.999992263656
 31
0.0
  0
LINE
  5
228
  8
2D$CAMA_CAMARA
 10
2203.500000000001
 20
1446.999992263656
 30
0.0
 11
2209.000000000001
 21
1446.999992263656
 31
0.0
  0
LINE
  5
229
  8
2D$CAMA_CAMARA
 10
2209.000000000001
 20
1446.999992263656
 30
0.0
 11
2209.000000000001
 21
1449.999992263656
 31
0.0
  0
LINE
  5
22A
  8
2D$CAMA_CAMARA
 10
2209.000000000001
 20
1449.999992263656
 30
0.0
 11
2203.500000000001
 21
1449.999992263612
 31
0.0
  0
LINE
  5
22B
  8
2D$CAMA_CAMARA
 10
2203.500000000001
 20
1449.999992263612
 30
0.0
 11
2203.500000000001
 21
1458.499992263657
 31
0.0
  0
LINE
  5
22C
  8
2D$CAMA_CAMARA
 10
2203.500000000001
 20
1458.499992263657
 30
0.0
 11
2209.000000000001
 21
1458.499992263656
 31
0.0
  0
LINE
  5
22D
  8
2D$CAMA_CAMARA
 10
2209.000000000001
 20
1458.499992263656
 30
0.0
 11
2209.000000000001
 21
1461.499992263657
 31
0.0
  0
LINE
  5
22E
  8
2D$CAMA_CAMARA
 10
2209.000000000001
 20
1461.499992263657
 30
0.0
 11
2203.500000000001
 21
1461.499992263657
 31
0.0
  0
LINE
  5
22F
  8
2D$CAMA_CAMARA
 10
2203.500000000001
 20
1461.499992263657
 30
0.0
 11
2203.500000000001
 21
1463.999992263538
 31
0.0
  0
LINE
  5
230
  8
2D$CAMA_CAMARA
 10
2203.500000000001
 20
1463.999992263538
 30
0.0
 11
2199.500000000001
 21
1463.999992263538
 31
0.0
  0
LINE
  5
231
  8
2D$CAMA_CAMARA
 10
2199.500000000001
 20
1463.999992263538
 30
0.0
 11
2199.500000000001
 21
1461.499992263656
 31
0.0
  0
LINE
  5
232
  8
2D$CAMA_CAMARA
 10
2199.500000000001
 20
1461.499992263656
 30
0.0
 11
2194.000000000001
 21
1461.499992263656
 31
0.0
  0
LINE
  5
233
  8
2D$CAMA_CAMARA
 10
2194.000000000001
 20
1461.499992263656
 30
0.0
 11
2194.000000000001
 21
1458.499992263656
 31
0.0
  0
LINE
  5
234
  8
2D$CAMA_CAMARA
 10
2194.000000000001
 20
1458.499992263656
 30
0.0
 11
2199.500000000001
 21
1458.499992263656
 31
0.0
  0
LINE
  5
235
  8
2D$CAMA_CAMARA
 10
2199.500000000001
 20
1458.499992263656
 30
0.0
 11
2199.500000000001
 21
1449.999992263656
 31
0.0
  0
LINE
  5
236
  8
2D$CAMA_CAMARA
 10
2199.500000000001
 20
1449.999992263656
 30
0.0
 11
2194.000000000001
 21
1449.999992263656
 31
0.0
  0
LINE
  5
237
  8
2D$CAMA_CAMARA
 10
2194.000000000001
 20
1449.999992263656
 30
0.0
 11
2194.000000000001
 21
1446.999992263656
 31
0.0
  0
LINE
  5
238
  8
2D$CAMA_CAMARA
 10
2194.000000000001
 20
1446.999992263656
 30
0.0
 11
2199.500000000001
 21
1446.999992263656
 31
0.0
  0
LINE
  5
239
  8
2D$CAMA_CAMARA
 10
2199.500000000001
 20
1446.999992263656
 30
0.0
 11
2199.500000000001
 21
1441.999992263656
 31
0.0
  0
LINE
  5
23A
  8
2D$CAMA_CAMARA
 10
2199.500000000001
 20
1441.999992263656
 30
0.0
 11
2173.0
 21
1441.999992263656
 31
0.0
  0
LINE
  5
23B
  8
2D$CAMA_CAMARA
 10
2173.0
 20
1441.999992263656
 30
0.0
 11
2173.0
 21
1439.999992263656
 31
0.0
  0
LINE
  5
23C
  8
2D$CAMA_CAMARA
 10
2173.0
 20
1439.999992263656
 30
0.0
 11
2170.0
 21
1439.999992263656
 31
0.0
  0
LINE
  5
23D
  8
2D$CAMA_CAMARA
 10
2170.0
 20
1439.999992263656
 30
0.0
 11
2170.000000000001
 21
1441.999992263656
 31
0.0
  0
LINE
  5
23E
  8
2D$CAMA_CAMARA
 10
2170.000000000001
 20
1441.999992263656
 30
0.0
 11
2170.000000000001
 21
1471.999992263656
 31
0.0
  0
LINE
  5
23F
  8
2D$CAMA_CAMARA
 10
2170.000000000001
 20
1471.999992263656
 30
0.0
 11
2233.000000000001
 21
1471.999992263656
 31
0.0
  0
CIRCLE
  5
240
  8
2D$CAMA_CAMARA
 10
2182.499935323794
 20
1457.0
 30
0.0
 40
1.250005439838434
  0
CIRCLE
  5
241
  8
2D$CAMA_CAMARA
 10
2220.500064676208
 20
1457.0
 30
0.0
 40
1.250005439838434
  0
LINE
  5
242
  8
2D$CAMA_CAMARA
 10
2233.000000000001
 20
1506.999992263656
 30
0.0
 11
2233.000000000001
 21
1476.999992263656
 31
0.0
  0
LINE
  5
243
  8
2D$CAMA_CAMARA
 10
2233.000000000001
 20
1476.999992263656
 30
0.0
 11
2233.000000000001
 21
1474.999992263656
 31
0.0
  0
LINE
  5
244
  8
2D$CAMA_CAMARA
 10
2233.000000000001
 20
1474.999992263656
 30
0.0
 11
2230.000000000001
 21
1474.999992263656
 31
0.0
  0
LINE
  5
245
  8
2D$CAMA_CAMARA
 10
2230.000000000001
 20
1474.999992263656
 30
0.0
 11
2230.000000000001
 21
1476.999992263656
 31
0.0
  0
LINE
  5
246
  8
2D$CAMA_CAMARA
 10
2230.000000000001
 20
1476.999992263656
 30
0.0
 11
2203.500000000001
 21
1476.999992263656
 31
0.0
  0
LINE
  5
247
  8
2D$CAMA_CAMARA
 10
2203.500000000001
 20
1476.999992263656
 30
0.0
 11
2203.500000000001
 21
1481.999992263656
 31
0.0
  0
LINE
  5
248
  8
2D$CAMA_CAMARA
 10
2203.500000000001
 20
1481.999992263656
 30
0.0
 11
2209.000000000001
 21
1481.999992263656
 31
0.0
  0
LINE
  5
249
  8
2D$CAMA_CAMARA
 10
2209.000000000001
 20
1481.999992263656
 30
0.0
 11
2209.000000000001
 21
1484.999992263656
 31
0.0
  0
LINE
  5
24A
  8
2D$CAMA_CAMARA
 10
2209.000000000001
 20
1484.999992263656
 30
0.0
 11
2203.500000000001
 21
1484.999992263612
 31
0.0
  0
LINE
  5
24B
  8
2D$CAMA_CAMARA
 10
2203.500000000001
 20
1484.999992263612
 30
0.0
 11
2203.500000000001
 21
1493.499992263657
 31
0.0
  0
LINE
  5
24C
  8
2D$CAMA_CAMARA
 10
2203.500000000001
 20
1493.499992263657
 30
0.0
 11
2209.000000000001
 21
1493.499992263656
 31
0.0
  0
LINE
  5
24D
  8
2D$CAMA_CAMARA
 10
2209.000000000001
 20
1493.499992263656
 30
0.0
 11
2209.000000000001
 21
1496.499992263657
 31
0.0
  0
LINE
  5
24E
  8
2D$CAMA_CAMARA
 10
2209.000000000001
 20
1496.499992263657
 30
0.0
 11
2203.500000000001
 21
1496.499992263657
 31
0.0
  0
LINE
  5
24F
  8
2D$CAMA_CAMARA
 10
2203.500000000001
 20
1496.499992263657
 30
0.0
 11
2203.500000000001
 21
1498.999992263538
 31
0.0
  0
LINE
  5
250
  8
2D$CAMA_CAMARA
 10
2203.500000000001
 20
1498.999992263538
 30
0.0
 11
2199.500000000001
 21
1498.999992263538
 31
0.0
  0
LINE
  5
251
  8
2D$CAMA_CAMARA
 10
2199.500000000001
 20
1498.999992263538
 30
0.0
 11
2199.500000000001
 21
1496.499992263656
 31
0.0
  0
LINE
  5
252
  8
2D$CAMA_CAMARA
 10
2199.500000000001
 20
1496.499992263656
 30
0.0
 11
2194.000000000001
 21
1496.499992263656
 31
0.0
  0
LINE
  5
253
  8
2D$CAMA_CAMARA
 10
2194.000000000001
 20
1496.499992263656
 30
0.0
 11
2194.000000000001
 21
1493.499992263656
 31
0.0
  0
LINE
  5
254
  8
2D$CAMA_CAMARA
 10
2194.000000000001
 20
1493.499992263656
 30
0.0
 11
2199.500000000001
 21
1493.499992263656
 31
0.0
  0
LINE
  5
255
  8
2D$CAMA_CAMARA
 10
2199.500000000001
 20
1493.499992263656
 30
0.0
 11
2199.500000000001
 21
1484.999992263656
 31
0.0
  0
LINE
  5
256
  8
2D$CAMA_CAMARA
 10
2199.500000000001
 20
1484.999992263656
 30
0.0
 11
2194.000000000001
 21
1484.999992263656
 31
0.0
  0
LINE
  5
257
  8
2D$CAMA_CAMARA
 10
2194.000000000001
 20
1484.999992263656
 30
0.0
 11
2194.000000000001
 21
1481.999992263656
 31
0.0
  0
LINE
  5
258
  8
2D$CAMA_CAMARA
 10
2194.000000000001
 20
1481.999992263656
 30
0.0
 11
2199.500000000001
 21
1481.999992263656
 31
0.0
  0
LINE
  5
259
  8
2D$CAMA_CAMARA
 10
2199.500000000001
 20
1481.999992263656
 30
0.0
 11
2199.500000000001
 21
1476.999992263656
 31
0.0
  0
LINE
  5
25A
  8
2D$CAMA_CAMARA
 10
2199.500000000001
 20
1476.999992263656
 30
0.0
 11
2173.0
 21
1476.999992263656
 31
0.0
  0
LINE
  5
25B
  8
2D$CAMA_CAMARA
 10
2173.0
 20
1476.999992263656
 30
0.0
 11
2173.0
 21
1474.999992263656
 31
0.0
  0
LINE
  5
25C
  8
2D$CAMA_CAMARA
 10
2173.0
 20
1474.999992263656
 30
0.0
 11
2170.0
 21
1474.999992263656
 31
0.0
  0
LINE
  5
25D
  8
2D$CAMA_CAMARA
 10
2170.0
 20
1474.999992263656
 30
0.0
 11
2170.000000000001
 21
1476.999992263656
 31
0.0
  0
LINE
  5
25E
  8
2D$CAMA_CAMARA
 10
2170.000000000001
 20
1476.999992263656
 30
0.0
 11
2170.000000000001
 21
1506.999992263656
 31
0.0
  0
LINE
  5
25F
  8
2D$CAMA_CAMARA
 10
2170.000000000001
 20
1506.999992263656
 30
0.0
 11
2233.000000000001
 21
1506.999992263656
 31
0.0
  0
CIRCLE
  5
260
  8
2D$CAMA_CAMARA
 10
2220.500064676208
 20
1492.0
 30
0.0
 40
1.250005439838434
  0
CIRCLE
  5
261
  8
2D$CAMA_CAMARA
 10
2182.499935323794
 20
1492.0
 30
0.0
 40
1.250005439838434
  0
LINE
  5
262
  8
2D$CAMA_CAMARA
 10
2233.000000000001
 20
1540.999992263656
 30
0.0
 11
2233.000000000001
 21
1510.999992263656
 31
0.0
  0
LINE
  5
263
  8
2D$CAMA_CAMARA
 10
2233.000000000001
 20
1510.999992263656
 30
0.0
 11
2233.000000000001
 21
1508.999992263656
 31
0.0
  0
LINE
  5
264
  8
2D$CAMA_CAMARA
 10
2233.000000000001
 20
1508.999992263656
 30
0.0
 11
2230.000000000001
 21
1508.999992263656
 31
0.0
  0
LINE
  5
265
  8
2D$CAMA_CAMARA
 10
2230.000000000001
 20
1508.999992263656
 30
0.0
 11
2230.000000000001
 21
1510.999992263656
 31
0.0
  0
LINE
  5
266
  8
2D$CAMA_CAMARA
 10
2230.000000000001
 20
1510.999992263656
 30
0.0
 11
2173.0
 21
1510.999992263656
 31
0.0
  0
LINE
  5
267
  8
2D$CAMA_CAMARA
 10
2173.0
 20
1510.999992263656
 30
0.0
 11
2173.0
 21
1508.999992263656
 31
0.0
  0
LINE
  5
268
  8
2D$CAMA_CAMARA
 10
2173.0
 20
1508.999992263656
 30
0.0
 11
2170.0
 21
1508.999992263656
 31
0.0
  0
LINE
  5
269
  8
2D$CAMA_CAMARA
 10
2170.0
 20
1508.999992263656
 30
0.0
 11
2170.000000000001
 21
1510.999992263656
 31
0.0
  0
LINE
  5
26A
  8
2D$CAMA_CAMARA
 10
2170.000000000001
 20
1510.999992263656
 30
0.0
 11
2170.000000000001
 21
1540.999992263656
 31
0.0
  0
LINE
  5
26B
  8
2D$CAMA_CAMARA
 10
2170.000000000001
 20
1540.999992263656
 30
0.0
 11
2233.000000000001
 21
1540.999992263656
 31
0.0
  0
LINE
  5
26C
  8
2D$CAMA_CAMARA
 10
2203.500000000001
 20
1515.999992263656
 30
0.0
 11
2209.000000000001
 21
1515.999992263656
 31
0.0
  0
LINE
  5
26D
  8
2D$CAMA_CAMARA
 10
2209.000000000001
 20
1515.999992263656
 30
0.0
 11
2209.000000000001
 21
1518.999992263656
 31
0.0
  0
LINE
  5
26E
  8
2D$CAMA_CAMARA
 10
2209.000000000001
 20
1518.999992263656
 30
0.0
 11
2203.500000000001
 21
1518.999992263612
 31
0.0
  0
LINE
  5
26F
  8
2D$CAMA_CAMARA
 10
2203.500000000001
 20
1518.999992263612
 30
0.0
 11
2194.000000000001
 21
1518.999992263656
 31
0.0
  0
LINE
  5
270
  8
2D$CAMA_CAMARA
 10
2194.000000000001
 20
1518.999992263656
 30
0.0
 11
2194.000000000001
 21
1515.999992263656
 31
0.0
  0
LINE
  5
271
  8
2D$CAMA_CAMARA
 10
2194.000000000001
 20
1515.999992263656
 30
0.0
 11
2203.500000000001
 21
1515.999992263656
 31
0.0
  0
CIRCLE
  5
272
  8
2D$CAMA_CAMARA
 10
2220.500064676208
 20
1526.0
 30
0.0
 40
1.250005439838434
  0
CIRCLE
  5
273
  8
2D$CAMA_CAMARA
 10
2182.499935323794
 20
1526.0
 30
0.0
 40
1.250005439838434
  0
LINE
  5
274
  8
2D$CAMA_CAMARA
 10
2199.500000000001
 20
1527.499992263656
 30
0.0
 11
2203.500000000001
 21
1527.499992263657
 31
0.0
  0
LINE
  5
275
  8
2D$CAMA_CAMARA
 10
2203.500000000001
 20
1527.499992263657
 30
0.0
 11
2209.000000000001
 21
1527.499992263656
 31
0.0
  0
LINE
  5
276
  8
2D$CAMA_CAMARA
 10
2209.000000000001
 20
1527.499992263656
 30
0.0
 11
2209.000000000001
 21
1530.499992263656
 31
0.0
  0
LINE
  5
277
  8
2D$CAMA_CAMARA
 10
2209.000000000001
 20
1530.499992263656
 30
0.0
 11
2203.500000000001
 21
1530.499992263656
 31
0.0
  0
LINE
  5
278
  8
2D$CAMA_CAMARA
 10
2203.500000000001
 20
1530.499992263656
 30
0.0
 11
2203.500000000001
 21
1532.999992263538
 31
0.0
  0
LINE
  5
279
  8
2D$CAMA_CAMARA
 10
2203.500000000001
 20
1532.999992263538
 30
0.0
 11
2199.500000000001
 21
1532.999992263538
 31
0.0
  0
LINE
  5
27A
  8
2D$CAMA_CAMARA
 10
2199.500000000001
 20
1532.999992263538
 30
0.0
 11
2199.500000000001
 21
1530.499992263656
 31
0.0
  0
LINE
  5
27B
  8
2D$CAMA_CAMARA
 10
2199.500000000001
 20
1530.499992263656
 30
0.0
 11
2194.000000000001
 21
1530.499992263656
 31
0.0
  0
LINE
  5
27C
  8
2D$CAMA_CAMARA
 10
2194.000000000001
 20
1530.499992263656
 30
0.0
 11
2194.000000000001
 21
1527.499992263656
 31
0.0
  0
LINE
  5
27D
  8
2D$CAMA_CAMARA
 10
2194.000000000001
 20
1527.499992263656
 30
0.0
 11
2199.500000000001
 21
1527.499992263656
 31
0.0
  0
CIRCLE
  5
27E
  8
2D$CAMA_CAMARA
 10
2220.500064676208
 20
1560.000007736344
 30
0.0
 40
1.250005439838434
  0
CIRCLE
  5
27F
  8
2D$CAMA_CAMARA
 10
2182.499935323794
 20
1560.000007736344
 30
0.0
 40
1.250005439838434
  0
LINE
  5
280
  8
2D$CAMA_CAMARA
 10
2233.000000000001
 20
1575.0
 30
0.0
 11
2233.000000000001
 21
1545.0
 31
0.0
  0
LINE
  5
281
  8
2D$CAMA_CAMARA
 10
2233.000000000001
 20
1545.0
 30
0.0
 11
2233.000000000001
 21
1543.0
 31
0.0
  0
LINE
  5
282
  8
2D$CAMA_CAMARA
 10
2233.000000000001
 20
1543.0
 30
0.0
 11
2230.000000000001
 21
1543.0
 31
0.0
  0
LINE
  5
283
  8
2D$CAMA_CAMARA
 10
2230.000000000001
 20
1543.0
 30
0.0
 11
2230.000000000001
 21
1545.0
 31
0.0
  0
LINE
  5
284
  8
2D$CAMA_CAMARA
 10
2230.000000000001
 20
1545.0
 30
0.0
 11
2173.0
 21
1545.0
 31
0.0
  0
LINE
  5
285
  8
2D$CAMA_CAMARA
 10
2173.0
 20
1545.0
 30
0.0
 11
2173.0
 21
1543.0
 31
0.0
  0
LINE
  5
286
  8
2D$CAMA_CAMARA
 10
2173.0
 20
1543.0
 30
0.0
 11
2170.0
 21
1543.0
 31
0.0
  0
LINE
  5
287
  8
2D$CAMA_CAMARA
 10
2170.0
 20
1543.0
 30
0.0
 11
2170.000000000001
 21
1545.0
 31
0.0
  0
LINE
  5
288
  8
2D$CAMA_CAMARA
 10
2170.000000000001
 20
1545.0
 30
0.0
 11
2170.000000000001
 21
1575.0
 31
0.0
  0
LINE
  5
289
  8
2D$CAMA_CAMARA
 10
2170.000000000001
 20
1575.0
 30
0.0
 11
2233.000000000001
 21
1575.0
 31
0.0
  0
LINE
  5
28A
  8
2D$CAMA_CAMARA
 10
2256.246019444546
 20
1551.0
 30
0.0
 11
2259.746019444546
 21
1551.0
 31
0.0
  0
LINE
  5
28B
  8
2D$CAMA_CAMARA
 10
2259.746019444546
 20
1551.0
 30
0.0
 11
2259.746019444546
 21
1570.0
 31
0.0
  0
LINE
  5
28C
  8
2D$CAMA_CAMARA
 10
2259.746019444546
 20
1570.0
 30
0.0
 11
2256.246019444546
 21
1570.0
 31
0.0
  0
LINE
  5
28D
  8
2D$CAMA_CAMARA
 10
2256.246019444546
 20
1570.0
 30
0.0
 11
2256.246019444546
 21
1551.0
 31
0.0
  0
LINE
  5
28E
  8
2D$CAMA_CAMARA
 10
2319.746019444546
 20
1551.0
 30
0.0
 11
2316.246019444546
 21
1551.0
 31
0.0
  0
LINE
  5
28F
  8
2D$CAMA_CAMARA
 10
2316.246019444546
 20
1551.0
 30
0.0
 11
2316.246019444546
 21
1570.0
 31
0.0
  0
LINE
  5
290
  8
2D$CAMA_CAMARA
 10
2316.246019444546
 20
1570.0
 30
0.0
 11
2319.746019444546
 21
1570.0
 31
0.0
  0
LINE
  5
291
  8
2D$CAMA_CAMARA
 10
2319.746019444546
 20
1570.0
 30
0.0
 11
2319.746019444546
 21
1551.0
 31
0.0
  0
CIRCLE
  5
292
  8
2D$CAMA_CAMARA
 10
2287.996019444546
 20
1560.5
 30
0.0
 40
1.75
  0
LINE
  5
293
  8
2D$CAMA_CAMARA
 10
2237.496019444546
 20
1572.0
 30
0.0
 11
2237.496758525466
 21
1572.066587831285
 31
0.0
  0
LINE
  5
294
  8
2D$CAMA_CAMARA
 10
2237.496758525466
 20
1572.066587831285
 30
0.0
 11
2237.499002024429
 21
1572.133740732446
 31
0.0
  0
LINE
  5
295
  8
2D$CAMA_CAMARA
 10
2237.499002024429
 20
1572.133740732446
 30
0.0
 11
2237.502788395779
 21
1572.201414718168
 31
0.0
  0
LINE
  5
296
  8
2D$CAMA_CAMARA
 10
2237.502788395779
 20
1572.201414718168
 30
0.0
 11
2237.508154718708
 21
1572.269563313693
 31
0.0
  0
LINE
  5
297
  8
2D$CAMA_CAMARA
 10
2237.508154718708
 20
1572.269563313693
 30
0.0
 11
2237.51513652596
 21
1572.338137583951
 31
0.0
  0
LINE
  5
298
  8
2D$CAMA_CAMARA
 10
2237.51513652596
 20
1572.338137583951
 30
0.0
 11
2237.523767630541
 21
1572.407086175331
 31
0.0
  0
LINE
  5
299
  8
2D$CAMA_CAMARA
 10
2237.523767630541
 20
1572.407086175331
 30
0.0
 11
2237.534079951423
 21
1572.476355370574
 31
0.0
  0
LINE
  5
29A
  8
2D$CAMA_CAMARA
 10
2237.534079951423
 20
1572.476355370574
 30
0.0
 11
2237.546103339297
 21
1572.545889157236
 31
0.0
  0
LINE
  5
29B
  8
2D$CAMA_CAMARA
 10
2237.546103339297
 20
1572.545889157236
 30
0.0
 11
2237.559865403518
 21
1572.615629310016
 31
0.0
  0
LINE
  5
29C
  8
2D$CAMA_CAMARA
 10
2237.559865403518
 20
1572.615629310016
 30
0.0
 11
2237.575391341418
 21
1572.685515487219
 31
0.0
  0
LINE
  5
29D
  8
2D$CAMA_CAMARA
 10
2237.575391341418
 20
1572.685515487219
 30
0.0
 11
2237.592703771241
 21
1572.755485341445
 31
0.0
  0
LINE
  5
29E
  8
2D$CAMA_CAMARA
 10
2237.592703771241
 20
1572.755485341445
 30
0.0
 11
2237.611822569985
 21
1572.825474644535
 31
0.0
  0
LINE
  5
29F
  8
2D$CAMA_CAMARA
 10
2237.611822569985
 20
1572.825474644535
 30
0.0
 11
2237.632764717479
 21
1572.895417426638
 31
0.0
  0
LINE
  5
2A0
  8
2D$CAMA_CAMARA
 10
2237.632764717479
 20
1572.895417426638
 30
0.0
 11
2237.655544148021
 21
1572.965246129145
 31
0.0
  0
LINE
  5
2A1
  8
2D$CAMA_CAMARA
 10
2237.655544148021
 20
1572.965246129145
 30
0.0
 11
2237.680171610934
 21
1573.034891771124
 31
0.0
  0
LINE
  5
2A2
  8
2D$CAMA_CAMARA
 10
2237.680171610934
 20
1573.034891771124
 30
0.0
 11
2237.706654541359
 21
1573.104284128685
 31
0.0
  0
LINE
  5
2A3
  8
2D$CAMA_CAMARA
 10
2237.706654541359
 20
1573.104284128685
 30
0.0
 11
2237.7349969426
 21
1573.173351926639
 31
0.0
  0
LINE
  5
2A4
  8
2D$CAMA_CAMARA
 10
2237.7349969426
 20
1573.173351926639
 30
0.0
 11
2237.765199281276
 21
1573.242023041604
 31
0.0
  0
LINE
  5
2A5
  8
2D$CAMA_CAMARA
 10
2237.765199281276
 20
1573.242023041604
 30
0.0
 11
2237.797258396477
 21
1573.310224715622
 31
0.0
  0
LINE
  5
2A6
  8
2D$CAMA_CAMARA
 10
2237.797258396477
 20
1573.310224715622
 30
0.0
 11
2237.831167424057
 21
1573.377883779168
 31
0.0
  0
LINE
  5
2A7
  8
2D$CAMA_CAMARA
 10
2237.831167424057
 20
1573.377883779168
 30
0.0
 11
2237.866915737073
 21
1573.444926882354
 31
0.0
  0
LINE
  5
2A8
  8
2D$CAMA_CAMARA
 10
2237.866915737073
 20
1573.444926882354
 30
0.0
 11
2237.904488903303
 21
1573.511280732957
 31
0.0
  0
LINE
  5
2A9
  8
2D$CAMA_CAMARA
 10
2237.904488903303
 20
1573.511280732957
 30
0.0
 11
2237.943868660625
 21
1573.576872339833
 31
0.0
  0
LINE
  5
2AA
  8
2D$CAMA_CAMARA
 10
2237.943868660625
 20
1573.576872339833
 30
0.0
 11
2237.98503291089
 21
1573.641629260155
 31
0.0
  0
LINE
  5
2AB
  8
2D$CAMA_CAMARA
 10
2237.98503291089
 20
1573.641629260155
 30
0.0
 11
2238.02795573282
 21
1573.705479848857
 31
0.0
  0
LINE
  5
2AC
  8
2D$CAMA_CAMARA
 10
2238.02795573282
 20
1573.705479848857
 30
0.0
 11
2238.072607414219
 21
1573.768353508568
 31
0.0
  0
LINE
  5
2AD
  8
2D$CAMA_CAMARA
 10
2238.072607414219
 20
1573.768353508568
 30
0.0
 11
2238.118954503691
 21
1573.830180938312
 31
0.0
  0
LINE
  5
2AE
  8
2D$CAMA_CAMARA
 10
2238.118954503691
 20
1573.830180938312
 30
0.0
 11
2238.166959881822
 21
1573.890894379197
 31
0.0
  0
LINE
  5
2AF
  8
2D$CAMA_CAMARA
 10
2238.166959881822
 20
1573.890894379197
 30
0.0
 11
2238.216582851622
 21
1573.950427855328
 31
0.0
  0
LINE
  5
2B0
  8
2D$CAMA_CAMARA
 10
2238.216582851622
 20
1573.950427855328
 30
0.0
 11
2238.267779247869
 21
1574.008717408176
 31
0.0
  0
LINE
  5
2B1
  8
2D$CAMA_CAMARA
 10
2238.267779247869
 20
1574.008717408176
 30
0.0
 11
2238.320501564733
 21
1574.065701322702
 31
0.0
  0
LINE
  5
2B2
  8
2D$CAMA_CAMARA
 10
2238.320501564733
 20
1574.065701322702
 30
0.0
 11
2238.374699100986
 21
1574.121320343559
 31
0.0
  0
LINE
  5
2B3
  8
2D$CAMA_CAMARA
 10
2238.374699100986
 20
1574.121320343559
 30
0.0
 11
2238.430318121844
 21
1574.175517879813
 31
0.0
  0
LINE
  5
2B4
  8
2D$CAMA_CAMARA
 10
2238.430318121844
 20
1574.175517879813
 30
0.0
 11
2238.48730203637
 21
1574.228240196677
 31
0.0
  0
LINE
  5
2B5
  8
2D$CAMA_CAMARA
 10
2238.48730203637
 20
1574.228240196677
 30
0.0
 11
2238.545591589218
 21
1574.279436592923
 31
0.0
  0
LINE
  5
2B6
  8
2D$CAMA_CAMARA
 10
2238.545591589218
 20
1574.279436592923
 30
0.0
 11
2238.605125065349
 21
1574.329059562724
 31
0.0
  0
LINE
  5
2B7
  8
2D$CAMA_CAMARA
 10
2238.605125065349
 20
1574.329059562724
 30
0.0
 11
2238.665838506234
 21
1574.377064940854
 31
0.0
  0
LINE
  5
2B8
  8
2D$CAMA_CAMARA
 10
2238.665838506234
 20
1574.377064940854
 30
0.0
 11
2238.727665935978
 21
1574.423412030327
 31
0.0
  0
LINE
  5
2B9
  8
2D$CAMA_CAMARA
 10
2238.727665935978
 20
1574.423412030327
 30
0.0
 11
2238.790539595689
 21
1574.468063711726
 31
0.0
  0
LINE
  5
2BA
  8
2D$CAMA_CAMARA
 10
2238.790539595689
 20
1574.468063711726
 30
0.0
 11
2238.85439018439
 21
1574.510986533656
 31
0.0
  0
LINE
  5
2BB
  8
2D$CAMA_CAMARA
 10
2238.85439018439
 20
1574.510986533656
 30
0.0
 11
2238.919147104713
 21
1574.552150783921
 31
0.0
  0
LINE
  5
2BC
  8
2D$CAMA_CAMARA
 10
2238.919147104713
 20
1574.552150783921
 30
0.0
 11
2238.984738711588
 21
1574.591530541242
 31
0.0
  0
LINE
  5
2BD
  8
2D$CAMA_CAMARA
 10
2238.984738711588
 20
1574.591530541242
 30
0.0
 11
2239.051092562192
 21
1574.629103707473
 31
0.0
  0
LINE
  5
2BE
  8
2D$CAMA_CAMARA
 10
2239.051092562192
 20
1574.629103707473
 30
0.0
 11
2239.118135665378
 21
1574.664852020489
 31
0.0
  0
LINE
  5
2BF
  8
2D$CAMA_CAMARA
 10
2239.118135665378
 20
1574.664852020489
 30
0.0
 11
2239.185794728924
 21
1574.698761048069
 31
0.0
  0
LINE
  5
2C0
  8
2D$CAMA_CAMARA
 10
2239.185794728924
 20
1574.698761048069
 30
0.0
 11
2239.253996402942
 21
1574.73082016327
 31
0.0
  0
LINE
  5
2C1
  8
2D$CAMA_CAMARA
 10
2239.253996402942
 20
1574.73082016327
 30
0.0
 11
2239.322667517907
 21
1574.761022501946
 31
0.0
  0
LINE
  5
2C2
  8
2D$CAMA_CAMARA
 10
2239.322667517907
 20
1574.761022501946
 30
0.0
 11
2239.39173531586
 21
1574.789364903187
 31
0.0
  0
LINE
  5
2C3
  8
2D$CAMA_CAMARA
 10
2239.39173531586
 20
1574.789364903187
 30
0.0
 11
2239.461127673421
 21
1574.815847833612
 31
0.0
  0
LINE
  5
2C4
  8
2D$CAMA_CAMARA
 10
2239.461127673421
 20
1574.815847833612
 30
0.0
 11
2239.5307733154
 21
1574.840475296524
 31
0.0
  0
LINE
  5
2C5
  8
2D$CAMA_CAMARA
 10
2239.5307733154
 20
1574.840475296524
 30
0.0
 11
2239.600602017907
 21
1574.863254727067
 31
0.0
  0
LINE
  5
2C6
  8
2D$CAMA_CAMARA
 10
2239.600602017907
 20
1574.863254727067
 30
0.0
 11
2239.670544800009
 21
1574.884196874561
 31
0.0
  0
LINE
  5
2C7
  8
2D$CAMA_CAMARA
 10
2239.670544800009
 20
1574.884196874561
 30
0.0
 11
2239.7405341031
 21
1574.903315673305
 31
0.0
  0
LINE
  5
2C8
  8
2D$CAMA_CAMARA
 10
2239.7405341031
 20
1574.903315673305
 30
0.0
 11
2239.810503957326
 21
1574.920628103128
 31
0.0
  0
LINE
  5
2C9
  8
2D$CAMA_CAMARA
 10
2239.810503957326
 20
1574.920628103128
 30
0.0
 11
2239.880390134529
 21
1574.936154041028
 31
0.0
  0
LINE
  5
2CA
  8
2D$CAMA_CAMARA
 10
2239.880390134529
 20
1574.936154041028
 30
0.0
 11
2239.950130287309
 21
1574.949916105249
 31
0.0
  0
LINE
  5
2CB
  8
2D$CAMA_CAMARA
 10
2239.950130287309
 20
1574.949916105249
 30
0.0
 11
2240.01966407397
 21
1574.961939493123
 31
0.0
  0
LINE
  5
2CC
  8
2D$CAMA_CAMARA
 10
2240.01966407397
 20
1574.961939493123
 30
0.0
 11
2240.088933269215
 21
1574.972251814004
 31
0.0
  0
LINE
  5
2CD
  8
2D$CAMA_CAMARA
 10
2240.088933269215
 20
1574.972251814004
 30
0.0
 11
2240.157881860594
 21
1574.980882918586
 31
0.0
  0
LINE
  5
2CE
  8
2D$CAMA_CAMARA
 10
2240.157881860594
 20
1574.980882918586
 30
0.0
 11
2240.226456130853
 21
1574.987864725839
 31
0.0
  0
LINE
  5
2CF
  8
2D$CAMA_CAMARA
 10
2240.226456130853
 20
1574.987864725839
 30
0.0
 11
2240.294604726378
 21
1574.993231048767
 31
0.0
  0
LINE
  5
2D0
  8
2D$CAMA_CAMARA
 10
2240.294604726378
 20
1574.993231048767
 30
0.0
 11
2240.362278712099
 21
1574.997017420117
 31
0.0
  0
LINE
  5
2D1
  8
2D$CAMA_CAMARA
 10
2240.362278712099
 20
1574.997017420117
 30
0.0
 11
2240.429431613261
 21
1574.999260919081
 31
0.0
  0
LINE
  5
2D2
  8
2D$CAMA_CAMARA
 10
2240.429431613261
 20
1574.999260919081
 30
0.0
 11
2240.496019444546
 21
1575.0
 31
0.0
  0
LINE
  5
2D3
  8
2D$CAMA_CAMARA
 10
2240.496019444546
 20
1575.0
 30
0.0
 11
2335.496019444546
 21
1575.0
 31
0.0
  0
LINE
  5
2D4
  8
2D$CAMA_CAMARA
 10
2335.496019444546
 20
1575.0
 30
0.0
 11
2335.562607275831
 21
1574.999260919081
 31
0.0
  0
LINE
  5
2D5
  8
2D$CAMA_CAMARA
 10
2335.562607275831
 20
1574.999260919081
 30
0.0
 11
2335.629760176992
 21
1574.997017420116
 31
0.0
  0
LINE
  5
2D6
  8
2D$CAMA_CAMARA
 10
2335.629760176992
 20
1574.997017420116
 30
0.0
 11
2335.697434162715
 21
1574.993231048767
 31
0.0
  0
LINE
  5
2D7
  8
2D$CAMA_CAMARA
 10
2335.697434162715
 20
1574.993231048767
 30
0.0
 11
2335.765582758239
 21
1574.987864725838
 31
0.0
  0
LINE
  5
2D8
  8
2D$CAMA_CAMARA
 10
2335.765582758239
 20
1574.987864725838
 30
0.0
 11
2335.834157028497
 21
1574.980882918586
 31
0.0
  0
LINE
  5
2D9
  8
2D$CAMA_CAMARA
 10
2335.834157028497
 20
1574.980882918586
 30
0.0
 11
2335.903105619877
 21
1574.972251814004
 31
0.0
  0
LINE
  5
2DA
  8
2D$CAMA_CAMARA
 10
2335.903105619877
 20
1574.972251814004
 30
0.0
 11
2335.97237481512
 21
1574.961939493123
 31
0.0
  0
LINE
  5
2DB
  8
2D$CAMA_CAMARA
 10
2335.97237481512
 20
1574.961939493123
 30
0.0
 11
2336.041908601782
 21
1574.949916105249
 31
0.0
  0
LINE
  5
2DC
  8
2D$CAMA_CAMARA
 10
2336.041908601782
 20
1574.949916105249
 30
0.0
 11
2336.111648754563
 21
1574.936154041028
 31
0.0
  0
LINE
  5
2DD
  8
2D$CAMA_CAMARA
 10
2336.111648754563
 20
1574.936154041028
 30
0.0
 11
2336.181534931766
 21
1574.920628103128
 31
0.0
  0
LINE
  5
2DE
  8
2D$CAMA_CAMARA
 10
2336.181534931766
 20
1574.920628103128
 30
0.0
 11
2336.251504785992
 21
1574.903315673306
 31
0.0
  0
LINE
  5
2DF
  8
2D$CAMA_CAMARA
 10
2336.251504785992
 20
1574.903315673306
 30
0.0
 11
2336.321494089083
 21
1574.884196874561
 31
0.0
  0
LINE
  5
2E0
  8
2D$CAMA_CAMARA
 10
2336.321494089083
 20
1574.884196874561
 30
0.0
 11
2336.391436871184
 21
1574.863254727067
 31
0.0
  0
LINE
  5
2E1
  8
2D$CAMA_CAMARA
 10
2336.391436871184
 20
1574.863254727067
 30
0.0
 11
2336.461265573692
 21
1574.840475296525
 31
0.0
  0
LINE
  5
2E2
  8
2D$CAMA_CAMARA
 10
2336.461265573692
 20
1574.840475296525
 30
0.0
 11
2336.530911215671
 21
1574.815847833612
 31
0.0
  0
LINE
  5
2E3
  8
2D$CAMA_CAMARA
 10
2336.530911215671
 20
1574.815847833612
 30
0.0
 11
2336.600303573232
 21
1574.789364903187
 31
0.0
  0
LINE
  5
2E4
  8
2D$CAMA_CAMARA
 10
2336.600303573232
 20
1574.789364903187
 30
0.0
 11
2336.669371371186
 21
1574.761022501946
 31
0.0
  0
LINE
  5
2E5
  8
2D$CAMA_CAMARA
 10
2336.669371371186
 20
1574.761022501946
 30
0.0
 11
2336.738042486151
 21
1574.73082016327
 31
0.0
  0
LINE
  5
2E6
  8
2D$CAMA_CAMARA
 10
2336.738042486151
 20
1574.73082016327
 30
0.0
 11
2336.806244160169
 21
1574.698761048069
 31
0.0
  0
LINE
  5
2E7
  8
2D$CAMA_CAMARA
 10
2336.806244160169
 20
1574.698761048069
 30
0.0
 11
2336.873903223714
 21
1574.664852020489
 31
0.0
  0
LINE
  5
2E8
  8
2D$CAMA_CAMARA
 10
2336.873903223714
 20
1574.664852020489
 30
0.0
 11
2336.940946326901
 21
1574.629103707474
 31
0.0
  0
LINE
  5
2E9
  8
2D$CAMA_CAMARA
 10
2336.940946326901
 20
1574.629103707474
 30
0.0
 11
2337.007300177504
 21
1574.591530541242
 31
0.0
  0
LINE
  5
2EA
  8
2D$CAMA_CAMARA
 10
2337.007300177504
 20
1574.591530541242
 30
0.0
 11
2337.072891784379
 21
1574.552150783921
 31
0.0
  0
LINE
  5
2EB
  8
2D$CAMA_CAMARA
 10
2337.072891784379
 20
1574.552150783921
 30
0.0
 11
2337.137648704701
 21
1574.510986533656
 31
0.0
  0
LINE
  5
2EC
  8
2D$CAMA_CAMARA
 10
2337.137648704701
 20
1574.510986533656
 30
0.0
 11
2337.201499293404
 21
1574.468063711726
 31
0.0
  0
LINE
  5
2ED
  8
2D$CAMA_CAMARA
 10
2337.201499293404
 20
1574.468063711726
 30
0.0
 11
2337.264372953115
 21
1574.423412030327
 31
0.0
  0
LINE
  5
2EE
  8
2D$CAMA_CAMARA
 10
2337.264372953115
 20
1574.423412030327
 30
0.0
 11
2337.326200382859
 21
1574.377064940854
 31
0.0
  0
LINE
  5
2EF
  8
2D$CAMA_CAMARA
 10
2337.326200382859
 20
1574.377064940854
 30
0.0
 11
2337.386913823744
 21
1574.329059562725
 31
0.0
  0
LINE
  5
2F0
  8
2D$CAMA_CAMARA
 10
2337.386913823744
 20
1574.329059562725
 30
0.0
 11
2337.446447299875
 21
1574.279436592924
 31
0.0
  0
LINE
  5
2F1
  8
2D$CAMA_CAMARA
 10
2337.446447299875
 20
1574.279436592924
 30
0.0
 11
2337.504736852723
 21
1574.228240196677
 31
0.0
  0
LINE
  5
2F2
  8
2D$CAMA_CAMARA
 10
2337.504736852723
 20
1574.228240196677
 30
0.0
 11
2337.561720767248
 21
1574.175517879813
 31
0.0
  0
LINE
  5
2F3
  8
2D$CAMA_CAMARA
 10
2337.561720767248
 20
1574.175517879813
 30
0.0
 11
2337.617339788106
 21
1574.12132034356
 31
0.0
  0
LINE
  5
2F4
  8
2D$CAMA_CAMARA
 10
2337.617339788106
 20
1574.12132034356
 30
0.0
 11
2337.67153732436
 21
1574.065701322702
 31
0.0
  0
LINE
  5
2F5
  8
2D$CAMA_CAMARA
 10
2337.67153732436
 20
1574.065701322702
 30
0.0
 11
2337.724259641224
 21
1574.008717408177
 31
0.0
  0
LINE
  5
2F6
  8
2D$CAMA_CAMARA
 10
2337.724259641224
 20
1574.008717408177
 30
0.0
 11
2337.77545603747
 21
1573.950427855329
 31
0.0
  0
LINE
  5
2F7
  8
2D$CAMA_CAMARA
 10
2337.77545603747
 20
1573.950427855329
 30
0.0
 11
2337.825079007271
 21
1573.890894379198
 31
0.0
  0
LINE
  5
2F8
  8
2D$CAMA_CAMARA
 10
2337.825079007271
 20
1573.890894379198
 30
0.0
 11
2337.873084385401
 21
1573.830180938312
 31
0.0
  0
LINE
  5
2F9
  8
2D$CAMA_CAMARA
 10
2337.873084385401
 20
1573.830180938312
 30
0.0
 11
2337.919431474873
 21
1573.768353508568
 31
0.0
  0
LINE
  5
2FA
  8
2D$CAMA_CAMARA
 10
2337.919431474873
 20
1573.768353508568
 30
0.0
 11
2337.964083156272
 21
1573.705479848857
 31
0.0
  0
LINE
  5
2FB
  8
2D$CAMA_CAMARA
 10
2337.964083156272
 20
1573.705479848857
 30
0.0
 11
2338.007005978202
 21
1573.641629260155
 31
0.0
  0
LINE
  5
2FC
  8
2D$CAMA_CAMARA
 10
2338.007005978202
 20
1573.641629260155
 30
0.0
 11
2338.048170228468
 21
1573.576872339833
 31
0.0
  0
LINE
  5
2FD
  8
2D$CAMA_CAMARA
 10
2338.048170228468
 20
1573.576872339833
 30
0.0
 11
2338.087549985788
 21
1573.511280732957
 31
0.0
  0
LINE
  5
2FE
  8
2D$CAMA_CAMARA
 10
2338.087549985788
 20
1573.511280732957
 30
0.0
 11
2338.12512315202
 21
1573.444926882355
 31
0.0
  0
LINE
  5
2FF
  8
2D$CAMA_CAMARA
 10
2338.12512315202
 20
1573.444926882355
 30
0.0
 11
2338.160871465036
 21
1573.377883779168
 31
0.0
  0
LINE
  5
300
  8
2D$CAMA_CAMARA
 10
2338.160871465036
 20
1573.377883779168
 30
0.0
 11
2338.194780492616
 21
1573.310224715622
 31
0.0
  0
LINE
  5
301
  8
2D$CAMA_CAMARA
 10
2338.194780492616
 20
1573.310224715622
 30
0.0
 11
2338.226839607817
 21
1573.242023041604
 31
0.0
  0
LINE
  5
302
  8
2D$CAMA_CAMARA
 10
2338.226839607817
 20
1573.242023041604
 30
0.0
 11
2338.257041946492
 21
1573.173351926639
 31
0.0
  0
LINE
  5
303
  8
2D$CAMA_CAMARA
 10
2338.257041946492
 20
1573.173351926639
 30
0.0
 11
2338.285384347734
 21
1573.104284128686
 31
0.0
  0
LINE
  5
304
  8
2D$CAMA_CAMARA
 10
2338.285384347734
 20
1573.104284128686
 30
0.0
 11
2338.311867278158
 21
1573.034891771125
 31
0.0
  0
LINE
  5
305
  8
2D$CAMA_CAMARA
 10
2338.311867278158
 20
1573.034891771125
 30
0.0
 11
2338.336494741071
 21
1572.965246129146
 31
0.0
  0
LINE
  5
306
  8
2D$CAMA_CAMARA
 10
2338.336494741071
 20
1572.965246129146
 30
0.0
 11
2338.359274171613
 21
1572.895417426638
 31
0.0
  0
LINE
  5
307
  8
2D$CAMA_CAMARA
 10
2338.359274171613
 20
1572.895417426638
 30
0.0
 11
2338.380216319107
 21
1572.825474644536
 31
0.0
  0
LINE
  5
308
  8
2D$CAMA_CAMARA
 10
2338.380216319107
 20
1572.825474644536
 30
0.0
 11
2338.399335117852
 21
1572.755485341446
 31
0.0
  0
LINE
  5
309
  8
2D$CAMA_CAMARA
 10
2338.399335117852
 20
1572.755485341446
 30
0.0
 11
2338.416647547675
 21
1572.685515487219
 31
0.0
  0
LINE
  5
30A
  8
2D$CAMA_CAMARA
 10
2338.416647547675
 20
1572.685515487219
 30
0.0
 11
2338.432173485574
 21
1572.615629310016
 31
0.0
  0
LINE
  5
30B
  8
2D$CAMA_CAMARA
 10
2338.432173485574
 20
1572.615629310016
 30
0.0
 11
2338.445935549796
 21
1572.545889157236
 31
0.0
  0
LINE
  5
30C
  8
2D$CAMA_CAMARA
 10
2338.445935549796
 20
1572.545889157236
 30
0.0
 11
2338.457958937669
 21
1572.476355370574
 31
0.0
  0
LINE
  5
30D
  8
2D$CAMA_CAMARA
 10
2338.457958937669
 20
1572.476355370574
 30
0.0
 11
2338.468271258551
 21
1572.407086175331
 31
0.0
  0
LINE
  5
30E
  8
2D$CAMA_CAMARA
 10
2338.468271258551
 20
1572.407086175331
 30
0.0
 11
2338.476902363132
 21
1572.338137583951
 31
0.0
  0
LINE
  5
30F
  8
2D$CAMA_CAMARA
 10
2338.476902363132
 20
1572.338137583951
 30
0.0
 11
2338.483884170384
 21
1572.269563313693
 31
0.0
  0
LINE
  5
310
  8
2D$CAMA_CAMARA
 10
2338.483884170384
 20
1572.269563313693
 30
0.0
 11
2338.489250493314
 21
1572.201414718168
 31
0.0
  0
LINE
  5
311
  8
2D$CAMA_CAMARA
 10
2338.489250493314
 20
1572.201414718168
 30
0.0
 11
2338.493036864663
 21
1572.133740732445
 31
0.0
  0
LINE
  5
312
  8
2D$CAMA_CAMARA
 10
2338.493036864663
 20
1572.133740732445
 30
0.0
 11
2338.495280363627
 21
1572.066587831285
 31
0.0
  0
LINE
  5
313
  8
2D$CAMA_CAMARA
 10
2338.495280363627
 20
1572.066587831285
 30
0.0
 11
2338.496019444546
 21
1572.0
 31
0.0
  0
LINE
  5
314
  8
2D$CAMA_CAMARA
 10
2338.496019444546
 20
1572.0
 30
0.0
 11
2338.496019444546
 21
1546.0
 31
0.0
  0
LINE
  5
315
  8
2D$CAMA_CAMARA
 10
2338.496019444546
 20
1546.0
 30
0.0
 11
2338.496019444546
 21
1546.171875
 31
0.0
  0
LINE
  5
316
  8
2D$CAMA_CAMARA
 10
2338.496019444546
 20
1546.171875
 30
0.0
 11
2338.496019444546
 21
1546.1806640625
 31
0.0
  0
LINE
  5
317
  8
2D$CAMA_CAMARA
 10
2338.496019444546
 20
1546.1806640625
 30
0.0
 11
2338.496019444546
 21
1546.179931640625
 31
0.0
  0
LINE
  5
318
  8
2D$CAMA_CAMARA
 10
2338.496019444546
 20
1546.179931640625
 30
0.0
 11
2338.496019444546
 21
1443.0
 31
0.0
  0
LINE
  5
319
  8
2D$CAMA_CAMARA
 10
2338.496019444546
 20
1443.0
 30
0.0
 11
2338.495280363627
 21
1442.933412168715
 31
0.0
  0
LINE
  5
31A
  8
2D$CAMA_CAMARA
 10
2338.495280363627
 20
1442.933412168715
 30
0.0
 11
2338.493036864664
 21
1442.866259267554
 31
0.0
  0
LINE
  5
31B
  8
2D$CAMA_CAMARA
 10
2338.493036864664
 20
1442.866259267554
 30
0.0
 11
2338.489250493314
 21
1442.798585281832
 31
0.0
  0
LINE
  5
31C
  8
2D$CAMA_CAMARA
 10
2338.489250493314
 20
1442.798585281832
 30
0.0
 11
2338.483884170385
 21
1442.730436686307
 31
0.0
  0
LINE
  5
31D
  8
2D$CAMA_CAMARA
 10
2338.483884170385
 20
1442.730436686307
 30
0.0
 11
2338.476902363132
 21
1442.661862416048
 31
0.0
  0
LINE
  5
31E
  8
2D$CAMA_CAMARA
 10
2338.476902363132
 20
1442.661862416048
 30
0.0
 11
2338.468271258551
 21
1442.592913824669
 31
0.0
  0
LINE
  5
31F
  8
2D$CAMA_CAMARA
 10
2338.468271258551
 20
1442.592913824669
 30
0.0
 11
2338.45795893767
 21
1442.523644629425
 31
0.0
  0
LINE
  5
320
  8
2D$CAMA_CAMARA
 10
2338.45795893767
 20
1442.523644629425
 30
0.0
 11
2338.445935549796
 21
1442.454110842763
 31
0.0
  0
LINE
  5
321
  8
2D$CAMA_CAMARA
 10
2338.445935549796
 20
1442.454110842763
 30
0.0
 11
2338.432173485575
 21
1442.384370689983
 31
0.0
  0
LINE
  5
322
  8
2D$CAMA_CAMARA
 10
2338.432173485575
 20
1442.384370689983
 30
0.0
 11
2338.416647547675
 21
1442.31448451278
 31
0.0
  0
LINE
  5
323
  8
2D$CAMA_CAMARA
 10
2338.416647547675
 20
1442.31448451278
 30
0.0
 11
2338.399335117852
 21
1442.244514658554
 31
0.0
  0
LINE
  5
324
  8
2D$CAMA_CAMARA
 10
2338.399335117852
 20
1442.244514658554
 30
0.0
 11
2338.380216319108
 21
1442.174525355464
 31
0.0
  0
LINE
  5
325
  8
2D$CAMA_CAMARA
 10
2338.380216319108
 20
1442.174525355464
 30
0.0
 11
2338.359274171614
 21
1442.104582573362
 31
0.0
  0
LINE
  5
326
  8
2D$CAMA_CAMARA
 10
2338.359274171614
 20
1442.104582573362
 30
0.0
 11
2338.336494741071
 21
1442.034753870854
 31
0.0
  0
LINE
  5
327
  8
2D$CAMA_CAMARA
 10
2338.336494741071
 20
1442.034753870854
 30
0.0
 11
2338.311867278158
 21
1441.965108228875
 31
0.0
  0
LINE
  5
328
  8
2D$CAMA_CAMARA
 10
2338.311867278158
 20
1441.965108228875
 30
0.0
 11
2338.285384347734
 21
1441.895715871314
 31
0.0
  0
LINE
  5
329
  8
2D$CAMA_CAMARA
 10
2338.285384347734
 20
1441.895715871314
 30
0.0
 11
2338.257041946492
 21
1441.82664807336
 31
0.0
  0
LINE
  5
32A
  8
2D$CAMA_CAMARA
 10
2338.257041946492
 20
1441.82664807336
 30
0.0
 11
2338.226839607816
 21
1441.757976958395
 31
0.0
  0
LINE
  5
32B
  8
2D$CAMA_CAMARA
 10
2338.226839607816
 20
1441.757976958395
 30
0.0
 11
2338.194780492615
 21
1441.689775284378
 31
0.0
  0
LINE
  5
32C
  8
2D$CAMA_CAMARA
 10
2338.194780492615
 20
1441.689775284378
 30
0.0
 11
2338.160871465036
 21
1441.622116220832
 31
0.0
  0
LINE
  5
32D
  8
2D$CAMA_CAMARA
 10
2338.160871465036
 20
1441.622116220832
 30
0.0
 11
2338.12512315202
 21
1441.555073117646
 31
0.0
  0
LINE
  5
32E
  8
2D$CAMA_CAMARA
 10
2338.12512315202
 20
1441.555073117646
 30
0.0
 11
2338.087549985788
 21
1441.488719267042
 31
0.0
  0
LINE
  5
32F
  8
2D$CAMA_CAMARA
 10
2338.087549985788
 20
1441.488719267042
 30
0.0
 11
2338.048170228468
 21
1441.423127660167
 31
0.0
  0
LINE
  5
330
  8
2D$CAMA_CAMARA
 10
2338.048170228468
 20
1441.423127660167
 30
0.0
 11
2338.007005978202
 21
1441.358370739844
 31
0.0
  0
LINE
  5
331
  8
2D$CAMA_CAMARA
 10
2338.007005978202
 20
1441.358370739844
 30
0.0
 11
2337.964083156273
 21
1441.294520151142
 31
0.0
  0
LINE
  5
332
  8
2D$CAMA_CAMARA
 10
2337.964083156273
 20
1441.294520151142
 30
0.0
 11
2337.919431474873
 21
1441.231646491431
 31
0.0
  0
LINE
  5
333
  8
2D$CAMA_CAMARA
 10
2337.919431474873
 20
1441.231646491431
 30
0.0
 11
2337.8730843854
 21
1441.169819061688
 31
0.0
  0
LINE
  5
334
  8
2D$CAMA_CAMARA
 10
2337.8730843854
 20
1441.169819061688
 30
0.0
 11
2337.825079007271
 21
1441.109105620802
 31
0.0
  0
LINE
  5
335
  8
2D$CAMA_CAMARA
 10
2337.825079007271
 20
1441.109105620802
 30
0.0
 11
2337.77545603747
 21
1441.049572144671
 31
0.0
  0
LINE
  5
336
  8
2D$CAMA_CAMARA
 10
2337.77545603747
 20
1441.049572144671
 30
0.0
 11
2337.724259641223
 21
1440.991282591823
 31
0.0
  0
LINE
  5
337
  8
2D$CAMA_CAMARA
 10
2337.724259641223
 20
1440.991282591823
 30
0.0
 11
2337.671537324359
 21
1440.934298677298
 31
0.0
  0
LINE
  5
338
  8
2D$CAMA_CAMARA
 10
2337.671537324359
 20
1440.934298677298
 30
0.0
 11
2337.617339788106
 21
1440.87867965644
 31
0.0
  0
LINE
  5
339
  8
2D$CAMA_CAMARA
 10
2337.617339788106
 20
1440.87867965644
 30
0.0
 11
2337.561720767248
 21
1440.824482120186
 31
0.0
  0
LINE
  5
33A
  8
2D$CAMA_CAMARA
 10
2337.561720767248
 20
1440.824482120186
 30
0.0
 11
2337.504736852722
 21
1440.771759803322
 31
0.0
  0
LINE
  5
33B
  8
2D$CAMA_CAMARA
 10
2337.504736852722
 20
1440.771759803322
 30
0.0
 11
2337.446447299874
 21
1440.720563407076
 31
0.0
  0
LINE
  5
33C
  8
2D$CAMA_CAMARA
 10
2337.446447299874
 20
1440.720563407076
 30
0.0
 11
2337.386913823743
 21
1440.670940437275
 31
0.0
  0
LINE
  5
33D
  8
2D$CAMA_CAMARA
 10
2337.386913823743
 20
1440.670940437275
 30
0.0
 11
2337.326200382858
 21
1440.622935059145
 31
0.0
  0
LINE
  5
33E
  8
2D$CAMA_CAMARA
 10
2337.326200382858
 20
1440.622935059145
 30
0.0
 11
2337.264372953114
 21
1440.576587969673
 31
0.0
  0
LINE
  5
33F
  8
2D$CAMA_CAMARA
 10
2337.264372953114
 20
1440.576587969673
 30
0.0
 11
2337.201499293403
 21
1440.531936288273
 31
0.0
  0
LINE
  5
340
  8
2D$CAMA_CAMARA
 10
2337.201499293403
 20
1440.531936288273
 30
0.0
 11
2337.137648704701
 21
1440.489013466344
 31
0.0
  0
LINE
  5
341
  8
2D$CAMA_CAMARA
 10
2337.137648704701
 20
1440.489013466344
 30
0.0
 11
2337.072891784379
 21
1440.447849216079
 31
0.0
  0
LINE
  5
342
  8
2D$CAMA_CAMARA
 10
2337.072891784379
 20
1440.447849216079
 30
0.0
 11
2337.007300177503
 21
1440.408469458758
 31
0.0
  0
LINE
  5
343
  8
2D$CAMA_CAMARA
 10
2337.007300177503
 20
1440.408469458758
 30
0.0
 11
2336.940946326899
 21
1440.370896292527
 31
0.0
  0
LINE
  5
344
  8
2D$CAMA_CAMARA
 10
2336.940946326899
 20
1440.370896292527
 30
0.0
 11
2336.873903223714
 21
1440.335147979511
 31
0.0
  0
LINE
  5
345
  8
2D$CAMA_CAMARA
 10
2336.873903223714
 20
1440.335147979511
 30
0.0
 11
2336.806244160167
 21
1440.301238951931
 31
0.0
  0
LINE
  5
346
  8
2D$CAMA_CAMARA
 10
2336.806244160167
 20
1440.301238951931
 30
0.0
 11
2336.738042486149
 21
1440.269179836729
 31
0.0
  0
LINE
  5
347
  8
2D$CAMA_CAMARA
 10
2336.738042486149
 20
1440.269179836729
 30
0.0
 11
2336.669371371185
 21
1440.238977498054
 31
0.0
  0
LINE
  5
348
  8
2D$CAMA_CAMARA
 10
2336.669371371185
 20
1440.238977498054
 30
0.0
 11
2336.600303573231
 21
1440.210635096812
 31
0.0
  0
LINE
  5
349
  8
2D$CAMA_CAMARA
 10
2336.600303573231
 20
1440.210635096812
 30
0.0
 11
2336.53091121567
 21
1440.184152166388
 31
0.0
  0
LINE
  5
34A
  8
2D$CAMA_CAMARA
 10
2336.53091121567
 20
1440.184152166388
 30
0.0
 11
2336.461265573691
 21
1440.159524703475
 31
0.0
  0
LINE
  5
34B
  8
2D$CAMA_CAMARA
 10
2336.461265573691
 20
1440.159524703475
 30
0.0
 11
2336.391436871184
 21
1440.136745272933
 31
0.0
  0
LINE
  5
34C
  8
2D$CAMA_CAMARA
 10
2336.391436871184
 20
1440.136745272933
 30
0.0
 11
2336.321494089082
 21
1440.115803125439
 31
0.0
  0
LINE
  5
34D
  8
2D$CAMA_CAMARA
 10
2336.321494089082
 20
1440.115803125439
 30
0.0
 11
2336.251504785992
 21
1440.096684326694
 31
0.0
  0
LINE
  5
34E
  8
2D$CAMA_CAMARA
 10
2336.251504785992
 20
1440.096684326694
 30
0.0
 11
2336.181534931765
 21
1440.079371896871
 31
0.0
  0
LINE
  5
34F
  8
2D$CAMA_CAMARA
 10
2336.181534931765
 20
1440.079371896871
 30
0.0
 11
2336.111648754563
 21
1440.063845958971
 31
0.0
  0
LINE
  5
350
  8
2D$CAMA_CAMARA
 10
2336.111648754563
 20
1440.063845958971
 30
0.0
 11
2336.041908601782
 21
1440.05008389475
 31
0.0
  0
LINE
  5
351
  8
2D$CAMA_CAMARA
 10
2336.041908601782
 20
1440.05008389475
 30
0.0
 11
2335.972374815121
 21
1440.038060506876
 31
0.0
  0
LINE
  5
352
  8
2D$CAMA_CAMARA
 10
2335.972374815121
 20
1440.038060506876
 30
0.0
 11
2335.903105619877
 21
1440.027748185995
 31
0.0
  0
LINE
  5
353
  8
2D$CAMA_CAMARA
 10
2335.903105619877
 20
1440.027748185995
 30
0.0
 11
2335.834157028498
 21
1440.019117081413
 31
0.0
  0
LINE
  5
354
  8
2D$CAMA_CAMARA
 10
2335.834157028498
 20
1440.019117081413
 30
0.0
 11
2335.765582758239
 21
1440.012135274161
 31
0.0
  0
LINE
  5
355
  8
2D$CAMA_CAMARA
 10
2335.765582758239
 20
1440.012135274161
 30
0.0
 11
2335.697434162714
 21
1440.006768951233
 31
0.0
  0
LINE
  5
356
  8
2D$CAMA_CAMARA
 10
2335.697434162714
 20
1440.006768951233
 30
0.0
 11
2335.629760176992
 21
1440.002982579883
 31
0.0
  0
LINE
  5
357
  8
2D$CAMA_CAMARA
 10
2335.629760176992
 20
1440.002982579883
 30
0.0
 11
2335.562607275831
 21
1440.000739080919
 31
0.0
  0
LINE
  5
358
  8
2D$CAMA_CAMARA
 10
2335.562607275831
 20
1440.000739080919
 30
0.0
 11
2335.496019444546
 21
1440.0
 31
0.0
  0
LINE
  5
359
  8
2D$CAMA_CAMARA
 10
2335.496019444546
 20
1440.0
 30
0.0
 11
2240.496019444546
 21
1440.0
 31
0.0
  0
LINE
  5
35A
  8
2D$CAMA_CAMARA
 10
2240.496019444546
 20
1440.0
 30
0.0
 11
2240.429431613262
 21
1440.000739080919
 31
0.0
  0
LINE
  5
35B
  8
2D$CAMA_CAMARA
 10
2240.429431613262
 20
1440.000739080919
 30
0.0
 11
2240.3622787121
 21
1440.002982579883
 31
0.0
  0
LINE
  5
35C
  8
2D$CAMA_CAMARA
 10
2240.3622787121
 20
1440.002982579883
 30
0.0
 11
2240.294604726378
 21
1440.006768951233
 31
0.0
  0
LINE
  5
35D
  8
2D$CAMA_CAMARA
 10
2240.294604726378
 20
1440.006768951233
 30
0.0
 11
2240.226456130853
 21
1440.012135274161
 31
0.0
  0
LINE
  5
35E
  8
2D$CAMA_CAMARA
 10
2240.226456130853
 20
1440.012135274161
 30
0.0
 11
2240.157881860594
 21
1440.019117081413
 31
0.0
  0
LINE
  5
35F
  8
2D$CAMA_CAMARA
 10
2240.157881860594
 20
1440.019117081413
 30
0.0
 11
2240.088933269215
 21
1440.027748185995
 31
0.0
  0
LINE
  5
360
  8
2D$CAMA_CAMARA
 10
2240.088933269215
 20
1440.027748185995
 30
0.0
 11
2240.019664073971
 21
1440.038060506876
 31
0.0
  0
LINE
  5
361
  8
2D$CAMA_CAMARA
 10
2240.019664073971
 20
1440.038060506876
 30
0.0
 11
2239.95013028731
 21
1440.05008389475
 31
0.0
  0
LINE
  5
362
  8
2D$CAMA_CAMARA
 10
2239.95013028731
 20
1440.05008389475
 30
0.0
 11
2239.88039013453
 21
1440.063845958971
 31
0.0
  0
LINE
  5
363
  8
2D$CAMA_CAMARA
 10
2239.88039013453
 20
1440.063845958971
 30
0.0
 11
2239.810503957327
 21
1440.079371896872
 31
0.0
  0
LINE
  5
364
  8
2D$CAMA_CAMARA
 10
2239.810503957327
 20
1440.079371896872
 30
0.0
 11
2239.740534103101
 21
1440.096684326695
 31
0.0
  0
LINE
  5
365
  8
2D$CAMA_CAMARA
 10
2239.740534103101
 20
1440.096684326695
 30
0.0
 11
2239.67054480001
 21
1440.115803125439
 31
0.0
  0
LINE
  5
366
  8
2D$CAMA_CAMARA
 10
2239.67054480001
 20
1440.115803125439
 30
0.0
 11
2239.600602017908
 21
1440.136745272933
 31
0.0
  0
LINE
  5
367
  8
2D$CAMA_CAMARA
 10
2239.600602017908
 20
1440.136745272933
 30
0.0
 11
2239.5307733154
 21
1440.159524703475
 31
0.0
  0
LINE
  5
368
  8
2D$CAMA_CAMARA
 10
2239.5307733154
 20
1440.159524703475
 30
0.0
 11
2239.461127673422
 21
1440.184152166388
 31
0.0
  0
LINE
  5
369
  8
2D$CAMA_CAMARA
 10
2239.461127673422
 20
1440.184152166388
 30
0.0
 11
2239.391735315861
 21
1440.210635096813
 31
0.0
  0
LINE
  5
36A
  8
2D$CAMA_CAMARA
 10
2239.391735315861
 20
1440.210635096813
 30
0.0
 11
2239.322667517907
 21
1440.238977498054
 31
0.0
  0
LINE
  5
36B
  8
2D$CAMA_CAMARA
 10
2239.322667517907
 20
1440.238977498054
 30
0.0
 11
2239.253996402942
 21
1440.26917983673
 31
0.0
  0
LINE
  5
36C
  8
2D$CAMA_CAMARA
 10
2239.253996402942
 20
1440.26917983673
 30
0.0
 11
2239.185794728925
 21
1440.301238951931
 31
0.0
  0
LINE
  5
36D
  8
2D$CAMA_CAMARA
 10
2239.185794728925
 20
1440.301238951931
 30
0.0
 11
2239.118135665378
 21
1440.335147979511
 31
0.0
  0
LINE
  5
36E
  8
2D$CAMA_CAMARA
 10
2239.118135665378
 20
1440.335147979511
 30
0.0
 11
2239.051092562192
 21
1440.370896292527
 31
0.0
  0
LINE
  5
36F
  8
2D$CAMA_CAMARA
 10
2239.051092562192
 20
1440.370896292527
 30
0.0
 11
2238.984738711589
 21
1440.408469458758
 31
0.0
  0
LINE
  5
370
  8
2D$CAMA_CAMARA
 10
2238.984738711589
 20
1440.408469458758
 30
0.0
 11
2238.919147104713
 21
1440.447849216079
 31
0.0
  0
LINE
  5
371
  8
2D$CAMA_CAMARA
 10
2238.919147104713
 20
1440.447849216079
 30
0.0
 11
2238.85439018439
 21
1440.489013466344
 31
0.0
  0
LINE
  5
372
  8
2D$CAMA_CAMARA
 10
2238.85439018439
 20
1440.489013466344
 30
0.0
 11
2238.790539595688
 21
1440.531936288273
 31
0.0
  0
LINE
  5
373
  8
2D$CAMA_CAMARA
 10
2238.790539595688
 20
1440.531936288273
 30
0.0
 11
2238.727665935977
 21
1440.576587969672
 31
0.0
  0
LINE
  5
374
  8
2D$CAMA_CAMARA
 10
2238.727665935977
 20
1440.576587969672
 30
0.0
 11
2238.665838506234
 21
1440.622935059145
 31
0.0
  0
LINE
  5
375
  8
2D$CAMA_CAMARA
 10
2238.665838506234
 20
1440.622935059145
 30
0.0
 11
2238.605125065349
 21
1440.670940437275
 31
0.0
  0
LINE
  5
376
  8
2D$CAMA_CAMARA
 10
2238.605125065349
 20
1440.670940437275
 30
0.0
 11
2238.545591589218
 21
1440.720563407076
 31
0.0
  0
LINE
  5
377
  8
2D$CAMA_CAMARA
 10
2238.545591589218
 20
1440.720563407076
 30
0.0
 11
2238.48730203637
 21
1440.771759803323
 31
0.0
  0
LINE
  5
378
  8
2D$CAMA_CAMARA
 10
2238.48730203637
 20
1440.771759803323
 30
0.0
 11
2238.430318121844
 21
1440.824482120187
 31
0.0
  0
LINE
  5
379
  8
2D$CAMA_CAMARA
 10
2238.430318121844
 20
1440.824482120187
 30
0.0
 11
2238.374699100987
 21
1440.87867965644
 31
0.0
  0
LINE
  5
37A
  8
2D$CAMA_CAMARA
 10
2238.374699100987
 20
1440.87867965644
 30
0.0
 11
2238.320501564733
 21
1440.934298677298
 31
0.0
  0
LINE
  5
37B
  8
2D$CAMA_CAMARA
 10
2238.320501564733
 20
1440.934298677298
 30
0.0
 11
2238.267779247869
 21
1440.991282591823
 31
0.0
  0
LINE
  5
37C
  8
2D$CAMA_CAMARA
 10
2238.267779247869
 20
1440.991282591823
 30
0.0
 11
2238.216582851623
 21
1441.049572144671
 31
0.0
  0
LINE
  5
37D
  8
2D$CAMA_CAMARA
 10
2238.216582851623
 20
1441.049572144671
 30
0.0
 11
2238.166959881822
 21
1441.109105620802
 31
0.0
  0
LINE
  5
37E
  8
2D$CAMA_CAMARA
 10
2238.166959881822
 20
1441.109105620802
 30
0.0
 11
2238.118954503691
 21
1441.169819061688
 31
0.0
  0
LINE
  5
37F
  8
2D$CAMA_CAMARA
 10
2238.118954503691
 20
1441.169819061688
 30
0.0
 11
2238.072607414219
 21
1441.231646491431
 31
0.0
  0
LINE
  5
380
  8
2D$CAMA_CAMARA
 10
2238.072607414219
 20
1441.231646491431
 30
0.0
 11
2238.027955732819
 21
1441.294520151142
 31
0.0
  0
LINE
  5
381
  8
2D$CAMA_CAMARA
 10
2238.027955732819
 20
1441.294520151142
 30
0.0
 11
2237.98503291089
 21
1441.358370739844
 31
0.0
  0
LINE
  5
382
  8
2D$CAMA_CAMARA
 10
2237.98503291089
 20
1441.358370739844
 30
0.0
 11
2237.943868660625
 21
1441.423127660167
 31
0.0
  0
LINE
  5
383
  8
2D$CAMA_CAMARA
 10
2237.943868660625
 20
1441.423127660167
 30
0.0
 11
2237.904488903304
 21
1441.488719267042
 31
0.0
  0
LINE
  5
384
  8
2D$CAMA_CAMARA
 10
2237.904488903304
 20
1441.488719267042
 30
0.0
 11
2237.866915737073
 21
1441.555073117646
 31
0.0
  0
LINE
  5
385
  8
2D$CAMA_CAMARA
 10
2237.866915737073
 20
1441.555073117646
 30
0.0
 11
2237.831167424057
 21
1441.622116220832
 31
0.0
  0
LINE
  5
386
  8
2D$CAMA_CAMARA
 10
2237.831167424057
 20
1441.622116220832
 30
0.0
 11
2237.797258396477
 21
1441.689775284378
 31
0.0
  0
LINE
  5
387
  8
2D$CAMA_CAMARA
 10
2237.797258396477
 20
1441.689775284378
 30
0.0
 11
2237.765199281276
 21
1441.757976958395
 31
0.0
  0
LINE
  5
388
  8
2D$CAMA_CAMARA
 10
2237.765199281276
 20
1441.757976958395
 30
0.0
 11
2237.7349969426
 21
1441.826648073361
 31
0.0
  0
LINE
  5
389
  8
2D$CAMA_CAMARA
 10
2237.7349969426
 20
1441.826648073361
 30
0.0
 11
2237.706654541359
 21
1441.895715871314
 31
0.0
  0
LINE
  5
38A
  8
2D$CAMA_CAMARA
 10
2237.706654541359
 20
1441.895715871314
 30
0.0
 11
2237.680171610934
 21
1441.965108228876
 31
0.0
  0
LINE
  5
38B
  8
2D$CAMA_CAMARA
 10
2237.680171610934
 20
1441.965108228876
 30
0.0
 11
2237.655544148021
 21
1442.034753870854
 31
0.0
  0
LINE
  5
38C
  8
2D$CAMA_CAMARA
 10
2237.655544148021
 20
1442.034753870854
 30
0.0
 11
2237.632764717478
 21
1442.104582573362
 31
0.0
  0
LINE
  5
38D
  8
2D$CAMA_CAMARA
 10
2237.632764717478
 20
1442.104582573362
 30
0.0
 11
2237.611822569985
 21
1442.174525355464
 31
0.0
  0
LINE
  5
38E
  8
2D$CAMA_CAMARA
 10
2237.611822569985
 20
1442.174525355464
 30
0.0
 11
2237.592703771241
 21
1442.244514658555
 31
0.0
  0
LINE
  5
38F
  8
2D$CAMA_CAMARA
 10
2237.592703771241
 20
1442.244514658555
 30
0.0
 11
2237.575391341418
 21
1442.31448451278
 31
0.0
  0
LINE
  5
390
  8
2D$CAMA_CAMARA
 10
2237.575391341418
 20
1442.31448451278
 30
0.0
 11
2237.559865403518
 21
1442.384370689983
 31
0.0
  0
LINE
  5
391
  8
2D$CAMA_CAMARA
 10
2237.559865403518
 20
1442.384370689983
 30
0.0
 11
2237.546103339296
 21
1442.454110842763
 31
0.0
  0
LINE
  5
392
  8
2D$CAMA_CAMARA
 10
2237.546103339296
 20
1442.454110842763
 30
0.0
 11
2237.534079951423
 21
1442.523644629425
 31
0.0
  0
LINE
  5
393
  8
2D$CAMA_CAMARA
 10
2237.534079951423
 20
1442.523644629425
 30
0.0
 11
2237.523767630541
 21
1442.592913824669
 31
0.0
  0
LINE
  5
394
  8
2D$CAMA_CAMARA
 10
2237.523767630541
 20
1442.592913824669
 30
0.0
 11
2237.515136525959
 21
1442.661862416048
 31
0.0
  0
LINE
  5
395
  8
2D$CAMA_CAMARA
 10
2237.515136525959
 20
1442.661862416048
 30
0.0
 11
2237.508154718707
 21
1442.730436686306
 31
0.0
  0
LINE
  5
396
  8
2D$CAMA_CAMARA
 10
2237.508154718707
 20
1442.730436686306
 30
0.0
 11
2237.502788395779
 21
1442.798585281831
 31
0.0
  0
LINE
  5
397
  8
2D$CAMA_CAMARA
 10
2237.502788395779
 20
1442.798585281831
 30
0.0
 11
2237.499002024429
 21
1442.866259267553
 31
0.0
  0
LINE
  5
398
  8
2D$CAMA_CAMARA
 10
2237.499002024429
 20
1442.866259267553
 30
0.0
 11
2237.496758525466
 21
1442.933412168715
 31
0.0
  0
LINE
  5
399
  8
2D$CAMA_CAMARA
 10
2237.496758525466
 20
1442.933412168715
 30
0.0
 11
2237.496019444546
 21
1443.0
 31
0.0
  0
LINE
  5
39A
  8
2D$CAMA_CAMARA
 10
2237.496019444546
 20
1443.0
 30
0.0
 11
2237.496019444546
 21
1572.0
 31
0.0
  0
LINE
  5
39B
  8
2D$CAMA_CAMARA
 10
2238.25
 20
1403.499992263656
 30
0.0
 11
2253.25
 21
1403.499992263656
 31
0.0
  0
LINE
  5
39C
  8
2D$CAMA_CAMARA
 10
2253.25
 20
1403.499992263656
 30
0.0
 11
2253.25
 21
1415.499992263656
 31
0.0
  0
LINE
  5
39D
  8
2D$CAMA_CAMARA
 10
2253.25
 20
1415.499992263656
 30
0.0
 11
2238.25
 21
1415.499992263656
 31
0.0
  0
LINE
  5
39E
  8
2D$CAMA_CAMARA
 10
2238.25
 20
1415.499992263656
 30
0.0
 11
2238.25
 21
1403.499992263656
 31
0.0
  0
LINE
  5
39F
  8
2D$CAMA_CAMARA
 10
2238.25
 20
1418.499992263656
 30
0.0
 11
2253.25
 21
1418.499992263656
 31
0.0
  0
LINE
  5
3A0
  8
2D$CAMA_CAMARA
 10
2253.25
 20
1418.499992263656
 30
0.0
 11
2253.25
 21
1430.499992263656
 31
0.0
  0
LINE
  5
3A1
  8
2D$CAMA_CAMARA
 10
2253.25
 20
1430.499992263656
 30
0.0
 11
2238.25
 21
1430.499992263656
 31
0.0
  0
LINE
  5
3A2
  8
2D$CAMA_CAMARA
 10
2238.25
 20
1430.499992263656
 30
0.0
 11
2238.25
 21
1418.499992263656
 31
0.0
  0
CIRCLE
  5
3A3
  8
2D$CAMA_CAMARA
 10
2245.75
 20
1424.499992263656
 30
0.0
 40
1.75
  0
LINE
  5
3A4
  8
2D$CAMA_CAMARA
 10
2241.299965310035
 20
1409.500009902622
 30
0.0
 11
2243.525014993121
 21
1413.353841673927
 31
0.0
  0
LINE
  5
3A5
  8
2D$CAMA_CAMARA
 10
2243.525014993121
 20
1413.353841673927
 30
0.0
 11
2247.9750085255
 21
1413.353806395996
 31
0.0
  0
LINE
  5
3A6
  8
2D$CAMA_CAMARA
 10
2247.9750085255
 20
1413.353806395996
 30
0.0
 11
2250.200022930655
 21
1409.499974624691
 31
0.0
  0
LINE
  5
3A7
  8
2D$CAMA_CAMARA
 10
2250.200022930655
 20
1409.499974624691
 30
0.0
 11
2247.9750085255
 21
1405.646142853386
 31
0.0
  0
LINE
  5
3A8
  8
2D$CAMA_CAMARA
 10
2247.9750085255
 20
1405.646142853386
 30
0.0
 11
2243.52497971519
 21
1405.646178131318
 31
0.0
  0
LINE
  5
3A9
  8
2D$CAMA_CAMARA
 10
2243.52497971519
 20
1405.646178131318
 30
0.0
 11
2241.299965310035
 21
1409.500009902622
 31
0.0
  0
LINE
  5
3AB
  8
DEFAULT
 10
2145.0
 20
1197.0
 30
0.0
 11
2745.0
 21
1197.0
 31
0.0
  0
LINE
  5
3AC
  8
DEFAULT
 10
2745.0
 20
1197.0
 30
0.0
 11
2745.0
 21
1597.0
 31
0.0
  0
LINE
  5
3AD
  8
DEFAULT
 10
2745.0
 20
1597.0
 30
0.0
 11
2145.0
 21
1597.0
 31
0.0
  0
LINE
  5
3AE
  8
DEFAULT
 10
2145.0
 20
1597.0
 30
0.0
 11
2145.0
 21
1197.0
 31
0.0
  0
ENDSEC
  0
EOF
