G04 #@! TF.FileFunction,Legend,Top*
%FSLAX46Y46*%
G04 Gerber Fmt 4.6, Leading zero omitted, Abs format (unit mm)*
G04 Created by KiCad (PCBNEW 4.0.2-stable) date Monday, 06 March 2017 12:37:51*
%MOMM*%
G01*
G04 APERTURE LIST*
%ADD10C,0.100000*%
%ADD11C,0.300000*%
%ADD12C,0.150000*%
G04 APERTURE END LIST*
D10*
D11*
X150946429Y-26617857D02*
X151160715Y-26689286D01*
X151232143Y-26760714D01*
X151303572Y-26903571D01*
X151303572Y-27117857D01*
X151232143Y-27260714D01*
X151160715Y-27332143D01*
X151017857Y-27403571D01*
X150446429Y-27403571D01*
X150446429Y-25903571D01*
X150946429Y-25903571D01*
X151089286Y-25975000D01*
X151160715Y-26046429D01*
X151232143Y-26189286D01*
X151232143Y-26332143D01*
X151160715Y-26475000D01*
X151089286Y-26546429D01*
X150946429Y-26617857D01*
X150446429Y-26617857D01*
X152589286Y-27403571D02*
X152589286Y-26617857D01*
X152517857Y-26475000D01*
X152375000Y-26403571D01*
X152089286Y-26403571D01*
X151946429Y-26475000D01*
X152589286Y-27332143D02*
X152446429Y-27403571D01*
X152089286Y-27403571D01*
X151946429Y-27332143D01*
X151875000Y-27189286D01*
X151875000Y-27046429D01*
X151946429Y-26903571D01*
X152089286Y-26832143D01*
X152446429Y-26832143D01*
X152589286Y-26760714D01*
X153946429Y-27332143D02*
X153803572Y-27403571D01*
X153517858Y-27403571D01*
X153375000Y-27332143D01*
X153303572Y-27260714D01*
X153232143Y-27117857D01*
X153232143Y-26689286D01*
X153303572Y-26546429D01*
X153375000Y-26475000D01*
X153517858Y-26403571D01*
X153803572Y-26403571D01*
X153946429Y-26475000D01*
X154589286Y-27403571D02*
X154589286Y-25903571D01*
X154732143Y-26832143D02*
X155160714Y-27403571D01*
X155160714Y-26403571D02*
X154589286Y-26975000D01*
X155660715Y-26403571D02*
X156017858Y-27403571D01*
X156375000Y-26403571D02*
X156017858Y-27403571D01*
X155875000Y-27760714D01*
X155803572Y-27832143D01*
X155660715Y-27903571D01*
X157589286Y-27403571D02*
X157589286Y-26617857D01*
X157517857Y-26475000D01*
X157375000Y-26403571D01*
X157089286Y-26403571D01*
X156946429Y-26475000D01*
X157589286Y-27332143D02*
X157446429Y-27403571D01*
X157089286Y-27403571D01*
X156946429Y-27332143D01*
X156875000Y-27189286D01*
X156875000Y-27046429D01*
X156946429Y-26903571D01*
X157089286Y-26832143D01*
X157446429Y-26832143D01*
X157589286Y-26760714D01*
X158303572Y-27403571D02*
X158303572Y-26403571D01*
X158303572Y-26689286D02*
X158375000Y-26546429D01*
X158446429Y-26475000D01*
X158589286Y-26403571D01*
X158732143Y-26403571D01*
X159875000Y-27403571D02*
X159875000Y-25903571D01*
X159875000Y-27332143D02*
X159732143Y-27403571D01*
X159446429Y-27403571D01*
X159303571Y-27332143D01*
X159232143Y-27260714D01*
X159160714Y-27117857D01*
X159160714Y-26689286D01*
X159232143Y-26546429D01*
X159303571Y-26475000D01*
X159446429Y-26403571D01*
X159732143Y-26403571D01*
X159875000Y-26475000D01*
X162232143Y-26617857D02*
X162446429Y-26689286D01*
X162517857Y-26760714D01*
X162589286Y-26903571D01*
X162589286Y-27117857D01*
X162517857Y-27260714D01*
X162446429Y-27332143D01*
X162303571Y-27403571D01*
X161732143Y-27403571D01*
X161732143Y-25903571D01*
X162232143Y-25903571D01*
X162375000Y-25975000D01*
X162446429Y-26046429D01*
X162517857Y-26189286D01*
X162517857Y-26332143D01*
X162446429Y-26475000D01*
X162375000Y-26546429D01*
X162232143Y-26617857D01*
X161732143Y-26617857D01*
X163232143Y-27403571D02*
X163232143Y-26403571D01*
X163232143Y-26689286D02*
X163303571Y-26546429D01*
X163375000Y-26475000D01*
X163517857Y-26403571D01*
X163660714Y-26403571D01*
X164803571Y-27403571D02*
X164803571Y-26617857D01*
X164732142Y-26475000D01*
X164589285Y-26403571D01*
X164303571Y-26403571D01*
X164160714Y-26475000D01*
X164803571Y-27332143D02*
X164660714Y-27403571D01*
X164303571Y-27403571D01*
X164160714Y-27332143D01*
X164089285Y-27189286D01*
X164089285Y-27046429D01*
X164160714Y-26903571D01*
X164303571Y-26832143D01*
X164660714Y-26832143D01*
X164803571Y-26760714D01*
X165517857Y-27403571D02*
X165517857Y-26403571D01*
X165517857Y-25903571D02*
X165446428Y-25975000D01*
X165517857Y-26046429D01*
X165589285Y-25975000D01*
X165517857Y-25903571D01*
X165517857Y-26046429D01*
X166232143Y-26403571D02*
X166232143Y-27403571D01*
X166232143Y-26546429D02*
X166303571Y-26475000D01*
X166446429Y-26403571D01*
X166660714Y-26403571D01*
X166803571Y-26475000D01*
X166875000Y-26617857D01*
X166875000Y-27403571D01*
X167517857Y-27332143D02*
X167660714Y-27403571D01*
X167946429Y-27403571D01*
X168089286Y-27332143D01*
X168160714Y-27189286D01*
X168160714Y-27117857D01*
X168089286Y-26975000D01*
X167946429Y-26903571D01*
X167732143Y-26903571D01*
X167589286Y-26832143D01*
X167517857Y-26689286D01*
X167517857Y-26617857D01*
X167589286Y-26475000D01*
X167732143Y-26403571D01*
X167946429Y-26403571D01*
X168089286Y-26475000D01*
X169732143Y-25903571D02*
X170589286Y-25903571D01*
X170160715Y-27403571D02*
X170160715Y-25903571D01*
X171089286Y-27403571D02*
X171089286Y-26403571D01*
X171089286Y-26689286D02*
X171160714Y-26546429D01*
X171232143Y-26475000D01*
X171375000Y-26403571D01*
X171517857Y-26403571D01*
X172660714Y-27403571D02*
X172660714Y-26617857D01*
X172589285Y-26475000D01*
X172446428Y-26403571D01*
X172160714Y-26403571D01*
X172017857Y-26475000D01*
X172660714Y-27332143D02*
X172517857Y-27403571D01*
X172160714Y-27403571D01*
X172017857Y-27332143D01*
X171946428Y-27189286D01*
X171946428Y-27046429D01*
X172017857Y-26903571D01*
X172160714Y-26832143D01*
X172517857Y-26832143D01*
X172660714Y-26760714D01*
X173375000Y-26403571D02*
X173375000Y-27403571D01*
X173375000Y-26546429D02*
X173446428Y-26475000D01*
X173589286Y-26403571D01*
X173803571Y-26403571D01*
X173946428Y-26475000D01*
X174017857Y-26617857D01*
X174017857Y-27403571D01*
X174660714Y-27332143D02*
X174803571Y-27403571D01*
X175089286Y-27403571D01*
X175232143Y-27332143D01*
X175303571Y-27189286D01*
X175303571Y-27117857D01*
X175232143Y-26975000D01*
X175089286Y-26903571D01*
X174875000Y-26903571D01*
X174732143Y-26832143D01*
X174660714Y-26689286D01*
X174660714Y-26617857D01*
X174732143Y-26475000D01*
X174875000Y-26403571D01*
X175089286Y-26403571D01*
X175232143Y-26475000D01*
X175946429Y-27403571D02*
X175946429Y-26403571D01*
X175946429Y-25903571D02*
X175875000Y-25975000D01*
X175946429Y-26046429D01*
X176017857Y-25975000D01*
X175946429Y-25903571D01*
X175946429Y-26046429D01*
X176875001Y-27403571D02*
X176732143Y-27332143D01*
X176660715Y-27189286D01*
X176660715Y-25903571D01*
X177660715Y-27403571D02*
X177517857Y-27332143D01*
X177446429Y-27189286D01*
X177446429Y-25903571D01*
X178875000Y-26403571D02*
X178875000Y-27403571D01*
X178232143Y-26403571D02*
X178232143Y-27189286D01*
X178303571Y-27332143D01*
X178446429Y-27403571D01*
X178660714Y-27403571D01*
X178803571Y-27332143D01*
X178875000Y-27260714D01*
X179589286Y-27403571D02*
X179589286Y-26403571D01*
X179589286Y-26546429D02*
X179660714Y-26475000D01*
X179803572Y-26403571D01*
X180017857Y-26403571D01*
X180160714Y-26475000D01*
X180232143Y-26617857D01*
X180232143Y-27403571D01*
X180232143Y-26617857D02*
X180303572Y-26475000D01*
X180446429Y-26403571D01*
X180660714Y-26403571D01*
X180803572Y-26475000D01*
X180875000Y-26617857D01*
X180875000Y-27403571D01*
X181589286Y-27403571D02*
X181589286Y-26403571D01*
X181589286Y-25903571D02*
X181517857Y-25975000D01*
X181589286Y-26046429D01*
X181660714Y-25975000D01*
X181589286Y-25903571D01*
X181589286Y-26046429D01*
X182303572Y-26403571D02*
X182303572Y-27403571D01*
X182303572Y-26546429D02*
X182375000Y-26475000D01*
X182517858Y-26403571D01*
X182732143Y-26403571D01*
X182875000Y-26475000D01*
X182946429Y-26617857D01*
X182946429Y-27403571D01*
X184303572Y-27403571D02*
X184303572Y-26617857D01*
X184232143Y-26475000D01*
X184089286Y-26403571D01*
X183803572Y-26403571D01*
X183660715Y-26475000D01*
X184303572Y-27332143D02*
X184160715Y-27403571D01*
X183803572Y-27403571D01*
X183660715Y-27332143D01*
X183589286Y-27189286D01*
X183589286Y-27046429D01*
X183660715Y-26903571D01*
X183803572Y-26832143D01*
X184160715Y-26832143D01*
X184303572Y-26760714D01*
X184803572Y-26403571D02*
X185375001Y-26403571D01*
X185017858Y-25903571D02*
X185017858Y-27189286D01*
X185089286Y-27332143D01*
X185232144Y-27403571D01*
X185375001Y-27403571D01*
X186089287Y-27403571D02*
X185946429Y-27332143D01*
X185875001Y-27260714D01*
X185803572Y-27117857D01*
X185803572Y-26689286D01*
X185875001Y-26546429D01*
X185946429Y-26475000D01*
X186089287Y-26403571D01*
X186303572Y-26403571D01*
X186446429Y-26475000D01*
X186517858Y-26546429D01*
X186589287Y-26689286D01*
X186589287Y-27117857D01*
X186517858Y-27260714D01*
X186446429Y-27332143D01*
X186303572Y-27403571D01*
X186089287Y-27403571D01*
X187232144Y-27403571D02*
X187232144Y-26403571D01*
X187232144Y-26689286D02*
X187303572Y-26546429D01*
X187375001Y-26475000D01*
X187517858Y-26403571D01*
X187660715Y-26403571D01*
X189089286Y-25903571D02*
X189589286Y-27403571D01*
X190089286Y-25903571D01*
X190517857Y-26046429D02*
X190589286Y-25975000D01*
X190732143Y-25903571D01*
X191089286Y-25903571D01*
X191232143Y-25975000D01*
X191303572Y-26046429D01*
X191375000Y-26189286D01*
X191375000Y-26332143D01*
X191303572Y-26546429D01*
X190446429Y-27403571D01*
X191375000Y-27403571D01*
D12*
X64499500Y-59499120D02*
X64499500Y-68500880D01*
X60999380Y-59499120D02*
X60999380Y-68500880D01*
X60999380Y-68500880D02*
X75500240Y-68500880D01*
X75500240Y-68500880D02*
X75500240Y-59499120D01*
X75500240Y-59499120D02*
X60999380Y-59499120D01*
X127964888Y-36975096D02*
G75*
G03X127980000Y-40000000I-2484888J-1524904D01*
G01*
X127980000Y-37000000D02*
X127980000Y-40000000D01*
X127997936Y-38500000D02*
G75*
G03X127997936Y-38500000I-2517936J0D01*
G01*
X137964888Y-36975096D02*
G75*
G03X137980000Y-40000000I-2484888J-1524904D01*
G01*
X137980000Y-37000000D02*
X137980000Y-40000000D01*
X137997936Y-38500000D02*
G75*
G03X137997936Y-38500000I-2517936J0D01*
G01*
X147964888Y-36975096D02*
G75*
G03X147980000Y-40000000I-2484888J-1524904D01*
G01*
X147980000Y-37000000D02*
X147980000Y-40000000D01*
X147997936Y-38500000D02*
G75*
G03X147997936Y-38500000I-2517936J0D01*
G01*
X158004888Y-36975096D02*
G75*
G03X158020000Y-40000000I-2484888J-1524904D01*
G01*
X158020000Y-37000000D02*
X158020000Y-40000000D01*
X158037936Y-38500000D02*
G75*
G03X158037936Y-38500000I-2517936J0D01*
G01*
X167964888Y-36975096D02*
G75*
G03X167980000Y-40000000I-2484888J-1524904D01*
G01*
X167980000Y-37000000D02*
X167980000Y-40000000D01*
X167997936Y-38500000D02*
G75*
G03X167997936Y-38500000I-2517936J0D01*
G01*
X127964888Y-46975096D02*
G75*
G03X127980000Y-50000000I-2484888J-1524904D01*
G01*
X127980000Y-47000000D02*
X127980000Y-50000000D01*
X127997936Y-48500000D02*
G75*
G03X127997936Y-48500000I-2517936J0D01*
G01*
X137964888Y-46975096D02*
G75*
G03X137980000Y-50000000I-2484888J-1524904D01*
G01*
X137980000Y-47000000D02*
X137980000Y-50000000D01*
X137997936Y-48500000D02*
G75*
G03X137997936Y-48500000I-2517936J0D01*
G01*
X147964888Y-46975096D02*
G75*
G03X147980000Y-50000000I-2484888J-1524904D01*
G01*
X147980000Y-47000000D02*
X147980000Y-50000000D01*
X147997936Y-48500000D02*
G75*
G03X147997936Y-48500000I-2517936J0D01*
G01*
X158004888Y-46975096D02*
G75*
G03X158020000Y-50000000I-2484888J-1524904D01*
G01*
X158020000Y-47000000D02*
X158020000Y-50000000D01*
X158037936Y-48500000D02*
G75*
G03X158037936Y-48500000I-2517936J0D01*
G01*
X167964888Y-46975096D02*
G75*
G03X167980000Y-50000000I-2484888J-1524904D01*
G01*
X167980000Y-47000000D02*
X167980000Y-50000000D01*
X167997936Y-48500000D02*
G75*
G03X167997936Y-48500000I-2517936J0D01*
G01*
X128004888Y-56975096D02*
G75*
G03X128020000Y-60000000I-2484888J-1524904D01*
G01*
X128020000Y-57000000D02*
X128020000Y-60000000D01*
X128037936Y-58500000D02*
G75*
G03X128037936Y-58500000I-2517936J0D01*
G01*
X137964888Y-56975096D02*
G75*
G03X137980000Y-60000000I-2484888J-1524904D01*
G01*
X137980000Y-57000000D02*
X137980000Y-60000000D01*
X137997936Y-58500000D02*
G75*
G03X137997936Y-58500000I-2517936J0D01*
G01*
X147964888Y-56975096D02*
G75*
G03X147980000Y-60000000I-2484888J-1524904D01*
G01*
X147980000Y-57000000D02*
X147980000Y-60000000D01*
X147997936Y-58500000D02*
G75*
G03X147997936Y-58500000I-2517936J0D01*
G01*
X157964888Y-56975096D02*
G75*
G03X157980000Y-60000000I-2484888J-1524904D01*
G01*
X157980000Y-57000000D02*
X157980000Y-60000000D01*
X157997936Y-58500000D02*
G75*
G03X157997936Y-58500000I-2517936J0D01*
G01*
X167964888Y-56975096D02*
G75*
G03X167980000Y-60000000I-2484888J-1524904D01*
G01*
X167980000Y-57000000D02*
X167980000Y-60000000D01*
X167997936Y-58500000D02*
G75*
G03X167997936Y-58500000I-2517936J0D01*
G01*
X127964888Y-66975096D02*
G75*
G03X127980000Y-70000000I-2484888J-1524904D01*
G01*
X127980000Y-67000000D02*
X127980000Y-70000000D01*
X127997936Y-68500000D02*
G75*
G03X127997936Y-68500000I-2517936J0D01*
G01*
X137964888Y-66975096D02*
G75*
G03X137980000Y-70000000I-2484888J-1524904D01*
G01*
X137980000Y-67000000D02*
X137980000Y-70000000D01*
X137997936Y-68500000D02*
G75*
G03X137997936Y-68500000I-2517936J0D01*
G01*
X147964888Y-66975096D02*
G75*
G03X147980000Y-70000000I-2484888J-1524904D01*
G01*
X147980000Y-67000000D02*
X147980000Y-70000000D01*
X147997936Y-68500000D02*
G75*
G03X147997936Y-68500000I-2517936J0D01*
G01*
X157964888Y-66975096D02*
G75*
G03X157980000Y-70000000I-2484888J-1524904D01*
G01*
X157980000Y-67000000D02*
X157980000Y-70000000D01*
X157997936Y-68500000D02*
G75*
G03X157997936Y-68500000I-2517936J0D01*
G01*
X167964888Y-66975096D02*
G75*
G03X167980000Y-70000000I-2484888J-1524904D01*
G01*
X167980000Y-67000000D02*
X167980000Y-70000000D01*
X167997936Y-68500000D02*
G75*
G03X167997936Y-68500000I-2517936J0D01*
G01*
X128004888Y-76975096D02*
G75*
G03X128020000Y-80000000I-2484888J-1524904D01*
G01*
X128020000Y-77000000D02*
X128020000Y-80000000D01*
X128037936Y-78500000D02*
G75*
G03X128037936Y-78500000I-2517936J0D01*
G01*
X137964888Y-76975096D02*
G75*
G03X137980000Y-80000000I-2484888J-1524904D01*
G01*
X137980000Y-77000000D02*
X137980000Y-80000000D01*
X137997936Y-78500000D02*
G75*
G03X137997936Y-78500000I-2517936J0D01*
G01*
X147964888Y-76975096D02*
G75*
G03X147980000Y-80000000I-2484888J-1524904D01*
G01*
X147980000Y-77000000D02*
X147980000Y-80000000D01*
X147997936Y-78500000D02*
G75*
G03X147997936Y-78500000I-2517936J0D01*
G01*
X157964888Y-76975096D02*
G75*
G03X157980000Y-80000000I-2484888J-1524904D01*
G01*
X157980000Y-77000000D02*
X157980000Y-80000000D01*
X157997936Y-78500000D02*
G75*
G03X157997936Y-78500000I-2517936J0D01*
G01*
X168004888Y-76975096D02*
G75*
G03X168020000Y-80000000I-2484888J-1524904D01*
G01*
X168020000Y-77000000D02*
X168020000Y-80000000D01*
X168037936Y-78500000D02*
G75*
G03X168037936Y-78500000I-2517936J0D01*
G01*
X127964888Y-86975096D02*
G75*
G03X127980000Y-90000000I-2484888J-1524904D01*
G01*
X127980000Y-87000000D02*
X127980000Y-90000000D01*
X127997936Y-88500000D02*
G75*
G03X127997936Y-88500000I-2517936J0D01*
G01*
X138004888Y-86975096D02*
G75*
G03X138020000Y-90000000I-2484888J-1524904D01*
G01*
X138020000Y-87000000D02*
X138020000Y-90000000D01*
X138037936Y-88500000D02*
G75*
G03X138037936Y-88500000I-2517936J0D01*
G01*
X148004888Y-86975096D02*
G75*
G03X148020000Y-90000000I-2484888J-1524904D01*
G01*
X148020000Y-87000000D02*
X148020000Y-90000000D01*
X148037936Y-88500000D02*
G75*
G03X148037936Y-88500000I-2517936J0D01*
G01*
X158004888Y-86975096D02*
G75*
G03X158020000Y-90000000I-2484888J-1524904D01*
G01*
X158020000Y-87000000D02*
X158020000Y-90000000D01*
X158037936Y-88500000D02*
G75*
G03X158037936Y-88500000I-2517936J0D01*
G01*
X168004888Y-86975096D02*
G75*
G03X168020000Y-90000000I-2484888J-1524904D01*
G01*
X168020000Y-87000000D02*
X168020000Y-90000000D01*
X168037936Y-88500000D02*
G75*
G03X168037936Y-88500000I-2517936J0D01*
G01*
X128004888Y-96975096D02*
G75*
G03X128020000Y-100000000I-2484888J-1524904D01*
G01*
X128020000Y-97000000D02*
X128020000Y-100000000D01*
X128037936Y-98500000D02*
G75*
G03X128037936Y-98500000I-2517936J0D01*
G01*
X138004888Y-96975096D02*
G75*
G03X138020000Y-100000000I-2484888J-1524904D01*
G01*
X138020000Y-97000000D02*
X138020000Y-100000000D01*
X138037936Y-98500000D02*
G75*
G03X138037936Y-98500000I-2517936J0D01*
G01*
X148004888Y-96975096D02*
G75*
G03X148020000Y-100000000I-2484888J-1524904D01*
G01*
X148020000Y-97000000D02*
X148020000Y-100000000D01*
X148037936Y-98500000D02*
G75*
G03X148037936Y-98500000I-2517936J0D01*
G01*
X158004888Y-96975096D02*
G75*
G03X158020000Y-100000000I-2484888J-1524904D01*
G01*
X158020000Y-97000000D02*
X158020000Y-100000000D01*
X158037936Y-98500000D02*
G75*
G03X158037936Y-98500000I-2517936J0D01*
G01*
X168004888Y-96975096D02*
G75*
G03X168020000Y-100000000I-2484888J-1524904D01*
G01*
X168020000Y-97000000D02*
X168020000Y-100000000D01*
X168037936Y-98500000D02*
G75*
G03X168037936Y-98500000I-2517936J0D01*
G01*
X128004888Y-106975096D02*
G75*
G03X128020000Y-110000000I-2484888J-1524904D01*
G01*
X128020000Y-107000000D02*
X128020000Y-110000000D01*
X128037936Y-108500000D02*
G75*
G03X128037936Y-108500000I-2517936J0D01*
G01*
X138004888Y-106975096D02*
G75*
G03X138020000Y-110000000I-2484888J-1524904D01*
G01*
X138020000Y-107000000D02*
X138020000Y-110000000D01*
X138037936Y-108500000D02*
G75*
G03X138037936Y-108500000I-2517936J0D01*
G01*
X148004888Y-106975096D02*
G75*
G03X148020000Y-110000000I-2484888J-1524904D01*
G01*
X148020000Y-107000000D02*
X148020000Y-110000000D01*
X148037936Y-108500000D02*
G75*
G03X148037936Y-108500000I-2517936J0D01*
G01*
X158004888Y-106975096D02*
G75*
G03X158020000Y-110000000I-2484888J-1524904D01*
G01*
X158020000Y-107000000D02*
X158020000Y-110000000D01*
X158037936Y-108500000D02*
G75*
G03X158037936Y-108500000I-2517936J0D01*
G01*
X168004888Y-106975096D02*
G75*
G03X168020000Y-110000000I-2484888J-1524904D01*
G01*
X168020000Y-107000000D02*
X168020000Y-110000000D01*
X168037936Y-108500000D02*
G75*
G03X168037936Y-108500000I-2517936J0D01*
G01*
X128004888Y-116975096D02*
G75*
G03X128020000Y-120000000I-2484888J-1524904D01*
G01*
X128020000Y-117000000D02*
X128020000Y-120000000D01*
X128037936Y-118500000D02*
G75*
G03X128037936Y-118500000I-2517936J0D01*
G01*
X138004888Y-116975096D02*
G75*
G03X138020000Y-120000000I-2484888J-1524904D01*
G01*
X138020000Y-117000000D02*
X138020000Y-120000000D01*
X138037936Y-118500000D02*
G75*
G03X138037936Y-118500000I-2517936J0D01*
G01*
X148004888Y-116975096D02*
G75*
G03X148020000Y-120000000I-2484888J-1524904D01*
G01*
X148020000Y-117000000D02*
X148020000Y-120000000D01*
X148037936Y-118500000D02*
G75*
G03X148037936Y-118500000I-2517936J0D01*
G01*
X158004888Y-116975096D02*
G75*
G03X158020000Y-120000000I-2484888J-1524904D01*
G01*
X158020000Y-117000000D02*
X158020000Y-120000000D01*
X158037936Y-118500000D02*
G75*
G03X158037936Y-118500000I-2517936J0D01*
G01*
X168004888Y-116975096D02*
G75*
G03X168020000Y-120000000I-2484888J-1524904D01*
G01*
X168020000Y-117000000D02*
X168020000Y-120000000D01*
X168037936Y-118500000D02*
G75*
G03X168037936Y-118500000I-2517936J0D01*
G01*
X128004888Y-126975096D02*
G75*
G03X128020000Y-130000000I-2484888J-1524904D01*
G01*
X128020000Y-127000000D02*
X128020000Y-130000000D01*
X128037936Y-128500000D02*
G75*
G03X128037936Y-128500000I-2517936J0D01*
G01*
X138004888Y-126975096D02*
G75*
G03X138020000Y-130000000I-2484888J-1524904D01*
G01*
X138020000Y-127000000D02*
X138020000Y-130000000D01*
X138037936Y-128500000D02*
G75*
G03X138037936Y-128500000I-2517936J0D01*
G01*
X148004888Y-126975096D02*
G75*
G03X148020000Y-130000000I-2484888J-1524904D01*
G01*
X148020000Y-127000000D02*
X148020000Y-130000000D01*
X148037936Y-128500000D02*
G75*
G03X148037936Y-128500000I-2517936J0D01*
G01*
X158004888Y-126975096D02*
G75*
G03X158020000Y-130000000I-2484888J-1524904D01*
G01*
X158020000Y-127000000D02*
X158020000Y-130000000D01*
X158037936Y-128500000D02*
G75*
G03X158037936Y-128500000I-2517936J0D01*
G01*
X168004888Y-126975096D02*
G75*
G03X168020000Y-130000000I-2484888J-1524904D01*
G01*
X168020000Y-127000000D02*
X168020000Y-130000000D01*
X168037936Y-128500000D02*
G75*
G03X168037936Y-128500000I-2517936J0D01*
G01*
X178004888Y-36975096D02*
G75*
G03X178020000Y-40000000I-2484888J-1524904D01*
G01*
X178020000Y-37000000D02*
X178020000Y-40000000D01*
X178037936Y-38500000D02*
G75*
G03X178037936Y-38500000I-2517936J0D01*
G01*
X187964888Y-36975096D02*
G75*
G03X187980000Y-40000000I-2484888J-1524904D01*
G01*
X187980000Y-37000000D02*
X187980000Y-40000000D01*
X187997936Y-38500000D02*
G75*
G03X187997936Y-38500000I-2517936J0D01*
G01*
X198004888Y-36975096D02*
G75*
G03X198020000Y-40000000I-2484888J-1524904D01*
G01*
X198020000Y-37000000D02*
X198020000Y-40000000D01*
X198037936Y-38500000D02*
G75*
G03X198037936Y-38500000I-2517936J0D01*
G01*
X208004888Y-36975096D02*
G75*
G03X208020000Y-40000000I-2484888J-1524904D01*
G01*
X208020000Y-37000000D02*
X208020000Y-40000000D01*
X208037936Y-38500000D02*
G75*
G03X208037936Y-38500000I-2517936J0D01*
G01*
X217964888Y-36975096D02*
G75*
G03X217980000Y-40000000I-2484888J-1524904D01*
G01*
X217980000Y-37000000D02*
X217980000Y-40000000D01*
X217997936Y-38500000D02*
G75*
G03X217997936Y-38500000I-2517936J0D01*
G01*
X178004888Y-46975096D02*
G75*
G03X178020000Y-50000000I-2484888J-1524904D01*
G01*
X178020000Y-47000000D02*
X178020000Y-50000000D01*
X178037936Y-48500000D02*
G75*
G03X178037936Y-48500000I-2517936J0D01*
G01*
X187964888Y-46975096D02*
G75*
G03X187980000Y-50000000I-2484888J-1524904D01*
G01*
X187980000Y-47000000D02*
X187980000Y-50000000D01*
X187997936Y-48500000D02*
G75*
G03X187997936Y-48500000I-2517936J0D01*
G01*
X197964888Y-46975096D02*
G75*
G03X197980000Y-50000000I-2484888J-1524904D01*
G01*
X197980000Y-47000000D02*
X197980000Y-50000000D01*
X197997936Y-48500000D02*
G75*
G03X197997936Y-48500000I-2517936J0D01*
G01*
X207964888Y-46975096D02*
G75*
G03X207980000Y-50000000I-2484888J-1524904D01*
G01*
X207980000Y-47000000D02*
X207980000Y-50000000D01*
X207997936Y-48500000D02*
G75*
G03X207997936Y-48500000I-2517936J0D01*
G01*
X217964888Y-46975096D02*
G75*
G03X217980000Y-50000000I-2484888J-1524904D01*
G01*
X217980000Y-47000000D02*
X217980000Y-50000000D01*
X217997936Y-48500000D02*
G75*
G03X217997936Y-48500000I-2517936J0D01*
G01*
X177964888Y-56975096D02*
G75*
G03X177980000Y-60000000I-2484888J-1524904D01*
G01*
X177980000Y-57000000D02*
X177980000Y-60000000D01*
X177997936Y-58500000D02*
G75*
G03X177997936Y-58500000I-2517936J0D01*
G01*
X187964888Y-56975096D02*
G75*
G03X187980000Y-60000000I-2484888J-1524904D01*
G01*
X187980000Y-57000000D02*
X187980000Y-60000000D01*
X187997936Y-58500000D02*
G75*
G03X187997936Y-58500000I-2517936J0D01*
G01*
X197964888Y-56975096D02*
G75*
G03X197980000Y-60000000I-2484888J-1524904D01*
G01*
X197980000Y-57000000D02*
X197980000Y-60000000D01*
X197997936Y-58500000D02*
G75*
G03X197997936Y-58500000I-2517936J0D01*
G01*
X207964888Y-56975096D02*
G75*
G03X207980000Y-60000000I-2484888J-1524904D01*
G01*
X207980000Y-57000000D02*
X207980000Y-60000000D01*
X207997936Y-58500000D02*
G75*
G03X207997936Y-58500000I-2517936J0D01*
G01*
X217964888Y-56975096D02*
G75*
G03X217980000Y-60000000I-2484888J-1524904D01*
G01*
X217980000Y-57000000D02*
X217980000Y-60000000D01*
X217997936Y-58500000D02*
G75*
G03X217997936Y-58500000I-2517936J0D01*
G01*
X177964888Y-66975096D02*
G75*
G03X177980000Y-70000000I-2484888J-1524904D01*
G01*
X177980000Y-67000000D02*
X177980000Y-70000000D01*
X177997936Y-68500000D02*
G75*
G03X177997936Y-68500000I-2517936J0D01*
G01*
X187964888Y-66975096D02*
G75*
G03X187980000Y-70000000I-2484888J-1524904D01*
G01*
X187980000Y-67000000D02*
X187980000Y-70000000D01*
X187997936Y-68500000D02*
G75*
G03X187997936Y-68500000I-2517936J0D01*
G01*
X198004888Y-66975096D02*
G75*
G03X198020000Y-70000000I-2484888J-1524904D01*
G01*
X198020000Y-67000000D02*
X198020000Y-70000000D01*
X198037936Y-68500000D02*
G75*
G03X198037936Y-68500000I-2517936J0D01*
G01*
X207964888Y-66975096D02*
G75*
G03X207980000Y-70000000I-2484888J-1524904D01*
G01*
X207980000Y-67000000D02*
X207980000Y-70000000D01*
X207997936Y-68500000D02*
G75*
G03X207997936Y-68500000I-2517936J0D01*
G01*
X217964888Y-66975096D02*
G75*
G03X217980000Y-70000000I-2484888J-1524904D01*
G01*
X217980000Y-67000000D02*
X217980000Y-70000000D01*
X217997936Y-68500000D02*
G75*
G03X217997936Y-68500000I-2517936J0D01*
G01*
X178004888Y-76975096D02*
G75*
G03X178020000Y-80000000I-2484888J-1524904D01*
G01*
X178020000Y-77000000D02*
X178020000Y-80000000D01*
X178037936Y-78500000D02*
G75*
G03X178037936Y-78500000I-2517936J0D01*
G01*
X187964888Y-76975096D02*
G75*
G03X187980000Y-80000000I-2484888J-1524904D01*
G01*
X187980000Y-77000000D02*
X187980000Y-80000000D01*
X187997936Y-78500000D02*
G75*
G03X187997936Y-78500000I-2517936J0D01*
G01*
X198004888Y-76975096D02*
G75*
G03X198020000Y-80000000I-2484888J-1524904D01*
G01*
X198020000Y-77000000D02*
X198020000Y-80000000D01*
X198037936Y-78500000D02*
G75*
G03X198037936Y-78500000I-2517936J0D01*
G01*
X207964888Y-76975096D02*
G75*
G03X207980000Y-80000000I-2484888J-1524904D01*
G01*
X207980000Y-77000000D02*
X207980000Y-80000000D01*
X207997936Y-78500000D02*
G75*
G03X207997936Y-78500000I-2517936J0D01*
G01*
X217964888Y-76975096D02*
G75*
G03X217980000Y-80000000I-2484888J-1524904D01*
G01*
X217980000Y-77000000D02*
X217980000Y-80000000D01*
X217997936Y-78500000D02*
G75*
G03X217997936Y-78500000I-2517936J0D01*
G01*
X177964888Y-86975096D02*
G75*
G03X177980000Y-90000000I-2484888J-1524904D01*
G01*
X177980000Y-87000000D02*
X177980000Y-90000000D01*
X177997936Y-88500000D02*
G75*
G03X177997936Y-88500000I-2517936J0D01*
G01*
X187964888Y-86975096D02*
G75*
G03X187980000Y-90000000I-2484888J-1524904D01*
G01*
X187980000Y-87000000D02*
X187980000Y-90000000D01*
X187997936Y-88500000D02*
G75*
G03X187997936Y-88500000I-2517936J0D01*
G01*
X197964888Y-86975096D02*
G75*
G03X197980000Y-90000000I-2484888J-1524904D01*
G01*
X197980000Y-87000000D02*
X197980000Y-90000000D01*
X197997936Y-88500000D02*
G75*
G03X197997936Y-88500000I-2517936J0D01*
G01*
X207964888Y-86975096D02*
G75*
G03X207980000Y-90000000I-2484888J-1524904D01*
G01*
X207980000Y-87000000D02*
X207980000Y-90000000D01*
X207997936Y-88500000D02*
G75*
G03X207997936Y-88500000I-2517936J0D01*
G01*
X217964888Y-86975096D02*
G75*
G03X217980000Y-90000000I-2484888J-1524904D01*
G01*
X217980000Y-87000000D02*
X217980000Y-90000000D01*
X217997936Y-88500000D02*
G75*
G03X217997936Y-88500000I-2517936J0D01*
G01*
X177964888Y-96975096D02*
G75*
G03X177980000Y-100000000I-2484888J-1524904D01*
G01*
X177980000Y-97000000D02*
X177980000Y-100000000D01*
X177997936Y-98500000D02*
G75*
G03X177997936Y-98500000I-2517936J0D01*
G01*
X187964888Y-96975096D02*
G75*
G03X187980000Y-100000000I-2484888J-1524904D01*
G01*
X187980000Y-97000000D02*
X187980000Y-100000000D01*
X187997936Y-98500000D02*
G75*
G03X187997936Y-98500000I-2517936J0D01*
G01*
X197964888Y-96975096D02*
G75*
G03X197980000Y-100000000I-2484888J-1524904D01*
G01*
X197980000Y-97000000D02*
X197980000Y-100000000D01*
X197997936Y-98500000D02*
G75*
G03X197997936Y-98500000I-2517936J0D01*
G01*
X207964888Y-96975096D02*
G75*
G03X207980000Y-100000000I-2484888J-1524904D01*
G01*
X207980000Y-97000000D02*
X207980000Y-100000000D01*
X207997936Y-98500000D02*
G75*
G03X207997936Y-98500000I-2517936J0D01*
G01*
X217964888Y-96975096D02*
G75*
G03X217980000Y-100000000I-2484888J-1524904D01*
G01*
X217980000Y-97000000D02*
X217980000Y-100000000D01*
X217997936Y-98500000D02*
G75*
G03X217997936Y-98500000I-2517936J0D01*
G01*
X177964888Y-106975096D02*
G75*
G03X177980000Y-110000000I-2484888J-1524904D01*
G01*
X177980000Y-107000000D02*
X177980000Y-110000000D01*
X177997936Y-108500000D02*
G75*
G03X177997936Y-108500000I-2517936J0D01*
G01*
X187964888Y-106975096D02*
G75*
G03X187980000Y-110000000I-2484888J-1524904D01*
G01*
X187980000Y-107000000D02*
X187980000Y-110000000D01*
X187997936Y-108500000D02*
G75*
G03X187997936Y-108500000I-2517936J0D01*
G01*
X198004888Y-106975096D02*
G75*
G03X198020000Y-110000000I-2484888J-1524904D01*
G01*
X198020000Y-107000000D02*
X198020000Y-110000000D01*
X198037936Y-108500000D02*
G75*
G03X198037936Y-108500000I-2517936J0D01*
G01*
X207964888Y-106975096D02*
G75*
G03X207980000Y-110000000I-2484888J-1524904D01*
G01*
X207980000Y-107000000D02*
X207980000Y-110000000D01*
X207997936Y-108500000D02*
G75*
G03X207997936Y-108500000I-2517936J0D01*
G01*
X217964888Y-106975096D02*
G75*
G03X217980000Y-110000000I-2484888J-1524904D01*
G01*
X217980000Y-107000000D02*
X217980000Y-110000000D01*
X217997936Y-108500000D02*
G75*
G03X217997936Y-108500000I-2517936J0D01*
G01*
X177964888Y-116975096D02*
G75*
G03X177980000Y-120000000I-2484888J-1524904D01*
G01*
X177980000Y-117000000D02*
X177980000Y-120000000D01*
X177997936Y-118500000D02*
G75*
G03X177997936Y-118500000I-2517936J0D01*
G01*
X188004888Y-116975096D02*
G75*
G03X188020000Y-120000000I-2484888J-1524904D01*
G01*
X188020000Y-117000000D02*
X188020000Y-120000000D01*
X188037936Y-118500000D02*
G75*
G03X188037936Y-118500000I-2517936J0D01*
G01*
X197964888Y-116975096D02*
G75*
G03X197980000Y-120000000I-2484888J-1524904D01*
G01*
X197980000Y-117000000D02*
X197980000Y-120000000D01*
X197997936Y-118500000D02*
G75*
G03X197997936Y-118500000I-2517936J0D01*
G01*
X207964888Y-116975096D02*
G75*
G03X207980000Y-120000000I-2484888J-1524904D01*
G01*
X207980000Y-117000000D02*
X207980000Y-120000000D01*
X207997936Y-118500000D02*
G75*
G03X207997936Y-118500000I-2517936J0D01*
G01*
X217964888Y-116975096D02*
G75*
G03X217980000Y-120000000I-2484888J-1524904D01*
G01*
X217980000Y-117000000D02*
X217980000Y-120000000D01*
X217997936Y-118500000D02*
G75*
G03X217997936Y-118500000I-2517936J0D01*
G01*
X177964888Y-126975096D02*
G75*
G03X177980000Y-130000000I-2484888J-1524904D01*
G01*
X177980000Y-127000000D02*
X177980000Y-130000000D01*
X177997936Y-128500000D02*
G75*
G03X177997936Y-128500000I-2517936J0D01*
G01*
X187964888Y-126975096D02*
G75*
G03X187980000Y-130000000I-2484888J-1524904D01*
G01*
X187980000Y-127000000D02*
X187980000Y-130000000D01*
X187997936Y-128500000D02*
G75*
G03X187997936Y-128500000I-2517936J0D01*
G01*
X197964888Y-126975096D02*
G75*
G03X197980000Y-130000000I-2484888J-1524904D01*
G01*
X197980000Y-127000000D02*
X197980000Y-130000000D01*
X197997936Y-128500000D02*
G75*
G03X197997936Y-128500000I-2517936J0D01*
G01*
X207964888Y-126975096D02*
G75*
G03X207980000Y-130000000I-2484888J-1524904D01*
G01*
X207980000Y-127000000D02*
X207980000Y-130000000D01*
X207997936Y-128500000D02*
G75*
G03X207997936Y-128500000I-2517936J0D01*
G01*
X217964888Y-126975096D02*
G75*
G03X217980000Y-130000000I-2484888J-1524904D01*
G01*
X217980000Y-127000000D02*
X217980000Y-130000000D01*
X217997936Y-128500000D02*
G75*
G03X217997936Y-128500000I-2517936J0D01*
G01*
X70020000Y-100520000D02*
X70020000Y-103060000D01*
X70300000Y-97700000D02*
X70300000Y-99250000D01*
X70020000Y-100520000D02*
X67480000Y-100520000D01*
X67200000Y-99250000D02*
X67200000Y-97700000D01*
X67200000Y-97700000D02*
X70300000Y-97700000D01*
X67480000Y-100520000D02*
X67480000Y-103060000D01*
X67480000Y-103060000D02*
X70020000Y-103060000D01*
X78224472Y-136750000D02*
G75*
G03X78224472Y-136750000I-2514472J0D01*
G01*
X78250000Y-123669000D02*
X78250000Y-121891000D01*
X75710000Y-123669000D02*
X75710000Y-121891000D01*
X73170000Y-123669000D02*
X73170000Y-121891000D01*
X70376000Y-132178000D02*
X70376000Y-140179000D01*
X70376000Y-140179000D02*
X81044000Y-140179000D01*
X81044000Y-140179000D02*
X81044000Y-132178000D01*
X70376000Y-123669000D02*
X70376000Y-132178000D01*
X70376000Y-132178000D02*
X81044000Y-132178000D01*
X81044000Y-132178000D02*
X81044000Y-123669000D01*
X75710000Y-123669000D02*
X81044000Y-123669000D01*
X75710000Y-123669000D02*
X70376000Y-123669000D01*
X95955000Y-39820000D02*
X90875000Y-39820000D01*
X90875000Y-39820000D02*
X90875000Y-37280000D01*
X90875000Y-37280000D02*
X95955000Y-37280000D01*
X95955000Y-37280000D02*
X95955000Y-39820000D01*
X95955000Y-49817222D02*
X90875000Y-49817222D01*
X90875000Y-49817222D02*
X90875000Y-47277222D01*
X90875000Y-47277222D02*
X95955000Y-47277222D01*
X95955000Y-47277222D02*
X95955000Y-49817222D01*
X95955000Y-59814444D02*
X90875000Y-59814444D01*
X90875000Y-59814444D02*
X90875000Y-57274444D01*
X90875000Y-57274444D02*
X95955000Y-57274444D01*
X95955000Y-57274444D02*
X95955000Y-59814444D01*
X95955000Y-69811666D02*
X90875000Y-69811666D01*
X90875000Y-69811666D02*
X90875000Y-67271666D01*
X90875000Y-67271666D02*
X95955000Y-67271666D01*
X95955000Y-67271666D02*
X95955000Y-69811666D01*
X95955000Y-79808888D02*
X90875000Y-79808888D01*
X90875000Y-79808888D02*
X90875000Y-77268888D01*
X90875000Y-77268888D02*
X95955000Y-77268888D01*
X95955000Y-77268888D02*
X95955000Y-79808888D01*
X95955000Y-89806110D02*
X90875000Y-89806110D01*
X90875000Y-89806110D02*
X90875000Y-87266110D01*
X90875000Y-87266110D02*
X95955000Y-87266110D01*
X95955000Y-87266110D02*
X95955000Y-89806110D01*
X95955000Y-99803332D02*
X90875000Y-99803332D01*
X90875000Y-99803332D02*
X90875000Y-97263332D01*
X90875000Y-97263332D02*
X95955000Y-97263332D01*
X95955000Y-97263332D02*
X95955000Y-99803332D01*
X95955000Y-109800554D02*
X90875000Y-109800554D01*
X90875000Y-109800554D02*
X90875000Y-107260554D01*
X90875000Y-107260554D02*
X95955000Y-107260554D01*
X95955000Y-107260554D02*
X95955000Y-109800554D01*
X95955000Y-119797776D02*
X90875000Y-119797776D01*
X90875000Y-119797776D02*
X90875000Y-117257776D01*
X90875000Y-117257776D02*
X95955000Y-117257776D01*
X95955000Y-117257776D02*
X95955000Y-119797776D01*
X95955000Y-129794998D02*
X90875000Y-129794998D01*
X90875000Y-129794998D02*
X90875000Y-127254998D01*
X90875000Y-127254998D02*
X95955000Y-127254998D01*
X95955000Y-127254998D02*
X95955000Y-129794998D01*
X112055000Y-39845000D02*
X106975000Y-39845000D01*
X106975000Y-39845000D02*
X106975000Y-37305000D01*
X106975000Y-37305000D02*
X112055000Y-37305000D01*
X112055000Y-37305000D02*
X112055000Y-39845000D01*
X112055000Y-49842222D02*
X106975000Y-49842222D01*
X106975000Y-49842222D02*
X106975000Y-47302222D01*
X106975000Y-47302222D02*
X112055000Y-47302222D01*
X112055000Y-47302222D02*
X112055000Y-49842222D01*
X112055000Y-59839444D02*
X106975000Y-59839444D01*
X106975000Y-59839444D02*
X106975000Y-57299444D01*
X106975000Y-57299444D02*
X112055000Y-57299444D01*
X112055000Y-57299444D02*
X112055000Y-59839444D01*
X112055000Y-69836666D02*
X106975000Y-69836666D01*
X106975000Y-69836666D02*
X106975000Y-67296666D01*
X106975000Y-67296666D02*
X112055000Y-67296666D01*
X112055000Y-67296666D02*
X112055000Y-69836666D01*
X112055000Y-79833888D02*
X106975000Y-79833888D01*
X106975000Y-79833888D02*
X106975000Y-77293888D01*
X106975000Y-77293888D02*
X112055000Y-77293888D01*
X112055000Y-77293888D02*
X112055000Y-79833888D01*
X112055000Y-89831110D02*
X106975000Y-89831110D01*
X106975000Y-89831110D02*
X106975000Y-87291110D01*
X106975000Y-87291110D02*
X112055000Y-87291110D01*
X112055000Y-87291110D02*
X112055000Y-89831110D01*
X112055000Y-99828332D02*
X106975000Y-99828332D01*
X106975000Y-99828332D02*
X106975000Y-97288332D01*
X106975000Y-97288332D02*
X112055000Y-97288332D01*
X112055000Y-97288332D02*
X112055000Y-99828332D01*
X112055000Y-109825554D02*
X106975000Y-109825554D01*
X106975000Y-109825554D02*
X106975000Y-107285554D01*
X106975000Y-107285554D02*
X112055000Y-107285554D01*
X112055000Y-107285554D02*
X112055000Y-109825554D01*
X112055000Y-119822776D02*
X106975000Y-119822776D01*
X106975000Y-119822776D02*
X106975000Y-117282776D01*
X106975000Y-117282776D02*
X112055000Y-117282776D01*
X112055000Y-117282776D02*
X112055000Y-119822776D01*
X112055000Y-129819998D02*
X106975000Y-129819998D01*
X106975000Y-129819998D02*
X106975000Y-127279998D01*
X106975000Y-127279998D02*
X112055000Y-127279998D01*
X112055000Y-127279998D02*
X112055000Y-129819998D01*
X77230000Y-105480000D02*
X77230000Y-100400000D01*
X77230000Y-100400000D02*
X79770000Y-100400000D01*
X79770000Y-100400000D02*
X79770000Y-105480000D01*
X79770000Y-105480000D02*
X77230000Y-105480000D01*
X81355000Y-118705000D02*
X81355000Y-113625000D01*
X81355000Y-113625000D02*
X83895000Y-113625000D01*
X83895000Y-113625000D02*
X83895000Y-118705000D01*
X83895000Y-118705000D02*
X81355000Y-118705000D01*
X69795000Y-113645000D02*
X69795000Y-118725000D01*
X69795000Y-118725000D02*
X67255000Y-118725000D01*
X67255000Y-118725000D02*
X67255000Y-113645000D01*
X67255000Y-113645000D02*
X69795000Y-113645000D01*
X67100000Y-78670000D02*
X71400000Y-78670000D01*
X69250000Y-88710000D02*
X71400000Y-88710000D01*
X67100000Y-78670000D02*
X67100000Y-88710000D01*
X71400000Y-78670000D02*
X71400000Y-88710000D01*
X68610000Y-83690000D02*
X69890000Y-83690000D01*
X68610000Y-81660000D02*
X68610000Y-85720000D01*
X68610000Y-85720000D02*
X69890000Y-85720000D01*
X69890000Y-85720000D02*
X69890000Y-81660000D01*
X69890000Y-81660000D02*
X68610000Y-81660000D01*
X120906667Y-139192381D02*
X120573333Y-138716190D01*
X120335238Y-139192381D02*
X120335238Y-138192381D01*
X120716191Y-138192381D01*
X120811429Y-138240000D01*
X120859048Y-138287619D01*
X120906667Y-138382857D01*
X120906667Y-138525714D01*
X120859048Y-138620952D01*
X120811429Y-138668571D01*
X120716191Y-138716190D01*
X120335238Y-138716190D01*
X121335238Y-138668571D02*
X121668572Y-138668571D01*
X121811429Y-139192381D02*
X121335238Y-139192381D01*
X121335238Y-138192381D01*
X121811429Y-138192381D01*
X122573334Y-138668571D02*
X122240000Y-138668571D01*
X122240000Y-139192381D02*
X122240000Y-138192381D01*
X122716191Y-138192381D01*
X123240000Y-138192381D02*
X123240000Y-138430476D01*
X123001905Y-138335238D02*
X123240000Y-138430476D01*
X123478096Y-138335238D01*
X123097143Y-138620952D02*
X123240000Y-138430476D01*
X123382858Y-138620952D01*
X124001905Y-138192381D02*
X124001905Y-138430476D01*
X123763810Y-138335238D02*
X124001905Y-138430476D01*
X124240001Y-138335238D01*
X123859048Y-138620952D02*
X124001905Y-138430476D01*
X124144763Y-138620952D01*
X217726667Y-137782381D02*
X217393333Y-137306190D01*
X217155238Y-137782381D02*
X217155238Y-136782381D01*
X217536191Y-136782381D01*
X217631429Y-136830000D01*
X217679048Y-136877619D01*
X217726667Y-136972857D01*
X217726667Y-137115714D01*
X217679048Y-137210952D01*
X217631429Y-137258571D01*
X217536191Y-137306190D01*
X217155238Y-137306190D01*
X218155238Y-137258571D02*
X218488572Y-137258571D01*
X218631429Y-137782381D02*
X218155238Y-137782381D01*
X218155238Y-136782381D01*
X218631429Y-136782381D01*
X219393334Y-137258571D02*
X219060000Y-137258571D01*
X219060000Y-137782381D02*
X219060000Y-136782381D01*
X219536191Y-136782381D01*
X220060000Y-136782381D02*
X220060000Y-137020476D01*
X219821905Y-136925238D02*
X220060000Y-137020476D01*
X220298096Y-136925238D01*
X219917143Y-137210952D02*
X220060000Y-137020476D01*
X220202858Y-137210952D01*
X220821905Y-136782381D02*
X220821905Y-137020476D01*
X220583810Y-136925238D02*
X220821905Y-137020476D01*
X221060001Y-136925238D01*
X220679048Y-137210952D02*
X220821905Y-137020476D01*
X220964763Y-137210952D01*
X217846667Y-26652381D02*
X217513333Y-26176190D01*
X217275238Y-26652381D02*
X217275238Y-25652381D01*
X217656191Y-25652381D01*
X217751429Y-25700000D01*
X217799048Y-25747619D01*
X217846667Y-25842857D01*
X217846667Y-25985714D01*
X217799048Y-26080952D01*
X217751429Y-26128571D01*
X217656191Y-26176190D01*
X217275238Y-26176190D01*
X218275238Y-26128571D02*
X218608572Y-26128571D01*
X218751429Y-26652381D02*
X218275238Y-26652381D01*
X218275238Y-25652381D01*
X218751429Y-25652381D01*
X219513334Y-26128571D02*
X219180000Y-26128571D01*
X219180000Y-26652381D02*
X219180000Y-25652381D01*
X219656191Y-25652381D01*
X220180000Y-25652381D02*
X220180000Y-25890476D01*
X219941905Y-25795238D02*
X220180000Y-25890476D01*
X220418096Y-25795238D01*
X220037143Y-26080952D02*
X220180000Y-25890476D01*
X220322858Y-26080952D01*
X220941905Y-25652381D02*
X220941905Y-25890476D01*
X220703810Y-25795238D02*
X220941905Y-25890476D01*
X221180001Y-25795238D01*
X220799048Y-26080952D02*
X220941905Y-25890476D01*
X221084763Y-26080952D01*
X78956183Y-65214285D02*
X79003802Y-65261904D01*
X79051421Y-65404761D01*
X79051421Y-65499999D01*
X79003802Y-65642857D01*
X78908564Y-65738095D01*
X78813326Y-65785714D01*
X78622850Y-65833333D01*
X78479992Y-65833333D01*
X78289516Y-65785714D01*
X78194278Y-65738095D01*
X78099040Y-65642857D01*
X78051421Y-65499999D01*
X78051421Y-65404761D01*
X78099040Y-65261904D01*
X78146659Y-65214285D01*
X78051421Y-64595238D02*
X78051421Y-64404761D01*
X78099040Y-64309523D01*
X78194278Y-64214285D01*
X78384754Y-64166666D01*
X78718088Y-64166666D01*
X78908564Y-64214285D01*
X79003802Y-64309523D01*
X79051421Y-64404761D01*
X79051421Y-64595238D01*
X79003802Y-64690476D01*
X78908564Y-64785714D01*
X78718088Y-64833333D01*
X78384754Y-64833333D01*
X78194278Y-64785714D01*
X78099040Y-64690476D01*
X78051421Y-64595238D01*
X79051421Y-63738095D02*
X78051421Y-63738095D01*
X79051421Y-63166666D01*
X78051421Y-63166666D01*
X79051421Y-62166666D02*
X79051421Y-62738095D01*
X79051421Y-62452381D02*
X78051421Y-62452381D01*
X78194278Y-62547619D01*
X78289516Y-62642857D01*
X78337135Y-62738095D01*
X124487905Y-34888381D02*
X124487905Y-33888381D01*
X124726000Y-33888381D01*
X124868858Y-33936000D01*
X124964096Y-34031238D01*
X125011715Y-34126476D01*
X125059334Y-34316952D01*
X125059334Y-34459810D01*
X125011715Y-34650286D01*
X124964096Y-34745524D01*
X124868858Y-34840762D01*
X124726000Y-34888381D01*
X124487905Y-34888381D01*
X126011715Y-34888381D02*
X125440286Y-34888381D01*
X125726000Y-34888381D02*
X125726000Y-33888381D01*
X125630762Y-34031238D01*
X125535524Y-34126476D01*
X125440286Y-34174095D01*
X128393095Y-37047381D02*
X128393095Y-36047381D01*
X128964524Y-37047381D02*
X128535952Y-36475952D01*
X128964524Y-36047381D02*
X128393095Y-36618810D01*
X134487905Y-34888381D02*
X134487905Y-33888381D01*
X134726000Y-33888381D01*
X134868858Y-33936000D01*
X134964096Y-34031238D01*
X135011715Y-34126476D01*
X135059334Y-34316952D01*
X135059334Y-34459810D01*
X135011715Y-34650286D01*
X134964096Y-34745524D01*
X134868858Y-34840762D01*
X134726000Y-34888381D01*
X134487905Y-34888381D01*
X135440286Y-33983619D02*
X135487905Y-33936000D01*
X135583143Y-33888381D01*
X135821239Y-33888381D01*
X135916477Y-33936000D01*
X135964096Y-33983619D01*
X136011715Y-34078857D01*
X136011715Y-34174095D01*
X135964096Y-34316952D01*
X135392667Y-34888381D01*
X136011715Y-34888381D01*
X138393095Y-37047381D02*
X138393095Y-36047381D01*
X138964524Y-37047381D02*
X138535952Y-36475952D01*
X138964524Y-36047381D02*
X138393095Y-36618810D01*
X144487905Y-34888381D02*
X144487905Y-33888381D01*
X144726000Y-33888381D01*
X144868858Y-33936000D01*
X144964096Y-34031238D01*
X145011715Y-34126476D01*
X145059334Y-34316952D01*
X145059334Y-34459810D01*
X145011715Y-34650286D01*
X144964096Y-34745524D01*
X144868858Y-34840762D01*
X144726000Y-34888381D01*
X144487905Y-34888381D01*
X145392667Y-33888381D02*
X146011715Y-33888381D01*
X145678381Y-34269333D01*
X145821239Y-34269333D01*
X145916477Y-34316952D01*
X145964096Y-34364571D01*
X146011715Y-34459810D01*
X146011715Y-34697905D01*
X145964096Y-34793143D01*
X145916477Y-34840762D01*
X145821239Y-34888381D01*
X145535524Y-34888381D01*
X145440286Y-34840762D01*
X145392667Y-34793143D01*
X148393095Y-37047381D02*
X148393095Y-36047381D01*
X148964524Y-37047381D02*
X148535952Y-36475952D01*
X148964524Y-36047381D02*
X148393095Y-36618810D01*
X154527905Y-34888381D02*
X154527905Y-33888381D01*
X154766000Y-33888381D01*
X154908858Y-33936000D01*
X155004096Y-34031238D01*
X155051715Y-34126476D01*
X155099334Y-34316952D01*
X155099334Y-34459810D01*
X155051715Y-34650286D01*
X155004096Y-34745524D01*
X154908858Y-34840762D01*
X154766000Y-34888381D01*
X154527905Y-34888381D01*
X155956477Y-34221714D02*
X155956477Y-34888381D01*
X155718381Y-33840762D02*
X155480286Y-34555048D01*
X156099334Y-34555048D01*
X158433095Y-37047381D02*
X158433095Y-36047381D01*
X159004524Y-37047381D02*
X158575952Y-36475952D01*
X159004524Y-36047381D02*
X158433095Y-36618810D01*
X164487905Y-34888381D02*
X164487905Y-33888381D01*
X164726000Y-33888381D01*
X164868858Y-33936000D01*
X164964096Y-34031238D01*
X165011715Y-34126476D01*
X165059334Y-34316952D01*
X165059334Y-34459810D01*
X165011715Y-34650286D01*
X164964096Y-34745524D01*
X164868858Y-34840762D01*
X164726000Y-34888381D01*
X164487905Y-34888381D01*
X165964096Y-33888381D02*
X165487905Y-33888381D01*
X165440286Y-34364571D01*
X165487905Y-34316952D01*
X165583143Y-34269333D01*
X165821239Y-34269333D01*
X165916477Y-34316952D01*
X165964096Y-34364571D01*
X166011715Y-34459810D01*
X166011715Y-34697905D01*
X165964096Y-34793143D01*
X165916477Y-34840762D01*
X165821239Y-34888381D01*
X165583143Y-34888381D01*
X165487905Y-34840762D01*
X165440286Y-34793143D01*
X168393095Y-37047381D02*
X168393095Y-36047381D01*
X168964524Y-37047381D02*
X168535952Y-36475952D01*
X168964524Y-36047381D02*
X168393095Y-36618810D01*
X124487905Y-44888381D02*
X124487905Y-43888381D01*
X124726000Y-43888381D01*
X124868858Y-43936000D01*
X124964096Y-44031238D01*
X125011715Y-44126476D01*
X125059334Y-44316952D01*
X125059334Y-44459810D01*
X125011715Y-44650286D01*
X124964096Y-44745524D01*
X124868858Y-44840762D01*
X124726000Y-44888381D01*
X124487905Y-44888381D01*
X125916477Y-43888381D02*
X125726000Y-43888381D01*
X125630762Y-43936000D01*
X125583143Y-43983619D01*
X125487905Y-44126476D01*
X125440286Y-44316952D01*
X125440286Y-44697905D01*
X125487905Y-44793143D01*
X125535524Y-44840762D01*
X125630762Y-44888381D01*
X125821239Y-44888381D01*
X125916477Y-44840762D01*
X125964096Y-44793143D01*
X126011715Y-44697905D01*
X126011715Y-44459810D01*
X125964096Y-44364571D01*
X125916477Y-44316952D01*
X125821239Y-44269333D01*
X125630762Y-44269333D01*
X125535524Y-44316952D01*
X125487905Y-44364571D01*
X125440286Y-44459810D01*
X128393095Y-47047381D02*
X128393095Y-46047381D01*
X128964524Y-47047381D02*
X128535952Y-46475952D01*
X128964524Y-46047381D02*
X128393095Y-46618810D01*
X134487905Y-44888381D02*
X134487905Y-43888381D01*
X134726000Y-43888381D01*
X134868858Y-43936000D01*
X134964096Y-44031238D01*
X135011715Y-44126476D01*
X135059334Y-44316952D01*
X135059334Y-44459810D01*
X135011715Y-44650286D01*
X134964096Y-44745524D01*
X134868858Y-44840762D01*
X134726000Y-44888381D01*
X134487905Y-44888381D01*
X135392667Y-43888381D02*
X136059334Y-43888381D01*
X135630762Y-44888381D01*
X138393095Y-47047381D02*
X138393095Y-46047381D01*
X138964524Y-47047381D02*
X138535952Y-46475952D01*
X138964524Y-46047381D02*
X138393095Y-46618810D01*
X144487905Y-44888381D02*
X144487905Y-43888381D01*
X144726000Y-43888381D01*
X144868858Y-43936000D01*
X144964096Y-44031238D01*
X145011715Y-44126476D01*
X145059334Y-44316952D01*
X145059334Y-44459810D01*
X145011715Y-44650286D01*
X144964096Y-44745524D01*
X144868858Y-44840762D01*
X144726000Y-44888381D01*
X144487905Y-44888381D01*
X145630762Y-44316952D02*
X145535524Y-44269333D01*
X145487905Y-44221714D01*
X145440286Y-44126476D01*
X145440286Y-44078857D01*
X145487905Y-43983619D01*
X145535524Y-43936000D01*
X145630762Y-43888381D01*
X145821239Y-43888381D01*
X145916477Y-43936000D01*
X145964096Y-43983619D01*
X146011715Y-44078857D01*
X146011715Y-44126476D01*
X145964096Y-44221714D01*
X145916477Y-44269333D01*
X145821239Y-44316952D01*
X145630762Y-44316952D01*
X145535524Y-44364571D01*
X145487905Y-44412190D01*
X145440286Y-44507429D01*
X145440286Y-44697905D01*
X145487905Y-44793143D01*
X145535524Y-44840762D01*
X145630762Y-44888381D01*
X145821239Y-44888381D01*
X145916477Y-44840762D01*
X145964096Y-44793143D01*
X146011715Y-44697905D01*
X146011715Y-44507429D01*
X145964096Y-44412190D01*
X145916477Y-44364571D01*
X145821239Y-44316952D01*
X148393095Y-47047381D02*
X148393095Y-46047381D01*
X148964524Y-47047381D02*
X148535952Y-46475952D01*
X148964524Y-46047381D02*
X148393095Y-46618810D01*
X154527905Y-44888381D02*
X154527905Y-43888381D01*
X154766000Y-43888381D01*
X154908858Y-43936000D01*
X155004096Y-44031238D01*
X155051715Y-44126476D01*
X155099334Y-44316952D01*
X155099334Y-44459810D01*
X155051715Y-44650286D01*
X155004096Y-44745524D01*
X154908858Y-44840762D01*
X154766000Y-44888381D01*
X154527905Y-44888381D01*
X155575524Y-44888381D02*
X155766000Y-44888381D01*
X155861239Y-44840762D01*
X155908858Y-44793143D01*
X156004096Y-44650286D01*
X156051715Y-44459810D01*
X156051715Y-44078857D01*
X156004096Y-43983619D01*
X155956477Y-43936000D01*
X155861239Y-43888381D01*
X155670762Y-43888381D01*
X155575524Y-43936000D01*
X155527905Y-43983619D01*
X155480286Y-44078857D01*
X155480286Y-44316952D01*
X155527905Y-44412190D01*
X155575524Y-44459810D01*
X155670762Y-44507429D01*
X155861239Y-44507429D01*
X155956477Y-44459810D01*
X156004096Y-44412190D01*
X156051715Y-44316952D01*
X158433095Y-47047381D02*
X158433095Y-46047381D01*
X159004524Y-47047381D02*
X158575952Y-46475952D01*
X159004524Y-46047381D02*
X158433095Y-46618810D01*
X164011714Y-44888381D02*
X164011714Y-43888381D01*
X164249809Y-43888381D01*
X164392667Y-43936000D01*
X164487905Y-44031238D01*
X164535524Y-44126476D01*
X164583143Y-44316952D01*
X164583143Y-44459810D01*
X164535524Y-44650286D01*
X164487905Y-44745524D01*
X164392667Y-44840762D01*
X164249809Y-44888381D01*
X164011714Y-44888381D01*
X165535524Y-44888381D02*
X164964095Y-44888381D01*
X165249809Y-44888381D02*
X165249809Y-43888381D01*
X165154571Y-44031238D01*
X165059333Y-44126476D01*
X164964095Y-44174095D01*
X166154571Y-43888381D02*
X166249810Y-43888381D01*
X166345048Y-43936000D01*
X166392667Y-43983619D01*
X166440286Y-44078857D01*
X166487905Y-44269333D01*
X166487905Y-44507429D01*
X166440286Y-44697905D01*
X166392667Y-44793143D01*
X166345048Y-44840762D01*
X166249810Y-44888381D01*
X166154571Y-44888381D01*
X166059333Y-44840762D01*
X166011714Y-44793143D01*
X165964095Y-44697905D01*
X165916476Y-44507429D01*
X165916476Y-44269333D01*
X165964095Y-44078857D01*
X166011714Y-43983619D01*
X166059333Y-43936000D01*
X166154571Y-43888381D01*
X168393095Y-47047381D02*
X168393095Y-46047381D01*
X168964524Y-47047381D02*
X168535952Y-46475952D01*
X168964524Y-46047381D02*
X168393095Y-46618810D01*
X124051714Y-54888381D02*
X124051714Y-53888381D01*
X124289809Y-53888381D01*
X124432667Y-53936000D01*
X124527905Y-54031238D01*
X124575524Y-54126476D01*
X124623143Y-54316952D01*
X124623143Y-54459810D01*
X124575524Y-54650286D01*
X124527905Y-54745524D01*
X124432667Y-54840762D01*
X124289809Y-54888381D01*
X124051714Y-54888381D01*
X125575524Y-54888381D02*
X125004095Y-54888381D01*
X125289809Y-54888381D02*
X125289809Y-53888381D01*
X125194571Y-54031238D01*
X125099333Y-54126476D01*
X125004095Y-54174095D01*
X126527905Y-54888381D02*
X125956476Y-54888381D01*
X126242190Y-54888381D02*
X126242190Y-53888381D01*
X126146952Y-54031238D01*
X126051714Y-54126476D01*
X125956476Y-54174095D01*
X128433095Y-57047381D02*
X128433095Y-56047381D01*
X129004524Y-57047381D02*
X128575952Y-56475952D01*
X129004524Y-56047381D02*
X128433095Y-56618810D01*
X134011714Y-54888381D02*
X134011714Y-53888381D01*
X134249809Y-53888381D01*
X134392667Y-53936000D01*
X134487905Y-54031238D01*
X134535524Y-54126476D01*
X134583143Y-54316952D01*
X134583143Y-54459810D01*
X134535524Y-54650286D01*
X134487905Y-54745524D01*
X134392667Y-54840762D01*
X134249809Y-54888381D01*
X134011714Y-54888381D01*
X135535524Y-54888381D02*
X134964095Y-54888381D01*
X135249809Y-54888381D02*
X135249809Y-53888381D01*
X135154571Y-54031238D01*
X135059333Y-54126476D01*
X134964095Y-54174095D01*
X135916476Y-53983619D02*
X135964095Y-53936000D01*
X136059333Y-53888381D01*
X136297429Y-53888381D01*
X136392667Y-53936000D01*
X136440286Y-53983619D01*
X136487905Y-54078857D01*
X136487905Y-54174095D01*
X136440286Y-54316952D01*
X135868857Y-54888381D01*
X136487905Y-54888381D01*
X138393095Y-57047381D02*
X138393095Y-56047381D01*
X138964524Y-57047381D02*
X138535952Y-56475952D01*
X138964524Y-56047381D02*
X138393095Y-56618810D01*
X144011714Y-54888381D02*
X144011714Y-53888381D01*
X144249809Y-53888381D01*
X144392667Y-53936000D01*
X144487905Y-54031238D01*
X144535524Y-54126476D01*
X144583143Y-54316952D01*
X144583143Y-54459810D01*
X144535524Y-54650286D01*
X144487905Y-54745524D01*
X144392667Y-54840762D01*
X144249809Y-54888381D01*
X144011714Y-54888381D01*
X145535524Y-54888381D02*
X144964095Y-54888381D01*
X145249809Y-54888381D02*
X145249809Y-53888381D01*
X145154571Y-54031238D01*
X145059333Y-54126476D01*
X144964095Y-54174095D01*
X145868857Y-53888381D02*
X146487905Y-53888381D01*
X146154571Y-54269333D01*
X146297429Y-54269333D01*
X146392667Y-54316952D01*
X146440286Y-54364571D01*
X146487905Y-54459810D01*
X146487905Y-54697905D01*
X146440286Y-54793143D01*
X146392667Y-54840762D01*
X146297429Y-54888381D01*
X146011714Y-54888381D01*
X145916476Y-54840762D01*
X145868857Y-54793143D01*
X148393095Y-57047381D02*
X148393095Y-56047381D01*
X148964524Y-57047381D02*
X148535952Y-56475952D01*
X148964524Y-56047381D02*
X148393095Y-56618810D01*
X154011714Y-54888381D02*
X154011714Y-53888381D01*
X154249809Y-53888381D01*
X154392667Y-53936000D01*
X154487905Y-54031238D01*
X154535524Y-54126476D01*
X154583143Y-54316952D01*
X154583143Y-54459810D01*
X154535524Y-54650286D01*
X154487905Y-54745524D01*
X154392667Y-54840762D01*
X154249809Y-54888381D01*
X154011714Y-54888381D01*
X155535524Y-54888381D02*
X154964095Y-54888381D01*
X155249809Y-54888381D02*
X155249809Y-53888381D01*
X155154571Y-54031238D01*
X155059333Y-54126476D01*
X154964095Y-54174095D01*
X156392667Y-54221714D02*
X156392667Y-54888381D01*
X156154571Y-53840762D02*
X155916476Y-54555048D01*
X156535524Y-54555048D01*
X158393095Y-57047381D02*
X158393095Y-56047381D01*
X158964524Y-57047381D02*
X158535952Y-56475952D01*
X158964524Y-56047381D02*
X158393095Y-56618810D01*
X164011714Y-54888381D02*
X164011714Y-53888381D01*
X164249809Y-53888381D01*
X164392667Y-53936000D01*
X164487905Y-54031238D01*
X164535524Y-54126476D01*
X164583143Y-54316952D01*
X164583143Y-54459810D01*
X164535524Y-54650286D01*
X164487905Y-54745524D01*
X164392667Y-54840762D01*
X164249809Y-54888381D01*
X164011714Y-54888381D01*
X165535524Y-54888381D02*
X164964095Y-54888381D01*
X165249809Y-54888381D02*
X165249809Y-53888381D01*
X165154571Y-54031238D01*
X165059333Y-54126476D01*
X164964095Y-54174095D01*
X166440286Y-53888381D02*
X165964095Y-53888381D01*
X165916476Y-54364571D01*
X165964095Y-54316952D01*
X166059333Y-54269333D01*
X166297429Y-54269333D01*
X166392667Y-54316952D01*
X166440286Y-54364571D01*
X166487905Y-54459810D01*
X166487905Y-54697905D01*
X166440286Y-54793143D01*
X166392667Y-54840762D01*
X166297429Y-54888381D01*
X166059333Y-54888381D01*
X165964095Y-54840762D01*
X165916476Y-54793143D01*
X168393095Y-57047381D02*
X168393095Y-56047381D01*
X168964524Y-57047381D02*
X168535952Y-56475952D01*
X168964524Y-56047381D02*
X168393095Y-56618810D01*
X124011714Y-64888381D02*
X124011714Y-63888381D01*
X124249809Y-63888381D01*
X124392667Y-63936000D01*
X124487905Y-64031238D01*
X124535524Y-64126476D01*
X124583143Y-64316952D01*
X124583143Y-64459810D01*
X124535524Y-64650286D01*
X124487905Y-64745524D01*
X124392667Y-64840762D01*
X124249809Y-64888381D01*
X124011714Y-64888381D01*
X125535524Y-64888381D02*
X124964095Y-64888381D01*
X125249809Y-64888381D02*
X125249809Y-63888381D01*
X125154571Y-64031238D01*
X125059333Y-64126476D01*
X124964095Y-64174095D01*
X126392667Y-63888381D02*
X126202190Y-63888381D01*
X126106952Y-63936000D01*
X126059333Y-63983619D01*
X125964095Y-64126476D01*
X125916476Y-64316952D01*
X125916476Y-64697905D01*
X125964095Y-64793143D01*
X126011714Y-64840762D01*
X126106952Y-64888381D01*
X126297429Y-64888381D01*
X126392667Y-64840762D01*
X126440286Y-64793143D01*
X126487905Y-64697905D01*
X126487905Y-64459810D01*
X126440286Y-64364571D01*
X126392667Y-64316952D01*
X126297429Y-64269333D01*
X126106952Y-64269333D01*
X126011714Y-64316952D01*
X125964095Y-64364571D01*
X125916476Y-64459810D01*
X128393095Y-67047381D02*
X128393095Y-66047381D01*
X128964524Y-67047381D02*
X128535952Y-66475952D01*
X128964524Y-66047381D02*
X128393095Y-66618810D01*
X134011714Y-64888381D02*
X134011714Y-63888381D01*
X134249809Y-63888381D01*
X134392667Y-63936000D01*
X134487905Y-64031238D01*
X134535524Y-64126476D01*
X134583143Y-64316952D01*
X134583143Y-64459810D01*
X134535524Y-64650286D01*
X134487905Y-64745524D01*
X134392667Y-64840762D01*
X134249809Y-64888381D01*
X134011714Y-64888381D01*
X135535524Y-64888381D02*
X134964095Y-64888381D01*
X135249809Y-64888381D02*
X135249809Y-63888381D01*
X135154571Y-64031238D01*
X135059333Y-64126476D01*
X134964095Y-64174095D01*
X135868857Y-63888381D02*
X136535524Y-63888381D01*
X136106952Y-64888381D01*
X138393095Y-67047381D02*
X138393095Y-66047381D01*
X138964524Y-67047381D02*
X138535952Y-66475952D01*
X138964524Y-66047381D02*
X138393095Y-66618810D01*
X144011714Y-64888381D02*
X144011714Y-63888381D01*
X144249809Y-63888381D01*
X144392667Y-63936000D01*
X144487905Y-64031238D01*
X144535524Y-64126476D01*
X144583143Y-64316952D01*
X144583143Y-64459810D01*
X144535524Y-64650286D01*
X144487905Y-64745524D01*
X144392667Y-64840762D01*
X144249809Y-64888381D01*
X144011714Y-64888381D01*
X145535524Y-64888381D02*
X144964095Y-64888381D01*
X145249809Y-64888381D02*
X145249809Y-63888381D01*
X145154571Y-64031238D01*
X145059333Y-64126476D01*
X144964095Y-64174095D01*
X146106952Y-64316952D02*
X146011714Y-64269333D01*
X145964095Y-64221714D01*
X145916476Y-64126476D01*
X145916476Y-64078857D01*
X145964095Y-63983619D01*
X146011714Y-63936000D01*
X146106952Y-63888381D01*
X146297429Y-63888381D01*
X146392667Y-63936000D01*
X146440286Y-63983619D01*
X146487905Y-64078857D01*
X146487905Y-64126476D01*
X146440286Y-64221714D01*
X146392667Y-64269333D01*
X146297429Y-64316952D01*
X146106952Y-64316952D01*
X146011714Y-64364571D01*
X145964095Y-64412190D01*
X145916476Y-64507429D01*
X145916476Y-64697905D01*
X145964095Y-64793143D01*
X146011714Y-64840762D01*
X146106952Y-64888381D01*
X146297429Y-64888381D01*
X146392667Y-64840762D01*
X146440286Y-64793143D01*
X146487905Y-64697905D01*
X146487905Y-64507429D01*
X146440286Y-64412190D01*
X146392667Y-64364571D01*
X146297429Y-64316952D01*
X148393095Y-67047381D02*
X148393095Y-66047381D01*
X148964524Y-67047381D02*
X148535952Y-66475952D01*
X148964524Y-66047381D02*
X148393095Y-66618810D01*
X154011714Y-64888381D02*
X154011714Y-63888381D01*
X154249809Y-63888381D01*
X154392667Y-63936000D01*
X154487905Y-64031238D01*
X154535524Y-64126476D01*
X154583143Y-64316952D01*
X154583143Y-64459810D01*
X154535524Y-64650286D01*
X154487905Y-64745524D01*
X154392667Y-64840762D01*
X154249809Y-64888381D01*
X154011714Y-64888381D01*
X155535524Y-64888381D02*
X154964095Y-64888381D01*
X155249809Y-64888381D02*
X155249809Y-63888381D01*
X155154571Y-64031238D01*
X155059333Y-64126476D01*
X154964095Y-64174095D01*
X156011714Y-64888381D02*
X156202190Y-64888381D01*
X156297429Y-64840762D01*
X156345048Y-64793143D01*
X156440286Y-64650286D01*
X156487905Y-64459810D01*
X156487905Y-64078857D01*
X156440286Y-63983619D01*
X156392667Y-63936000D01*
X156297429Y-63888381D01*
X156106952Y-63888381D01*
X156011714Y-63936000D01*
X155964095Y-63983619D01*
X155916476Y-64078857D01*
X155916476Y-64316952D01*
X155964095Y-64412190D01*
X156011714Y-64459810D01*
X156106952Y-64507429D01*
X156297429Y-64507429D01*
X156392667Y-64459810D01*
X156440286Y-64412190D01*
X156487905Y-64316952D01*
X158393095Y-67047381D02*
X158393095Y-66047381D01*
X158964524Y-67047381D02*
X158535952Y-66475952D01*
X158964524Y-66047381D02*
X158393095Y-66618810D01*
X164011714Y-64888381D02*
X164011714Y-63888381D01*
X164249809Y-63888381D01*
X164392667Y-63936000D01*
X164487905Y-64031238D01*
X164535524Y-64126476D01*
X164583143Y-64316952D01*
X164583143Y-64459810D01*
X164535524Y-64650286D01*
X164487905Y-64745524D01*
X164392667Y-64840762D01*
X164249809Y-64888381D01*
X164011714Y-64888381D01*
X164964095Y-63983619D02*
X165011714Y-63936000D01*
X165106952Y-63888381D01*
X165345048Y-63888381D01*
X165440286Y-63936000D01*
X165487905Y-63983619D01*
X165535524Y-64078857D01*
X165535524Y-64174095D01*
X165487905Y-64316952D01*
X164916476Y-64888381D01*
X165535524Y-64888381D01*
X166154571Y-63888381D02*
X166249810Y-63888381D01*
X166345048Y-63936000D01*
X166392667Y-63983619D01*
X166440286Y-64078857D01*
X166487905Y-64269333D01*
X166487905Y-64507429D01*
X166440286Y-64697905D01*
X166392667Y-64793143D01*
X166345048Y-64840762D01*
X166249810Y-64888381D01*
X166154571Y-64888381D01*
X166059333Y-64840762D01*
X166011714Y-64793143D01*
X165964095Y-64697905D01*
X165916476Y-64507429D01*
X165916476Y-64269333D01*
X165964095Y-64078857D01*
X166011714Y-63983619D01*
X166059333Y-63936000D01*
X166154571Y-63888381D01*
X168393095Y-67047381D02*
X168393095Y-66047381D01*
X168964524Y-67047381D02*
X168535952Y-66475952D01*
X168964524Y-66047381D02*
X168393095Y-66618810D01*
X124051714Y-74888381D02*
X124051714Y-73888381D01*
X124289809Y-73888381D01*
X124432667Y-73936000D01*
X124527905Y-74031238D01*
X124575524Y-74126476D01*
X124623143Y-74316952D01*
X124623143Y-74459810D01*
X124575524Y-74650286D01*
X124527905Y-74745524D01*
X124432667Y-74840762D01*
X124289809Y-74888381D01*
X124051714Y-74888381D01*
X125004095Y-73983619D02*
X125051714Y-73936000D01*
X125146952Y-73888381D01*
X125385048Y-73888381D01*
X125480286Y-73936000D01*
X125527905Y-73983619D01*
X125575524Y-74078857D01*
X125575524Y-74174095D01*
X125527905Y-74316952D01*
X124956476Y-74888381D01*
X125575524Y-74888381D01*
X126527905Y-74888381D02*
X125956476Y-74888381D01*
X126242190Y-74888381D02*
X126242190Y-73888381D01*
X126146952Y-74031238D01*
X126051714Y-74126476D01*
X125956476Y-74174095D01*
X128433095Y-77047381D02*
X128433095Y-76047381D01*
X129004524Y-77047381D02*
X128575952Y-76475952D01*
X129004524Y-76047381D02*
X128433095Y-76618810D01*
X134011714Y-74888381D02*
X134011714Y-73888381D01*
X134249809Y-73888381D01*
X134392667Y-73936000D01*
X134487905Y-74031238D01*
X134535524Y-74126476D01*
X134583143Y-74316952D01*
X134583143Y-74459810D01*
X134535524Y-74650286D01*
X134487905Y-74745524D01*
X134392667Y-74840762D01*
X134249809Y-74888381D01*
X134011714Y-74888381D01*
X134964095Y-73983619D02*
X135011714Y-73936000D01*
X135106952Y-73888381D01*
X135345048Y-73888381D01*
X135440286Y-73936000D01*
X135487905Y-73983619D01*
X135535524Y-74078857D01*
X135535524Y-74174095D01*
X135487905Y-74316952D01*
X134916476Y-74888381D01*
X135535524Y-74888381D01*
X135916476Y-73983619D02*
X135964095Y-73936000D01*
X136059333Y-73888381D01*
X136297429Y-73888381D01*
X136392667Y-73936000D01*
X136440286Y-73983619D01*
X136487905Y-74078857D01*
X136487905Y-74174095D01*
X136440286Y-74316952D01*
X135868857Y-74888381D01*
X136487905Y-74888381D01*
X138393095Y-77047381D02*
X138393095Y-76047381D01*
X138964524Y-77047381D02*
X138535952Y-76475952D01*
X138964524Y-76047381D02*
X138393095Y-76618810D01*
X144011714Y-74888381D02*
X144011714Y-73888381D01*
X144249809Y-73888381D01*
X144392667Y-73936000D01*
X144487905Y-74031238D01*
X144535524Y-74126476D01*
X144583143Y-74316952D01*
X144583143Y-74459810D01*
X144535524Y-74650286D01*
X144487905Y-74745524D01*
X144392667Y-74840762D01*
X144249809Y-74888381D01*
X144011714Y-74888381D01*
X144964095Y-73983619D02*
X145011714Y-73936000D01*
X145106952Y-73888381D01*
X145345048Y-73888381D01*
X145440286Y-73936000D01*
X145487905Y-73983619D01*
X145535524Y-74078857D01*
X145535524Y-74174095D01*
X145487905Y-74316952D01*
X144916476Y-74888381D01*
X145535524Y-74888381D01*
X145868857Y-73888381D02*
X146487905Y-73888381D01*
X146154571Y-74269333D01*
X146297429Y-74269333D01*
X146392667Y-74316952D01*
X146440286Y-74364571D01*
X146487905Y-74459810D01*
X146487905Y-74697905D01*
X146440286Y-74793143D01*
X146392667Y-74840762D01*
X146297429Y-74888381D01*
X146011714Y-74888381D01*
X145916476Y-74840762D01*
X145868857Y-74793143D01*
X148393095Y-77047381D02*
X148393095Y-76047381D01*
X148964524Y-77047381D02*
X148535952Y-76475952D01*
X148964524Y-76047381D02*
X148393095Y-76618810D01*
X154011714Y-74888381D02*
X154011714Y-73888381D01*
X154249809Y-73888381D01*
X154392667Y-73936000D01*
X154487905Y-74031238D01*
X154535524Y-74126476D01*
X154583143Y-74316952D01*
X154583143Y-74459810D01*
X154535524Y-74650286D01*
X154487905Y-74745524D01*
X154392667Y-74840762D01*
X154249809Y-74888381D01*
X154011714Y-74888381D01*
X154964095Y-73983619D02*
X155011714Y-73936000D01*
X155106952Y-73888381D01*
X155345048Y-73888381D01*
X155440286Y-73936000D01*
X155487905Y-73983619D01*
X155535524Y-74078857D01*
X155535524Y-74174095D01*
X155487905Y-74316952D01*
X154916476Y-74888381D01*
X155535524Y-74888381D01*
X156392667Y-74221714D02*
X156392667Y-74888381D01*
X156154571Y-73840762D02*
X155916476Y-74555048D01*
X156535524Y-74555048D01*
X158393095Y-77047381D02*
X158393095Y-76047381D01*
X158964524Y-77047381D02*
X158535952Y-76475952D01*
X158964524Y-76047381D02*
X158393095Y-76618810D01*
X164051714Y-74888381D02*
X164051714Y-73888381D01*
X164289809Y-73888381D01*
X164432667Y-73936000D01*
X164527905Y-74031238D01*
X164575524Y-74126476D01*
X164623143Y-74316952D01*
X164623143Y-74459810D01*
X164575524Y-74650286D01*
X164527905Y-74745524D01*
X164432667Y-74840762D01*
X164289809Y-74888381D01*
X164051714Y-74888381D01*
X165004095Y-73983619D02*
X165051714Y-73936000D01*
X165146952Y-73888381D01*
X165385048Y-73888381D01*
X165480286Y-73936000D01*
X165527905Y-73983619D01*
X165575524Y-74078857D01*
X165575524Y-74174095D01*
X165527905Y-74316952D01*
X164956476Y-74888381D01*
X165575524Y-74888381D01*
X166480286Y-73888381D02*
X166004095Y-73888381D01*
X165956476Y-74364571D01*
X166004095Y-74316952D01*
X166099333Y-74269333D01*
X166337429Y-74269333D01*
X166432667Y-74316952D01*
X166480286Y-74364571D01*
X166527905Y-74459810D01*
X166527905Y-74697905D01*
X166480286Y-74793143D01*
X166432667Y-74840762D01*
X166337429Y-74888381D01*
X166099333Y-74888381D01*
X166004095Y-74840762D01*
X165956476Y-74793143D01*
X168433095Y-77047381D02*
X168433095Y-76047381D01*
X169004524Y-77047381D02*
X168575952Y-76475952D01*
X169004524Y-76047381D02*
X168433095Y-76618810D01*
X124011714Y-84888381D02*
X124011714Y-83888381D01*
X124249809Y-83888381D01*
X124392667Y-83936000D01*
X124487905Y-84031238D01*
X124535524Y-84126476D01*
X124583143Y-84316952D01*
X124583143Y-84459810D01*
X124535524Y-84650286D01*
X124487905Y-84745524D01*
X124392667Y-84840762D01*
X124249809Y-84888381D01*
X124011714Y-84888381D01*
X124964095Y-83983619D02*
X125011714Y-83936000D01*
X125106952Y-83888381D01*
X125345048Y-83888381D01*
X125440286Y-83936000D01*
X125487905Y-83983619D01*
X125535524Y-84078857D01*
X125535524Y-84174095D01*
X125487905Y-84316952D01*
X124916476Y-84888381D01*
X125535524Y-84888381D01*
X126392667Y-83888381D02*
X126202190Y-83888381D01*
X126106952Y-83936000D01*
X126059333Y-83983619D01*
X125964095Y-84126476D01*
X125916476Y-84316952D01*
X125916476Y-84697905D01*
X125964095Y-84793143D01*
X126011714Y-84840762D01*
X126106952Y-84888381D01*
X126297429Y-84888381D01*
X126392667Y-84840762D01*
X126440286Y-84793143D01*
X126487905Y-84697905D01*
X126487905Y-84459810D01*
X126440286Y-84364571D01*
X126392667Y-84316952D01*
X126297429Y-84269333D01*
X126106952Y-84269333D01*
X126011714Y-84316952D01*
X125964095Y-84364571D01*
X125916476Y-84459810D01*
X128393095Y-87047381D02*
X128393095Y-86047381D01*
X128964524Y-87047381D02*
X128535952Y-86475952D01*
X128964524Y-86047381D02*
X128393095Y-86618810D01*
X134051714Y-84888381D02*
X134051714Y-83888381D01*
X134289809Y-83888381D01*
X134432667Y-83936000D01*
X134527905Y-84031238D01*
X134575524Y-84126476D01*
X134623143Y-84316952D01*
X134623143Y-84459810D01*
X134575524Y-84650286D01*
X134527905Y-84745524D01*
X134432667Y-84840762D01*
X134289809Y-84888381D01*
X134051714Y-84888381D01*
X135004095Y-83983619D02*
X135051714Y-83936000D01*
X135146952Y-83888381D01*
X135385048Y-83888381D01*
X135480286Y-83936000D01*
X135527905Y-83983619D01*
X135575524Y-84078857D01*
X135575524Y-84174095D01*
X135527905Y-84316952D01*
X134956476Y-84888381D01*
X135575524Y-84888381D01*
X135908857Y-83888381D02*
X136575524Y-83888381D01*
X136146952Y-84888381D01*
X138433095Y-87047381D02*
X138433095Y-86047381D01*
X139004524Y-87047381D02*
X138575952Y-86475952D01*
X139004524Y-86047381D02*
X138433095Y-86618810D01*
X144051714Y-84888381D02*
X144051714Y-83888381D01*
X144289809Y-83888381D01*
X144432667Y-83936000D01*
X144527905Y-84031238D01*
X144575524Y-84126476D01*
X144623143Y-84316952D01*
X144623143Y-84459810D01*
X144575524Y-84650286D01*
X144527905Y-84745524D01*
X144432667Y-84840762D01*
X144289809Y-84888381D01*
X144051714Y-84888381D01*
X145004095Y-83983619D02*
X145051714Y-83936000D01*
X145146952Y-83888381D01*
X145385048Y-83888381D01*
X145480286Y-83936000D01*
X145527905Y-83983619D01*
X145575524Y-84078857D01*
X145575524Y-84174095D01*
X145527905Y-84316952D01*
X144956476Y-84888381D01*
X145575524Y-84888381D01*
X146146952Y-84316952D02*
X146051714Y-84269333D01*
X146004095Y-84221714D01*
X145956476Y-84126476D01*
X145956476Y-84078857D01*
X146004095Y-83983619D01*
X146051714Y-83936000D01*
X146146952Y-83888381D01*
X146337429Y-83888381D01*
X146432667Y-83936000D01*
X146480286Y-83983619D01*
X146527905Y-84078857D01*
X146527905Y-84126476D01*
X146480286Y-84221714D01*
X146432667Y-84269333D01*
X146337429Y-84316952D01*
X146146952Y-84316952D01*
X146051714Y-84364571D01*
X146004095Y-84412190D01*
X145956476Y-84507429D01*
X145956476Y-84697905D01*
X146004095Y-84793143D01*
X146051714Y-84840762D01*
X146146952Y-84888381D01*
X146337429Y-84888381D01*
X146432667Y-84840762D01*
X146480286Y-84793143D01*
X146527905Y-84697905D01*
X146527905Y-84507429D01*
X146480286Y-84412190D01*
X146432667Y-84364571D01*
X146337429Y-84316952D01*
X148433095Y-87047381D02*
X148433095Y-86047381D01*
X149004524Y-87047381D02*
X148575952Y-86475952D01*
X149004524Y-86047381D02*
X148433095Y-86618810D01*
X154051714Y-84888381D02*
X154051714Y-83888381D01*
X154289809Y-83888381D01*
X154432667Y-83936000D01*
X154527905Y-84031238D01*
X154575524Y-84126476D01*
X154623143Y-84316952D01*
X154623143Y-84459810D01*
X154575524Y-84650286D01*
X154527905Y-84745524D01*
X154432667Y-84840762D01*
X154289809Y-84888381D01*
X154051714Y-84888381D01*
X155004095Y-83983619D02*
X155051714Y-83936000D01*
X155146952Y-83888381D01*
X155385048Y-83888381D01*
X155480286Y-83936000D01*
X155527905Y-83983619D01*
X155575524Y-84078857D01*
X155575524Y-84174095D01*
X155527905Y-84316952D01*
X154956476Y-84888381D01*
X155575524Y-84888381D01*
X156051714Y-84888381D02*
X156242190Y-84888381D01*
X156337429Y-84840762D01*
X156385048Y-84793143D01*
X156480286Y-84650286D01*
X156527905Y-84459810D01*
X156527905Y-84078857D01*
X156480286Y-83983619D01*
X156432667Y-83936000D01*
X156337429Y-83888381D01*
X156146952Y-83888381D01*
X156051714Y-83936000D01*
X156004095Y-83983619D01*
X155956476Y-84078857D01*
X155956476Y-84316952D01*
X156004095Y-84412190D01*
X156051714Y-84459810D01*
X156146952Y-84507429D01*
X156337429Y-84507429D01*
X156432667Y-84459810D01*
X156480286Y-84412190D01*
X156527905Y-84316952D01*
X158433095Y-87047381D02*
X158433095Y-86047381D01*
X159004524Y-87047381D02*
X158575952Y-86475952D01*
X159004524Y-86047381D02*
X158433095Y-86618810D01*
X164051714Y-84888381D02*
X164051714Y-83888381D01*
X164289809Y-83888381D01*
X164432667Y-83936000D01*
X164527905Y-84031238D01*
X164575524Y-84126476D01*
X164623143Y-84316952D01*
X164623143Y-84459810D01*
X164575524Y-84650286D01*
X164527905Y-84745524D01*
X164432667Y-84840762D01*
X164289809Y-84888381D01*
X164051714Y-84888381D01*
X164956476Y-83888381D02*
X165575524Y-83888381D01*
X165242190Y-84269333D01*
X165385048Y-84269333D01*
X165480286Y-84316952D01*
X165527905Y-84364571D01*
X165575524Y-84459810D01*
X165575524Y-84697905D01*
X165527905Y-84793143D01*
X165480286Y-84840762D01*
X165385048Y-84888381D01*
X165099333Y-84888381D01*
X165004095Y-84840762D01*
X164956476Y-84793143D01*
X166194571Y-83888381D02*
X166289810Y-83888381D01*
X166385048Y-83936000D01*
X166432667Y-83983619D01*
X166480286Y-84078857D01*
X166527905Y-84269333D01*
X166527905Y-84507429D01*
X166480286Y-84697905D01*
X166432667Y-84793143D01*
X166385048Y-84840762D01*
X166289810Y-84888381D01*
X166194571Y-84888381D01*
X166099333Y-84840762D01*
X166051714Y-84793143D01*
X166004095Y-84697905D01*
X165956476Y-84507429D01*
X165956476Y-84269333D01*
X166004095Y-84078857D01*
X166051714Y-83983619D01*
X166099333Y-83936000D01*
X166194571Y-83888381D01*
X168433095Y-87047381D02*
X168433095Y-86047381D01*
X169004524Y-87047381D02*
X168575952Y-86475952D01*
X169004524Y-86047381D02*
X168433095Y-86618810D01*
X124051714Y-94888381D02*
X124051714Y-93888381D01*
X124289809Y-93888381D01*
X124432667Y-93936000D01*
X124527905Y-94031238D01*
X124575524Y-94126476D01*
X124623143Y-94316952D01*
X124623143Y-94459810D01*
X124575524Y-94650286D01*
X124527905Y-94745524D01*
X124432667Y-94840762D01*
X124289809Y-94888381D01*
X124051714Y-94888381D01*
X124956476Y-93888381D02*
X125575524Y-93888381D01*
X125242190Y-94269333D01*
X125385048Y-94269333D01*
X125480286Y-94316952D01*
X125527905Y-94364571D01*
X125575524Y-94459810D01*
X125575524Y-94697905D01*
X125527905Y-94793143D01*
X125480286Y-94840762D01*
X125385048Y-94888381D01*
X125099333Y-94888381D01*
X125004095Y-94840762D01*
X124956476Y-94793143D01*
X126527905Y-94888381D02*
X125956476Y-94888381D01*
X126242190Y-94888381D02*
X126242190Y-93888381D01*
X126146952Y-94031238D01*
X126051714Y-94126476D01*
X125956476Y-94174095D01*
X128433095Y-97047381D02*
X128433095Y-96047381D01*
X129004524Y-97047381D02*
X128575952Y-96475952D01*
X129004524Y-96047381D02*
X128433095Y-96618810D01*
X134051714Y-94888381D02*
X134051714Y-93888381D01*
X134289809Y-93888381D01*
X134432667Y-93936000D01*
X134527905Y-94031238D01*
X134575524Y-94126476D01*
X134623143Y-94316952D01*
X134623143Y-94459810D01*
X134575524Y-94650286D01*
X134527905Y-94745524D01*
X134432667Y-94840762D01*
X134289809Y-94888381D01*
X134051714Y-94888381D01*
X134956476Y-93888381D02*
X135575524Y-93888381D01*
X135242190Y-94269333D01*
X135385048Y-94269333D01*
X135480286Y-94316952D01*
X135527905Y-94364571D01*
X135575524Y-94459810D01*
X135575524Y-94697905D01*
X135527905Y-94793143D01*
X135480286Y-94840762D01*
X135385048Y-94888381D01*
X135099333Y-94888381D01*
X135004095Y-94840762D01*
X134956476Y-94793143D01*
X135956476Y-93983619D02*
X136004095Y-93936000D01*
X136099333Y-93888381D01*
X136337429Y-93888381D01*
X136432667Y-93936000D01*
X136480286Y-93983619D01*
X136527905Y-94078857D01*
X136527905Y-94174095D01*
X136480286Y-94316952D01*
X135908857Y-94888381D01*
X136527905Y-94888381D01*
X138433095Y-97047381D02*
X138433095Y-96047381D01*
X139004524Y-97047381D02*
X138575952Y-96475952D01*
X139004524Y-96047381D02*
X138433095Y-96618810D01*
X144051714Y-94888381D02*
X144051714Y-93888381D01*
X144289809Y-93888381D01*
X144432667Y-93936000D01*
X144527905Y-94031238D01*
X144575524Y-94126476D01*
X144623143Y-94316952D01*
X144623143Y-94459810D01*
X144575524Y-94650286D01*
X144527905Y-94745524D01*
X144432667Y-94840762D01*
X144289809Y-94888381D01*
X144051714Y-94888381D01*
X144956476Y-93888381D02*
X145575524Y-93888381D01*
X145242190Y-94269333D01*
X145385048Y-94269333D01*
X145480286Y-94316952D01*
X145527905Y-94364571D01*
X145575524Y-94459810D01*
X145575524Y-94697905D01*
X145527905Y-94793143D01*
X145480286Y-94840762D01*
X145385048Y-94888381D01*
X145099333Y-94888381D01*
X145004095Y-94840762D01*
X144956476Y-94793143D01*
X145908857Y-93888381D02*
X146527905Y-93888381D01*
X146194571Y-94269333D01*
X146337429Y-94269333D01*
X146432667Y-94316952D01*
X146480286Y-94364571D01*
X146527905Y-94459810D01*
X146527905Y-94697905D01*
X146480286Y-94793143D01*
X146432667Y-94840762D01*
X146337429Y-94888381D01*
X146051714Y-94888381D01*
X145956476Y-94840762D01*
X145908857Y-94793143D01*
X148433095Y-97047381D02*
X148433095Y-96047381D01*
X149004524Y-97047381D02*
X148575952Y-96475952D01*
X149004524Y-96047381D02*
X148433095Y-96618810D01*
X154051714Y-94888381D02*
X154051714Y-93888381D01*
X154289809Y-93888381D01*
X154432667Y-93936000D01*
X154527905Y-94031238D01*
X154575524Y-94126476D01*
X154623143Y-94316952D01*
X154623143Y-94459810D01*
X154575524Y-94650286D01*
X154527905Y-94745524D01*
X154432667Y-94840762D01*
X154289809Y-94888381D01*
X154051714Y-94888381D01*
X154956476Y-93888381D02*
X155575524Y-93888381D01*
X155242190Y-94269333D01*
X155385048Y-94269333D01*
X155480286Y-94316952D01*
X155527905Y-94364571D01*
X155575524Y-94459810D01*
X155575524Y-94697905D01*
X155527905Y-94793143D01*
X155480286Y-94840762D01*
X155385048Y-94888381D01*
X155099333Y-94888381D01*
X155004095Y-94840762D01*
X154956476Y-94793143D01*
X156432667Y-94221714D02*
X156432667Y-94888381D01*
X156194571Y-93840762D02*
X155956476Y-94555048D01*
X156575524Y-94555048D01*
X158433095Y-97047381D02*
X158433095Y-96047381D01*
X159004524Y-97047381D02*
X158575952Y-96475952D01*
X159004524Y-96047381D02*
X158433095Y-96618810D01*
X164051714Y-94888381D02*
X164051714Y-93888381D01*
X164289809Y-93888381D01*
X164432667Y-93936000D01*
X164527905Y-94031238D01*
X164575524Y-94126476D01*
X164623143Y-94316952D01*
X164623143Y-94459810D01*
X164575524Y-94650286D01*
X164527905Y-94745524D01*
X164432667Y-94840762D01*
X164289809Y-94888381D01*
X164051714Y-94888381D01*
X164956476Y-93888381D02*
X165575524Y-93888381D01*
X165242190Y-94269333D01*
X165385048Y-94269333D01*
X165480286Y-94316952D01*
X165527905Y-94364571D01*
X165575524Y-94459810D01*
X165575524Y-94697905D01*
X165527905Y-94793143D01*
X165480286Y-94840762D01*
X165385048Y-94888381D01*
X165099333Y-94888381D01*
X165004095Y-94840762D01*
X164956476Y-94793143D01*
X166480286Y-93888381D02*
X166004095Y-93888381D01*
X165956476Y-94364571D01*
X166004095Y-94316952D01*
X166099333Y-94269333D01*
X166337429Y-94269333D01*
X166432667Y-94316952D01*
X166480286Y-94364571D01*
X166527905Y-94459810D01*
X166527905Y-94697905D01*
X166480286Y-94793143D01*
X166432667Y-94840762D01*
X166337429Y-94888381D01*
X166099333Y-94888381D01*
X166004095Y-94840762D01*
X165956476Y-94793143D01*
X168433095Y-97047381D02*
X168433095Y-96047381D01*
X169004524Y-97047381D02*
X168575952Y-96475952D01*
X169004524Y-96047381D02*
X168433095Y-96618810D01*
X124051714Y-104888381D02*
X124051714Y-103888381D01*
X124289809Y-103888381D01*
X124432667Y-103936000D01*
X124527905Y-104031238D01*
X124575524Y-104126476D01*
X124623143Y-104316952D01*
X124623143Y-104459810D01*
X124575524Y-104650286D01*
X124527905Y-104745524D01*
X124432667Y-104840762D01*
X124289809Y-104888381D01*
X124051714Y-104888381D01*
X124956476Y-103888381D02*
X125575524Y-103888381D01*
X125242190Y-104269333D01*
X125385048Y-104269333D01*
X125480286Y-104316952D01*
X125527905Y-104364571D01*
X125575524Y-104459810D01*
X125575524Y-104697905D01*
X125527905Y-104793143D01*
X125480286Y-104840762D01*
X125385048Y-104888381D01*
X125099333Y-104888381D01*
X125004095Y-104840762D01*
X124956476Y-104793143D01*
X126432667Y-103888381D02*
X126242190Y-103888381D01*
X126146952Y-103936000D01*
X126099333Y-103983619D01*
X126004095Y-104126476D01*
X125956476Y-104316952D01*
X125956476Y-104697905D01*
X126004095Y-104793143D01*
X126051714Y-104840762D01*
X126146952Y-104888381D01*
X126337429Y-104888381D01*
X126432667Y-104840762D01*
X126480286Y-104793143D01*
X126527905Y-104697905D01*
X126527905Y-104459810D01*
X126480286Y-104364571D01*
X126432667Y-104316952D01*
X126337429Y-104269333D01*
X126146952Y-104269333D01*
X126051714Y-104316952D01*
X126004095Y-104364571D01*
X125956476Y-104459810D01*
X128433095Y-107047381D02*
X128433095Y-106047381D01*
X129004524Y-107047381D02*
X128575952Y-106475952D01*
X129004524Y-106047381D02*
X128433095Y-106618810D01*
X134051714Y-104888381D02*
X134051714Y-103888381D01*
X134289809Y-103888381D01*
X134432667Y-103936000D01*
X134527905Y-104031238D01*
X134575524Y-104126476D01*
X134623143Y-104316952D01*
X134623143Y-104459810D01*
X134575524Y-104650286D01*
X134527905Y-104745524D01*
X134432667Y-104840762D01*
X134289809Y-104888381D01*
X134051714Y-104888381D01*
X134956476Y-103888381D02*
X135575524Y-103888381D01*
X135242190Y-104269333D01*
X135385048Y-104269333D01*
X135480286Y-104316952D01*
X135527905Y-104364571D01*
X135575524Y-104459810D01*
X135575524Y-104697905D01*
X135527905Y-104793143D01*
X135480286Y-104840762D01*
X135385048Y-104888381D01*
X135099333Y-104888381D01*
X135004095Y-104840762D01*
X134956476Y-104793143D01*
X135908857Y-103888381D02*
X136575524Y-103888381D01*
X136146952Y-104888381D01*
X138433095Y-107047381D02*
X138433095Y-106047381D01*
X139004524Y-107047381D02*
X138575952Y-106475952D01*
X139004524Y-106047381D02*
X138433095Y-106618810D01*
X144051714Y-104888381D02*
X144051714Y-103888381D01*
X144289809Y-103888381D01*
X144432667Y-103936000D01*
X144527905Y-104031238D01*
X144575524Y-104126476D01*
X144623143Y-104316952D01*
X144623143Y-104459810D01*
X144575524Y-104650286D01*
X144527905Y-104745524D01*
X144432667Y-104840762D01*
X144289809Y-104888381D01*
X144051714Y-104888381D01*
X144956476Y-103888381D02*
X145575524Y-103888381D01*
X145242190Y-104269333D01*
X145385048Y-104269333D01*
X145480286Y-104316952D01*
X145527905Y-104364571D01*
X145575524Y-104459810D01*
X145575524Y-104697905D01*
X145527905Y-104793143D01*
X145480286Y-104840762D01*
X145385048Y-104888381D01*
X145099333Y-104888381D01*
X145004095Y-104840762D01*
X144956476Y-104793143D01*
X146146952Y-104316952D02*
X146051714Y-104269333D01*
X146004095Y-104221714D01*
X145956476Y-104126476D01*
X145956476Y-104078857D01*
X146004095Y-103983619D01*
X146051714Y-103936000D01*
X146146952Y-103888381D01*
X146337429Y-103888381D01*
X146432667Y-103936000D01*
X146480286Y-103983619D01*
X146527905Y-104078857D01*
X146527905Y-104126476D01*
X146480286Y-104221714D01*
X146432667Y-104269333D01*
X146337429Y-104316952D01*
X146146952Y-104316952D01*
X146051714Y-104364571D01*
X146004095Y-104412190D01*
X145956476Y-104507429D01*
X145956476Y-104697905D01*
X146004095Y-104793143D01*
X146051714Y-104840762D01*
X146146952Y-104888381D01*
X146337429Y-104888381D01*
X146432667Y-104840762D01*
X146480286Y-104793143D01*
X146527905Y-104697905D01*
X146527905Y-104507429D01*
X146480286Y-104412190D01*
X146432667Y-104364571D01*
X146337429Y-104316952D01*
X148433095Y-107047381D02*
X148433095Y-106047381D01*
X149004524Y-107047381D02*
X148575952Y-106475952D01*
X149004524Y-106047381D02*
X148433095Y-106618810D01*
X154051714Y-104888381D02*
X154051714Y-103888381D01*
X154289809Y-103888381D01*
X154432667Y-103936000D01*
X154527905Y-104031238D01*
X154575524Y-104126476D01*
X154623143Y-104316952D01*
X154623143Y-104459810D01*
X154575524Y-104650286D01*
X154527905Y-104745524D01*
X154432667Y-104840762D01*
X154289809Y-104888381D01*
X154051714Y-104888381D01*
X154956476Y-103888381D02*
X155575524Y-103888381D01*
X155242190Y-104269333D01*
X155385048Y-104269333D01*
X155480286Y-104316952D01*
X155527905Y-104364571D01*
X155575524Y-104459810D01*
X155575524Y-104697905D01*
X155527905Y-104793143D01*
X155480286Y-104840762D01*
X155385048Y-104888381D01*
X155099333Y-104888381D01*
X155004095Y-104840762D01*
X154956476Y-104793143D01*
X156051714Y-104888381D02*
X156242190Y-104888381D01*
X156337429Y-104840762D01*
X156385048Y-104793143D01*
X156480286Y-104650286D01*
X156527905Y-104459810D01*
X156527905Y-104078857D01*
X156480286Y-103983619D01*
X156432667Y-103936000D01*
X156337429Y-103888381D01*
X156146952Y-103888381D01*
X156051714Y-103936000D01*
X156004095Y-103983619D01*
X155956476Y-104078857D01*
X155956476Y-104316952D01*
X156004095Y-104412190D01*
X156051714Y-104459810D01*
X156146952Y-104507429D01*
X156337429Y-104507429D01*
X156432667Y-104459810D01*
X156480286Y-104412190D01*
X156527905Y-104316952D01*
X158433095Y-107047381D02*
X158433095Y-106047381D01*
X159004524Y-107047381D02*
X158575952Y-106475952D01*
X159004524Y-106047381D02*
X158433095Y-106618810D01*
X164051714Y-104888381D02*
X164051714Y-103888381D01*
X164289809Y-103888381D01*
X164432667Y-103936000D01*
X164527905Y-104031238D01*
X164575524Y-104126476D01*
X164623143Y-104316952D01*
X164623143Y-104459810D01*
X164575524Y-104650286D01*
X164527905Y-104745524D01*
X164432667Y-104840762D01*
X164289809Y-104888381D01*
X164051714Y-104888381D01*
X165480286Y-104221714D02*
X165480286Y-104888381D01*
X165242190Y-103840762D02*
X165004095Y-104555048D01*
X165623143Y-104555048D01*
X166194571Y-103888381D02*
X166289810Y-103888381D01*
X166385048Y-103936000D01*
X166432667Y-103983619D01*
X166480286Y-104078857D01*
X166527905Y-104269333D01*
X166527905Y-104507429D01*
X166480286Y-104697905D01*
X166432667Y-104793143D01*
X166385048Y-104840762D01*
X166289810Y-104888381D01*
X166194571Y-104888381D01*
X166099333Y-104840762D01*
X166051714Y-104793143D01*
X166004095Y-104697905D01*
X165956476Y-104507429D01*
X165956476Y-104269333D01*
X166004095Y-104078857D01*
X166051714Y-103983619D01*
X166099333Y-103936000D01*
X166194571Y-103888381D01*
X168433095Y-107047381D02*
X168433095Y-106047381D01*
X169004524Y-107047381D02*
X168575952Y-106475952D01*
X169004524Y-106047381D02*
X168433095Y-106618810D01*
X124051714Y-114888381D02*
X124051714Y-113888381D01*
X124289809Y-113888381D01*
X124432667Y-113936000D01*
X124527905Y-114031238D01*
X124575524Y-114126476D01*
X124623143Y-114316952D01*
X124623143Y-114459810D01*
X124575524Y-114650286D01*
X124527905Y-114745524D01*
X124432667Y-114840762D01*
X124289809Y-114888381D01*
X124051714Y-114888381D01*
X125480286Y-114221714D02*
X125480286Y-114888381D01*
X125242190Y-113840762D02*
X125004095Y-114555048D01*
X125623143Y-114555048D01*
X126527905Y-114888381D02*
X125956476Y-114888381D01*
X126242190Y-114888381D02*
X126242190Y-113888381D01*
X126146952Y-114031238D01*
X126051714Y-114126476D01*
X125956476Y-114174095D01*
X128433095Y-117047381D02*
X128433095Y-116047381D01*
X129004524Y-117047381D02*
X128575952Y-116475952D01*
X129004524Y-116047381D02*
X128433095Y-116618810D01*
X134051714Y-114888381D02*
X134051714Y-113888381D01*
X134289809Y-113888381D01*
X134432667Y-113936000D01*
X134527905Y-114031238D01*
X134575524Y-114126476D01*
X134623143Y-114316952D01*
X134623143Y-114459810D01*
X134575524Y-114650286D01*
X134527905Y-114745524D01*
X134432667Y-114840762D01*
X134289809Y-114888381D01*
X134051714Y-114888381D01*
X135480286Y-114221714D02*
X135480286Y-114888381D01*
X135242190Y-113840762D02*
X135004095Y-114555048D01*
X135623143Y-114555048D01*
X135956476Y-113983619D02*
X136004095Y-113936000D01*
X136099333Y-113888381D01*
X136337429Y-113888381D01*
X136432667Y-113936000D01*
X136480286Y-113983619D01*
X136527905Y-114078857D01*
X136527905Y-114174095D01*
X136480286Y-114316952D01*
X135908857Y-114888381D01*
X136527905Y-114888381D01*
X138433095Y-117047381D02*
X138433095Y-116047381D01*
X139004524Y-117047381D02*
X138575952Y-116475952D01*
X139004524Y-116047381D02*
X138433095Y-116618810D01*
X144051714Y-114888381D02*
X144051714Y-113888381D01*
X144289809Y-113888381D01*
X144432667Y-113936000D01*
X144527905Y-114031238D01*
X144575524Y-114126476D01*
X144623143Y-114316952D01*
X144623143Y-114459810D01*
X144575524Y-114650286D01*
X144527905Y-114745524D01*
X144432667Y-114840762D01*
X144289809Y-114888381D01*
X144051714Y-114888381D01*
X145480286Y-114221714D02*
X145480286Y-114888381D01*
X145242190Y-113840762D02*
X145004095Y-114555048D01*
X145623143Y-114555048D01*
X145908857Y-113888381D02*
X146527905Y-113888381D01*
X146194571Y-114269333D01*
X146337429Y-114269333D01*
X146432667Y-114316952D01*
X146480286Y-114364571D01*
X146527905Y-114459810D01*
X146527905Y-114697905D01*
X146480286Y-114793143D01*
X146432667Y-114840762D01*
X146337429Y-114888381D01*
X146051714Y-114888381D01*
X145956476Y-114840762D01*
X145908857Y-114793143D01*
X148433095Y-117047381D02*
X148433095Y-116047381D01*
X149004524Y-117047381D02*
X148575952Y-116475952D01*
X149004524Y-116047381D02*
X148433095Y-116618810D01*
X154051714Y-114888381D02*
X154051714Y-113888381D01*
X154289809Y-113888381D01*
X154432667Y-113936000D01*
X154527905Y-114031238D01*
X154575524Y-114126476D01*
X154623143Y-114316952D01*
X154623143Y-114459810D01*
X154575524Y-114650286D01*
X154527905Y-114745524D01*
X154432667Y-114840762D01*
X154289809Y-114888381D01*
X154051714Y-114888381D01*
X155480286Y-114221714D02*
X155480286Y-114888381D01*
X155242190Y-113840762D02*
X155004095Y-114555048D01*
X155623143Y-114555048D01*
X156432667Y-114221714D02*
X156432667Y-114888381D01*
X156194571Y-113840762D02*
X155956476Y-114555048D01*
X156575524Y-114555048D01*
X158433095Y-117047381D02*
X158433095Y-116047381D01*
X159004524Y-117047381D02*
X158575952Y-116475952D01*
X159004524Y-116047381D02*
X158433095Y-116618810D01*
X164051714Y-114888381D02*
X164051714Y-113888381D01*
X164289809Y-113888381D01*
X164432667Y-113936000D01*
X164527905Y-114031238D01*
X164575524Y-114126476D01*
X164623143Y-114316952D01*
X164623143Y-114459810D01*
X164575524Y-114650286D01*
X164527905Y-114745524D01*
X164432667Y-114840762D01*
X164289809Y-114888381D01*
X164051714Y-114888381D01*
X165480286Y-114221714D02*
X165480286Y-114888381D01*
X165242190Y-113840762D02*
X165004095Y-114555048D01*
X165623143Y-114555048D01*
X166480286Y-113888381D02*
X166004095Y-113888381D01*
X165956476Y-114364571D01*
X166004095Y-114316952D01*
X166099333Y-114269333D01*
X166337429Y-114269333D01*
X166432667Y-114316952D01*
X166480286Y-114364571D01*
X166527905Y-114459810D01*
X166527905Y-114697905D01*
X166480286Y-114793143D01*
X166432667Y-114840762D01*
X166337429Y-114888381D01*
X166099333Y-114888381D01*
X166004095Y-114840762D01*
X165956476Y-114793143D01*
X168433095Y-117047381D02*
X168433095Y-116047381D01*
X169004524Y-117047381D02*
X168575952Y-116475952D01*
X169004524Y-116047381D02*
X168433095Y-116618810D01*
X124051714Y-124888381D02*
X124051714Y-123888381D01*
X124289809Y-123888381D01*
X124432667Y-123936000D01*
X124527905Y-124031238D01*
X124575524Y-124126476D01*
X124623143Y-124316952D01*
X124623143Y-124459810D01*
X124575524Y-124650286D01*
X124527905Y-124745524D01*
X124432667Y-124840762D01*
X124289809Y-124888381D01*
X124051714Y-124888381D01*
X125480286Y-124221714D02*
X125480286Y-124888381D01*
X125242190Y-123840762D02*
X125004095Y-124555048D01*
X125623143Y-124555048D01*
X126432667Y-123888381D02*
X126242190Y-123888381D01*
X126146952Y-123936000D01*
X126099333Y-123983619D01*
X126004095Y-124126476D01*
X125956476Y-124316952D01*
X125956476Y-124697905D01*
X126004095Y-124793143D01*
X126051714Y-124840762D01*
X126146952Y-124888381D01*
X126337429Y-124888381D01*
X126432667Y-124840762D01*
X126480286Y-124793143D01*
X126527905Y-124697905D01*
X126527905Y-124459810D01*
X126480286Y-124364571D01*
X126432667Y-124316952D01*
X126337429Y-124269333D01*
X126146952Y-124269333D01*
X126051714Y-124316952D01*
X126004095Y-124364571D01*
X125956476Y-124459810D01*
X128433095Y-127047381D02*
X128433095Y-126047381D01*
X129004524Y-127047381D02*
X128575952Y-126475952D01*
X129004524Y-126047381D02*
X128433095Y-126618810D01*
X134051714Y-124888381D02*
X134051714Y-123888381D01*
X134289809Y-123888381D01*
X134432667Y-123936000D01*
X134527905Y-124031238D01*
X134575524Y-124126476D01*
X134623143Y-124316952D01*
X134623143Y-124459810D01*
X134575524Y-124650286D01*
X134527905Y-124745524D01*
X134432667Y-124840762D01*
X134289809Y-124888381D01*
X134051714Y-124888381D01*
X135480286Y-124221714D02*
X135480286Y-124888381D01*
X135242190Y-123840762D02*
X135004095Y-124555048D01*
X135623143Y-124555048D01*
X135908857Y-123888381D02*
X136575524Y-123888381D01*
X136146952Y-124888381D01*
X138433095Y-127047381D02*
X138433095Y-126047381D01*
X139004524Y-127047381D02*
X138575952Y-126475952D01*
X139004524Y-126047381D02*
X138433095Y-126618810D01*
X144051714Y-124888381D02*
X144051714Y-123888381D01*
X144289809Y-123888381D01*
X144432667Y-123936000D01*
X144527905Y-124031238D01*
X144575524Y-124126476D01*
X144623143Y-124316952D01*
X144623143Y-124459810D01*
X144575524Y-124650286D01*
X144527905Y-124745524D01*
X144432667Y-124840762D01*
X144289809Y-124888381D01*
X144051714Y-124888381D01*
X145480286Y-124221714D02*
X145480286Y-124888381D01*
X145242190Y-123840762D02*
X145004095Y-124555048D01*
X145623143Y-124555048D01*
X146146952Y-124316952D02*
X146051714Y-124269333D01*
X146004095Y-124221714D01*
X145956476Y-124126476D01*
X145956476Y-124078857D01*
X146004095Y-123983619D01*
X146051714Y-123936000D01*
X146146952Y-123888381D01*
X146337429Y-123888381D01*
X146432667Y-123936000D01*
X146480286Y-123983619D01*
X146527905Y-124078857D01*
X146527905Y-124126476D01*
X146480286Y-124221714D01*
X146432667Y-124269333D01*
X146337429Y-124316952D01*
X146146952Y-124316952D01*
X146051714Y-124364571D01*
X146004095Y-124412190D01*
X145956476Y-124507429D01*
X145956476Y-124697905D01*
X146004095Y-124793143D01*
X146051714Y-124840762D01*
X146146952Y-124888381D01*
X146337429Y-124888381D01*
X146432667Y-124840762D01*
X146480286Y-124793143D01*
X146527905Y-124697905D01*
X146527905Y-124507429D01*
X146480286Y-124412190D01*
X146432667Y-124364571D01*
X146337429Y-124316952D01*
X148433095Y-127047381D02*
X148433095Y-126047381D01*
X149004524Y-127047381D02*
X148575952Y-126475952D01*
X149004524Y-126047381D02*
X148433095Y-126618810D01*
X154051714Y-124888381D02*
X154051714Y-123888381D01*
X154289809Y-123888381D01*
X154432667Y-123936000D01*
X154527905Y-124031238D01*
X154575524Y-124126476D01*
X154623143Y-124316952D01*
X154623143Y-124459810D01*
X154575524Y-124650286D01*
X154527905Y-124745524D01*
X154432667Y-124840762D01*
X154289809Y-124888381D01*
X154051714Y-124888381D01*
X155480286Y-124221714D02*
X155480286Y-124888381D01*
X155242190Y-123840762D02*
X155004095Y-124555048D01*
X155623143Y-124555048D01*
X156051714Y-124888381D02*
X156242190Y-124888381D01*
X156337429Y-124840762D01*
X156385048Y-124793143D01*
X156480286Y-124650286D01*
X156527905Y-124459810D01*
X156527905Y-124078857D01*
X156480286Y-123983619D01*
X156432667Y-123936000D01*
X156337429Y-123888381D01*
X156146952Y-123888381D01*
X156051714Y-123936000D01*
X156004095Y-123983619D01*
X155956476Y-124078857D01*
X155956476Y-124316952D01*
X156004095Y-124412190D01*
X156051714Y-124459810D01*
X156146952Y-124507429D01*
X156337429Y-124507429D01*
X156432667Y-124459810D01*
X156480286Y-124412190D01*
X156527905Y-124316952D01*
X158433095Y-127047381D02*
X158433095Y-126047381D01*
X159004524Y-127047381D02*
X158575952Y-126475952D01*
X159004524Y-126047381D02*
X158433095Y-126618810D01*
X164051714Y-124888381D02*
X164051714Y-123888381D01*
X164289809Y-123888381D01*
X164432667Y-123936000D01*
X164527905Y-124031238D01*
X164575524Y-124126476D01*
X164623143Y-124316952D01*
X164623143Y-124459810D01*
X164575524Y-124650286D01*
X164527905Y-124745524D01*
X164432667Y-124840762D01*
X164289809Y-124888381D01*
X164051714Y-124888381D01*
X165527905Y-123888381D02*
X165051714Y-123888381D01*
X165004095Y-124364571D01*
X165051714Y-124316952D01*
X165146952Y-124269333D01*
X165385048Y-124269333D01*
X165480286Y-124316952D01*
X165527905Y-124364571D01*
X165575524Y-124459810D01*
X165575524Y-124697905D01*
X165527905Y-124793143D01*
X165480286Y-124840762D01*
X165385048Y-124888381D01*
X165146952Y-124888381D01*
X165051714Y-124840762D01*
X165004095Y-124793143D01*
X166194571Y-123888381D02*
X166289810Y-123888381D01*
X166385048Y-123936000D01*
X166432667Y-123983619D01*
X166480286Y-124078857D01*
X166527905Y-124269333D01*
X166527905Y-124507429D01*
X166480286Y-124697905D01*
X166432667Y-124793143D01*
X166385048Y-124840762D01*
X166289810Y-124888381D01*
X166194571Y-124888381D01*
X166099333Y-124840762D01*
X166051714Y-124793143D01*
X166004095Y-124697905D01*
X165956476Y-124507429D01*
X165956476Y-124269333D01*
X166004095Y-124078857D01*
X166051714Y-123983619D01*
X166099333Y-123936000D01*
X166194571Y-123888381D01*
X168433095Y-127047381D02*
X168433095Y-126047381D01*
X169004524Y-127047381D02*
X168575952Y-126475952D01*
X169004524Y-126047381D02*
X168433095Y-126618810D01*
X174051714Y-34888381D02*
X174051714Y-33888381D01*
X174289809Y-33888381D01*
X174432667Y-33936000D01*
X174527905Y-34031238D01*
X174575524Y-34126476D01*
X174623143Y-34316952D01*
X174623143Y-34459810D01*
X174575524Y-34650286D01*
X174527905Y-34745524D01*
X174432667Y-34840762D01*
X174289809Y-34888381D01*
X174051714Y-34888381D01*
X175527905Y-33888381D02*
X175051714Y-33888381D01*
X175004095Y-34364571D01*
X175051714Y-34316952D01*
X175146952Y-34269333D01*
X175385048Y-34269333D01*
X175480286Y-34316952D01*
X175527905Y-34364571D01*
X175575524Y-34459810D01*
X175575524Y-34697905D01*
X175527905Y-34793143D01*
X175480286Y-34840762D01*
X175385048Y-34888381D01*
X175146952Y-34888381D01*
X175051714Y-34840762D01*
X175004095Y-34793143D01*
X176527905Y-34888381D02*
X175956476Y-34888381D01*
X176242190Y-34888381D02*
X176242190Y-33888381D01*
X176146952Y-34031238D01*
X176051714Y-34126476D01*
X175956476Y-34174095D01*
X178433095Y-37047381D02*
X178433095Y-36047381D01*
X179004524Y-37047381D02*
X178575952Y-36475952D01*
X179004524Y-36047381D02*
X178433095Y-36618810D01*
X184011714Y-34888381D02*
X184011714Y-33888381D01*
X184249809Y-33888381D01*
X184392667Y-33936000D01*
X184487905Y-34031238D01*
X184535524Y-34126476D01*
X184583143Y-34316952D01*
X184583143Y-34459810D01*
X184535524Y-34650286D01*
X184487905Y-34745524D01*
X184392667Y-34840762D01*
X184249809Y-34888381D01*
X184011714Y-34888381D01*
X185487905Y-33888381D02*
X185011714Y-33888381D01*
X184964095Y-34364571D01*
X185011714Y-34316952D01*
X185106952Y-34269333D01*
X185345048Y-34269333D01*
X185440286Y-34316952D01*
X185487905Y-34364571D01*
X185535524Y-34459810D01*
X185535524Y-34697905D01*
X185487905Y-34793143D01*
X185440286Y-34840762D01*
X185345048Y-34888381D01*
X185106952Y-34888381D01*
X185011714Y-34840762D01*
X184964095Y-34793143D01*
X185916476Y-33983619D02*
X185964095Y-33936000D01*
X186059333Y-33888381D01*
X186297429Y-33888381D01*
X186392667Y-33936000D01*
X186440286Y-33983619D01*
X186487905Y-34078857D01*
X186487905Y-34174095D01*
X186440286Y-34316952D01*
X185868857Y-34888381D01*
X186487905Y-34888381D01*
X188393095Y-37047381D02*
X188393095Y-36047381D01*
X188964524Y-37047381D02*
X188535952Y-36475952D01*
X188964524Y-36047381D02*
X188393095Y-36618810D01*
X194051714Y-34888381D02*
X194051714Y-33888381D01*
X194289809Y-33888381D01*
X194432667Y-33936000D01*
X194527905Y-34031238D01*
X194575524Y-34126476D01*
X194623143Y-34316952D01*
X194623143Y-34459810D01*
X194575524Y-34650286D01*
X194527905Y-34745524D01*
X194432667Y-34840762D01*
X194289809Y-34888381D01*
X194051714Y-34888381D01*
X195527905Y-33888381D02*
X195051714Y-33888381D01*
X195004095Y-34364571D01*
X195051714Y-34316952D01*
X195146952Y-34269333D01*
X195385048Y-34269333D01*
X195480286Y-34316952D01*
X195527905Y-34364571D01*
X195575524Y-34459810D01*
X195575524Y-34697905D01*
X195527905Y-34793143D01*
X195480286Y-34840762D01*
X195385048Y-34888381D01*
X195146952Y-34888381D01*
X195051714Y-34840762D01*
X195004095Y-34793143D01*
X195908857Y-33888381D02*
X196527905Y-33888381D01*
X196194571Y-34269333D01*
X196337429Y-34269333D01*
X196432667Y-34316952D01*
X196480286Y-34364571D01*
X196527905Y-34459810D01*
X196527905Y-34697905D01*
X196480286Y-34793143D01*
X196432667Y-34840762D01*
X196337429Y-34888381D01*
X196051714Y-34888381D01*
X195956476Y-34840762D01*
X195908857Y-34793143D01*
X198433095Y-37047381D02*
X198433095Y-36047381D01*
X199004524Y-37047381D02*
X198575952Y-36475952D01*
X199004524Y-36047381D02*
X198433095Y-36618810D01*
X204051714Y-34888381D02*
X204051714Y-33888381D01*
X204289809Y-33888381D01*
X204432667Y-33936000D01*
X204527905Y-34031238D01*
X204575524Y-34126476D01*
X204623143Y-34316952D01*
X204623143Y-34459810D01*
X204575524Y-34650286D01*
X204527905Y-34745524D01*
X204432667Y-34840762D01*
X204289809Y-34888381D01*
X204051714Y-34888381D01*
X205527905Y-33888381D02*
X205051714Y-33888381D01*
X205004095Y-34364571D01*
X205051714Y-34316952D01*
X205146952Y-34269333D01*
X205385048Y-34269333D01*
X205480286Y-34316952D01*
X205527905Y-34364571D01*
X205575524Y-34459810D01*
X205575524Y-34697905D01*
X205527905Y-34793143D01*
X205480286Y-34840762D01*
X205385048Y-34888381D01*
X205146952Y-34888381D01*
X205051714Y-34840762D01*
X205004095Y-34793143D01*
X206432667Y-34221714D02*
X206432667Y-34888381D01*
X206194571Y-33840762D02*
X205956476Y-34555048D01*
X206575524Y-34555048D01*
X208433095Y-37047381D02*
X208433095Y-36047381D01*
X209004524Y-37047381D02*
X208575952Y-36475952D01*
X209004524Y-36047381D02*
X208433095Y-36618810D01*
X214011714Y-34888381D02*
X214011714Y-33888381D01*
X214249809Y-33888381D01*
X214392667Y-33936000D01*
X214487905Y-34031238D01*
X214535524Y-34126476D01*
X214583143Y-34316952D01*
X214583143Y-34459810D01*
X214535524Y-34650286D01*
X214487905Y-34745524D01*
X214392667Y-34840762D01*
X214249809Y-34888381D01*
X214011714Y-34888381D01*
X215487905Y-33888381D02*
X215011714Y-33888381D01*
X214964095Y-34364571D01*
X215011714Y-34316952D01*
X215106952Y-34269333D01*
X215345048Y-34269333D01*
X215440286Y-34316952D01*
X215487905Y-34364571D01*
X215535524Y-34459810D01*
X215535524Y-34697905D01*
X215487905Y-34793143D01*
X215440286Y-34840762D01*
X215345048Y-34888381D01*
X215106952Y-34888381D01*
X215011714Y-34840762D01*
X214964095Y-34793143D01*
X216440286Y-33888381D02*
X215964095Y-33888381D01*
X215916476Y-34364571D01*
X215964095Y-34316952D01*
X216059333Y-34269333D01*
X216297429Y-34269333D01*
X216392667Y-34316952D01*
X216440286Y-34364571D01*
X216487905Y-34459810D01*
X216487905Y-34697905D01*
X216440286Y-34793143D01*
X216392667Y-34840762D01*
X216297429Y-34888381D01*
X216059333Y-34888381D01*
X215964095Y-34840762D01*
X215916476Y-34793143D01*
X218393095Y-37047381D02*
X218393095Y-36047381D01*
X218964524Y-37047381D02*
X218535952Y-36475952D01*
X218964524Y-36047381D02*
X218393095Y-36618810D01*
X174051714Y-44888381D02*
X174051714Y-43888381D01*
X174289809Y-43888381D01*
X174432667Y-43936000D01*
X174527905Y-44031238D01*
X174575524Y-44126476D01*
X174623143Y-44316952D01*
X174623143Y-44459810D01*
X174575524Y-44650286D01*
X174527905Y-44745524D01*
X174432667Y-44840762D01*
X174289809Y-44888381D01*
X174051714Y-44888381D01*
X175527905Y-43888381D02*
X175051714Y-43888381D01*
X175004095Y-44364571D01*
X175051714Y-44316952D01*
X175146952Y-44269333D01*
X175385048Y-44269333D01*
X175480286Y-44316952D01*
X175527905Y-44364571D01*
X175575524Y-44459810D01*
X175575524Y-44697905D01*
X175527905Y-44793143D01*
X175480286Y-44840762D01*
X175385048Y-44888381D01*
X175146952Y-44888381D01*
X175051714Y-44840762D01*
X175004095Y-44793143D01*
X176432667Y-43888381D02*
X176242190Y-43888381D01*
X176146952Y-43936000D01*
X176099333Y-43983619D01*
X176004095Y-44126476D01*
X175956476Y-44316952D01*
X175956476Y-44697905D01*
X176004095Y-44793143D01*
X176051714Y-44840762D01*
X176146952Y-44888381D01*
X176337429Y-44888381D01*
X176432667Y-44840762D01*
X176480286Y-44793143D01*
X176527905Y-44697905D01*
X176527905Y-44459810D01*
X176480286Y-44364571D01*
X176432667Y-44316952D01*
X176337429Y-44269333D01*
X176146952Y-44269333D01*
X176051714Y-44316952D01*
X176004095Y-44364571D01*
X175956476Y-44459810D01*
X178433095Y-47047381D02*
X178433095Y-46047381D01*
X179004524Y-47047381D02*
X178575952Y-46475952D01*
X179004524Y-46047381D02*
X178433095Y-46618810D01*
X184011714Y-44888381D02*
X184011714Y-43888381D01*
X184249809Y-43888381D01*
X184392667Y-43936000D01*
X184487905Y-44031238D01*
X184535524Y-44126476D01*
X184583143Y-44316952D01*
X184583143Y-44459810D01*
X184535524Y-44650286D01*
X184487905Y-44745524D01*
X184392667Y-44840762D01*
X184249809Y-44888381D01*
X184011714Y-44888381D01*
X185487905Y-43888381D02*
X185011714Y-43888381D01*
X184964095Y-44364571D01*
X185011714Y-44316952D01*
X185106952Y-44269333D01*
X185345048Y-44269333D01*
X185440286Y-44316952D01*
X185487905Y-44364571D01*
X185535524Y-44459810D01*
X185535524Y-44697905D01*
X185487905Y-44793143D01*
X185440286Y-44840762D01*
X185345048Y-44888381D01*
X185106952Y-44888381D01*
X185011714Y-44840762D01*
X184964095Y-44793143D01*
X185868857Y-43888381D02*
X186535524Y-43888381D01*
X186106952Y-44888381D01*
X188393095Y-47047381D02*
X188393095Y-46047381D01*
X188964524Y-47047381D02*
X188535952Y-46475952D01*
X188964524Y-46047381D02*
X188393095Y-46618810D01*
X194011714Y-44888381D02*
X194011714Y-43888381D01*
X194249809Y-43888381D01*
X194392667Y-43936000D01*
X194487905Y-44031238D01*
X194535524Y-44126476D01*
X194583143Y-44316952D01*
X194583143Y-44459810D01*
X194535524Y-44650286D01*
X194487905Y-44745524D01*
X194392667Y-44840762D01*
X194249809Y-44888381D01*
X194011714Y-44888381D01*
X195487905Y-43888381D02*
X195011714Y-43888381D01*
X194964095Y-44364571D01*
X195011714Y-44316952D01*
X195106952Y-44269333D01*
X195345048Y-44269333D01*
X195440286Y-44316952D01*
X195487905Y-44364571D01*
X195535524Y-44459810D01*
X195535524Y-44697905D01*
X195487905Y-44793143D01*
X195440286Y-44840762D01*
X195345048Y-44888381D01*
X195106952Y-44888381D01*
X195011714Y-44840762D01*
X194964095Y-44793143D01*
X196106952Y-44316952D02*
X196011714Y-44269333D01*
X195964095Y-44221714D01*
X195916476Y-44126476D01*
X195916476Y-44078857D01*
X195964095Y-43983619D01*
X196011714Y-43936000D01*
X196106952Y-43888381D01*
X196297429Y-43888381D01*
X196392667Y-43936000D01*
X196440286Y-43983619D01*
X196487905Y-44078857D01*
X196487905Y-44126476D01*
X196440286Y-44221714D01*
X196392667Y-44269333D01*
X196297429Y-44316952D01*
X196106952Y-44316952D01*
X196011714Y-44364571D01*
X195964095Y-44412190D01*
X195916476Y-44507429D01*
X195916476Y-44697905D01*
X195964095Y-44793143D01*
X196011714Y-44840762D01*
X196106952Y-44888381D01*
X196297429Y-44888381D01*
X196392667Y-44840762D01*
X196440286Y-44793143D01*
X196487905Y-44697905D01*
X196487905Y-44507429D01*
X196440286Y-44412190D01*
X196392667Y-44364571D01*
X196297429Y-44316952D01*
X198393095Y-47047381D02*
X198393095Y-46047381D01*
X198964524Y-47047381D02*
X198535952Y-46475952D01*
X198964524Y-46047381D02*
X198393095Y-46618810D01*
X204011714Y-44888381D02*
X204011714Y-43888381D01*
X204249809Y-43888381D01*
X204392667Y-43936000D01*
X204487905Y-44031238D01*
X204535524Y-44126476D01*
X204583143Y-44316952D01*
X204583143Y-44459810D01*
X204535524Y-44650286D01*
X204487905Y-44745524D01*
X204392667Y-44840762D01*
X204249809Y-44888381D01*
X204011714Y-44888381D01*
X205487905Y-43888381D02*
X205011714Y-43888381D01*
X204964095Y-44364571D01*
X205011714Y-44316952D01*
X205106952Y-44269333D01*
X205345048Y-44269333D01*
X205440286Y-44316952D01*
X205487905Y-44364571D01*
X205535524Y-44459810D01*
X205535524Y-44697905D01*
X205487905Y-44793143D01*
X205440286Y-44840762D01*
X205345048Y-44888381D01*
X205106952Y-44888381D01*
X205011714Y-44840762D01*
X204964095Y-44793143D01*
X206011714Y-44888381D02*
X206202190Y-44888381D01*
X206297429Y-44840762D01*
X206345048Y-44793143D01*
X206440286Y-44650286D01*
X206487905Y-44459810D01*
X206487905Y-44078857D01*
X206440286Y-43983619D01*
X206392667Y-43936000D01*
X206297429Y-43888381D01*
X206106952Y-43888381D01*
X206011714Y-43936000D01*
X205964095Y-43983619D01*
X205916476Y-44078857D01*
X205916476Y-44316952D01*
X205964095Y-44412190D01*
X206011714Y-44459810D01*
X206106952Y-44507429D01*
X206297429Y-44507429D01*
X206392667Y-44459810D01*
X206440286Y-44412190D01*
X206487905Y-44316952D01*
X208393095Y-47047381D02*
X208393095Y-46047381D01*
X208964524Y-47047381D02*
X208535952Y-46475952D01*
X208964524Y-46047381D02*
X208393095Y-46618810D01*
X214011714Y-44888381D02*
X214011714Y-43888381D01*
X214249809Y-43888381D01*
X214392667Y-43936000D01*
X214487905Y-44031238D01*
X214535524Y-44126476D01*
X214583143Y-44316952D01*
X214583143Y-44459810D01*
X214535524Y-44650286D01*
X214487905Y-44745524D01*
X214392667Y-44840762D01*
X214249809Y-44888381D01*
X214011714Y-44888381D01*
X215440286Y-43888381D02*
X215249809Y-43888381D01*
X215154571Y-43936000D01*
X215106952Y-43983619D01*
X215011714Y-44126476D01*
X214964095Y-44316952D01*
X214964095Y-44697905D01*
X215011714Y-44793143D01*
X215059333Y-44840762D01*
X215154571Y-44888381D01*
X215345048Y-44888381D01*
X215440286Y-44840762D01*
X215487905Y-44793143D01*
X215535524Y-44697905D01*
X215535524Y-44459810D01*
X215487905Y-44364571D01*
X215440286Y-44316952D01*
X215345048Y-44269333D01*
X215154571Y-44269333D01*
X215059333Y-44316952D01*
X215011714Y-44364571D01*
X214964095Y-44459810D01*
X216154571Y-43888381D02*
X216249810Y-43888381D01*
X216345048Y-43936000D01*
X216392667Y-43983619D01*
X216440286Y-44078857D01*
X216487905Y-44269333D01*
X216487905Y-44507429D01*
X216440286Y-44697905D01*
X216392667Y-44793143D01*
X216345048Y-44840762D01*
X216249810Y-44888381D01*
X216154571Y-44888381D01*
X216059333Y-44840762D01*
X216011714Y-44793143D01*
X215964095Y-44697905D01*
X215916476Y-44507429D01*
X215916476Y-44269333D01*
X215964095Y-44078857D01*
X216011714Y-43983619D01*
X216059333Y-43936000D01*
X216154571Y-43888381D01*
X218393095Y-47047381D02*
X218393095Y-46047381D01*
X218964524Y-47047381D02*
X218535952Y-46475952D01*
X218964524Y-46047381D02*
X218393095Y-46618810D01*
X174011714Y-54888381D02*
X174011714Y-53888381D01*
X174249809Y-53888381D01*
X174392667Y-53936000D01*
X174487905Y-54031238D01*
X174535524Y-54126476D01*
X174583143Y-54316952D01*
X174583143Y-54459810D01*
X174535524Y-54650286D01*
X174487905Y-54745524D01*
X174392667Y-54840762D01*
X174249809Y-54888381D01*
X174011714Y-54888381D01*
X175440286Y-53888381D02*
X175249809Y-53888381D01*
X175154571Y-53936000D01*
X175106952Y-53983619D01*
X175011714Y-54126476D01*
X174964095Y-54316952D01*
X174964095Y-54697905D01*
X175011714Y-54793143D01*
X175059333Y-54840762D01*
X175154571Y-54888381D01*
X175345048Y-54888381D01*
X175440286Y-54840762D01*
X175487905Y-54793143D01*
X175535524Y-54697905D01*
X175535524Y-54459810D01*
X175487905Y-54364571D01*
X175440286Y-54316952D01*
X175345048Y-54269333D01*
X175154571Y-54269333D01*
X175059333Y-54316952D01*
X175011714Y-54364571D01*
X174964095Y-54459810D01*
X176487905Y-54888381D02*
X175916476Y-54888381D01*
X176202190Y-54888381D02*
X176202190Y-53888381D01*
X176106952Y-54031238D01*
X176011714Y-54126476D01*
X175916476Y-54174095D01*
X178393095Y-57047381D02*
X178393095Y-56047381D01*
X178964524Y-57047381D02*
X178535952Y-56475952D01*
X178964524Y-56047381D02*
X178393095Y-56618810D01*
X184011714Y-54888381D02*
X184011714Y-53888381D01*
X184249809Y-53888381D01*
X184392667Y-53936000D01*
X184487905Y-54031238D01*
X184535524Y-54126476D01*
X184583143Y-54316952D01*
X184583143Y-54459810D01*
X184535524Y-54650286D01*
X184487905Y-54745524D01*
X184392667Y-54840762D01*
X184249809Y-54888381D01*
X184011714Y-54888381D01*
X185440286Y-53888381D02*
X185249809Y-53888381D01*
X185154571Y-53936000D01*
X185106952Y-53983619D01*
X185011714Y-54126476D01*
X184964095Y-54316952D01*
X184964095Y-54697905D01*
X185011714Y-54793143D01*
X185059333Y-54840762D01*
X185154571Y-54888381D01*
X185345048Y-54888381D01*
X185440286Y-54840762D01*
X185487905Y-54793143D01*
X185535524Y-54697905D01*
X185535524Y-54459810D01*
X185487905Y-54364571D01*
X185440286Y-54316952D01*
X185345048Y-54269333D01*
X185154571Y-54269333D01*
X185059333Y-54316952D01*
X185011714Y-54364571D01*
X184964095Y-54459810D01*
X185916476Y-53983619D02*
X185964095Y-53936000D01*
X186059333Y-53888381D01*
X186297429Y-53888381D01*
X186392667Y-53936000D01*
X186440286Y-53983619D01*
X186487905Y-54078857D01*
X186487905Y-54174095D01*
X186440286Y-54316952D01*
X185868857Y-54888381D01*
X186487905Y-54888381D01*
X188393095Y-57047381D02*
X188393095Y-56047381D01*
X188964524Y-57047381D02*
X188535952Y-56475952D01*
X188964524Y-56047381D02*
X188393095Y-56618810D01*
X194011714Y-54888381D02*
X194011714Y-53888381D01*
X194249809Y-53888381D01*
X194392667Y-53936000D01*
X194487905Y-54031238D01*
X194535524Y-54126476D01*
X194583143Y-54316952D01*
X194583143Y-54459810D01*
X194535524Y-54650286D01*
X194487905Y-54745524D01*
X194392667Y-54840762D01*
X194249809Y-54888381D01*
X194011714Y-54888381D01*
X195440286Y-53888381D02*
X195249809Y-53888381D01*
X195154571Y-53936000D01*
X195106952Y-53983619D01*
X195011714Y-54126476D01*
X194964095Y-54316952D01*
X194964095Y-54697905D01*
X195011714Y-54793143D01*
X195059333Y-54840762D01*
X195154571Y-54888381D01*
X195345048Y-54888381D01*
X195440286Y-54840762D01*
X195487905Y-54793143D01*
X195535524Y-54697905D01*
X195535524Y-54459810D01*
X195487905Y-54364571D01*
X195440286Y-54316952D01*
X195345048Y-54269333D01*
X195154571Y-54269333D01*
X195059333Y-54316952D01*
X195011714Y-54364571D01*
X194964095Y-54459810D01*
X195868857Y-53888381D02*
X196487905Y-53888381D01*
X196154571Y-54269333D01*
X196297429Y-54269333D01*
X196392667Y-54316952D01*
X196440286Y-54364571D01*
X196487905Y-54459810D01*
X196487905Y-54697905D01*
X196440286Y-54793143D01*
X196392667Y-54840762D01*
X196297429Y-54888381D01*
X196011714Y-54888381D01*
X195916476Y-54840762D01*
X195868857Y-54793143D01*
X198393095Y-57047381D02*
X198393095Y-56047381D01*
X198964524Y-57047381D02*
X198535952Y-56475952D01*
X198964524Y-56047381D02*
X198393095Y-56618810D01*
X204011714Y-54888381D02*
X204011714Y-53888381D01*
X204249809Y-53888381D01*
X204392667Y-53936000D01*
X204487905Y-54031238D01*
X204535524Y-54126476D01*
X204583143Y-54316952D01*
X204583143Y-54459810D01*
X204535524Y-54650286D01*
X204487905Y-54745524D01*
X204392667Y-54840762D01*
X204249809Y-54888381D01*
X204011714Y-54888381D01*
X205440286Y-53888381D02*
X205249809Y-53888381D01*
X205154571Y-53936000D01*
X205106952Y-53983619D01*
X205011714Y-54126476D01*
X204964095Y-54316952D01*
X204964095Y-54697905D01*
X205011714Y-54793143D01*
X205059333Y-54840762D01*
X205154571Y-54888381D01*
X205345048Y-54888381D01*
X205440286Y-54840762D01*
X205487905Y-54793143D01*
X205535524Y-54697905D01*
X205535524Y-54459810D01*
X205487905Y-54364571D01*
X205440286Y-54316952D01*
X205345048Y-54269333D01*
X205154571Y-54269333D01*
X205059333Y-54316952D01*
X205011714Y-54364571D01*
X204964095Y-54459810D01*
X206392667Y-54221714D02*
X206392667Y-54888381D01*
X206154571Y-53840762D02*
X205916476Y-54555048D01*
X206535524Y-54555048D01*
X208393095Y-57047381D02*
X208393095Y-56047381D01*
X208964524Y-57047381D02*
X208535952Y-56475952D01*
X208964524Y-56047381D02*
X208393095Y-56618810D01*
X214011714Y-54888381D02*
X214011714Y-53888381D01*
X214249809Y-53888381D01*
X214392667Y-53936000D01*
X214487905Y-54031238D01*
X214535524Y-54126476D01*
X214583143Y-54316952D01*
X214583143Y-54459810D01*
X214535524Y-54650286D01*
X214487905Y-54745524D01*
X214392667Y-54840762D01*
X214249809Y-54888381D01*
X214011714Y-54888381D01*
X215440286Y-53888381D02*
X215249809Y-53888381D01*
X215154571Y-53936000D01*
X215106952Y-53983619D01*
X215011714Y-54126476D01*
X214964095Y-54316952D01*
X214964095Y-54697905D01*
X215011714Y-54793143D01*
X215059333Y-54840762D01*
X215154571Y-54888381D01*
X215345048Y-54888381D01*
X215440286Y-54840762D01*
X215487905Y-54793143D01*
X215535524Y-54697905D01*
X215535524Y-54459810D01*
X215487905Y-54364571D01*
X215440286Y-54316952D01*
X215345048Y-54269333D01*
X215154571Y-54269333D01*
X215059333Y-54316952D01*
X215011714Y-54364571D01*
X214964095Y-54459810D01*
X216440286Y-53888381D02*
X215964095Y-53888381D01*
X215916476Y-54364571D01*
X215964095Y-54316952D01*
X216059333Y-54269333D01*
X216297429Y-54269333D01*
X216392667Y-54316952D01*
X216440286Y-54364571D01*
X216487905Y-54459810D01*
X216487905Y-54697905D01*
X216440286Y-54793143D01*
X216392667Y-54840762D01*
X216297429Y-54888381D01*
X216059333Y-54888381D01*
X215964095Y-54840762D01*
X215916476Y-54793143D01*
X218393095Y-57047381D02*
X218393095Y-56047381D01*
X218964524Y-57047381D02*
X218535952Y-56475952D01*
X218964524Y-56047381D02*
X218393095Y-56618810D01*
X174011714Y-64888381D02*
X174011714Y-63888381D01*
X174249809Y-63888381D01*
X174392667Y-63936000D01*
X174487905Y-64031238D01*
X174535524Y-64126476D01*
X174583143Y-64316952D01*
X174583143Y-64459810D01*
X174535524Y-64650286D01*
X174487905Y-64745524D01*
X174392667Y-64840762D01*
X174249809Y-64888381D01*
X174011714Y-64888381D01*
X175440286Y-63888381D02*
X175249809Y-63888381D01*
X175154571Y-63936000D01*
X175106952Y-63983619D01*
X175011714Y-64126476D01*
X174964095Y-64316952D01*
X174964095Y-64697905D01*
X175011714Y-64793143D01*
X175059333Y-64840762D01*
X175154571Y-64888381D01*
X175345048Y-64888381D01*
X175440286Y-64840762D01*
X175487905Y-64793143D01*
X175535524Y-64697905D01*
X175535524Y-64459810D01*
X175487905Y-64364571D01*
X175440286Y-64316952D01*
X175345048Y-64269333D01*
X175154571Y-64269333D01*
X175059333Y-64316952D01*
X175011714Y-64364571D01*
X174964095Y-64459810D01*
X176392667Y-63888381D02*
X176202190Y-63888381D01*
X176106952Y-63936000D01*
X176059333Y-63983619D01*
X175964095Y-64126476D01*
X175916476Y-64316952D01*
X175916476Y-64697905D01*
X175964095Y-64793143D01*
X176011714Y-64840762D01*
X176106952Y-64888381D01*
X176297429Y-64888381D01*
X176392667Y-64840762D01*
X176440286Y-64793143D01*
X176487905Y-64697905D01*
X176487905Y-64459810D01*
X176440286Y-64364571D01*
X176392667Y-64316952D01*
X176297429Y-64269333D01*
X176106952Y-64269333D01*
X176011714Y-64316952D01*
X175964095Y-64364571D01*
X175916476Y-64459810D01*
X178393095Y-67047381D02*
X178393095Y-66047381D01*
X178964524Y-67047381D02*
X178535952Y-66475952D01*
X178964524Y-66047381D02*
X178393095Y-66618810D01*
X184011714Y-64888381D02*
X184011714Y-63888381D01*
X184249809Y-63888381D01*
X184392667Y-63936000D01*
X184487905Y-64031238D01*
X184535524Y-64126476D01*
X184583143Y-64316952D01*
X184583143Y-64459810D01*
X184535524Y-64650286D01*
X184487905Y-64745524D01*
X184392667Y-64840762D01*
X184249809Y-64888381D01*
X184011714Y-64888381D01*
X185440286Y-63888381D02*
X185249809Y-63888381D01*
X185154571Y-63936000D01*
X185106952Y-63983619D01*
X185011714Y-64126476D01*
X184964095Y-64316952D01*
X184964095Y-64697905D01*
X185011714Y-64793143D01*
X185059333Y-64840762D01*
X185154571Y-64888381D01*
X185345048Y-64888381D01*
X185440286Y-64840762D01*
X185487905Y-64793143D01*
X185535524Y-64697905D01*
X185535524Y-64459810D01*
X185487905Y-64364571D01*
X185440286Y-64316952D01*
X185345048Y-64269333D01*
X185154571Y-64269333D01*
X185059333Y-64316952D01*
X185011714Y-64364571D01*
X184964095Y-64459810D01*
X185868857Y-63888381D02*
X186535524Y-63888381D01*
X186106952Y-64888381D01*
X188393095Y-67047381D02*
X188393095Y-66047381D01*
X188964524Y-67047381D02*
X188535952Y-66475952D01*
X188964524Y-66047381D02*
X188393095Y-66618810D01*
X194051714Y-64888381D02*
X194051714Y-63888381D01*
X194289809Y-63888381D01*
X194432667Y-63936000D01*
X194527905Y-64031238D01*
X194575524Y-64126476D01*
X194623143Y-64316952D01*
X194623143Y-64459810D01*
X194575524Y-64650286D01*
X194527905Y-64745524D01*
X194432667Y-64840762D01*
X194289809Y-64888381D01*
X194051714Y-64888381D01*
X195480286Y-63888381D02*
X195289809Y-63888381D01*
X195194571Y-63936000D01*
X195146952Y-63983619D01*
X195051714Y-64126476D01*
X195004095Y-64316952D01*
X195004095Y-64697905D01*
X195051714Y-64793143D01*
X195099333Y-64840762D01*
X195194571Y-64888381D01*
X195385048Y-64888381D01*
X195480286Y-64840762D01*
X195527905Y-64793143D01*
X195575524Y-64697905D01*
X195575524Y-64459810D01*
X195527905Y-64364571D01*
X195480286Y-64316952D01*
X195385048Y-64269333D01*
X195194571Y-64269333D01*
X195099333Y-64316952D01*
X195051714Y-64364571D01*
X195004095Y-64459810D01*
X196146952Y-64316952D02*
X196051714Y-64269333D01*
X196004095Y-64221714D01*
X195956476Y-64126476D01*
X195956476Y-64078857D01*
X196004095Y-63983619D01*
X196051714Y-63936000D01*
X196146952Y-63888381D01*
X196337429Y-63888381D01*
X196432667Y-63936000D01*
X196480286Y-63983619D01*
X196527905Y-64078857D01*
X196527905Y-64126476D01*
X196480286Y-64221714D01*
X196432667Y-64269333D01*
X196337429Y-64316952D01*
X196146952Y-64316952D01*
X196051714Y-64364571D01*
X196004095Y-64412190D01*
X195956476Y-64507429D01*
X195956476Y-64697905D01*
X196004095Y-64793143D01*
X196051714Y-64840762D01*
X196146952Y-64888381D01*
X196337429Y-64888381D01*
X196432667Y-64840762D01*
X196480286Y-64793143D01*
X196527905Y-64697905D01*
X196527905Y-64507429D01*
X196480286Y-64412190D01*
X196432667Y-64364571D01*
X196337429Y-64316952D01*
X198433095Y-67047381D02*
X198433095Y-66047381D01*
X199004524Y-67047381D02*
X198575952Y-66475952D01*
X199004524Y-66047381D02*
X198433095Y-66618810D01*
X204011714Y-64888381D02*
X204011714Y-63888381D01*
X204249809Y-63888381D01*
X204392667Y-63936000D01*
X204487905Y-64031238D01*
X204535524Y-64126476D01*
X204583143Y-64316952D01*
X204583143Y-64459810D01*
X204535524Y-64650286D01*
X204487905Y-64745524D01*
X204392667Y-64840762D01*
X204249809Y-64888381D01*
X204011714Y-64888381D01*
X205440286Y-63888381D02*
X205249809Y-63888381D01*
X205154571Y-63936000D01*
X205106952Y-63983619D01*
X205011714Y-64126476D01*
X204964095Y-64316952D01*
X204964095Y-64697905D01*
X205011714Y-64793143D01*
X205059333Y-64840762D01*
X205154571Y-64888381D01*
X205345048Y-64888381D01*
X205440286Y-64840762D01*
X205487905Y-64793143D01*
X205535524Y-64697905D01*
X205535524Y-64459810D01*
X205487905Y-64364571D01*
X205440286Y-64316952D01*
X205345048Y-64269333D01*
X205154571Y-64269333D01*
X205059333Y-64316952D01*
X205011714Y-64364571D01*
X204964095Y-64459810D01*
X206011714Y-64888381D02*
X206202190Y-64888381D01*
X206297429Y-64840762D01*
X206345048Y-64793143D01*
X206440286Y-64650286D01*
X206487905Y-64459810D01*
X206487905Y-64078857D01*
X206440286Y-63983619D01*
X206392667Y-63936000D01*
X206297429Y-63888381D01*
X206106952Y-63888381D01*
X206011714Y-63936000D01*
X205964095Y-63983619D01*
X205916476Y-64078857D01*
X205916476Y-64316952D01*
X205964095Y-64412190D01*
X206011714Y-64459810D01*
X206106952Y-64507429D01*
X206297429Y-64507429D01*
X206392667Y-64459810D01*
X206440286Y-64412190D01*
X206487905Y-64316952D01*
X208393095Y-67047381D02*
X208393095Y-66047381D01*
X208964524Y-67047381D02*
X208535952Y-66475952D01*
X208964524Y-66047381D02*
X208393095Y-66618810D01*
X214011714Y-64888381D02*
X214011714Y-63888381D01*
X214249809Y-63888381D01*
X214392667Y-63936000D01*
X214487905Y-64031238D01*
X214535524Y-64126476D01*
X214583143Y-64316952D01*
X214583143Y-64459810D01*
X214535524Y-64650286D01*
X214487905Y-64745524D01*
X214392667Y-64840762D01*
X214249809Y-64888381D01*
X214011714Y-64888381D01*
X214916476Y-63888381D02*
X215583143Y-63888381D01*
X215154571Y-64888381D01*
X216154571Y-63888381D02*
X216249810Y-63888381D01*
X216345048Y-63936000D01*
X216392667Y-63983619D01*
X216440286Y-64078857D01*
X216487905Y-64269333D01*
X216487905Y-64507429D01*
X216440286Y-64697905D01*
X216392667Y-64793143D01*
X216345048Y-64840762D01*
X216249810Y-64888381D01*
X216154571Y-64888381D01*
X216059333Y-64840762D01*
X216011714Y-64793143D01*
X215964095Y-64697905D01*
X215916476Y-64507429D01*
X215916476Y-64269333D01*
X215964095Y-64078857D01*
X216011714Y-63983619D01*
X216059333Y-63936000D01*
X216154571Y-63888381D01*
X218393095Y-67047381D02*
X218393095Y-66047381D01*
X218964524Y-67047381D02*
X218535952Y-66475952D01*
X218964524Y-66047381D02*
X218393095Y-66618810D01*
X174051714Y-74888381D02*
X174051714Y-73888381D01*
X174289809Y-73888381D01*
X174432667Y-73936000D01*
X174527905Y-74031238D01*
X174575524Y-74126476D01*
X174623143Y-74316952D01*
X174623143Y-74459810D01*
X174575524Y-74650286D01*
X174527905Y-74745524D01*
X174432667Y-74840762D01*
X174289809Y-74888381D01*
X174051714Y-74888381D01*
X174956476Y-73888381D02*
X175623143Y-73888381D01*
X175194571Y-74888381D01*
X176527905Y-74888381D02*
X175956476Y-74888381D01*
X176242190Y-74888381D02*
X176242190Y-73888381D01*
X176146952Y-74031238D01*
X176051714Y-74126476D01*
X175956476Y-74174095D01*
X178433095Y-77047381D02*
X178433095Y-76047381D01*
X179004524Y-77047381D02*
X178575952Y-76475952D01*
X179004524Y-76047381D02*
X178433095Y-76618810D01*
X184011714Y-74888381D02*
X184011714Y-73888381D01*
X184249809Y-73888381D01*
X184392667Y-73936000D01*
X184487905Y-74031238D01*
X184535524Y-74126476D01*
X184583143Y-74316952D01*
X184583143Y-74459810D01*
X184535524Y-74650286D01*
X184487905Y-74745524D01*
X184392667Y-74840762D01*
X184249809Y-74888381D01*
X184011714Y-74888381D01*
X184916476Y-73888381D02*
X185583143Y-73888381D01*
X185154571Y-74888381D01*
X185916476Y-73983619D02*
X185964095Y-73936000D01*
X186059333Y-73888381D01*
X186297429Y-73888381D01*
X186392667Y-73936000D01*
X186440286Y-73983619D01*
X186487905Y-74078857D01*
X186487905Y-74174095D01*
X186440286Y-74316952D01*
X185868857Y-74888381D01*
X186487905Y-74888381D01*
X188393095Y-77047381D02*
X188393095Y-76047381D01*
X188964524Y-77047381D02*
X188535952Y-76475952D01*
X188964524Y-76047381D02*
X188393095Y-76618810D01*
X194051714Y-74888381D02*
X194051714Y-73888381D01*
X194289809Y-73888381D01*
X194432667Y-73936000D01*
X194527905Y-74031238D01*
X194575524Y-74126476D01*
X194623143Y-74316952D01*
X194623143Y-74459810D01*
X194575524Y-74650286D01*
X194527905Y-74745524D01*
X194432667Y-74840762D01*
X194289809Y-74888381D01*
X194051714Y-74888381D01*
X194956476Y-73888381D02*
X195623143Y-73888381D01*
X195194571Y-74888381D01*
X195908857Y-73888381D02*
X196527905Y-73888381D01*
X196194571Y-74269333D01*
X196337429Y-74269333D01*
X196432667Y-74316952D01*
X196480286Y-74364571D01*
X196527905Y-74459810D01*
X196527905Y-74697905D01*
X196480286Y-74793143D01*
X196432667Y-74840762D01*
X196337429Y-74888381D01*
X196051714Y-74888381D01*
X195956476Y-74840762D01*
X195908857Y-74793143D01*
X198433095Y-77047381D02*
X198433095Y-76047381D01*
X199004524Y-77047381D02*
X198575952Y-76475952D01*
X199004524Y-76047381D02*
X198433095Y-76618810D01*
X204011714Y-74888381D02*
X204011714Y-73888381D01*
X204249809Y-73888381D01*
X204392667Y-73936000D01*
X204487905Y-74031238D01*
X204535524Y-74126476D01*
X204583143Y-74316952D01*
X204583143Y-74459810D01*
X204535524Y-74650286D01*
X204487905Y-74745524D01*
X204392667Y-74840762D01*
X204249809Y-74888381D01*
X204011714Y-74888381D01*
X204916476Y-73888381D02*
X205583143Y-73888381D01*
X205154571Y-74888381D01*
X206392667Y-74221714D02*
X206392667Y-74888381D01*
X206154571Y-73840762D02*
X205916476Y-74555048D01*
X206535524Y-74555048D01*
X208393095Y-77047381D02*
X208393095Y-76047381D01*
X208964524Y-77047381D02*
X208535952Y-76475952D01*
X208964524Y-76047381D02*
X208393095Y-76618810D01*
X214011714Y-74888381D02*
X214011714Y-73888381D01*
X214249809Y-73888381D01*
X214392667Y-73936000D01*
X214487905Y-74031238D01*
X214535524Y-74126476D01*
X214583143Y-74316952D01*
X214583143Y-74459810D01*
X214535524Y-74650286D01*
X214487905Y-74745524D01*
X214392667Y-74840762D01*
X214249809Y-74888381D01*
X214011714Y-74888381D01*
X214916476Y-73888381D02*
X215583143Y-73888381D01*
X215154571Y-74888381D01*
X216440286Y-73888381D02*
X215964095Y-73888381D01*
X215916476Y-74364571D01*
X215964095Y-74316952D01*
X216059333Y-74269333D01*
X216297429Y-74269333D01*
X216392667Y-74316952D01*
X216440286Y-74364571D01*
X216487905Y-74459810D01*
X216487905Y-74697905D01*
X216440286Y-74793143D01*
X216392667Y-74840762D01*
X216297429Y-74888381D01*
X216059333Y-74888381D01*
X215964095Y-74840762D01*
X215916476Y-74793143D01*
X218393095Y-77047381D02*
X218393095Y-76047381D01*
X218964524Y-77047381D02*
X218535952Y-76475952D01*
X218964524Y-76047381D02*
X218393095Y-76618810D01*
X174011714Y-84888381D02*
X174011714Y-83888381D01*
X174249809Y-83888381D01*
X174392667Y-83936000D01*
X174487905Y-84031238D01*
X174535524Y-84126476D01*
X174583143Y-84316952D01*
X174583143Y-84459810D01*
X174535524Y-84650286D01*
X174487905Y-84745524D01*
X174392667Y-84840762D01*
X174249809Y-84888381D01*
X174011714Y-84888381D01*
X174916476Y-83888381D02*
X175583143Y-83888381D01*
X175154571Y-84888381D01*
X176392667Y-83888381D02*
X176202190Y-83888381D01*
X176106952Y-83936000D01*
X176059333Y-83983619D01*
X175964095Y-84126476D01*
X175916476Y-84316952D01*
X175916476Y-84697905D01*
X175964095Y-84793143D01*
X176011714Y-84840762D01*
X176106952Y-84888381D01*
X176297429Y-84888381D01*
X176392667Y-84840762D01*
X176440286Y-84793143D01*
X176487905Y-84697905D01*
X176487905Y-84459810D01*
X176440286Y-84364571D01*
X176392667Y-84316952D01*
X176297429Y-84269333D01*
X176106952Y-84269333D01*
X176011714Y-84316952D01*
X175964095Y-84364571D01*
X175916476Y-84459810D01*
X178393095Y-87047381D02*
X178393095Y-86047381D01*
X178964524Y-87047381D02*
X178535952Y-86475952D01*
X178964524Y-86047381D02*
X178393095Y-86618810D01*
X184011714Y-84888381D02*
X184011714Y-83888381D01*
X184249809Y-83888381D01*
X184392667Y-83936000D01*
X184487905Y-84031238D01*
X184535524Y-84126476D01*
X184583143Y-84316952D01*
X184583143Y-84459810D01*
X184535524Y-84650286D01*
X184487905Y-84745524D01*
X184392667Y-84840762D01*
X184249809Y-84888381D01*
X184011714Y-84888381D01*
X184916476Y-83888381D02*
X185583143Y-83888381D01*
X185154571Y-84888381D01*
X185868857Y-83888381D02*
X186535524Y-83888381D01*
X186106952Y-84888381D01*
X188393095Y-87047381D02*
X188393095Y-86047381D01*
X188964524Y-87047381D02*
X188535952Y-86475952D01*
X188964524Y-86047381D02*
X188393095Y-86618810D01*
X194011714Y-84888381D02*
X194011714Y-83888381D01*
X194249809Y-83888381D01*
X194392667Y-83936000D01*
X194487905Y-84031238D01*
X194535524Y-84126476D01*
X194583143Y-84316952D01*
X194583143Y-84459810D01*
X194535524Y-84650286D01*
X194487905Y-84745524D01*
X194392667Y-84840762D01*
X194249809Y-84888381D01*
X194011714Y-84888381D01*
X194916476Y-83888381D02*
X195583143Y-83888381D01*
X195154571Y-84888381D01*
X196106952Y-84316952D02*
X196011714Y-84269333D01*
X195964095Y-84221714D01*
X195916476Y-84126476D01*
X195916476Y-84078857D01*
X195964095Y-83983619D01*
X196011714Y-83936000D01*
X196106952Y-83888381D01*
X196297429Y-83888381D01*
X196392667Y-83936000D01*
X196440286Y-83983619D01*
X196487905Y-84078857D01*
X196487905Y-84126476D01*
X196440286Y-84221714D01*
X196392667Y-84269333D01*
X196297429Y-84316952D01*
X196106952Y-84316952D01*
X196011714Y-84364571D01*
X195964095Y-84412190D01*
X195916476Y-84507429D01*
X195916476Y-84697905D01*
X195964095Y-84793143D01*
X196011714Y-84840762D01*
X196106952Y-84888381D01*
X196297429Y-84888381D01*
X196392667Y-84840762D01*
X196440286Y-84793143D01*
X196487905Y-84697905D01*
X196487905Y-84507429D01*
X196440286Y-84412190D01*
X196392667Y-84364571D01*
X196297429Y-84316952D01*
X198393095Y-87047381D02*
X198393095Y-86047381D01*
X198964524Y-87047381D02*
X198535952Y-86475952D01*
X198964524Y-86047381D02*
X198393095Y-86618810D01*
X204011714Y-84888381D02*
X204011714Y-83888381D01*
X204249809Y-83888381D01*
X204392667Y-83936000D01*
X204487905Y-84031238D01*
X204535524Y-84126476D01*
X204583143Y-84316952D01*
X204583143Y-84459810D01*
X204535524Y-84650286D01*
X204487905Y-84745524D01*
X204392667Y-84840762D01*
X204249809Y-84888381D01*
X204011714Y-84888381D01*
X204916476Y-83888381D02*
X205583143Y-83888381D01*
X205154571Y-84888381D01*
X206011714Y-84888381D02*
X206202190Y-84888381D01*
X206297429Y-84840762D01*
X206345048Y-84793143D01*
X206440286Y-84650286D01*
X206487905Y-84459810D01*
X206487905Y-84078857D01*
X206440286Y-83983619D01*
X206392667Y-83936000D01*
X206297429Y-83888381D01*
X206106952Y-83888381D01*
X206011714Y-83936000D01*
X205964095Y-83983619D01*
X205916476Y-84078857D01*
X205916476Y-84316952D01*
X205964095Y-84412190D01*
X206011714Y-84459810D01*
X206106952Y-84507429D01*
X206297429Y-84507429D01*
X206392667Y-84459810D01*
X206440286Y-84412190D01*
X206487905Y-84316952D01*
X208393095Y-87047381D02*
X208393095Y-86047381D01*
X208964524Y-87047381D02*
X208535952Y-86475952D01*
X208964524Y-86047381D02*
X208393095Y-86618810D01*
X214011714Y-84888381D02*
X214011714Y-83888381D01*
X214249809Y-83888381D01*
X214392667Y-83936000D01*
X214487905Y-84031238D01*
X214535524Y-84126476D01*
X214583143Y-84316952D01*
X214583143Y-84459810D01*
X214535524Y-84650286D01*
X214487905Y-84745524D01*
X214392667Y-84840762D01*
X214249809Y-84888381D01*
X214011714Y-84888381D01*
X215154571Y-84316952D02*
X215059333Y-84269333D01*
X215011714Y-84221714D01*
X214964095Y-84126476D01*
X214964095Y-84078857D01*
X215011714Y-83983619D01*
X215059333Y-83936000D01*
X215154571Y-83888381D01*
X215345048Y-83888381D01*
X215440286Y-83936000D01*
X215487905Y-83983619D01*
X215535524Y-84078857D01*
X215535524Y-84126476D01*
X215487905Y-84221714D01*
X215440286Y-84269333D01*
X215345048Y-84316952D01*
X215154571Y-84316952D01*
X215059333Y-84364571D01*
X215011714Y-84412190D01*
X214964095Y-84507429D01*
X214964095Y-84697905D01*
X215011714Y-84793143D01*
X215059333Y-84840762D01*
X215154571Y-84888381D01*
X215345048Y-84888381D01*
X215440286Y-84840762D01*
X215487905Y-84793143D01*
X215535524Y-84697905D01*
X215535524Y-84507429D01*
X215487905Y-84412190D01*
X215440286Y-84364571D01*
X215345048Y-84316952D01*
X216154571Y-83888381D02*
X216249810Y-83888381D01*
X216345048Y-83936000D01*
X216392667Y-83983619D01*
X216440286Y-84078857D01*
X216487905Y-84269333D01*
X216487905Y-84507429D01*
X216440286Y-84697905D01*
X216392667Y-84793143D01*
X216345048Y-84840762D01*
X216249810Y-84888381D01*
X216154571Y-84888381D01*
X216059333Y-84840762D01*
X216011714Y-84793143D01*
X215964095Y-84697905D01*
X215916476Y-84507429D01*
X215916476Y-84269333D01*
X215964095Y-84078857D01*
X216011714Y-83983619D01*
X216059333Y-83936000D01*
X216154571Y-83888381D01*
X218393095Y-87047381D02*
X218393095Y-86047381D01*
X218964524Y-87047381D02*
X218535952Y-86475952D01*
X218964524Y-86047381D02*
X218393095Y-86618810D01*
X174011714Y-94888381D02*
X174011714Y-93888381D01*
X174249809Y-93888381D01*
X174392667Y-93936000D01*
X174487905Y-94031238D01*
X174535524Y-94126476D01*
X174583143Y-94316952D01*
X174583143Y-94459810D01*
X174535524Y-94650286D01*
X174487905Y-94745524D01*
X174392667Y-94840762D01*
X174249809Y-94888381D01*
X174011714Y-94888381D01*
X175154571Y-94316952D02*
X175059333Y-94269333D01*
X175011714Y-94221714D01*
X174964095Y-94126476D01*
X174964095Y-94078857D01*
X175011714Y-93983619D01*
X175059333Y-93936000D01*
X175154571Y-93888381D01*
X175345048Y-93888381D01*
X175440286Y-93936000D01*
X175487905Y-93983619D01*
X175535524Y-94078857D01*
X175535524Y-94126476D01*
X175487905Y-94221714D01*
X175440286Y-94269333D01*
X175345048Y-94316952D01*
X175154571Y-94316952D01*
X175059333Y-94364571D01*
X175011714Y-94412190D01*
X174964095Y-94507429D01*
X174964095Y-94697905D01*
X175011714Y-94793143D01*
X175059333Y-94840762D01*
X175154571Y-94888381D01*
X175345048Y-94888381D01*
X175440286Y-94840762D01*
X175487905Y-94793143D01*
X175535524Y-94697905D01*
X175535524Y-94507429D01*
X175487905Y-94412190D01*
X175440286Y-94364571D01*
X175345048Y-94316952D01*
X176487905Y-94888381D02*
X175916476Y-94888381D01*
X176202190Y-94888381D02*
X176202190Y-93888381D01*
X176106952Y-94031238D01*
X176011714Y-94126476D01*
X175916476Y-94174095D01*
X178393095Y-97047381D02*
X178393095Y-96047381D01*
X178964524Y-97047381D02*
X178535952Y-96475952D01*
X178964524Y-96047381D02*
X178393095Y-96618810D01*
X184011714Y-94888381D02*
X184011714Y-93888381D01*
X184249809Y-93888381D01*
X184392667Y-93936000D01*
X184487905Y-94031238D01*
X184535524Y-94126476D01*
X184583143Y-94316952D01*
X184583143Y-94459810D01*
X184535524Y-94650286D01*
X184487905Y-94745524D01*
X184392667Y-94840762D01*
X184249809Y-94888381D01*
X184011714Y-94888381D01*
X185154571Y-94316952D02*
X185059333Y-94269333D01*
X185011714Y-94221714D01*
X184964095Y-94126476D01*
X184964095Y-94078857D01*
X185011714Y-93983619D01*
X185059333Y-93936000D01*
X185154571Y-93888381D01*
X185345048Y-93888381D01*
X185440286Y-93936000D01*
X185487905Y-93983619D01*
X185535524Y-94078857D01*
X185535524Y-94126476D01*
X185487905Y-94221714D01*
X185440286Y-94269333D01*
X185345048Y-94316952D01*
X185154571Y-94316952D01*
X185059333Y-94364571D01*
X185011714Y-94412190D01*
X184964095Y-94507429D01*
X184964095Y-94697905D01*
X185011714Y-94793143D01*
X185059333Y-94840762D01*
X185154571Y-94888381D01*
X185345048Y-94888381D01*
X185440286Y-94840762D01*
X185487905Y-94793143D01*
X185535524Y-94697905D01*
X185535524Y-94507429D01*
X185487905Y-94412190D01*
X185440286Y-94364571D01*
X185345048Y-94316952D01*
X185916476Y-93983619D02*
X185964095Y-93936000D01*
X186059333Y-93888381D01*
X186297429Y-93888381D01*
X186392667Y-93936000D01*
X186440286Y-93983619D01*
X186487905Y-94078857D01*
X186487905Y-94174095D01*
X186440286Y-94316952D01*
X185868857Y-94888381D01*
X186487905Y-94888381D01*
X188393095Y-97047381D02*
X188393095Y-96047381D01*
X188964524Y-97047381D02*
X188535952Y-96475952D01*
X188964524Y-96047381D02*
X188393095Y-96618810D01*
X194011714Y-94888381D02*
X194011714Y-93888381D01*
X194249809Y-93888381D01*
X194392667Y-93936000D01*
X194487905Y-94031238D01*
X194535524Y-94126476D01*
X194583143Y-94316952D01*
X194583143Y-94459810D01*
X194535524Y-94650286D01*
X194487905Y-94745524D01*
X194392667Y-94840762D01*
X194249809Y-94888381D01*
X194011714Y-94888381D01*
X195154571Y-94316952D02*
X195059333Y-94269333D01*
X195011714Y-94221714D01*
X194964095Y-94126476D01*
X194964095Y-94078857D01*
X195011714Y-93983619D01*
X195059333Y-93936000D01*
X195154571Y-93888381D01*
X195345048Y-93888381D01*
X195440286Y-93936000D01*
X195487905Y-93983619D01*
X195535524Y-94078857D01*
X195535524Y-94126476D01*
X195487905Y-94221714D01*
X195440286Y-94269333D01*
X195345048Y-94316952D01*
X195154571Y-94316952D01*
X195059333Y-94364571D01*
X195011714Y-94412190D01*
X194964095Y-94507429D01*
X194964095Y-94697905D01*
X195011714Y-94793143D01*
X195059333Y-94840762D01*
X195154571Y-94888381D01*
X195345048Y-94888381D01*
X195440286Y-94840762D01*
X195487905Y-94793143D01*
X195535524Y-94697905D01*
X195535524Y-94507429D01*
X195487905Y-94412190D01*
X195440286Y-94364571D01*
X195345048Y-94316952D01*
X195868857Y-93888381D02*
X196487905Y-93888381D01*
X196154571Y-94269333D01*
X196297429Y-94269333D01*
X196392667Y-94316952D01*
X196440286Y-94364571D01*
X196487905Y-94459810D01*
X196487905Y-94697905D01*
X196440286Y-94793143D01*
X196392667Y-94840762D01*
X196297429Y-94888381D01*
X196011714Y-94888381D01*
X195916476Y-94840762D01*
X195868857Y-94793143D01*
X198393095Y-97047381D02*
X198393095Y-96047381D01*
X198964524Y-97047381D02*
X198535952Y-96475952D01*
X198964524Y-96047381D02*
X198393095Y-96618810D01*
X204011714Y-94888381D02*
X204011714Y-93888381D01*
X204249809Y-93888381D01*
X204392667Y-93936000D01*
X204487905Y-94031238D01*
X204535524Y-94126476D01*
X204583143Y-94316952D01*
X204583143Y-94459810D01*
X204535524Y-94650286D01*
X204487905Y-94745524D01*
X204392667Y-94840762D01*
X204249809Y-94888381D01*
X204011714Y-94888381D01*
X205154571Y-94316952D02*
X205059333Y-94269333D01*
X205011714Y-94221714D01*
X204964095Y-94126476D01*
X204964095Y-94078857D01*
X205011714Y-93983619D01*
X205059333Y-93936000D01*
X205154571Y-93888381D01*
X205345048Y-93888381D01*
X205440286Y-93936000D01*
X205487905Y-93983619D01*
X205535524Y-94078857D01*
X205535524Y-94126476D01*
X205487905Y-94221714D01*
X205440286Y-94269333D01*
X205345048Y-94316952D01*
X205154571Y-94316952D01*
X205059333Y-94364571D01*
X205011714Y-94412190D01*
X204964095Y-94507429D01*
X204964095Y-94697905D01*
X205011714Y-94793143D01*
X205059333Y-94840762D01*
X205154571Y-94888381D01*
X205345048Y-94888381D01*
X205440286Y-94840762D01*
X205487905Y-94793143D01*
X205535524Y-94697905D01*
X205535524Y-94507429D01*
X205487905Y-94412190D01*
X205440286Y-94364571D01*
X205345048Y-94316952D01*
X206392667Y-94221714D02*
X206392667Y-94888381D01*
X206154571Y-93840762D02*
X205916476Y-94555048D01*
X206535524Y-94555048D01*
X208393095Y-97047381D02*
X208393095Y-96047381D01*
X208964524Y-97047381D02*
X208535952Y-96475952D01*
X208964524Y-96047381D02*
X208393095Y-96618810D01*
X214011714Y-94888381D02*
X214011714Y-93888381D01*
X214249809Y-93888381D01*
X214392667Y-93936000D01*
X214487905Y-94031238D01*
X214535524Y-94126476D01*
X214583143Y-94316952D01*
X214583143Y-94459810D01*
X214535524Y-94650286D01*
X214487905Y-94745524D01*
X214392667Y-94840762D01*
X214249809Y-94888381D01*
X214011714Y-94888381D01*
X215154571Y-94316952D02*
X215059333Y-94269333D01*
X215011714Y-94221714D01*
X214964095Y-94126476D01*
X214964095Y-94078857D01*
X215011714Y-93983619D01*
X215059333Y-93936000D01*
X215154571Y-93888381D01*
X215345048Y-93888381D01*
X215440286Y-93936000D01*
X215487905Y-93983619D01*
X215535524Y-94078857D01*
X215535524Y-94126476D01*
X215487905Y-94221714D01*
X215440286Y-94269333D01*
X215345048Y-94316952D01*
X215154571Y-94316952D01*
X215059333Y-94364571D01*
X215011714Y-94412190D01*
X214964095Y-94507429D01*
X214964095Y-94697905D01*
X215011714Y-94793143D01*
X215059333Y-94840762D01*
X215154571Y-94888381D01*
X215345048Y-94888381D01*
X215440286Y-94840762D01*
X215487905Y-94793143D01*
X215535524Y-94697905D01*
X215535524Y-94507429D01*
X215487905Y-94412190D01*
X215440286Y-94364571D01*
X215345048Y-94316952D01*
X216440286Y-93888381D02*
X215964095Y-93888381D01*
X215916476Y-94364571D01*
X215964095Y-94316952D01*
X216059333Y-94269333D01*
X216297429Y-94269333D01*
X216392667Y-94316952D01*
X216440286Y-94364571D01*
X216487905Y-94459810D01*
X216487905Y-94697905D01*
X216440286Y-94793143D01*
X216392667Y-94840762D01*
X216297429Y-94888381D01*
X216059333Y-94888381D01*
X215964095Y-94840762D01*
X215916476Y-94793143D01*
X218393095Y-97047381D02*
X218393095Y-96047381D01*
X218964524Y-97047381D02*
X218535952Y-96475952D01*
X218964524Y-96047381D02*
X218393095Y-96618810D01*
X174011714Y-104888381D02*
X174011714Y-103888381D01*
X174249809Y-103888381D01*
X174392667Y-103936000D01*
X174487905Y-104031238D01*
X174535524Y-104126476D01*
X174583143Y-104316952D01*
X174583143Y-104459810D01*
X174535524Y-104650286D01*
X174487905Y-104745524D01*
X174392667Y-104840762D01*
X174249809Y-104888381D01*
X174011714Y-104888381D01*
X175154571Y-104316952D02*
X175059333Y-104269333D01*
X175011714Y-104221714D01*
X174964095Y-104126476D01*
X174964095Y-104078857D01*
X175011714Y-103983619D01*
X175059333Y-103936000D01*
X175154571Y-103888381D01*
X175345048Y-103888381D01*
X175440286Y-103936000D01*
X175487905Y-103983619D01*
X175535524Y-104078857D01*
X175535524Y-104126476D01*
X175487905Y-104221714D01*
X175440286Y-104269333D01*
X175345048Y-104316952D01*
X175154571Y-104316952D01*
X175059333Y-104364571D01*
X175011714Y-104412190D01*
X174964095Y-104507429D01*
X174964095Y-104697905D01*
X175011714Y-104793143D01*
X175059333Y-104840762D01*
X175154571Y-104888381D01*
X175345048Y-104888381D01*
X175440286Y-104840762D01*
X175487905Y-104793143D01*
X175535524Y-104697905D01*
X175535524Y-104507429D01*
X175487905Y-104412190D01*
X175440286Y-104364571D01*
X175345048Y-104316952D01*
X176392667Y-103888381D02*
X176202190Y-103888381D01*
X176106952Y-103936000D01*
X176059333Y-103983619D01*
X175964095Y-104126476D01*
X175916476Y-104316952D01*
X175916476Y-104697905D01*
X175964095Y-104793143D01*
X176011714Y-104840762D01*
X176106952Y-104888381D01*
X176297429Y-104888381D01*
X176392667Y-104840762D01*
X176440286Y-104793143D01*
X176487905Y-104697905D01*
X176487905Y-104459810D01*
X176440286Y-104364571D01*
X176392667Y-104316952D01*
X176297429Y-104269333D01*
X176106952Y-104269333D01*
X176011714Y-104316952D01*
X175964095Y-104364571D01*
X175916476Y-104459810D01*
X178393095Y-107047381D02*
X178393095Y-106047381D01*
X178964524Y-107047381D02*
X178535952Y-106475952D01*
X178964524Y-106047381D02*
X178393095Y-106618810D01*
X184011714Y-104888381D02*
X184011714Y-103888381D01*
X184249809Y-103888381D01*
X184392667Y-103936000D01*
X184487905Y-104031238D01*
X184535524Y-104126476D01*
X184583143Y-104316952D01*
X184583143Y-104459810D01*
X184535524Y-104650286D01*
X184487905Y-104745524D01*
X184392667Y-104840762D01*
X184249809Y-104888381D01*
X184011714Y-104888381D01*
X185154571Y-104316952D02*
X185059333Y-104269333D01*
X185011714Y-104221714D01*
X184964095Y-104126476D01*
X184964095Y-104078857D01*
X185011714Y-103983619D01*
X185059333Y-103936000D01*
X185154571Y-103888381D01*
X185345048Y-103888381D01*
X185440286Y-103936000D01*
X185487905Y-103983619D01*
X185535524Y-104078857D01*
X185535524Y-104126476D01*
X185487905Y-104221714D01*
X185440286Y-104269333D01*
X185345048Y-104316952D01*
X185154571Y-104316952D01*
X185059333Y-104364571D01*
X185011714Y-104412190D01*
X184964095Y-104507429D01*
X184964095Y-104697905D01*
X185011714Y-104793143D01*
X185059333Y-104840762D01*
X185154571Y-104888381D01*
X185345048Y-104888381D01*
X185440286Y-104840762D01*
X185487905Y-104793143D01*
X185535524Y-104697905D01*
X185535524Y-104507429D01*
X185487905Y-104412190D01*
X185440286Y-104364571D01*
X185345048Y-104316952D01*
X185868857Y-103888381D02*
X186535524Y-103888381D01*
X186106952Y-104888381D01*
X188393095Y-107047381D02*
X188393095Y-106047381D01*
X188964524Y-107047381D02*
X188535952Y-106475952D01*
X188964524Y-106047381D02*
X188393095Y-106618810D01*
X194051714Y-104888381D02*
X194051714Y-103888381D01*
X194289809Y-103888381D01*
X194432667Y-103936000D01*
X194527905Y-104031238D01*
X194575524Y-104126476D01*
X194623143Y-104316952D01*
X194623143Y-104459810D01*
X194575524Y-104650286D01*
X194527905Y-104745524D01*
X194432667Y-104840762D01*
X194289809Y-104888381D01*
X194051714Y-104888381D01*
X195194571Y-104316952D02*
X195099333Y-104269333D01*
X195051714Y-104221714D01*
X195004095Y-104126476D01*
X195004095Y-104078857D01*
X195051714Y-103983619D01*
X195099333Y-103936000D01*
X195194571Y-103888381D01*
X195385048Y-103888381D01*
X195480286Y-103936000D01*
X195527905Y-103983619D01*
X195575524Y-104078857D01*
X195575524Y-104126476D01*
X195527905Y-104221714D01*
X195480286Y-104269333D01*
X195385048Y-104316952D01*
X195194571Y-104316952D01*
X195099333Y-104364571D01*
X195051714Y-104412190D01*
X195004095Y-104507429D01*
X195004095Y-104697905D01*
X195051714Y-104793143D01*
X195099333Y-104840762D01*
X195194571Y-104888381D01*
X195385048Y-104888381D01*
X195480286Y-104840762D01*
X195527905Y-104793143D01*
X195575524Y-104697905D01*
X195575524Y-104507429D01*
X195527905Y-104412190D01*
X195480286Y-104364571D01*
X195385048Y-104316952D01*
X196146952Y-104316952D02*
X196051714Y-104269333D01*
X196004095Y-104221714D01*
X195956476Y-104126476D01*
X195956476Y-104078857D01*
X196004095Y-103983619D01*
X196051714Y-103936000D01*
X196146952Y-103888381D01*
X196337429Y-103888381D01*
X196432667Y-103936000D01*
X196480286Y-103983619D01*
X196527905Y-104078857D01*
X196527905Y-104126476D01*
X196480286Y-104221714D01*
X196432667Y-104269333D01*
X196337429Y-104316952D01*
X196146952Y-104316952D01*
X196051714Y-104364571D01*
X196004095Y-104412190D01*
X195956476Y-104507429D01*
X195956476Y-104697905D01*
X196004095Y-104793143D01*
X196051714Y-104840762D01*
X196146952Y-104888381D01*
X196337429Y-104888381D01*
X196432667Y-104840762D01*
X196480286Y-104793143D01*
X196527905Y-104697905D01*
X196527905Y-104507429D01*
X196480286Y-104412190D01*
X196432667Y-104364571D01*
X196337429Y-104316952D01*
X198433095Y-107047381D02*
X198433095Y-106047381D01*
X199004524Y-107047381D02*
X198575952Y-106475952D01*
X199004524Y-106047381D02*
X198433095Y-106618810D01*
X204011714Y-104888381D02*
X204011714Y-103888381D01*
X204249809Y-103888381D01*
X204392667Y-103936000D01*
X204487905Y-104031238D01*
X204535524Y-104126476D01*
X204583143Y-104316952D01*
X204583143Y-104459810D01*
X204535524Y-104650286D01*
X204487905Y-104745524D01*
X204392667Y-104840762D01*
X204249809Y-104888381D01*
X204011714Y-104888381D01*
X205154571Y-104316952D02*
X205059333Y-104269333D01*
X205011714Y-104221714D01*
X204964095Y-104126476D01*
X204964095Y-104078857D01*
X205011714Y-103983619D01*
X205059333Y-103936000D01*
X205154571Y-103888381D01*
X205345048Y-103888381D01*
X205440286Y-103936000D01*
X205487905Y-103983619D01*
X205535524Y-104078857D01*
X205535524Y-104126476D01*
X205487905Y-104221714D01*
X205440286Y-104269333D01*
X205345048Y-104316952D01*
X205154571Y-104316952D01*
X205059333Y-104364571D01*
X205011714Y-104412190D01*
X204964095Y-104507429D01*
X204964095Y-104697905D01*
X205011714Y-104793143D01*
X205059333Y-104840762D01*
X205154571Y-104888381D01*
X205345048Y-104888381D01*
X205440286Y-104840762D01*
X205487905Y-104793143D01*
X205535524Y-104697905D01*
X205535524Y-104507429D01*
X205487905Y-104412190D01*
X205440286Y-104364571D01*
X205345048Y-104316952D01*
X206011714Y-104888381D02*
X206202190Y-104888381D01*
X206297429Y-104840762D01*
X206345048Y-104793143D01*
X206440286Y-104650286D01*
X206487905Y-104459810D01*
X206487905Y-104078857D01*
X206440286Y-103983619D01*
X206392667Y-103936000D01*
X206297429Y-103888381D01*
X206106952Y-103888381D01*
X206011714Y-103936000D01*
X205964095Y-103983619D01*
X205916476Y-104078857D01*
X205916476Y-104316952D01*
X205964095Y-104412190D01*
X206011714Y-104459810D01*
X206106952Y-104507429D01*
X206297429Y-104507429D01*
X206392667Y-104459810D01*
X206440286Y-104412190D01*
X206487905Y-104316952D01*
X208393095Y-107047381D02*
X208393095Y-106047381D01*
X208964524Y-107047381D02*
X208535952Y-106475952D01*
X208964524Y-106047381D02*
X208393095Y-106618810D01*
X214011714Y-104888381D02*
X214011714Y-103888381D01*
X214249809Y-103888381D01*
X214392667Y-103936000D01*
X214487905Y-104031238D01*
X214535524Y-104126476D01*
X214583143Y-104316952D01*
X214583143Y-104459810D01*
X214535524Y-104650286D01*
X214487905Y-104745524D01*
X214392667Y-104840762D01*
X214249809Y-104888381D01*
X214011714Y-104888381D01*
X215059333Y-104888381D02*
X215249809Y-104888381D01*
X215345048Y-104840762D01*
X215392667Y-104793143D01*
X215487905Y-104650286D01*
X215535524Y-104459810D01*
X215535524Y-104078857D01*
X215487905Y-103983619D01*
X215440286Y-103936000D01*
X215345048Y-103888381D01*
X215154571Y-103888381D01*
X215059333Y-103936000D01*
X215011714Y-103983619D01*
X214964095Y-104078857D01*
X214964095Y-104316952D01*
X215011714Y-104412190D01*
X215059333Y-104459810D01*
X215154571Y-104507429D01*
X215345048Y-104507429D01*
X215440286Y-104459810D01*
X215487905Y-104412190D01*
X215535524Y-104316952D01*
X216154571Y-103888381D02*
X216249810Y-103888381D01*
X216345048Y-103936000D01*
X216392667Y-103983619D01*
X216440286Y-104078857D01*
X216487905Y-104269333D01*
X216487905Y-104507429D01*
X216440286Y-104697905D01*
X216392667Y-104793143D01*
X216345048Y-104840762D01*
X216249810Y-104888381D01*
X216154571Y-104888381D01*
X216059333Y-104840762D01*
X216011714Y-104793143D01*
X215964095Y-104697905D01*
X215916476Y-104507429D01*
X215916476Y-104269333D01*
X215964095Y-104078857D01*
X216011714Y-103983619D01*
X216059333Y-103936000D01*
X216154571Y-103888381D01*
X218393095Y-107047381D02*
X218393095Y-106047381D01*
X218964524Y-107047381D02*
X218535952Y-106475952D01*
X218964524Y-106047381D02*
X218393095Y-106618810D01*
X174011714Y-114888381D02*
X174011714Y-113888381D01*
X174249809Y-113888381D01*
X174392667Y-113936000D01*
X174487905Y-114031238D01*
X174535524Y-114126476D01*
X174583143Y-114316952D01*
X174583143Y-114459810D01*
X174535524Y-114650286D01*
X174487905Y-114745524D01*
X174392667Y-114840762D01*
X174249809Y-114888381D01*
X174011714Y-114888381D01*
X175059333Y-114888381D02*
X175249809Y-114888381D01*
X175345048Y-114840762D01*
X175392667Y-114793143D01*
X175487905Y-114650286D01*
X175535524Y-114459810D01*
X175535524Y-114078857D01*
X175487905Y-113983619D01*
X175440286Y-113936000D01*
X175345048Y-113888381D01*
X175154571Y-113888381D01*
X175059333Y-113936000D01*
X175011714Y-113983619D01*
X174964095Y-114078857D01*
X174964095Y-114316952D01*
X175011714Y-114412190D01*
X175059333Y-114459810D01*
X175154571Y-114507429D01*
X175345048Y-114507429D01*
X175440286Y-114459810D01*
X175487905Y-114412190D01*
X175535524Y-114316952D01*
X176487905Y-114888381D02*
X175916476Y-114888381D01*
X176202190Y-114888381D02*
X176202190Y-113888381D01*
X176106952Y-114031238D01*
X176011714Y-114126476D01*
X175916476Y-114174095D01*
X178393095Y-117047381D02*
X178393095Y-116047381D01*
X178964524Y-117047381D02*
X178535952Y-116475952D01*
X178964524Y-116047381D02*
X178393095Y-116618810D01*
X184051714Y-114888381D02*
X184051714Y-113888381D01*
X184289809Y-113888381D01*
X184432667Y-113936000D01*
X184527905Y-114031238D01*
X184575524Y-114126476D01*
X184623143Y-114316952D01*
X184623143Y-114459810D01*
X184575524Y-114650286D01*
X184527905Y-114745524D01*
X184432667Y-114840762D01*
X184289809Y-114888381D01*
X184051714Y-114888381D01*
X185099333Y-114888381D02*
X185289809Y-114888381D01*
X185385048Y-114840762D01*
X185432667Y-114793143D01*
X185527905Y-114650286D01*
X185575524Y-114459810D01*
X185575524Y-114078857D01*
X185527905Y-113983619D01*
X185480286Y-113936000D01*
X185385048Y-113888381D01*
X185194571Y-113888381D01*
X185099333Y-113936000D01*
X185051714Y-113983619D01*
X185004095Y-114078857D01*
X185004095Y-114316952D01*
X185051714Y-114412190D01*
X185099333Y-114459810D01*
X185194571Y-114507429D01*
X185385048Y-114507429D01*
X185480286Y-114459810D01*
X185527905Y-114412190D01*
X185575524Y-114316952D01*
X185956476Y-113983619D02*
X186004095Y-113936000D01*
X186099333Y-113888381D01*
X186337429Y-113888381D01*
X186432667Y-113936000D01*
X186480286Y-113983619D01*
X186527905Y-114078857D01*
X186527905Y-114174095D01*
X186480286Y-114316952D01*
X185908857Y-114888381D01*
X186527905Y-114888381D01*
X188433095Y-117047381D02*
X188433095Y-116047381D01*
X189004524Y-117047381D02*
X188575952Y-116475952D01*
X189004524Y-116047381D02*
X188433095Y-116618810D01*
X194011714Y-114888381D02*
X194011714Y-113888381D01*
X194249809Y-113888381D01*
X194392667Y-113936000D01*
X194487905Y-114031238D01*
X194535524Y-114126476D01*
X194583143Y-114316952D01*
X194583143Y-114459810D01*
X194535524Y-114650286D01*
X194487905Y-114745524D01*
X194392667Y-114840762D01*
X194249809Y-114888381D01*
X194011714Y-114888381D01*
X195059333Y-114888381D02*
X195249809Y-114888381D01*
X195345048Y-114840762D01*
X195392667Y-114793143D01*
X195487905Y-114650286D01*
X195535524Y-114459810D01*
X195535524Y-114078857D01*
X195487905Y-113983619D01*
X195440286Y-113936000D01*
X195345048Y-113888381D01*
X195154571Y-113888381D01*
X195059333Y-113936000D01*
X195011714Y-113983619D01*
X194964095Y-114078857D01*
X194964095Y-114316952D01*
X195011714Y-114412190D01*
X195059333Y-114459810D01*
X195154571Y-114507429D01*
X195345048Y-114507429D01*
X195440286Y-114459810D01*
X195487905Y-114412190D01*
X195535524Y-114316952D01*
X195868857Y-113888381D02*
X196487905Y-113888381D01*
X196154571Y-114269333D01*
X196297429Y-114269333D01*
X196392667Y-114316952D01*
X196440286Y-114364571D01*
X196487905Y-114459810D01*
X196487905Y-114697905D01*
X196440286Y-114793143D01*
X196392667Y-114840762D01*
X196297429Y-114888381D01*
X196011714Y-114888381D01*
X195916476Y-114840762D01*
X195868857Y-114793143D01*
X198393095Y-117047381D02*
X198393095Y-116047381D01*
X198964524Y-117047381D02*
X198535952Y-116475952D01*
X198964524Y-116047381D02*
X198393095Y-116618810D01*
X204011714Y-114888381D02*
X204011714Y-113888381D01*
X204249809Y-113888381D01*
X204392667Y-113936000D01*
X204487905Y-114031238D01*
X204535524Y-114126476D01*
X204583143Y-114316952D01*
X204583143Y-114459810D01*
X204535524Y-114650286D01*
X204487905Y-114745524D01*
X204392667Y-114840762D01*
X204249809Y-114888381D01*
X204011714Y-114888381D01*
X205059333Y-114888381D02*
X205249809Y-114888381D01*
X205345048Y-114840762D01*
X205392667Y-114793143D01*
X205487905Y-114650286D01*
X205535524Y-114459810D01*
X205535524Y-114078857D01*
X205487905Y-113983619D01*
X205440286Y-113936000D01*
X205345048Y-113888381D01*
X205154571Y-113888381D01*
X205059333Y-113936000D01*
X205011714Y-113983619D01*
X204964095Y-114078857D01*
X204964095Y-114316952D01*
X205011714Y-114412190D01*
X205059333Y-114459810D01*
X205154571Y-114507429D01*
X205345048Y-114507429D01*
X205440286Y-114459810D01*
X205487905Y-114412190D01*
X205535524Y-114316952D01*
X206392667Y-114221714D02*
X206392667Y-114888381D01*
X206154571Y-113840762D02*
X205916476Y-114555048D01*
X206535524Y-114555048D01*
X208393095Y-117047381D02*
X208393095Y-116047381D01*
X208964524Y-117047381D02*
X208535952Y-116475952D01*
X208964524Y-116047381D02*
X208393095Y-116618810D01*
X214011714Y-114888381D02*
X214011714Y-113888381D01*
X214249809Y-113888381D01*
X214392667Y-113936000D01*
X214487905Y-114031238D01*
X214535524Y-114126476D01*
X214583143Y-114316952D01*
X214583143Y-114459810D01*
X214535524Y-114650286D01*
X214487905Y-114745524D01*
X214392667Y-114840762D01*
X214249809Y-114888381D01*
X214011714Y-114888381D01*
X215059333Y-114888381D02*
X215249809Y-114888381D01*
X215345048Y-114840762D01*
X215392667Y-114793143D01*
X215487905Y-114650286D01*
X215535524Y-114459810D01*
X215535524Y-114078857D01*
X215487905Y-113983619D01*
X215440286Y-113936000D01*
X215345048Y-113888381D01*
X215154571Y-113888381D01*
X215059333Y-113936000D01*
X215011714Y-113983619D01*
X214964095Y-114078857D01*
X214964095Y-114316952D01*
X215011714Y-114412190D01*
X215059333Y-114459810D01*
X215154571Y-114507429D01*
X215345048Y-114507429D01*
X215440286Y-114459810D01*
X215487905Y-114412190D01*
X215535524Y-114316952D01*
X216440286Y-113888381D02*
X215964095Y-113888381D01*
X215916476Y-114364571D01*
X215964095Y-114316952D01*
X216059333Y-114269333D01*
X216297429Y-114269333D01*
X216392667Y-114316952D01*
X216440286Y-114364571D01*
X216487905Y-114459810D01*
X216487905Y-114697905D01*
X216440286Y-114793143D01*
X216392667Y-114840762D01*
X216297429Y-114888381D01*
X216059333Y-114888381D01*
X215964095Y-114840762D01*
X215916476Y-114793143D01*
X218393095Y-117047381D02*
X218393095Y-116047381D01*
X218964524Y-117047381D02*
X218535952Y-116475952D01*
X218964524Y-116047381D02*
X218393095Y-116618810D01*
X174011714Y-124888381D02*
X174011714Y-123888381D01*
X174249809Y-123888381D01*
X174392667Y-123936000D01*
X174487905Y-124031238D01*
X174535524Y-124126476D01*
X174583143Y-124316952D01*
X174583143Y-124459810D01*
X174535524Y-124650286D01*
X174487905Y-124745524D01*
X174392667Y-124840762D01*
X174249809Y-124888381D01*
X174011714Y-124888381D01*
X175059333Y-124888381D02*
X175249809Y-124888381D01*
X175345048Y-124840762D01*
X175392667Y-124793143D01*
X175487905Y-124650286D01*
X175535524Y-124459810D01*
X175535524Y-124078857D01*
X175487905Y-123983619D01*
X175440286Y-123936000D01*
X175345048Y-123888381D01*
X175154571Y-123888381D01*
X175059333Y-123936000D01*
X175011714Y-123983619D01*
X174964095Y-124078857D01*
X174964095Y-124316952D01*
X175011714Y-124412190D01*
X175059333Y-124459810D01*
X175154571Y-124507429D01*
X175345048Y-124507429D01*
X175440286Y-124459810D01*
X175487905Y-124412190D01*
X175535524Y-124316952D01*
X176392667Y-123888381D02*
X176202190Y-123888381D01*
X176106952Y-123936000D01*
X176059333Y-123983619D01*
X175964095Y-124126476D01*
X175916476Y-124316952D01*
X175916476Y-124697905D01*
X175964095Y-124793143D01*
X176011714Y-124840762D01*
X176106952Y-124888381D01*
X176297429Y-124888381D01*
X176392667Y-124840762D01*
X176440286Y-124793143D01*
X176487905Y-124697905D01*
X176487905Y-124459810D01*
X176440286Y-124364571D01*
X176392667Y-124316952D01*
X176297429Y-124269333D01*
X176106952Y-124269333D01*
X176011714Y-124316952D01*
X175964095Y-124364571D01*
X175916476Y-124459810D01*
X178393095Y-127047381D02*
X178393095Y-126047381D01*
X178964524Y-127047381D02*
X178535952Y-126475952D01*
X178964524Y-126047381D02*
X178393095Y-126618810D01*
X184011714Y-124888381D02*
X184011714Y-123888381D01*
X184249809Y-123888381D01*
X184392667Y-123936000D01*
X184487905Y-124031238D01*
X184535524Y-124126476D01*
X184583143Y-124316952D01*
X184583143Y-124459810D01*
X184535524Y-124650286D01*
X184487905Y-124745524D01*
X184392667Y-124840762D01*
X184249809Y-124888381D01*
X184011714Y-124888381D01*
X185059333Y-124888381D02*
X185249809Y-124888381D01*
X185345048Y-124840762D01*
X185392667Y-124793143D01*
X185487905Y-124650286D01*
X185535524Y-124459810D01*
X185535524Y-124078857D01*
X185487905Y-123983619D01*
X185440286Y-123936000D01*
X185345048Y-123888381D01*
X185154571Y-123888381D01*
X185059333Y-123936000D01*
X185011714Y-123983619D01*
X184964095Y-124078857D01*
X184964095Y-124316952D01*
X185011714Y-124412190D01*
X185059333Y-124459810D01*
X185154571Y-124507429D01*
X185345048Y-124507429D01*
X185440286Y-124459810D01*
X185487905Y-124412190D01*
X185535524Y-124316952D01*
X185868857Y-123888381D02*
X186535524Y-123888381D01*
X186106952Y-124888381D01*
X188393095Y-127047381D02*
X188393095Y-126047381D01*
X188964524Y-127047381D02*
X188535952Y-126475952D01*
X188964524Y-126047381D02*
X188393095Y-126618810D01*
X194011714Y-124888381D02*
X194011714Y-123888381D01*
X194249809Y-123888381D01*
X194392667Y-123936000D01*
X194487905Y-124031238D01*
X194535524Y-124126476D01*
X194583143Y-124316952D01*
X194583143Y-124459810D01*
X194535524Y-124650286D01*
X194487905Y-124745524D01*
X194392667Y-124840762D01*
X194249809Y-124888381D01*
X194011714Y-124888381D01*
X195059333Y-124888381D02*
X195249809Y-124888381D01*
X195345048Y-124840762D01*
X195392667Y-124793143D01*
X195487905Y-124650286D01*
X195535524Y-124459810D01*
X195535524Y-124078857D01*
X195487905Y-123983619D01*
X195440286Y-123936000D01*
X195345048Y-123888381D01*
X195154571Y-123888381D01*
X195059333Y-123936000D01*
X195011714Y-123983619D01*
X194964095Y-124078857D01*
X194964095Y-124316952D01*
X195011714Y-124412190D01*
X195059333Y-124459810D01*
X195154571Y-124507429D01*
X195345048Y-124507429D01*
X195440286Y-124459810D01*
X195487905Y-124412190D01*
X195535524Y-124316952D01*
X196106952Y-124316952D02*
X196011714Y-124269333D01*
X195964095Y-124221714D01*
X195916476Y-124126476D01*
X195916476Y-124078857D01*
X195964095Y-123983619D01*
X196011714Y-123936000D01*
X196106952Y-123888381D01*
X196297429Y-123888381D01*
X196392667Y-123936000D01*
X196440286Y-123983619D01*
X196487905Y-124078857D01*
X196487905Y-124126476D01*
X196440286Y-124221714D01*
X196392667Y-124269333D01*
X196297429Y-124316952D01*
X196106952Y-124316952D01*
X196011714Y-124364571D01*
X195964095Y-124412190D01*
X195916476Y-124507429D01*
X195916476Y-124697905D01*
X195964095Y-124793143D01*
X196011714Y-124840762D01*
X196106952Y-124888381D01*
X196297429Y-124888381D01*
X196392667Y-124840762D01*
X196440286Y-124793143D01*
X196487905Y-124697905D01*
X196487905Y-124507429D01*
X196440286Y-124412190D01*
X196392667Y-124364571D01*
X196297429Y-124316952D01*
X198393095Y-127047381D02*
X198393095Y-126047381D01*
X198964524Y-127047381D02*
X198535952Y-126475952D01*
X198964524Y-126047381D02*
X198393095Y-126618810D01*
X204011714Y-124888381D02*
X204011714Y-123888381D01*
X204249809Y-123888381D01*
X204392667Y-123936000D01*
X204487905Y-124031238D01*
X204535524Y-124126476D01*
X204583143Y-124316952D01*
X204583143Y-124459810D01*
X204535524Y-124650286D01*
X204487905Y-124745524D01*
X204392667Y-124840762D01*
X204249809Y-124888381D01*
X204011714Y-124888381D01*
X205059333Y-124888381D02*
X205249809Y-124888381D01*
X205345048Y-124840762D01*
X205392667Y-124793143D01*
X205487905Y-124650286D01*
X205535524Y-124459810D01*
X205535524Y-124078857D01*
X205487905Y-123983619D01*
X205440286Y-123936000D01*
X205345048Y-123888381D01*
X205154571Y-123888381D01*
X205059333Y-123936000D01*
X205011714Y-123983619D01*
X204964095Y-124078857D01*
X204964095Y-124316952D01*
X205011714Y-124412190D01*
X205059333Y-124459810D01*
X205154571Y-124507429D01*
X205345048Y-124507429D01*
X205440286Y-124459810D01*
X205487905Y-124412190D01*
X205535524Y-124316952D01*
X206011714Y-124888381D02*
X206202190Y-124888381D01*
X206297429Y-124840762D01*
X206345048Y-124793143D01*
X206440286Y-124650286D01*
X206487905Y-124459810D01*
X206487905Y-124078857D01*
X206440286Y-123983619D01*
X206392667Y-123936000D01*
X206297429Y-123888381D01*
X206106952Y-123888381D01*
X206011714Y-123936000D01*
X205964095Y-123983619D01*
X205916476Y-124078857D01*
X205916476Y-124316952D01*
X205964095Y-124412190D01*
X206011714Y-124459810D01*
X206106952Y-124507429D01*
X206297429Y-124507429D01*
X206392667Y-124459810D01*
X206440286Y-124412190D01*
X206487905Y-124316952D01*
X208393095Y-127047381D02*
X208393095Y-126047381D01*
X208964524Y-127047381D02*
X208535952Y-126475952D01*
X208964524Y-126047381D02*
X208393095Y-126618810D01*
X213535524Y-124888381D02*
X213535524Y-123888381D01*
X213773619Y-123888381D01*
X213916477Y-123936000D01*
X214011715Y-124031238D01*
X214059334Y-124126476D01*
X214106953Y-124316952D01*
X214106953Y-124459810D01*
X214059334Y-124650286D01*
X214011715Y-124745524D01*
X213916477Y-124840762D01*
X213773619Y-124888381D01*
X213535524Y-124888381D01*
X215059334Y-124888381D02*
X214487905Y-124888381D01*
X214773619Y-124888381D02*
X214773619Y-123888381D01*
X214678381Y-124031238D01*
X214583143Y-124126476D01*
X214487905Y-124174095D01*
X215678381Y-123888381D02*
X215773620Y-123888381D01*
X215868858Y-123936000D01*
X215916477Y-123983619D01*
X215964096Y-124078857D01*
X216011715Y-124269333D01*
X216011715Y-124507429D01*
X215964096Y-124697905D01*
X215916477Y-124793143D01*
X215868858Y-124840762D01*
X215773620Y-124888381D01*
X215678381Y-124888381D01*
X215583143Y-124840762D01*
X215535524Y-124793143D01*
X215487905Y-124697905D01*
X215440286Y-124507429D01*
X215440286Y-124269333D01*
X215487905Y-124078857D01*
X215535524Y-123983619D01*
X215583143Y-123936000D01*
X215678381Y-123888381D01*
X216630762Y-123888381D02*
X216726001Y-123888381D01*
X216821239Y-123936000D01*
X216868858Y-123983619D01*
X216916477Y-124078857D01*
X216964096Y-124269333D01*
X216964096Y-124507429D01*
X216916477Y-124697905D01*
X216868858Y-124793143D01*
X216821239Y-124840762D01*
X216726001Y-124888381D01*
X216630762Y-124888381D01*
X216535524Y-124840762D01*
X216487905Y-124793143D01*
X216440286Y-124697905D01*
X216392667Y-124507429D01*
X216392667Y-124269333D01*
X216440286Y-124078857D01*
X216487905Y-123983619D01*
X216535524Y-123936000D01*
X216630762Y-123888381D01*
X218393095Y-127047381D02*
X218393095Y-126047381D01*
X218964524Y-127047381D02*
X218535952Y-126475952D01*
X218964524Y-126047381D02*
X218393095Y-126618810D01*
X68011905Y-94602381D02*
X68011905Y-93602381D01*
X68392858Y-93602381D01*
X68488096Y-93650000D01*
X68535715Y-93697619D01*
X68583334Y-93792857D01*
X68583334Y-93935714D01*
X68535715Y-94030952D01*
X68488096Y-94078571D01*
X68392858Y-94126190D01*
X68011905Y-94126190D01*
X69535715Y-94602381D02*
X68964286Y-94602381D01*
X69250000Y-94602381D02*
X69250000Y-93602381D01*
X69154762Y-93745238D01*
X69059524Y-93840476D01*
X68964286Y-93888095D01*
X75614762Y-142834819D02*
X75519524Y-142787200D01*
X75424286Y-142691962D01*
X75281429Y-142549105D01*
X75186190Y-142501486D01*
X75090952Y-142501486D01*
X75138571Y-142739581D02*
X75043333Y-142691962D01*
X74948095Y-142596724D01*
X74900476Y-142406248D01*
X74900476Y-142072914D01*
X74948095Y-141882438D01*
X75043333Y-141787200D01*
X75138571Y-141739581D01*
X75329048Y-141739581D01*
X75424286Y-141787200D01*
X75519524Y-141882438D01*
X75567143Y-142072914D01*
X75567143Y-142406248D01*
X75519524Y-142596724D01*
X75424286Y-142691962D01*
X75329048Y-142739581D01*
X75138571Y-142739581D01*
X76519524Y-142739581D02*
X75948095Y-142739581D01*
X76233809Y-142739581D02*
X76233809Y-141739581D01*
X76138571Y-141882438D01*
X76043333Y-141977676D01*
X75948095Y-142025295D01*
X92999414Y-42502501D02*
X92666080Y-42026310D01*
X92427985Y-42502501D02*
X92427985Y-41502501D01*
X92808938Y-41502501D01*
X92904176Y-41550120D01*
X92951795Y-41597739D01*
X92999414Y-41692977D01*
X92999414Y-41835834D01*
X92951795Y-41931072D01*
X92904176Y-41978691D01*
X92808938Y-42026310D01*
X92427985Y-42026310D01*
X93951795Y-42502501D02*
X93380366Y-42502501D01*
X93666080Y-42502501D02*
X93666080Y-41502501D01*
X93570842Y-41645358D01*
X93475604Y-41740596D01*
X93380366Y-41788215D01*
X92999414Y-52499723D02*
X92666080Y-52023532D01*
X92427985Y-52499723D02*
X92427985Y-51499723D01*
X92808938Y-51499723D01*
X92904176Y-51547342D01*
X92951795Y-51594961D01*
X92999414Y-51690199D01*
X92999414Y-51833056D01*
X92951795Y-51928294D01*
X92904176Y-51975913D01*
X92808938Y-52023532D01*
X92427985Y-52023532D01*
X93380366Y-51594961D02*
X93427985Y-51547342D01*
X93523223Y-51499723D01*
X93761319Y-51499723D01*
X93856557Y-51547342D01*
X93904176Y-51594961D01*
X93951795Y-51690199D01*
X93951795Y-51785437D01*
X93904176Y-51928294D01*
X93332747Y-52499723D01*
X93951795Y-52499723D01*
X92999414Y-62496945D02*
X92666080Y-62020754D01*
X92427985Y-62496945D02*
X92427985Y-61496945D01*
X92808938Y-61496945D01*
X92904176Y-61544564D01*
X92951795Y-61592183D01*
X92999414Y-61687421D01*
X92999414Y-61830278D01*
X92951795Y-61925516D01*
X92904176Y-61973135D01*
X92808938Y-62020754D01*
X92427985Y-62020754D01*
X93332747Y-61496945D02*
X93951795Y-61496945D01*
X93618461Y-61877897D01*
X93761319Y-61877897D01*
X93856557Y-61925516D01*
X93904176Y-61973135D01*
X93951795Y-62068374D01*
X93951795Y-62306469D01*
X93904176Y-62401707D01*
X93856557Y-62449326D01*
X93761319Y-62496945D01*
X93475604Y-62496945D01*
X93380366Y-62449326D01*
X93332747Y-62401707D01*
X92999414Y-72494167D02*
X92666080Y-72017976D01*
X92427985Y-72494167D02*
X92427985Y-71494167D01*
X92808938Y-71494167D01*
X92904176Y-71541786D01*
X92951795Y-71589405D01*
X92999414Y-71684643D01*
X92999414Y-71827500D01*
X92951795Y-71922738D01*
X92904176Y-71970357D01*
X92808938Y-72017976D01*
X92427985Y-72017976D01*
X93856557Y-71827500D02*
X93856557Y-72494167D01*
X93618461Y-71446548D02*
X93380366Y-72160834D01*
X93999414Y-72160834D01*
X92999414Y-82491389D02*
X92666080Y-82015198D01*
X92427985Y-82491389D02*
X92427985Y-81491389D01*
X92808938Y-81491389D01*
X92904176Y-81539008D01*
X92951795Y-81586627D01*
X92999414Y-81681865D01*
X92999414Y-81824722D01*
X92951795Y-81919960D01*
X92904176Y-81967579D01*
X92808938Y-82015198D01*
X92427985Y-82015198D01*
X93904176Y-81491389D02*
X93427985Y-81491389D01*
X93380366Y-81967579D01*
X93427985Y-81919960D01*
X93523223Y-81872341D01*
X93761319Y-81872341D01*
X93856557Y-81919960D01*
X93904176Y-81967579D01*
X93951795Y-82062818D01*
X93951795Y-82300913D01*
X93904176Y-82396151D01*
X93856557Y-82443770D01*
X93761319Y-82491389D01*
X93523223Y-82491389D01*
X93427985Y-82443770D01*
X93380366Y-82396151D01*
X92999414Y-92488611D02*
X92666080Y-92012420D01*
X92427985Y-92488611D02*
X92427985Y-91488611D01*
X92808938Y-91488611D01*
X92904176Y-91536230D01*
X92951795Y-91583849D01*
X92999414Y-91679087D01*
X92999414Y-91821944D01*
X92951795Y-91917182D01*
X92904176Y-91964801D01*
X92808938Y-92012420D01*
X92427985Y-92012420D01*
X93856557Y-91488611D02*
X93666080Y-91488611D01*
X93570842Y-91536230D01*
X93523223Y-91583849D01*
X93427985Y-91726706D01*
X93380366Y-91917182D01*
X93380366Y-92298135D01*
X93427985Y-92393373D01*
X93475604Y-92440992D01*
X93570842Y-92488611D01*
X93761319Y-92488611D01*
X93856557Y-92440992D01*
X93904176Y-92393373D01*
X93951795Y-92298135D01*
X93951795Y-92060040D01*
X93904176Y-91964801D01*
X93856557Y-91917182D01*
X93761319Y-91869563D01*
X93570842Y-91869563D01*
X93475604Y-91917182D01*
X93427985Y-91964801D01*
X93380366Y-92060040D01*
X92999414Y-102485833D02*
X92666080Y-102009642D01*
X92427985Y-102485833D02*
X92427985Y-101485833D01*
X92808938Y-101485833D01*
X92904176Y-101533452D01*
X92951795Y-101581071D01*
X92999414Y-101676309D01*
X92999414Y-101819166D01*
X92951795Y-101914404D01*
X92904176Y-101962023D01*
X92808938Y-102009642D01*
X92427985Y-102009642D01*
X93332747Y-101485833D02*
X93999414Y-101485833D01*
X93570842Y-102485833D01*
X92999414Y-112483055D02*
X92666080Y-112006864D01*
X92427985Y-112483055D02*
X92427985Y-111483055D01*
X92808938Y-111483055D01*
X92904176Y-111530674D01*
X92951795Y-111578293D01*
X92999414Y-111673531D01*
X92999414Y-111816388D01*
X92951795Y-111911626D01*
X92904176Y-111959245D01*
X92808938Y-112006864D01*
X92427985Y-112006864D01*
X93570842Y-111911626D02*
X93475604Y-111864007D01*
X93427985Y-111816388D01*
X93380366Y-111721150D01*
X93380366Y-111673531D01*
X93427985Y-111578293D01*
X93475604Y-111530674D01*
X93570842Y-111483055D01*
X93761319Y-111483055D01*
X93856557Y-111530674D01*
X93904176Y-111578293D01*
X93951795Y-111673531D01*
X93951795Y-111721150D01*
X93904176Y-111816388D01*
X93856557Y-111864007D01*
X93761319Y-111911626D01*
X93570842Y-111911626D01*
X93475604Y-111959245D01*
X93427985Y-112006864D01*
X93380366Y-112102103D01*
X93380366Y-112292579D01*
X93427985Y-112387817D01*
X93475604Y-112435436D01*
X93570842Y-112483055D01*
X93761319Y-112483055D01*
X93856557Y-112435436D01*
X93904176Y-112387817D01*
X93951795Y-112292579D01*
X93951795Y-112102103D01*
X93904176Y-112006864D01*
X93856557Y-111959245D01*
X93761319Y-111911626D01*
X92999414Y-122480277D02*
X92666080Y-122004086D01*
X92427985Y-122480277D02*
X92427985Y-121480277D01*
X92808938Y-121480277D01*
X92904176Y-121527896D01*
X92951795Y-121575515D01*
X92999414Y-121670753D01*
X92999414Y-121813610D01*
X92951795Y-121908848D01*
X92904176Y-121956467D01*
X92808938Y-122004086D01*
X92427985Y-122004086D01*
X93475604Y-122480277D02*
X93666080Y-122480277D01*
X93761319Y-122432658D01*
X93808938Y-122385039D01*
X93904176Y-122242182D01*
X93951795Y-122051706D01*
X93951795Y-121670753D01*
X93904176Y-121575515D01*
X93856557Y-121527896D01*
X93761319Y-121480277D01*
X93570842Y-121480277D01*
X93475604Y-121527896D01*
X93427985Y-121575515D01*
X93380366Y-121670753D01*
X93380366Y-121908848D01*
X93427985Y-122004086D01*
X93475604Y-122051706D01*
X93570842Y-122099325D01*
X93761319Y-122099325D01*
X93856557Y-122051706D01*
X93904176Y-122004086D01*
X93951795Y-121908848D01*
X92523223Y-132477499D02*
X92189889Y-132001308D01*
X91951794Y-132477499D02*
X91951794Y-131477499D01*
X92332747Y-131477499D01*
X92427985Y-131525118D01*
X92475604Y-131572737D01*
X92523223Y-131667975D01*
X92523223Y-131810832D01*
X92475604Y-131906070D01*
X92427985Y-131953689D01*
X92332747Y-132001308D01*
X91951794Y-132001308D01*
X93475604Y-132477499D02*
X92904175Y-132477499D01*
X93189889Y-132477499D02*
X93189889Y-131477499D01*
X93094651Y-131620356D01*
X92999413Y-131715594D01*
X92904175Y-131763213D01*
X94094651Y-131477499D02*
X94189890Y-131477499D01*
X94285128Y-131525118D01*
X94332747Y-131572737D01*
X94380366Y-131667975D01*
X94427985Y-131858451D01*
X94427985Y-132096547D01*
X94380366Y-132287023D01*
X94332747Y-132382261D01*
X94285128Y-132429880D01*
X94189890Y-132477499D01*
X94094651Y-132477499D01*
X93999413Y-132429880D01*
X93951794Y-132382261D01*
X93904175Y-132287023D01*
X93856556Y-132096547D01*
X93856556Y-131858451D01*
X93904175Y-131667975D01*
X93951794Y-131572737D01*
X93999413Y-131525118D01*
X94094651Y-131477499D01*
X108623223Y-42527501D02*
X108289889Y-42051310D01*
X108051794Y-42527501D02*
X108051794Y-41527501D01*
X108432747Y-41527501D01*
X108527985Y-41575120D01*
X108575604Y-41622739D01*
X108623223Y-41717977D01*
X108623223Y-41860834D01*
X108575604Y-41956072D01*
X108527985Y-42003691D01*
X108432747Y-42051310D01*
X108051794Y-42051310D01*
X109575604Y-42527501D02*
X109004175Y-42527501D01*
X109289889Y-42527501D02*
X109289889Y-41527501D01*
X109194651Y-41670358D01*
X109099413Y-41765596D01*
X109004175Y-41813215D01*
X110527985Y-42527501D02*
X109956556Y-42527501D01*
X110242270Y-42527501D02*
X110242270Y-41527501D01*
X110147032Y-41670358D01*
X110051794Y-41765596D01*
X109956556Y-41813215D01*
X108623223Y-52524723D02*
X108289889Y-52048532D01*
X108051794Y-52524723D02*
X108051794Y-51524723D01*
X108432747Y-51524723D01*
X108527985Y-51572342D01*
X108575604Y-51619961D01*
X108623223Y-51715199D01*
X108623223Y-51858056D01*
X108575604Y-51953294D01*
X108527985Y-52000913D01*
X108432747Y-52048532D01*
X108051794Y-52048532D01*
X109575604Y-52524723D02*
X109004175Y-52524723D01*
X109289889Y-52524723D02*
X109289889Y-51524723D01*
X109194651Y-51667580D01*
X109099413Y-51762818D01*
X109004175Y-51810437D01*
X109956556Y-51619961D02*
X110004175Y-51572342D01*
X110099413Y-51524723D01*
X110337509Y-51524723D01*
X110432747Y-51572342D01*
X110480366Y-51619961D01*
X110527985Y-51715199D01*
X110527985Y-51810437D01*
X110480366Y-51953294D01*
X109908937Y-52524723D01*
X110527985Y-52524723D01*
X108623223Y-62521945D02*
X108289889Y-62045754D01*
X108051794Y-62521945D02*
X108051794Y-61521945D01*
X108432747Y-61521945D01*
X108527985Y-61569564D01*
X108575604Y-61617183D01*
X108623223Y-61712421D01*
X108623223Y-61855278D01*
X108575604Y-61950516D01*
X108527985Y-61998135D01*
X108432747Y-62045754D01*
X108051794Y-62045754D01*
X109575604Y-62521945D02*
X109004175Y-62521945D01*
X109289889Y-62521945D02*
X109289889Y-61521945D01*
X109194651Y-61664802D01*
X109099413Y-61760040D01*
X109004175Y-61807659D01*
X109908937Y-61521945D02*
X110527985Y-61521945D01*
X110194651Y-61902897D01*
X110337509Y-61902897D01*
X110432747Y-61950516D01*
X110480366Y-61998135D01*
X110527985Y-62093374D01*
X110527985Y-62331469D01*
X110480366Y-62426707D01*
X110432747Y-62474326D01*
X110337509Y-62521945D01*
X110051794Y-62521945D01*
X109956556Y-62474326D01*
X109908937Y-62426707D01*
X108623223Y-72519167D02*
X108289889Y-72042976D01*
X108051794Y-72519167D02*
X108051794Y-71519167D01*
X108432747Y-71519167D01*
X108527985Y-71566786D01*
X108575604Y-71614405D01*
X108623223Y-71709643D01*
X108623223Y-71852500D01*
X108575604Y-71947738D01*
X108527985Y-71995357D01*
X108432747Y-72042976D01*
X108051794Y-72042976D01*
X109575604Y-72519167D02*
X109004175Y-72519167D01*
X109289889Y-72519167D02*
X109289889Y-71519167D01*
X109194651Y-71662024D01*
X109099413Y-71757262D01*
X109004175Y-71804881D01*
X110432747Y-71852500D02*
X110432747Y-72519167D01*
X110194651Y-71471548D02*
X109956556Y-72185834D01*
X110575604Y-72185834D01*
X108623223Y-82516389D02*
X108289889Y-82040198D01*
X108051794Y-82516389D02*
X108051794Y-81516389D01*
X108432747Y-81516389D01*
X108527985Y-81564008D01*
X108575604Y-81611627D01*
X108623223Y-81706865D01*
X108623223Y-81849722D01*
X108575604Y-81944960D01*
X108527985Y-81992579D01*
X108432747Y-82040198D01*
X108051794Y-82040198D01*
X109575604Y-82516389D02*
X109004175Y-82516389D01*
X109289889Y-82516389D02*
X109289889Y-81516389D01*
X109194651Y-81659246D01*
X109099413Y-81754484D01*
X109004175Y-81802103D01*
X110480366Y-81516389D02*
X110004175Y-81516389D01*
X109956556Y-81992579D01*
X110004175Y-81944960D01*
X110099413Y-81897341D01*
X110337509Y-81897341D01*
X110432747Y-81944960D01*
X110480366Y-81992579D01*
X110527985Y-82087818D01*
X110527985Y-82325913D01*
X110480366Y-82421151D01*
X110432747Y-82468770D01*
X110337509Y-82516389D01*
X110099413Y-82516389D01*
X110004175Y-82468770D01*
X109956556Y-82421151D01*
X108623223Y-92513611D02*
X108289889Y-92037420D01*
X108051794Y-92513611D02*
X108051794Y-91513611D01*
X108432747Y-91513611D01*
X108527985Y-91561230D01*
X108575604Y-91608849D01*
X108623223Y-91704087D01*
X108623223Y-91846944D01*
X108575604Y-91942182D01*
X108527985Y-91989801D01*
X108432747Y-92037420D01*
X108051794Y-92037420D01*
X109575604Y-92513611D02*
X109004175Y-92513611D01*
X109289889Y-92513611D02*
X109289889Y-91513611D01*
X109194651Y-91656468D01*
X109099413Y-91751706D01*
X109004175Y-91799325D01*
X110432747Y-91513611D02*
X110242270Y-91513611D01*
X110147032Y-91561230D01*
X110099413Y-91608849D01*
X110004175Y-91751706D01*
X109956556Y-91942182D01*
X109956556Y-92323135D01*
X110004175Y-92418373D01*
X110051794Y-92465992D01*
X110147032Y-92513611D01*
X110337509Y-92513611D01*
X110432747Y-92465992D01*
X110480366Y-92418373D01*
X110527985Y-92323135D01*
X110527985Y-92085040D01*
X110480366Y-91989801D01*
X110432747Y-91942182D01*
X110337509Y-91894563D01*
X110147032Y-91894563D01*
X110051794Y-91942182D01*
X110004175Y-91989801D01*
X109956556Y-92085040D01*
X108623223Y-102510833D02*
X108289889Y-102034642D01*
X108051794Y-102510833D02*
X108051794Y-101510833D01*
X108432747Y-101510833D01*
X108527985Y-101558452D01*
X108575604Y-101606071D01*
X108623223Y-101701309D01*
X108623223Y-101844166D01*
X108575604Y-101939404D01*
X108527985Y-101987023D01*
X108432747Y-102034642D01*
X108051794Y-102034642D01*
X109575604Y-102510833D02*
X109004175Y-102510833D01*
X109289889Y-102510833D02*
X109289889Y-101510833D01*
X109194651Y-101653690D01*
X109099413Y-101748928D01*
X109004175Y-101796547D01*
X109908937Y-101510833D02*
X110575604Y-101510833D01*
X110147032Y-102510833D01*
X108623223Y-112508055D02*
X108289889Y-112031864D01*
X108051794Y-112508055D02*
X108051794Y-111508055D01*
X108432747Y-111508055D01*
X108527985Y-111555674D01*
X108575604Y-111603293D01*
X108623223Y-111698531D01*
X108623223Y-111841388D01*
X108575604Y-111936626D01*
X108527985Y-111984245D01*
X108432747Y-112031864D01*
X108051794Y-112031864D01*
X109575604Y-112508055D02*
X109004175Y-112508055D01*
X109289889Y-112508055D02*
X109289889Y-111508055D01*
X109194651Y-111650912D01*
X109099413Y-111746150D01*
X109004175Y-111793769D01*
X110147032Y-111936626D02*
X110051794Y-111889007D01*
X110004175Y-111841388D01*
X109956556Y-111746150D01*
X109956556Y-111698531D01*
X110004175Y-111603293D01*
X110051794Y-111555674D01*
X110147032Y-111508055D01*
X110337509Y-111508055D01*
X110432747Y-111555674D01*
X110480366Y-111603293D01*
X110527985Y-111698531D01*
X110527985Y-111746150D01*
X110480366Y-111841388D01*
X110432747Y-111889007D01*
X110337509Y-111936626D01*
X110147032Y-111936626D01*
X110051794Y-111984245D01*
X110004175Y-112031864D01*
X109956556Y-112127103D01*
X109956556Y-112317579D01*
X110004175Y-112412817D01*
X110051794Y-112460436D01*
X110147032Y-112508055D01*
X110337509Y-112508055D01*
X110432747Y-112460436D01*
X110480366Y-112412817D01*
X110527985Y-112317579D01*
X110527985Y-112127103D01*
X110480366Y-112031864D01*
X110432747Y-111984245D01*
X110337509Y-111936626D01*
X108623223Y-122505277D02*
X108289889Y-122029086D01*
X108051794Y-122505277D02*
X108051794Y-121505277D01*
X108432747Y-121505277D01*
X108527985Y-121552896D01*
X108575604Y-121600515D01*
X108623223Y-121695753D01*
X108623223Y-121838610D01*
X108575604Y-121933848D01*
X108527985Y-121981467D01*
X108432747Y-122029086D01*
X108051794Y-122029086D01*
X109575604Y-122505277D02*
X109004175Y-122505277D01*
X109289889Y-122505277D02*
X109289889Y-121505277D01*
X109194651Y-121648134D01*
X109099413Y-121743372D01*
X109004175Y-121790991D01*
X110051794Y-122505277D02*
X110242270Y-122505277D01*
X110337509Y-122457658D01*
X110385128Y-122410039D01*
X110480366Y-122267182D01*
X110527985Y-122076706D01*
X110527985Y-121695753D01*
X110480366Y-121600515D01*
X110432747Y-121552896D01*
X110337509Y-121505277D01*
X110147032Y-121505277D01*
X110051794Y-121552896D01*
X110004175Y-121600515D01*
X109956556Y-121695753D01*
X109956556Y-121933848D01*
X110004175Y-122029086D01*
X110051794Y-122076706D01*
X110147032Y-122124325D01*
X110337509Y-122124325D01*
X110432747Y-122076706D01*
X110480366Y-122029086D01*
X110527985Y-121933848D01*
X108623223Y-132502499D02*
X108289889Y-132026308D01*
X108051794Y-132502499D02*
X108051794Y-131502499D01*
X108432747Y-131502499D01*
X108527985Y-131550118D01*
X108575604Y-131597737D01*
X108623223Y-131692975D01*
X108623223Y-131835832D01*
X108575604Y-131931070D01*
X108527985Y-131978689D01*
X108432747Y-132026308D01*
X108051794Y-132026308D01*
X109004175Y-131597737D02*
X109051794Y-131550118D01*
X109147032Y-131502499D01*
X109385128Y-131502499D01*
X109480366Y-131550118D01*
X109527985Y-131597737D01*
X109575604Y-131692975D01*
X109575604Y-131788213D01*
X109527985Y-131931070D01*
X108956556Y-132502499D01*
X109575604Y-132502499D01*
X110194651Y-131502499D02*
X110289890Y-131502499D01*
X110385128Y-131550118D01*
X110432747Y-131597737D01*
X110480366Y-131692975D01*
X110527985Y-131883451D01*
X110527985Y-132121547D01*
X110480366Y-132312023D01*
X110432747Y-132407261D01*
X110385128Y-132454880D01*
X110289890Y-132502499D01*
X110194651Y-132502499D01*
X110099413Y-132454880D01*
X110051794Y-132407261D01*
X110004175Y-132312023D01*
X109956556Y-132121547D01*
X109956556Y-131883451D01*
X110004175Y-131692975D01*
X110051794Y-131597737D01*
X110099413Y-131550118D01*
X110194651Y-131502499D01*
X75452261Y-103333937D02*
X74976070Y-103667271D01*
X75452261Y-103905366D02*
X74452261Y-103905366D01*
X74452261Y-103524413D01*
X74499880Y-103429175D01*
X74547499Y-103381556D01*
X74642737Y-103333937D01*
X74785594Y-103333937D01*
X74880832Y-103381556D01*
X74928451Y-103429175D01*
X74976070Y-103524413D01*
X74976070Y-103905366D01*
X74547499Y-102952985D02*
X74499880Y-102905366D01*
X74452261Y-102810128D01*
X74452261Y-102572032D01*
X74499880Y-102476794D01*
X74547499Y-102429175D01*
X74642737Y-102381556D01*
X74737975Y-102381556D01*
X74880832Y-102429175D01*
X75452261Y-103000604D01*
X75452261Y-102381556D01*
X75452261Y-101429175D02*
X75452261Y-102000604D01*
X75452261Y-101714890D02*
X74452261Y-101714890D01*
X74595118Y-101810128D01*
X74690356Y-101905366D01*
X74737975Y-102000604D01*
X80577381Y-116747857D02*
X80101190Y-117081191D01*
X80577381Y-117319286D02*
X79577381Y-117319286D01*
X79577381Y-116938333D01*
X79625000Y-116843095D01*
X79672619Y-116795476D01*
X79767857Y-116747857D01*
X79910714Y-116747857D01*
X80005952Y-116795476D01*
X80053571Y-116843095D01*
X80101190Y-116938333D01*
X80101190Y-117319286D01*
X79672619Y-116366905D02*
X79625000Y-116319286D01*
X79577381Y-116224048D01*
X79577381Y-115985952D01*
X79625000Y-115890714D01*
X79672619Y-115843095D01*
X79767857Y-115795476D01*
X79863095Y-115795476D01*
X80005952Y-115843095D01*
X80577381Y-116414524D01*
X80577381Y-115795476D01*
X79672619Y-115414524D02*
X79625000Y-115366905D01*
X79577381Y-115271667D01*
X79577381Y-115033571D01*
X79625000Y-114938333D01*
X79672619Y-114890714D01*
X79767857Y-114843095D01*
X79863095Y-114843095D01*
X80005952Y-114890714D01*
X80577381Y-115462143D01*
X80577381Y-114843095D01*
X71477381Y-116887857D02*
X71001190Y-117221191D01*
X71477381Y-117459286D02*
X70477381Y-117459286D01*
X70477381Y-117078333D01*
X70525000Y-116983095D01*
X70572619Y-116935476D01*
X70667857Y-116887857D01*
X70810714Y-116887857D01*
X70905952Y-116935476D01*
X70953571Y-116983095D01*
X71001190Y-117078333D01*
X71001190Y-117459286D01*
X70572619Y-116506905D02*
X70525000Y-116459286D01*
X70477381Y-116364048D01*
X70477381Y-116125952D01*
X70525000Y-116030714D01*
X70572619Y-115983095D01*
X70667857Y-115935476D01*
X70763095Y-115935476D01*
X70905952Y-115983095D01*
X71477381Y-116554524D01*
X71477381Y-115935476D01*
X70477381Y-115602143D02*
X70477381Y-114983095D01*
X70858333Y-115316429D01*
X70858333Y-115173571D01*
X70905952Y-115078333D01*
X70953571Y-115030714D01*
X71048810Y-114983095D01*
X71286905Y-114983095D01*
X71382143Y-115030714D01*
X71429762Y-115078333D01*
X71477381Y-115173571D01*
X71477381Y-115459286D01*
X71429762Y-115554524D01*
X71382143Y-115602143D01*
X67916667Y-77904762D02*
X68059524Y-77952381D01*
X68297620Y-77952381D01*
X68392858Y-77904762D01*
X68440477Y-77857143D01*
X68488096Y-77761905D01*
X68488096Y-77666667D01*
X68440477Y-77571429D01*
X68392858Y-77523810D01*
X68297620Y-77476190D01*
X68107143Y-77428571D01*
X68011905Y-77380952D01*
X67964286Y-77333333D01*
X67916667Y-77238095D01*
X67916667Y-77142857D01*
X67964286Y-77047619D01*
X68011905Y-77000000D01*
X68107143Y-76952381D01*
X68345239Y-76952381D01*
X68488096Y-77000000D01*
X68821429Y-76952381D02*
X69059524Y-77952381D01*
X69250001Y-77238095D01*
X69440477Y-77952381D01*
X69678572Y-76952381D01*
X70583334Y-77952381D02*
X70011905Y-77952381D01*
X70297619Y-77952381D02*
X70297619Y-76952381D01*
X70202381Y-77095238D01*
X70107143Y-77190476D01*
X70011905Y-77238095D01*
X121436667Y-27742381D02*
X121103333Y-27266190D01*
X120865238Y-27742381D02*
X120865238Y-26742381D01*
X121246191Y-26742381D01*
X121341429Y-26790000D01*
X121389048Y-26837619D01*
X121436667Y-26932857D01*
X121436667Y-27075714D01*
X121389048Y-27170952D01*
X121341429Y-27218571D01*
X121246191Y-27266190D01*
X120865238Y-27266190D01*
X121865238Y-27218571D02*
X122198572Y-27218571D01*
X122341429Y-27742381D02*
X121865238Y-27742381D01*
X121865238Y-26742381D01*
X122341429Y-26742381D01*
X123103334Y-27218571D02*
X122770000Y-27218571D01*
X122770000Y-27742381D02*
X122770000Y-26742381D01*
X123246191Y-26742381D01*
X123770000Y-26742381D02*
X123770000Y-26980476D01*
X123531905Y-26885238D02*
X123770000Y-26980476D01*
X124008096Y-26885238D01*
X123627143Y-27170952D02*
X123770000Y-26980476D01*
X123912858Y-27170952D01*
X124531905Y-26742381D02*
X124531905Y-26980476D01*
X124293810Y-26885238D02*
X124531905Y-26980476D01*
X124770001Y-26885238D01*
X124389048Y-27170952D02*
X124531905Y-26980476D01*
X124674763Y-27170952D01*
M02*
