G04 #@! TF.FileFunction,Other,User*
%FSLAX46Y46*%
G04 Gerber Fmt 4.6, Leading zero omitted, Abs format (unit mm)*
G04 Created by KiCad (PCBNEW 4.0.2-stable) date Monday, 06 March 2017 12:37:51*
%MOMM*%
G01*
G04 APERTURE LIST*
%ADD10C,0.100000*%
%ADD11C,0.050000*%
G04 APERTURE END LIST*
D10*
D11*
X119660000Y-139110000D02*
G75*
G03X119660000Y-139110000I-4550000J0D01*
G01*
X231130000Y-139110000D02*
G75*
G03X231130000Y-139110000I-4550000J0D01*
G01*
X231030000Y-28070000D02*
G75*
G03X231030000Y-28070000I-4550000J0D01*
G01*
X128250000Y-40050000D02*
X128250000Y-36950000D01*
X128248249Y-40053160D02*
G75*
G02X128250000Y-36950000I-2798249J1553160D01*
G01*
X138250000Y-40050000D02*
X138250000Y-36950000D01*
X138248249Y-40053160D02*
G75*
G02X138250000Y-36950000I-2798249J1553160D01*
G01*
X148250000Y-40050000D02*
X148250000Y-36950000D01*
X148248249Y-40053160D02*
G75*
G02X148250000Y-36950000I-2798249J1553160D01*
G01*
X158290000Y-40050000D02*
X158290000Y-36950000D01*
X158288249Y-40053160D02*
G75*
G02X158290000Y-36950000I-2798249J1553160D01*
G01*
X168250000Y-40050000D02*
X168250000Y-36950000D01*
X168248249Y-40053160D02*
G75*
G02X168250000Y-36950000I-2798249J1553160D01*
G01*
X128250000Y-50050000D02*
X128250000Y-46950000D01*
X128248249Y-50053160D02*
G75*
G02X128250000Y-46950000I-2798249J1553160D01*
G01*
X138250000Y-50050000D02*
X138250000Y-46950000D01*
X138248249Y-50053160D02*
G75*
G02X138250000Y-46950000I-2798249J1553160D01*
G01*
X148250000Y-50050000D02*
X148250000Y-46950000D01*
X148248249Y-50053160D02*
G75*
G02X148250000Y-46950000I-2798249J1553160D01*
G01*
X158290000Y-50050000D02*
X158290000Y-46950000D01*
X158288249Y-50053160D02*
G75*
G02X158290000Y-46950000I-2798249J1553160D01*
G01*
X168250000Y-50050000D02*
X168250000Y-46950000D01*
X168248249Y-50053160D02*
G75*
G02X168250000Y-46950000I-2798249J1553160D01*
G01*
X128290000Y-60050000D02*
X128290000Y-56950000D01*
X128288249Y-60053160D02*
G75*
G02X128290000Y-56950000I-2798249J1553160D01*
G01*
X138250000Y-60050000D02*
X138250000Y-56950000D01*
X138248249Y-60053160D02*
G75*
G02X138250000Y-56950000I-2798249J1553160D01*
G01*
X148250000Y-60050000D02*
X148250000Y-56950000D01*
X148248249Y-60053160D02*
G75*
G02X148250000Y-56950000I-2798249J1553160D01*
G01*
X158250000Y-60050000D02*
X158250000Y-56950000D01*
X158248249Y-60053160D02*
G75*
G02X158250000Y-56950000I-2798249J1553160D01*
G01*
X168250000Y-60050000D02*
X168250000Y-56950000D01*
X168248249Y-60053160D02*
G75*
G02X168250000Y-56950000I-2798249J1553160D01*
G01*
X128250000Y-70050000D02*
X128250000Y-66950000D01*
X128248249Y-70053160D02*
G75*
G02X128250000Y-66950000I-2798249J1553160D01*
G01*
X138250000Y-70050000D02*
X138250000Y-66950000D01*
X138248249Y-70053160D02*
G75*
G02X138250000Y-66950000I-2798249J1553160D01*
G01*
X148250000Y-70050000D02*
X148250000Y-66950000D01*
X148248249Y-70053160D02*
G75*
G02X148250000Y-66950000I-2798249J1553160D01*
G01*
X158250000Y-70050000D02*
X158250000Y-66950000D01*
X158248249Y-70053160D02*
G75*
G02X158250000Y-66950000I-2798249J1553160D01*
G01*
X168250000Y-70050000D02*
X168250000Y-66950000D01*
X168248249Y-70053160D02*
G75*
G02X168250000Y-66950000I-2798249J1553160D01*
G01*
X128290000Y-80050000D02*
X128290000Y-76950000D01*
X128288249Y-80053160D02*
G75*
G02X128290000Y-76950000I-2798249J1553160D01*
G01*
X138250000Y-80050000D02*
X138250000Y-76950000D01*
X138248249Y-80053160D02*
G75*
G02X138250000Y-76950000I-2798249J1553160D01*
G01*
X148250000Y-80050000D02*
X148250000Y-76950000D01*
X148248249Y-80053160D02*
G75*
G02X148250000Y-76950000I-2798249J1553160D01*
G01*
X158250000Y-80050000D02*
X158250000Y-76950000D01*
X158248249Y-80053160D02*
G75*
G02X158250000Y-76950000I-2798249J1553160D01*
G01*
X168290000Y-80050000D02*
X168290000Y-76950000D01*
X168288249Y-80053160D02*
G75*
G02X168290000Y-76950000I-2798249J1553160D01*
G01*
X128250000Y-90050000D02*
X128250000Y-86950000D01*
X128248249Y-90053160D02*
G75*
G02X128250000Y-86950000I-2798249J1553160D01*
G01*
X138290000Y-90050000D02*
X138290000Y-86950000D01*
X138288249Y-90053160D02*
G75*
G02X138290000Y-86950000I-2798249J1553160D01*
G01*
X148290000Y-90050000D02*
X148290000Y-86950000D01*
X148288249Y-90053160D02*
G75*
G02X148290000Y-86950000I-2798249J1553160D01*
G01*
X158290000Y-90050000D02*
X158290000Y-86950000D01*
X158288249Y-90053160D02*
G75*
G02X158290000Y-86950000I-2798249J1553160D01*
G01*
X168290000Y-90050000D02*
X168290000Y-86950000D01*
X168288249Y-90053160D02*
G75*
G02X168290000Y-86950000I-2798249J1553160D01*
G01*
X128290000Y-100050000D02*
X128290000Y-96950000D01*
X128288249Y-100053160D02*
G75*
G02X128290000Y-96950000I-2798249J1553160D01*
G01*
X138290000Y-100050000D02*
X138290000Y-96950000D01*
X138288249Y-100053160D02*
G75*
G02X138290000Y-96950000I-2798249J1553160D01*
G01*
X148290000Y-100050000D02*
X148290000Y-96950000D01*
X148288249Y-100053160D02*
G75*
G02X148290000Y-96950000I-2798249J1553160D01*
G01*
X158290000Y-100050000D02*
X158290000Y-96950000D01*
X158288249Y-100053160D02*
G75*
G02X158290000Y-96950000I-2798249J1553160D01*
G01*
X168290000Y-100050000D02*
X168290000Y-96950000D01*
X168288249Y-100053160D02*
G75*
G02X168290000Y-96950000I-2798249J1553160D01*
G01*
X128290000Y-110050000D02*
X128290000Y-106950000D01*
X128288249Y-110053160D02*
G75*
G02X128290000Y-106950000I-2798249J1553160D01*
G01*
X138290000Y-110050000D02*
X138290000Y-106950000D01*
X138288249Y-110053160D02*
G75*
G02X138290000Y-106950000I-2798249J1553160D01*
G01*
X148290000Y-110050000D02*
X148290000Y-106950000D01*
X148288249Y-110053160D02*
G75*
G02X148290000Y-106950000I-2798249J1553160D01*
G01*
X158290000Y-110050000D02*
X158290000Y-106950000D01*
X158288249Y-110053160D02*
G75*
G02X158290000Y-106950000I-2798249J1553160D01*
G01*
X168290000Y-110050000D02*
X168290000Y-106950000D01*
X168288249Y-110053160D02*
G75*
G02X168290000Y-106950000I-2798249J1553160D01*
G01*
X128290000Y-120050000D02*
X128290000Y-116950000D01*
X128288249Y-120053160D02*
G75*
G02X128290000Y-116950000I-2798249J1553160D01*
G01*
X138290000Y-120050000D02*
X138290000Y-116950000D01*
X138288249Y-120053160D02*
G75*
G02X138290000Y-116950000I-2798249J1553160D01*
G01*
X148290000Y-120050000D02*
X148290000Y-116950000D01*
X148288249Y-120053160D02*
G75*
G02X148290000Y-116950000I-2798249J1553160D01*
G01*
X158290000Y-120050000D02*
X158290000Y-116950000D01*
X158288249Y-120053160D02*
G75*
G02X158290000Y-116950000I-2798249J1553160D01*
G01*
X168290000Y-120050000D02*
X168290000Y-116950000D01*
X168288249Y-120053160D02*
G75*
G02X168290000Y-116950000I-2798249J1553160D01*
G01*
X128290000Y-130050000D02*
X128290000Y-126950000D01*
X128288249Y-130053160D02*
G75*
G02X128290000Y-126950000I-2798249J1553160D01*
G01*
X138290000Y-130050000D02*
X138290000Y-126950000D01*
X138288249Y-130053160D02*
G75*
G02X138290000Y-126950000I-2798249J1553160D01*
G01*
X148290000Y-130050000D02*
X148290000Y-126950000D01*
X148288249Y-130053160D02*
G75*
G02X148290000Y-126950000I-2798249J1553160D01*
G01*
X158290000Y-130050000D02*
X158290000Y-126950000D01*
X158288249Y-130053160D02*
G75*
G02X158290000Y-126950000I-2798249J1553160D01*
G01*
X168290000Y-130050000D02*
X168290000Y-126950000D01*
X168288249Y-130053160D02*
G75*
G02X168290000Y-126950000I-2798249J1553160D01*
G01*
X178290000Y-40050000D02*
X178290000Y-36950000D01*
X178288249Y-40053160D02*
G75*
G02X178290000Y-36950000I-2798249J1553160D01*
G01*
X188250000Y-40050000D02*
X188250000Y-36950000D01*
X188248249Y-40053160D02*
G75*
G02X188250000Y-36950000I-2798249J1553160D01*
G01*
X198290000Y-40050000D02*
X198290000Y-36950000D01*
X198288249Y-40053160D02*
G75*
G02X198290000Y-36950000I-2798249J1553160D01*
G01*
X208290000Y-40050000D02*
X208290000Y-36950000D01*
X208288249Y-40053160D02*
G75*
G02X208290000Y-36950000I-2798249J1553160D01*
G01*
X218250000Y-40050000D02*
X218250000Y-36950000D01*
X218248249Y-40053160D02*
G75*
G02X218250000Y-36950000I-2798249J1553160D01*
G01*
X178290000Y-50050000D02*
X178290000Y-46950000D01*
X178288249Y-50053160D02*
G75*
G02X178290000Y-46950000I-2798249J1553160D01*
G01*
X188250000Y-50050000D02*
X188250000Y-46950000D01*
X188248249Y-50053160D02*
G75*
G02X188250000Y-46950000I-2798249J1553160D01*
G01*
X198250000Y-50050000D02*
X198250000Y-46950000D01*
X198248249Y-50053160D02*
G75*
G02X198250000Y-46950000I-2798249J1553160D01*
G01*
X208250000Y-50050000D02*
X208250000Y-46950000D01*
X208248249Y-50053160D02*
G75*
G02X208250000Y-46950000I-2798249J1553160D01*
G01*
X218250000Y-50050000D02*
X218250000Y-46950000D01*
X218248249Y-50053160D02*
G75*
G02X218250000Y-46950000I-2798249J1553160D01*
G01*
X178250000Y-60050000D02*
X178250000Y-56950000D01*
X178248249Y-60053160D02*
G75*
G02X178250000Y-56950000I-2798249J1553160D01*
G01*
X188250000Y-60050000D02*
X188250000Y-56950000D01*
X188248249Y-60053160D02*
G75*
G02X188250000Y-56950000I-2798249J1553160D01*
G01*
X198250000Y-60050000D02*
X198250000Y-56950000D01*
X198248249Y-60053160D02*
G75*
G02X198250000Y-56950000I-2798249J1553160D01*
G01*
X208250000Y-60050000D02*
X208250000Y-56950000D01*
X208248249Y-60053160D02*
G75*
G02X208250000Y-56950000I-2798249J1553160D01*
G01*
X218250000Y-60050000D02*
X218250000Y-56950000D01*
X218248249Y-60053160D02*
G75*
G02X218250000Y-56950000I-2798249J1553160D01*
G01*
X178250000Y-70050000D02*
X178250000Y-66950000D01*
X178248249Y-70053160D02*
G75*
G02X178250000Y-66950000I-2798249J1553160D01*
G01*
X188250000Y-70050000D02*
X188250000Y-66950000D01*
X188248249Y-70053160D02*
G75*
G02X188250000Y-66950000I-2798249J1553160D01*
G01*
X198290000Y-70050000D02*
X198290000Y-66950000D01*
X198288249Y-70053160D02*
G75*
G02X198290000Y-66950000I-2798249J1553160D01*
G01*
X208250000Y-70050000D02*
X208250000Y-66950000D01*
X208248249Y-70053160D02*
G75*
G02X208250000Y-66950000I-2798249J1553160D01*
G01*
X218250000Y-70050000D02*
X218250000Y-66950000D01*
X218248249Y-70053160D02*
G75*
G02X218250000Y-66950000I-2798249J1553160D01*
G01*
X178290000Y-80050000D02*
X178290000Y-76950000D01*
X178288249Y-80053160D02*
G75*
G02X178290000Y-76950000I-2798249J1553160D01*
G01*
X188250000Y-80050000D02*
X188250000Y-76950000D01*
X188248249Y-80053160D02*
G75*
G02X188250000Y-76950000I-2798249J1553160D01*
G01*
X198290000Y-80050000D02*
X198290000Y-76950000D01*
X198288249Y-80053160D02*
G75*
G02X198290000Y-76950000I-2798249J1553160D01*
G01*
X208250000Y-80050000D02*
X208250000Y-76950000D01*
X208248249Y-80053160D02*
G75*
G02X208250000Y-76950000I-2798249J1553160D01*
G01*
X218250000Y-80050000D02*
X218250000Y-76950000D01*
X218248249Y-80053160D02*
G75*
G02X218250000Y-76950000I-2798249J1553160D01*
G01*
X178250000Y-90050000D02*
X178250000Y-86950000D01*
X178248249Y-90053160D02*
G75*
G02X178250000Y-86950000I-2798249J1553160D01*
G01*
X188250000Y-90050000D02*
X188250000Y-86950000D01*
X188248249Y-90053160D02*
G75*
G02X188250000Y-86950000I-2798249J1553160D01*
G01*
X198250000Y-90050000D02*
X198250000Y-86950000D01*
X198248249Y-90053160D02*
G75*
G02X198250000Y-86950000I-2798249J1553160D01*
G01*
X208250000Y-90050000D02*
X208250000Y-86950000D01*
X208248249Y-90053160D02*
G75*
G02X208250000Y-86950000I-2798249J1553160D01*
G01*
X218250000Y-90050000D02*
X218250000Y-86950000D01*
X218248249Y-90053160D02*
G75*
G02X218250000Y-86950000I-2798249J1553160D01*
G01*
X178250000Y-100050000D02*
X178250000Y-96950000D01*
X178248249Y-100053160D02*
G75*
G02X178250000Y-96950000I-2798249J1553160D01*
G01*
X188250000Y-100050000D02*
X188250000Y-96950000D01*
X188248249Y-100053160D02*
G75*
G02X188250000Y-96950000I-2798249J1553160D01*
G01*
X198250000Y-100050000D02*
X198250000Y-96950000D01*
X198248249Y-100053160D02*
G75*
G02X198250000Y-96950000I-2798249J1553160D01*
G01*
X208250000Y-100050000D02*
X208250000Y-96950000D01*
X208248249Y-100053160D02*
G75*
G02X208250000Y-96950000I-2798249J1553160D01*
G01*
X218250000Y-100050000D02*
X218250000Y-96950000D01*
X218248249Y-100053160D02*
G75*
G02X218250000Y-96950000I-2798249J1553160D01*
G01*
X178250000Y-110050000D02*
X178250000Y-106950000D01*
X178248249Y-110053160D02*
G75*
G02X178250000Y-106950000I-2798249J1553160D01*
G01*
X188250000Y-110050000D02*
X188250000Y-106950000D01*
X188248249Y-110053160D02*
G75*
G02X188250000Y-106950000I-2798249J1553160D01*
G01*
X198290000Y-110050000D02*
X198290000Y-106950000D01*
X198288249Y-110053160D02*
G75*
G02X198290000Y-106950000I-2798249J1553160D01*
G01*
X208250000Y-110050000D02*
X208250000Y-106950000D01*
X208248249Y-110053160D02*
G75*
G02X208250000Y-106950000I-2798249J1553160D01*
G01*
X218250000Y-110050000D02*
X218250000Y-106950000D01*
X218248249Y-110053160D02*
G75*
G02X218250000Y-106950000I-2798249J1553160D01*
G01*
X178250000Y-120050000D02*
X178250000Y-116950000D01*
X178248249Y-120053160D02*
G75*
G02X178250000Y-116950000I-2798249J1553160D01*
G01*
X188290000Y-120050000D02*
X188290000Y-116950000D01*
X188288249Y-120053160D02*
G75*
G02X188290000Y-116950000I-2798249J1553160D01*
G01*
X198250000Y-120050000D02*
X198250000Y-116950000D01*
X198248249Y-120053160D02*
G75*
G02X198250000Y-116950000I-2798249J1553160D01*
G01*
X208250000Y-120050000D02*
X208250000Y-116950000D01*
X208248249Y-120053160D02*
G75*
G02X208250000Y-116950000I-2798249J1553160D01*
G01*
X218250000Y-120050000D02*
X218250000Y-116950000D01*
X218248249Y-120053160D02*
G75*
G02X218250000Y-116950000I-2798249J1553160D01*
G01*
X178250000Y-130050000D02*
X178250000Y-126950000D01*
X178248249Y-130053160D02*
G75*
G02X178250000Y-126950000I-2798249J1553160D01*
G01*
X188250000Y-130050000D02*
X188250000Y-126950000D01*
X188248249Y-130053160D02*
G75*
G02X188250000Y-126950000I-2798249J1553160D01*
G01*
X198250000Y-130050000D02*
X198250000Y-126950000D01*
X198248249Y-130053160D02*
G75*
G02X198250000Y-126950000I-2798249J1553160D01*
G01*
X208250000Y-130050000D02*
X208250000Y-126950000D01*
X208248249Y-130053160D02*
G75*
G02X208250000Y-126950000I-2798249J1553160D01*
G01*
X218250000Y-130050000D02*
X218250000Y-126950000D01*
X218248249Y-130053160D02*
G75*
G02X218250000Y-126950000I-2798249J1553160D01*
G01*
X67000000Y-97500000D02*
X67000000Y-103550000D01*
X70500000Y-97500000D02*
X70500000Y-103550000D01*
X67000000Y-97500000D02*
X70500000Y-97500000D01*
X67000000Y-103550000D02*
X70500000Y-103550000D01*
X98475000Y-40050000D02*
X88375000Y-40050000D01*
X98475000Y-37050000D02*
X98475000Y-40050000D01*
X88375000Y-40050000D02*
X88375000Y-37050000D01*
X98475000Y-37050000D02*
X88375000Y-37050000D01*
X98475000Y-50047222D02*
X88375000Y-50047222D01*
X98475000Y-47047222D02*
X98475000Y-50047222D01*
X88375000Y-50047222D02*
X88375000Y-47047222D01*
X98475000Y-47047222D02*
X88375000Y-47047222D01*
X98475000Y-60044444D02*
X88375000Y-60044444D01*
X98475000Y-57044444D02*
X98475000Y-60044444D01*
X88375000Y-60044444D02*
X88375000Y-57044444D01*
X98475000Y-57044444D02*
X88375000Y-57044444D01*
X98475000Y-70041666D02*
X88375000Y-70041666D01*
X98475000Y-67041666D02*
X98475000Y-70041666D01*
X88375000Y-70041666D02*
X88375000Y-67041666D01*
X98475000Y-67041666D02*
X88375000Y-67041666D01*
X98475000Y-80038888D02*
X88375000Y-80038888D01*
X98475000Y-77038888D02*
X98475000Y-80038888D01*
X88375000Y-80038888D02*
X88375000Y-77038888D01*
X98475000Y-77038888D02*
X88375000Y-77038888D01*
X98475000Y-90036110D02*
X88375000Y-90036110D01*
X98475000Y-87036110D02*
X98475000Y-90036110D01*
X88375000Y-90036110D02*
X88375000Y-87036110D01*
X98475000Y-87036110D02*
X88375000Y-87036110D01*
X98475000Y-100033332D02*
X88375000Y-100033332D01*
X98475000Y-97033332D02*
X98475000Y-100033332D01*
X88375000Y-100033332D02*
X88375000Y-97033332D01*
X98475000Y-97033332D02*
X88375000Y-97033332D01*
X98475000Y-110030554D02*
X88375000Y-110030554D01*
X98475000Y-107030554D02*
X98475000Y-110030554D01*
X88375000Y-110030554D02*
X88375000Y-107030554D01*
X98475000Y-107030554D02*
X88375000Y-107030554D01*
X98475000Y-120027776D02*
X88375000Y-120027776D01*
X98475000Y-117027776D02*
X98475000Y-120027776D01*
X88375000Y-120027776D02*
X88375000Y-117027776D01*
X98475000Y-117027776D02*
X88375000Y-117027776D01*
X98475000Y-130024998D02*
X88375000Y-130024998D01*
X98475000Y-127024998D02*
X98475000Y-130024998D01*
X88375000Y-130024998D02*
X88375000Y-127024998D01*
X98475000Y-127024998D02*
X88375000Y-127024998D01*
X114575000Y-40075000D02*
X104475000Y-40075000D01*
X114575000Y-37075000D02*
X114575000Y-40075000D01*
X104475000Y-40075000D02*
X104475000Y-37075000D01*
X114575000Y-37075000D02*
X104475000Y-37075000D01*
X114575000Y-50072222D02*
X104475000Y-50072222D01*
X114575000Y-47072222D02*
X114575000Y-50072222D01*
X104475000Y-50072222D02*
X104475000Y-47072222D01*
X114575000Y-47072222D02*
X104475000Y-47072222D01*
X114575000Y-60069444D02*
X104475000Y-60069444D01*
X114575000Y-57069444D02*
X114575000Y-60069444D01*
X104475000Y-60069444D02*
X104475000Y-57069444D01*
X114575000Y-57069444D02*
X104475000Y-57069444D01*
X114575000Y-70066666D02*
X104475000Y-70066666D01*
X114575000Y-67066666D02*
X114575000Y-70066666D01*
X104475000Y-70066666D02*
X104475000Y-67066666D01*
X114575000Y-67066666D02*
X104475000Y-67066666D01*
X114575000Y-80063888D02*
X104475000Y-80063888D01*
X114575000Y-77063888D02*
X114575000Y-80063888D01*
X104475000Y-80063888D02*
X104475000Y-77063888D01*
X114575000Y-77063888D02*
X104475000Y-77063888D01*
X114575000Y-90061110D02*
X104475000Y-90061110D01*
X114575000Y-87061110D02*
X114575000Y-90061110D01*
X104475000Y-90061110D02*
X104475000Y-87061110D01*
X114575000Y-87061110D02*
X104475000Y-87061110D01*
X114575000Y-100058332D02*
X104475000Y-100058332D01*
X114575000Y-97058332D02*
X114575000Y-100058332D01*
X104475000Y-100058332D02*
X104475000Y-97058332D01*
X114575000Y-97058332D02*
X104475000Y-97058332D01*
X114575000Y-110055554D02*
X104475000Y-110055554D01*
X114575000Y-107055554D02*
X114575000Y-110055554D01*
X104475000Y-110055554D02*
X104475000Y-107055554D01*
X114575000Y-107055554D02*
X104475000Y-107055554D01*
X114575000Y-120052776D02*
X104475000Y-120052776D01*
X114575000Y-117052776D02*
X114575000Y-120052776D01*
X104475000Y-120052776D02*
X104475000Y-117052776D01*
X114575000Y-117052776D02*
X104475000Y-117052776D01*
X114575000Y-130049998D02*
X104475000Y-130049998D01*
X114575000Y-127049998D02*
X114575000Y-130049998D01*
X104475000Y-130049998D02*
X104475000Y-127049998D01*
X114575000Y-127049998D02*
X104475000Y-127049998D01*
X77000000Y-108000000D02*
X77000000Y-97900000D01*
X80000000Y-108000000D02*
X77000000Y-108000000D01*
X77000000Y-97900000D02*
X80000000Y-97900000D01*
X80000000Y-108000000D02*
X80000000Y-97900000D01*
X81125000Y-121225000D02*
X81125000Y-111125000D01*
X84125000Y-121225000D02*
X81125000Y-121225000D01*
X81125000Y-111125000D02*
X84125000Y-111125000D01*
X84125000Y-121225000D02*
X84125000Y-111125000D01*
X70025000Y-111125000D02*
X70025000Y-121225000D01*
X67025000Y-111125000D02*
X70025000Y-111125000D01*
X70025000Y-121225000D02*
X67025000Y-121225000D01*
X67025000Y-111125000D02*
X67025000Y-121225000D01*
X71750000Y-89050000D02*
X66750000Y-89050000D01*
X66750000Y-89050000D02*
X66750000Y-78350000D01*
X66750000Y-78350000D02*
X71750000Y-78350000D01*
X71750000Y-78350000D02*
X71750000Y-89050000D01*
X119640000Y-28030000D02*
G75*
G03X119640000Y-28030000I-4550000J0D01*
G01*
M02*
