G04 #@! TF.FileFunction,Soldermask,Bot*
%FSLAX46Y46*%
G04 Gerber Fmt 4.6, Leading zero omitted, Abs format (unit mm)*
G04 Created by KiCad (PCBNEW 4.0.2-stable) date Monday, 06 March 2017 12:37:51*
%MOMM*%
G01*
G04 APERTURE LIST*
%ADD10C,0.100000*%
%ADD11C,4.700000*%
%ADD12R,3.900120X3.900120*%
%ADD13R,2.300000X2.400000*%
%ADD14C,2.300000*%
%ADD15R,2.432000X2.432000*%
%ADD16O,2.432000X2.432000*%
%ADD17O,1.901140X2.899360*%
%ADD18C,4.199840*%
%ADD19C,2.398980*%
%ADD20R,1.924000X2.224000*%
%ADD21O,1.924000X2.224000*%
G04 APERTURE END LIST*
D10*
D11*
X115110000Y-139110000D03*
X226580000Y-139110000D03*
X226480000Y-28070000D03*
D12*
X74700140Y-64000000D03*
X68700660Y-64000000D03*
X71700400Y-68699000D03*
D13*
X126750000Y-38500000D03*
D14*
X124210000Y-38500000D03*
D13*
X136750000Y-38500000D03*
D14*
X134210000Y-38500000D03*
D13*
X146750000Y-38500000D03*
D14*
X144210000Y-38500000D03*
D13*
X156790000Y-38500000D03*
D14*
X154250000Y-38500000D03*
D13*
X166750000Y-38500000D03*
D14*
X164210000Y-38500000D03*
D13*
X126750000Y-48500000D03*
D14*
X124210000Y-48500000D03*
D13*
X136750000Y-48500000D03*
D14*
X134210000Y-48500000D03*
D13*
X146750000Y-48500000D03*
D14*
X144210000Y-48500000D03*
D13*
X156790000Y-48500000D03*
D14*
X154250000Y-48500000D03*
D13*
X166750000Y-48500000D03*
D14*
X164210000Y-48500000D03*
D13*
X126790000Y-58500000D03*
D14*
X124250000Y-58500000D03*
D13*
X136750000Y-58500000D03*
D14*
X134210000Y-58500000D03*
D13*
X146750000Y-58500000D03*
D14*
X144210000Y-58500000D03*
D13*
X156750000Y-58500000D03*
D14*
X154210000Y-58500000D03*
D13*
X166750000Y-58500000D03*
D14*
X164210000Y-58500000D03*
D13*
X126750000Y-68500000D03*
D14*
X124210000Y-68500000D03*
D13*
X136750000Y-68500000D03*
D14*
X134210000Y-68500000D03*
D13*
X146750000Y-68500000D03*
D14*
X144210000Y-68500000D03*
D13*
X156750000Y-68500000D03*
D14*
X154210000Y-68500000D03*
D13*
X166750000Y-68500000D03*
D14*
X164210000Y-68500000D03*
D13*
X126790000Y-78500000D03*
D14*
X124250000Y-78500000D03*
D13*
X136750000Y-78500000D03*
D14*
X134210000Y-78500000D03*
D13*
X146750000Y-78500000D03*
D14*
X144210000Y-78500000D03*
D13*
X156750000Y-78500000D03*
D14*
X154210000Y-78500000D03*
D13*
X166790000Y-78500000D03*
D14*
X164250000Y-78500000D03*
D13*
X126750000Y-88500000D03*
D14*
X124210000Y-88500000D03*
D13*
X136790000Y-88500000D03*
D14*
X134250000Y-88500000D03*
D13*
X146790000Y-88500000D03*
D14*
X144250000Y-88500000D03*
D13*
X156790000Y-88500000D03*
D14*
X154250000Y-88500000D03*
D13*
X166790000Y-88500000D03*
D14*
X164250000Y-88500000D03*
D13*
X126790000Y-98500000D03*
D14*
X124250000Y-98500000D03*
D13*
X136790000Y-98500000D03*
D14*
X134250000Y-98500000D03*
D13*
X146790000Y-98500000D03*
D14*
X144250000Y-98500000D03*
D13*
X156790000Y-98500000D03*
D14*
X154250000Y-98500000D03*
D13*
X166790000Y-98500000D03*
D14*
X164250000Y-98500000D03*
D13*
X126790000Y-108500000D03*
D14*
X124250000Y-108500000D03*
D13*
X136790000Y-108500000D03*
D14*
X134250000Y-108500000D03*
D13*
X146790000Y-108500000D03*
D14*
X144250000Y-108500000D03*
D13*
X156790000Y-108500000D03*
D14*
X154250000Y-108500000D03*
D13*
X166790000Y-108500000D03*
D14*
X164250000Y-108500000D03*
D13*
X126790000Y-118500000D03*
D14*
X124250000Y-118500000D03*
D13*
X136790000Y-118500000D03*
D14*
X134250000Y-118500000D03*
D13*
X146790000Y-118500000D03*
D14*
X144250000Y-118500000D03*
D13*
X156790000Y-118500000D03*
D14*
X154250000Y-118500000D03*
D13*
X166790000Y-118500000D03*
D14*
X164250000Y-118500000D03*
D13*
X126790000Y-128500000D03*
D14*
X124250000Y-128500000D03*
D13*
X136790000Y-128500000D03*
D14*
X134250000Y-128500000D03*
D13*
X146790000Y-128500000D03*
D14*
X144250000Y-128500000D03*
D13*
X156790000Y-128500000D03*
D14*
X154250000Y-128500000D03*
D13*
X166790000Y-128500000D03*
D14*
X164250000Y-128500000D03*
D13*
X176790000Y-38500000D03*
D14*
X174250000Y-38500000D03*
D13*
X186750000Y-38500000D03*
D14*
X184210000Y-38500000D03*
D13*
X196790000Y-38500000D03*
D14*
X194250000Y-38500000D03*
D13*
X206790000Y-38500000D03*
D14*
X204250000Y-38500000D03*
D13*
X216750000Y-38500000D03*
D14*
X214210000Y-38500000D03*
D13*
X176790000Y-48500000D03*
D14*
X174250000Y-48500000D03*
D13*
X186750000Y-48500000D03*
D14*
X184210000Y-48500000D03*
D13*
X196750000Y-48500000D03*
D14*
X194210000Y-48500000D03*
D13*
X206750000Y-48500000D03*
D14*
X204210000Y-48500000D03*
D13*
X216750000Y-48500000D03*
D14*
X214210000Y-48500000D03*
D13*
X176750000Y-58500000D03*
D14*
X174210000Y-58500000D03*
D13*
X186750000Y-58500000D03*
D14*
X184210000Y-58500000D03*
D13*
X196750000Y-58500000D03*
D14*
X194210000Y-58500000D03*
D13*
X206750000Y-58500000D03*
D14*
X204210000Y-58500000D03*
D13*
X216750000Y-58500000D03*
D14*
X214210000Y-58500000D03*
D13*
X176750000Y-68500000D03*
D14*
X174210000Y-68500000D03*
D13*
X186750000Y-68500000D03*
D14*
X184210000Y-68500000D03*
D13*
X196790000Y-68500000D03*
D14*
X194250000Y-68500000D03*
D13*
X206750000Y-68500000D03*
D14*
X204210000Y-68500000D03*
D13*
X216750000Y-68500000D03*
D14*
X214210000Y-68500000D03*
D13*
X176790000Y-78500000D03*
D14*
X174250000Y-78500000D03*
D13*
X186750000Y-78500000D03*
D14*
X184210000Y-78500000D03*
D13*
X196790000Y-78500000D03*
D14*
X194250000Y-78500000D03*
D13*
X206750000Y-78500000D03*
D14*
X204210000Y-78500000D03*
D13*
X216750000Y-78500000D03*
D14*
X214210000Y-78500000D03*
D13*
X176750000Y-88500000D03*
D14*
X174210000Y-88500000D03*
D13*
X186750000Y-88500000D03*
D14*
X184210000Y-88500000D03*
D13*
X196750000Y-88500000D03*
D14*
X194210000Y-88500000D03*
D13*
X206750000Y-88500000D03*
D14*
X204210000Y-88500000D03*
D13*
X216750000Y-88500000D03*
D14*
X214210000Y-88500000D03*
D13*
X176750000Y-98500000D03*
D14*
X174210000Y-98500000D03*
D13*
X186750000Y-98500000D03*
D14*
X184210000Y-98500000D03*
D13*
X196750000Y-98500000D03*
D14*
X194210000Y-98500000D03*
D13*
X206750000Y-98500000D03*
D14*
X204210000Y-98500000D03*
D13*
X216750000Y-98500000D03*
D14*
X214210000Y-98500000D03*
D13*
X176750000Y-108500000D03*
D14*
X174210000Y-108500000D03*
D13*
X186750000Y-108500000D03*
D14*
X184210000Y-108500000D03*
D13*
X196790000Y-108500000D03*
D14*
X194250000Y-108500000D03*
D13*
X206750000Y-108500000D03*
D14*
X204210000Y-108500000D03*
D13*
X216750000Y-108500000D03*
D14*
X214210000Y-108500000D03*
D13*
X176750000Y-118500000D03*
D14*
X174210000Y-118500000D03*
D13*
X186790000Y-118500000D03*
D14*
X184250000Y-118500000D03*
D13*
X196750000Y-118500000D03*
D14*
X194210000Y-118500000D03*
D13*
X206750000Y-118500000D03*
D14*
X204210000Y-118500000D03*
D13*
X216750000Y-118500000D03*
D14*
X214210000Y-118500000D03*
D13*
X176750000Y-128500000D03*
D14*
X174210000Y-128500000D03*
D13*
X186750000Y-128500000D03*
D14*
X184210000Y-128500000D03*
D13*
X196750000Y-128500000D03*
D14*
X194210000Y-128500000D03*
D13*
X206750000Y-128500000D03*
D14*
X204210000Y-128500000D03*
D13*
X216750000Y-128500000D03*
D14*
X214210000Y-128500000D03*
D15*
X68750000Y-99250000D03*
D16*
X68750000Y-101790000D03*
D17*
X75710000Y-119986000D03*
X78250000Y-119986000D03*
X73170000Y-119986000D03*
D18*
X75710000Y-136750000D03*
D19*
X97225000Y-38550000D03*
X89605000Y-38550000D03*
X97225000Y-48547222D03*
X89605000Y-48547222D03*
X97225000Y-58544444D03*
X89605000Y-58544444D03*
X97225000Y-68541666D03*
X89605000Y-68541666D03*
X97225000Y-78538888D03*
X89605000Y-78538888D03*
X97225000Y-88536110D03*
X89605000Y-88536110D03*
X97225000Y-98533332D03*
X89605000Y-98533332D03*
X97225000Y-108530554D03*
X89605000Y-108530554D03*
X97225000Y-118527776D03*
X89605000Y-118527776D03*
X97225000Y-128524998D03*
X89605000Y-128524998D03*
X113325000Y-38575000D03*
X105705000Y-38575000D03*
X113325000Y-48572222D03*
X105705000Y-48572222D03*
X113325000Y-58569444D03*
X105705000Y-58569444D03*
X113325000Y-68566666D03*
X105705000Y-68566666D03*
X113325000Y-78563888D03*
X105705000Y-78563888D03*
X113325000Y-88561110D03*
X105705000Y-88561110D03*
X113325000Y-98558332D03*
X105705000Y-98558332D03*
X113325000Y-108555554D03*
X105705000Y-108555554D03*
X113325000Y-118552776D03*
X105705000Y-118552776D03*
X113325000Y-128549998D03*
X105705000Y-128549998D03*
X78500000Y-106750000D03*
X78500000Y-99130000D03*
X82625000Y-119975000D03*
X82625000Y-112355000D03*
X68525000Y-112375000D03*
X68525000Y-119995000D03*
D20*
X69250000Y-87500000D03*
D21*
X69250000Y-79880000D03*
D11*
X115090000Y-28030000D03*
M02*
