M48
;DRILL file {KiCad 4.0.2-stable} date Monday, 06 March 2017 12:37:55
;FORMAT={-:-/ absolute / metric / decimal}
FMAT,2
METRIC,TZ
T1C0.762
T2C1.001
T3C1.016
T4C3.800
T5C4.300
%
G90
G05
M71
T1
X69.25Y-79.88
X69.25Y-87.5
T2
X68.525Y-112.375
X68.525Y-119.995
X73.17Y-119.986
X75.71Y-119.986
X78.25Y-119.986
X78.5Y-99.13
X78.5Y-106.75
X82.625Y-112.355
X82.625Y-119.975
X89.605Y-38.55
X89.605Y-48.547
X89.605Y-58.544
X89.605Y-68.542
X89.605Y-78.539
X89.605Y-88.536
X89.605Y-98.533
X89.605Y-108.531
X89.605Y-118.528
X89.605Y-128.525
X97.225Y-38.55
X97.225Y-48.547
X97.225Y-58.544
X97.225Y-68.542
X97.225Y-78.539
X97.225Y-88.536
X97.225Y-98.533
X97.225Y-108.531
X97.225Y-118.528
X97.225Y-128.525
X105.705Y-38.575
X105.705Y-48.572
X105.705Y-58.569
X105.705Y-68.567
X105.705Y-78.564
X105.705Y-88.561
X105.705Y-98.558
X105.705Y-108.556
X105.705Y-118.553
X105.705Y-128.55
X113.325Y-38.575
X113.325Y-48.572
X113.325Y-58.569
X113.325Y-68.567
X113.325Y-78.564
X113.325Y-88.561
X113.325Y-98.558
X113.325Y-108.556
X113.325Y-118.553
X113.325Y-128.55
X124.21Y-38.5
X124.21Y-48.5
X124.21Y-68.5
X124.21Y-88.5
X124.25Y-58.5
X124.25Y-78.5
X124.25Y-98.5
X124.25Y-108.5
X124.25Y-118.5
X124.25Y-128.5
X126.75Y-38.5
X126.75Y-48.5
X126.75Y-68.5
X126.75Y-88.5
X126.79Y-58.5
X126.79Y-78.5
X126.79Y-98.5
X126.79Y-108.5
X126.79Y-118.5
X126.79Y-128.5
X134.21Y-38.5
X134.21Y-48.5
X134.21Y-58.5
X134.21Y-68.5
X134.21Y-78.5
X134.25Y-88.5
X134.25Y-98.5
X134.25Y-108.5
X134.25Y-118.5
X134.25Y-128.5
X136.75Y-38.5
X136.75Y-48.5
X136.75Y-58.5
X136.75Y-68.5
X136.75Y-78.5
X136.79Y-88.5
X136.79Y-98.5
X136.79Y-108.5
X136.79Y-118.5
X136.79Y-128.5
X144.21Y-38.5
X144.21Y-48.5
X144.21Y-58.5
X144.21Y-68.5
X144.21Y-78.5
X144.25Y-88.5
X144.25Y-98.5
X144.25Y-108.5
X144.25Y-118.5
X144.25Y-128.5
X146.75Y-38.5
X146.75Y-48.5
X146.75Y-58.5
X146.75Y-68.5
X146.75Y-78.5
X146.79Y-88.5
X146.79Y-98.5
X146.79Y-108.5
X146.79Y-118.5
X146.79Y-128.5
X154.21Y-58.5
X154.21Y-68.5
X154.21Y-78.5
X154.25Y-38.5
X154.25Y-48.5
X154.25Y-88.5
X154.25Y-98.5
X154.25Y-108.5
X154.25Y-118.5
X154.25Y-128.5
X156.75Y-58.5
X156.75Y-68.5
X156.75Y-78.5
X156.79Y-38.5
X156.79Y-48.5
X156.79Y-88.5
X156.79Y-98.5
X156.79Y-108.5
X156.79Y-118.5
X156.79Y-128.5
X164.21Y-38.5
X164.21Y-48.5
X164.21Y-58.5
X164.21Y-68.5
X164.25Y-78.5
X164.25Y-88.5
X164.25Y-98.5
X164.25Y-108.5
X164.25Y-118.5
X164.25Y-128.5
X166.75Y-38.5
X166.75Y-48.5
X166.75Y-58.5
X166.75Y-68.5
X166.79Y-78.5
X166.79Y-88.5
X166.79Y-98.5
X166.79Y-108.5
X166.79Y-118.5
X166.79Y-128.5
X174.21Y-58.5
X174.21Y-68.5
X174.21Y-88.5
X174.21Y-98.5
X174.21Y-108.5
X174.21Y-118.5
X174.21Y-128.5
X174.25Y-38.5
X174.25Y-48.5
X174.25Y-78.5
X176.75Y-58.5
X176.75Y-68.5
X176.75Y-88.5
X176.75Y-98.5
X176.75Y-108.5
X176.75Y-118.5
X176.75Y-128.5
X176.79Y-38.5
X176.79Y-48.5
X176.79Y-78.5
X184.21Y-38.5
X184.21Y-48.5
X184.21Y-58.5
X184.21Y-68.5
X184.21Y-78.5
X184.21Y-88.5
X184.21Y-98.5
X184.21Y-108.5
X184.21Y-128.5
X184.25Y-118.5
X186.75Y-38.5
X186.75Y-48.5
X186.75Y-58.5
X186.75Y-68.5
X186.75Y-78.5
X186.75Y-88.5
X186.75Y-98.5
X186.75Y-108.5
X186.75Y-128.5
X186.79Y-118.5
X194.21Y-48.5
X194.21Y-58.5
X194.21Y-88.5
X194.21Y-98.5
X194.21Y-118.5
X194.21Y-128.5
X194.25Y-38.5
X194.25Y-68.5
X194.25Y-78.5
X194.25Y-108.5
X196.75Y-48.5
X196.75Y-58.5
X196.75Y-88.5
X196.75Y-98.5
X196.75Y-118.5
X196.75Y-128.5
X196.79Y-38.5
X196.79Y-68.5
X196.79Y-78.5
X196.79Y-108.5
X204.21Y-48.5
X204.21Y-58.5
X204.21Y-68.5
X204.21Y-78.5
X204.21Y-88.5
X204.21Y-98.5
X204.21Y-108.5
X204.21Y-118.5
X204.21Y-128.5
X204.25Y-38.5
X206.75Y-48.5
X206.75Y-58.5
X206.75Y-68.5
X206.75Y-78.5
X206.75Y-88.5
X206.75Y-98.5
X206.75Y-108.5
X206.75Y-118.5
X206.75Y-128.5
X206.79Y-38.5
X214.21Y-38.5
X214.21Y-48.5
X214.21Y-58.5
X214.21Y-68.5
X214.21Y-78.5
X214.21Y-88.5
X214.21Y-98.5
X214.21Y-108.5
X214.21Y-118.5
X214.21Y-128.5
X216.75Y-38.5
X216.75Y-48.5
X216.75Y-58.5
X216.75Y-68.5
X216.75Y-78.5
X216.75Y-88.5
X216.75Y-98.5
X216.75Y-108.5
X216.75Y-118.5
X216.75Y-128.5
T3
X68.75Y-99.25
X68.75Y-101.79
T4
X75.71Y-136.75
T5
X115.09Y-28.03
X115.11Y-139.11
X226.48Y-28.07
X226.58Y-139.11
T2
X68.701Y-63.001G85X68.701Y-64.999
G05
X70.701Y-68.699G85X72.7Y-68.699
G05
X74.7Y-63.001G85X74.7Y-64.999
G05
T0
M30
