G04 #@! TF.GenerationSoftware,KiCad,Pcbnew,(5.0.0)*
G04 #@! TF.CreationDate,2019-04-16T18:27:59-04:00*
G04 #@! TF.ProjectId,V2 - 2 ,5632202D2032202E6B696361645F7063,rev?*
G04 #@! TF.SameCoordinates,Original*
G04 #@! TF.FileFunction,Soldermask,Bot*
G04 #@! TF.FilePolarity,Negative*
%FSLAX46Y46*%
G04 Gerber Fmt 4.6, Leading zero omitted, Abs format (unit mm)*
G04 Created by KiCad (PCBNEW (5.0.0)) date 04/16/19 18:27:59*
%MOMM*%
%LPD*%
G01*
G04 APERTURE LIST*
%ADD10C,5.300000*%
%ADD11R,4.500120X4.500120*%
%ADD12R,2.900000X3.000000*%
%ADD13C,2.900000*%
%ADD14R,3.032000X3.032000*%
%ADD15O,3.032000X3.032000*%
%ADD16O,2.501140X3.499360*%
%ADD17C,4.799840*%
%ADD18C,2.998980*%
%ADD19R,2.700000X2.700000*%
%ADD20O,2.700000X2.700000*%
G04 APERTURE END LIST*
D10*
G04 #@! TO.C,REF\002A\002A*
X115110000Y-139110000D03*
G04 #@! TD*
G04 #@! TO.C,REF\002A\002A*
X226580000Y-139110000D03*
G04 #@! TD*
G04 #@! TO.C,REF\002A\002A*
X226480000Y-28070000D03*
G04 #@! TD*
D11*
G04 #@! TO.C,CON1*
X74700140Y-64000000D03*
X68700660Y-64000000D03*
X71700400Y-68699000D03*
G04 #@! TD*
D12*
G04 #@! TO.C,D1*
X126750000Y-38500000D03*
D13*
X124210000Y-38500000D03*
G04 #@! TD*
D12*
G04 #@! TO.C,D2*
X136750000Y-38500000D03*
D13*
X134210000Y-38500000D03*
G04 #@! TD*
D12*
G04 #@! TO.C,D3*
X146750000Y-38500000D03*
D13*
X144210000Y-38500000D03*
G04 #@! TD*
D12*
G04 #@! TO.C,D4*
X156790000Y-38500000D03*
D13*
X154250000Y-38500000D03*
G04 #@! TD*
D12*
G04 #@! TO.C,D5*
X166750000Y-38500000D03*
D13*
X164210000Y-38500000D03*
G04 #@! TD*
D12*
G04 #@! TO.C,D6*
X126750000Y-48500000D03*
D13*
X124210000Y-48500000D03*
G04 #@! TD*
D12*
G04 #@! TO.C,D7*
X136750000Y-48500000D03*
D13*
X134210000Y-48500000D03*
G04 #@! TD*
D12*
G04 #@! TO.C,D8*
X146750000Y-48500000D03*
D13*
X144210000Y-48500000D03*
G04 #@! TD*
D12*
G04 #@! TO.C,D9*
X156790000Y-48500000D03*
D13*
X154250000Y-48500000D03*
G04 #@! TD*
D12*
G04 #@! TO.C,D10*
X166750000Y-48500000D03*
D13*
X164210000Y-48500000D03*
G04 #@! TD*
D12*
G04 #@! TO.C,D11*
X126790000Y-58500000D03*
D13*
X124250000Y-58500000D03*
G04 #@! TD*
D12*
G04 #@! TO.C,D12*
X136750000Y-58500000D03*
D13*
X134210000Y-58500000D03*
G04 #@! TD*
D12*
G04 #@! TO.C,D13*
X146750000Y-58500000D03*
D13*
X144210000Y-58500000D03*
G04 #@! TD*
D12*
G04 #@! TO.C,D14*
X156750000Y-58500000D03*
D13*
X154210000Y-58500000D03*
G04 #@! TD*
D12*
G04 #@! TO.C,D15*
X166750000Y-58500000D03*
D13*
X164210000Y-58500000D03*
G04 #@! TD*
D12*
G04 #@! TO.C,D16*
X126750000Y-68500000D03*
D13*
X124210000Y-68500000D03*
G04 #@! TD*
D12*
G04 #@! TO.C,D17*
X136750000Y-68500000D03*
D13*
X134210000Y-68500000D03*
G04 #@! TD*
D12*
G04 #@! TO.C,D18*
X146750000Y-68500000D03*
D13*
X144210000Y-68500000D03*
G04 #@! TD*
D12*
G04 #@! TO.C,D19*
X156750000Y-68500000D03*
D13*
X154210000Y-68500000D03*
G04 #@! TD*
D12*
G04 #@! TO.C,D20*
X166750000Y-68500000D03*
D13*
X164210000Y-68500000D03*
G04 #@! TD*
D12*
G04 #@! TO.C,D21*
X126790000Y-78500000D03*
D13*
X124250000Y-78500000D03*
G04 #@! TD*
D12*
G04 #@! TO.C,D22*
X136750000Y-78500000D03*
D13*
X134210000Y-78500000D03*
G04 #@! TD*
D12*
G04 #@! TO.C,D23*
X146750000Y-78500000D03*
D13*
X144210000Y-78500000D03*
G04 #@! TD*
D12*
G04 #@! TO.C,D24*
X156750000Y-78500000D03*
D13*
X154210000Y-78500000D03*
G04 #@! TD*
D12*
G04 #@! TO.C,D25*
X166790000Y-78500000D03*
D13*
X164250000Y-78500000D03*
G04 #@! TD*
D12*
G04 #@! TO.C,D26*
X126750000Y-88500000D03*
D13*
X124210000Y-88500000D03*
G04 #@! TD*
D12*
G04 #@! TO.C,D27*
X136790000Y-88500000D03*
D13*
X134250000Y-88500000D03*
G04 #@! TD*
D12*
G04 #@! TO.C,D28*
X146790000Y-88500000D03*
D13*
X144250000Y-88500000D03*
G04 #@! TD*
D12*
G04 #@! TO.C,D29*
X156790000Y-88500000D03*
D13*
X154250000Y-88500000D03*
G04 #@! TD*
D12*
G04 #@! TO.C,D30*
X166790000Y-88500000D03*
D13*
X164250000Y-88500000D03*
G04 #@! TD*
D12*
G04 #@! TO.C,D31*
X126790000Y-98500000D03*
D13*
X124250000Y-98500000D03*
G04 #@! TD*
D12*
G04 #@! TO.C,D32*
X136790000Y-98500000D03*
D13*
X134250000Y-98500000D03*
G04 #@! TD*
D12*
G04 #@! TO.C,D33*
X146790000Y-98500000D03*
D13*
X144250000Y-98500000D03*
G04 #@! TD*
D12*
G04 #@! TO.C,D34*
X156790000Y-98500000D03*
D13*
X154250000Y-98500000D03*
G04 #@! TD*
D12*
G04 #@! TO.C,D35*
X166790000Y-98500000D03*
D13*
X164250000Y-98500000D03*
G04 #@! TD*
D12*
G04 #@! TO.C,D36*
X126790000Y-108500000D03*
D13*
X124250000Y-108500000D03*
G04 #@! TD*
D12*
G04 #@! TO.C,D37*
X136790000Y-108500000D03*
D13*
X134250000Y-108500000D03*
G04 #@! TD*
D12*
G04 #@! TO.C,D38*
X146790000Y-108500000D03*
D13*
X144250000Y-108500000D03*
G04 #@! TD*
D12*
G04 #@! TO.C,D39*
X156790000Y-108500000D03*
D13*
X154250000Y-108500000D03*
G04 #@! TD*
D12*
G04 #@! TO.C,D40*
X166790000Y-108500000D03*
D13*
X164250000Y-108500000D03*
G04 #@! TD*
D12*
G04 #@! TO.C,D41*
X126790000Y-118500000D03*
D13*
X124250000Y-118500000D03*
G04 #@! TD*
D12*
G04 #@! TO.C,D42*
X136790000Y-118500000D03*
D13*
X134250000Y-118500000D03*
G04 #@! TD*
D12*
G04 #@! TO.C,D43*
X146790000Y-118500000D03*
D13*
X144250000Y-118500000D03*
G04 #@! TD*
D12*
G04 #@! TO.C,D44*
X156790000Y-118500000D03*
D13*
X154250000Y-118500000D03*
G04 #@! TD*
D12*
G04 #@! TO.C,D45*
X166790000Y-118500000D03*
D13*
X164250000Y-118500000D03*
G04 #@! TD*
D12*
G04 #@! TO.C,D46*
X126790000Y-128500000D03*
D13*
X124250000Y-128500000D03*
G04 #@! TD*
D12*
G04 #@! TO.C,D47*
X136790000Y-128500000D03*
D13*
X134250000Y-128500000D03*
G04 #@! TD*
D12*
G04 #@! TO.C,D48*
X146790000Y-128500000D03*
D13*
X144250000Y-128500000D03*
G04 #@! TD*
D12*
G04 #@! TO.C,D49*
X156790000Y-128500000D03*
D13*
X154250000Y-128500000D03*
G04 #@! TD*
D12*
G04 #@! TO.C,D50*
X166790000Y-128500000D03*
D13*
X164250000Y-128500000D03*
G04 #@! TD*
D12*
G04 #@! TO.C,D51*
X176790000Y-38500000D03*
D13*
X174250000Y-38500000D03*
G04 #@! TD*
D12*
G04 #@! TO.C,D52*
X186750000Y-38500000D03*
D13*
X184210000Y-38500000D03*
G04 #@! TD*
D12*
G04 #@! TO.C,D53*
X196790000Y-38500000D03*
D13*
X194250000Y-38500000D03*
G04 #@! TD*
D12*
G04 #@! TO.C,D54*
X206790000Y-38500000D03*
D13*
X204250000Y-38500000D03*
G04 #@! TD*
D12*
G04 #@! TO.C,D55*
X216750000Y-38500000D03*
D13*
X214210000Y-38500000D03*
G04 #@! TD*
D12*
G04 #@! TO.C,D56*
X176790000Y-48500000D03*
D13*
X174250000Y-48500000D03*
G04 #@! TD*
D12*
G04 #@! TO.C,D57*
X186750000Y-48500000D03*
D13*
X184210000Y-48500000D03*
G04 #@! TD*
D12*
G04 #@! TO.C,D58*
X196750000Y-48500000D03*
D13*
X194210000Y-48500000D03*
G04 #@! TD*
D12*
G04 #@! TO.C,D59*
X206750000Y-48500000D03*
D13*
X204210000Y-48500000D03*
G04 #@! TD*
D12*
G04 #@! TO.C,D60*
X216750000Y-48500000D03*
D13*
X214210000Y-48500000D03*
G04 #@! TD*
D12*
G04 #@! TO.C,D61*
X176750000Y-58500000D03*
D13*
X174210000Y-58500000D03*
G04 #@! TD*
D12*
G04 #@! TO.C,D62*
X186750000Y-58500000D03*
D13*
X184210000Y-58500000D03*
G04 #@! TD*
D12*
G04 #@! TO.C,D63*
X196750000Y-58500000D03*
D13*
X194210000Y-58500000D03*
G04 #@! TD*
D12*
G04 #@! TO.C,D64*
X206750000Y-58500000D03*
D13*
X204210000Y-58500000D03*
G04 #@! TD*
D12*
G04 #@! TO.C,D65*
X216750000Y-58500000D03*
D13*
X214210000Y-58500000D03*
G04 #@! TD*
D12*
G04 #@! TO.C,D66*
X176750000Y-68500000D03*
D13*
X174210000Y-68500000D03*
G04 #@! TD*
D12*
G04 #@! TO.C,D67*
X186750000Y-68500000D03*
D13*
X184210000Y-68500000D03*
G04 #@! TD*
D12*
G04 #@! TO.C,D68*
X196790000Y-68500000D03*
D13*
X194250000Y-68500000D03*
G04 #@! TD*
D12*
G04 #@! TO.C,D69*
X206750000Y-68500000D03*
D13*
X204210000Y-68500000D03*
G04 #@! TD*
D12*
G04 #@! TO.C,D70*
X216750000Y-68500000D03*
D13*
X214210000Y-68500000D03*
G04 #@! TD*
D12*
G04 #@! TO.C,D71*
X176790000Y-78500000D03*
D13*
X174250000Y-78500000D03*
G04 #@! TD*
D12*
G04 #@! TO.C,D72*
X186750000Y-78500000D03*
D13*
X184210000Y-78500000D03*
G04 #@! TD*
D12*
G04 #@! TO.C,D73*
X196790000Y-78500000D03*
D13*
X194250000Y-78500000D03*
G04 #@! TD*
D12*
G04 #@! TO.C,D74*
X206750000Y-78500000D03*
D13*
X204210000Y-78500000D03*
G04 #@! TD*
D12*
G04 #@! TO.C,D75*
X216750000Y-78500000D03*
D13*
X214210000Y-78500000D03*
G04 #@! TD*
D12*
G04 #@! TO.C,D76*
X176750000Y-88500000D03*
D13*
X174210000Y-88500000D03*
G04 #@! TD*
D12*
G04 #@! TO.C,D77*
X186750000Y-88500000D03*
D13*
X184210000Y-88500000D03*
G04 #@! TD*
D12*
G04 #@! TO.C,D78*
X196750000Y-88500000D03*
D13*
X194210000Y-88500000D03*
G04 #@! TD*
D12*
G04 #@! TO.C,D79*
X206750000Y-88500000D03*
D13*
X204210000Y-88500000D03*
G04 #@! TD*
D12*
G04 #@! TO.C,D80*
X216750000Y-88500000D03*
D13*
X214210000Y-88500000D03*
G04 #@! TD*
D12*
G04 #@! TO.C,D81*
X176750000Y-98500000D03*
D13*
X174210000Y-98500000D03*
G04 #@! TD*
D12*
G04 #@! TO.C,D82*
X186750000Y-98500000D03*
D13*
X184210000Y-98500000D03*
G04 #@! TD*
D12*
G04 #@! TO.C,D83*
X196750000Y-98500000D03*
D13*
X194210000Y-98500000D03*
G04 #@! TD*
D12*
G04 #@! TO.C,D84*
X206750000Y-98500000D03*
D13*
X204210000Y-98500000D03*
G04 #@! TD*
D12*
G04 #@! TO.C,D85*
X216750000Y-98500000D03*
D13*
X214210000Y-98500000D03*
G04 #@! TD*
D12*
G04 #@! TO.C,D86*
X176750000Y-108500000D03*
D13*
X174210000Y-108500000D03*
G04 #@! TD*
D12*
G04 #@! TO.C,D87*
X186750000Y-108500000D03*
D13*
X184210000Y-108500000D03*
G04 #@! TD*
D12*
G04 #@! TO.C,D88*
X196790000Y-108500000D03*
D13*
X194250000Y-108500000D03*
G04 #@! TD*
D12*
G04 #@! TO.C,D89*
X206750000Y-108500000D03*
D13*
X204210000Y-108500000D03*
G04 #@! TD*
D12*
G04 #@! TO.C,D90*
X216750000Y-108500000D03*
D13*
X214210000Y-108500000D03*
G04 #@! TD*
D12*
G04 #@! TO.C,D91*
X176750000Y-118500000D03*
D13*
X174210000Y-118500000D03*
G04 #@! TD*
D12*
G04 #@! TO.C,D92*
X186790000Y-118500000D03*
D13*
X184250000Y-118500000D03*
G04 #@! TD*
D12*
G04 #@! TO.C,D93*
X196750000Y-118500000D03*
D13*
X194210000Y-118500000D03*
G04 #@! TD*
D12*
G04 #@! TO.C,D94*
X206750000Y-118500000D03*
D13*
X204210000Y-118500000D03*
G04 #@! TD*
D12*
G04 #@! TO.C,D95*
X216750000Y-118500000D03*
D13*
X214210000Y-118500000D03*
G04 #@! TD*
D12*
G04 #@! TO.C,D96*
X176750000Y-128500000D03*
D13*
X174210000Y-128500000D03*
G04 #@! TD*
D12*
G04 #@! TO.C,D97*
X186750000Y-128500000D03*
D13*
X184210000Y-128500000D03*
G04 #@! TD*
D12*
G04 #@! TO.C,D98*
X196750000Y-128500000D03*
D13*
X194210000Y-128500000D03*
G04 #@! TD*
D12*
G04 #@! TO.C,D99*
X206750000Y-128500000D03*
D13*
X204210000Y-128500000D03*
G04 #@! TD*
D12*
G04 #@! TO.C,D100*
X216750000Y-128500000D03*
D13*
X214210000Y-128500000D03*
G04 #@! TD*
D14*
G04 #@! TO.C,RP1*
X68750000Y-99250000D03*
D15*
X68750000Y-101790000D03*
G04 #@! TD*
D16*
G04 #@! TO.C,Q1*
X75710000Y-119986000D03*
X78250000Y-119986000D03*
X73170000Y-119986000D03*
D17*
X75710000Y-136750000D03*
G04 #@! TD*
D18*
G04 #@! TO.C,R1*
X97225000Y-38550000D03*
X89605000Y-38550000D03*
G04 #@! TD*
G04 #@! TO.C,R2*
X97225000Y-48547222D03*
X89605000Y-48547222D03*
G04 #@! TD*
G04 #@! TO.C,R3*
X97225000Y-58544444D03*
X89605000Y-58544444D03*
G04 #@! TD*
G04 #@! TO.C,R4*
X97225000Y-68541666D03*
X89605000Y-68541666D03*
G04 #@! TD*
G04 #@! TO.C,R5*
X97225000Y-78538888D03*
X89605000Y-78538888D03*
G04 #@! TD*
G04 #@! TO.C,R6*
X97225000Y-88536110D03*
X89605000Y-88536110D03*
G04 #@! TD*
G04 #@! TO.C,R7*
X97225000Y-98533332D03*
X89605000Y-98533332D03*
G04 #@! TD*
G04 #@! TO.C,R8*
X97225000Y-108530554D03*
X89605000Y-108530554D03*
G04 #@! TD*
G04 #@! TO.C,R9*
X97225000Y-118527776D03*
X89605000Y-118527776D03*
G04 #@! TD*
G04 #@! TO.C,R10*
X97225000Y-128524998D03*
X89605000Y-128524998D03*
G04 #@! TD*
G04 #@! TO.C,R11*
X113325000Y-38575000D03*
X105705000Y-38575000D03*
G04 #@! TD*
G04 #@! TO.C,R12*
X113325000Y-48572222D03*
X105705000Y-48572222D03*
G04 #@! TD*
G04 #@! TO.C,R13*
X113325000Y-58569444D03*
X105705000Y-58569444D03*
G04 #@! TD*
G04 #@! TO.C,R14*
X113325000Y-68566666D03*
X105705000Y-68566666D03*
G04 #@! TD*
G04 #@! TO.C,R15*
X113325000Y-78563888D03*
X105705000Y-78563888D03*
G04 #@! TD*
G04 #@! TO.C,R16*
X113325000Y-88561110D03*
X105705000Y-88561110D03*
G04 #@! TD*
G04 #@! TO.C,R17*
X113325000Y-98558332D03*
X105705000Y-98558332D03*
G04 #@! TD*
G04 #@! TO.C,R18*
X113325000Y-108555554D03*
X105705000Y-108555554D03*
G04 #@! TD*
G04 #@! TO.C,R19*
X113325000Y-118552776D03*
X105705000Y-118552776D03*
G04 #@! TD*
G04 #@! TO.C,R20*
X113325000Y-128549998D03*
X105705000Y-128549998D03*
G04 #@! TD*
G04 #@! TO.C,R21*
X78500000Y-106750000D03*
X78500000Y-99130000D03*
G04 #@! TD*
G04 #@! TO.C,R22*
X82625000Y-119975000D03*
X82625000Y-112355000D03*
G04 #@! TD*
G04 #@! TO.C,R23*
X68525000Y-112375000D03*
X68525000Y-119995000D03*
G04 #@! TD*
D10*
G04 #@! TO.C,REF\002A\002A*
X115090000Y-28030000D03*
G04 #@! TD*
D19*
G04 #@! TO.C,SW1*
X69250000Y-87500000D03*
D20*
X69250000Y-90040000D03*
G04 #@! TD*
M02*
