M48
;DRILL file {KiCad (5.0.0)} date 04/16/19 18:26:50
;FORMAT={3:3/ absolute / metric / keep zeros}
FMAT,2
METRIC,TZ
T1C1.000
T2C1.001
T3C1.016
%
G90
G05
M71
T1
X069250Y-087500
X069250Y-090040
T2
X204210Y-128500
X206750Y-128500
X174210Y-098500
X176750Y-098500
X204210Y-098500
X206750Y-098500
X214210Y-078500
X216750Y-078500
X214210Y-128500
X216750Y-128500
X124210Y-068500
X126750Y-068500
X154210Y-058500
X156750Y-058500
X124250Y-058500
X126790Y-058500
X154250Y-048500
X156790Y-048500
X204250Y-038500
X206790Y-038500
X134210Y-048500
X136750Y-048500
X194210Y-048500
X196750Y-048500
X144250Y-128500
X146790Y-128500
X124250Y-108500
X126790Y-108500
X134250Y-108500
X136790Y-108500
X089605Y-128525
X097225Y-128525
X089605Y-058544
X097225Y-058544
X194210Y-118500
X196750Y-118500
X214210Y-088500
X216750Y-088500
X184210Y-108500
X186750Y-108500
X194250Y-078500
X196790Y-078500
X078500Y-099130
X078500Y-106750
X204210Y-108500
X206750Y-108500
X068525Y-112375
X068525Y-119995
X144210Y-068500
X146750Y-068500
X105705Y-098558
X113325Y-098558
X164250Y-078500
X166790Y-078500
X154250Y-128500
X156790Y-128500
X164210Y-038500
X166750Y-038500
X214210Y-038500
X216750Y-038500
X164250Y-108500
X166790Y-108500
X184210Y-048500
X186750Y-048500
X124250Y-128500
X126790Y-128500
X134250Y-098500
X136790Y-098500
X089605Y-068542
X097225Y-068542
X105705Y-068567
X113325Y-068567
X105705Y-088561
X113325Y-088561
X194210Y-128500
X196750Y-128500
X174210Y-088500
X176750Y-088500
X214210Y-098500
X216750Y-098500
X184210Y-068500
X186750Y-068500
X082625Y-112355
X082625Y-119975
X174210Y-128500
X176750Y-128500
X105705Y-128550
X113325Y-128550
X134210Y-068500
X136750Y-068500
X154210Y-078500
X156750Y-078500
X164210Y-048500
X166750Y-048500
X174250Y-038500
X176790Y-038500
X144210Y-038500
X146750Y-038500
X194250Y-038500
X196790Y-038500
X154250Y-108500
X156790Y-108500
X214210Y-048500
X216750Y-048500
X144250Y-118500
X146790Y-118500
X154250Y-098500
X156790Y-098500
X105705Y-078564
X113325Y-078564
X105705Y-058569
X113325Y-058569
X184210Y-088500
X186750Y-088500
X184210Y-128500
X186750Y-128500
X204210Y-078500
X206750Y-078500
X174210Y-108500
X176750Y-108500
X194250Y-068500
X196790Y-068500
X184250Y-118500
X186790Y-118500
X105705Y-108556
X113325Y-108556
X134210Y-058500
X136750Y-058500
X144210Y-078500
X146750Y-078500
X164250Y-128500
X166790Y-128500
X184210Y-038500
X186750Y-038500
X164250Y-088500
X166790Y-088500
X124250Y-118500
X126790Y-118500
X144250Y-098500
X146790Y-098500
X105705Y-048572
X113325Y-048572
X089605Y-108531
X097225Y-108531
X174250Y-078500
X176790Y-078500
X214210Y-118500
X216750Y-118500
X194210Y-088500
X196750Y-088500
X194210Y-098500
X196750Y-098500
X174210Y-068500
X176750Y-068500
X154210Y-068500
X156750Y-068500
X164210Y-068500
X166750Y-068500
X144210Y-058500
X146750Y-058500
X134210Y-038500
X136750Y-038500
X204210Y-058500
X206750Y-058500
X174250Y-048500
X176790Y-048500
X164250Y-118500
X166790Y-118500
X144250Y-108500
X146790Y-108500
X164250Y-098500
X166790Y-098500
X089605Y-088536
X097225Y-088536
X089605Y-098533
X097225Y-098533
X214210Y-058500
X216750Y-058500
X174210Y-118500
X176750Y-118500
X204210Y-068500
X206750Y-068500
X204210Y-118500
X206750Y-118500
X214210Y-068500
X216750Y-068500
X134250Y-088500
X136790Y-088500
X144250Y-088500
X146790Y-088500
X164210Y-058500
X166750Y-058500
X154250Y-038500
X156790Y-038500
X144210Y-048500
X146750Y-048500
X194210Y-058500
X196750Y-058500
X184210Y-058500
X186750Y-058500
X154250Y-118500
X156790Y-118500
X124250Y-098500
X126790Y-098500
X105705Y-038575
X113325Y-038575
X073170Y-119986
X075710Y-119986
X078250Y-119986
X089605Y-038550
X097225Y-038550
X184210Y-078500
X186750Y-078500
X194250Y-108500
X196790Y-108500
X204210Y-088500
X206750Y-088500
X214210Y-108500
X216750Y-108500
X184210Y-098500
X186750Y-098500
X134210Y-078500
X136750Y-078500
X105705Y-118553
X113325Y-118553
X124210Y-088500
X126750Y-088500
X124250Y-078500
X126790Y-078500
X124210Y-038500
X126750Y-038500
X134250Y-128500
X136790Y-128500
X124210Y-048500
X126750Y-048500
X174210Y-058500
X176750Y-058500
X204210Y-048500
X206750Y-048500
X134250Y-118500
X136790Y-118500
X154250Y-088500
X156790Y-088500
X089605Y-118528
X097225Y-118528
X089605Y-078539
X097225Y-078539
X089605Y-048547
X097225Y-048547
T3
X068750Y-099250
X068750Y-101790
T2
X068701Y-063001G85X068701Y-064999
G05
X070701Y-068699G85X072700Y-068699
G05
X074700Y-063001G85X074700Y-064999
G05
T0
M30
