G04 #@! TF.GenerationSoftware,KiCad,Pcbnew,(5.0.0)*
G04 #@! TF.CreationDate,2019-04-16T18:27:59-04:00*
G04 #@! TF.ProjectId,V2 - 2 ,5632202D2032202E6B696361645F7063,rev?*
G04 #@! TF.SameCoordinates,Original*
G04 #@! TF.FileFunction,Copper,L1,Top,Signal*
G04 #@! TF.FilePolarity,Positive*
%FSLAX46Y46*%
G04 Gerber Fmt 4.6, Leading zero omitted, Abs format (unit mm)*
G04 Created by KiCad (PCBNEW (5.0.0)) date 04/16/19 18:27:59*
%MOMM*%
%LPD*%
G01*
G04 APERTURE LIST*
G04 #@! TA.AperFunction,ComponentPad*
%ADD10R,3.500120X3.500120*%
G04 #@! TD*
G04 #@! TA.AperFunction,ComponentPad*
%ADD11R,1.900000X2.000000*%
G04 #@! TD*
G04 #@! TA.AperFunction,ComponentPad*
%ADD12C,1.900000*%
G04 #@! TD*
G04 #@! TA.AperFunction,ComponentPad*
%ADD13R,2.032000X2.032000*%
G04 #@! TD*
G04 #@! TA.AperFunction,ComponentPad*
%ADD14O,2.032000X2.032000*%
G04 #@! TD*
G04 #@! TA.AperFunction,ComponentPad*
%ADD15O,1.501140X2.499360*%
G04 #@! TD*
G04 #@! TA.AperFunction,ComponentPad*
%ADD16C,1.998980*%
G04 #@! TD*
G04 #@! TA.AperFunction,ComponentPad*
%ADD17R,1.700000X1.700000*%
G04 #@! TD*
G04 #@! TA.AperFunction,ComponentPad*
%ADD18O,1.700000X1.700000*%
G04 #@! TD*
G04 #@! TA.AperFunction,Conductor*
%ADD19C,1.100000*%
G04 #@! TD*
G04 APERTURE END LIST*
D10*
G04 #@! TO.P,CON1,1*
G04 #@! TO.N,Net-(CON1-Pad1)*
X74700140Y-64000000D03*
G04 #@! TO.P,CON1,2*
G04 #@! TO.N,GND*
X68700660Y-64000000D03*
G04 #@! TO.P,CON1,3*
G04 #@! TO.N,Net-(CON1-Pad3)*
X71700400Y-68699000D03*
G04 #@! TD*
D11*
G04 #@! TO.P,D1,1*
G04 #@! TO.N,Net-(D1-Pad1)*
X126750000Y-38500000D03*
D12*
G04 #@! TO.P,D1,2*
G04 #@! TO.N,Net-(CON1-Pad1)*
X124210000Y-38500000D03*
G04 #@! TD*
D11*
G04 #@! TO.P,D2,1*
G04 #@! TO.N,Net-(D2-Pad1)*
X136750000Y-38500000D03*
D12*
G04 #@! TO.P,D2,2*
G04 #@! TO.N,Net-(D1-Pad1)*
X134210000Y-38500000D03*
G04 #@! TD*
D11*
G04 #@! TO.P,D3,1*
G04 #@! TO.N,Net-(D3-Pad1)*
X146750000Y-38500000D03*
D12*
G04 #@! TO.P,D3,2*
G04 #@! TO.N,Net-(D2-Pad1)*
X144210000Y-38500000D03*
G04 #@! TD*
D11*
G04 #@! TO.P,D4,1*
G04 #@! TO.N,Net-(D4-Pad1)*
X156790000Y-38500000D03*
D12*
G04 #@! TO.P,D4,2*
G04 #@! TO.N,Net-(D3-Pad1)*
X154250000Y-38500000D03*
G04 #@! TD*
D11*
G04 #@! TO.P,D5,1*
G04 #@! TO.N,Net-(D5-Pad1)*
X166750000Y-38500000D03*
D12*
G04 #@! TO.P,D5,2*
G04 #@! TO.N,Net-(D4-Pad1)*
X164210000Y-38500000D03*
G04 #@! TD*
D11*
G04 #@! TO.P,D6,1*
G04 #@! TO.N,Net-(D6-Pad1)*
X126750000Y-48500000D03*
D12*
G04 #@! TO.P,D6,2*
G04 #@! TO.N,Net-(CON1-Pad1)*
X124210000Y-48500000D03*
G04 #@! TD*
D11*
G04 #@! TO.P,D7,1*
G04 #@! TO.N,Net-(D7-Pad1)*
X136750000Y-48500000D03*
D12*
G04 #@! TO.P,D7,2*
G04 #@! TO.N,Net-(D6-Pad1)*
X134210000Y-48500000D03*
G04 #@! TD*
D11*
G04 #@! TO.P,D8,1*
G04 #@! TO.N,Net-(D8-Pad1)*
X146750000Y-48500000D03*
D12*
G04 #@! TO.P,D8,2*
G04 #@! TO.N,Net-(D7-Pad1)*
X144210000Y-48500000D03*
G04 #@! TD*
D11*
G04 #@! TO.P,D9,1*
G04 #@! TO.N,Net-(D10-Pad2)*
X156790000Y-48500000D03*
D12*
G04 #@! TO.P,D9,2*
G04 #@! TO.N,Net-(D8-Pad1)*
X154250000Y-48500000D03*
G04 #@! TD*
D11*
G04 #@! TO.P,D10,1*
G04 #@! TO.N,Net-(D10-Pad1)*
X166750000Y-48500000D03*
D12*
G04 #@! TO.P,D10,2*
G04 #@! TO.N,Net-(D10-Pad2)*
X164210000Y-48500000D03*
G04 #@! TD*
D11*
G04 #@! TO.P,D11,1*
G04 #@! TO.N,Net-(D11-Pad1)*
X126790000Y-58500000D03*
D12*
G04 #@! TO.P,D11,2*
G04 #@! TO.N,Net-(CON1-Pad1)*
X124250000Y-58500000D03*
G04 #@! TD*
D11*
G04 #@! TO.P,D12,1*
G04 #@! TO.N,Net-(D12-Pad1)*
X136750000Y-58500000D03*
D12*
G04 #@! TO.P,D12,2*
G04 #@! TO.N,Net-(D11-Pad1)*
X134210000Y-58500000D03*
G04 #@! TD*
D11*
G04 #@! TO.P,D13,1*
G04 #@! TO.N,Net-(D13-Pad1)*
X146750000Y-58500000D03*
D12*
G04 #@! TO.P,D13,2*
G04 #@! TO.N,Net-(D12-Pad1)*
X144210000Y-58500000D03*
G04 #@! TD*
D11*
G04 #@! TO.P,D14,1*
G04 #@! TO.N,Net-(D14-Pad1)*
X156750000Y-58500000D03*
D12*
G04 #@! TO.P,D14,2*
G04 #@! TO.N,Net-(D13-Pad1)*
X154210000Y-58500000D03*
G04 #@! TD*
D11*
G04 #@! TO.P,D15,1*
G04 #@! TO.N,Net-(D15-Pad1)*
X166750000Y-58500000D03*
D12*
G04 #@! TO.P,D15,2*
G04 #@! TO.N,Net-(D14-Pad1)*
X164210000Y-58500000D03*
G04 #@! TD*
D11*
G04 #@! TO.P,D16,1*
G04 #@! TO.N,Net-(D16-Pad1)*
X126750000Y-68500000D03*
D12*
G04 #@! TO.P,D16,2*
G04 #@! TO.N,Net-(CON1-Pad1)*
X124210000Y-68500000D03*
G04 #@! TD*
D11*
G04 #@! TO.P,D17,1*
G04 #@! TO.N,Net-(D17-Pad1)*
X136750000Y-68500000D03*
D12*
G04 #@! TO.P,D17,2*
G04 #@! TO.N,Net-(D16-Pad1)*
X134210000Y-68500000D03*
G04 #@! TD*
D11*
G04 #@! TO.P,D18,1*
G04 #@! TO.N,Net-(D18-Pad1)*
X146750000Y-68500000D03*
D12*
G04 #@! TO.P,D18,2*
G04 #@! TO.N,Net-(D17-Pad1)*
X144210000Y-68500000D03*
G04 #@! TD*
D11*
G04 #@! TO.P,D19,1*
G04 #@! TO.N,Net-(D19-Pad1)*
X156750000Y-68500000D03*
D12*
G04 #@! TO.P,D19,2*
G04 #@! TO.N,Net-(D18-Pad1)*
X154210000Y-68500000D03*
G04 #@! TD*
D11*
G04 #@! TO.P,D20,1*
G04 #@! TO.N,Net-(D20-Pad1)*
X166750000Y-68500000D03*
D12*
G04 #@! TO.P,D20,2*
G04 #@! TO.N,Net-(D19-Pad1)*
X164210000Y-68500000D03*
G04 #@! TD*
D11*
G04 #@! TO.P,D21,1*
G04 #@! TO.N,Net-(D21-Pad1)*
X126790000Y-78500000D03*
D12*
G04 #@! TO.P,D21,2*
G04 #@! TO.N,Net-(CON1-Pad1)*
X124250000Y-78500000D03*
G04 #@! TD*
D11*
G04 #@! TO.P,D22,1*
G04 #@! TO.N,Net-(D22-Pad1)*
X136750000Y-78500000D03*
D12*
G04 #@! TO.P,D22,2*
G04 #@! TO.N,Net-(D21-Pad1)*
X134210000Y-78500000D03*
G04 #@! TD*
D11*
G04 #@! TO.P,D23,1*
G04 #@! TO.N,Net-(D23-Pad1)*
X146750000Y-78500000D03*
D12*
G04 #@! TO.P,D23,2*
G04 #@! TO.N,Net-(D22-Pad1)*
X144210000Y-78500000D03*
G04 #@! TD*
D11*
G04 #@! TO.P,D24,1*
G04 #@! TO.N,Net-(D24-Pad1)*
X156750000Y-78500000D03*
D12*
G04 #@! TO.P,D24,2*
G04 #@! TO.N,Net-(D23-Pad1)*
X154210000Y-78500000D03*
G04 #@! TD*
D11*
G04 #@! TO.P,D25,1*
G04 #@! TO.N,Net-(D25-Pad1)*
X166790000Y-78500000D03*
D12*
G04 #@! TO.P,D25,2*
G04 #@! TO.N,Net-(D24-Pad1)*
X164250000Y-78500000D03*
G04 #@! TD*
D11*
G04 #@! TO.P,D26,1*
G04 #@! TO.N,Net-(D26-Pad1)*
X126750000Y-88500000D03*
D12*
G04 #@! TO.P,D26,2*
G04 #@! TO.N,Net-(CON1-Pad1)*
X124210000Y-88500000D03*
G04 #@! TD*
D11*
G04 #@! TO.P,D27,1*
G04 #@! TO.N,Net-(D27-Pad1)*
X136790000Y-88500000D03*
D12*
G04 #@! TO.P,D27,2*
G04 #@! TO.N,Net-(D26-Pad1)*
X134250000Y-88500000D03*
G04 #@! TD*
D11*
G04 #@! TO.P,D28,1*
G04 #@! TO.N,Net-(D28-Pad1)*
X146790000Y-88500000D03*
D12*
G04 #@! TO.P,D28,2*
G04 #@! TO.N,Net-(D27-Pad1)*
X144250000Y-88500000D03*
G04 #@! TD*
D11*
G04 #@! TO.P,D29,1*
G04 #@! TO.N,Net-(D29-Pad1)*
X156790000Y-88500000D03*
D12*
G04 #@! TO.P,D29,2*
G04 #@! TO.N,Net-(D28-Pad1)*
X154250000Y-88500000D03*
G04 #@! TD*
D11*
G04 #@! TO.P,D30,1*
G04 #@! TO.N,Net-(D30-Pad1)*
X166790000Y-88500000D03*
D12*
G04 #@! TO.P,D30,2*
G04 #@! TO.N,Net-(D29-Pad1)*
X164250000Y-88500000D03*
G04 #@! TD*
D11*
G04 #@! TO.P,D31,1*
G04 #@! TO.N,Net-(D31-Pad1)*
X126790000Y-98500000D03*
D12*
G04 #@! TO.P,D31,2*
G04 #@! TO.N,Net-(CON1-Pad1)*
X124250000Y-98500000D03*
G04 #@! TD*
D11*
G04 #@! TO.P,D32,1*
G04 #@! TO.N,Net-(D32-Pad1)*
X136790000Y-98500000D03*
D12*
G04 #@! TO.P,D32,2*
G04 #@! TO.N,Net-(D31-Pad1)*
X134250000Y-98500000D03*
G04 #@! TD*
D11*
G04 #@! TO.P,D33,1*
G04 #@! TO.N,Net-(D33-Pad1)*
X146790000Y-98500000D03*
D12*
G04 #@! TO.P,D33,2*
G04 #@! TO.N,Net-(D32-Pad1)*
X144250000Y-98500000D03*
G04 #@! TD*
D11*
G04 #@! TO.P,D34,1*
G04 #@! TO.N,Net-(D34-Pad1)*
X156790000Y-98500000D03*
D12*
G04 #@! TO.P,D34,2*
G04 #@! TO.N,Net-(D33-Pad1)*
X154250000Y-98500000D03*
G04 #@! TD*
D11*
G04 #@! TO.P,D35,1*
G04 #@! TO.N,Net-(D35-Pad1)*
X166790000Y-98500000D03*
D12*
G04 #@! TO.P,D35,2*
G04 #@! TO.N,Net-(D34-Pad1)*
X164250000Y-98500000D03*
G04 #@! TD*
D11*
G04 #@! TO.P,D36,1*
G04 #@! TO.N,Net-(D36-Pad1)*
X126790000Y-108500000D03*
D12*
G04 #@! TO.P,D36,2*
G04 #@! TO.N,Net-(CON1-Pad1)*
X124250000Y-108500000D03*
G04 #@! TD*
D11*
G04 #@! TO.P,D37,1*
G04 #@! TO.N,Net-(D37-Pad1)*
X136790000Y-108500000D03*
D12*
G04 #@! TO.P,D37,2*
G04 #@! TO.N,Net-(D36-Pad1)*
X134250000Y-108500000D03*
G04 #@! TD*
D11*
G04 #@! TO.P,D38,1*
G04 #@! TO.N,Net-(D38-Pad1)*
X146790000Y-108500000D03*
D12*
G04 #@! TO.P,D38,2*
G04 #@! TO.N,Net-(D37-Pad1)*
X144250000Y-108500000D03*
G04 #@! TD*
D11*
G04 #@! TO.P,D39,1*
G04 #@! TO.N,Net-(D39-Pad1)*
X156790000Y-108500000D03*
D12*
G04 #@! TO.P,D39,2*
G04 #@! TO.N,Net-(D38-Pad1)*
X154250000Y-108500000D03*
G04 #@! TD*
D11*
G04 #@! TO.P,D40,1*
G04 #@! TO.N,Net-(D40-Pad1)*
X166790000Y-108500000D03*
D12*
G04 #@! TO.P,D40,2*
G04 #@! TO.N,Net-(D39-Pad1)*
X164250000Y-108500000D03*
G04 #@! TD*
D11*
G04 #@! TO.P,D41,1*
G04 #@! TO.N,Net-(D41-Pad1)*
X126790000Y-118500000D03*
D12*
G04 #@! TO.P,D41,2*
G04 #@! TO.N,Net-(CON1-Pad1)*
X124250000Y-118500000D03*
G04 #@! TD*
D11*
G04 #@! TO.P,D42,1*
G04 #@! TO.N,Net-(D42-Pad1)*
X136790000Y-118500000D03*
D12*
G04 #@! TO.P,D42,2*
G04 #@! TO.N,Net-(D41-Pad1)*
X134250000Y-118500000D03*
G04 #@! TD*
D11*
G04 #@! TO.P,D43,1*
G04 #@! TO.N,Net-(D43-Pad1)*
X146790000Y-118500000D03*
D12*
G04 #@! TO.P,D43,2*
G04 #@! TO.N,Net-(D42-Pad1)*
X144250000Y-118500000D03*
G04 #@! TD*
D11*
G04 #@! TO.P,D44,1*
G04 #@! TO.N,Net-(D44-Pad1)*
X156790000Y-118500000D03*
D12*
G04 #@! TO.P,D44,2*
G04 #@! TO.N,Net-(D43-Pad1)*
X154250000Y-118500000D03*
G04 #@! TD*
D11*
G04 #@! TO.P,D45,1*
G04 #@! TO.N,Net-(D45-Pad1)*
X166790000Y-118500000D03*
D12*
G04 #@! TO.P,D45,2*
G04 #@! TO.N,Net-(D44-Pad1)*
X164250000Y-118500000D03*
G04 #@! TD*
D11*
G04 #@! TO.P,D46,1*
G04 #@! TO.N,Net-(D46-Pad1)*
X126790000Y-128500000D03*
D12*
G04 #@! TO.P,D46,2*
G04 #@! TO.N,Net-(CON1-Pad1)*
X124250000Y-128500000D03*
G04 #@! TD*
D11*
G04 #@! TO.P,D47,1*
G04 #@! TO.N,Net-(D47-Pad1)*
X136790000Y-128500000D03*
D12*
G04 #@! TO.P,D47,2*
G04 #@! TO.N,Net-(D46-Pad1)*
X134250000Y-128500000D03*
G04 #@! TD*
D11*
G04 #@! TO.P,D48,1*
G04 #@! TO.N,Net-(D48-Pad1)*
X146790000Y-128500000D03*
D12*
G04 #@! TO.P,D48,2*
G04 #@! TO.N,Net-(D47-Pad1)*
X144250000Y-128500000D03*
G04 #@! TD*
D11*
G04 #@! TO.P,D49,1*
G04 #@! TO.N,Net-(D49-Pad1)*
X156790000Y-128500000D03*
D12*
G04 #@! TO.P,D49,2*
G04 #@! TO.N,Net-(D48-Pad1)*
X154250000Y-128500000D03*
G04 #@! TD*
D11*
G04 #@! TO.P,D50,1*
G04 #@! TO.N,Net-(D50-Pad1)*
X166790000Y-128500000D03*
D12*
G04 #@! TO.P,D50,2*
G04 #@! TO.N,Net-(D49-Pad1)*
X164250000Y-128500000D03*
G04 #@! TD*
D11*
G04 #@! TO.P,D51,1*
G04 #@! TO.N,Net-(D51-Pad1)*
X176790000Y-38500000D03*
D12*
G04 #@! TO.P,D51,2*
G04 #@! TO.N,Net-(CON1-Pad1)*
X174250000Y-38500000D03*
G04 #@! TD*
D11*
G04 #@! TO.P,D52,1*
G04 #@! TO.N,Net-(D52-Pad1)*
X186750000Y-38500000D03*
D12*
G04 #@! TO.P,D52,2*
G04 #@! TO.N,Net-(D51-Pad1)*
X184210000Y-38500000D03*
G04 #@! TD*
D11*
G04 #@! TO.P,D53,1*
G04 #@! TO.N,Net-(D53-Pad1)*
X196790000Y-38500000D03*
D12*
G04 #@! TO.P,D53,2*
G04 #@! TO.N,Net-(D52-Pad1)*
X194250000Y-38500000D03*
G04 #@! TD*
D11*
G04 #@! TO.P,D54,1*
G04 #@! TO.N,Net-(D54-Pad1)*
X206790000Y-38500000D03*
D12*
G04 #@! TO.P,D54,2*
G04 #@! TO.N,Net-(D53-Pad1)*
X204250000Y-38500000D03*
G04 #@! TD*
D11*
G04 #@! TO.P,D55,1*
G04 #@! TO.N,Net-(D55-Pad1)*
X216750000Y-38500000D03*
D12*
G04 #@! TO.P,D55,2*
G04 #@! TO.N,Net-(D54-Pad1)*
X214210000Y-38500000D03*
G04 #@! TD*
D11*
G04 #@! TO.P,D56,1*
G04 #@! TO.N,Net-(D56-Pad1)*
X176790000Y-48500000D03*
D12*
G04 #@! TO.P,D56,2*
G04 #@! TO.N,Net-(CON1-Pad1)*
X174250000Y-48500000D03*
G04 #@! TD*
D11*
G04 #@! TO.P,D57,1*
G04 #@! TO.N,Net-(D57-Pad1)*
X186750000Y-48500000D03*
D12*
G04 #@! TO.P,D57,2*
G04 #@! TO.N,Net-(D56-Pad1)*
X184210000Y-48500000D03*
G04 #@! TD*
D11*
G04 #@! TO.P,D58,1*
G04 #@! TO.N,Net-(D58-Pad1)*
X196750000Y-48500000D03*
D12*
G04 #@! TO.P,D58,2*
G04 #@! TO.N,Net-(D57-Pad1)*
X194210000Y-48500000D03*
G04 #@! TD*
D11*
G04 #@! TO.P,D59,1*
G04 #@! TO.N,Net-(D59-Pad1)*
X206750000Y-48500000D03*
D12*
G04 #@! TO.P,D59,2*
G04 #@! TO.N,Net-(D58-Pad1)*
X204210000Y-48500000D03*
G04 #@! TD*
D11*
G04 #@! TO.P,D60,1*
G04 #@! TO.N,Net-(D60-Pad1)*
X216750000Y-48500000D03*
D12*
G04 #@! TO.P,D60,2*
G04 #@! TO.N,Net-(D59-Pad1)*
X214210000Y-48500000D03*
G04 #@! TD*
D11*
G04 #@! TO.P,D61,1*
G04 #@! TO.N,Net-(D61-Pad1)*
X176750000Y-58500000D03*
D12*
G04 #@! TO.P,D61,2*
G04 #@! TO.N,Net-(CON1-Pad1)*
X174210000Y-58500000D03*
G04 #@! TD*
D11*
G04 #@! TO.P,D62,1*
G04 #@! TO.N,Net-(D62-Pad1)*
X186750000Y-58500000D03*
D12*
G04 #@! TO.P,D62,2*
G04 #@! TO.N,Net-(D61-Pad1)*
X184210000Y-58500000D03*
G04 #@! TD*
D11*
G04 #@! TO.P,D63,1*
G04 #@! TO.N,Net-(D63-Pad1)*
X196750000Y-58500000D03*
D12*
G04 #@! TO.P,D63,2*
G04 #@! TO.N,Net-(D62-Pad1)*
X194210000Y-58500000D03*
G04 #@! TD*
D11*
G04 #@! TO.P,D64,1*
G04 #@! TO.N,Net-(D64-Pad1)*
X206750000Y-58500000D03*
D12*
G04 #@! TO.P,D64,2*
G04 #@! TO.N,Net-(D63-Pad1)*
X204210000Y-58500000D03*
G04 #@! TD*
D11*
G04 #@! TO.P,D65,1*
G04 #@! TO.N,Net-(D65-Pad1)*
X216750000Y-58500000D03*
D12*
G04 #@! TO.P,D65,2*
G04 #@! TO.N,Net-(D64-Pad1)*
X214210000Y-58500000D03*
G04 #@! TD*
D11*
G04 #@! TO.P,D66,1*
G04 #@! TO.N,Net-(D66-Pad1)*
X176750000Y-68500000D03*
D12*
G04 #@! TO.P,D66,2*
G04 #@! TO.N,Net-(CON1-Pad1)*
X174210000Y-68500000D03*
G04 #@! TD*
D11*
G04 #@! TO.P,D67,1*
G04 #@! TO.N,Net-(D67-Pad1)*
X186750000Y-68500000D03*
D12*
G04 #@! TO.P,D67,2*
G04 #@! TO.N,Net-(D66-Pad1)*
X184210000Y-68500000D03*
G04 #@! TD*
D11*
G04 #@! TO.P,D68,1*
G04 #@! TO.N,Net-(D68-Pad1)*
X196790000Y-68500000D03*
D12*
G04 #@! TO.P,D68,2*
G04 #@! TO.N,Net-(D67-Pad1)*
X194250000Y-68500000D03*
G04 #@! TD*
D11*
G04 #@! TO.P,D69,1*
G04 #@! TO.N,Net-(D69-Pad1)*
X206750000Y-68500000D03*
D12*
G04 #@! TO.P,D69,2*
G04 #@! TO.N,Net-(D68-Pad1)*
X204210000Y-68500000D03*
G04 #@! TD*
D11*
G04 #@! TO.P,D70,1*
G04 #@! TO.N,Net-(D70-Pad1)*
X216750000Y-68500000D03*
D12*
G04 #@! TO.P,D70,2*
G04 #@! TO.N,Net-(D69-Pad1)*
X214210000Y-68500000D03*
G04 #@! TD*
D11*
G04 #@! TO.P,D71,1*
G04 #@! TO.N,Net-(D71-Pad1)*
X176790000Y-78500000D03*
D12*
G04 #@! TO.P,D71,2*
G04 #@! TO.N,Net-(CON1-Pad1)*
X174250000Y-78500000D03*
G04 #@! TD*
D11*
G04 #@! TO.P,D72,1*
G04 #@! TO.N,Net-(D72-Pad1)*
X186750000Y-78500000D03*
D12*
G04 #@! TO.P,D72,2*
G04 #@! TO.N,Net-(D71-Pad1)*
X184210000Y-78500000D03*
G04 #@! TD*
D11*
G04 #@! TO.P,D73,1*
G04 #@! TO.N,Net-(D73-Pad1)*
X196790000Y-78500000D03*
D12*
G04 #@! TO.P,D73,2*
G04 #@! TO.N,Net-(D72-Pad1)*
X194250000Y-78500000D03*
G04 #@! TD*
D11*
G04 #@! TO.P,D74,1*
G04 #@! TO.N,Net-(D74-Pad1)*
X206750000Y-78500000D03*
D12*
G04 #@! TO.P,D74,2*
G04 #@! TO.N,Net-(D73-Pad1)*
X204210000Y-78500000D03*
G04 #@! TD*
D11*
G04 #@! TO.P,D75,1*
G04 #@! TO.N,Net-(D75-Pad1)*
X216750000Y-78500000D03*
D12*
G04 #@! TO.P,D75,2*
G04 #@! TO.N,Net-(D74-Pad1)*
X214210000Y-78500000D03*
G04 #@! TD*
D11*
G04 #@! TO.P,D76,1*
G04 #@! TO.N,Net-(D76-Pad1)*
X176750000Y-88500000D03*
D12*
G04 #@! TO.P,D76,2*
G04 #@! TO.N,Net-(CON1-Pad1)*
X174210000Y-88500000D03*
G04 #@! TD*
D11*
G04 #@! TO.P,D77,1*
G04 #@! TO.N,Net-(D77-Pad1)*
X186750000Y-88500000D03*
D12*
G04 #@! TO.P,D77,2*
G04 #@! TO.N,Net-(D76-Pad1)*
X184210000Y-88500000D03*
G04 #@! TD*
D11*
G04 #@! TO.P,D78,1*
G04 #@! TO.N,Net-(D78-Pad1)*
X196750000Y-88500000D03*
D12*
G04 #@! TO.P,D78,2*
G04 #@! TO.N,Net-(D77-Pad1)*
X194210000Y-88500000D03*
G04 #@! TD*
D11*
G04 #@! TO.P,D79,1*
G04 #@! TO.N,Net-(D79-Pad1)*
X206750000Y-88500000D03*
D12*
G04 #@! TO.P,D79,2*
G04 #@! TO.N,Net-(D78-Pad1)*
X204210000Y-88500000D03*
G04 #@! TD*
D11*
G04 #@! TO.P,D80,1*
G04 #@! TO.N,Net-(D80-Pad1)*
X216750000Y-88500000D03*
D12*
G04 #@! TO.P,D80,2*
G04 #@! TO.N,Net-(D79-Pad1)*
X214210000Y-88500000D03*
G04 #@! TD*
D11*
G04 #@! TO.P,D81,1*
G04 #@! TO.N,Net-(D81-Pad1)*
X176750000Y-98500000D03*
D12*
G04 #@! TO.P,D81,2*
G04 #@! TO.N,Net-(CON1-Pad1)*
X174210000Y-98500000D03*
G04 #@! TD*
D11*
G04 #@! TO.P,D82,1*
G04 #@! TO.N,Net-(D82-Pad1)*
X186750000Y-98500000D03*
D12*
G04 #@! TO.P,D82,2*
G04 #@! TO.N,Net-(D81-Pad1)*
X184210000Y-98500000D03*
G04 #@! TD*
D11*
G04 #@! TO.P,D83,1*
G04 #@! TO.N,Net-(D83-Pad1)*
X196750000Y-98500000D03*
D12*
G04 #@! TO.P,D83,2*
G04 #@! TO.N,Net-(D82-Pad1)*
X194210000Y-98500000D03*
G04 #@! TD*
D11*
G04 #@! TO.P,D84,1*
G04 #@! TO.N,Net-(D84-Pad1)*
X206750000Y-98500000D03*
D12*
G04 #@! TO.P,D84,2*
G04 #@! TO.N,Net-(D83-Pad1)*
X204210000Y-98500000D03*
G04 #@! TD*
D11*
G04 #@! TO.P,D85,1*
G04 #@! TO.N,Net-(D85-Pad1)*
X216750000Y-98500000D03*
D12*
G04 #@! TO.P,D85,2*
G04 #@! TO.N,Net-(D84-Pad1)*
X214210000Y-98500000D03*
G04 #@! TD*
D11*
G04 #@! TO.P,D86,1*
G04 #@! TO.N,Net-(D86-Pad1)*
X176750000Y-108500000D03*
D12*
G04 #@! TO.P,D86,2*
G04 #@! TO.N,Net-(CON1-Pad1)*
X174210000Y-108500000D03*
G04 #@! TD*
D11*
G04 #@! TO.P,D87,1*
G04 #@! TO.N,Net-(D87-Pad1)*
X186750000Y-108500000D03*
D12*
G04 #@! TO.P,D87,2*
G04 #@! TO.N,Net-(D86-Pad1)*
X184210000Y-108500000D03*
G04 #@! TD*
D11*
G04 #@! TO.P,D88,1*
G04 #@! TO.N,Net-(D88-Pad1)*
X196790000Y-108500000D03*
D12*
G04 #@! TO.P,D88,2*
G04 #@! TO.N,Net-(D87-Pad1)*
X194250000Y-108500000D03*
G04 #@! TD*
D11*
G04 #@! TO.P,D89,1*
G04 #@! TO.N,Net-(D89-Pad1)*
X206750000Y-108500000D03*
D12*
G04 #@! TO.P,D89,2*
G04 #@! TO.N,Net-(D88-Pad1)*
X204210000Y-108500000D03*
G04 #@! TD*
D11*
G04 #@! TO.P,D90,1*
G04 #@! TO.N,Net-(D90-Pad1)*
X216750000Y-108500000D03*
D12*
G04 #@! TO.P,D90,2*
G04 #@! TO.N,Net-(D89-Pad1)*
X214210000Y-108500000D03*
G04 #@! TD*
D11*
G04 #@! TO.P,D91,1*
G04 #@! TO.N,Net-(D91-Pad1)*
X176750000Y-118500000D03*
D12*
G04 #@! TO.P,D91,2*
G04 #@! TO.N,Net-(CON1-Pad1)*
X174210000Y-118500000D03*
G04 #@! TD*
D11*
G04 #@! TO.P,D92,1*
G04 #@! TO.N,Net-(D92-Pad1)*
X186790000Y-118500000D03*
D12*
G04 #@! TO.P,D92,2*
G04 #@! TO.N,Net-(D91-Pad1)*
X184250000Y-118500000D03*
G04 #@! TD*
D11*
G04 #@! TO.P,D93,1*
G04 #@! TO.N,Net-(D93-Pad1)*
X196750000Y-118500000D03*
D12*
G04 #@! TO.P,D93,2*
G04 #@! TO.N,Net-(D92-Pad1)*
X194210000Y-118500000D03*
G04 #@! TD*
D11*
G04 #@! TO.P,D94,1*
G04 #@! TO.N,Net-(D94-Pad1)*
X206750000Y-118500000D03*
D12*
G04 #@! TO.P,D94,2*
G04 #@! TO.N,Net-(D93-Pad1)*
X204210000Y-118500000D03*
G04 #@! TD*
D11*
G04 #@! TO.P,D95,1*
G04 #@! TO.N,Net-(D95-Pad1)*
X216750000Y-118500000D03*
D12*
G04 #@! TO.P,D95,2*
G04 #@! TO.N,Net-(D94-Pad1)*
X214210000Y-118500000D03*
G04 #@! TD*
D11*
G04 #@! TO.P,D96,1*
G04 #@! TO.N,Net-(D96-Pad1)*
X176750000Y-128500000D03*
D12*
G04 #@! TO.P,D96,2*
G04 #@! TO.N,Net-(CON1-Pad1)*
X174210000Y-128500000D03*
G04 #@! TD*
D11*
G04 #@! TO.P,D97,1*
G04 #@! TO.N,Net-(D97-Pad1)*
X186750000Y-128500000D03*
D12*
G04 #@! TO.P,D97,2*
G04 #@! TO.N,Net-(D96-Pad1)*
X184210000Y-128500000D03*
G04 #@! TD*
D11*
G04 #@! TO.P,D98,1*
G04 #@! TO.N,Net-(D98-Pad1)*
X196750000Y-128500000D03*
D12*
G04 #@! TO.P,D98,2*
G04 #@! TO.N,Net-(D97-Pad1)*
X194210000Y-128500000D03*
G04 #@! TD*
D11*
G04 #@! TO.P,D99,1*
G04 #@! TO.N,Net-(D100-Pad2)*
X206750000Y-128500000D03*
D12*
G04 #@! TO.P,D99,2*
G04 #@! TO.N,Net-(D98-Pad1)*
X204210000Y-128500000D03*
G04 #@! TD*
D11*
G04 #@! TO.P,D100,1*
G04 #@! TO.N,Net-(D100-Pad1)*
X216750000Y-128500000D03*
D12*
G04 #@! TO.P,D100,2*
G04 #@! TO.N,Net-(D100-Pad2)*
X214210000Y-128500000D03*
G04 #@! TD*
D13*
G04 #@! TO.P,RP1,1*
G04 #@! TO.N,Net-(P1-Pad1)*
X68750000Y-99250000D03*
D14*
G04 #@! TO.P,RP1,2*
G04 #@! TO.N,GND*
X68750000Y-101790000D03*
G04 #@! TD*
D15*
G04 #@! TO.P,Q1,2*
G04 #@! TO.N,Net-(Q1-Pad2)*
X75710000Y-119986000D03*
G04 #@! TO.P,Q1,1*
G04 #@! TO.N,Net-(Q1-Pad1)*
X78250000Y-119986000D03*
G04 #@! TO.P,Q1,3*
G04 #@! TO.N,GND*
X73170000Y-119986000D03*
G04 #@! TD*
D16*
G04 #@! TO.P,R1,1*
G04 #@! TO.N,Net-(D5-Pad1)*
X97225000Y-38550000D03*
G04 #@! TO.P,R1,2*
G04 #@! TO.N,Net-(Q1-Pad2)*
X89605000Y-38550000D03*
G04 #@! TD*
G04 #@! TO.P,R2,1*
G04 #@! TO.N,Net-(D10-Pad1)*
X97225000Y-48547222D03*
G04 #@! TO.P,R2,2*
G04 #@! TO.N,Net-(Q1-Pad2)*
X89605000Y-48547222D03*
G04 #@! TD*
G04 #@! TO.P,R3,1*
G04 #@! TO.N,Net-(D15-Pad1)*
X97225000Y-58544444D03*
G04 #@! TO.P,R3,2*
G04 #@! TO.N,Net-(Q1-Pad2)*
X89605000Y-58544444D03*
G04 #@! TD*
G04 #@! TO.P,R4,1*
G04 #@! TO.N,Net-(D20-Pad1)*
X97225000Y-68541666D03*
G04 #@! TO.P,R4,2*
G04 #@! TO.N,Net-(Q1-Pad2)*
X89605000Y-68541666D03*
G04 #@! TD*
G04 #@! TO.P,R5,1*
G04 #@! TO.N,Net-(D25-Pad1)*
X97225000Y-78538888D03*
G04 #@! TO.P,R5,2*
G04 #@! TO.N,Net-(Q1-Pad2)*
X89605000Y-78538888D03*
G04 #@! TD*
G04 #@! TO.P,R6,1*
G04 #@! TO.N,Net-(D30-Pad1)*
X97225000Y-88536110D03*
G04 #@! TO.P,R6,2*
G04 #@! TO.N,Net-(Q1-Pad2)*
X89605000Y-88536110D03*
G04 #@! TD*
G04 #@! TO.P,R7,1*
G04 #@! TO.N,Net-(D35-Pad1)*
X97225000Y-98533332D03*
G04 #@! TO.P,R7,2*
G04 #@! TO.N,Net-(Q1-Pad2)*
X89605000Y-98533332D03*
G04 #@! TD*
G04 #@! TO.P,R8,1*
G04 #@! TO.N,Net-(D40-Pad1)*
X97225000Y-108530554D03*
G04 #@! TO.P,R8,2*
G04 #@! TO.N,Net-(Q1-Pad2)*
X89605000Y-108530554D03*
G04 #@! TD*
G04 #@! TO.P,R9,1*
G04 #@! TO.N,Net-(D45-Pad1)*
X97225000Y-118527776D03*
G04 #@! TO.P,R9,2*
G04 #@! TO.N,Net-(Q1-Pad2)*
X89605000Y-118527776D03*
G04 #@! TD*
G04 #@! TO.P,R10,1*
G04 #@! TO.N,Net-(D50-Pad1)*
X97225000Y-128524998D03*
G04 #@! TO.P,R10,2*
G04 #@! TO.N,Net-(Q1-Pad2)*
X89605000Y-128524998D03*
G04 #@! TD*
G04 #@! TO.P,R11,1*
G04 #@! TO.N,Net-(D55-Pad1)*
X113325000Y-38575000D03*
G04 #@! TO.P,R11,2*
G04 #@! TO.N,Net-(Q1-Pad2)*
X105705000Y-38575000D03*
G04 #@! TD*
G04 #@! TO.P,R12,1*
G04 #@! TO.N,Net-(D60-Pad1)*
X113325000Y-48572222D03*
G04 #@! TO.P,R12,2*
G04 #@! TO.N,Net-(Q1-Pad2)*
X105705000Y-48572222D03*
G04 #@! TD*
G04 #@! TO.P,R13,1*
G04 #@! TO.N,Net-(D65-Pad1)*
X113325000Y-58569444D03*
G04 #@! TO.P,R13,2*
G04 #@! TO.N,Net-(Q1-Pad2)*
X105705000Y-58569444D03*
G04 #@! TD*
G04 #@! TO.P,R14,1*
G04 #@! TO.N,Net-(D70-Pad1)*
X113325000Y-68566666D03*
G04 #@! TO.P,R14,2*
G04 #@! TO.N,Net-(Q1-Pad2)*
X105705000Y-68566666D03*
G04 #@! TD*
G04 #@! TO.P,R15,1*
G04 #@! TO.N,Net-(D75-Pad1)*
X113325000Y-78563888D03*
G04 #@! TO.P,R15,2*
G04 #@! TO.N,Net-(Q1-Pad2)*
X105705000Y-78563888D03*
G04 #@! TD*
G04 #@! TO.P,R16,1*
G04 #@! TO.N,Net-(D80-Pad1)*
X113325000Y-88561110D03*
G04 #@! TO.P,R16,2*
G04 #@! TO.N,Net-(Q1-Pad2)*
X105705000Y-88561110D03*
G04 #@! TD*
G04 #@! TO.P,R17,1*
G04 #@! TO.N,Net-(D85-Pad1)*
X113325000Y-98558332D03*
G04 #@! TO.P,R17,2*
G04 #@! TO.N,Net-(Q1-Pad2)*
X105705000Y-98558332D03*
G04 #@! TD*
G04 #@! TO.P,R18,1*
G04 #@! TO.N,Net-(D90-Pad1)*
X113325000Y-108555554D03*
G04 #@! TO.P,R18,2*
G04 #@! TO.N,Net-(Q1-Pad2)*
X105705000Y-108555554D03*
G04 #@! TD*
G04 #@! TO.P,R19,1*
G04 #@! TO.N,Net-(D95-Pad1)*
X113325000Y-118552776D03*
G04 #@! TO.P,R19,2*
G04 #@! TO.N,Net-(Q1-Pad2)*
X105705000Y-118552776D03*
G04 #@! TD*
G04 #@! TO.P,R20,1*
G04 #@! TO.N,Net-(D100-Pad1)*
X113325000Y-128549998D03*
G04 #@! TO.P,R20,2*
G04 #@! TO.N,Net-(Q1-Pad2)*
X105705000Y-128549998D03*
G04 #@! TD*
G04 #@! TO.P,R21,1*
G04 #@! TO.N,Net-(Q1-Pad1)*
X78500000Y-106750000D03*
G04 #@! TO.P,R21,2*
G04 #@! TO.N,Net-(P1-Pad1)*
X78500000Y-99130000D03*
G04 #@! TD*
G04 #@! TO.P,R22,1*
G04 #@! TO.N,Net-(Q1-Pad2)*
X82625000Y-119975000D03*
G04 #@! TO.P,R22,2*
G04 #@! TO.N,Net-(Q1-Pad1)*
X82625000Y-112355000D03*
G04 #@! TD*
G04 #@! TO.P,R23,1*
G04 #@! TO.N,Net-(Q1-Pad1)*
X68525000Y-112375000D03*
G04 #@! TO.P,R23,2*
G04 #@! TO.N,GND*
X68525000Y-119995000D03*
G04 #@! TD*
D17*
G04 #@! TO.P,SW1,1*
G04 #@! TO.N,Net-(Q1-Pad2)*
X69250000Y-87500000D03*
D18*
G04 #@! TO.P,SW1,2*
G04 #@! TO.N,GND*
X69250000Y-90040000D03*
G04 #@! TD*
D19*
G04 #@! TO.N,Net-(CON1-Pad1)*
X174210000Y-118500000D02*
X174210000Y-128500000D01*
X174210000Y-108500000D02*
X174210000Y-118500000D01*
X174210000Y-98500000D02*
X174210000Y-108500000D01*
X174210000Y-88500000D02*
X174210000Y-98500000D01*
X174250000Y-78500000D02*
X174250000Y-88460000D01*
X174250000Y-88460000D02*
X174210000Y-88500000D01*
X174210000Y-68500000D02*
X174210000Y-78460000D01*
X174210000Y-78460000D02*
X174250000Y-78500000D01*
X174210000Y-58500000D02*
X174210000Y-68500000D01*
X174250000Y-48500000D02*
X174250000Y-58460000D01*
X174250000Y-58460000D02*
X174210000Y-58500000D01*
X174250000Y-38500000D02*
X174250000Y-48500000D01*
X129025000Y-31775000D02*
X167525000Y-31775000D01*
X167525000Y-31775000D02*
X174250000Y-38500000D01*
X124210000Y-36590000D02*
X129025000Y-31775000D01*
X124210000Y-38500000D02*
X124210000Y-36590000D01*
X124250000Y-118500000D02*
X124250000Y-128500000D01*
X124250000Y-108500000D02*
X124250000Y-118500000D01*
X124250000Y-98500000D02*
X124250000Y-99843502D01*
X124250000Y-99843502D02*
X124250000Y-108500000D01*
X124210000Y-88500000D02*
X124210000Y-98460000D01*
X124210000Y-98460000D02*
X124250000Y-98500000D01*
X124250000Y-78500000D02*
X124250000Y-88460000D01*
X124250000Y-88460000D02*
X124210000Y-88500000D01*
X124210000Y-68500000D02*
X124210000Y-78460000D01*
X124210000Y-78460000D02*
X124250000Y-78500000D01*
X124250000Y-58500000D02*
X124250000Y-68460000D01*
X124250000Y-68460000D02*
X124210000Y-68500000D01*
X124210000Y-48500000D02*
X124210000Y-58460000D01*
X124210000Y-58460000D02*
X124250000Y-58500000D01*
X124210000Y-38500000D02*
X124150000Y-38560000D01*
X124150000Y-38560000D02*
X124150000Y-48500000D01*
X124150000Y-48500000D02*
X124180000Y-48530000D01*
X124180000Y-48530000D02*
X124210000Y-48500000D01*
X74700140Y-43599860D02*
X74700140Y-64000000D01*
X82860000Y-35440000D02*
X74700140Y-43599860D01*
X118930000Y-35440000D02*
X82860000Y-35440000D01*
X121040001Y-37550001D02*
X118930000Y-35440000D01*
X124210000Y-38500000D02*
X123260001Y-37550001D01*
X123260001Y-37550001D02*
X121040001Y-37550001D01*
G04 #@! TO.N,GND*
X68525000Y-119995000D02*
X73161000Y-119995000D01*
X73161000Y-119995000D02*
X73170000Y-119986000D01*
X67313160Y-101790000D02*
X65590000Y-103513160D01*
X68750000Y-101790000D02*
X67313160Y-101790000D01*
X65590000Y-103513160D02*
X65590000Y-119260000D01*
X66325000Y-119995000D02*
X68525000Y-119995000D01*
X65590000Y-119260000D02*
X66325000Y-119995000D01*
X68700660Y-64000000D02*
X68700660Y-66850060D01*
X68047919Y-90040000D02*
X69250000Y-90040000D01*
X68700660Y-66850060D02*
X68130000Y-67420720D01*
X68130000Y-67420720D02*
X68130000Y-81160000D01*
X68130000Y-81160000D02*
X66860000Y-82430000D01*
X66860000Y-82430000D02*
X66860000Y-88852081D01*
X66860000Y-88852081D02*
X68047919Y-90040000D01*
G04 #@! TO.N,Net-(D1-Pad1)*
X126750000Y-38500000D02*
X134210000Y-38500000D01*
G04 #@! TO.N,Net-(D2-Pad1)*
X136750000Y-38500000D02*
X144210000Y-38500000D01*
G04 #@! TO.N,Net-(D3-Pad1)*
X146750000Y-38500000D02*
X154250000Y-38500000D01*
G04 #@! TO.N,Net-(D4-Pad1)*
X156790000Y-38500000D02*
X164210000Y-38500000D01*
G04 #@! TO.N,Net-(D6-Pad1)*
X126750000Y-48500000D02*
X134210000Y-48500000D01*
G04 #@! TO.N,Net-(D7-Pad1)*
X136750000Y-48500000D02*
X144210000Y-48500000D01*
G04 #@! TO.N,Net-(D8-Pad1)*
X146750000Y-48500000D02*
X154250000Y-48500000D01*
G04 #@! TO.N,Net-(D10-Pad2)*
X156790000Y-48500000D02*
X164210000Y-48500000D01*
G04 #@! TO.N,Net-(D11-Pad1)*
X126790000Y-58500000D02*
X134210000Y-58500000D01*
G04 #@! TO.N,Net-(D12-Pad1)*
X136750000Y-58500000D02*
X144210000Y-58500000D01*
G04 #@! TO.N,Net-(D13-Pad1)*
X146750000Y-58500000D02*
X154210000Y-58500000D01*
G04 #@! TO.N,Net-(D14-Pad1)*
X156750000Y-58500000D02*
X164210000Y-58500000D01*
G04 #@! TO.N,Net-(D16-Pad1)*
X126750000Y-68500000D02*
X134210000Y-68500000D01*
G04 #@! TO.N,Net-(D17-Pad1)*
X136750000Y-68500000D02*
X144210000Y-68500000D01*
G04 #@! TO.N,Net-(D18-Pad1)*
X146750000Y-68500000D02*
X154210000Y-68500000D01*
G04 #@! TO.N,Net-(D19-Pad1)*
X156750000Y-68500000D02*
X164210000Y-68500000D01*
G04 #@! TO.N,Net-(D21-Pad1)*
X126790000Y-78500000D02*
X134210000Y-78500000D01*
G04 #@! TO.N,Net-(D22-Pad1)*
X136750000Y-78500000D02*
X137950000Y-78500000D01*
X137950000Y-78500000D02*
X144210000Y-78500000D01*
G04 #@! TO.N,Net-(D23-Pad1)*
X146750000Y-78500000D02*
X154210000Y-78500000D01*
G04 #@! TO.N,Net-(D24-Pad1)*
X156750000Y-78500000D02*
X164250000Y-78500000D01*
G04 #@! TO.N,Net-(D26-Pad1)*
X126750000Y-88500000D02*
X134250000Y-88500000D01*
G04 #@! TO.N,Net-(D27-Pad1)*
X136790000Y-88500000D02*
X144250000Y-88500000D01*
G04 #@! TO.N,Net-(D28-Pad1)*
X146790000Y-88500000D02*
X154250000Y-88500000D01*
G04 #@! TO.N,Net-(D29-Pad1)*
X156790000Y-88500000D02*
X164250000Y-88500000D01*
G04 #@! TO.N,Net-(D31-Pad1)*
X126790000Y-98500000D02*
X134250000Y-98500000D01*
G04 #@! TO.N,Net-(D32-Pad1)*
X136790000Y-98500000D02*
X144250000Y-98500000D01*
G04 #@! TO.N,Net-(D33-Pad1)*
X146790000Y-98500000D02*
X154250000Y-98500000D01*
G04 #@! TO.N,Net-(D34-Pad1)*
X156790000Y-98500000D02*
X164250000Y-98500000D01*
G04 #@! TO.N,Net-(D36-Pad1)*
X126790000Y-108500000D02*
X134250000Y-108500000D01*
G04 #@! TO.N,Net-(D37-Pad1)*
X136790000Y-108500000D02*
X144250000Y-108500000D01*
G04 #@! TO.N,Net-(D38-Pad1)*
X146790000Y-108500000D02*
X154250000Y-108500000D01*
G04 #@! TO.N,Net-(D39-Pad1)*
X156790000Y-108500000D02*
X164250000Y-108500000D01*
G04 #@! TO.N,Net-(D41-Pad1)*
X126790000Y-118500000D02*
X134250000Y-118500000D01*
G04 #@! TO.N,Net-(D42-Pad1)*
X136790000Y-118500000D02*
X144250000Y-118500000D01*
G04 #@! TO.N,Net-(D43-Pad1)*
X146790000Y-118500000D02*
X154250000Y-118500000D01*
G04 #@! TO.N,Net-(D44-Pad1)*
X156790000Y-118500000D02*
X164250000Y-118500000D01*
G04 #@! TO.N,Net-(D46-Pad1)*
X126790000Y-128500000D02*
X134250000Y-128500000D01*
G04 #@! TO.N,Net-(D47-Pad1)*
X136790000Y-128500000D02*
X144250000Y-128500000D01*
G04 #@! TO.N,Net-(D48-Pad1)*
X146790000Y-128500000D02*
X154250000Y-128500000D01*
G04 #@! TO.N,Net-(D49-Pad1)*
X156790000Y-128500000D02*
X164250000Y-128500000D01*
G04 #@! TO.N,Net-(D51-Pad1)*
X176790000Y-38500000D02*
X184210000Y-38500000D01*
G04 #@! TO.N,Net-(D52-Pad1)*
X186750000Y-38500000D02*
X194250000Y-38500000D01*
G04 #@! TO.N,Net-(D53-Pad1)*
X196790000Y-38500000D02*
X204250000Y-38500000D01*
G04 #@! TO.N,Net-(D54-Pad1)*
X206790000Y-38500000D02*
X214210000Y-38500000D01*
G04 #@! TO.N,Net-(D56-Pad1)*
X176790000Y-48500000D02*
X184210000Y-48500000D01*
G04 #@! TO.N,Net-(D57-Pad1)*
X186750000Y-48500000D02*
X194210000Y-48500000D01*
G04 #@! TO.N,Net-(D58-Pad1)*
X196750000Y-48500000D02*
X204210000Y-48500000D01*
G04 #@! TO.N,Net-(D59-Pad1)*
X206750000Y-48500000D02*
X214210000Y-48500000D01*
G04 #@! TO.N,Net-(D61-Pad1)*
X176750000Y-58500000D02*
X184210000Y-58500000D01*
G04 #@! TO.N,Net-(D62-Pad1)*
X186750000Y-58500000D02*
X194210000Y-58500000D01*
G04 #@! TO.N,Net-(D63-Pad1)*
X196750000Y-58500000D02*
X204210000Y-58500000D01*
G04 #@! TO.N,Net-(D64-Pad1)*
X206750000Y-58500000D02*
X214210000Y-58500000D01*
G04 #@! TO.N,Net-(D66-Pad1)*
X176750000Y-68500000D02*
X177950000Y-68500000D01*
X177950000Y-68500000D02*
X184210000Y-68500000D01*
G04 #@! TO.N,Net-(D67-Pad1)*
X186750000Y-68500000D02*
X194250000Y-68500000D01*
G04 #@! TO.N,Net-(D68-Pad1)*
X196790000Y-68500000D02*
X204210000Y-68500000D01*
G04 #@! TO.N,Net-(D69-Pad1)*
X206750000Y-68500000D02*
X214210000Y-68500000D01*
G04 #@! TO.N,Net-(D71-Pad1)*
X176790000Y-78500000D02*
X184210000Y-78500000D01*
G04 #@! TO.N,Net-(D72-Pad1)*
X186750000Y-78500000D02*
X194250000Y-78500000D01*
G04 #@! TO.N,Net-(D73-Pad1)*
X196790000Y-78500000D02*
X204210000Y-78500000D01*
G04 #@! TO.N,Net-(D74-Pad1)*
X206750000Y-78500000D02*
X214210000Y-78500000D01*
G04 #@! TO.N,Net-(D76-Pad1)*
X176750000Y-88500000D02*
X184210000Y-88500000D01*
G04 #@! TO.N,Net-(D77-Pad1)*
X186750000Y-88500000D02*
X194210000Y-88500000D01*
G04 #@! TO.N,Net-(D78-Pad1)*
X196750000Y-88500000D02*
X204210000Y-88500000D01*
G04 #@! TO.N,Net-(D79-Pad1)*
X206750000Y-88500000D02*
X207950000Y-88500000D01*
X207950000Y-88500000D02*
X214210000Y-88500000D01*
G04 #@! TO.N,Net-(D81-Pad1)*
X176750000Y-98500000D02*
X184210000Y-98500000D01*
G04 #@! TO.N,Net-(D82-Pad1)*
X186750000Y-98500000D02*
X194210000Y-98500000D01*
G04 #@! TO.N,Net-(D83-Pad1)*
X196750000Y-98500000D02*
X204210000Y-98500000D01*
G04 #@! TO.N,Net-(D84-Pad1)*
X206750000Y-98500000D02*
X214210000Y-98500000D01*
G04 #@! TO.N,Net-(D86-Pad1)*
X176750000Y-108500000D02*
X184210000Y-108500000D01*
G04 #@! TO.N,Net-(D87-Pad1)*
X186750000Y-108500000D02*
X194250000Y-108500000D01*
G04 #@! TO.N,Net-(D88-Pad1)*
X196790000Y-108500000D02*
X204210000Y-108500000D01*
G04 #@! TO.N,Net-(D89-Pad1)*
X206750000Y-108500000D02*
X214210000Y-108500000D01*
G04 #@! TO.N,Net-(D91-Pad1)*
X176750000Y-118500000D02*
X184250000Y-118500000D01*
G04 #@! TO.N,Net-(D92-Pad1)*
X186790000Y-118500000D02*
X194210000Y-118500000D01*
G04 #@! TO.N,Net-(D93-Pad1)*
X196750000Y-118500000D02*
X204210000Y-118500000D01*
G04 #@! TO.N,Net-(D94-Pad1)*
X206750000Y-118500000D02*
X214210000Y-118500000D01*
G04 #@! TO.N,Net-(D96-Pad1)*
X176750000Y-128500000D02*
X184210000Y-128500000D01*
G04 #@! TO.N,Net-(D97-Pad1)*
X186750000Y-128500000D02*
X194210000Y-128500000D01*
G04 #@! TO.N,Net-(D98-Pad1)*
X196750000Y-128500000D02*
X204210000Y-128500000D01*
G04 #@! TO.N,Net-(D100-Pad2)*
X206750000Y-128500000D02*
X214210000Y-128500000D01*
G04 #@! TO.N,Net-(P1-Pad1)*
X78500000Y-99130000D02*
X68870000Y-99130000D01*
X68870000Y-99130000D02*
X68750000Y-99250000D01*
G04 #@! TO.N,Net-(Q1-Pad2)*
X86700000Y-94300000D02*
X79900000Y-87500000D01*
X79900000Y-87500000D02*
X69250000Y-87500000D01*
X86700000Y-124206506D02*
X86700000Y-94300000D01*
X89605000Y-128524998D02*
X89605000Y-127111506D01*
X89605000Y-127111506D02*
X86700000Y-124206506D01*
X75710000Y-119986000D02*
X75710000Y-120485110D01*
X89605000Y-128524998D02*
X92505002Y-131425000D01*
X92505002Y-131425000D02*
X102829998Y-131425000D01*
X102829998Y-131425000D02*
X104705511Y-129549487D01*
X104705511Y-129549487D02*
X105705000Y-128549998D01*
X105705000Y-118552776D02*
X105705000Y-128549998D01*
X105705000Y-108555554D02*
X105705000Y-118552776D01*
X105705000Y-98558332D02*
X105705000Y-108555554D01*
X105705000Y-88561110D02*
X105705000Y-89974602D01*
X105705000Y-89974602D02*
X105705000Y-98558332D01*
X105705000Y-78563888D02*
X105705000Y-88561110D01*
X105705000Y-68566666D02*
X105705000Y-78563888D01*
X105705000Y-58569444D02*
X105705000Y-68566666D01*
X105705000Y-48572222D02*
X105705000Y-58569444D01*
X105705000Y-38575000D02*
X105705000Y-48572222D01*
X89605000Y-118527776D02*
X89605000Y-128524998D01*
X89605000Y-108530554D02*
X89605000Y-118527776D01*
X89605000Y-98533332D02*
X89605000Y-108530554D01*
X89605000Y-88536110D02*
X89605000Y-89949602D01*
X89605000Y-89949602D02*
X89605000Y-98533332D01*
X89605000Y-78538888D02*
X89605000Y-88536110D01*
X89605000Y-68541666D02*
X89605000Y-78538888D01*
X89605000Y-58544444D02*
X89605000Y-59957936D01*
X89605000Y-59957936D02*
X89605000Y-68541666D01*
X89605000Y-48547222D02*
X89605000Y-49960714D01*
X89605000Y-49960714D02*
X89605000Y-58544444D01*
X89605000Y-38550000D02*
X89625000Y-38570000D01*
X89625000Y-38570000D02*
X89625000Y-48527222D01*
X89625000Y-48527222D02*
X89605000Y-48547222D01*
X89605000Y-128524998D02*
X78664998Y-128524998D01*
X78664998Y-128524998D02*
X75710000Y-125570000D01*
X79560000Y-123070000D02*
X75710000Y-123070000D01*
X81039310Y-121590690D02*
X79560000Y-123070000D01*
X81039310Y-121560690D02*
X81039310Y-121590690D01*
X82625000Y-119975000D02*
X81039310Y-121560690D01*
X75710000Y-125570000D02*
X75710000Y-123070000D01*
X75710000Y-123070000D02*
X75710000Y-120485110D01*
G04 #@! TO.N,Net-(Q1-Pad1)*
X78250000Y-119986000D02*
X78250000Y-116730000D01*
X78250000Y-116730000D02*
X82625000Y-112355000D01*
X82625000Y-112355000D02*
X82625000Y-110875000D01*
X82625000Y-110875000D02*
X78500000Y-106750000D01*
X82625000Y-112355000D02*
X68545000Y-112355000D01*
X68545000Y-112355000D02*
X68525000Y-112375000D01*
G04 #@! TD*
M02*
