G04 #@! TF.GenerationSoftware,KiCad,Pcbnew,(5.0.0)*
G04 #@! TF.CreationDate,2019-02-27T14:07:20-03:00*
G04 #@! TF.ProjectId,control_led,636F6E74726F6C5F6C65642E6B696361,rev?*
G04 #@! TF.SameCoordinates,Original*
G04 #@! TF.FileFunction,Copper,L2,Bot,Signal*
G04 #@! TF.FilePolarity,Positive*
%FSLAX46Y46*%
G04 Gerber Fmt 4.6, Leading zero omitted, Abs format (unit mm)*
G04 Created by KiCad (PCBNEW (5.0.0)) date 02/27/19 14:07:20*
%MOMM*%
%LPD*%
G01*
G04 APERTURE LIST*
G04 #@! TA.AperFunction,NonConductor*
%ADD10C,0.150000*%
G04 #@! TD*
G04 #@! TA.AperFunction,ComponentPad*
%ADD11R,0.850000X0.850000*%
G04 #@! TD*
G04 #@! TA.AperFunction,ComponentPad*
%ADD12O,1.600000X1.600000*%
G04 #@! TD*
G04 #@! TA.AperFunction,ComponentPad*
%ADD13C,1.600000*%
G04 #@! TD*
G04 #@! TA.AperFunction,ComponentPad*
%ADD14C,1.500000*%
G04 #@! TD*
G04 #@! TA.AperFunction,ComponentPad*
%ADD15R,1.500000X1.500000*%
G04 #@! TD*
G04 #@! TA.AperFunction,Conductor*
%ADD16C,2.000000*%
G04 #@! TD*
G04 APERTURE END LIST*
D10*
X187960000Y-73660000D02*
X113030000Y-73660000D01*
X187960000Y-118110000D02*
X187960000Y-73660000D01*
X113030000Y-118110000D02*
X187960000Y-118110000D01*
X113030000Y-118110000D02*
X113030000Y-73660000D01*
D11*
G04 #@! TO.P,J1,1*
G04 #@! TO.N,Net-(J1-Pad1)*
X119380000Y-93980000D03*
G04 #@! TD*
G04 #@! TO.P,J2,1*
G04 #@! TO.N,Net-(J2-Pad1)*
X116840000Y-114300000D03*
G04 #@! TD*
D12*
G04 #@! TO.P,R1,2*
G04 #@! TO.N,Net-(J2-Pad1)*
X121920000Y-114300000D03*
D13*
G04 #@! TO.P,R1,1*
G04 #@! TO.N,Net-(Q1-Pad3)*
X132080000Y-114300000D03*
G04 #@! TD*
G04 #@! TO.P,R2,1*
G04 #@! TO.N,Net-(R2-Pad1)*
X147320000Y-110490000D03*
D12*
G04 #@! TO.P,R2,2*
G04 #@! TO.N,Net-(Q1-Pad2)*
X137160000Y-110490000D03*
G04 #@! TD*
D14*
G04 #@! TO.P,Q1,2*
G04 #@! TO.N,Net-(Q1-Pad2)*
X132080000Y-106680000D03*
G04 #@! TO.P,Q1,3*
G04 #@! TO.N,Net-(Q1-Pad3)*
X132080000Y-109220000D03*
D15*
G04 #@! TO.P,Q1,1*
G04 #@! TO.N,Net-(J1-Pad1)*
X132080000Y-104140000D03*
G04 #@! TD*
D11*
G04 #@! TO.P,J7,1*
G04 #@! TO.N,Net-(J7-Pad1)*
X116840000Y-78740000D03*
G04 #@! TD*
G04 #@! TO.P,J8,1*
G04 #@! TO.N,Net-(J8-Pad1)*
X167640000Y-102870000D03*
G04 #@! TD*
G04 #@! TO.P,J9,1*
G04 #@! TO.N,Net-(J9-Pad1)*
X184150000Y-83820000D03*
G04 #@! TD*
G04 #@! TO.P,J10,1*
G04 #@! TO.N,Net-(J10-Pad1)*
X184150000Y-88900000D03*
G04 #@! TD*
D14*
G04 #@! TO.P,Q2,2*
G04 #@! TO.N,Net-(Q2-Pad2)*
X132080000Y-86360000D03*
G04 #@! TO.P,Q2,3*
G04 #@! TO.N,Net-(Q2-Pad3)*
X132080000Y-83820000D03*
D15*
G04 #@! TO.P,Q2,1*
G04 #@! TO.N,Net-(J1-Pad1)*
X132080000Y-88900000D03*
G04 #@! TD*
D12*
G04 #@! TO.P,R3,2*
G04 #@! TO.N,Net-(Q2-Pad3)*
X132080000Y-78740000D03*
D13*
G04 #@! TO.P,R3,1*
G04 #@! TO.N,Net-(J7-Pad1)*
X121920000Y-78740000D03*
G04 #@! TD*
D12*
G04 #@! TO.P,R4,2*
G04 #@! TO.N,Net-(Q2-Pad2)*
X138430000Y-83820000D03*
D13*
G04 #@! TO.P,R4,1*
G04 #@! TO.N,Net-(R4-Pad1)*
X148590000Y-83820000D03*
G04 #@! TD*
D12*
G04 #@! TO.P,R5,2*
G04 #@! TO.N,Net-(Q2-Pad2)*
X138430000Y-88900000D03*
D13*
G04 #@! TO.P,R5,1*
G04 #@! TO.N,Net-(R5-Pad1)*
X148590000Y-88900000D03*
G04 #@! TD*
D12*
G04 #@! TO.P,R6,2*
G04 #@! TO.N,Net-(Q1-Pad2)*
X137160000Y-102870000D03*
D13*
G04 #@! TO.P,R6,1*
G04 #@! TO.N,Net-(R10-Pad2)*
X147320000Y-102870000D03*
G04 #@! TD*
G04 #@! TO.P,R7,1*
G04 #@! TO.N,Net-(R11-Pad2)*
X163830000Y-83820000D03*
D12*
G04 #@! TO.P,R7,2*
G04 #@! TO.N,Net-(R4-Pad1)*
X153670000Y-83820000D03*
G04 #@! TD*
D13*
G04 #@! TO.P,R8,1*
G04 #@! TO.N,Net-(R12-Pad2)*
X163830000Y-88900000D03*
D12*
G04 #@! TO.P,R8,2*
G04 #@! TO.N,Net-(R5-Pad1)*
X153670000Y-88900000D03*
G04 #@! TD*
G04 #@! TO.P,R9,2*
G04 #@! TO.N,Net-(R2-Pad1)*
X152400000Y-110490000D03*
D13*
G04 #@! TO.P,R9,1*
G04 #@! TO.N,Net-(J4-Pad1)*
X162560000Y-110490000D03*
G04 #@! TD*
G04 #@! TO.P,R10,1*
G04 #@! TO.N,Net-(J8-Pad1)*
X162560000Y-102870000D03*
D12*
G04 #@! TO.P,R10,2*
G04 #@! TO.N,Net-(R10-Pad2)*
X152400000Y-102870000D03*
G04 #@! TD*
D13*
G04 #@! TO.P,R11,1*
G04 #@! TO.N,Net-(J9-Pad1)*
X179070000Y-83820000D03*
D12*
G04 #@! TO.P,R11,2*
G04 #@! TO.N,Net-(R11-Pad2)*
X168910000Y-83820000D03*
G04 #@! TD*
D13*
G04 #@! TO.P,R12,1*
G04 #@! TO.N,Net-(J10-Pad1)*
X179070000Y-88900000D03*
D12*
G04 #@! TO.P,R12,2*
G04 #@! TO.N,Net-(R12-Pad2)*
X168910000Y-88900000D03*
G04 #@! TD*
D11*
G04 #@! TO.P,J3,1*
G04 #@! TO.N,Net-(J1-Pad1)*
X119380000Y-99060000D03*
G04 #@! TD*
G04 #@! TO.P,J5,1*
G04 #@! TO.N,Net-(J5-Pad1)*
X119380000Y-104140000D03*
G04 #@! TD*
G04 #@! TO.P,J6,1*
G04 #@! TO.N,Net-(J5-Pad1)*
X119380000Y-107950000D03*
G04 #@! TD*
G04 #@! TO.P,J4,1*
G04 #@! TO.N,Net-(J4-Pad1)*
X167640000Y-110490000D03*
G04 #@! TD*
D16*
G04 #@! TO.N,Net-(J1-Pad1)*
X119380000Y-96520000D02*
X132080000Y-96520000D01*
X132080000Y-96520000D02*
X132080000Y-104140000D01*
X132080000Y-88900000D02*
X132080000Y-96520000D01*
X119380000Y-96520000D02*
X119380000Y-99060000D01*
X119380000Y-93980000D02*
X119380000Y-96520000D01*
G04 #@! TO.N,Net-(J2-Pad1)*
X116840000Y-114300000D02*
X121920000Y-114300000D01*
G04 #@! TO.N,Net-(J4-Pad1)*
X162560000Y-110490000D02*
X167640000Y-110490000D01*
G04 #@! TO.N,Net-(Q1-Pad2)*
X132080000Y-106680000D02*
X137160000Y-106680000D01*
X137160000Y-102870000D02*
X137160000Y-106680000D01*
X137160000Y-106680000D02*
X137160000Y-110490000D01*
G04 #@! TO.N,Net-(Q1-Pad3)*
X132080000Y-109220000D02*
X132080000Y-114300000D01*
G04 #@! TO.N,Net-(J7-Pad1)*
X116840000Y-78740000D02*
X121920000Y-78740000D01*
G04 #@! TO.N,Net-(J8-Pad1)*
X162560000Y-102870000D02*
X167640000Y-102870000D01*
G04 #@! TO.N,Net-(J9-Pad1)*
X179070000Y-83820000D02*
X184150000Y-83820000D01*
G04 #@! TO.N,Net-(J10-Pad1)*
X179070000Y-88900000D02*
X184150000Y-88900000D01*
G04 #@! TO.N,Net-(Q2-Pad2)*
X132080000Y-86360000D02*
X138430000Y-86360000D01*
X138430000Y-83820000D02*
X138430000Y-86360000D01*
X138430000Y-86360000D02*
X138430000Y-88900000D01*
G04 #@! TO.N,Net-(Q2-Pad3)*
X132080000Y-78740000D02*
X132080000Y-83820000D01*
G04 #@! TO.N,Net-(R2-Pad1)*
X147320000Y-110490000D02*
X152400000Y-110490000D01*
G04 #@! TO.N,Net-(R4-Pad1)*
X148590000Y-83820000D02*
X153670000Y-83820000D01*
G04 #@! TO.N,Net-(R5-Pad1)*
X148590000Y-88900000D02*
X153670000Y-88900000D01*
G04 #@! TO.N,Net-(R10-Pad2)*
X147320000Y-102870000D02*
X152400000Y-102870000D01*
G04 #@! TO.N,Net-(R11-Pad2)*
X163830000Y-83820000D02*
X168910000Y-83820000D01*
G04 #@! TO.N,Net-(R12-Pad2)*
X163830000Y-88900000D02*
X168910000Y-88900000D01*
G04 #@! TO.N,Net-(J5-Pad1)*
X119380000Y-104140000D02*
X119380000Y-107950000D01*
G04 #@! TD*
M02*
