M48
;DRILL file {KiCad (5.0.0)} date 02/25/19 20:21:27
;FORMAT={3:3/ absolute / metric / keep zeros}
FMAT,2
METRIC,TZ
T1C0.500
T2C0.800
%
G90
G05
M71
T1
X119380Y-107950
X119380Y-093980
X116840Y-114300
X184150Y-083820
X116840Y-078740
X184150Y-088900
X167640Y-102870
X167640Y-110490
X119380Y-099060
X119380Y-104140
T2
X138430Y-088900
X148590Y-088900
X121920Y-078740
X132080Y-078740
X138430Y-083820
X148590Y-083820
X152400Y-110490
X162560Y-110490
X168910Y-088900
X179070Y-088900
X121920Y-114300
X132080Y-114300
X168910Y-083820
X179070Y-083820
X132080Y-104140
X132080Y-106680
X132080Y-109220
X152400Y-102870
X162560Y-102870
X137160Y-102870
X147320Y-102870
X137160Y-110490
X147320Y-110490
X153670Y-083820
X163830Y-083820
X132080Y-083820
X132080Y-086360
X132080Y-088900
X153670Y-088900
X163830Y-088900
T0
M30
