M48
;DRILL file {KiCad (5.0.0)} date 09/02/19 12:22:33
;FORMAT={3:3/ absolute / metric / keep zeros}
FMAT,2
METRIC,TZ
T1C0.500
T2C0.762
T3C0.800
T4C0.900
T5C1.000
T6C1.100
T7C1.300
T8C2.000
T9C2.700
%
G90
G05
M71
T1
X082550Y-088900
X071120Y-092710
X074930Y-092710
X071120Y-078740
X106680Y-100330
X106680Y-095250
X082550Y-073660
T2
X107950Y-114300
X110490Y-114300
X113030Y-114300
T3
X088900Y-073660
X099060Y-073660
X128270Y-077470
X128270Y-087630
X115570Y-071120
X115570Y-073660
X115570Y-076200
X120650Y-077470
X120650Y-087630
X090170Y-100330
X100330Y-100330
X088900Y-088900
X099060Y-088900
X115570Y-086360
X115570Y-088900
X115570Y-091440
T4
X104140Y-073660
X106680Y-073660
X104140Y-088900
X106680Y-088900
T5
X124460Y-081280
X124460Y-083820
X071120Y-085090
X071120Y-087630
T6
X085090Y-095250
X085090Y-097790
X085090Y-100330
T7
X082550Y-114300
X087550Y-114300
X092550Y-114300
T8
X103990Y-114300
X116990Y-114300
X123000Y-099060
X123000Y-103560
X127000Y-099060
X127000Y-103560
X131000Y-099060
X131000Y-103560
T9
X134620Y-069850
X071120Y-115570
X072390Y-069850
X134620Y-115570
T0
M30
