G04 #@! TF.GenerationSoftware,KiCad,Pcbnew,(5.0.0)*
G04 #@! TF.CreationDate,2019-09-02T12:22:21-04:00*
G04 #@! TF.ProjectId,control_led,636F6E74726F6C5F6C65642E6B696361,rev?*
G04 #@! TF.SameCoordinates,Original*
G04 #@! TF.FileFunction,Copper,L2,Bot,Signal*
G04 #@! TF.FilePolarity,Positive*
%FSLAX46Y46*%
G04 Gerber Fmt 4.6, Leading zero omitted, Abs format (unit mm)*
G04 Created by KiCad (PCBNEW (5.0.0)) date 09/02/19 12:22:21*
%MOMM*%
%LPD*%
G01*
G04 APERTURE LIST*
G04 #@! TA.AperFunction,NonConductor*
%ADD10C,0.200000*%
G04 #@! TD*
G04 #@! TA.AperFunction,ComponentPad*
%ADD11C,2.500000*%
G04 #@! TD*
G04 #@! TA.AperFunction,ComponentPad*
%ADD12R,1.700000X1.700000*%
G04 #@! TD*
G04 #@! TA.AperFunction,ComponentPad*
%ADD13O,1.700000X1.700000*%
G04 #@! TD*
G04 #@! TA.AperFunction,ComponentPad*
%ADD14R,0.850000X0.850000*%
G04 #@! TD*
G04 #@! TA.AperFunction,ComponentPad*
%ADD15C,1.500000*%
G04 #@! TD*
G04 #@! TA.AperFunction,ComponentPad*
%ADD16R,1.500000X1.500000*%
G04 #@! TD*
G04 #@! TA.AperFunction,ComponentPad*
%ADD17O,1.600000X1.600000*%
G04 #@! TD*
G04 #@! TA.AperFunction,ComponentPad*
%ADD18C,1.600000*%
G04 #@! TD*
G04 #@! TA.AperFunction,ComponentPad*
%ADD19C,2.340000*%
G04 #@! TD*
G04 #@! TA.AperFunction,ComponentPad*
%ADD20C,1.524000*%
G04 #@! TD*
G04 #@! TA.AperFunction,ComponentPad*
%ADD21R,2.500000X2.500000*%
G04 #@! TD*
G04 #@! TA.AperFunction,ComponentPad*
%ADD22C,1.800000*%
G04 #@! TD*
G04 #@! TA.AperFunction,ComponentPad*
%ADD23R,1.800000X1.800000*%
G04 #@! TD*
G04 #@! TA.AperFunction,ComponentPad*
%ADD24R,2.000000X1.905000*%
G04 #@! TD*
G04 #@! TA.AperFunction,ComponentPad*
%ADD25O,2.000000X1.905000*%
G04 #@! TD*
G04 #@! TA.AperFunction,ComponentPad*
%ADD26C,4.500000*%
G04 #@! TD*
G04 #@! TA.AperFunction,Conductor*
%ADD27C,2.000000*%
G04 #@! TD*
G04 APERTURE END LIST*
D10*
X139700000Y-64770000D02*
X67310000Y-64770000D01*
X139700000Y-119380000D02*
X139700000Y-64770000D01*
X67310000Y-119380000D02*
X139700000Y-119380000D01*
X67310000Y-64770000D02*
X67310000Y-119380000D01*
D11*
G04 #@! TO.P,SW_R_or_G1,6*
G04 #@! TO.N,N/C*
X131000000Y-103560000D03*
G04 #@! TO.P,SW_R_or_G1,2*
G04 #@! TO.N,Net-(QW1-Pad2)*
X127000000Y-103560000D03*
G04 #@! TO.P,SW_R_or_G1,4*
G04 #@! TO.N,N/C*
X123000000Y-103560000D03*
G04 #@! TO.P,SW_R_or_G1,3*
G04 #@! TO.N,Net-(QR1-Pad3)*
X131000000Y-99060000D03*
G04 #@! TO.P,SW_R_or_G1,5*
G04 #@! TO.N,N/C*
X127000000Y-99060000D03*
G04 #@! TO.P,SW_R_or_G1,1*
G04 #@! TO.N,Net-(QG1-Pad3)*
X123000000Y-99060000D03*
G04 #@! TD*
D12*
G04 #@! TO.P,J2,1*
G04 #@! TO.N,Net-(J2-Pad1)*
X71120000Y-87630000D03*
D13*
G04 #@! TO.P,J2,2*
G04 #@! TO.N,Net-(J2-Pad2)*
X71120000Y-85090000D03*
G04 #@! TD*
D14*
G04 #@! TO.P,pi_GPIO_(G+)1,1*
G04 #@! TO.N,Net-(R1-Pad2)*
X82550000Y-88900000D03*
G04 #@! TD*
G04 #@! TO.P,pi_GPIO_(R+)1,1*
G04 #@! TO.N,Net-(R3-Pad1)*
X82550000Y-73660000D03*
G04 #@! TD*
G04 #@! TO.P,pi_GPIO_(W+)1,1*
G04 #@! TO.N,Net-(R5-Pad1)*
X106680000Y-100330000D03*
G04 #@! TD*
D15*
G04 #@! TO.P,QG1,2*
G04 #@! TO.N,Net-(QG1-Pad2)*
X115570000Y-88900000D03*
G04 #@! TO.P,QG1,3*
G04 #@! TO.N,Net-(QG1-Pad3)*
X115570000Y-91440000D03*
D16*
G04 #@! TO.P,QG1,1*
G04 #@! TO.N,Net-(J2-Pad2)*
X115570000Y-86360000D03*
G04 #@! TD*
D15*
G04 #@! TO.P,QR1,2*
G04 #@! TO.N,Net-(QR1-Pad2)*
X115570000Y-73660000D03*
G04 #@! TO.P,QR1,3*
G04 #@! TO.N,Net-(QR1-Pad3)*
X115570000Y-71120000D03*
D16*
G04 #@! TO.P,QR1,1*
G04 #@! TO.N,Net-(J2-Pad2)*
X115570000Y-76200000D03*
G04 #@! TD*
D17*
G04 #@! TO.P,R1,2*
G04 #@! TO.N,Net-(R1-Pad2)*
X88900000Y-88900000D03*
D18*
G04 #@! TO.P,R1,1*
G04 #@! TO.N,Net-(R1-Pad1)*
X99060000Y-88900000D03*
G04 #@! TD*
G04 #@! TO.P,R2,1*
G04 #@! TO.N,Net-(R2-Pad1)*
X120650000Y-77470000D03*
D17*
G04 #@! TO.P,R2,2*
G04 #@! TO.N,Net-(QG1-Pad3)*
X120650000Y-87630000D03*
G04 #@! TD*
G04 #@! TO.P,R3,2*
G04 #@! TO.N,Net-(R3-Pad2)*
X99060000Y-73660000D03*
D18*
G04 #@! TO.P,R3,1*
G04 #@! TO.N,Net-(R3-Pad1)*
X88900000Y-73660000D03*
G04 #@! TD*
D17*
G04 #@! TO.P,R4,2*
G04 #@! TO.N,Net-(QR1-Pad3)*
X128270000Y-77470000D03*
D18*
G04 #@! TO.P,R4,1*
G04 #@! TO.N,Net-(R4-Pad1)*
X128270000Y-87630000D03*
G04 #@! TD*
G04 #@! TO.P,R5,1*
G04 #@! TO.N,Net-(R5-Pad1)*
X100330000Y-100330000D03*
D17*
G04 #@! TO.P,R5,2*
G04 #@! TO.N,Net-(QW1-Pad1)*
X90170000Y-100330000D03*
G04 #@! TD*
D19*
G04 #@! TO.P,RV_white1,3*
G04 #@! TO.N,Net-(J2-Pad2)*
X92550000Y-114300000D03*
G04 #@! TO.P,RV_white1,2*
G04 #@! TO.N,Net-(RV_white1-Pad2)*
X87550000Y-114300000D03*
G04 #@! TO.P,RV_white1,1*
G04 #@! TO.N,Net-(J2-Pad1)*
X82550000Y-114300000D03*
G04 #@! TD*
D20*
G04 #@! TO.P,SW_all1,1*
G04 #@! TO.N,Net-(J2-Pad2)*
X107950000Y-114300000D03*
G04 #@! TO.P,SW_all1,2*
G04 #@! TO.N,Net-(QW1-Pad2)*
X110490000Y-114300000D03*
G04 #@! TO.P,SW_all1,3*
G04 #@! TO.N,N/C*
X113030000Y-114300000D03*
D21*
G04 #@! TO.P,SW_all1,4*
X116990000Y-114300000D03*
X103990000Y-114300000D03*
G04 #@! TD*
D14*
G04 #@! TO.P,to(Pi_GND)1,1*
G04 #@! TO.N,Net-(J2-Pad2)*
X71120000Y-78740000D03*
G04 #@! TD*
G04 #@! TO.P,to_RG_(+)1,1*
G04 #@! TO.N,Net-(J2-Pad1)*
X71120000Y-92710000D03*
G04 #@! TD*
G04 #@! TO.P,to_White(+)1,1*
G04 #@! TO.N,Net-(RV_white1-Pad2)*
X74930000Y-92710000D03*
G04 #@! TD*
G04 #@! TO.P,W_light(-)1,1*
G04 #@! TO.N,Net-(QW1-Pad2)*
X106680000Y-95250000D03*
G04 #@! TD*
D22*
G04 #@! TO.P,mini_G1,2*
G04 #@! TO.N,Net-(R1-Pad1)*
X104140000Y-88900000D03*
D23*
G04 #@! TO.P,mini_G1,1*
G04 #@! TO.N,Net-(QG1-Pad2)*
X106680000Y-88900000D03*
G04 #@! TD*
G04 #@! TO.P,mini_R1,1*
G04 #@! TO.N,Net-(QR1-Pad2)*
X106680000Y-73660000D03*
D22*
G04 #@! TO.P,mini_R1,2*
G04 #@! TO.N,Net-(R3-Pad2)*
X104140000Y-73660000D03*
G04 #@! TD*
D24*
G04 #@! TO.P,QW1,1*
G04 #@! TO.N,Net-(QW1-Pad1)*
X85090000Y-100330000D03*
D25*
G04 #@! TO.P,QW1,2*
G04 #@! TO.N,Net-(QW1-Pad2)*
X85090000Y-97790000D03*
G04 #@! TO.P,QW1,3*
G04 #@! TO.N,Net-(J2-Pad2)*
X85090000Y-95250000D03*
G04 #@! TD*
D26*
G04 #@! TO.P,MH1,1*
G04 #@! TO.N,N/C*
X71120000Y-115570000D03*
G04 #@! TD*
G04 #@! TO.P,MH2,1*
G04 #@! TO.N,N/C*
X72390000Y-69850000D03*
G04 #@! TD*
G04 #@! TO.P,MH3,1*
G04 #@! TO.N,N/C*
X134620000Y-69850000D03*
G04 #@! TD*
G04 #@! TO.P,MH4,1*
G04 #@! TO.N,N/C*
X134620000Y-115570000D03*
G04 #@! TD*
D12*
G04 #@! TO.P,RG_light_(-)1,1*
G04 #@! TO.N,Net-(R4-Pad1)*
X124460000Y-83820000D03*
D13*
G04 #@! TO.P,RG_light_(-)1,2*
G04 #@! TO.N,Net-(R2-Pad1)*
X124460000Y-81280000D03*
G04 #@! TD*
D27*
G04 #@! TO.N,Net-(J2-Pad1)*
X71120000Y-87630000D02*
X71120000Y-92710000D01*
X71120000Y-92710000D02*
X71120000Y-102870000D01*
X71120000Y-102870000D02*
X82550000Y-114300000D01*
G04 #@! TO.N,Net-(R4-Pad1)*
X128270000Y-87630000D02*
X124460000Y-87630000D01*
X124460000Y-87630000D02*
X124460000Y-83820000D01*
G04 #@! TO.N,Net-(R5-Pad1)*
X100330000Y-100330000D02*
X106680000Y-100330000D01*
G04 #@! TO.N,Net-(R3-Pad1)*
X88900000Y-73660000D02*
X82550000Y-73660000D01*
G04 #@! TO.N,Net-(QG1-Pad2)*
X115570000Y-88900000D02*
X106680000Y-88900000D01*
G04 #@! TO.N,Net-(QG1-Pad3)*
X115570000Y-91440000D02*
X120650000Y-91440000D01*
X120650000Y-96710000D02*
X123000000Y-99060000D01*
X120650000Y-91440000D02*
X120650000Y-96710000D01*
X120650000Y-91440000D02*
X120650000Y-87630000D01*
G04 #@! TO.N,Net-(J2-Pad2)*
X115570000Y-81280000D02*
X115570000Y-76200000D01*
X115570000Y-86360000D02*
X115570000Y-81280000D01*
X71120000Y-78740000D02*
X71120000Y-81280000D01*
X71120000Y-81280000D02*
X71120000Y-85090000D01*
X107950000Y-109220000D02*
X107950000Y-114300000D01*
X92710000Y-109220000D02*
X95250000Y-109220000D01*
X107950000Y-109220000D02*
X95250000Y-109220000D01*
X95250000Y-109220000D02*
X93980000Y-109220000D01*
X92550000Y-114300000D02*
X92550000Y-110490000D01*
X92550000Y-110490000D02*
X92550000Y-109380000D01*
X85090000Y-95250000D02*
X78740000Y-95250000D01*
X78740000Y-95250000D02*
X78740000Y-81280000D01*
X92710000Y-109220000D02*
X92550000Y-109380000D01*
X78740000Y-81280000D02*
X71120000Y-81280000D01*
X87630000Y-109220000D02*
X92710000Y-109220000D01*
X78740000Y-95250000D02*
X78740000Y-100330000D01*
X78740000Y-100330000D02*
X87630000Y-109220000D01*
X115570000Y-81280000D02*
X78740000Y-81280000D01*
G04 #@! TO.N,Net-(QR1-Pad2)*
X115570000Y-73660000D02*
X106680000Y-73660000D01*
G04 #@! TO.N,Net-(QR1-Pad3)*
X115570000Y-71120000D02*
X119380000Y-71120000D01*
X119380000Y-71120000D02*
X120650000Y-71120000D01*
X120650000Y-71120000D02*
X125730000Y-71120000D01*
X128270000Y-71120000D02*
X128270000Y-77470000D01*
X120650000Y-71120000D02*
X128270000Y-71120000D01*
X128270000Y-71120000D02*
X132080000Y-74930000D01*
X131000000Y-99060000D02*
X133350000Y-96710000D01*
X133350000Y-76200000D02*
X132080000Y-74930000D01*
X133350000Y-96710000D02*
X133350000Y-76200000D01*
G04 #@! TO.N,Net-(QW1-Pad1)*
X85090000Y-100330000D02*
X90170000Y-100330000D01*
G04 #@! TO.N,Net-(QW1-Pad2)*
X88900000Y-97790000D02*
X85090000Y-97790000D01*
X106680000Y-95250000D02*
X91440000Y-95250000D01*
X91440000Y-95250000D02*
X88900000Y-97790000D01*
X106680000Y-95250000D02*
X111760000Y-95250000D01*
X110490000Y-114300000D02*
X110490000Y-113030000D01*
X111760000Y-95250000D02*
X111760000Y-106680000D01*
X110490000Y-113030000D02*
X111760000Y-111760000D01*
X111760000Y-111760000D02*
X111760000Y-109220000D01*
X111760000Y-106680000D02*
X111760000Y-109220000D01*
X127000000Y-109220000D02*
X127000000Y-103560000D01*
X111760000Y-109220000D02*
X127000000Y-109220000D01*
G04 #@! TO.N,Net-(RV_white1-Pad2)*
X74930000Y-92710000D02*
X74930000Y-101600000D01*
X74930000Y-101600000D02*
X81280000Y-107950000D01*
X81280000Y-108030000D02*
X87550000Y-114300000D01*
X81280000Y-107950000D02*
X81280000Y-108030000D01*
G04 #@! TO.N,Net-(R1-Pad1)*
X104140000Y-88900000D02*
X99060000Y-88900000D01*
G04 #@! TO.N,Net-(R3-Pad2)*
X99060000Y-73660000D02*
X104140000Y-73660000D01*
G04 #@! TO.N,Net-(R1-Pad2)*
X88900000Y-88900000D02*
X82550000Y-88900000D01*
G04 #@! TO.N,Net-(R2-Pad1)*
X120650000Y-77470000D02*
X124460000Y-77470000D01*
X124460000Y-77470000D02*
X124460000Y-81280000D01*
G04 #@! TD*
M02*
