  0
SECTION
  2
HEADER
  9
$ACADVER
  1
AC1009
  9
$DWGCODEPAGE
  3
mac-roman
  9
$INSBASE
 10
0.0
 20
0.0
 30
0.0
  9
$EXTMIN
 10
1798.0
 20
1995.0
 30
0.0
  9
$EXTMAX
 10
2098.0
 20
2295.0
 30
0.0
  9
$LIMMIN
 10
0.0
 20
0.0
  9
$LIMMAX
 10
12.0
 20
9.0
  9
$ORTHOMODE
 70
     0
  9
$REGENMODE
 70
     1
  9
$FILLMODE
 70
     1
  9
$QTEXTMODE
 70
     0
  9
$MIRRTEXT
 70
     1
  9
$DRAGMODE
 70
     2
  9
$LTSCALE
 40
1.0
  9
$OSMODE
 70
    37
  9
$ATTMODE
 70
     1
  9
$TEXTSIZE
 40
0.2
  9
$TRACEWID
 40
0.05
  9
$TEXTSTYLE
  7
STANDARD
  9
$CLAYER
  8
0
  9
$CELTYPE
  6
BYLAYER
  9
$CECOLOR
 62
   256
  9
$DIMSCALE
 40
1.0
  9
$DIMASZ
 40
0.18
  9
$DIMEXO
 40
0.0625
  9
$DIMDLI
 40
0.38
  9
$DIMRND
 40
0.0
  9
$DIMDLE
 40
0.0
  9
$DIMEXE
 40
0.18
  9
$DIMTP
 40
0.0
  9
$DIMTM
 40
0.0
  9
$DIMTXT
 40
0.18
  9
$DIMCEN
 40
0.09
  9
$DIMTSZ
 40
0.0
  9
$DIMTOL
 70
     0
  9
$DIMLIM
 70
     0
  9
$DIMTIH
 70
     1
  9
$DIMTOH
 70
     1
  9
$DIMSE1
 70
     0
  9
$DIMSE2
 70
     0
  9
$DIMTAD
 70
     0
  9
$DIMZIN
 70
     0
  9
$DIMBLK
  1

  9
$DIMASO
 70
     1
  9
$DIMSHO
 70
     1
  9
$DIMPOST
  1

  9
$DIMAPOST
  1

  9
$DIMALT
 70
     0
  9
$DIMALTD
 70
     2
  9
$DIMALTF
 40
25.4
  9
$DIMLFAC
 40
1.0
  9
$DIMTOFL
 70
     0
  9
$DIMTVP
 40
0.0
  9
$DIMTIX
 70
     0
  9
$DIMSOXD
 70
     0
  9
$DIMSAH
 70
     0
  9
$DIMBLK1
  1

  9
$DIMBLK2
  1

  9
$DIMSTYLE
  2
STANDARD
  9
$DIMCLRD
 70
     0
  9
$DIMCLRE
 70
     0
  9
$DIMCLRT
 70
     0
  9
$DIMTFAC
 40
1.0
  9
$DIMGAP
 40
0.09
  9
$LUNITS
 70
     2
  9
$LUPREC
 70
     2
  9
$SKETCHINC
 40
0.1
  9
$FILLETRAD
 40
0.5
  9
$AUNITS
 70
     0
  9
$AUPREC
 70
     0
  9
$MENU
  1
.
  9
$ELEVATION
 40
0.0
  9
$PELEVATION
 40
0.0
  9
$THICKNESS
 40
0.0
  9
$LIMCHECK
 70
     0
  9
$CHAMFERA
 40
0.0
  9
$CHAMFERB
 40
0.0
  9
$SKPOLY
 70
     0
  9
$TDCREATE
 40
2457913.607025463
  9
$TDUPDATE
 40
2457913.607037037
  9
$TDINDWG
 40
0.0000000116
  9
$TDUSRTIMER
 40
0.0000000116
  9
$USRTIMER
 70
     1
  9
$ANGBASE
 50
0.0
  9
$ANGDIR
 70
     0
  9
$PDMODE
 70
     0
  9
$PDSIZE
 40
0.0
  9
$PLINEWID
 40
0.0
  9
$COORDS
 70
     1
  9
$SPLFRAME
 70
     0
  9
$SPLINETYPE
 70
     6
  9
$SPLINESEGS
 70
     8
  9
$ATTDIA
 70
     0
  9
$ATTREQ
 70
     1
  9
$HANDLING
 70
     1
  9
$HANDSEED
  5
13C
  9
$SURFTAB1
 70
     6
  9
$SURFTAB2
 70
     6
  9
$SURFTYPE
 70
     6
  9
$SURFU
 70
     6
  9
$SURFV
 70
     6
  9
$UCSNAME
  2

  9
$UCSORG
 10
0.0
 20
0.0
 30
0.0
  9
$UCSXDIR
 10
1.0
 20
0.0
 30
0.0
  9
$UCSYDIR
 10
0.0
 20
1.0
 30
0.0
  9
$PUCSNAME
  2

  9
$PUCSORG
 10
0.0
 20
0.0
 30
0.0
  9
$PUCSXDIR
 10
1.0
 20
0.0
 30
0.0
  9
$PUCSYDIR
 10
0.0
 20
1.0
 30
0.0
  9
$USERI1
 70
     0
  9
$USERI2
 70
     0
  9
$USERI3
 70
     0
  9
$USERI4
 70
     0
  9
$USERI5
 70
     0
  9
$USERR1
 40
0.0
  9
$USERR2
 40
0.0
  9
$USERR3
 40
0.0
  9
$USERR4
 40
0.0
  9
$USERR5
 40
0.0
  9
$WORLDVIEW
 70
     1
  9
$SHADEDGE
 70
     3
  9
$SHADEDIF
 70
    70
  9
$TILEMODE
 70
     1
  9
$MAXACTVP
 70
    64
  9
$PLIMCHECK
 70
     0
  9
$PEXTMIN
 10
1.000000000000000E+20
 20
1.000000000000000E+20
 30
1.000000000000000E+20
  9
$PEXTMAX
 10
-1.000000000000000E+20
 20
-1.000000000000000E+20
 30
-1.000000000000000E+20
  9
$PLIMMIN
 10
0.0
 20
0.0
  9
$PLIMMAX
 10
12.0
 20
9.0
  9
$UNITMODE
 70
     0
  9
$VISRETAIN
 70
     1
  9
$PLINEGEN
 70
     0
  9
$PSLTSCALE
 70
     1
  0
ENDSEC
  0
SECTION
  2
TABLES
  0
TABLE
  2
VPORT
 70
     1
  0
VPORT
  2
*ACTIVE
 70
     0
 10
0.0
 20
0.0
 11
1.0
 21
1.0
 12
1948.0
 22
2145.0
 13
0.0
 23
0.0
 14
0.5
 24
0.5
 15
0.5
 25
0.5
 16
0.0
 26
0.0
 36
1.0
 17
0.0
 27
0.0
 37
0.0
 40
306.0
 41
1.0
 42
50.0
 43
0.0
 44
0.0
 50
0.0
 51
0.0
 71
     0
 72
   100
 73
     1
 74
     3
 75
     0
 76
     0
 77
     0
 78
     0
  0
ENDTAB
  0
TABLE
  2
LTYPE
 70
     1
  0
LTYPE
  2
CONTINUOUS
 70
     0
  3
Solid line
 72
    65
 73
     0
 40
0.0
  0
ENDTAB
  0
TABLE
  2
LAYER
 70
     2
  0
LAYER
  2
0
 70
     0
 62
     7
  6
CONTINUOUS
  0
LAYER
  2
CORTE_LASER$CORTE
 70
     0
 62
     7
  6
CONTINUOUS
  0
ENDTAB
  0
TABLE
  2
STYLE
 70
     1
  0
STYLE
  2
STANDARD
 70
     0
 40
0.0
 41
1.0
 50
0.0
 71
     0
 42
0.2
  3
txt
  4

  0
ENDTAB
  0
TABLE
  2
VIEW
 70
     0
  0
ENDTAB
  0
TABLE
  2
UCS
 70
     0
  0
ENDTAB
  0
TABLE
  2
APPID
 70
     1
  0
APPID
  2
ACAD
 70
     0
  0
ENDTAB
  0
TABLE
  2
DIMSTYLE
 70
     1
  0
DIMSTYLE
  2
STANDARD
 70
     0
  3

  4

  5

  6

  7

 40
1.0
 41
0.18
 42
0.0625
 43
0.38
 44
0.18
 45
0.0
 46
0.0
 47
0.0
 48
0.0
140
0.18
141
0.09
142
0.0
143
25.4
144
1.0
145
0.0
146
1.0
147
0.09
 71
     0
 72
     0
 73
     1
 74
     1
 75
     0
 76
     0
 77
     0
 78
     0
170
     0
171
     2
172
     0
173
     0
174
     0
175
     0
176
     0
177
     0
178
     0
  0
ENDTAB
  0
ENDSEC
  0
SECTION
  2
BLOCKS
  0
BLOCK
  8
0
  2
$MODEL_SPACE
 70
     0
 10
0.0
 20
0.0
 30
0.0
  3
$MODEL_SPACE
  1

  0
ENDBLK
  5
21
  8
0
  0
BLOCK
 67
     1
  8
0
  2
$PAPER_SPACE
 70
     0
 10
0.0
 20
0.0
 30
0.0
  3
$PAPER_SPACE
  1

  0
ENDBLK
  5
1D
 67
     1
  8
0
  0
ENDSEC
  0
SECTION
  2
ENTITIES
  0
POLYLINE
  5
6F
  8
CORTE_LASER$CORTE
 66
     1
 10
0.0
 20
0.0
 30
0.0
 70
     1
  0
VERTEX
  5
70
  8
CORTE_LASER$CORTE
 10
1822.689438582675
 20
2158.5
 30
0.0
  0
VERTEX
  5
71
  8
CORTE_LASER$CORTE
 10
1929.310561417327
 20
2158.5
 30
0.0
  0
VERTEX
  5
72
  8
CORTE_LASER$CORTE
 10
1929.310561417327
 20
2163.93933855889
 30
0.0
  0
VERTEX
  5
73
  8
CORTE_LASER$CORTE
 10
1929.312236597468
 20
2164.035312139566
 30
0.0
  0
VERTEX
  5
74
  8
CORTE_LASER$CORTE
 10
1929.317260185539
 20
2164.131168792852
 30
0.0
  0
VERTEX
  5
75
  8
CORTE_LASER$CORTE
 10
1929.325626061078
 20
2164.226791732269
 30
0.0
  0
VERTEX
  5
76
  8
CORTE_LASER$CORTE
 10
1929.337324031562
 20
2164.322064456082
 30
0.0
  0
VERTEX
  5
77
  8
CORTE_LASER$CORTE
 10
1929.352339844826
 20
2164.416870889241
 30
0.0
  0
VERTEX
  5
78
  8
CORTE_LASER$CORTE
 10
1929.370655206428
 20
2164.511095524797
 30
0.0
  0
VERTEX
  5
79
  8
CORTE_LASER$CORTE
 10
1929.392247801939
 20
2164.604623564632
 30
0.0
  0
VERTEX
  5
7A
  8
CORTE_LASER$CORTE
 10
1929.417091324126
 20
2164.697341059323
 30
0.0
  0
VERTEX
  5
7B
  8
CORTE_LASER$CORTE
 10
1929.445155505008
 20
2164.789135046967
 30
0.0
  0
VERTEX
  5
7C
  8
CORTE_LASER$CORTE
 10
1929.476406152728
 20
2164.879893690817
 30
0.0
  0
VERTEX
  5
7D
  8
CORTE_LASER$CORTE
 10
1929.510805193215
 20
2164.969506415526
 30
0.0
  0
VERTEX
  5
7E
  8
CORTE_LASER$CORTE
 10
1929.548310716568
 20
2165.057864041876
 30
0.0
  0
VERTEX
  5
7F
  8
CORTE_LASER$CORTE
 10
1929.588877028118
 20
2165.144858919791
 30
0.0
  0
VERTEX
  5
80
  8
CORTE_LASER$CORTE
 10
1929.632454704102
 20
2165.230385059493
 30
0.0
  0
VERTEX
  5
81
  8
CORTE_LASER$CORTE
 10
1929.678990651872
 20
2165.314338260631
 30
0.0
  0
VERTEX
  5
82
  8
CORTE_LASER$CORTE
 10
1929.728428174588
 20
2165.396616239239
 30
0.0
  0
VERTEX
  5
83
  8
CORTE_LASER$CORTE
 10
1929.780707040289
 20
2165.477118752352
 30
0.0
  0
VERTEX
  5
84
  8
CORTE_LASER$CORTE
 10
1929.835763555278
 20
2165.555747720128
 30
0.0
  0
VERTEX
  5
85
  8
CORTE_LASER$CORTE
 10
1929.893530641721
 20
2165.632407345356
 30
0.0
  0
VERTEX
  5
86
  8
CORTE_LASER$CORTE
 10
1929.953937919377
 20
2165.70700423016
 30
0.0
  0
VERTEX
  5
87
  8
CORTE_LASER$CORTE
 10
1930.016911791336
 20
2165.779447489796
 30
0.0
  0
VERTEX
  5
88
  8
CORTE_LASER$CORTE
 10
1930.082375533696
 20
2165.849648863377
 30
0.0
  0
VERTEX
  5
89
  8
CORTE_LASER$CORTE
 10
1930.150249389027
 20
2165.917522821408
 30
0.0
  0
VERTEX
  5
8A
  8
CORTE_LASER$CORTE
 10
1930.220450663556
 20
2165.982986669986
 30
0.0
  0
VERTEX
  5
8B
  8
CORTE_LASER$CORTE
 10
1930.292893827908
 20
2166.045960651558
 30
0.0
  0
VERTEX
  5
8C
  8
CORTE_LASER$CORTE
 10
1930.367490621312
 20
2166.106368042084
 30
0.0
  0
VERTEX
  5
8D
  8
CORTE_LASER$CORTE
 10
1930.444150159133
 20
2166.164135244519
 30
0.0
  0
VERTEX
  5
8E
  8
CORTE_LASER$CORTE
 10
1930.522779043605
 20
2166.21919187848
 30
0.0
  0
VERTEX
  5
8F
  8
CORTE_LASER$CORTE
 10
1930.603281477615
 20
2166.271470865987
 30
0.0
  0
VERTEX
  5
90
  8
CORTE_LASER$CORTE
 10
1930.685559381421
 20
2166.320908513196
 30
0.0
  0
VERTEX
  5
91
  8
CORTE_LASER$CORTE
 10
1930.769512512147
 20
2166.367444587994
 30
0.0
  0
VERTEX
  5
92
  8
CORTE_LASER$CORTE
 10
1930.855038585912
 20
2166.411022393385
 30
0.0
  0
VERTEX
  5
93
  8
CORTE_LASER$CORTE
 10
1930.942033402446
 20
2166.451588836565
 30
0.0
  0
VERTEX
  5
94
  8
CORTE_LASER$CORTE
 10
1931.030390972049
 20
2166.48909449361
 30
0.0
  0
VERTEX
  5
95
  8
CORTE_LASER$CORTE
 10
1931.120003644709
 20
2166.523493669687
 30
0.0
  0
VERTEX
  5
96
  8
CORTE_LASER$CORTE
 10
1931.210762241274
 20
2166.554744454732
 30
0.0
  0
VERTEX
  5
97
  8
CORTE_LASER$CORTE
 10
1931.302556186455
 20
2166.582808774505
 30
0.0
  0
VERTEX
  5
98
  8
CORTE_LASER$CORTE
 10
1931.395273643555
 20
2166.607652436981
 30
0.0
  0
VERTEX
  5
99
  8
CORTE_LASER$CORTE
 10
1931.488801650719
 20
2166.629245174007
 30
0.0
  0
VERTEX
  5
9A
  8
CORTE_LASER$CORTE
 10
1931.583026258562
 20
2166.647560678178
 30
0.0
  0
VERTEX
  5
9B
  8
CORTE_LASER$CORTE
 10
1931.677832669001
 20
2166.662576634891
 30
0.0
  0
VERTEX
  5
9C
  8
CORTE_LASER$CORTE
 10
1931.773105375114
 20
2166.674274749529
 30
0.0
  0
VERTEX
  5
9D
  8
CORTE_LASER$CORTE
 10
1931.868728301873
 20
2166.682640769754
 30
0.0
  0
VERTEX
  5
9E
  8
CORTE_LASER$CORTE
 10
1931.964584947558
 20
2166.687664502863
 30
0.0
  0
VERTEX
  5
9F
  8
CORTE_LASER$CORTE
 10
1932.060558525699
 20
2166.689339828219
 30
0.0
  0
VERTEX
  5
A0
  8
CORTE_LASER$CORTE
 10
1940.000024688615
 20
2166.68933982822
 30
0.0
  0
VERTEX
  5
A1
  8
CORTE_LASER$CORTE
 10
1940.000024688615
 20
2273.31066017178
 30
0.0
  0
VERTEX
  5
A2
  8
CORTE_LASER$CORTE
 10
1932.060558525699
 20
2273.310660171781
 30
0.0
  0
VERTEX
  5
A3
  8
CORTE_LASER$CORTE
 10
1931.964584947558
 20
2273.312335497137
 30
0.0
  0
VERTEX
  5
A4
  8
CORTE_LASER$CORTE
 10
1931.868728301873
 20
2273.317359230246
 30
0.0
  0
VERTEX
  5
A5
  8
CORTE_LASER$CORTE
 10
1931.773105375114
 20
2273.325725250471
 30
0.0
  0
VERTEX
  5
A6
  8
CORTE_LASER$CORTE
 10
1931.677832669001
 20
2273.337423365109
 30
0.0
  0
VERTEX
  5
A7
  8
CORTE_LASER$CORTE
 10
1931.583026258562
 20
2273.352439321822
 30
0.0
  0
VERTEX
  5
A8
  8
CORTE_LASER$CORTE
 10
1931.488801650719
 20
2273.370754825994
 30
0.0
  0
VERTEX
  5
A9
  8
CORTE_LASER$CORTE
 10
1931.395273643555
 20
2273.392347563019
 30
0.0
  0
VERTEX
  5
AA
  8
CORTE_LASER$CORTE
 10
1931.302556186455
 20
2273.417191225495
 30
0.0
  0
VERTEX
  5
AB
  8
CORTE_LASER$CORTE
 10
1931.210762241274
 20
2273.445255545268
 30
0.0
  0
VERTEX
  5
AC
  8
CORTE_LASER$CORTE
 10
1931.120003644709
 20
2273.476506330313
 30
0.0
  0
VERTEX
  5
AD
  8
CORTE_LASER$CORTE
 10
1931.030390972049
 20
2273.51090550639
 30
0.0
  0
VERTEX
  5
AE
  8
CORTE_LASER$CORTE
 10
1930.942033402446
 20
2273.548411163435
 30
0.0
  0
VERTEX
  5
AF
  8
CORTE_LASER$CORTE
 10
1930.855038585912
 20
2273.588977606615
 30
0.0
  0
VERTEX
  5
B0
  8
CORTE_LASER$CORTE
 10
1930.769512512147
 20
2273.632555412006
 30
0.0
  0
VERTEX
  5
B1
  8
CORTE_LASER$CORTE
 10
1930.685559381421
 20
2273.679091486804
 30
0.0
  0
VERTEX
  5
B2
  8
CORTE_LASER$CORTE
 10
1930.603281477615
 20
2273.728529134013
 30
0.0
  0
VERTEX
  5
B3
  8
CORTE_LASER$CORTE
 10
1930.522779043605
 20
2273.78080812152
 30
0.0
  0
VERTEX
  5
B4
  8
CORTE_LASER$CORTE
 10
1930.444150159133
 20
2273.835864755481
 30
0.0
  0
VERTEX
  5
B5
  8
CORTE_LASER$CORTE
 10
1930.367490621312
 20
2273.893631957916
 30
0.0
  0
VERTEX
  5
B6
  8
CORTE_LASER$CORTE
 10
1930.292893827908
 20
2273.954039348442
 30
0.0
  0
VERTEX
  5
B7
  8
CORTE_LASER$CORTE
 10
1930.220450663556
 20
2274.017013330014
 30
0.0
  0
VERTEX
  5
B8
  8
CORTE_LASER$CORTE
 10
1930.150249389027
 20
2274.082477178592
 30
0.0
  0
VERTEX
  5
B9
  8
CORTE_LASER$CORTE
 10
1930.082375533696
 20
2274.150351136623
 30
0.0
  0
VERTEX
  5
BA
  8
CORTE_LASER$CORTE
 10
1930.016911791336
 20
2274.220552510204
 30
0.0
  0
VERTEX
  5
BB
  8
CORTE_LASER$CORTE
 10
1929.953937919377
 20
2274.29299576984
 30
0.0
  0
VERTEX
  5
BC
  8
CORTE_LASER$CORTE
 10
1929.893530641721
 20
2274.367592654644
 30
0.0
  0
VERTEX
  5
BD
  8
CORTE_LASER$CORTE
 10
1929.835763555277
 20
2274.444252279872
 30
0.0
  0
VERTEX
  5
BE
  8
CORTE_LASER$CORTE
 10
1929.780707040289
 20
2274.522881247648
 30
0.0
  0
VERTEX
  5
BF
  8
CORTE_LASER$CORTE
 10
1929.728428174588
 20
2274.603383760761
 30
0.0
  0
VERTEX
  5
C0
  8
CORTE_LASER$CORTE
 10
1929.678990651872
 20
2274.685661739369
 30
0.0
  0
VERTEX
  5
C1
  8
CORTE_LASER$CORTE
 10
1929.632454704102
 20
2274.769614940507
 30
0.0
  0
VERTEX
  5
C2
  8
CORTE_LASER$CORTE
 10
1929.588877028118
 20
2274.855141080209
 30
0.0
  0
VERTEX
  5
C3
  8
CORTE_LASER$CORTE
 10
1929.548310716568
 20
2274.942135958124
 30
0.0
  0
VERTEX
  5
C4
  8
CORTE_LASER$CORTE
 10
1929.510805193215
 20
2275.030493584474
 30
0.0
  0
VERTEX
  5
C5
  8
CORTE_LASER$CORTE
 10
1929.476406152728
 20
2275.120106309183
 30
0.0
  0
VERTEX
  5
C6
  8
CORTE_LASER$CORTE
 10
1929.445155505008
 20
2275.210864953033
 30
0.0
  0
VERTEX
  5
C7
  8
CORTE_LASER$CORTE
 10
1929.417091324126
 20
2275.302658940677
 30
0.0
  0
VERTEX
  5
C8
  8
CORTE_LASER$CORTE
 10
1929.392247801939
 20
2275.395376435368
 30
0.0
  0
VERTEX
  5
C9
  8
CORTE_LASER$CORTE
 10
1929.370655206428
 20
2275.488904475203
 30
0.0
  0
VERTEX
  5
CA
  8
CORTE_LASER$CORTE
 10
1929.352339844826
 20
2275.583129110759
 30
0.0
  0
VERTEX
  5
CB
  8
CORTE_LASER$CORTE
 10
1929.337324031562
 20
2275.677935543918
 30
0.0
  0
VERTEX
  5
CC
  8
CORTE_LASER$CORTE
 10
1929.325626061078
 20
2275.773208267731
 30
0.0
  0
VERTEX
  5
CD
  8
CORTE_LASER$CORTE
 10
1929.317260185539
 20
2275.868831207148
 30
0.0
  0
VERTEX
  5
CE
  8
CORTE_LASER$CORTE
 10
1929.312236597468
 20
2275.964687860434
 30
0.0
  0
VERTEX
  5
CF
  8
CORTE_LASER$CORTE
 10
1929.310561417327
 20
2276.06066144111
 30
0.0
  0
VERTEX
  5
D0
  8
CORTE_LASER$CORTE
 10
1929.310561417327
 20
2281.5
 30
0.0
  0
VERTEX
  5
D1
  8
CORTE_LASER$CORTE
 10
1822.689438582675
 20
2281.5
 30
0.0
  0
VERTEX
  5
D2
  8
CORTE_LASER$CORTE
 10
1822.689438582675
 20
2276.06066144111
 30
0.0
  0
VERTEX
  5
D3
  8
CORTE_LASER$CORTE
 10
1822.687763402535
 20
2275.964687860434
 30
0.0
  0
VERTEX
  5
D4
  8
CORTE_LASER$CORTE
 10
1822.682739814463
 20
2275.868831207148
 30
0.0
  0
VERTEX
  5
D5
  8
CORTE_LASER$CORTE
 10
1822.674373938924
 20
2275.773208267731
 30
0.0
  0
VERTEX
  5
D6
  8
CORTE_LASER$CORTE
 10
1822.66267596844
 20
2275.677935543918
 30
0.0
  0
VERTEX
  5
D7
  8
CORTE_LASER$CORTE
 10
1822.647660155176
 20
2275.583129110759
 30
0.0
  0
VERTEX
  5
D8
  8
CORTE_LASER$CORTE
 10
1822.629344793574
 20
2275.488904475203
 30
0.0
  0
VERTEX
  5
D9
  8
CORTE_LASER$CORTE
 10
1822.607752198064
 20
2275.395376435368
 30
0.0
  0
VERTEX
  5
DA
  8
CORTE_LASER$CORTE
 10
1822.582908675877
 20
2275.302658940678
 30
0.0
  0
VERTEX
  5
DB
  8
CORTE_LASER$CORTE
 10
1822.554844494995
 20
2275.210864953033
 30
0.0
  0
VERTEX
  5
DC
  8
CORTE_LASER$CORTE
 10
1822.523593847274
 20
2275.120106309183
 30
0.0
  0
VERTEX
  5
DD
  8
CORTE_LASER$CORTE
 10
1822.489194806788
 20
2275.030493584474
 30
0.0
  0
VERTEX
  5
DE
  8
CORTE_LASER$CORTE
 10
1822.451689283435
 20
2274.942135958124
 30
0.0
  0
VERTEX
  5
DF
  8
CORTE_LASER$CORTE
 10
1822.411122971884
 20
2274.855141080209
 30
0.0
  0
VERTEX
  5
E0
  8
CORTE_LASER$CORTE
 10
1822.367545295901
 20
2274.769614940507
 30
0.0
  0
VERTEX
  5
E1
  8
CORTE_LASER$CORTE
 10
1822.32100934813
 20
2274.685661739369
 30
0.0
  0
VERTEX
  5
E2
  8
CORTE_LASER$CORTE
 10
1822.271571825414
 20
2274.603383760761
 30
0.0
  0
VERTEX
  5
E3
  8
CORTE_LASER$CORTE
 10
1822.219292959713
 20
2274.522881247648
 30
0.0
  0
VERTEX
  5
E4
  8
CORTE_LASER$CORTE
 10
1822.164236444725
 20
2274.444252279872
 30
0.0
  0
VERTEX
  5
E5
  8
CORTE_LASER$CORTE
 10
1822.106469358281
 20
2274.367592654644
 30
0.0
  0
VERTEX
  5
E6
  8
CORTE_LASER$CORTE
 10
1822.046062080625
 20
2274.29299576984
 30
0.0
  0
VERTEX
  5
E7
  8
CORTE_LASER$CORTE
 10
1821.983088208666
 20
2274.220552510204
 30
0.0
  0
VERTEX
  5
E8
  8
CORTE_LASER$CORTE
 10
1821.917624466307
 20
2274.150351136623
 30
0.0
  0
VERTEX
  5
E9
  8
CORTE_LASER$CORTE
 10
1821.849750610975
 20
2274.082477178592
 30
0.0
  0
VERTEX
  5
EA
  8
CORTE_LASER$CORTE
 10
1821.779549336446
 20
2274.017013330014
 30
0.0
  0
VERTEX
  5
EB
  8
CORTE_LASER$CORTE
 10
1821.707106172094
 20
2273.954039348442
 30
0.0
  0
VERTEX
  5
EC
  8
CORTE_LASER$CORTE
 10
1821.63250937869
 20
2273.893631957916
 30
0.0
  0
VERTEX
  5
ED
  8
CORTE_LASER$CORTE
 10
1821.555849840869
 20
2273.835864755481
 30
0.0
  0
VERTEX
  5
EE
  8
CORTE_LASER$CORTE
 10
1821.477220956397
 20
2273.78080812152
 30
0.0
  0
VERTEX
  5
EF
  8
CORTE_LASER$CORTE
 10
1821.396718522387
 20
2273.728529134013
 30
0.0
  0
VERTEX
  5
F0
  8
CORTE_LASER$CORTE
 10
1821.314440618581
 20
2273.679091486804
 30
0.0
  0
VERTEX
  5
F1
  8
CORTE_LASER$CORTE
 10
1821.230487487855
 20
2273.632555412006
 30
0.0
  0
VERTEX
  5
F2
  8
CORTE_LASER$CORTE
 10
1821.144961414091
 20
2273.588977606615
 30
0.0
  0
VERTEX
  5
F3
  8
CORTE_LASER$CORTE
 10
1821.057966597556
 20
2273.548411163435
 30
0.0
  0
VERTEX
  5
F4
  8
CORTE_LASER$CORTE
 10
1820.969609027954
 20
2273.51090550639
 30
0.0
  0
VERTEX
  5
F5
  8
CORTE_LASER$CORTE
 10
1820.879996355293
 20
2273.476506330313
 30
0.0
  0
VERTEX
  5
F6
  8
CORTE_LASER$CORTE
 10
1820.789237758728
 20
2273.445255545268
 30
0.0
  0
VERTEX
  5
F7
  8
CORTE_LASER$CORTE
 10
1820.697443813547
 20
2273.417191225495
 30
0.0
  0
VERTEX
  5
F8
  8
CORTE_LASER$CORTE
 10
1820.604726356447
 20
2273.392347563019
 30
0.0
  0
VERTEX
  5
F9
  8
CORTE_LASER$CORTE
 10
1820.511198349283
 20
2273.370754825994
 30
0.0
  0
VERTEX
  5
FA
  8
CORTE_LASER$CORTE
 10
1820.41697374144
 20
2273.352439321822
 30
0.0
  0
VERTEX
  5
FB
  8
CORTE_LASER$CORTE
 10
1820.322167331001
 20
2273.337423365109
 30
0.0
  0
VERTEX
  5
FC
  8
CORTE_LASER$CORTE
 10
1820.226894624888
 20
2273.325725250471
 30
0.0
  0
VERTEX
  5
FD
  8
CORTE_LASER$CORTE
 10
1820.131271698129
 20
2273.317359230246
 30
0.0
  0
VERTEX
  5
FE
  8
CORTE_LASER$CORTE
 10
1820.035415052444
 20
2273.312335497137
 30
0.0
  0
VERTEX
  5
FF
  8
CORTE_LASER$CORTE
 10
1819.939441474303
 20
2273.310660171781
 30
0.0
  0
VERTEX
  5
100
  8
CORTE_LASER$CORTE
 10
1811.999975311387
 20
2273.31066017178
 30
0.0
  0
VERTEX
  5
101
  8
CORTE_LASER$CORTE
 10
1811.999975311387
 20
2166.68933982822
 30
0.0
  0
VERTEX
  5
102
  8
CORTE_LASER$CORTE
 10
1819.939441474303
 20
2166.689339828219
 30
0.0
  0
VERTEX
  5
103
  8
CORTE_LASER$CORTE
 10
1820.035415052444
 20
2166.687664502863
 30
0.0
  0
VERTEX
  5
104
  8
CORTE_LASER$CORTE
 10
1820.131271698129
 20
2166.682640769754
 30
0.0
  0
VERTEX
  5
105
  8
CORTE_LASER$CORTE
 10
1820.226894624888
 20
2166.674274749529
 30
0.0
  0
VERTEX
  5
106
  8
CORTE_LASER$CORTE
 10
1820.322167331001
 20
2166.662576634891
 30
0.0
  0
VERTEX
  5
107
  8
CORTE_LASER$CORTE
 10
1820.41697374144
 20
2166.647560678178
 30
0.0
  0
VERTEX
  5
108
  8
CORTE_LASER$CORTE
 10
1820.511198349283
 20
2166.629245174006
 30
0.0
  0
VERTEX
  5
109
  8
CORTE_LASER$CORTE
 10
1820.604726356447
 20
2166.607652436981
 30
0.0
  0
VERTEX
  5
10A
  8
CORTE_LASER$CORTE
 10
1820.697443813547
 20
2166.582808774505
 30
0.0
  0
VERTEX
  5
10B
  8
CORTE_LASER$CORTE
 10
1820.789237758728
 20
2166.554744454732
 30
0.0
  0
VERTEX
  5
10C
  8
CORTE_LASER$CORTE
 10
1820.879996355293
 20
2166.523493669687
 30
0.0
  0
VERTEX
  5
10D
  8
CORTE_LASER$CORTE
 10
1820.969609027954
 20
2166.48909449361
 30
0.0
  0
VERTEX
  5
10E
  8
CORTE_LASER$CORTE
 10
1821.057966597556
 20
2166.451588836565
 30
0.0
  0
VERTEX
  5
10F
  8
CORTE_LASER$CORTE
 10
1821.144961414091
 20
2166.411022393385
 30
0.0
  0
VERTEX
  5
110
  8
CORTE_LASER$CORTE
 10
1821.230487487855
 20
2166.367444587994
 30
0.0
  0
VERTEX
  5
111
  8
CORTE_LASER$CORTE
 10
1821.314440618581
 20
2166.320908513196
 30
0.0
  0
VERTEX
  5
112
  8
CORTE_LASER$CORTE
 10
1821.396718522387
 20
2166.271470865987
 30
0.0
  0
VERTEX
  5
113
  8
CORTE_LASER$CORTE
 10
1821.477220956397
 20
2166.21919187848
 30
0.0
  0
VERTEX
  5
114
  8
CORTE_LASER$CORTE
 10
1821.555849840869
 20
2166.164135244519
 30
0.0
  0
VERTEX
  5
115
  8
CORTE_LASER$CORTE
 10
1821.63250937869
 20
2166.106368042084
 30
0.0
  0
VERTEX
  5
116
  8
CORTE_LASER$CORTE
 10
1821.707106172094
 20
2166.045960651558
 30
0.0
  0
VERTEX
  5
117
  8
CORTE_LASER$CORTE
 10
1821.779549336446
 20
2165.982986669986
 30
0.0
  0
VERTEX
  5
118
  8
CORTE_LASER$CORTE
 10
1821.849750610975
 20
2165.917522821408
 30
0.0
  0
VERTEX
  5
119
  8
CORTE_LASER$CORTE
 10
1821.917624466307
 20
2165.849648863377
 30
0.0
  0
VERTEX
  5
11A
  8
CORTE_LASER$CORTE
 10
1821.983088208666
 20
2165.779447489796
 30
0.0
  0
VERTEX
  5
11B
  8
CORTE_LASER$CORTE
 10
1822.046062080625
 20
2165.70700423016
 30
0.0
  0
VERTEX
  5
11C
  8
CORTE_LASER$CORTE
 10
1822.106469358281
 20
2165.632407345356
 30
0.0
  0
VERTEX
  5
11D
  8
CORTE_LASER$CORTE
 10
1822.164236444725
 20
2165.555747720128
 30
0.0
  0
VERTEX
  5
11E
  8
CORTE_LASER$CORTE
 10
1822.219292959713
 20
2165.477118752352
 30
0.0
  0
VERTEX
  5
11F
  8
CORTE_LASER$CORTE
 10
1822.271571825414
 20
2165.396616239239
 30
0.0
  0
VERTEX
  5
120
  8
CORTE_LASER$CORTE
 10
1822.32100934813
 20
2165.314338260631
 30
0.0
  0
VERTEX
  5
121
  8
CORTE_LASER$CORTE
 10
1822.367545295901
 20
2165.230385059493
 30
0.0
  0
VERTEX
  5
122
  8
CORTE_LASER$CORTE
 10
1822.411122971884
 20
2165.144858919791
 30
0.0
  0
VERTEX
  5
123
  8
CORTE_LASER$CORTE
 10
1822.451689283435
 20
2165.057864041876
 30
0.0
  0
VERTEX
  5
124
  8
CORTE_LASER$CORTE
 10
1822.489194806788
 20
2164.969506415526
 30
0.0
  0
VERTEX
  5
125
  8
CORTE_LASER$CORTE
 10
1822.523593847275
 20
2164.879893690817
 30
0.0
  0
VERTEX
  5
126
  8
CORTE_LASER$CORTE
 10
1822.554844494995
 20
2164.789135046967
 30
0.0
  0
VERTEX
  5
127
  8
CORTE_LASER$CORTE
 10
1822.582908675877
 20
2164.697341059322
 30
0.0
  0
VERTEX
  5
128
  8
CORTE_LASER$CORTE
 10
1822.607752198064
 20
2164.604623564632
 30
0.0
  0
VERTEX
  5
129
  8
CORTE_LASER$CORTE
 10
1822.629344793574
 20
2164.511095524797
 30
0.0
  0
VERTEX
  5
12A
  8
CORTE_LASER$CORTE
 10
1822.647660155176
 20
2164.416870889241
 30
0.0
  0
VERTEX
  5
12B
  8
CORTE_LASER$CORTE
 10
1822.66267596844
 20
2164.322064456082
 30
0.0
  0
VERTEX
  5
12C
  8
CORTE_LASER$CORTE
 10
1822.674373938924
 20
2164.226791732269
 30
0.0
  0
VERTEX
  5
12D
  8
CORTE_LASER$CORTE
 10
1822.682739814463
 20
2164.131168792852
 30
0.0
  0
VERTEX
  5
12E
  8
CORTE_LASER$CORTE
 10
1822.687763402535
 20
2164.035312139566
 30
0.0
  0
VERTEX
  5
12F
  8
CORTE_LASER$CORTE
 10
1822.689438582675
 20
2163.93933855889
 30
0.0
  0
SEQEND
  5
130
  8
CORTE_LASER$CORTE
  0
LINE
  5
131
  8
CORTE_LASER$CORTE
 10
1798.0
 20
1995.0
 30
0.0
 11
2098.0
 21
1995.0
 31
0.0
  0
LINE
  5
132
  8
CORTE_LASER$CORTE
 10
2098.0
 20
1995.0
 30
0.0
 11
2098.0
 21
2295.0
 31
0.0
  0
LINE
  5
133
  8
CORTE_LASER$CORTE
 10
2098.0
 20
2295.0
 30
0.0
 11
1798.0
 21
2295.0
 31
0.0
  0
LINE
  5
134
  8
CORTE_LASER$CORTE
 10
1798.0
 20
2295.0
 30
0.0
 11
1798.0
 21
1995.0
 31
0.0
  0
ENDSEC
  0
EOF
