  0
SECTION
  2
HEADER
  9
$ACADVER
  1
AC1009
  9
$DWGCODEPAGE
  3
mac-roman
  9
$INSBASE
 10
0.0
 20
0.0
 30
0.0
  9
$EXTMIN
 10
1799.0
 20
2338.0
 30
0.0
  9
$EXTMAX
 10
2099.0
 20
2638.0
 30
0.0
  9
$LIMMIN
 10
0.0
 20
0.0
  9
$LIMMAX
 10
12.0
 20
9.0
  9
$ORTHOMODE
 70
     0
  9
$REGENMODE
 70
     1
  9
$FILLMODE
 70
     1
  9
$QTEXTMODE
 70
     0
  9
$MIRRTEXT
 70
     1
  9
$DRAGMODE
 70
     2
  9
$LTSCALE
 40
1.0
  9
$OSMODE
 70
    37
  9
$ATTMODE
 70
     1
  9
$TEXTSIZE
 40
0.2
  9
$TRACEWID
 40
0.05
  9
$TEXTSTYLE
  7
STANDARD
  9
$CLAYER
  8
0
  9
$CELTYPE
  6
BYLAYER
  9
$CECOLOR
 62
   256
  9
$DIMSCALE
 40
1.0
  9
$DIMASZ
 40
0.18
  9
$DIMEXO
 40
0.0625
  9
$DIMDLI
 40
0.38
  9
$DIMRND
 40
0.0
  9
$DIMDLE
 40
0.0
  9
$DIMEXE
 40
0.18
  9
$DIMTP
 40
0.0
  9
$DIMTM
 40
0.0
  9
$DIMTXT
 40
0.18
  9
$DIMCEN
 40
0.09
  9
$DIMTSZ
 40
0.0
  9
$DIMTOL
 70
     0
  9
$DIMLIM
 70
     0
  9
$DIMTIH
 70
     1
  9
$DIMTOH
 70
     1
  9
$DIMSE1
 70
     0
  9
$DIMSE2
 70
     0
  9
$DIMTAD
 70
     0
  9
$DIMZIN
 70
     0
  9
$DIMBLK
  1

  9
$DIMASO
 70
     1
  9
$DIMSHO
 70
     1
  9
$DIMPOST
  1

  9
$DIMAPOST
  1

  9
$DIMALT
 70
     0
  9
$DIMALTD
 70
     2
  9
$DIMALTF
 40
25.4
  9
$DIMLFAC
 40
1.0
  9
$DIMTOFL
 70
     0
  9
$DIMTVP
 40
0.0
  9
$DIMTIX
 70
     0
  9
$DIMSOXD
 70
     0
  9
$DIMSAH
 70
     0
  9
$DIMBLK1
  1

  9
$DIMBLK2
  1

  9
$DIMSTYLE
  2
STANDARD
  9
$DIMCLRD
 70
     0
  9
$DIMCLRE
 70
     0
  9
$DIMCLRT
 70
     0
  9
$DIMTFAC
 40
1.0
  9
$DIMGAP
 40
0.09
  9
$LUNITS
 70
     2
  9
$LUPREC
 70
     2
  9
$SKETCHINC
 40
0.1
  9
$FILLETRAD
 40
0.5
  9
$AUNITS
 70
     0
  9
$AUPREC
 70
     0
  9
$MENU
  1
.
  9
$ELEVATION
 40
0.0
  9
$PELEVATION
 40
0.0
  9
$THICKNESS
 40
0.0
  9
$LIMCHECK
 70
     0
  9
$CHAMFERA
 40
0.0
  9
$CHAMFERB
 40
0.0
  9
$SKPOLY
 70
     0
  9
$TDCREATE
 40
2457913.606909722
  9
$TDUPDATE
 40
2457913.606921296
  9
$TDINDWG
 40
0.0000000116
  9
$TDUSRTIMER
 40
0.0000000116
  9
$USRTIMER
 70
     1
  9
$ANGBASE
 50
0.0
  9
$ANGDIR
 70
     0
  9
$PDMODE
 70
     0
  9
$PDSIZE
 40
0.0
  9
$PLINEWID
 40
0.0
  9
$COORDS
 70
     1
  9
$SPLFRAME
 70
     0
  9
$SPLINETYPE
 70
     6
  9
$SPLINESEGS
 70
     8
  9
$ATTDIA
 70
     0
  9
$ATTREQ
 70
     1
  9
$HANDLING
 70
     1
  9
$HANDSEED
  5
678
  9
$SURFTAB1
 70
     6
  9
$SURFTAB2
 70
     6
  9
$SURFTYPE
 70
     6
  9
$SURFU
 70
     6
  9
$SURFV
 70
     6
  9
$UCSNAME
  2

  9
$UCSORG
 10
0.0
 20
0.0
 30
0.0
  9
$UCSXDIR
 10
1.0
 20
0.0
 30
0.0
  9
$UCSYDIR
 10
0.0
 20
1.0
 30
0.0
  9
$PUCSNAME
  2

  9
$PUCSORG
 10
0.0
 20
0.0
 30
0.0
  9
$PUCSXDIR
 10
1.0
 20
0.0
 30
0.0
  9
$PUCSYDIR
 10
0.0
 20
1.0
 30
0.0
  9
$USERI1
 70
     0
  9
$USERI2
 70
     0
  9
$USERI3
 70
     0
  9
$USERI4
 70
     0
  9
$USERI5
 70
     0
  9
$USERR1
 40
0.0
  9
$USERR2
 40
0.0
  9
$USERR3
 40
0.0
  9
$USERR4
 40
0.0
  9
$USERR5
 40
0.0
  9
$WORLDVIEW
 70
     1
  9
$SHADEDGE
 70
     3
  9
$SHADEDIF
 70
    70
  9
$TILEMODE
 70
     1
  9
$MAXACTVP
 70
    64
  9
$PLIMCHECK
 70
     0
  9
$PEXTMIN
 10
1.000000000000000E+20
 20
1.000000000000000E+20
 30
1.000000000000000E+20
  9
$PEXTMAX
 10
-1.000000000000000E+20
 20
-1.000000000000000E+20
 30
-1.000000000000000E+20
  9
$PLIMMIN
 10
0.0
 20
0.0
  9
$PLIMMAX
 10
12.0
 20
9.0
  9
$UNITMODE
 70
     0
  9
$VISRETAIN
 70
     1
  9
$PLINEGEN
 70
     0
  9
$PSLTSCALE
 70
     1
  0
ENDSEC
  0
SECTION
  2
TABLES
  0
TABLE
  2
VPORT
 70
     1
  0
VPORT
  2
*ACTIVE
 70
     0
 10
0.0
 20
0.0
 11
1.0
 21
1.0
 12
1949.0
 22
2488.0
 13
0.0
 23
0.0
 14
0.5
 24
0.5
 15
0.5
 25
0.5
 16
0.0
 26
0.0
 36
1.0
 17
0.0
 27
0.0
 37
0.0
 40
306.0
 41
1.0
 42
50.0
 43
0.0
 44
0.0
 50
0.0
 51
0.0
 71
     0
 72
   100
 73
     1
 74
     3
 75
     0
 76
     0
 77
     0
 78
     0
  0
ENDTAB
  0
TABLE
  2
LTYPE
 70
     1
  0
LTYPE
  2
CONTINUOUS
 70
     0
  3
Solid line
 72
    65
 73
     0
 40
0.0
  0
ENDTAB
  0
TABLE
  2
LAYER
 70
     2
  0
LAYER
  2
0
 70
     0
 62
     7
  6
CONTINUOUS
  0
LAYER
  2
CORTE_LASER$CORTE
 70
     0
 62
     7
  6
CONTINUOUS
  0
ENDTAB
  0
TABLE
  2
STYLE
 70
     1
  0
STYLE
  2
STANDARD
 70
     0
 40
0.0
 41
1.0
 50
0.0
 71
     0
 42
0.2
  3
txt
  4

  0
ENDTAB
  0
TABLE
  2
VIEW
 70
     0
  0
ENDTAB
  0
TABLE
  2
UCS
 70
     0
  0
ENDTAB
  0
TABLE
  2
APPID
 70
     1
  0
APPID
  2
ACAD
 70
     0
  0
ENDTAB
  0
TABLE
  2
DIMSTYLE
 70
     1
  0
DIMSTYLE
  2
STANDARD
 70
     0
  3

  4

  5

  6

  7

 40
1.0
 41
0.18
 42
0.0625
 43
0.38
 44
0.18
 45
0.0
 46
0.0
 47
0.0
 48
0.0
140
0.18
141
0.09
142
0.0
143
25.4
144
1.0
145
0.0
146
1.0
147
0.09
 71
     0
 72
     0
 73
     1
 74
     1
 75
     0
 76
     0
 77
     0
 78
     0
170
     0
171
     2
172
     0
173
     0
174
     0
175
     0
176
     0
177
     0
178
     0
  0
ENDTAB
  0
ENDSEC
  0
SECTION
  2
BLOCKS
  0
BLOCK
  8
0
  2
$MODEL_SPACE
 70
     0
 10
0.0
 20
0.0
 30
0.0
  3
$MODEL_SPACE
  1

  0
ENDBLK
  5
21
  8
0
  0
BLOCK
 67
     1
  8
0
  2
$PAPER_SPACE
 70
     0
 10
0.0
 20
0.0
 30
0.0
  3
$PAPER_SPACE
  1

  0
ENDBLK
  5
1D
 67
     1
  8
0
  0
ENDSEC
  0
SECTION
  2
ENTITIES
  0
LINE
  5
6F
  8
CORTE_LASER$CORTE
 10
1799.0
 20
2338.0
 30
0.0
 11
2099.0
 21
2338.0
 31
0.0
  0
LINE
  5
70
  8
CORTE_LASER$CORTE
 10
2099.0
 20
2338.0
 30
0.0
 11
2099.0
 21
2638.0
 31
0.0
  0
LINE
  5
71
  8
CORTE_LASER$CORTE
 10
2099.0
 20
2638.0
 30
0.0
 11
1799.0
 21
2638.0
 31
0.0
  0
LINE
  5
72
  8
CORTE_LASER$CORTE
 10
1799.0
 20
2638.0
 30
0.0
 11
1799.0
 21
2338.0
 31
0.0
  0
CIRCLE
  5
73
  8
CORTE_LASER$CORTE
 10
1872.499999999487
 20
2517.711993505113
 30
0.0
 40
1.75
  0
POLYLINE
  5
74
  8
CORTE_LASER$CORTE
 66
     1
 10
0.0
 20
0.0
 30
0.0
 70
     1
  0
VERTEX
  5
75
  8
CORTE_LASER$CORTE
 10
1864.003980554941
 20
2514.711993505113
 30
0.0
  0
VERTEX
  5
76
  8
CORTE_LASER$CORTE
 10
1864.003980554942
 20
2521.711993505113
 30
0.0
  0
VERTEX
  5
77
  8
CORTE_LASER$CORTE
 10
1864.004719635861
 20
2521.778581336398
 30
0.0
  0
VERTEX
  5
78
  8
CORTE_LASER$CORTE
 10
1864.006963134825
 20
2521.845734237559
 30
0.0
  0
VERTEX
  5
79
  8
CORTE_LASER$CORTE
 10
1864.010749506175
 20
2521.913408223281
 30
0.0
  0
VERTEX
  5
7A
  8
CORTE_LASER$CORTE
 10
1864.016115829103
 20
2521.981556818806
 30
0.0
  0
VERTEX
  5
7B
  8
CORTE_LASER$CORTE
 10
1864.023097636355
 20
2522.050131089065
 30
0.0
  0
VERTEX
  5
7C
  8
CORTE_LASER$CORTE
 10
1864.031728740937
 20
2522.119079680444
 30
0.0
  0
VERTEX
  5
7D
  8
CORTE_LASER$CORTE
 10
1864.042041061818
 20
2522.188348875688
 30
0.0
  0
VERTEX
  5
7E
  8
CORTE_LASER$CORTE
 10
1864.054064449692
 20
2522.25788266235
 30
0.0
  0
VERTEX
  5
7F
  8
CORTE_LASER$CORTE
 10
1864.067826513913
 20
2522.32762281513
 30
0.0
  0
VERTEX
  5
80
  8
CORTE_LASER$CORTE
 10
1864.083352451814
 20
2522.397508992333
 30
0.0
  0
VERTEX
  5
81
  8
CORTE_LASER$CORTE
 10
1864.100664881637
 20
2522.46747884656
 30
0.0
  0
VERTEX
  5
82
  8
CORTE_LASER$CORTE
 10
1864.119783680381
 20
2522.53746814965
 30
0.0
  0
VERTEX
  5
83
  8
CORTE_LASER$CORTE
 10
1864.140725827875
 20
2522.607410931751
 30
0.0
  0
VERTEX
  5
84
  8
CORTE_LASER$CORTE
 10
1864.163505258417
 20
2522.677239634259
 30
0.0
  0
VERTEX
  5
85
  8
CORTE_LASER$CORTE
 10
1864.18813272133
 20
2522.746885276238
 30
0.0
  0
VERTEX
  5
86
  8
CORTE_LASER$CORTE
 10
1864.214615651755
 20
2522.816277633799
 30
0.0
  0
VERTEX
  5
87
  8
CORTE_LASER$CORTE
 10
1864.242958052996
 20
2522.885345431753
 30
0.0
  0
VERTEX
  5
88
  8
CORTE_LASER$CORTE
 10
1864.273160391672
 20
2522.954016546718
 30
0.0
  0
VERTEX
  5
89
  8
CORTE_LASER$CORTE
 10
1864.305219506873
 20
2523.022218220736
 30
0.0
  0
VERTEX
  5
8A
  8
CORTE_LASER$CORTE
 10
1864.339128534453
 20
2523.089877284282
 30
0.0
  0
VERTEX
  5
8B
  8
CORTE_LASER$CORTE
 10
1864.374876847469
 20
2523.156920387468
 30
0.0
  0
VERTEX
  5
8C
  8
CORTE_LASER$CORTE
 10
1864.4124500137
 20
2523.223274238071
 30
0.0
  0
VERTEX
  5
8D
  8
CORTE_LASER$CORTE
 10
1864.451829771021
 20
2523.288865844947
 30
0.0
  0
VERTEX
  5
8E
  8
CORTE_LASER$CORTE
 10
1864.492994021286
 20
2523.353622765268
 30
0.0
  0
VERTEX
  5
8F
  8
CORTE_LASER$CORTE
 10
1864.535916843215
 20
2523.41747335397
 30
0.0
  0
VERTEX
  5
90
  8
CORTE_LASER$CORTE
 10
1864.580568524615
 20
2523.480347013682
 30
0.0
  0
VERTEX
  5
91
  8
CORTE_LASER$CORTE
 10
1864.626915614088
 20
2523.542174443426
 30
0.0
  0
VERTEX
  5
92
  8
CORTE_LASER$CORTE
 10
1864.674920992217
 20
2523.602887884312
 30
0.0
  0
VERTEX
  5
93
  8
CORTE_LASER$CORTE
 10
1864.724543962019
 20
2523.662421360442
 30
0.0
  0
VERTEX
  5
94
  8
CORTE_LASER$CORTE
 10
1864.775740358265
 20
2523.72071091329
 30
0.0
  0
VERTEX
  5
95
  8
CORTE_LASER$CORTE
 10
1864.828462675129
 20
2523.777694827815
 30
0.0
  0
VERTEX
  5
96
  8
CORTE_LASER$CORTE
 10
1864.882660211382
 20
2523.833313848673
 30
0.0
  0
VERTEX
  5
97
  8
CORTE_LASER$CORTE
 10
1864.93827923224
 20
2523.887511384927
 30
0.0
  0
VERTEX
  5
98
  8
CORTE_LASER$CORTE
 10
1864.995263146765
 20
2523.940233701791
 30
0.0
  0
VERTEX
  5
99
  8
CORTE_LASER$CORTE
 10
1865.053552699614
 20
2523.991430098037
 30
0.0
  0
VERTEX
  5
9A
  8
CORTE_LASER$CORTE
 10
1865.113086175744
 20
2524.041053067839
 30
0.0
  0
VERTEX
  5
9B
  8
CORTE_LASER$CORTE
 10
1865.17379961663
 20
2524.089058445968
 30
0.0
  0
VERTEX
  5
9C
  8
CORTE_LASER$CORTE
 10
1865.235627046373
 20
2524.13540553544
 30
0.0
  0
VERTEX
  5
9D
  8
CORTE_LASER$CORTE
 10
1865.298500706084
 20
2524.180057216839
 30
0.0
  0
VERTEX
  5
9E
  8
CORTE_LASER$CORTE
 10
1865.362351294786
 20
2524.222980038769
 30
0.0
  0
VERTEX
  5
9F
  8
CORTE_LASER$CORTE
 10
1865.427108215109
 20
2524.264144289035
 30
0.0
  0
VERTEX
  5
A0
  8
CORTE_LASER$CORTE
 10
1865.492699821985
 20
2524.303524046356
 30
0.0
  0
VERTEX
  5
A1
  8
CORTE_LASER$CORTE
 10
1865.559053672588
 20
2524.341097212587
 30
0.0
  0
VERTEX
  5
A2
  8
CORTE_LASER$CORTE
 10
1865.626096775774
 20
2524.376845525603
 30
0.0
  0
VERTEX
  5
A3
  8
CORTE_LASER$CORTE
 10
1865.69375583932
 20
2524.410754553183
 30
0.0
  0
VERTEX
  5
A4
  8
CORTE_LASER$CORTE
 10
1865.761957513338
 20
2524.442813668384
 30
0.0
  0
VERTEX
  5
A5
  8
CORTE_LASER$CORTE
 10
1865.830628628303
 20
2524.473016007059
 30
0.0
  0
VERTEX
  5
A6
  8
CORTE_LASER$CORTE
 10
1865.899696426257
 20
2524.501358408301
 30
0.0
  0
VERTEX
  5
A7
  8
CORTE_LASER$CORTE
 10
1865.969088783818
 20
2524.527841338726
 30
0.0
  0
VERTEX
  5
A8
  8
CORTE_LASER$CORTE
 10
1866.038734425796
 20
2524.552468801638
 30
0.0
  0
VERTEX
  5
A9
  8
CORTE_LASER$CORTE
 10
1866.108563128304
 20
2524.57524823218
 30
0.0
  0
VERTEX
  5
AA
  8
CORTE_LASER$CORTE
 10
1866.178505910406
 20
2524.596190379675
 30
0.0
  0
VERTEX
  5
AB
  8
CORTE_LASER$CORTE
 10
1866.248495213497
 20
2524.615309178419
 30
0.0
  0
VERTEX
  5
AC
  8
CORTE_LASER$CORTE
 10
1866.318465067723
 20
2524.632621608242
 30
0.0
  0
VERTEX
  5
AD
  8
CORTE_LASER$CORTE
 10
1866.388351244925
 20
2524.648147546142
 30
0.0
  0
VERTEX
  5
AE
  8
CORTE_LASER$CORTE
 10
1866.458091397705
 20
2524.661909610363
 30
0.0
  0
VERTEX
  5
AF
  8
CORTE_LASER$CORTE
 10
1866.527625184367
 20
2524.673932998237
 30
0.0
  0
VERTEX
  5
B0
  8
CORTE_LASER$CORTE
 10
1866.596894379611
 20
2524.684245319118
 30
0.0
  0
VERTEX
  5
B1
  8
CORTE_LASER$CORTE
 10
1866.66584297099
 20
2524.692876423699
 30
0.0
  0
VERTEX
  5
B2
  8
CORTE_LASER$CORTE
 10
1866.734417241248
 20
2524.699858230952
 30
0.0
  0
VERTEX
  5
B3
  8
CORTE_LASER$CORTE
 10
1866.802565836774
 20
2524.705224553881
 30
0.0
  0
VERTEX
  5
B4
  8
CORTE_LASER$CORTE
 10
1866.870239822496
 20
2524.70901092523
 30
0.0
  0
VERTEX
  5
B5
  8
CORTE_LASER$CORTE
 10
1866.937392723657
 20
2524.711254424194
 30
0.0
  0
VERTEX
  5
B6
  8
CORTE_LASER$CORTE
 10
1867.003980554942
 20
2524.711993505113
 30
0.0
  0
VERTEX
  5
B7
  8
CORTE_LASER$CORTE
 10
1872.499999999488
 20
2524.711993505113
 30
0.0
  0
VERTEX
  5
B8
  8
CORTE_LASER$CORTE
 10
1872.602423330046
 20
2524.710244572212
 30
0.0
  0
VERTEX
  5
B9
  8
CORTE_LASER$CORTE
 10
1872.704727239582
 20
2524.704999812685
 30
0.0
  0
VERTEX
  5
BA
  8
CORTE_LASER$CORTE
 10
1872.806792446314
 20
2524.696265341688
 30
0.0
  0
VERTEX
  5
BB
  8
CORTE_LASER$CORTE
 10
1872.908499946776
 20
2524.684051343222
 30
0.0
  0
VERTEX
  5
BC
  8
CORTE_LASER$CORTE
 10
1873.009731154574
 20
2524.668372058265
 30
0.0
  0
VERTEX
  5
BD
  8
CORTE_LASER$CORTE
 10
1873.110368038646
 20
2524.64924576816
 30
0.0
  0
VERTEX
  5
BE
  8
CORTE_LASER$CORTE
 10
1873.210293260887
 20
2524.626694773307
 30
0.0
  0
VERTEX
  5
BF
  8
CORTE_LASER$CORTE
 10
1873.309390312959
 20
2524.600745367157
 30
0.0
  0
VERTEX
  5
C0
  8
CORTE_LASER$CORTE
 10
1873.407543652131
 20
2524.571427805556
 30
0.0
  0
VERTEX
  5
C1
  8
CORTE_LASER$CORTE
 10
1873.504638836001
 20
2524.53877627147
 30
0.0
  0
VERTEX
  5
C2
  8
CORTE_LASER$CORTE
 10
1873.600562655927
 20
2524.502828835127
 30
0.0
  0
VERTEX
  5
C3
  8
CORTE_LASER$CORTE
 10
1873.695203269026
 20
2524.46362740963
 30
0.0
  0
VERTEX
  5
C4
  8
CORTE_LASER$CORTE
 10
1873.788450328578
 20
2524.421217702087
 30
0.0
  0
VERTEX
  5
C5
  8
CORTE_LASER$CORTE
 10
1873.880195112681
 20
2524.37564916032
 30
0.0
  0
VERTEX
  5
C6
  8
CORTE_LASER$CORTE
 10
1873.970330651022
 20
2524.326974915211
 30
0.0
  0
VERTEX
  5
C7
  8
CORTE_LASER$CORTE
 10
1874.058751849594
 20
2524.275251718753
 30
0.0
  0
VERTEX
  5
C8
  8
CORTE_LASER$CORTE
 10
1874.145355613236
 20
2524.220539877877
 30
0.0
  0
VERTEX
  5
C9
  8
CORTE_LASER$CORTE
 10
1874.230040965832
 20
2524.162903184145
 30
0.0
  0
VERTEX
  5
CA
  8
CORTE_LASER$CORTE
 10
1874.312709168051
 20
2524.102408839361
 30
0.0
  0
VERTEX
  5
CB
  8
CORTE_LASER$CORTE
 10
1874.393263832466
 20
2524.039127377227
 30
0.0
  0
VERTEX
  5
CC
  8
CORTE_LASER$CORTE
 10
1874.471611035942
 20
2523.973132581095
 30
0.0
  0
VERTEX
  5
CD
  8
CORTE_LASER$CORTE
 10
1874.547659429144
 20
2523.904501397948
 30
0.0
  0
VERTEX
  5
CE
  8
CORTE_LASER$CORTE
 10
1874.621320343047
 20
2523.833313848673
 30
0.0
  0
VERTEX
  5
CF
  8
CORTE_LASER$CORTE
 10
1874.692507892322
 20
2523.759652934769
 30
0.0
  0
VERTEX
  5
D0
  8
CORTE_LASER$CORTE
 10
1874.76113907547
 20
2523.683604541568
 30
0.0
  0
VERTEX
  5
D1
  8
CORTE_LASER$CORTE
 10
1874.827133871601
 20
2523.605257338092
 30
0.0
  0
VERTEX
  5
D2
  8
CORTE_LASER$CORTE
 10
1874.890415333735
 20
2523.524702673677
 30
0.0
  0
VERTEX
  5
D3
  8
CORTE_LASER$CORTE
 10
1874.950909678519
 20
2523.442034471458
 30
0.0
  0
VERTEX
  5
D4
  8
CORTE_LASER$CORTE
 10
1875.008546372252
 20
2523.357349118861
 30
0.0
  0
VERTEX
  5
D5
  8
CORTE_LASER$CORTE
 10
1875.063258213127
 20
2523.27074535522
 30
0.0
  0
VERTEX
  5
D6
  8
CORTE_LASER$CORTE
 10
1875.114981409586
 20
2523.182324156648
 30
0.0
  0
VERTEX
  5
D7
  8
CORTE_LASER$CORTE
 10
1875.163655654694
 20
2523.092188618307
 30
0.0
  0
VERTEX
  5
D8
  8
CORTE_LASER$CORTE
 10
1875.209224196461
 20
2523.000443834204
 30
0.0
  0
VERTEX
  5
D9
  8
CORTE_LASER$CORTE
 10
1875.251633904004
 20
2522.907196774652
 30
0.0
  0
VERTEX
  5
DA
  8
CORTE_LASER$CORTE
 10
1875.290835329501
 20
2522.812556161553
 30
0.0
  0
VERTEX
  5
DB
  8
CORTE_LASER$CORTE
 10
1875.326782765844
 20
2522.716632341627
 30
0.0
  0
VERTEX
  5
DC
  8
CORTE_LASER$CORTE
 10
1875.35943429993
 20
2522.619537157757
 30
0.0
  0
VERTEX
  5
DD
  8
CORTE_LASER$CORTE
 10
1875.388751861531
 20
2522.521383818585
 30
0.0
  0
VERTEX
  5
DE
  8
CORTE_LASER$CORTE
 10
1875.414701267681
 20
2522.422286766513
 30
0.0
  0
VERTEX
  5
DF
  8
CORTE_LASER$CORTE
 10
1875.437252262534
 20
2522.322361544272
 30
0.0
  0
VERTEX
  5
E0
  8
CORTE_LASER$CORTE
 10
1875.456378552639
 20
2522.221724660199
 30
0.0
  0
VERTEX
  5
E1
  8
CORTE_LASER$CORTE
 10
1875.472057837596
 20
2522.120493452403
 30
0.0
  0
VERTEX
  5
E2
  8
CORTE_LASER$CORTE
 10
1875.484271836062
 20
2522.01878595194
 30
0.0
  0
VERTEX
  5
E3
  8
CORTE_LASER$CORTE
 10
1875.493006307059
 20
2521.916720745208
 30
0.0
  0
VERTEX
  5
E4
  8
CORTE_LASER$CORTE
 10
1875.498251066586
 20
2521.814416835672
 30
0.0
  0
VERTEX
  5
E5
  8
CORTE_LASER$CORTE
 10
1875.499999999487
 20
2521.711993505113
 30
0.0
  0
VERTEX
  5
E6
  8
CORTE_LASER$CORTE
 10
1875.499999999487
 20
2521.211993505113
 30
0.0
  0
VERTEX
  5
E7
  8
CORTE_LASER$CORTE
 10
1875.499999999487
 20
2517.711993505113
 30
0.0
  0
VERTEX
  5
E8
  8
CORTE_LASER$CORTE
 10
1875.498251066586
 20
2517.609570174555
 30
0.0
  0
VERTEX
  5
E9
  8
CORTE_LASER$CORTE
 10
1875.493006307059
 20
2517.507266265019
 30
0.0
  0
VERTEX
  5
EA
  8
CORTE_LASER$CORTE
 10
1875.484271836062
 20
2517.405201058287
 30
0.0
  0
VERTEX
  5
EB
  8
CORTE_LASER$CORTE
 10
1875.472057837597
 20
2517.303493557824
 30
0.0
  0
VERTEX
  5
EC
  8
CORTE_LASER$CORTE
 10
1875.456378552639
 20
2517.202262350027
 30
0.0
  0
VERTEX
  5
ED
  8
CORTE_LASER$CORTE
 10
1875.437252262534
 20
2517.101625465955
 30
0.0
  0
VERTEX
  5
EE
  8
CORTE_LASER$CORTE
 10
1875.414701267681
 20
2517.001700243714
 30
0.0
  0
VERTEX
  5
EF
  8
CORTE_LASER$CORTE
 10
1875.388751861531
 20
2516.902603191642
 30
0.0
  0
VERTEX
  5
F0
  8
CORTE_LASER$CORTE
 10
1875.35943429993
 20
2516.80444985247
 30
0.0
  0
VERTEX
  5
F1
  8
CORTE_LASER$CORTE
 10
1875.326782765844
 20
2516.7073546686
 30
0.0
  0
VERTEX
  5
F2
  8
CORTE_LASER$CORTE
 10
1875.290835329501
 20
2516.611430848674
 30
0.0
  0
VERTEX
  5
F3
  8
CORTE_LASER$CORTE
 10
1875.251633904004
 20
2516.516790235574
 30
0.0
  0
VERTEX
  5
F4
  8
CORTE_LASER$CORTE
 10
1875.209224196461
 20
2516.423543176023
 30
0.0
  0
VERTEX
  5
F5
  8
CORTE_LASER$CORTE
 10
1875.163655654695
 20
2516.33179839192
 30
0.0
  0
VERTEX
  5
F6
  8
CORTE_LASER$CORTE
 10
1875.114981409586
 20
2516.241662853579
 30
0.0
  0
VERTEX
  5
F7
  8
CORTE_LASER$CORTE
 10
1875.063258213127
 20
2516.153241655007
 30
0.0
  0
VERTEX
  5
F8
  8
CORTE_LASER$CORTE
 10
1875.008546372252
 20
2516.066637891365
 30
0.0
  0
VERTEX
  5
F9
  8
CORTE_LASER$CORTE
 10
1874.950909678519
 20
2515.981952538769
 30
0.0
  0
VERTEX
  5
FA
  8
CORTE_LASER$CORTE
 10
1874.890415333735
 20
2515.89928433655
 30
0.0
  0
VERTEX
  5
FB
  8
CORTE_LASER$CORTE
 10
1874.827133871601
 20
2515.818729672135
 30
0.0
  0
VERTEX
  5
FC
  8
CORTE_LASER$CORTE
 10
1874.76113907547
 20
2515.740382468659
 30
0.0
  0
VERTEX
  5
FD
  8
CORTE_LASER$CORTE
 10
1874.692507892322
 20
2515.664334075457
 30
0.0
  0
VERTEX
  5
FE
  8
CORTE_LASER$CORTE
 10
1874.621320343047
 20
2515.590673161554
 30
0.0
  0
VERTEX
  5
FF
  8
CORTE_LASER$CORTE
 10
1874.547659429143
 20
2515.519485612279
 30
0.0
  0
VERTEX
  5
100
  8
CORTE_LASER$CORTE
 10
1874.471611035941
 20
2515.450854429131
 30
0.0
  0
VERTEX
  5
101
  8
CORTE_LASER$CORTE
 10
1874.393263832466
 20
2515.384859633
 30
0.0
  0
VERTEX
  5
102
  8
CORTE_LASER$CORTE
 10
1874.312709168051
 20
2515.321578170865
 30
0.0
  0
VERTEX
  5
103
  8
CORTE_LASER$CORTE
 10
1874.230040965832
 20
2515.261083826082
 30
0.0
  0
VERTEX
  5
104
  8
CORTE_LASER$CORTE
 10
1874.145355613235
 20
2515.203447132349
 30
0.0
  0
VERTEX
  5
105
  8
CORTE_LASER$CORTE
 10
1874.058751849594
 20
2515.148735291474
 30
0.0
  0
VERTEX
  5
106
  8
CORTE_LASER$CORTE
 10
1873.970330651022
 20
2515.097012095015
 30
0.0
  0
VERTEX
  5
107
  8
CORTE_LASER$CORTE
 10
1873.880195112681
 20
2515.048337849906
 30
0.0
  0
VERTEX
  5
108
  8
CORTE_LASER$CORTE
 10
1873.788450328578
 20
2515.00276930814
 30
0.0
  0
VERTEX
  5
109
  8
CORTE_LASER$CORTE
 10
1873.695203269026
 20
2514.960359600597
 30
0.0
  0
VERTEX
  5
10A
  8
CORTE_LASER$CORTE
 10
1873.600562655927
 20
2514.9211581751
 30
0.0
  0
VERTEX
  5
10B
  8
CORTE_LASER$CORTE
 10
1873.504638836
 20
2514.885210738757
 30
0.0
  0
VERTEX
  5
10C
  8
CORTE_LASER$CORTE
 10
1873.407543652131
 20
2514.852559204671
 30
0.0
  0
VERTEX
  5
10D
  8
CORTE_LASER$CORTE
 10
1873.309390312959
 20
2514.82324164307
 30
0.0
  0
VERTEX
  5
10E
  8
CORTE_LASER$CORTE
 10
1873.210293260887
 20
2514.797292236919
 30
0.0
  0
VERTEX
  5
10F
  8
CORTE_LASER$CORTE
 10
1873.110368038645
 20
2514.774741242066
 30
0.0
  0
VERTEX
  5
110
  8
CORTE_LASER$CORTE
 10
1873.009731154574
 20
2514.755614951962
 30
0.0
  0
VERTEX
  5
111
  8
CORTE_LASER$CORTE
 10
1872.908499946776
 20
2514.739935667004
 30
0.0
  0
VERTEX
  5
112
  8
CORTE_LASER$CORTE
 10
1872.806792446314
 20
2514.727721668539
 30
0.0
  0
VERTEX
  5
113
  8
CORTE_LASER$CORTE
 10
1872.704727239582
 20
2514.718987197542
 30
0.0
  0
VERTEX
  5
114
  8
CORTE_LASER$CORTE
 10
1872.602423330045
 20
2514.713742438015
 30
0.0
  0
VERTEX
  5
115
  8
CORTE_LASER$CORTE
 10
1872.499999999487
 20
2514.711993505113
 30
0.0
  0
VERTEX
  5
116
  8
CORTE_LASER$CORTE
 10
1868.999999999488
 20
2514.711993505113
 30
0.0
  0
SEQEND
  5
117
  8
CORTE_LASER$CORTE
  0
CIRCLE
  5
118
  8
CORTE_LASER$CORTE
 10
1907.492038889604
 20
2520.711993505113
 30
0.0
 40
1.75
  0
CIRCLE
  5
119
  8
CORTE_LASER$CORTE
 10
1956.492038889604
 20
2520.711993505113
 30
0.0
 40
1.75
  0
POLYLINE
  5
11A
  8
CORTE_LASER$CORTE
 66
     1
 10
0.0
 20
0.0
 30
0.0
 70
     1
  0
VERTEX
  5
11B
  8
CORTE_LASER$CORTE
 10
1898.996019445059
 20
2495.211993505113
 30
0.0
  0
VERTEX
  5
11C
  8
CORTE_LASER$CORTE
 10
1898.996019445059
 20
2534.0
 30
0.0
  0
VERTEX
  5
11D
  8
CORTE_LASER$CORTE
 10
1965.003980554942
 20
2534.0
 30
0.0
  0
VERTEX
  5
11E
  8
CORTE_LASER$CORTE
 10
1965.003980554942
 20
2495.211993505113
 30
0.0
  0
VERTEX
  5
11F
  8
CORTE_LASER$CORTE
 10
1965.00223162204
 20
2495.109570174555
 30
0.0
  0
VERTEX
  5
120
  8
CORTE_LASER$CORTE
 10
1964.996986862513
 20
2495.007266265019
 30
0.0
  0
VERTEX
  5
121
  8
CORTE_LASER$CORTE
 10
1964.988252391516
 20
2494.905201058287
 30
0.0
  0
VERTEX
  5
122
  8
CORTE_LASER$CORTE
 10
1964.976038393051
 20
2494.803493557824
 30
0.0
  0
VERTEX
  5
123
  8
CORTE_LASER$CORTE
 10
1964.960359108093
 20
2494.702262350027
 30
0.0
  0
VERTEX
  5
124
  8
CORTE_LASER$CORTE
 10
1964.941232817989
 20
2494.601625465955
 30
0.0
  0
VERTEX
  5
125
  8
CORTE_LASER$CORTE
 10
1964.918681823136
 20
2494.501700243714
 30
0.0
  0
VERTEX
  5
126
  8
CORTE_LASER$CORTE
 10
1964.892732416985
 20
2494.402603191642
 30
0.0
  0
VERTEX
  5
127
  8
CORTE_LASER$CORTE
 10
1964.863414855384
 20
2494.30444985247
 30
0.0
  0
VERTEX
  5
128
  8
CORTE_LASER$CORTE
 10
1964.830763321298
 20
2494.2073546686
 30
0.0
  0
VERTEX
  5
129
  8
CORTE_LASER$CORTE
 10
1964.794815884955
 20
2494.111430848674
 30
0.0
  0
VERTEX
  5
12A
  8
CORTE_LASER$CORTE
 10
1964.755614459458
 20
2494.016790235575
 30
0.0
  0
VERTEX
  5
12B
  8
CORTE_LASER$CORTE
 10
1964.713204751915
 20
2493.923543176023
 30
0.0
  0
VERTEX
  5
12C
  8
CORTE_LASER$CORTE
 10
1964.667636210149
 20
2493.83179839192
 30
0.0
  0
VERTEX
  5
12D
  8
CORTE_LASER$CORTE
 10
1964.61896196504
 20
2493.741662853579
 30
0.0
  0
VERTEX
  5
12E
  8
CORTE_LASER$CORTE
 10
1964.567238768581
 20
2493.653241655007
 30
0.0
  0
VERTEX
  5
12F
  8
CORTE_LASER$CORTE
 10
1964.512526927706
 20
2493.566637891365
 30
0.0
  0
VERTEX
  5
130
  8
CORTE_LASER$CORTE
 10
1964.454890233973
 20
2493.481952538769
 30
0.0
  0
VERTEX
  5
131
  8
CORTE_LASER$CORTE
 10
1964.39439588919
 20
2493.39928433655
 30
0.0
  0
VERTEX
  5
132
  8
CORTE_LASER$CORTE
 10
1964.331114427055
 20
2493.318729672135
 30
0.0
  0
VERTEX
  5
133
  8
CORTE_LASER$CORTE
 10
1964.265119630924
 20
2493.240382468659
 30
0.0
  0
VERTEX
  5
134
  8
CORTE_LASER$CORTE
 10
1964.196488447776
 20
2493.164334075457
 30
0.0
  0
VERTEX
  5
135
  8
CORTE_LASER$CORTE
 10
1964.125300898501
 20
2493.090673161554
 30
0.0
  0
VERTEX
  5
136
  8
CORTE_LASER$CORTE
 10
1964.051639984598
 20
2493.019485612279
 30
0.0
  0
VERTEX
  5
137
  8
CORTE_LASER$CORTE
 10
1963.975591591396
 20
2492.950854429131
 30
0.0
  0
VERTEX
  5
138
  8
CORTE_LASER$CORTE
 10
1963.89724438792
 20
2492.884859633
 30
0.0
  0
VERTEX
  5
139
  8
CORTE_LASER$CORTE
 10
1963.816689723505
 20
2492.821578170865
 30
0.0
  0
VERTEX
  5
13A
  8
CORTE_LASER$CORTE
 10
1963.734021521286
 20
2492.761083826082
 30
0.0
  0
VERTEX
  5
13B
  8
CORTE_LASER$CORTE
 10
1963.64933616869
 20
2492.703447132349
 30
0.0
  0
VERTEX
  5
13C
  8
CORTE_LASER$CORTE
 10
1963.562732405048
 20
2492.648735291474
 30
0.0
  0
VERTEX
  5
13D
  8
CORTE_LASER$CORTE
 10
1963.474311206476
 20
2492.597012095015
 30
0.0
  0
VERTEX
  5
13E
  8
CORTE_LASER$CORTE
 10
1963.384175668135
 20
2492.548337849906
 30
0.0
  0
VERTEX
  5
13F
  8
CORTE_LASER$CORTE
 10
1963.292430884032
 20
2492.50276930814
 30
0.0
  0
VERTEX
  5
140
  8
CORTE_LASER$CORTE
 10
1963.199183824481
 20
2492.460359600597
 30
0.0
  0
VERTEX
  5
141
  8
CORTE_LASER$CORTE
 10
1963.104543211381
 20
2492.4211581751
 30
0.0
  0
VERTEX
  5
142
  8
CORTE_LASER$CORTE
 10
1963.008619391455
 20
2492.385210738757
 30
0.0
  0
VERTEX
  5
143
  8
CORTE_LASER$CORTE
 10
1962.911524207585
 20
2492.352559204671
 30
0.0
  0
VERTEX
  5
144
  8
CORTE_LASER$CORTE
 10
1962.813370868413
 20
2492.32324164307
 30
0.0
  0
VERTEX
  5
145
  8
CORTE_LASER$CORTE
 10
1962.714273816341
 20
2492.297292236919
 30
0.0
  0
VERTEX
  5
146
  8
CORTE_LASER$CORTE
 10
1962.6143485941
 20
2492.274741242066
 30
0.0
  0
VERTEX
  5
147
  8
CORTE_LASER$CORTE
 10
1962.513711710028
 20
2492.255614951961
 30
0.0
  0
VERTEX
  5
148
  8
CORTE_LASER$CORTE
 10
1962.41248050223
 20
2492.239935667004
 30
0.0
  0
VERTEX
  5
149
  8
CORTE_LASER$CORTE
 10
1962.310773001768
 20
2492.227721668539
 30
0.0
  0
VERTEX
  5
14A
  8
CORTE_LASER$CORTE
 10
1962.208707795036
 20
2492.218987197542
 30
0.0
  0
VERTEX
  5
14B
  8
CORTE_LASER$CORTE
 10
1962.1064038855
 20
2492.213742438015
 30
0.0
  0
VERTEX
  5
14C
  8
CORTE_LASER$CORTE
 10
1962.003980554942
 20
2492.211993505113
 30
0.0
  0
VERTEX
  5
14D
  8
CORTE_LASER$CORTE
 10
1901.996019445059
 20
2492.211993505113
 30
0.0
  0
VERTEX
  5
14E
  8
CORTE_LASER$CORTE
 10
1901.893596114501
 20
2492.213742438015
 30
0.0
  0
VERTEX
  5
14F
  8
CORTE_LASER$CORTE
 10
1901.791292204965
 20
2492.218987197542
 30
0.0
  0
VERTEX
  5
150
  8
CORTE_LASER$CORTE
 10
1901.689226998232
 20
2492.227721668539
 30
0.0
  0
VERTEX
  5
151
  8
CORTE_LASER$CORTE
 10
1901.58751949777
 20
2492.239935667004
 30
0.0
  0
VERTEX
  5
152
  8
CORTE_LASER$CORTE
 10
1901.486288289973
 20
2492.255614951961
 30
0.0
  0
VERTEX
  5
153
  8
CORTE_LASER$CORTE
 10
1901.385651405901
 20
2492.274741242066
 30
0.0
  0
VERTEX
  5
154
  8
CORTE_LASER$CORTE
 10
1901.285726183659
 20
2492.297292236919
 30
0.0
  0
VERTEX
  5
155
  8
CORTE_LASER$CORTE
 10
1901.186629131588
 20
2492.32324164307
 30
0.0
  0
VERTEX
  5
156
  8
CORTE_LASER$CORTE
 10
1901.088475792415
 20
2492.352559204671
 30
0.0
  0
VERTEX
  5
157
  8
CORTE_LASER$CORTE
 10
1900.991380608546
 20
2492.385210738757
 30
0.0
  0
VERTEX
  5
158
  8
CORTE_LASER$CORTE
 10
1900.895456788619
 20
2492.4211581751
 30
0.0
  0
VERTEX
  5
159
  8
CORTE_LASER$CORTE
 10
1900.80081617552
 20
2492.460359600597
 30
0.0
  0
VERTEX
  5
15A
  8
CORTE_LASER$CORTE
 10
1900.707569115968
 20
2492.50276930814
 30
0.0
  0
VERTEX
  5
15B
  8
CORTE_LASER$CORTE
 10
1900.615824331865
 20
2492.548337849906
 30
0.0
  0
VERTEX
  5
15C
  8
CORTE_LASER$CORTE
 10
1900.525688793525
 20
2492.597012095015
 30
0.0
  0
VERTEX
  5
15D
  8
CORTE_LASER$CORTE
 10
1900.437267594952
 20
2492.648735291474
 30
0.0
  0
VERTEX
  5
15E
  8
CORTE_LASER$CORTE
 10
1900.350663831311
 20
2492.703447132349
 30
0.0
  0
VERTEX
  5
15F
  8
CORTE_LASER$CORTE
 10
1900.265978478714
 20
2492.761083826082
 30
0.0
  0
VERTEX
  5
160
  8
CORTE_LASER$CORTE
 10
1900.183310276495
 20
2492.821578170865
 30
0.0
  0
VERTEX
  5
161
  8
CORTE_LASER$CORTE
 10
1900.102755612081
 20
2492.884859633
 30
0.0
  0
VERTEX
  5
162
  8
CORTE_LASER$CORTE
 10
1900.024408408605
 20
2492.950854429131
 30
0.0
  0
VERTEX
  5
163
  8
CORTE_LASER$CORTE
 10
1899.948360015403
 20
2493.019485612279
 30
0.0
  0
VERTEX
  5
164
  8
CORTE_LASER$CORTE
 10
1899.874699101499
 20
2493.090673161554
 30
0.0
  0
VERTEX
  5
165
  8
CORTE_LASER$CORTE
 10
1899.803511552224
 20
2493.164334075457
 30
0.0
  0
VERTEX
  5
166
  8
CORTE_LASER$CORTE
 10
1899.734880369077
 20
2493.240382468659
 30
0.0
  0
VERTEX
  5
167
  8
CORTE_LASER$CORTE
 10
1899.668885572945
 20
2493.318729672135
 30
0.0
  0
VERTEX
  5
168
  8
CORTE_LASER$CORTE
 10
1899.605604110811
 20
2493.39928433655
 30
0.0
  0
VERTEX
  5
169
  8
CORTE_LASER$CORTE
 10
1899.545109766027
 20
2493.481952538769
 30
0.0
  0
VERTEX
  5
16A
  8
CORTE_LASER$CORTE
 10
1899.487473072295
 20
2493.566637891365
 30
0.0
  0
VERTEX
  5
16B
  8
CORTE_LASER$CORTE
 10
1899.432761231419
 20
2493.653241655007
 30
0.0
  0
VERTEX
  5
16C
  8
CORTE_LASER$CORTE
 10
1899.381038034961
 20
2493.741662853579
 30
0.0
  0
VERTEX
  5
16D
  8
CORTE_LASER$CORTE
 10
1899.332363789852
 20
2493.83179839192
 30
0.0
  0
VERTEX
  5
16E
  8
CORTE_LASER$CORTE
 10
1899.286795248085
 20
2493.923543176023
 30
0.0
  0
VERTEX
  5
16F
  8
CORTE_LASER$CORTE
 10
1899.244385540542
 20
2494.016790235575
 30
0.0
  0
VERTEX
  5
170
  8
CORTE_LASER$CORTE
 10
1899.205184115045
 20
2494.111430848674
 30
0.0
  0
VERTEX
  5
171
  8
CORTE_LASER$CORTE
 10
1899.169236678702
 20
2494.2073546686
 30
0.0
  0
VERTEX
  5
172
  8
CORTE_LASER$CORTE
 10
1899.136585144616
 20
2494.30444985247
 30
0.0
  0
VERTEX
  5
173
  8
CORTE_LASER$CORTE
 10
1899.107267583015
 20
2494.402603191642
 30
0.0
  0
VERTEX
  5
174
  8
CORTE_LASER$CORTE
 10
1899.081318176865
 20
2494.501700243714
 30
0.0
  0
VERTEX
  5
175
  8
CORTE_LASER$CORTE
 10
1899.058767182012
 20
2494.601625465955
 30
0.0
  0
VERTEX
  5
176
  8
CORTE_LASER$CORTE
 10
1899.039640891907
 20
2494.702262350027
 30
0.0
  0
VERTEX
  5
177
  8
CORTE_LASER$CORTE
 10
1899.02396160695
 20
2494.803493557824
 30
0.0
  0
VERTEX
  5
178
  8
CORTE_LASER$CORTE
 10
1899.011747608484
 20
2494.905201058287
 30
0.0
  0
VERTEX
  5
179
  8
CORTE_LASER$CORTE
 10
1899.003013137487
 20
2495.007266265019
 30
0.0
  0
VERTEX
  5
17A
  8
CORTE_LASER$CORTE
 10
1898.99776837796
 20
2495.109570174555
 30
0.0
  0
SEQEND
  5
17B
  8
CORTE_LASER$CORTE
  0
POLYLINE
  5
17C
  8
CORTE_LASER$CORTE
 66
     1
 10
0.0
 20
0.0
 30
0.0
 70
     1
  0
VERTEX
  5
17D
  8
CORTE_LASER$CORTE
 10
1898.996019445059
 20
2541.211993505113
 30
0.0
  0
VERTEX
  5
17E
  8
CORTE_LASER$CORTE
 10
1898.996019445059
 20
2562.711993505113
 30
0.0
  0
VERTEX
  5
17F
  8
CORTE_LASER$CORTE
 10
1904.624999449803
 20
2562.711993505113
 30
0.0
  0
VERTEX
  5
180
  8
CORTE_LASER$CORTE
 10
1904.624999999487
 20
2566.711993611309
 30
0.0
  0
VERTEX
  5
181
  8
CORTE_LASER$CORTE
 10
1904.626673481668
 20
2566.809937756827
 30
0.0
  0
VERTEX
  5
182
  8
CORTE_LASER$CORTE
 10
1904.631691967345
 20
2566.907767563048
 30
0.0
  0
VERTEX
  5
183
  8
CORTE_LASER$CORTE
 10
1904.640049597979
 20
2567.005368824279
 30
0.0
  0
VERTEX
  5
184
  8
CORTE_LASER$CORTE
 10
1904.651736616944
 20
2567.102627601629
 30
0.0
  0
VERTEX
  5
185
  8
CORTE_LASER$CORTE
 10
1904.666739380911
 20
2567.199430356017
 30
0.0
  0
VERTEX
  5
186
  8
CORTE_LASER$CORTE
 10
1904.68504037578
 20
2567.295664080722
 30
0.0
  0
VERTEX
  5
187
  8
CORTE_LASER$CORTE
 10
1904.706618237124
 20
2567.391216433301
 30
0.0
  0
VERTEX
  5
188
  8
CORTE_LASER$CORTE
 10
1904.731447775128
 20
2567.485975866744
 30
0.0
  0
VERTEX
  5
189
  8
CORTE_LASER$CORTE
 10
1904.759500003998
 20
2567.579831759681
 30
0.0
  0
VERTEX
  5
18A
  8
CORTE_LASER$CORTE
 10
1904.790742175799
 20
2567.672674545534
 30
0.0
  0
VERTEX
  5
18B
  8
CORTE_LASER$CORTE
 10
1904.825137818681
 20
2567.764395840414
 30
0.0
  0
VERTEX
  5
18C
  8
CORTE_LASER$CORTE
 10
1904.862646779459
 20
2567.854888569653
 30
0.0
  0
VERTEX
  5
18D
  8
CORTE_LASER$CORTE
 10
1904.903225270489
 20
2567.944047092798
 30
0.0
  0
VERTEX
  5
18E
  8
CORTE_LASER$CORTE
 10
1904.946825920782
 20
2568.03176732694
 30
0.0
  0
VERTEX
  5
18F
  8
CORTE_LASER$CORTE
 10
1904.993397831303
 20
2568.117946868213
 30
0.0
  0
VERTEX
  5
190
  8
CORTE_LASER$CORTE
 10
1905.042886634397
 20
2568.202485111347
 30
0.0
  0
VERTEX
  5
191
  8
CORTE_LASER$CORTE
 10
1905.09523455725
 20
2568.285283367106
 30
0.0
  0
VERTEX
  5
192
  8
CORTE_LASER$CORTE
 10
1905.150380489337
 20
2568.366244977502
 30
0.0
  0
VERTEX
  5
193
  8
CORTE_LASER$CORTE
 10
1905.208260053761
 20
2568.445275428632
 30
0.0
  0
VERTEX
  5
194
  8
CORTE_LASER$CORTE
 10
1905.268805682405
 20
2568.522282461012
 30
0.0
  0
VERTEX
  5
195
  8
CORTE_LASER$CORTE
 10
1905.33194669481
 20
2568.597176177278
 30
0.0
  0
VERTEX
  5
196
  8
CORTE_LASER$CORTE
 10
1905.39760938069
 20
2568.669869147137
 30
0.0
  0
VERTEX
  5
197
  8
CORTE_LASER$CORTE
 10
1905.465717085975
 20
2568.740276509425
 30
0.0
  0
VERTEX
  5
198
  8
CORTE_LASER$CORTE
 10
1905.536190302305
 20
2568.80831607118
 30
0.0
  0
VERTEX
  5
199
  8
CORTE_LASER$CORTE
 10
1905.608946759839
 20
2568.873908403591
 30
0.0
  0
VERTEX
  5
19A
  8
CORTE_LASER$CORTE
 10
1905.683901523299
 20
2568.936976934716
 30
0.0
  0
VERTEX
  5
19B
  8
CORTE_LASER$CORTE
 10
1905.760967091124
 20
2568.997448038886
 30
0.0
  0
VERTEX
  5
19C
  8
CORTE_LASER$CORTE
 10
1905.840053497618
 20
2569.055251122641
 30
0.0
  0
VERTEX
  5
19D
  8
CORTE_LASER$CORTE
 10
1905.921068417975
 20
2569.110318707147
 30
0.0
  0
VERTEX
  5
19E
  8
CORTE_LASER$CORTE
 10
1906.003917276058
 20
2569.162586506968
 30
0.0
  0
VERTEX
  5
19F
  8
CORTE_LASER$CORTE
 10
1906.088503354806
 20
2569.211993505113
 30
0.0
  0
VERTEX
  5
1A0
  8
CORTE_LASER$CORTE
 10
1957.90353553531
 20
2569.211993505113
 30
0.0
  0
VERTEX
  5
1A1
  8
CORTE_LASER$CORTE
 10
1957.988121614058
 20
2569.162586506968
 30
0.0
  0
VERTEX
  5
1A2
  8
CORTE_LASER$CORTE
 10
1958.070970472141
 20
2569.110318707147
 30
0.0
  0
VERTEX
  5
1A3
  8
CORTE_LASER$CORTE
 10
1958.151985392498
 20
2569.055251122641
 30
0.0
  0
VERTEX
  5
1A4
  8
CORTE_LASER$CORTE
 10
1958.231071798993
 20
2568.997448038886
 30
0.0
  0
VERTEX
  5
1A5
  8
CORTE_LASER$CORTE
 10
1958.308137366818
 20
2568.936976934716
 30
0.0
  0
VERTEX
  5
1A6
  8
CORTE_LASER$CORTE
 10
1958.383092130277
 20
2568.873908403591
 30
0.0
  0
VERTEX
  5
1A7
  8
CORTE_LASER$CORTE
 10
1958.455848587811
 20
2568.80831607118
 30
0.0
  0
VERTEX
  5
1A8
  8
CORTE_LASER$CORTE
 10
1958.526321804141
 20
2568.740276509425
 30
0.0
  0
VERTEX
  5
1A9
  8
CORTE_LASER$CORTE
 10
1958.594429509427
 20
2568.669869147137
 30
0.0
  0
VERTEX
  5
1AA
  8
CORTE_LASER$CORTE
 10
1958.660092195306
 20
2568.597176177278
 30
0.0
  0
VERTEX
  5
1AB
  8
CORTE_LASER$CORTE
 10
1958.723233207711
 20
2568.522282461012
 30
0.0
  0
VERTEX
  5
1AC
  8
CORTE_LASER$CORTE
 10
1958.783778836355
 20
2568.445275428633
 30
0.0
  0
VERTEX
  5
1AD
  8
CORTE_LASER$CORTE
 10
1958.841658400779
 20
2568.366244977502
 30
0.0
  0
VERTEX
  5
1AE
  8
CORTE_LASER$CORTE
 10
1958.896804332866
 20
2568.285283367106
 30
0.0
  0
VERTEX
  5
1AF
  8
CORTE_LASER$CORTE
 10
1958.94915225572
 20
2568.202485111347
 30
0.0
  0
VERTEX
  5
1B0
  8
CORTE_LASER$CORTE
 10
1958.998641058813
 20
2568.117946868213
 30
0.0
  0
VERTEX
  5
1B1
  8
CORTE_LASER$CORTE
 10
1959.045212969335
 20
2568.03176732694
 30
0.0
  0
VERTEX
  5
1B2
  8
CORTE_LASER$CORTE
 10
1959.088813619627
 20
2567.944047092798
 30
0.0
  0
VERTEX
  5
1B3
  8
CORTE_LASER$CORTE
 10
1959.129392110657
 20
2567.854888569653
 30
0.0
  0
VERTEX
  5
1B4
  8
CORTE_LASER$CORTE
 10
1959.166901071436
 20
2567.764395840414
 30
0.0
  0
VERTEX
  5
1B5
  8
CORTE_LASER$CORTE
 10
1959.201296714318
 20
2567.672674545534
 30
0.0
  0
VERTEX
  5
1B6
  8
CORTE_LASER$CORTE
 10
1959.232538886118
 20
2567.579831759681
 30
0.0
  0
VERTEX
  5
1B7
  8
CORTE_LASER$CORTE
 10
1959.260591114989
 20
2567.485975866744
 30
0.0
  0
VERTEX
  5
1B8
  8
CORTE_LASER$CORTE
 10
1959.285420652993
 20
2567.391216433301
 30
0.0
  0
VERTEX
  5
1B9
  8
CORTE_LASER$CORTE
 10
1959.306998514336
 20
2567.295664080722
 30
0.0
  0
VERTEX
  5
1BA
  8
CORTE_LASER$CORTE
 10
1959.325299509205
 20
2567.199430356017
 30
0.0
  0
VERTEX
  5
1BB
  8
CORTE_LASER$CORTE
 10
1959.340302273173
 20
2567.102627601629
 30
0.0
  0
VERTEX
  5
1BC
  8
CORTE_LASER$CORTE
 10
1959.351989292138
 20
2567.005368824279
 30
0.0
  0
VERTEX
  5
1BD
  8
CORTE_LASER$CORTE
 10
1959.360346922772
 20
2566.907767563048
 30
0.0
  0
VERTEX
  5
1BE
  8
CORTE_LASER$CORTE
 10
1959.365365408448
 20
2566.809937756827
 30
0.0
  0
VERTEX
  5
1BF
  8
CORTE_LASER$CORTE
 10
1959.367038890629
 20
2566.71199361131
 30
0.0
  0
VERTEX
  5
1C0
  8
CORTE_LASER$CORTE
 10
1959.367039440314
 20
2562.711993505113
 30
0.0
  0
VERTEX
  5
1C1
  8
CORTE_LASER$CORTE
 10
1964.996019445058
 20
2562.711993505113
 30
0.0
  0
VERTEX
  5
1C2
  8
CORTE_LASER$CORTE
 10
1964.996019445058
 20
2541.211993505113
 30
0.0
  0
VERTEX
  5
1C3
  8
CORTE_LASER$CORTE
 10
1964.994270512157
 20
2541.109570174555
 30
0.0
  0
VERTEX
  5
1C4
  8
CORTE_LASER$CORTE
 10
1964.98902575263
 20
2541.007266265019
 30
0.0
  0
VERTEX
  5
1C5
  8
CORTE_LASER$CORTE
 10
1964.980291281632
 20
2540.905201058287
 30
0.0
  0
VERTEX
  5
1C6
  8
CORTE_LASER$CORTE
 10
1964.968077283167
 20
2540.803493557824
 30
0.0
  0
VERTEX
  5
1C7
  8
CORTE_LASER$CORTE
 10
1964.95239799821
 20
2540.702262350027
 30
0.0
  0
VERTEX
  5
1C8
  8
CORTE_LASER$CORTE
 10
1964.933271708105
 20
2540.601625465955
 30
0.0
  0
VERTEX
  5
1C9
  8
CORTE_LASER$CORTE
 10
1964.910720713252
 20
2540.501700243714
 30
0.0
  0
VERTEX
  5
1CA
  8
CORTE_LASER$CORTE
 10
1964.884771307102
 20
2540.402603191642
 30
0.0
  0
VERTEX
  5
1CB
  8
CORTE_LASER$CORTE
 10
1964.855453745501
 20
2540.30444985247
 30
0.0
  0
VERTEX
  5
1CC
  8
CORTE_LASER$CORTE
 10
1964.822802211415
 20
2540.2073546686
 30
0.0
  0
VERTEX
  5
1CD
  8
CORTE_LASER$CORTE
 10
1964.786854775072
 20
2540.111430848674
 30
0.0
  0
VERTEX
  5
1CE
  8
CORTE_LASER$CORTE
 10
1964.747653349575
 20
2540.016790235575
 30
0.0
  0
VERTEX
  5
1CF
  8
CORTE_LASER$CORTE
 10
1964.705243642032
 20
2539.923543176023
 30
0.0
  0
VERTEX
  5
1D0
  8
CORTE_LASER$CORTE
 10
1964.659675100265
 20
2539.83179839192
 30
0.0
  0
VERTEX
  5
1D1
  8
CORTE_LASER$CORTE
 10
1964.611000855156
 20
2539.741662853579
 30
0.0
  0
VERTEX
  5
1D2
  8
CORTE_LASER$CORTE
 10
1964.559277658698
 20
2539.653241655007
 30
0.0
  0
VERTEX
  5
1D3
  8
CORTE_LASER$CORTE
 10
1964.504565817822
 20
2539.566637891365
 30
0.0
  0
VERTEX
  5
1D4
  8
CORTE_LASER$CORTE
 10
1964.44692912409
 20
2539.481952538769
 30
0.0
  0
VERTEX
  5
1D5
  8
CORTE_LASER$CORTE
 10
1964.386434779306
 20
2539.39928433655
 30
0.0
  0
VERTEX
  5
1D6
  8
CORTE_LASER$CORTE
 10
1964.323153317172
 20
2539.318729672135
 30
0.0
  0
VERTEX
  5
1D7
  8
CORTE_LASER$CORTE
 10
1964.25715852104
 20
2539.240382468659
 30
0.0
  0
VERTEX
  5
1D8
  8
CORTE_LASER$CORTE
 10
1964.188527337893
 20
2539.164334075457
 30
0.0
  0
VERTEX
  5
1D9
  8
CORTE_LASER$CORTE
 10
1964.117339788618
 20
2539.090673161554
 30
0.0
  0
VERTEX
  5
1DA
  8
CORTE_LASER$CORTE
 10
1964.043678874714
 20
2539.019485612279
 30
0.0
  0
VERTEX
  5
1DB
  8
CORTE_LASER$CORTE
 10
1963.967630481512
 20
2538.950854429131
 30
0.0
  0
VERTEX
  5
1DC
  8
CORTE_LASER$CORTE
 10
1963.889283278036
 20
2538.884859633
 30
0.0
  0
VERTEX
  5
1DD
  8
CORTE_LASER$CORTE
 10
1963.808728613621
 20
2538.821578170865
 30
0.0
  0
VERTEX
  5
1DE
  8
CORTE_LASER$CORTE
 10
1963.726060411403
 20
2538.761083826082
 30
0.0
  0
VERTEX
  5
1DF
  8
CORTE_LASER$CORTE
 10
1963.641375058806
 20
2538.703447132349
 30
0.0
  0
VERTEX
  5
1E0
  8
CORTE_LASER$CORTE
 10
1963.554771295165
 20
2538.648735291474
 30
0.0
  0
VERTEX
  5
1E1
  8
CORTE_LASER$CORTE
 10
1963.466350096592
 20
2538.597012095015
 30
0.0
  0
VERTEX
  5
1E2
  8
CORTE_LASER$CORTE
 10
1963.376214558252
 20
2538.548337849906
 30
0.0
  0
VERTEX
  5
1E3
  8
CORTE_LASER$CORTE
 10
1963.284469774148
 20
2538.50276930814
 30
0.0
  0
VERTEX
  5
1E4
  8
CORTE_LASER$CORTE
 10
1963.191222714597
 20
2538.460359600597
 30
0.0
  0
VERTEX
  5
1E5
  8
CORTE_LASER$CORTE
 10
1963.096582101497
 20
2538.4211581751
 30
0.0
  0
VERTEX
  5
1E6
  8
CORTE_LASER$CORTE
 10
1963.000658281571
 20
2538.385210738757
 30
0.0
  0
VERTEX
  5
1E7
  8
CORTE_LASER$CORTE
 10
1962.903563097701
 20
2538.352559204671
 30
0.0
  0
VERTEX
  5
1E8
  8
CORTE_LASER$CORTE
 10
1962.805409758529
 20
2538.32324164307
 30
0.0
  0
VERTEX
  5
1E9
  8
CORTE_LASER$CORTE
 10
1962.706312706458
 20
2538.297292236919
 30
0.0
  0
VERTEX
  5
1EA
  8
CORTE_LASER$CORTE
 10
1962.606387484216
 20
2538.274741242066
 30
0.0
  0
VERTEX
  5
1EB
  8
CORTE_LASER$CORTE
 10
1962.505750600144
 20
2538.255614951961
 30
0.0
  0
VERTEX
  5
1EC
  8
CORTE_LASER$CORTE
 10
1962.404519392347
 20
2538.239935667004
 30
0.0
  0
VERTEX
  5
1ED
  8
CORTE_LASER$CORTE
 10
1962.302811891884
 20
2538.227721668539
 30
0.0
  0
VERTEX
  5
1EE
  8
CORTE_LASER$CORTE
 10
1962.200746685152
 20
2538.218987197542
 30
0.0
  0
VERTEX
  5
1EF
  8
CORTE_LASER$CORTE
 10
1962.098442775616
 20
2538.213742438015
 30
0.0
  0
VERTEX
  5
1F0
  8
CORTE_LASER$CORTE
 10
1961.996019445058
 20
2538.211993505113
 30
0.0
  0
VERTEX
  5
1F1
  8
CORTE_LASER$CORTE
 10
1901.996019445058
 20
2538.211993505113
 30
0.0
  0
VERTEX
  5
1F2
  8
CORTE_LASER$CORTE
 10
1901.8935961145
 20
2538.213742438015
 30
0.0
  0
VERTEX
  5
1F3
  8
CORTE_LASER$CORTE
 10
1901.791292204965
 20
2538.218987197542
 30
0.0
  0
VERTEX
  5
1F4
  8
CORTE_LASER$CORTE
 10
1901.689226998232
 20
2538.227721668539
 30
0.0
  0
VERTEX
  5
1F5
  8
CORTE_LASER$CORTE
 10
1901.58751949777
 20
2538.239935667004
 30
0.0
  0
VERTEX
  5
1F6
  8
CORTE_LASER$CORTE
 10
1901.486288289972
 20
2538.255614951961
 30
0.0
  0
VERTEX
  5
1F7
  8
CORTE_LASER$CORTE
 10
1901.3856514059
 20
2538.274741242066
 30
0.0
  0
VERTEX
  5
1F8
  8
CORTE_LASER$CORTE
 10
1901.285726183659
 20
2538.297292236919
 30
0.0
  0
VERTEX
  5
1F9
  8
CORTE_LASER$CORTE
 10
1901.186629131587
 20
2538.32324164307
 30
0.0
  0
VERTEX
  5
1FA
  8
CORTE_LASER$CORTE
 10
1901.088475792415
 20
2538.352559204671
 30
0.0
  0
VERTEX
  5
1FB
  8
CORTE_LASER$CORTE
 10
1900.991380608546
 20
2538.385210738757
 30
0.0
  0
VERTEX
  5
1FC
  8
CORTE_LASER$CORTE
 10
1900.895456788619
 20
2538.4211581751
 30
0.0
  0
VERTEX
  5
1FD
  8
CORTE_LASER$CORTE
 10
1900.80081617552
 20
2538.460359600597
 30
0.0
  0
VERTEX
  5
1FE
  8
CORTE_LASER$CORTE
 10
1900.707569115968
 20
2538.50276930814
 30
0.0
  0
VERTEX
  5
1FF
  8
CORTE_LASER$CORTE
 10
1900.615824331865
 20
2538.548337849906
 30
0.0
  0
VERTEX
  5
200
  8
CORTE_LASER$CORTE
 10
1900.525688793525
 20
2538.597012095015
 30
0.0
  0
VERTEX
  5
201
  8
CORTE_LASER$CORTE
 10
1900.437267594952
 20
2538.648735291474
 30
0.0
  0
VERTEX
  5
202
  8
CORTE_LASER$CORTE
 10
1900.350663831311
 20
2538.703447132349
 30
0.0
  0
VERTEX
  5
203
  8
CORTE_LASER$CORTE
 10
1900.265978478714
 20
2538.761083826082
 30
0.0
  0
VERTEX
  5
204
  8
CORTE_LASER$CORTE
 10
1900.183310276495
 20
2538.821578170865
 30
0.0
  0
VERTEX
  5
205
  8
CORTE_LASER$CORTE
 10
1900.10275561208
 20
2538.884859633
 30
0.0
  0
VERTEX
  5
206
  8
CORTE_LASER$CORTE
 10
1900.024408408605
 20
2538.950854429131
 30
0.0
  0
VERTEX
  5
207
  8
CORTE_LASER$CORTE
 10
1899.948360015403
 20
2539.019485612279
 30
0.0
  0
VERTEX
  5
208
  8
CORTE_LASER$CORTE
 10
1899.874699101499
 20
2539.090673161554
 30
0.0
  0
VERTEX
  5
209
  8
CORTE_LASER$CORTE
 10
1899.803511552224
 20
2539.164334075457
 30
0.0
  0
VERTEX
  5
20A
  8
CORTE_LASER$CORTE
 10
1899.734880369077
 20
2539.240382468659
 30
0.0
  0
VERTEX
  5
20B
  8
CORTE_LASER$CORTE
 10
1899.668885572946
 20
2539.318729672135
 30
0.0
  0
VERTEX
  5
20C
  8
CORTE_LASER$CORTE
 10
1899.605604110811
 20
2539.39928433655
 30
0.0
  0
VERTEX
  5
20D
  8
CORTE_LASER$CORTE
 10
1899.545109766028
 20
2539.481952538768
 30
0.0
  0
VERTEX
  5
20E
  8
CORTE_LASER$CORTE
 10
1899.487473072295
 20
2539.566637891365
 30
0.0
  0
VERTEX
  5
20F
  8
CORTE_LASER$CORTE
 10
1899.432761231419
 20
2539.653241655007
 30
0.0
  0
VERTEX
  5
210
  8
CORTE_LASER$CORTE
 10
1899.381038034961
 20
2539.741662853579
 30
0.0
  0
VERTEX
  5
211
  8
CORTE_LASER$CORTE
 10
1899.332363789852
 20
2539.83179839192
 30
0.0
  0
VERTEX
  5
212
  8
CORTE_LASER$CORTE
 10
1899.286795248085
 20
2539.923543176023
 30
0.0
  0
VERTEX
  5
213
  8
CORTE_LASER$CORTE
 10
1899.244385540542
 20
2540.016790235574
 30
0.0
  0
VERTEX
  5
214
  8
CORTE_LASER$CORTE
 10
1899.205184115045
 20
2540.111430848674
 30
0.0
  0
VERTEX
  5
215
  8
CORTE_LASER$CORTE
 10
1899.169236678702
 20
2540.2073546686
 30
0.0
  0
VERTEX
  5
216
  8
CORTE_LASER$CORTE
 10
1899.136585144616
 20
2540.30444985247
 30
0.0
  0
VERTEX
  5
217
  8
CORTE_LASER$CORTE
 10
1899.107267583015
 20
2540.402603191642
 30
0.0
  0
VERTEX
  5
218
  8
CORTE_LASER$CORTE
 10
1899.081318176865
 20
2540.501700243714
 30
0.0
  0
VERTEX
  5
219
  8
CORTE_LASER$CORTE
 10
1899.058767182012
 20
2540.601625465955
 30
0.0
  0
VERTEX
  5
21A
  8
CORTE_LASER$CORTE
 10
1899.039640891907
 20
2540.702262350027
 30
0.0
  0
VERTEX
  5
21B
  8
CORTE_LASER$CORTE
 10
1899.02396160695
 20
2540.803493557824
 30
0.0
  0
VERTEX
  5
21C
  8
CORTE_LASER$CORTE
 10
1899.011747608484
 20
2540.905201058287
 30
0.0
  0
VERTEX
  5
21D
  8
CORTE_LASER$CORTE
 10
1899.003013137487
 20
2541.007266265019
 30
0.0
  0
VERTEX
  5
21E
  8
CORTE_LASER$CORTE
 10
1898.99776837796
 20
2541.109570174555
 30
0.0
  0
SEQEND
  5
21F
  8
CORTE_LASER$CORTE
  0
CIRCLE
  5
220
  8
CORTE_LASER$CORTE
 10
1956.492038889604
 20
2566.711993505113
 30
0.0
 40
1.75
  0
CIRCLE
  5
221
  8
CORTE_LASER$CORTE
 10
1907.492038889604
 20
2566.711993505113
 30
0.0
 40
1.75
  0
POLYLINE
  5
222
  8
CORTE_LASER$CORTE
 66
     1
 10
0.0
 20
0.0
 30
0.0
 70
     1
  0
VERTEX
  5
223
  8
CORTE_LASER$CORTE
 10
1881.499999999487
 20
2562.711993505113
 30
0.0
  0
VERTEX
  5
224
  8
CORTE_LASER$CORTE
 10
1881.499999999487
 20
2566.711993505113
 30
0.0
  0
VERTEX
  5
225
  8
CORTE_LASER$CORTE
 10
1881.501748932389
 20
2566.814416835671
 30
0.0
  0
VERTEX
  5
226
  8
CORTE_LASER$CORTE
 10
1881.506993691916
 20
2566.916720745207
 30
0.0
  0
VERTEX
  5
227
  8
CORTE_LASER$CORTE
 10
1881.515728162913
 20
2567.018785951939
 30
0.0
  0
VERTEX
  5
228
  8
CORTE_LASER$CORTE
 10
1881.527942161378
 20
2567.120493452402
 30
0.0
  0
VERTEX
  5
229
  8
CORTE_LASER$CORTE
 10
1881.543621446336
 20
2567.221724660199
 30
0.0
  0
VERTEX
  5
22A
  8
CORTE_LASER$CORTE
 10
1881.562747736441
 20
2567.322361544271
 30
0.0
  0
VERTEX
  5
22B
  8
CORTE_LASER$CORTE
 10
1881.585298731294
 20
2567.422286766513
 30
0.0
  0
VERTEX
  5
22C
  8
CORTE_LASER$CORTE
 10
1881.611248137444
 20
2567.521383818584
 30
0.0
  0
VERTEX
  5
22D
  8
CORTE_LASER$CORTE
 10
1881.640565699045
 20
2567.619537157756
 30
0.0
  0
VERTEX
  5
22E
  8
CORTE_LASER$CORTE
 10
1881.673217233131
 20
2567.716632341626
 30
0.0
  0
VERTEX
  5
22F
  8
CORTE_LASER$CORTE
 10
1881.709164669474
 20
2567.812556161552
 30
0.0
  0
VERTEX
  5
230
  8
CORTE_LASER$CORTE
 10
1881.748366094971
 20
2567.907196774652
 30
0.0
  0
VERTEX
  5
231
  8
CORTE_LASER$CORTE
 10
1881.790775802514
 20
2568.000443834203
 30
0.0
  0
VERTEX
  5
232
  8
CORTE_LASER$CORTE
 10
1881.83634434428
 20
2568.092188618307
 30
0.0
  0
VERTEX
  5
233
  8
CORTE_LASER$CORTE
 10
1881.885018589389
 20
2568.182324156647
 30
0.0
  0
VERTEX
  5
234
  8
CORTE_LASER$CORTE
 10
1881.936741785848
 20
2568.270745355219
 30
0.0
  0
VERTEX
  5
235
  8
CORTE_LASER$CORTE
 10
1881.991453626723
 20
2568.357349118861
 30
0.0
  0
VERTEX
  5
236
  8
CORTE_LASER$CORTE
 10
1882.049090320456
 20
2568.442034471458
 30
0.0
  0
VERTEX
  5
237
  8
CORTE_LASER$CORTE
 10
1882.10958466524
 20
2568.524702673677
 30
0.0
  0
VERTEX
  5
238
  8
CORTE_LASER$CORTE
 10
1882.172866127374
 20
2568.605257338091
 30
0.0
  0
VERTEX
  5
239
  8
CORTE_LASER$CORTE
 10
1882.238860923505
 20
2568.683604541567
 30
0.0
  0
VERTEX
  5
23A
  8
CORTE_LASER$CORTE
 10
1882.307492106653
 20
2568.759652934769
 30
0.0
  0
VERTEX
  5
23B
  8
CORTE_LASER$CORTE
 10
1882.378679655928
 20
2568.833313848673
 30
0.0
  0
VERTEX
  5
23C
  8
CORTE_LASER$CORTE
 10
1882.452340569831
 20
2568.904501397948
 30
0.0
  0
VERTEX
  5
23D
  8
CORTE_LASER$CORTE
 10
1882.528388963034
 20
2568.973132581095
 30
0.0
  0
VERTEX
  5
23E
  8
CORTE_LASER$CORTE
 10
1882.606736166509
 20
2569.039127377227
 30
0.0
  0
VERTEX
  5
23F
  8
CORTE_LASER$CORTE
 10
1882.687290830924
 20
2569.102408839361
 30
0.0
  0
VERTEX
  5
240
  8
CORTE_LASER$CORTE
 10
1882.769959033143
 20
2569.162903184144
 30
0.0
  0
VERTEX
  5
241
  8
CORTE_LASER$CORTE
 10
1882.854644385739
 20
2569.220539877877
 30
0.0
  0
VERTEX
  5
242
  8
CORTE_LASER$CORTE
 10
1882.941248149381
 20
2569.275251718753
 30
0.0
  0
VERTEX
  5
243
  8
CORTE_LASER$CORTE
 10
1883.029669347953
 20
2569.326974915211
 30
0.0
  0
VERTEX
  5
244
  8
CORTE_LASER$CORTE
 10
1883.119804886294
 20
2569.37564916032
 30
0.0
  0
VERTEX
  5
245
  8
CORTE_LASER$CORTE
 10
1883.211549670397
 20
2569.421217702087
 30
0.0
  0
VERTEX
  5
246
  8
CORTE_LASER$CORTE
 10
1883.304796729949
 20
2569.46362740963
 30
0.0
  0
VERTEX
  5
247
  8
CORTE_LASER$CORTE
 10
1883.399437343048
 20
2569.502828835127
 30
0.0
  0
VERTEX
  5
248
  8
CORTE_LASER$CORTE
 10
1883.495361162975
 20
2569.538776271469
 30
0.0
  0
VERTEX
  5
249
  8
CORTE_LASER$CORTE
 10
1883.592456346844
 20
2569.571427805556
 30
0.0
  0
VERTEX
  5
24A
  8
CORTE_LASER$CORTE
 10
1883.690609686016
 20
2569.600745367157
 30
0.0
  0
VERTEX
  5
24B
  8
CORTE_LASER$CORTE
 10
1883.789706738088
 20
2569.626694773307
 30
0.0
  0
VERTEX
  5
24C
  8
CORTE_LASER$CORTE
 10
1883.88963196033
 20
2569.64924576816
 30
0.0
  0
VERTEX
  5
24D
  8
CORTE_LASER$CORTE
 10
1883.990268844401
 20
2569.668372058265
 30
0.0
  0
VERTEX
  5
24E
  8
CORTE_LASER$CORTE
 10
1884.091500052199
 20
2569.684051343222
 30
0.0
  0
VERTEX
  5
24F
  8
CORTE_LASER$CORTE
 10
1884.193207552661
 20
2569.696265341688
 30
0.0
  0
VERTEX
  5
250
  8
CORTE_LASER$CORTE
 10
1884.295272759394
 20
2569.704999812685
 30
0.0
  0
VERTEX
  5
251
  8
CORTE_LASER$CORTE
 10
1884.39757666893
 20
2569.710244572212
 30
0.0
  0
VERTEX
  5
252
  8
CORTE_LASER$CORTE
 10
1884.499999999487
 20
2569.711993505113
 30
0.0
  0
VERTEX
  5
253
  8
CORTE_LASER$CORTE
 10
1890.003980554942
 20
2569.711993505113
 30
0.0
  0
VERTEX
  5
254
  8
CORTE_LASER$CORTE
 10
1890.070568401678
 20
2569.711254401892
 30
0.0
  0
VERTEX
  5
255
  8
CORTE_LASER$CORTE
 10
1890.137721317571
 20
2569.709010880757
 30
0.0
  0
VERTEX
  5
256
  8
CORTE_LASER$CORTE
 10
1890.205395317283
 20
2569.705224487412
 30
0.0
  0
VERTEX
  5
257
  8
CORTE_LASER$CORTE
 10
1890.273543926038
 20
2569.699858142714
 30
0.0
  0
VERTEX
  5
258
  8
CORTE_LASER$CORTE
 10
1890.34211820875
 20
2569.692876313965
 30
0.0
  0
VERTEX
  5
259
  8
CORTE_LASER$CORTE
 10
1890.411066811791
 20
2569.684245188212
 30
0.0
  0
VERTEX
  5
25A
  8
CORTE_LASER$CORTE
 10
1890.480336017892
 20
2569.673932846532
 30
0.0
  0
VERTEX
  5
25B
  8
CORTE_LASER$CORTE
 10
1890.549869814599
 20
2569.661909438285
 30
0.0
  0
VERTEX
  5
25C
  8
CORTE_LASER$CORTE
 10
1890.619609976604
 20
2569.648147354167
 30
0.0
  0
VERTEX
  5
25D
  8
CORTE_LASER$CORTE
 10
1890.689496162206
 20
2569.632621396897
 30
0.0
  0
VERTEX
  5
25E
  8
CORTE_LASER$CORTE
 10
1890.759466024005
 20
2569.615308948282
 30
0.0
  0
VERTEX
  5
25F
  8
CORTE_LASER$CORTE
 10
1890.829455333843
 20
2569.596190131373
 30
0.0
  0
VERTEX
  5
260
  8
CORTE_LASER$CORTE
 10
1890.899398121871
 20
2569.575247966392
 30
0.0
  0
VERTEX
  5
261
  8
CORTE_LASER$CORTE
 10
1890.96922682949
 20
2569.552468519089
 30
0.0
  0
VERTEX
  5
262
  8
CORTE_LASER$CORTE
 10
1891.038872475775
 20
2569.527841040188
 30
0.0
  0
VERTEX
  5
263
  8
CORTE_LASER$CORTE
 10
1891.108264836852
 20
2569.501358094592
 30
0.0
  0
VERTEX
  5
264
  8
CORTE_LASER$CORTE
 10
1891.177332637545
 20
2569.47301567904
 30
0.0
  0
VERTEX
  5
265
  8
CORTE_LASER$CORTE
 10
1891.246003754493
 20
2569.442813326956
 30
0.0
  0
VERTEX
  5
266
  8
CORTE_LASER$CORTE
 10
1891.314205429758
 20
2569.410754199286
 30
0.0
  0
VERTEX
  5
267
  8
CORTE_LASER$CORTE
 10
1891.381864493842
 20
2569.376845160213
 30
0.0
  0
VERTEX
  5
268
  8
CORTE_LASER$CORTE
 10
1891.448907596882
 20
2569.341096836712
 30
0.0
  0
VERTEX
  5
269
  8
CORTE_LASER$CORTE
 10
1891.515261446685
 20
2569.303523661034
 30
0.0
  0
VERTEX
  5
26A
  8
CORTE_LASER$CORTE
 10
1891.580853052138
 20
2569.26414389533
 30
0.0
  0
VERTEX
  5
26B
  8
CORTE_LASER$CORTE
 10
1891.64560997045
 20
2569.222979637767
 30
0.0
  0
VERTEX
  5
26C
  8
CORTE_LASER$CORTE
 10
1891.709460556589
 20
2569.180056809643
 30
0.0
  0
VERTEX
  5
26D
  8
CORTE_LASER$CORTE
 10
1891.772334213224
 20
2569.135405123167
 30
0.0
  0
VERTEX
  5
26E
  8
CORTE_LASER$CORTE
 10
1891.834161639415
 20
2569.089058029746
 30
0.0
  0
VERTEX
  5
26F
  8
CORTE_LASER$CORTE
 10
1891.894875076313
 20
2569.041052648801
 30
0.0
  0
VERTEX
  5
270
  8
CORTE_LASER$CORTE
 10
1891.954408548064
 20
2568.991429677322
 30
0.0
  0
VERTEX
  5
271
  8
CORTE_LASER$CORTE
 10
1892.012698096181
 20
2568.940233280529
 30
0.0
  0
VERTEX
  5
272
  8
CORTE_LASER$CORTE
 10
1892.069682005667
 20
2568.887510964245
 30
0.0
  0
VERTEX
  5
273
  8
CORTE_LASER$CORTE
 10
1892.12530102122
 20
2568.833313429685
 30
0.0
  0
VERTEX
  5
274
  8
CORTE_LASER$CORTE
 10
1892.179498551945
 20
2568.77769441162
 30
0.0
  0
VERTEX
  5
275
  8
CORTE_LASER$CORTE
 10
1892.232220863101
 20
2568.720710500967
 30
0.0
  0
VERTEX
  5
276
  8
CORTE_LASER$CORTE
 10
1892.283417253501
 20
2568.662420953046
 30
0.0
  0
VERTEX
  5
277
  8
CORTE_LASER$CORTE
 10
1892.333040217359
 20
2568.60288748287
 30
0.0
  0
VERTEX
  5
278
  8
CORTE_LASER$CORTE
 10
1892.381045589487
 20
2568.542174048936
 30
0.0
  0
VERTEX
  5
279
  8
CORTE_LASER$CORTE
 10
1892.427392672939
 20
2568.480346627106
 30
0.0
  0
VERTEX
  5
27A
  8
CORTE_LASER$CORTE
 10
1892.472044348336
 20
2568.417472976233
 30
0.0
  0
VERTEX
  5
27B
  8
CORTE_LASER$CORTE
 10
1892.514967164316
 20
2568.353622397251
 30
0.0
  0
VERTEX
  5
27C
  8
CORTE_LASER$CORTE
 10
1892.556131408718
 20
2568.288865487489
 30
0.0
  0
VERTEX
  5
27D
  8
CORTE_LASER$CORTE
 10
1892.595511160293
 20
2568.223273891967
 30
0.0
  0
VERTEX
  5
27E
  8
CORTE_LASER$CORTE
 10
1892.633084320924
 20
2568.156920053461
 30
0.0
  0
VERTEX
  5
27F
  8
CORTE_LASER$CORTE
 10
1892.668832628513
 20
2568.089876963068
 30
0.0
  0
VERTEX
  5
280
  8
CORTE_LASER$CORTE
 10
1892.702741650863
 20
2568.022217912958
 30
0.0
  0
VERTEX
  5
281
  8
CORTE_LASER$CORTE
 10
1892.734800761053
 20
2567.954016252968
 30
0.0
  0
VERTEX
  5
282
  8
CORTE_LASER$CORTE
 10
1892.765003094955
 20
2567.885345152567
 30
0.0
  0
VERTEX
  5
283
  8
CORTE_LASER$CORTE
 10
1892.793345491678
 20
2567.816277369661
 30
0.0
  0
VERTEX
  5
284
  8
CORTE_LASER$CORTE
 10
1892.819828417851
 20
2567.746885027576
 30
0.0
  0
VERTEX
  5
285
  8
CORTE_LASER$CORTE
 10
1892.844455876793
 20
2567.677239401447
 30
0.0
  0
VERTEX
  5
286
  8
CORTE_LASER$CORTE
 10
1892.867235303652
 20
2567.607410715109
 30
0.0
  0
VERTEX
  5
287
  8
CORTE_LASER$CORTE
 10
1892.888177447757
 20
2567.537467949443
 30
0.0
  0
VERTEX
  5
288
  8
CORTE_LASER$CORTE
 10
1892.907296243412
 20
2567.467478663002
 30
0.0
  0
VERTEX
  5
289
  8
CORTE_LASER$CORTE
 10
1892.924608670446
 20
2567.397508825586
 30
0.0
  0
VERTEX
  5
28A
  8
CORTE_LASER$CORTE
 10
1892.940134605857
 20
2567.327622665305
 30
0.0
  0
VERTEX
  5
28B
  8
CORTE_LASER$CORTE
 10
1892.953896667887
 20
2567.257882529508
 30
0.0
  0
VERTEX
  5
28C
  8
CORTE_LASER$CORTE
 10
1892.965920053862
 20
2567.188348759846
 30
0.0
  0
VERTEX
  5
28D
  8
CORTE_LASER$CORTE
 10
1892.976232373132
 20
2567.11907958157
 30
0.0
  0
VERTEX
  5
28E
  8
CORTE_LASER$CORTE
 10
1892.984863476381
 20
2567.050131007084
 30
0.0
  0
VERTEX
  5
28F
  8
CORTE_LASER$CORTE
 10
1892.991845282571
 20
2566.981556753603
 30
0.0
  0
VERTEX
  5
290
  8
CORTE_LASER$CORTE
 10
1892.997211604696
 20
2566.913408174702
 30
0.0
  0
VERTEX
  5
291
  8
CORTE_LASER$CORTE
 10
1893.000997975488
 20
2566.845734205411
 30
0.0
  0
VERTEX
  5
292
  8
CORTE_LASER$CORTE
 10
1893.003241474127
 20
2566.778581320453
 30
0.0
  0
VERTEX
  5
293
  8
CORTE_LASER$CORTE
 10
1893.003980554942
 20
2566.711993505113
 30
0.0
  0
VERTEX
  5
294
  8
CORTE_LASER$CORTE
 10
1893.003980554942
 20
2479.211993505113
 30
0.0
  0
VERTEX
  5
295
  8
CORTE_LASER$CORTE
 10
1893.00223162204
 20
2479.109570174555
 30
0.0
  0
VERTEX
  5
296
  8
CORTE_LASER$CORTE
 10
1892.996986862513
 20
2479.007266265019
 30
0.0
  0
VERTEX
  5
297
  8
CORTE_LASER$CORTE
 10
1892.988252391516
 20
2478.905201058287
 30
0.0
  0
VERTEX
  5
298
  8
CORTE_LASER$CORTE
 10
1892.976038393051
 20
2478.803493557824
 30
0.0
  0
VERTEX
  5
299
  8
CORTE_LASER$CORTE
 10
1892.960359108093
 20
2478.702262350027
 30
0.0
  0
VERTEX
  5
29A
  8
CORTE_LASER$CORTE
 10
1892.941232817989
 20
2478.601625465955
 30
0.0
  0
VERTEX
  5
29B
  8
CORTE_LASER$CORTE
 10
1892.918681823136
 20
2478.501700243714
 30
0.0
  0
VERTEX
  5
29C
  8
CORTE_LASER$CORTE
 10
1892.892732416985
 20
2478.402603191642
 30
0.0
  0
VERTEX
  5
29D
  8
CORTE_LASER$CORTE
 10
1892.863414855384
 20
2478.30444985247
 30
0.0
  0
VERTEX
  5
29E
  8
CORTE_LASER$CORTE
 10
1892.830763321298
 20
2478.2073546686
 30
0.0
  0
VERTEX
  5
29F
  8
CORTE_LASER$CORTE
 10
1892.794815884955
 20
2478.111430848674
 30
0.0
  0
VERTEX
  5
2A0
  8
CORTE_LASER$CORTE
 10
1892.755614459458
 20
2478.016790235574
 30
0.0
  0
VERTEX
  5
2A1
  8
CORTE_LASER$CORTE
 10
1892.713204751916
 20
2477.923543176023
 30
0.0
  0
VERTEX
  5
2A2
  8
CORTE_LASER$CORTE
 10
1892.667636210149
 20
2477.83179839192
 30
0.0
  0
VERTEX
  5
2A3
  8
CORTE_LASER$CORTE
 10
1892.61896196504
 20
2477.741662853579
 30
0.0
  0
VERTEX
  5
2A4
  8
CORTE_LASER$CORTE
 10
1892.567238768581
 20
2477.653241655007
 30
0.0
  0
VERTEX
  5
2A5
  8
CORTE_LASER$CORTE
 10
1892.512526927706
 20
2477.566637891365
 30
0.0
  0
VERTEX
  5
2A6
  8
CORTE_LASER$CORTE
 10
1892.454890233973
 20
2477.481952538769
 30
0.0
  0
VERTEX
  5
2A7
  8
CORTE_LASER$CORTE
 10
1892.39439588919
 20
2477.39928433655
 30
0.0
  0
VERTEX
  5
2A8
  8
CORTE_LASER$CORTE
 10
1892.331114427055
 20
2477.318729672135
 30
0.0
  0
VERTEX
  5
2A9
  8
CORTE_LASER$CORTE
 10
1892.265119630924
 20
2477.240382468659
 30
0.0
  0
VERTEX
  5
2AA
  8
CORTE_LASER$CORTE
 10
1892.196488447776
 20
2477.164334075457
 30
0.0
  0
VERTEX
  5
2AB
  8
CORTE_LASER$CORTE
 10
1892.125300898502
 20
2477.090673161554
 30
0.0
  0
VERTEX
  5
2AC
  8
CORTE_LASER$CORTE
 10
1892.051639984598
 20
2477.019485612279
 30
0.0
  0
VERTEX
  5
2AD
  8
CORTE_LASER$CORTE
 10
1891.975591591396
 20
2476.950854429131
 30
0.0
  0
VERTEX
  5
2AE
  8
CORTE_LASER$CORTE
 10
1891.89724438792
 20
2476.884859633
 30
0.0
  0
VERTEX
  5
2AF
  8
CORTE_LASER$CORTE
 10
1891.816689723505
 20
2476.821578170865
 30
0.0
  0
VERTEX
  5
2B0
  8
CORTE_LASER$CORTE
 10
1891.734021521287
 20
2476.761083826082
 30
0.0
  0
VERTEX
  5
2B1
  8
CORTE_LASER$CORTE
 10
1891.64933616869
 20
2476.703447132349
 30
0.0
  0
VERTEX
  5
2B2
  8
CORTE_LASER$CORTE
 10
1891.562732405048
 20
2476.648735291474
 30
0.0
  0
VERTEX
  5
2B3
  8
CORTE_LASER$CORTE
 10
1891.474311206476
 20
2476.597012095015
 30
0.0
  0
VERTEX
  5
2B4
  8
CORTE_LASER$CORTE
 10
1891.384175668135
 20
2476.548337849906
 30
0.0
  0
VERTEX
  5
2B5
  8
CORTE_LASER$CORTE
 10
1891.292430884032
 20
2476.502769308139
 30
0.0
  0
VERTEX
  5
2B6
  8
CORTE_LASER$CORTE
 10
1891.199183824481
 20
2476.460359600596
 30
0.0
  0
VERTEX
  5
2B7
  8
CORTE_LASER$CORTE
 10
1891.104543211381
 20
2476.4211581751
 30
0.0
  0
VERTEX
  5
2B8
  8
CORTE_LASER$CORTE
 10
1891.008619391455
 20
2476.385210738757
 30
0.0
  0
VERTEX
  5
2B9
  8
CORTE_LASER$CORTE
 10
1890.911524207585
 20
2476.35255920467
 30
0.0
  0
VERTEX
  5
2BA
  8
CORTE_LASER$CORTE
 10
1890.813370868413
 20
2476.32324164307
 30
0.0
  0
VERTEX
  5
2BB
  8
CORTE_LASER$CORTE
 10
1890.714273816341
 20
2476.297292236919
 30
0.0
  0
VERTEX
  5
2BC
  8
CORTE_LASER$CORTE
 10
1890.6143485941
 20
2476.274741242066
 30
0.0
  0
VERTEX
  5
2BD
  8
CORTE_LASER$CORTE
 10
1890.513711710028
 20
2476.255614951961
 30
0.0
  0
VERTEX
  5
2BE
  8
CORTE_LASER$CORTE
 10
1890.412480502231
 20
2476.239935667004
 30
0.0
  0
VERTEX
  5
2BF
  8
CORTE_LASER$CORTE
 10
1890.310773001768
 20
2476.227721668539
 30
0.0
  0
VERTEX
  5
2C0
  8
CORTE_LASER$CORTE
 10
1890.208707795036
 20
2476.218987197542
 30
0.0
  0
VERTEX
  5
2C1
  8
CORTE_LASER$CORTE
 10
1890.1064038855
 20
2476.213742438015
 30
0.0
  0
VERTEX
  5
2C2
  8
CORTE_LASER$CORTE
 10
1890.003980554942
 20
2476.211993505113
 30
0.0
  0
VERTEX
  5
2C3
  8
CORTE_LASER$CORTE
 10
1830.003980554942
 20
2476.211993505113
 30
0.0
  0
VERTEX
  5
2C4
  8
CORTE_LASER$CORTE
 10
1829.901557224384
 20
2476.213742438014
 30
0.0
  0
VERTEX
  5
2C5
  8
CORTE_LASER$CORTE
 10
1829.799253314848
 20
2476.218987197542
 30
0.0
  0
VERTEX
  5
2C6
  8
CORTE_LASER$CORTE
 10
1829.697188108116
 20
2476.227721668539
 30
0.0
  0
VERTEX
  5
2C7
  8
CORTE_LASER$CORTE
 10
1829.595480607653
 20
2476.239935667004
 30
0.0
  0
VERTEX
  5
2C8
  8
CORTE_LASER$CORTE
 10
1829.494249399856
 20
2476.255614951961
 30
0.0
  0
VERTEX
  5
2C9
  8
CORTE_LASER$CORTE
 10
1829.393612515784
 20
2476.274741242066
 30
0.0
  0
VERTEX
  5
2CA
  8
CORTE_LASER$CORTE
 10
1829.293687293542
 20
2476.297292236919
 30
0.0
  0
VERTEX
  5
2CB
  8
CORTE_LASER$CORTE
 10
1829.194590241471
 20
2476.32324164307
 30
0.0
  0
VERTEX
  5
2CC
  8
CORTE_LASER$CORTE
 10
1829.096436902299
 20
2476.352559204671
 30
0.0
  0
VERTEX
  5
2CD
  8
CORTE_LASER$CORTE
 10
1828.999341718429
 20
2476.385210738757
 30
0.0
  0
VERTEX
  5
2CE
  8
CORTE_LASER$CORTE
 10
1828.903417898503
 20
2476.4211581751
 30
0.0
  0
VERTEX
  5
2CF
  8
CORTE_LASER$CORTE
 10
1828.808777285403
 20
2476.460359600597
 30
0.0
  0
VERTEX
  5
2D0
  8
CORTE_LASER$CORTE
 10
1828.715530225852
 20
2476.50276930814
 30
0.0
  0
VERTEX
  5
2D1
  8
CORTE_LASER$CORTE
 10
1828.623785441748
 20
2476.548337849906
 30
0.0
  0
VERTEX
  5
2D2
  8
CORTE_LASER$CORTE
 10
1828.533649903408
 20
2476.597012095015
 30
0.0
  0
VERTEX
  5
2D3
  8
CORTE_LASER$CORTE
 10
1828.445228704835
 20
2476.648735291474
 30
0.0
  0
VERTEX
  5
2D4
  8
CORTE_LASER$CORTE
 10
1828.358624941194
 20
2476.703447132349
 30
0.0
  0
VERTEX
  5
2D5
  8
CORTE_LASER$CORTE
 10
1828.273939588597
 20
2476.761083826082
 30
0.0
  0
VERTEX
  5
2D6
  8
CORTE_LASER$CORTE
 10
1828.191271386379
 20
2476.821578170865
 30
0.0
  0
VERTEX
  5
2D7
  8
CORTE_LASER$CORTE
 10
1828.110716721964
 20
2476.884859633
 30
0.0
  0
VERTEX
  5
2D8
  8
CORTE_LASER$CORTE
 10
1828.032369518488
 20
2476.950854429131
 30
0.0
  0
VERTEX
  5
2D9
  8
CORTE_LASER$CORTE
 10
1827.956321125286
 20
2477.019485612279
 30
0.0
  0
VERTEX
  5
2DA
  8
CORTE_LASER$CORTE
 10
1827.882660211382
 20
2477.090673161554
 30
0.0
  0
VERTEX
  5
2DB
  8
CORTE_LASER$CORTE
 10
1827.811472662107
 20
2477.164334075457
 30
0.0
  0
VERTEX
  5
2DC
  8
CORTE_LASER$CORTE
 10
1827.74284147896
 20
2477.240382468659
 30
0.0
  0
VERTEX
  5
2DD
  8
CORTE_LASER$CORTE
 10
1827.676846682828
 20
2477.318729672135
 30
0.0
  0
VERTEX
  5
2DE
  8
CORTE_LASER$CORTE
 10
1827.613565220694
 20
2477.39928433655
 30
0.0
  0
VERTEX
  5
2DF
  8
CORTE_LASER$CORTE
 10
1827.55307087591
 20
2477.481952538768
 30
0.0
  0
VERTEX
  5
2E0
  8
CORTE_LASER$CORTE
 10
1827.495434182178
 20
2477.566637891365
 30
0.0
  0
VERTEX
  5
2E1
  8
CORTE_LASER$CORTE
 10
1827.440722341302
 20
2477.653241655007
 30
0.0
  0
VERTEX
  5
2E2
  8
CORTE_LASER$CORTE
 10
1827.388999144843
 20
2477.741662853579
 30
0.0
  0
VERTEX
  5
2E3
  8
CORTE_LASER$CORTE
 10
1827.340324899735
 20
2477.83179839192
 30
0.0
  0
VERTEX
  5
2E4
  8
CORTE_LASER$CORTE
 10
1827.294756357968
 20
2477.923543176023
 30
0.0
  0
VERTEX
  5
2E5
  8
CORTE_LASER$CORTE
 10
1827.252346650425
 20
2478.016790235574
 30
0.0
  0
VERTEX
  5
2E6
  8
CORTE_LASER$CORTE
 10
1827.213145224928
 20
2478.111430848674
 30
0.0
  0
VERTEX
  5
2E7
  8
CORTE_LASER$CORTE
 10
1827.177197788585
 20
2478.2073546686
 30
0.0
  0
VERTEX
  5
2E8
  8
CORTE_LASER$CORTE
 10
1827.144546254499
 20
2478.30444985247
 30
0.0
  0
VERTEX
  5
2E9
  8
CORTE_LASER$CORTE
 10
1827.115228692898
 20
2478.402603191642
 30
0.0
  0
VERTEX
  5
2EA
  8
CORTE_LASER$CORTE
 10
1827.089279286748
 20
2478.501700243714
 30
0.0
  0
VERTEX
  5
2EB
  8
CORTE_LASER$CORTE
 10
1827.066728291895
 20
2478.601625465955
 30
0.0
  0
VERTEX
  5
2EC
  8
CORTE_LASER$CORTE
 10
1827.04760200179
 20
2478.702262350027
 30
0.0
  0
VERTEX
  5
2ED
  8
CORTE_LASER$CORTE
 10
1827.031922716833
 20
2478.803493557824
 30
0.0
  0
VERTEX
  5
2EE
  8
CORTE_LASER$CORTE
 10
1827.019708718367
 20
2478.905201058287
 30
0.0
  0
VERTEX
  5
2EF
  8
CORTE_LASER$CORTE
 10
1827.01097424737
 20
2479.007266265019
 30
0.0
  0
VERTEX
  5
2F0
  8
CORTE_LASER$CORTE
 10
1827.005729487843
 20
2479.109570174555
 30
0.0
  0
VERTEX
  5
2F1
  8
CORTE_LASER$CORTE
 10
1827.003980554942
 20
2479.211993505113
 30
0.0
  0
VERTEX
  5
2F2
  8
CORTE_LASER$CORTE
 10
1827.003980554942
 20
2507.711993505113
 30
0.0
  0
VERTEX
  5
2F3
  8
CORTE_LASER$CORTE
 10
1835.499999999487
 20
2507.711993505113
 30
0.0
  0
VERTEX
  5
2F4
  8
CORTE_LASER$CORTE
 10
1835.603548416397
 20
2507.710205926766
 30
0.0
  0
VERTEX
  5
2F5
  8
CORTE_LASER$CORTE
 10
1835.706973432701
 20
2507.704845322017
 30
0.0
  0
VERTEX
  5
2F6
  8
CORTE_LASER$CORTE
 10
1835.810151794853
 20
2507.695918079199
 30
0.0
  0
VERTEX
  5
2F7
  8
CORTE_LASER$CORTE
 10
1835.912960543249
 20
2507.683434837076
 30
0.0
  0
VERTEX
  5
2F8
  8
CORTE_LASER$CORTE
 10
1836.015277158761
 20
2507.667410472164
 30
0.0
  0
VERTEX
  5
2F9
  8
CORTE_LASER$CORTE
 10
1836.116979708745
 20
2507.647864081001
 30
0.0
  0
VERTEX
  5
2FA
  8
CORTE_LASER$CORTE
 10
1836.21794699235
 20
2507.624818957391
 30
0.0
  0
VERTEX
  5
2FB
  8
CORTE_LASER$CORTE
 10
1836.318058684956
 20
2507.598302564644
 30
0.0
  0
VERTEX
  5
2FC
  8
CORTE_LASER$CORTE
 10
1836.417195481567
 20
2507.568346502846
 30
0.0
  0
VERTEX
  5
2FD
  8
CORTE_LASER$CORTE
 10
1836.515239238988
 20
2507.5349864712
 30
0.0
  0
VERTEX
  5
2FE
  8
CORTE_LASER$CORTE
 10
1836.612073116623
 20
2507.498262225489
 30
0.0
  0
VERTEX
  5
2FF
  8
CORTE_LASER$CORTE
 10
1836.707581715707
 20
2507.458217530689
 30
0.0
  0
VERTEX
  5
300
  8
CORTE_LASER$CORTE
 10
1836.80165121684
 20
2507.41490010882
 30
0.0
  0
VERTEX
  5
301
  8
CORTE_LASER$CORTE
 10
1836.894169515619
 20
2507.368361582073
 30
0.0
  0
VERTEX
  5
302
  8
CORTE_LASER$CORTE
 10
1836.985026356238
 20
2507.318657411288
 30
0.0
  0
VERTEX
  5
303
  8
CORTE_LASER$CORTE
 10
1837.074113462884
 20
2507.265846829866
 30
0.0
  0
VERTEX
  5
304
  8
CORTE_LASER$CORTE
 10
1837.161324668769
 20
2507.209992773175
 30
0.0
  0
VERTEX
  5
305
  8
CORTE_LASER$CORTE
 10
1837.24655604265
 20
2507.151161803549
 30
0.0
  0
VERTEX
  5
306
  8
CORTE_LASER$CORTE
 10
1837.329706012688
 20
2507.089424030967
 30
0.0
  0
VERTEX
  5
307
  8
CORTE_LASER$CORTE
 10
1837.410675487492
 20
2507.024853029498
 30
0.0
  0
VERTEX
  5
308
  8
CORTE_LASER$CORTE
 10
1837.48936797421
 20
2506.957525749627
 30
0.0
  0
VERTEX
  5
309
  8
CORTE_LASER$CORTE
 10
1837.565689693517
 20
2506.887522426543
 30
0.0
  0
VERTEX
  5
30A
  8
CORTE_LASER$CORTE
 10
1837.639549691379
 20
2506.814926484531
 30
0.0
  0
VERTEX
  5
30B
  8
CORTE_LASER$CORTE
 10
1837.71085994744
 20
2506.739824437548
 30
0.0
  0
VERTEX
  5
30C
  8
CORTE_LASER$CORTE
 10
1837.779535479921
 20
2506.662305786119
 30
0.0
  0
VERTEX
  5
30D
  8
CORTE_LASER$CORTE
 10
1837.845494446892
 20
2506.58246291069
 30
0.0
  0
VERTEX
  5
30E
  8
CORTE_LASER$CORTE
 10
1837.908658243804
 20
2506.500390961521
 30
0.0
  0
VERTEX
  5
30F
  8
CORTE_LASER$CORTE
 10
1837.968951597168
 20
2506.416187745307
 30
0.0
  0
VERTEX
  5
310
  8
CORTE_LASER$CORTE
 10
1838.026302654256
 20
2506.329953608611
 30
0.0
  0
VERTEX
  5
311
  8
CORTE_LASER$CORTE
 10
1838.080643068728
 20
2506.241791318284
 30
0.0
  0
VERTEX
  5
312
  8
CORTE_LASER$CORTE
 10
1838.131908082086
 20
2506.151805938993
 30
0.0
  0
VERTEX
  5
313
  8
CORTE_LASER$CORTE
 10
1838.180036600844
 20
2506.060104708015
 30
0.0
  0
VERTEX
  5
314
  8
CORTE_LASER$CORTE
 10
1838.224971269338
 20
2505.96679690744
 30
0.0
  0
VERTEX
  5
315
  8
CORTE_LASER$CORTE
 10
1838.266658538073
 20
2505.871993733937
 30
0.0
  0
VERTEX
  5
316
  8
CORTE_LASER$CORTE
 10
1838.305048727544
 20
2505.775808166241
 30
0.0
  0
VERTEX
  5
317
  8
CORTE_LASER$CORTE
 10
1838.340096087436
 20
2505.678354830509
 30
0.0
  0
VERTEX
  5
318
  8
CORTE_LASER$CORTE
 10
1838.371758851148
 20
2505.579749863723
 30
0.0
  0
VERTEX
  5
319
  8
CORTE_LASER$CORTE
 10
1838.399999285567
 20
2505.480110775286
 30
0.0
  0
VERTEX
  5
31A
  8
CORTE_LASER$CORTE
 10
1838.424783736033
 20
2505.379556306982
 30
0.0
  0
VERTEX
  5
31B
  8
CORTE_LASER$CORTE
 10
1838.446082666448
 20
2505.278206291472
 30
0.0
  0
VERTEX
  5
31C
  8
CORTE_LASER$CORTE
 10
1838.463870694474
 20
2505.176181509484
 30
0.0
  0
VERTEX
  5
31D
  8
CORTE_LASER$CORTE
 10
1838.478126621782
 20
2505.073603545879
 30
0.0
  0
VERTEX
  5
31E
  8
CORTE_LASER$CORTE
 10
1838.488833459314
 20
2504.970594644755
 30
0.0
  0
VERTEX
  5
31F
  8
CORTE_LASER$CORTE
 10
1838.495978447529
 20
2504.867277563766
 30
0.0
  0
VERTEX
  5
320
  8
CORTE_LASER$CORTE
 10
1838.49955307161
 20
2504.763775427829
 30
0.0
  0
VERTEX
  5
321
  8
CORTE_LASER$CORTE
 10
1838.49955307161
 20
2504.660211582397
 30
0.0
  0
VERTEX
  5
322
  8
CORTE_LASER$CORTE
 10
1838.495978447529
 20
2504.55670944646
 30
0.0
  0
VERTEX
  5
323
  8
CORTE_LASER$CORTE
 10
1838.488833459314
 20
2504.453392365471
 30
0.0
  0
VERTEX
  5
324
  8
CORTE_LASER$CORTE
 10
1838.478126621782
 20
2504.350383464347
 30
0.0
  0
VERTEX
  5
325
  8
CORTE_LASER$CORTE
 10
1838.463870694474
 20
2504.247805500742
 30
0.0
  0
VERTEX
  5
326
  8
CORTE_LASER$CORTE
 10
1838.446082666448
 20
2504.145780718754
 30
0.0
  0
VERTEX
  5
327
  8
CORTE_LASER$CORTE
 10
1838.424783736033
 20
2504.044430703244
 30
0.0
  0
VERTEX
  5
328
  8
CORTE_LASER$CORTE
 10
1838.399999285567
 20
2503.94387623494
 30
0.0
  0
VERTEX
  5
329
  8
CORTE_LASER$CORTE
 10
1838.371758851148
 20
2503.844237146503
 30
0.0
  0
VERTEX
  5
32A
  8
CORTE_LASER$CORTE
 10
1838.340096087436
 20
2503.745632179718
 30
0.0
  0
VERTEX
  5
32B
  8
CORTE_LASER$CORTE
 10
1838.305048727544
 20
2503.648178843986
 30
0.0
  0
VERTEX
  5
32C
  8
CORTE_LASER$CORTE
 10
1838.266658538073
 20
2503.551993276289
 30
0.0
  0
VERTEX
  5
32D
  8
CORTE_LASER$CORTE
 10
1838.224971269338
 20
2503.457190102787
 30
0.0
  0
VERTEX
  5
32E
  8
CORTE_LASER$CORTE
 10
1838.180036600844
 20
2503.363882302212
 30
0.0
  0
VERTEX
  5
32F
  8
CORTE_LASER$CORTE
 10
1838.131908082086
 20
2503.272181071234
 30
0.0
  0
VERTEX
  5
330
  8
CORTE_LASER$CORTE
 10
1838.080643068728
 20
2503.182195691943
 30
0.0
  0
VERTEX
  5
331
  8
CORTE_LASER$CORTE
 10
1838.026302654256
 20
2503.094033401615
 30
0.0
  0
VERTEX
  5
332
  8
CORTE_LASER$CORTE
 10
1837.968951597168
 20
2503.00779926492
 30
0.0
  0
VERTEX
  5
333
  8
CORTE_LASER$CORTE
 10
1837.908658243804
 20
2502.923596048705
 30
0.0
  0
VERTEX
  5
334
  8
CORTE_LASER$CORTE
 10
1837.845494446892
 20
2502.841524099537
 30
0.0
  0
VERTEX
  5
335
  8
CORTE_LASER$CORTE
 10
1837.779535479921
 20
2502.761681224107
 30
0.0
  0
VERTEX
  5
336
  8
CORTE_LASER$CORTE
 10
1837.71085994744
 20
2502.684162572679
 30
0.0
  0
VERTEX
  5
337
  8
CORTE_LASER$CORTE
 10
1837.639549691379
 20
2502.609060525695
 30
0.0
  0
VERTEX
  5
338
  8
CORTE_LASER$CORTE
 10
1837.565689693517
 20
2502.536464583683
 30
0.0
  0
VERTEX
  5
339
  8
CORTE_LASER$CORTE
 10
1837.48936797421
 20
2502.4664612606
 30
0.0
  0
VERTEX
  5
33A
  8
CORTE_LASER$CORTE
 10
1837.410675487492
 20
2502.399133980728
 30
0.0
  0
VERTEX
  5
33B
  8
CORTE_LASER$CORTE
 10
1837.329706012688
 20
2502.33456297926
 30
0.0
  0
VERTEX
  5
33C
  8
CORTE_LASER$CORTE
 10
1837.24655604265
 20
2502.272825206678
 30
0.0
  0
VERTEX
  5
33D
  8
CORTE_LASER$CORTE
 10
1837.161324668769
 20
2502.213994237052
 30
0.0
  0
VERTEX
  5
33E
  8
CORTE_LASER$CORTE
 10
1837.074113462884
 20
2502.15814018036
 30
0.0
  0
VERTEX
  5
33F
  8
CORTE_LASER$CORTE
 10
1836.985026356238
 20
2502.105329598938
 30
0.0
  0
VERTEX
  5
340
  8
CORTE_LASER$CORTE
 10
1836.894169515619
 20
2502.055625428154
 30
0.0
  0
VERTEX
  5
341
  8
CORTE_LASER$CORTE
 10
1836.80165121684
 20
2502.009086901406
 30
0.0
  0
VERTEX
  5
342
  8
CORTE_LASER$CORTE
 10
1836.707581715707
 20
2501.965769479537
 30
0.0
  0
VERTEX
  5
343
  8
CORTE_LASER$CORTE
 10
1836.612073116623
 20
2501.925724784737
 30
0.0
  0
VERTEX
  5
344
  8
CORTE_LASER$CORTE
 10
1836.515239238988
 20
2501.889000539026
 30
0.0
  0
VERTEX
  5
345
  8
CORTE_LASER$CORTE
 10
1836.417195481567
 20
2501.855640507381
 30
0.0
  0
VERTEX
  5
346
  8
CORTE_LASER$CORTE
 10
1836.318058684956
 20
2501.825684445582
 30
0.0
  0
VERTEX
  5
347
  8
CORTE_LASER$CORTE
 10
1836.21794699235
 20
2501.799168052835
 30
0.0
  0
VERTEX
  5
348
  8
CORTE_LASER$CORTE
 10
1836.116979708745
 20
2501.776122929225
 30
0.0
  0
VERTEX
  5
349
  8
CORTE_LASER$CORTE
 10
1836.015277158761
 20
2501.756576538063
 30
0.0
  0
VERTEX
  5
34A
  8
CORTE_LASER$CORTE
 10
1835.912960543249
 20
2501.740552173151
 30
0.0
  0
VERTEX
  5
34B
  8
CORTE_LASER$CORTE
 10
1835.810151794853
 20
2501.728068931028
 30
0.0
  0
VERTEX
  5
34C
  8
CORTE_LASER$CORTE
 10
1835.706973432701
 20
2501.71914168821
 30
0.0
  0
VERTEX
  5
34D
  8
CORTE_LASER$CORTE
 10
1835.603548416397
 20
2501.71378108346
 30
0.0
  0
VERTEX
  5
34E
  8
CORTE_LASER$CORTE
 10
1835.499999999487
 20
2501.711993505113
 30
0.0
  0
VERTEX
  5
34F
  8
CORTE_LASER$CORTE
 10
1831.999999999488
 20
2501.711993505113
 30
0.0
  0
VERTEX
  5
350
  8
CORTE_LASER$CORTE
 10
1831.999999999488
 20
2481.211993505113
 30
0.0
  0
VERTEX
  5
351
  8
CORTE_LASER$CORTE
 10
1887.999999999487
 20
2481.211993505113
 30
0.0
  0
VERTEX
  5
352
  8
CORTE_LASER$CORTE
 10
1887.999999999487
 20
2501.711993505113
 30
0.0
  0
VERTEX
  5
353
  8
CORTE_LASER$CORTE
 10
1884.499999999487
 20
2501.711993505113
 30
0.0
  0
VERTEX
  5
354
  8
CORTE_LASER$CORTE
 10
1884.396451582578
 20
2501.71378108346
 30
0.0
  0
VERTEX
  5
355
  8
CORTE_LASER$CORTE
 10
1884.293026566275
 20
2501.71914168821
 30
0.0
  0
VERTEX
  5
356
  8
CORTE_LASER$CORTE
 10
1884.189848204122
 20
2501.728068931028
 30
0.0
  0
VERTEX
  5
357
  8
CORTE_LASER$CORTE
 10
1884.087039455726
 20
2501.740552173151
 30
0.0
  0
VERTEX
  5
358
  8
CORTE_LASER$CORTE
 10
1883.984722840214
 20
2501.756576538063
 30
0.0
  0
VERTEX
  5
359
  8
CORTE_LASER$CORTE
 10
1883.88302029023
 20
2501.776122929225
 30
0.0
  0
VERTEX
  5
35A
  8
CORTE_LASER$CORTE
 10
1883.782053006625
 20
2501.799168052835
 30
0.0
  0
VERTEX
  5
35B
  8
CORTE_LASER$CORTE
 10
1883.681941314019
 20
2501.825684445582
 30
0.0
  0
VERTEX
  5
35C
  8
CORTE_LASER$CORTE
 10
1883.582804517408
 20
2501.855640507381
 30
0.0
  0
VERTEX
  5
35D
  8
CORTE_LASER$CORTE
 10
1883.484760759987
 20
2501.889000539026
 30
0.0
  0
VERTEX
  5
35E
  8
CORTE_LASER$CORTE
 10
1883.387926882352
 20
2501.925724784737
 30
0.0
  0
VERTEX
  5
35F
  8
CORTE_LASER$CORTE
 10
1883.292418283268
 20
2501.965769479537
 30
0.0
  0
VERTEX
  5
360
  8
CORTE_LASER$CORTE
 10
1883.198348782135
 20
2502.009086901406
 30
0.0
  0
VERTEX
  5
361
  8
CORTE_LASER$CORTE
 10
1883.105830483356
 20
2502.055625428154
 30
0.0
  0
VERTEX
  5
362
  8
CORTE_LASER$CORTE
 10
1883.014973642737
 20
2502.105329598938
 30
0.0
  0
VERTEX
  5
363
  8
CORTE_LASER$CORTE
 10
1882.925886536091
 20
2502.15814018036
 30
0.0
  0
VERTEX
  5
364
  8
CORTE_LASER$CORTE
 10
1882.838675330206
 20
2502.213994237052
 30
0.0
  0
VERTEX
  5
365
  8
CORTE_LASER$CORTE
 10
1882.753443956325
 20
2502.272825206678
 30
0.0
  0
VERTEX
  5
366
  8
CORTE_LASER$CORTE
 10
1882.670293986287
 20
2502.33456297926
 30
0.0
  0
VERTEX
  5
367
  8
CORTE_LASER$CORTE
 10
1882.589324511483
 20
2502.399133980728
 30
0.0
  0
VERTEX
  5
368
  8
CORTE_LASER$CORTE
 10
1882.510632024765
 20
2502.4664612606
 30
0.0
  0
VERTEX
  5
369
  8
CORTE_LASER$CORTE
 10
1882.434310305458
 20
2502.536464583683
 30
0.0
  0
VERTEX
  5
36A
  8
CORTE_LASER$CORTE
 10
1882.360450307596
 20
2502.609060525695
 30
0.0
  0
VERTEX
  5
36B
  8
CORTE_LASER$CORTE
 10
1882.289140051535
 20
2502.684162572679
 30
0.0
  0
VERTEX
  5
36C
  8
CORTE_LASER$CORTE
 10
1882.220464519054
 20
2502.761681224107
 30
0.0
  0
VERTEX
  5
36D
  8
CORTE_LASER$CORTE
 10
1882.154505552083
 20
2502.841524099537
 30
0.0
  0
VERTEX
  5
36E
  8
CORTE_LASER$CORTE
 10
1882.091341755171
 20
2502.923596048705
 30
0.0
  0
VERTEX
  5
36F
  8
CORTE_LASER$CORTE
 10
1882.031048401807
 20
2503.00779926492
 30
0.0
  0
VERTEX
  5
370
  8
CORTE_LASER$CORTE
 10
1881.973697344719
 20
2503.094033401616
 30
0.0
  0
VERTEX
  5
371
  8
CORTE_LASER$CORTE
 10
1881.919356930247
 20
2503.182195691943
 30
0.0
  0
VERTEX
  5
372
  8
CORTE_LASER$CORTE
 10
1881.868091916889
 20
2503.272181071234
 30
0.0
  0
VERTEX
  5
373
  8
CORTE_LASER$CORTE
 10
1881.819963398131
 20
2503.363882302212
 30
0.0
  0
VERTEX
  5
374
  8
CORTE_LASER$CORTE
 10
1881.775028729637
 20
2503.457190102787
 30
0.0
  0
VERTEX
  5
375
  8
CORTE_LASER$CORTE
 10
1881.733341460902
 20
2503.551993276289
 30
0.0
  0
VERTEX
  5
376
  8
CORTE_LASER$CORTE
 10
1881.694951271431
 20
2503.648178843986
 30
0.0
  0
VERTEX
  5
377
  8
CORTE_LASER$CORTE
 10
1881.659903911539
 20
2503.745632179718
 30
0.0
  0
VERTEX
  5
378
  8
CORTE_LASER$CORTE
 10
1881.628241147827
 20
2503.844237146503
 30
0.0
  0
VERTEX
  5
379
  8
CORTE_LASER$CORTE
 10
1881.600000713408
 20
2503.94387623494
 30
0.0
  0
VERTEX
  5
37A
  8
CORTE_LASER$CORTE
 10
1881.575216262942
 20
2504.044430703244
 30
0.0
  0
VERTEX
  5
37B
  8
CORTE_LASER$CORTE
 10
1881.553917332527
 20
2504.145780718754
 30
0.0
  0
VERTEX
  5
37C
  8
CORTE_LASER$CORTE
 10
1881.536129304501
 20
2504.247805500742
 30
0.0
  0
VERTEX
  5
37D
  8
CORTE_LASER$CORTE
 10
1881.521873377193
 20
2504.350383464347
 30
0.0
  0
VERTEX
  5
37E
  8
CORTE_LASER$CORTE
 10
1881.511166539661
 20
2504.453392365471
 30
0.0
  0
VERTEX
  5
37F
  8
CORTE_LASER$CORTE
 10
1881.504021551446
 20
2504.55670944646
 30
0.0
  0
VERTEX
  5
380
  8
CORTE_LASER$CORTE
 10
1881.500446927365
 20
2504.660211582397
 30
0.0
  0
VERTEX
  5
381
  8
CORTE_LASER$CORTE
 10
1881.500446927365
 20
2504.763775427829
 30
0.0
  0
VERTEX
  5
382
  8
CORTE_LASER$CORTE
 10
1881.504021551446
 20
2504.867277563766
 30
0.0
  0
VERTEX
  5
383
  8
CORTE_LASER$CORTE
 10
1881.511166539661
 20
2504.970594644755
 30
0.0
  0
VERTEX
  5
384
  8
CORTE_LASER$CORTE
 10
1881.521873377193
 20
2505.073603545879
 30
0.0
  0
VERTEX
  5
385
  8
CORTE_LASER$CORTE
 10
1881.536129304501
 20
2505.176181509484
 30
0.0
  0
VERTEX
  5
386
  8
CORTE_LASER$CORTE
 10
1881.553917332527
 20
2505.278206291472
 30
0.0
  0
VERTEX
  5
387
  8
CORTE_LASER$CORTE
 10
1881.575216262942
 20
2505.379556306982
 30
0.0
  0
VERTEX
  5
388
  8
CORTE_LASER$CORTE
 10
1881.600000713408
 20
2505.480110775286
 30
0.0
  0
VERTEX
  5
389
  8
CORTE_LASER$CORTE
 10
1881.628241147827
 20
2505.579749863723
 30
0.0
  0
VERTEX
  5
38A
  8
CORTE_LASER$CORTE
 10
1881.659903911539
 20
2505.678354830509
 30
0.0
  0
VERTEX
  5
38B
  8
CORTE_LASER$CORTE
 10
1881.694951271431
 20
2505.775808166241
 30
0.0
  0
VERTEX
  5
38C
  8
CORTE_LASER$CORTE
 10
1881.733341460902
 20
2505.871993733937
 30
0.0
  0
VERTEX
  5
38D
  8
CORTE_LASER$CORTE
 10
1881.775028729637
 20
2505.96679690744
 30
0.0
  0
VERTEX
  5
38E
  8
CORTE_LASER$CORTE
 10
1881.819963398131
 20
2506.060104708014
 30
0.0
  0
VERTEX
  5
38F
  8
CORTE_LASER$CORTE
 10
1881.868091916889
 20
2506.151805938993
 30
0.0
  0
VERTEX
  5
390
  8
CORTE_LASER$CORTE
 10
1881.919356930247
 20
2506.241791318284
 30
0.0
  0
VERTEX
  5
391
  8
CORTE_LASER$CORTE
 10
1881.973697344719
 20
2506.329953608611
 30
0.0
  0
VERTEX
  5
392
  8
CORTE_LASER$CORTE
 10
1882.031048401807
 20
2506.416187745307
 30
0.0
  0
VERTEX
  5
393
  8
CORTE_LASER$CORTE
 10
1882.091341755171
 20
2506.500390961521
 30
0.0
  0
VERTEX
  5
394
  8
CORTE_LASER$CORTE
 10
1882.154505552083
 20
2506.58246291069
 30
0.0
  0
VERTEX
  5
395
  8
CORTE_LASER$CORTE
 10
1882.220464519054
 20
2506.662305786119
 30
0.0
  0
VERTEX
  5
396
  8
CORTE_LASER$CORTE
 10
1882.289140051535
 20
2506.739824437548
 30
0.0
  0
VERTEX
  5
397
  8
CORTE_LASER$CORTE
 10
1882.360450307596
 20
2506.814926484531
 30
0.0
  0
VERTEX
  5
398
  8
CORTE_LASER$CORTE
 10
1882.434310305458
 20
2506.887522426543
 30
0.0
  0
VERTEX
  5
399
  8
CORTE_LASER$CORTE
 10
1882.510632024765
 20
2506.957525749627
 30
0.0
  0
VERTEX
  5
39A
  8
CORTE_LASER$CORTE
 10
1882.589324511483
 20
2507.024853029498
 30
0.0
  0
VERTEX
  5
39B
  8
CORTE_LASER$CORTE
 10
1882.670293986287
 20
2507.089424030967
 30
0.0
  0
VERTEX
  5
39C
  8
CORTE_LASER$CORTE
 10
1882.753443956325
 20
2507.151161803549
 30
0.0
  0
VERTEX
  5
39D
  8
CORTE_LASER$CORTE
 10
1882.838675330206
 20
2507.209992773175
 30
0.0
  0
VERTEX
  5
39E
  8
CORTE_LASER$CORTE
 10
1882.925886536091
 20
2507.265846829866
 30
0.0
  0
VERTEX
  5
39F
  8
CORTE_LASER$CORTE
 10
1883.014973642737
 20
2507.318657411288
 30
0.0
  0
VERTEX
  5
3A0
  8
CORTE_LASER$CORTE
 10
1883.105830483356
 20
2507.368361582073
 30
0.0
  0
VERTEX
  5
3A1
  8
CORTE_LASER$CORTE
 10
1883.198348782135
 20
2507.41490010882
 30
0.0
  0
VERTEX
  5
3A2
  8
CORTE_LASER$CORTE
 10
1883.292418283268
 20
2507.458217530689
 30
0.0
  0
VERTEX
  5
3A3
  8
CORTE_LASER$CORTE
 10
1883.387926882352
 20
2507.498262225489
 30
0.0
  0
VERTEX
  5
3A4
  8
CORTE_LASER$CORTE
 10
1883.484760759987
 20
2507.5349864712
 30
0.0
  0
VERTEX
  5
3A5
  8
CORTE_LASER$CORTE
 10
1883.582804517408
 20
2507.568346502846
 30
0.0
  0
VERTEX
  5
3A6
  8
CORTE_LASER$CORTE
 10
1883.681941314019
 20
2507.598302564644
 30
0.0
  0
VERTEX
  5
3A7
  8
CORTE_LASER$CORTE
 10
1883.782053006625
 20
2507.624818957391
 30
0.0
  0
VERTEX
  5
3A8
  8
CORTE_LASER$CORTE
 10
1883.88302029023
 20
2507.647864081001
 30
0.0
  0
VERTEX
  5
3A9
  8
CORTE_LASER$CORTE
 10
1883.984722840214
 20
2507.667410472164
 30
0.0
  0
VERTEX
  5
3AA
  8
CORTE_LASER$CORTE
 10
1884.087039455726
 20
2507.683434837076
 30
0.0
  0
VERTEX
  5
3AB
  8
CORTE_LASER$CORTE
 10
1884.189848204122
 20
2507.695918079199
 30
0.0
  0
VERTEX
  5
3AC
  8
CORTE_LASER$CORTE
 10
1884.293026566274
 20
2507.704845322017
 30
0.0
  0
VERTEX
  5
3AD
  8
CORTE_LASER$CORTE
 10
1884.396451582578
 20
2507.710205926766
 30
0.0
  0
VERTEX
  5
3AE
  8
CORTE_LASER$CORTE
 10
1884.499999999487
 20
2507.711993505113
 30
0.0
  0
VERTEX
  5
3AF
  8
CORTE_LASER$CORTE
 10
1887.999999999487
 20
2507.711993505113
 30
0.0
  0
VERTEX
  5
3B0
  8
CORTE_LASER$CORTE
 10
1887.999999999487
 20
2559.711993505113
 30
0.0
  0
VERTEX
  5
3B1
  8
CORTE_LASER$CORTE
 10
1884.499999999455
 20
2559.711993505113
 30
0.0
  0
VERTEX
  5
3B2
  8
CORTE_LASER$CORTE
 10
1884.39757666893
 20
2559.713742438015
 30
0.0
  0
VERTEX
  5
3B3
  8
CORTE_LASER$CORTE
 10
1884.295272759394
 20
2559.718987197542
 30
0.0
  0
VERTEX
  5
3B4
  8
CORTE_LASER$CORTE
 10
1884.193207552661
 20
2559.727721668539
 30
0.0
  0
VERTEX
  5
3B5
  8
CORTE_LASER$CORTE
 10
1884.091500052199
 20
2559.739935667004
 30
0.0
  0
VERTEX
  5
3B6
  8
CORTE_LASER$CORTE
 10
1883.990268844401
 20
2559.755614951961
 30
0.0
  0
VERTEX
  5
3B7
  8
CORTE_LASER$CORTE
 10
1883.88963196033
 20
2559.774741242066
 30
0.0
  0
VERTEX
  5
3B8
  8
CORTE_LASER$CORTE
 10
1883.789706738088
 20
2559.797292236919
 30
0.0
  0
VERTEX
  5
3B9
  8
CORTE_LASER$CORTE
 10
1883.690609686016
 20
2559.82324164307
 30
0.0
  0
VERTEX
  5
3BA
  8
CORTE_LASER$CORTE
 10
1883.592456346844
 20
2559.852559204671
 30
0.0
  0
VERTEX
  5
3BB
  8
CORTE_LASER$CORTE
 10
1883.495361162975
 20
2559.885210738757
 30
0.0
  0
VERTEX
  5
3BC
  8
CORTE_LASER$CORTE
 10
1883.399437343048
 20
2559.9211581751
 30
0.0
  0
VERTEX
  5
3BD
  8
CORTE_LASER$CORTE
 10
1883.304796729949
 20
2559.960359600597
 30
0.0
  0
VERTEX
  5
3BE
  8
CORTE_LASER$CORTE
 10
1883.211549670397
 20
2560.00276930814
 30
0.0
  0
VERTEX
  5
3BF
  8
CORTE_LASER$CORTE
 10
1883.119804886294
 20
2560.048337849906
 30
0.0
  0
VERTEX
  5
3C0
  8
CORTE_LASER$CORTE
 10
1883.029669347954
 20
2560.097012095015
 30
0.0
  0
VERTEX
  5
3C1
  8
CORTE_LASER$CORTE
 10
1882.941248149381
 20
2560.148735291474
 30
0.0
  0
VERTEX
  5
3C2
  8
CORTE_LASER$CORTE
 10
1882.854644385739
 20
2560.203447132349
 30
0.0
  0
VERTEX
  5
3C3
  8
CORTE_LASER$CORTE
 10
1882.769959033143
 20
2560.261083826082
 30
0.0
  0
VERTEX
  5
3C4
  8
CORTE_LASER$CORTE
 10
1882.687290830924
 20
2560.321578170865
 30
0.0
  0
VERTEX
  5
3C5
  8
CORTE_LASER$CORTE
 10
1882.606736166509
 20
2560.384859633
 30
0.0
  0
VERTEX
  5
3C6
  8
CORTE_LASER$CORTE
 10
1882.528388963034
 20
2560.450854429131
 30
0.0
  0
VERTEX
  5
3C7
  8
CORTE_LASER$CORTE
 10
1882.452340569831
 20
2560.519485612279
 30
0.0
  0
VERTEX
  5
3C8
  8
CORTE_LASER$CORTE
 10
1882.378679655928
 20
2560.590673161554
 30
0.0
  0
VERTEX
  5
3C9
  8
CORTE_LASER$CORTE
 10
1882.307492106653
 20
2560.664334075457
 30
0.0
  0
VERTEX
  5
3CA
  8
CORTE_LASER$CORTE
 10
1882.238860923505
 20
2560.740382468659
 30
0.0
  0
VERTEX
  5
3CB
  8
CORTE_LASER$CORTE
 10
1882.172866127374
 20
2560.818729672135
 30
0.0
  0
VERTEX
  5
3CC
  8
CORTE_LASER$CORTE
 10
1882.10958466524
 20
2560.89928433655
 30
0.0
  0
VERTEX
  5
3CD
  8
CORTE_LASER$CORTE
 10
1882.049090320456
 20
2560.981952538769
 30
0.0
  0
VERTEX
  5
3CE
  8
CORTE_LASER$CORTE
 10
1881.991453626723
 20
2561.066637891365
 30
0.0
  0
VERTEX
  5
3CF
  8
CORTE_LASER$CORTE
 10
1881.936741785848
 20
2561.153241655007
 30
0.0
  0
VERTEX
  5
3D0
  8
CORTE_LASER$CORTE
 10
1881.885018589389
 20
2561.241662853579
 30
0.0
  0
VERTEX
  5
3D1
  8
CORTE_LASER$CORTE
 10
1881.83634434428
 20
2561.33179839192
 30
0.0
  0
VERTEX
  5
3D2
  8
CORTE_LASER$CORTE
 10
1881.790775802514
 20
2561.423543176023
 30
0.0
  0
VERTEX
  5
3D3
  8
CORTE_LASER$CORTE
 10
1881.748366094971
 20
2561.516790235575
 30
0.0
  0
VERTEX
  5
3D4
  8
CORTE_LASER$CORTE
 10
1881.709164669474
 20
2561.611430848674
 30
0.0
  0
VERTEX
  5
3D5
  8
CORTE_LASER$CORTE
 10
1881.673217233131
 20
2561.7073546686
 30
0.0
  0
VERTEX
  5
3D6
  8
CORTE_LASER$CORTE
 10
1881.640565699045
 20
2561.80444985247
 30
0.0
  0
VERTEX
  5
3D7
  8
CORTE_LASER$CORTE
 10
1881.611248137444
 20
2561.902603191642
 30
0.0
  0
VERTEX
  5
3D8
  8
CORTE_LASER$CORTE
 10
1881.585298731294
 20
2562.001700243714
 30
0.0
  0
VERTEX
  5
3D9
  8
CORTE_LASER$CORTE
 10
1881.562747736441
 20
2562.101625465955
 30
0.0
  0
VERTEX
  5
3DA
  8
CORTE_LASER$CORTE
 10
1881.543621446336
 20
2562.202262350027
 30
0.0
  0
VERTEX
  5
3DB
  8
CORTE_LASER$CORTE
 10
1881.527942161378
 20
2562.303493557824
 30
0.0
  0
VERTEX
  5
3DC
  8
CORTE_LASER$CORTE
 10
1881.515728162913
 20
2562.405201058287
 30
0.0
  0
VERTEX
  5
3DD
  8
CORTE_LASER$CORTE
 10
1881.506993691916
 20
2562.507266265019
 30
0.0
  0
VERTEX
  5
3DE
  8
CORTE_LASER$CORTE
 10
1881.501748932389
 20
2562.609570174555
 30
0.0
  0
SEQEND
  5
3DF
  8
CORTE_LASER$CORTE
  0
CIRCLE
  5
3E0
  8
CORTE_LASER$CORTE
 10
1884.499999999487
 20
2562.711993505113
 30
0.0
 40
1.75
  0
CIRCLE
  5
3E1
  8
CORTE_LASER$CORTE
 10
1835.499999999487
 20
2504.711993505113
 30
0.0
 40
1.75
  0
CIRCLE
  5
3E2
  8
CORTE_LASER$CORTE
 10
1884.499999999487
 20
2504.711993505113
 30
0.0
 40
1.75
  0
POLYLINE
  5
3E3
  8
CORTE_LASER$CORTE
 66
     1
 10
0.0
 20
0.0
 30
0.0
 70
     1
  0
VERTEX
  5
3E4
  8
CORTE_LASER$CORTE
 10
1883.003980554942
 20
2610.000000000001
 30
0.0
  0
VERTEX
  5
3E5
  8
CORTE_LASER$CORTE
 10
1949.003980554942
 20
2610.0
 30
0.0
  0
VERTEX
  5
3E6
  8
CORTE_LASER$CORTE
 10
1949.003980554942
 20
2576.211993505113
 30
0.0
  0
VERTEX
  5
3E7
  8
CORTE_LASER$CORTE
 10
1949.003241474022
 20
2576.145405673829
 30
0.0
  0
VERTEX
  5
3E8
  8
CORTE_LASER$CORTE
 10
1949.000997975058
 20
2576.078252772667
 30
0.0
  0
VERTEX
  5
3E9
  8
CORTE_LASER$CORTE
 10
1948.997211603709
 20
2576.010578786945
 30
0.0
  0
VERTEX
  5
3EA
  8
CORTE_LASER$CORTE
 10
1948.99184528078
 20
2575.94243019142
 30
0.0
  0
VERTEX
  5
3EB
  8
CORTE_LASER$CORTE
 10
1948.984863473528
 20
2575.873855921162
 30
0.0
  0
VERTEX
  5
3EC
  8
CORTE_LASER$CORTE
 10
1948.976232368947
 20
2575.804907329782
 30
0.0
  0
VERTEX
  5
3ED
  8
CORTE_LASER$CORTE
 10
1948.965920048065
 20
2575.735638134538
 30
0.0
  0
VERTEX
  5
3EE
  8
CORTE_LASER$CORTE
 10
1948.953896660192
 20
2575.666104347877
 30
0.0
  0
VERTEX
  5
3EF
  8
CORTE_LASER$CORTE
 10
1948.94013459597
 20
2575.596364195096
 30
0.0
  0
VERTEX
  5
3F0
  8
CORTE_LASER$CORTE
 10
1948.92460865807
 20
2575.526478017894
 30
0.0
  0
VERTEX
  5
3F1
  8
CORTE_LASER$CORTE
 10
1948.907296228248
 20
2575.456508163668
 30
0.0
  0
VERTEX
  5
3F2
  8
CORTE_LASER$CORTE
 10
1948.888177429503
 20
2575.386518860577
 30
0.0
  0
VERTEX
  5
3F3
  8
CORTE_LASER$CORTE
 10
1948.867235282009
 20
2575.316576078475
 30
0.0
  0
VERTEX
  5
3F4
  8
CORTE_LASER$CORTE
 10
1948.844455851467
 20
2575.246747375967
 30
0.0
  0
VERTEX
  5
3F5
  8
CORTE_LASER$CORTE
 10
1948.819828388554
 20
2575.177101733989
 30
0.0
  0
VERTEX
  5
3F6
  8
CORTE_LASER$CORTE
 10
1948.79334545813
 20
2575.107709376428
 30
0.0
  0
VERTEX
  5
3F7
  8
CORTE_LASER$CORTE
 10
1948.765003056888
 20
2575.038641578474
 30
0.0
  0
VERTEX
  5
3F8
  8
CORTE_LASER$CORTE
 10
1948.734800718212
 20
2574.969970463509
 30
0.0
  0
VERTEX
  5
3F9
  8
CORTE_LASER$CORTE
 10
1948.702741603011
 20
2574.901768789492
 30
0.0
  0
VERTEX
  5
3FA
  8
CORTE_LASER$CORTE
 10
1948.668832575431
 20
2574.834109725945
 30
0.0
  0
VERTEX
  5
3FB
  8
CORTE_LASER$CORTE
 10
1948.633084262416
 20
2574.767066622759
 30
0.0
  0
VERTEX
  5
3FC
  8
CORTE_LASER$CORTE
 10
1948.595511096185
 20
2574.700712772155
 30
0.0
  0
VERTEX
  5
3FD
  8
CORTE_LASER$CORTE
 10
1948.556131338863
 20
2574.63512116528
 30
0.0
  0
VERTEX
  5
3FE
  8
CORTE_LASER$CORTE
 10
1948.514967088598
 20
2574.570364244957
 30
0.0
  0
VERTEX
  5
3FF
  8
CORTE_LASER$CORTE
 10
1948.472044266668
 20
2574.506513656255
 30
0.0
  0
VERTEX
  5
400
  8
CORTE_LASER$CORTE
 10
1948.427392585269
 20
2574.443639996544
 30
0.0
  0
VERTEX
  5
401
  8
CORTE_LASER$CORTE
 10
1948.381045495796
 20
2574.381812566801
 30
0.0
  0
VERTEX
  5
402
  8
CORTE_LASER$CORTE
 10
1948.333040117667
 20
2574.321099125916
 30
0.0
  0
VERTEX
  5
403
  8
CORTE_LASER$CORTE
 10
1948.283417147866
 20
2574.261565649785
 30
0.0
  0
VERTEX
  5
404
  8
CORTE_LASER$CORTE
 10
1948.232220751619
 20
2574.203276096937
 30
0.0
  0
VERTEX
  5
405
  8
CORTE_LASER$CORTE
 10
1948.179498434755
 20
2574.146292182411
 30
0.0
  0
VERTEX
  5
406
  8
CORTE_LASER$CORTE
 10
1948.125300898502
 20
2574.090673161553
 30
0.0
  0
VERTEX
  5
407
  8
CORTE_LASER$CORTE
 10
1948.069681877644
 20
2574.0364756253
 30
0.0
  0
VERTEX
  5
408
  8
CORTE_LASER$CORTE
 10
1948.012697963119
 20
2573.983753308436
 30
0.0
  0
VERTEX
  5
409
  8
CORTE_LASER$CORTE
 10
1947.954408410271
 20
2573.93255691219
 30
0.0
  0
VERTEX
  5
40A
  8
CORTE_LASER$CORTE
 10
1947.89487493414
 20
2573.882933942389
 30
0.0
  0
VERTEX
  5
40B
  8
CORTE_LASER$CORTE
 10
1947.834161493254
 20
2573.834928564259
 30
0.0
  0
VERTEX
  5
40C
  8
CORTE_LASER$CORTE
 10
1947.77233406351
 20
2573.788581474786
 30
0.0
  0
VERTEX
  5
40D
  8
CORTE_LASER$CORTE
 10
1947.7094604038
 20
2573.743929793386
 30
0.0
  0
VERTEX
  5
40E
  8
CORTE_LASER$CORTE
 10
1947.645609815097
 20
2573.701006971457
 30
0.0
  0
VERTEX
  5
40F
  8
CORTE_LASER$CORTE
 10
1947.580852894775
 20
2573.659842721192
 30
0.0
  0
VERTEX
  5
410
  8
CORTE_LASER$CORTE
 10
1947.5152612879
 20
2573.620462963871
 30
0.0
  0
VERTEX
  5
411
  8
CORTE_LASER$CORTE
 10
1947.448907437297
 20
2573.58288979764
 30
0.0
  0
VERTEX
  5
412
  8
CORTE_LASER$CORTE
 10
1947.38186433411
 20
2573.547141484624
 30
0.0
  0
VERTEX
  5
413
  8
CORTE_LASER$CORTE
 10
1947.314205270564
 20
2573.513232457045
 30
0.0
  0
VERTEX
  5
414
  8
CORTE_LASER$CORTE
 10
1947.246003596547
 20
2573.481173341843
 30
0.0
  0
VERTEX
  5
415
  8
CORTE_LASER$CORTE
 10
1947.177332481581
 20
2573.450971003167
 30
0.0
  0
VERTEX
  5
416
  8
CORTE_LASER$CORTE
 10
1947.108264683628
 20
2573.422628601926
 30
0.0
  0
VERTEX
  5
417
  8
CORTE_LASER$CORTE
 10
1947.038872326066
 20
2573.396145671501
 30
0.0
  0
VERTEX
  5
418
  8
CORTE_LASER$CORTE
 10
1946.969226684088
 20
2573.371518208588
 30
0.0
  0
VERTEX
  5
419
  8
CORTE_LASER$CORTE
 10
1946.89939798158
 20
2573.348738778046
 30
0.0
  0
VERTEX
  5
41A
  8
CORTE_LASER$CORTE
 10
1946.829455199478
 20
2573.327796630552
 30
0.0
  0
VERTEX
  5
41B
  8
CORTE_LASER$CORTE
 10
1946.759465896388
 20
2573.308677831808
 30
0.0
  0
VERTEX
  5
41C
  8
CORTE_LASER$CORTE
 10
1946.689496042161
 20
2573.291365401985
 30
0.0
  0
VERTEX
  5
41D
  8
CORTE_LASER$CORTE
 10
1946.619609864958
 20
2573.275839464085
 30
0.0
  0
VERTEX
  5
41E
  8
CORTE_LASER$CORTE
 10
1946.549869712178
 20
2573.262077399863
 30
0.0
  0
VERTEX
  5
41F
  8
CORTE_LASER$CORTE
 10
1946.480335925517
 20
2573.250054011989
 30
0.0
  0
VERTEX
  5
420
  8
CORTE_LASER$CORTE
 10
1946.411066730273
 20
2573.239741691108
 30
0.0
  0
VERTEX
  5
421
  8
CORTE_LASER$CORTE
 10
1946.342118138893
 20
2573.231110586527
 30
0.0
  0
VERTEX
  5
422
  8
CORTE_LASER$CORTE
 10
1946.273543868635
 20
2573.224128779274
 30
0.0
  0
VERTEX
  5
423
  8
CORTE_LASER$CORTE
 10
1946.20539527311
 20
2573.218762456346
 30
0.0
  0
VERTEX
  5
424
  8
CORTE_LASER$CORTE
 10
1946.137721287387
 20
2573.214976084996
 30
0.0
  0
VERTEX
  5
425
  8
CORTE_LASER$CORTE
 10
1946.070568386227
 20
2573.212732586033
 30
0.0
  0
VERTEX
  5
426
  8
CORTE_LASER$CORTE
 10
1946.003980554942
 20
2573.211993505113
 30
0.0
  0
VERTEX
  5
427
  8
CORTE_LASER$CORTE
 10
1886.003980554942
 20
2573.211993505113
 30
0.0
  0
VERTEX
  5
428
  8
CORTE_LASER$CORTE
 10
1885.937392723657
 20
2573.212732586033
 30
0.0
  0
VERTEX
  5
429
  8
CORTE_LASER$CORTE
 10
1885.870239822495
 20
2573.214976084996
 30
0.0
  0
VERTEX
  5
42A
  8
CORTE_LASER$CORTE
 10
1885.802565836774
 20
2573.218762456346
 30
0.0
  0
VERTEX
  5
42B
  8
CORTE_LASER$CORTE
 10
1885.734417241248
 20
2573.224128779274
 30
0.0
  0
VERTEX
  5
42C
  8
CORTE_LASER$CORTE
 10
1885.66584297099
 20
2573.231110586527
 30
0.0
  0
VERTEX
  5
42D
  8
CORTE_LASER$CORTE
 10
1885.596894379611
 20
2573.239741691108
 30
0.0
  0
VERTEX
  5
42E
  8
CORTE_LASER$CORTE
 10
1885.527625184367
 20
2573.250054011989
 30
0.0
  0
VERTEX
  5
42F
  8
CORTE_LASER$CORTE
 10
1885.458091397705
 20
2573.262077399863
 30
0.0
  0
VERTEX
  5
430
  8
CORTE_LASER$CORTE
 10
1885.388351244925
 20
2573.275839464085
 30
0.0
  0
VERTEX
  5
431
  8
CORTE_LASER$CORTE
 10
1885.318465067723
 20
2573.291365401985
 30
0.0
  0
VERTEX
  5
432
  8
CORTE_LASER$CORTE
 10
1885.248495213496
 20
2573.308677831808
 30
0.0
  0
VERTEX
  5
433
  8
CORTE_LASER$CORTE
 10
1885.178505910406
 20
2573.327796630552
 30
0.0
  0
VERTEX
  5
434
  8
CORTE_LASER$CORTE
 10
1885.108563128304
 20
2573.348738778046
 30
0.0
  0
VERTEX
  5
435
  8
CORTE_LASER$CORTE
 10
1885.038734425796
 20
2573.371518208588
 30
0.0
  0
VERTEX
  5
436
  8
CORTE_LASER$CORTE
 10
1884.969088783817
 20
2573.396145671501
 30
0.0
  0
VERTEX
  5
437
  8
CORTE_LASER$CORTE
 10
1884.899696426256
 20
2573.422628601926
 30
0.0
  0
VERTEX
  5
438
  8
CORTE_LASER$CORTE
 10
1884.830628628303
 20
2573.450971003167
 30
0.0
  0
VERTEX
  5
439
  8
CORTE_LASER$CORTE
 10
1884.761957513337
 20
2573.481173341843
 30
0.0
  0
VERTEX
  5
43A
  8
CORTE_LASER$CORTE
 10
1884.69375583932
 20
2573.513232457045
 30
0.0
  0
VERTEX
  5
43B
  8
CORTE_LASER$CORTE
 10
1884.626096775774
 20
2573.547141484625
 30
0.0
  0
VERTEX
  5
43C
  8
CORTE_LASER$CORTE
 10
1884.559053672588
 20
2573.582889797641
 30
0.0
  0
VERTEX
  5
43D
  8
CORTE_LASER$CORTE
 10
1884.492699821984
 20
2573.620462963871
 30
0.0
  0
VERTEX
  5
43E
  8
CORTE_LASER$CORTE
 10
1884.427108215109
 20
2573.659842721193
 30
0.0
  0
VERTEX
  5
43F
  8
CORTE_LASER$CORTE
 10
1884.362351294786
 20
2573.701006971457
 30
0.0
  0
VERTEX
  5
440
  8
CORTE_LASER$CORTE
 10
1884.298500706084
 20
2573.743929793387
 30
0.0
  0
VERTEX
  5
441
  8
CORTE_LASER$CORTE
 10
1884.235627046373
 20
2573.788581474787
 30
0.0
  0
VERTEX
  5
442
  8
CORTE_LASER$CORTE
 10
1884.17379961663
 20
2573.83492856426
 30
0.0
  0
VERTEX
  5
443
  8
CORTE_LASER$CORTE
 10
1884.113086175744
 20
2573.88293394239
 30
0.0
  0
VERTEX
  5
444
  8
CORTE_LASER$CORTE
 10
1884.053552699614
 20
2573.932556912191
 30
0.0
  0
VERTEX
  5
445
  8
CORTE_LASER$CORTE
 10
1883.995263146766
 20
2573.983753308437
 30
0.0
  0
VERTEX
  5
446
  8
CORTE_LASER$CORTE
 10
1883.93827923224
 20
2574.036475625301
 30
0.0
  0
VERTEX
  5
447
  8
CORTE_LASER$CORTE
 10
1883.882660211382
 20
2574.090673161554
 30
0.0
  0
VERTEX
  5
448
  8
CORTE_LASER$CORTE
 10
1883.828462675129
 20
2574.146292182412
 30
0.0
  0
VERTEX
  5
449
  8
CORTE_LASER$CORTE
 10
1883.775740358265
 20
2574.203276096938
 30
0.0
  0
VERTEX
  5
44A
  8
CORTE_LASER$CORTE
 10
1883.724543962019
 20
2574.261565649786
 30
0.0
  0
VERTEX
  5
44B
  8
CORTE_LASER$CORTE
 10
1883.674920992218
 20
2574.321099125917
 30
0.0
  0
VERTEX
  5
44C
  8
CORTE_LASER$CORTE
 10
1883.626915614088
 20
2574.381812566802
 30
0.0
  0
VERTEX
  5
44D
  8
CORTE_LASER$CORTE
 10
1883.580568524615
 20
2574.443639996545
 30
0.0
  0
VERTEX
  5
44E
  8
CORTE_LASER$CORTE
 10
1883.535916843215
 20
2574.506513656256
 30
0.0
  0
VERTEX
  5
44F
  8
CORTE_LASER$CORTE
 10
1883.492994021286
 20
2574.570364244958
 30
0.0
  0
VERTEX
  5
450
  8
CORTE_LASER$CORTE
 10
1883.451829771021
 20
2574.635121165281
 30
0.0
  0
VERTEX
  5
451
  8
CORTE_LASER$CORTE
 10
1883.4124500137
 20
2574.700712772156
 30
0.0
  0
VERTEX
  5
452
  8
CORTE_LASER$CORTE
 10
1883.374876847469
 20
2574.76706662276
 30
0.0
  0
VERTEX
  5
453
  8
CORTE_LASER$CORTE
 10
1883.339128534453
 20
2574.834109725946
 30
0.0
  0
VERTEX
  5
454
  8
CORTE_LASER$CORTE
 10
1883.305219506873
 20
2574.901768789492
 30
0.0
  0
VERTEX
  5
455
  8
CORTE_LASER$CORTE
 10
1883.273160391672
 20
2574.969970463509
 30
0.0
  0
VERTEX
  5
456
  8
CORTE_LASER$CORTE
 10
1883.242958052996
 20
2575.038641578474
 30
0.0
  0
VERTEX
  5
457
  8
CORTE_LASER$CORTE
 10
1883.214615651755
 20
2575.107709376428
 30
0.0
  0
VERTEX
  5
458
  8
CORTE_LASER$CORTE
 10
1883.188132721329
 20
2575.177101733989
 30
0.0
  0
VERTEX
  5
459
  8
CORTE_LASER$CORTE
 10
1883.163505258417
 20
2575.246747375967
 30
0.0
  0
VERTEX
  5
45A
  8
CORTE_LASER$CORTE
 10
1883.140725827875
 20
2575.316576078475
 30
0.0
  0
VERTEX
  5
45B
  8
CORTE_LASER$CORTE
 10
1883.119783680381
 20
2575.386518860577
 30
0.0
  0
VERTEX
  5
45C
  8
CORTE_LASER$CORTE
 10
1883.100664881637
 20
2575.456508163668
 30
0.0
  0
VERTEX
  5
45D
  8
CORTE_LASER$CORTE
 10
1883.083352451814
 20
2575.526478017894
 30
0.0
  0
VERTEX
  5
45E
  8
CORTE_LASER$CORTE
 10
1883.067826513913
 20
2575.596364195096
 30
0.0
  0
VERTEX
  5
45F
  8
CORTE_LASER$CORTE
 10
1883.054064449692
 20
2575.666104347877
 30
0.0
  0
VERTEX
  5
460
  8
CORTE_LASER$CORTE
 10
1883.042041061818
 20
2575.735638134538
 30
0.0
  0
VERTEX
  5
461
  8
CORTE_LASER$CORTE
 10
1883.031728740937
 20
2575.804907329782
 30
0.0
  0
VERTEX
  5
462
  8
CORTE_LASER$CORTE
 10
1883.023097636355
 20
2575.873855921162
 30
0.0
  0
VERTEX
  5
463
  8
CORTE_LASER$CORTE
 10
1883.016115829103
 20
2575.94243019142
 30
0.0
  0
VERTEX
  5
464
  8
CORTE_LASER$CORTE
 10
1883.010749506175
 20
2576.010578786945
 30
0.0
  0
VERTEX
  5
465
  8
CORTE_LASER$CORTE
 10
1883.006963134824
 20
2576.078252772667
 30
0.0
  0
VERTEX
  5
466
  8
CORTE_LASER$CORTE
 10
1883.004719635861
 20
2576.145405673829
 30
0.0
  0
VERTEX
  5
467
  8
CORTE_LASER$CORTE
 10
1883.003980554942
 20
2576.211993505113
 30
0.0
  0
SEQEND
  5
468
  8
CORTE_LASER$CORTE
  0
CIRCLE
  5
469
  8
CORTE_LASER$CORTE
 10
1891.499999999487
 20
2601.711993505113
 30
0.0
 40
1.75
  0
CIRCLE
  5
46A
  8
CORTE_LASER$CORTE
 10
1940.499999999487
 20
2601.711993505113
 30
0.0
 40
1.75
  0
POLYLINE
  5
46B
  8
CORTE_LASER$CORTE
 66
     1
 10
0.0
 20
0.0
 30
0.0
 70
     1
  0
VERTEX
  5
46C
  8
CORTE_LASER$CORTE
 10
1881.003980554942
 20
2612.273346323107
 30
0.0
  0
VERTEX
  5
46D
  8
CORTE_LASER$CORTE
 10
1947.003980554942
 20
2612.273346323108
 30
0.0
  0
VERTEX
  5
46E
  8
CORTE_LASER$CORTE
 10
1947.003980554942
 20
2619.711993505113
 30
0.0
  0
VERTEX
  5
46F
  8
CORTE_LASER$CORTE
 10
1947.003241474023
 20
2619.778581336398
 30
0.0
  0
VERTEX
  5
470
  8
CORTE_LASER$CORTE
 10
1947.000997975058
 20
2619.845734237559
 30
0.0
  0
VERTEX
  5
471
  8
CORTE_LASER$CORTE
 10
1946.997211603709
 20
2619.913408223281
 30
0.0
  0
VERTEX
  5
472
  8
CORTE_LASER$CORTE
 10
1946.99184528078
 20
2619.981556818806
 30
0.0
  0
VERTEX
  5
473
  8
CORTE_LASER$CORTE
 10
1946.984863473528
 20
2620.050131089064
 30
0.0
  0
VERTEX
  5
474
  8
CORTE_LASER$CORTE
 10
1946.976232368946
 20
2620.119079680444
 30
0.0
  0
VERTEX
  5
475
  8
CORTE_LASER$CORTE
 10
1946.965920048065
 20
2620.188348875688
 30
0.0
  0
VERTEX
  5
476
  8
CORTE_LASER$CORTE
 10
1946.953896660192
 20
2620.25788266235
 30
0.0
  0
VERTEX
  5
477
  8
CORTE_LASER$CORTE
 10
1946.94013459597
 20
2620.32762281513
 30
0.0
  0
VERTEX
  5
478
  8
CORTE_LASER$CORTE
 10
1946.92460865807
 20
2620.397508992333
 30
0.0
  0
VERTEX
  5
479
  8
CORTE_LASER$CORTE
 10
1946.907296228247
 20
2620.467478846559
 30
0.0
  0
VERTEX
  5
47A
  8
CORTE_LASER$CORTE
 10
1946.888177429503
 20
2620.537468149649
 30
0.0
  0
VERTEX
  5
47B
  8
CORTE_LASER$CORTE
 10
1946.867235282009
 20
2620.607410931751
 30
0.0
  0
VERTEX
  5
47C
  8
CORTE_LASER$CORTE
 10
1946.844455851467
 20
2620.677239634259
 30
0.0
  0
VERTEX
  5
47D
  8
CORTE_LASER$CORTE
 10
1946.819828388554
 20
2620.746885276237
 30
0.0
  0
VERTEX
  5
47E
  8
CORTE_LASER$CORTE
 10
1946.793345458129
 20
2620.816277633799
 30
0.0
  0
VERTEX
  5
47F
  8
CORTE_LASER$CORTE
 10
1946.765003056888
 20
2620.885345431752
 30
0.0
  0
VERTEX
  5
480
  8
CORTE_LASER$CORTE
 10
1946.734800718212
 20
2620.954016546718
 30
0.0
  0
VERTEX
  5
481
  8
CORTE_LASER$CORTE
 10
1946.702741603011
 20
2621.022218220735
 30
0.0
  0
VERTEX
  5
482
  8
CORTE_LASER$CORTE
 10
1946.668832575431
 20
2621.089877284281
 30
0.0
  0
VERTEX
  5
483
  8
CORTE_LASER$CORTE
 10
1946.633084262416
 20
2621.156920387468
 30
0.0
  0
VERTEX
  5
484
  8
CORTE_LASER$CORTE
 10
1946.595511096184
 20
2621.223274238071
 30
0.0
  0
VERTEX
  5
485
  8
CORTE_LASER$CORTE
 10
1946.556131338863
 20
2621.288865844946
 30
0.0
  0
VERTEX
  5
486
  8
CORTE_LASER$CORTE
 10
1946.514967088597
 20
2621.353622765268
 30
0.0
  0
VERTEX
  5
487
  8
CORTE_LASER$CORTE
 10
1946.472044266668
 20
2621.41747335397
 30
0.0
  0
VERTEX
  5
488
  8
CORTE_LASER$CORTE
 10
1946.427392585269
 20
2621.480347013682
 30
0.0
  0
VERTEX
  5
489
  8
CORTE_LASER$CORTE
 10
1946.381045495796
 20
2621.542174443426
 30
0.0
  0
VERTEX
  5
48A
  8
CORTE_LASER$CORTE
 10
1946.333040117666
 20
2621.602887884311
 30
0.0
  0
VERTEX
  5
48B
  8
CORTE_LASER$CORTE
 10
1946.283417147865
 20
2621.662421360442
 30
0.0
  0
VERTEX
  5
48C
  8
CORTE_LASER$CORTE
 10
1946.232220751619
 20
2621.72071091329
 30
0.0
  0
VERTEX
  5
48D
  8
CORTE_LASER$CORTE
 10
1946.179498434755
 20
2621.777694827816
 30
0.0
  0
VERTEX
  5
48E
  8
CORTE_LASER$CORTE
 10
1946.125300898501
 20
2621.833313848673
 30
0.0
  0
VERTEX
  5
48F
  8
CORTE_LASER$CORTE
 10
1946.069681877644
 20
2621.887511384927
 30
0.0
  0
VERTEX
  5
490
  8
CORTE_LASER$CORTE
 10
1946.012697963119
 20
2621.940233701791
 30
0.0
  0
VERTEX
  5
491
  8
CORTE_LASER$CORTE
 10
1945.95440841027
 20
2621.991430098037
 30
0.0
  0
VERTEX
  5
492
  8
CORTE_LASER$CORTE
 10
1945.89487493414
 20
2622.041053067838
 30
0.0
  0
VERTEX
  5
493
  8
CORTE_LASER$CORTE
 10
1945.834161493254
 20
2622.089058445968
 30
0.0
  0
VERTEX
  5
494
  8
CORTE_LASER$CORTE
 10
1945.77233406351
 20
2622.13540553544
 30
0.0
  0
VERTEX
  5
495
  8
CORTE_LASER$CORTE
 10
1945.709460403799
 20
2622.180057216839
 30
0.0
  0
VERTEX
  5
496
  8
CORTE_LASER$CORTE
 10
1945.645609815097
 20
2622.222980038769
 30
0.0
  0
VERTEX
  5
497
  8
CORTE_LASER$CORTE
 10
1945.580852894775
 20
2622.264144289035
 30
0.0
  0
VERTEX
  5
498
  8
CORTE_LASER$CORTE
 10
1945.515261287899
 20
2622.303524046356
 30
0.0
  0
VERTEX
  5
499
  8
CORTE_LASER$CORTE
 10
1945.448907437297
 20
2622.341097212587
 30
0.0
  0
VERTEX
  5
49A
  8
CORTE_LASER$CORTE
 10
1945.38186433411
 20
2622.376845525602
 30
0.0
  0
VERTEX
  5
49B
  8
CORTE_LASER$CORTE
 10
1945.314205270564
 20
2622.410754553182
 30
0.0
  0
VERTEX
  5
49C
  8
CORTE_LASER$CORTE
 10
1945.246003596547
 20
2622.442813668384
 30
0.0
  0
VERTEX
  5
49D
  8
CORTE_LASER$CORTE
 10
1945.177332481581
 20
2622.473016007059
 30
0.0
  0
VERTEX
  5
49E
  8
CORTE_LASER$CORTE
 10
1945.108264683628
 20
2622.501358408301
 30
0.0
  0
VERTEX
  5
49F
  8
CORTE_LASER$CORTE
 10
1945.038872326066
 20
2622.527841338725
 30
0.0
  0
VERTEX
  5
4A0
  8
CORTE_LASER$CORTE
 10
1944.969226684088
 20
2622.552468801638
 30
0.0
  0
VERTEX
  5
4A1
  8
CORTE_LASER$CORTE
 10
1944.89939798158
 20
2622.57524823218
 30
0.0
  0
VERTEX
  5
4A2
  8
CORTE_LASER$CORTE
 10
1944.829455199478
 20
2622.596190379674
 30
0.0
  0
VERTEX
  5
4A3
  8
CORTE_LASER$CORTE
 10
1944.759465896387
 20
2622.615309178419
 30
0.0
  0
VERTEX
  5
4A4
  8
CORTE_LASER$CORTE
 10
1944.689496042161
 20
2622.632621608242
 30
0.0
  0
VERTEX
  5
4A5
  8
CORTE_LASER$CORTE
 10
1944.619609864958
 20
2622.648147546141
 30
0.0
  0
VERTEX
  5
4A6
  8
CORTE_LASER$CORTE
 10
1944.549869712178
 20
2622.661909610363
 30
0.0
  0
VERTEX
  5
4A7
  8
CORTE_LASER$CORTE
 10
1944.480335925516
 20
2622.673932998236
 30
0.0
  0
VERTEX
  5
4A8
  8
CORTE_LASER$CORTE
 10
1944.411066730273
 20
2622.684245319118
 30
0.0
  0
VERTEX
  5
4A9
  8
CORTE_LASER$CORTE
 10
1944.342118138893
 20
2622.692876423699
 30
0.0
  0
VERTEX
  5
4AA
  8
CORTE_LASER$CORTE
 10
1944.273543868635
 20
2622.699858230952
 30
0.0
  0
VERTEX
  5
4AB
  8
CORTE_LASER$CORTE
 10
1944.20539527311
 20
2622.705224553881
 30
0.0
  0
VERTEX
  5
4AC
  8
CORTE_LASER$CORTE
 10
1944.137721287387
 20
2622.70901092523
 30
0.0
  0
VERTEX
  5
4AD
  8
CORTE_LASER$CORTE
 10
1944.070568386227
 20
2622.711254424194
 30
0.0
  0
VERTEX
  5
4AE
  8
CORTE_LASER$CORTE
 10
1944.003980554942
 20
2622.711993505113
 30
0.0
  0
VERTEX
  5
4AF
  8
CORTE_LASER$CORTE
 10
1884.003980554942
 20
2622.711993505113
 30
0.0
  0
VERTEX
  5
4B0
  8
CORTE_LASER$CORTE
 10
1883.937392723657
 20
2622.711254424194
 30
0.0
  0
VERTEX
  5
4B1
  8
CORTE_LASER$CORTE
 10
1883.870239822495
 20
2622.70901092523
 30
0.0
  0
VERTEX
  5
4B2
  8
CORTE_LASER$CORTE
 10
1883.802565836774
 20
2622.705224553881
 30
0.0
  0
VERTEX
  5
4B3
  8
CORTE_LASER$CORTE
 10
1883.734417241248
 20
2622.699858230952
 30
0.0
  0
VERTEX
  5
4B4
  8
CORTE_LASER$CORTE
 10
1883.66584297099
 20
2622.692876423699
 30
0.0
  0
VERTEX
  5
4B5
  8
CORTE_LASER$CORTE
 10
1883.596894379611
 20
2622.684245319118
 30
0.0
  0
VERTEX
  5
4B6
  8
CORTE_LASER$CORTE
 10
1883.527625184367
 20
2622.673932998236
 30
0.0
  0
VERTEX
  5
4B7
  8
CORTE_LASER$CORTE
 10
1883.458091397705
 20
2622.661909610363
 30
0.0
  0
VERTEX
  5
4B8
  8
CORTE_LASER$CORTE
 10
1883.388351244925
 20
2622.648147546141
 30
0.0
  0
VERTEX
  5
4B9
  8
CORTE_LASER$CORTE
 10
1883.318465067723
 20
2622.632621608242
 30
0.0
  0
VERTEX
  5
4BA
  8
CORTE_LASER$CORTE
 10
1883.248495213497
 20
2622.615309178419
 30
0.0
  0
VERTEX
  5
4BB
  8
CORTE_LASER$CORTE
 10
1883.178505910406
 20
2622.596190379674
 30
0.0
  0
VERTEX
  5
4BC
  8
CORTE_LASER$CORTE
 10
1883.108563128304
 20
2622.57524823218
 30
0.0
  0
VERTEX
  5
4BD
  8
CORTE_LASER$CORTE
 10
1883.038734425796
 20
2622.552468801638
 30
0.0
  0
VERTEX
  5
4BE
  8
CORTE_LASER$CORTE
 10
1882.969088783818
 20
2622.527841338725
 30
0.0
  0
VERTEX
  5
4BF
  8
CORTE_LASER$CORTE
 10
1882.899696426257
 20
2622.501358408301
 30
0.0
  0
VERTEX
  5
4C0
  8
CORTE_LASER$CORTE
 10
1882.830628628303
 20
2622.473016007059
 30
0.0
  0
VERTEX
  5
4C1
  8
CORTE_LASER$CORTE
 10
1882.761957513338
 20
2622.442813668384
 30
0.0
  0
VERTEX
  5
4C2
  8
CORTE_LASER$CORTE
 10
1882.693755839321
 20
2622.410754553182
 30
0.0
  0
VERTEX
  5
4C3
  8
CORTE_LASER$CORTE
 10
1882.626096775774
 20
2622.376845525602
 30
0.0
  0
VERTEX
  5
4C4
  8
CORTE_LASER$CORTE
 10
1882.559053672588
 20
2622.341097212587
 30
0.0
  0
VERTEX
  5
4C5
  8
CORTE_LASER$CORTE
 10
1882.492699821985
 20
2622.303524046356
 30
0.0
  0
VERTEX
  5
4C6
  8
CORTE_LASER$CORTE
 10
1882.427108215109
 20
2622.264144289035
 30
0.0
  0
VERTEX
  5
4C7
  8
CORTE_LASER$CORTE
 10
1882.362351294786
 20
2622.222980038769
 30
0.0
  0
VERTEX
  5
4C8
  8
CORTE_LASER$CORTE
 10
1882.298500706084
 20
2622.180057216839
 30
0.0
  0
VERTEX
  5
4C9
  8
CORTE_LASER$CORTE
 10
1882.235627046374
 20
2622.13540553544
 30
0.0
  0
VERTEX
  5
4CA
  8
CORTE_LASER$CORTE
 10
1882.17379961663
 20
2622.089058445968
 30
0.0
  0
VERTEX
  5
4CB
  8
CORTE_LASER$CORTE
 10
1882.113086175744
 20
2622.041053067838
 30
0.0
  0
VERTEX
  5
4CC
  8
CORTE_LASER$CORTE
 10
1882.053552699614
 20
2621.991430098037
 30
0.0
  0
VERTEX
  5
4CD
  8
CORTE_LASER$CORTE
 10
1881.995263146766
 20
2621.940233701791
 30
0.0
  0
VERTEX
  5
4CE
  8
CORTE_LASER$CORTE
 10
1881.93827923224
 20
2621.887511384927
 30
0.0
  0
VERTEX
  5
4CF
  8
CORTE_LASER$CORTE
 10
1881.882660211382
 20
2621.833313848673
 30
0.0
  0
VERTEX
  5
4D0
  8
CORTE_LASER$CORTE
 10
1881.828462675129
 20
2621.777694827816
 30
0.0
  0
VERTEX
  5
4D1
  8
CORTE_LASER$CORTE
 10
1881.775740358265
 20
2621.72071091329
 30
0.0
  0
VERTEX
  5
4D2
  8
CORTE_LASER$CORTE
 10
1881.724543962019
 20
2621.662421360442
 30
0.0
  0
VERTEX
  5
4D3
  8
CORTE_LASER$CORTE
 10
1881.674920992218
 20
2621.602887884311
 30
0.0
  0
VERTEX
  5
4D4
  8
CORTE_LASER$CORTE
 10
1881.626915614088
 20
2621.542174443426
 30
0.0
  0
VERTEX
  5
4D5
  8
CORTE_LASER$CORTE
 10
1881.580568524615
 20
2621.480347013682
 30
0.0
  0
VERTEX
  5
4D6
  8
CORTE_LASER$CORTE
 10
1881.535916843216
 20
2621.41747335397
 30
0.0
  0
VERTEX
  5
4D7
  8
CORTE_LASER$CORTE
 10
1881.492994021286
 20
2621.353622765268
 30
0.0
  0
VERTEX
  5
4D8
  8
CORTE_LASER$CORTE
 10
1881.451829771021
 20
2621.288865844946
 30
0.0
  0
VERTEX
  5
4D9
  8
CORTE_LASER$CORTE
 10
1881.4124500137
 20
2621.223274238071
 30
0.0
  0
VERTEX
  5
4DA
  8
CORTE_LASER$CORTE
 10
1881.374876847469
 20
2621.156920387468
 30
0.0
  0
VERTEX
  5
4DB
  8
CORTE_LASER$CORTE
 10
1881.339128534453
 20
2621.089877284281
 30
0.0
  0
VERTEX
  5
4DC
  8
CORTE_LASER$CORTE
 10
1881.305219506874
 20
2621.022218220735
 30
0.0
  0
VERTEX
  5
4DD
  8
CORTE_LASER$CORTE
 10
1881.273160391672
 20
2620.954016546718
 30
0.0
  0
VERTEX
  5
4DE
  8
CORTE_LASER$CORTE
 10
1881.242958052996
 20
2620.885345431752
 30
0.0
  0
VERTEX
  5
4DF
  8
CORTE_LASER$CORTE
 10
1881.214615651755
 20
2620.816277633799
 30
0.0
  0
VERTEX
  5
4E0
  8
CORTE_LASER$CORTE
 10
1881.18813272133
 20
2620.746885276237
 30
0.0
  0
VERTEX
  5
4E1
  8
CORTE_LASER$CORTE
 10
1881.163505258417
 20
2620.677239634259
 30
0.0
  0
VERTEX
  5
4E2
  8
CORTE_LASER$CORTE
 10
1881.140725827875
 20
2620.607410931751
 30
0.0
  0
VERTEX
  5
4E3
  8
CORTE_LASER$CORTE
 10
1881.119783680381
 20
2620.537468149649
 30
0.0
  0
VERTEX
  5
4E4
  8
CORTE_LASER$CORTE
 10
1881.100664881637
 20
2620.467478846559
 30
0.0
  0
VERTEX
  5
4E5
  8
CORTE_LASER$CORTE
 10
1881.083352451814
 20
2620.397508992333
 30
0.0
  0
VERTEX
  5
4E6
  8
CORTE_LASER$CORTE
 10
1881.067826513914
 20
2620.32762281513
 30
0.0
  0
VERTEX
  5
4E7
  8
CORTE_LASER$CORTE
 10
1881.054064449692
 20
2620.25788266235
 30
0.0
  0
VERTEX
  5
4E8
  8
CORTE_LASER$CORTE
 10
1881.042041061818
 20
2620.188348875688
 30
0.0
  0
VERTEX
  5
4E9
  8
CORTE_LASER$CORTE
 10
1881.031728740937
 20
2620.119079680444
 30
0.0
  0
VERTEX
  5
4EA
  8
CORTE_LASER$CORTE
 10
1881.023097636355
 20
2620.050131089064
 30
0.0
  0
VERTEX
  5
4EB
  8
CORTE_LASER$CORTE
 10
1881.016115829103
 20
2619.981556818806
 30
0.0
  0
VERTEX
  5
4EC
  8
CORTE_LASER$CORTE
 10
1881.010749506175
 20
2619.913408223281
 30
0.0
  0
VERTEX
  5
4ED
  8
CORTE_LASER$CORTE
 10
1881.006963134824
 20
2619.845734237559
 30
0.0
  0
VERTEX
  5
4EE
  8
CORTE_LASER$CORTE
 10
1881.004719635861
 20
2619.778581336398
 30
0.0
  0
VERTEX
  5
4EF
  8
CORTE_LASER$CORTE
 10
1881.003980554942
 20
2619.711993505113
 30
0.0
  0
SEQEND
  5
4F0
  8
CORTE_LASER$CORTE
  0
CIRCLE
  5
4F1
  8
CORTE_LASER$CORTE
 10
1938.499999999487
 20
2615.711993505113
 30
0.0
 40
1.75
  0
CIRCLE
  5
4F2
  8
CORTE_LASER$CORTE
 10
1889.499999999487
 20
2615.711993505113
 30
0.0
 40
1.75
  0
POLYLINE
  5
4F3
  8
CORTE_LASER$CORTE
 66
     1
 10
0.0
 20
0.0
 30
0.0
 70
     1
  0
VERTEX
  5
4F4
  8
CORTE_LASER$CORTE
 10
1866.499999999487
 20
2617.211993505113
 30
0.0
  0
VERTEX
  5
4F5
  8
CORTE_LASER$CORTE
 10
1866.499999999487
 20
2621.711993505113
 30
0.0
  0
VERTEX
  5
4F6
  8
CORTE_LASER$CORTE
 10
1866.501748932389
 20
2621.814416835671
 30
0.0
  0
VERTEX
  5
4F7
  8
CORTE_LASER$CORTE
 10
1866.506993691916
 20
2621.916720745207
 30
0.0
  0
VERTEX
  5
4F8
  8
CORTE_LASER$CORTE
 10
1866.515728162913
 20
2622.018785951939
 30
0.0
  0
VERTEX
  5
4F9
  8
CORTE_LASER$CORTE
 10
1866.527942161378
 20
2622.120493452402
 30
0.0
  0
VERTEX
  5
4FA
  8
CORTE_LASER$CORTE
 10
1866.543621446336
 20
2622.221724660199
 30
0.0
  0
VERTEX
  5
4FB
  8
CORTE_LASER$CORTE
 10
1866.562747736441
 20
2622.322361544271
 30
0.0
  0
VERTEX
  5
4FC
  8
CORTE_LASER$CORTE
 10
1866.585298731294
 20
2622.422286766513
 30
0.0
  0
VERTEX
  5
4FD
  8
CORTE_LASER$CORTE
 10
1866.611248137444
 20
2622.521383818584
 30
0.0
  0
VERTEX
  5
4FE
  8
CORTE_LASER$CORTE
 10
1866.640565699045
 20
2622.619537157756
 30
0.0
  0
VERTEX
  5
4FF
  8
CORTE_LASER$CORTE
 10
1866.673217233131
 20
2622.716632341626
 30
0.0
  0
VERTEX
  5
500
  8
CORTE_LASER$CORTE
 10
1866.709164669474
 20
2622.812556161552
 30
0.0
  0
VERTEX
  5
501
  8
CORTE_LASER$CORTE
 10
1866.748366094971
 20
2622.907196774652
 30
0.0
  0
VERTEX
  5
502
  8
CORTE_LASER$CORTE
 10
1866.790775802514
 20
2623.000443834203
 30
0.0
  0
VERTEX
  5
503
  8
CORTE_LASER$CORTE
 10
1866.83634434428
 20
2623.092188618307
 30
0.0
  0
VERTEX
  5
504
  8
CORTE_LASER$CORTE
 10
1866.885018589389
 20
2623.182324156647
 30
0.0
  0
VERTEX
  5
505
  8
CORTE_LASER$CORTE
 10
1866.936741785848
 20
2623.27074535522
 30
0.0
  0
VERTEX
  5
506
  8
CORTE_LASER$CORTE
 10
1866.991453626723
 20
2623.357349118861
 30
0.0
  0
VERTEX
  5
507
  8
CORTE_LASER$CORTE
 10
1867.049090320456
 20
2623.442034471458
 30
0.0
  0
VERTEX
  5
508
  8
CORTE_LASER$CORTE
 10
1867.10958466524
 20
2623.524702673677
 30
0.0
  0
VERTEX
  5
509
  8
CORTE_LASER$CORTE
 10
1867.172866127374
 20
2623.605257338092
 30
0.0
  0
VERTEX
  5
50A
  8
CORTE_LASER$CORTE
 10
1867.238860923505
 20
2623.683604541567
 30
0.0
  0
VERTEX
  5
50B
  8
CORTE_LASER$CORTE
 10
1867.307492106653
 20
2623.759652934769
 30
0.0
  0
VERTEX
  5
50C
  8
CORTE_LASER$CORTE
 10
1867.378679655928
 20
2623.833313848673
 30
0.0
  0
VERTEX
  5
50D
  8
CORTE_LASER$CORTE
 10
1867.452340569832
 20
2623.904501397948
 30
0.0
  0
VERTEX
  5
50E
  8
CORTE_LASER$CORTE
 10
1867.528388963034
 20
2623.973132581095
 30
0.0
  0
VERTEX
  5
50F
  8
CORTE_LASER$CORTE
 10
1867.606736166509
 20
2624.039127377227
 30
0.0
  0
VERTEX
  5
510
  8
CORTE_LASER$CORTE
 10
1867.687290830924
 20
2624.102408839361
 30
0.0
  0
VERTEX
  5
511
  8
CORTE_LASER$CORTE
 10
1867.769959033143
 20
2624.162903184144
 30
0.0
  0
VERTEX
  5
512
  8
CORTE_LASER$CORTE
 10
1867.85464438574
 20
2624.220539877877
 30
0.0
  0
VERTEX
  5
513
  8
CORTE_LASER$CORTE
 10
1867.941248149381
 20
2624.275251718753
 30
0.0
  0
VERTEX
  5
514
  8
CORTE_LASER$CORTE
 10
1868.029669347954
 20
2624.326974915211
 30
0.0
  0
VERTEX
  5
515
  8
CORTE_LASER$CORTE
 10
1868.119804886294
 20
2624.37564916032
 30
0.0
  0
VERTEX
  5
516
  8
CORTE_LASER$CORTE
 10
1868.211549670397
 20
2624.421217702087
 30
0.0
  0
VERTEX
  5
517
  8
CORTE_LASER$CORTE
 10
1868.304796729949
 20
2624.46362740963
 30
0.0
  0
VERTEX
  5
518
  8
CORTE_LASER$CORTE
 10
1868.399437343048
 20
2624.502828835127
 30
0.0
  0
VERTEX
  5
519
  8
CORTE_LASER$CORTE
 10
1868.495361162975
 20
2624.53877627147
 30
0.0
  0
VERTEX
  5
51A
  8
CORTE_LASER$CORTE
 10
1868.592456346844
 20
2624.571427805556
 30
0.0
  0
VERTEX
  5
51B
  8
CORTE_LASER$CORTE
 10
1868.690609686017
 20
2624.600745367157
 30
0.0
  0
VERTEX
  5
51C
  8
CORTE_LASER$CORTE
 10
1868.789706738088
 20
2624.626694773307
 30
0.0
  0
VERTEX
  5
51D
  8
CORTE_LASER$CORTE
 10
1868.88963196033
 20
2624.64924576816
 30
0.0
  0
VERTEX
  5
51E
  8
CORTE_LASER$CORTE
 10
1868.990268844401
 20
2624.668372058265
 30
0.0
  0
VERTEX
  5
51F
  8
CORTE_LASER$CORTE
 10
1869.091500052199
 20
2624.684051343222
 30
0.0
  0
VERTEX
  5
520
  8
CORTE_LASER$CORTE
 10
1869.193207552662
 20
2624.696265341688
 30
0.0
  0
VERTEX
  5
521
  8
CORTE_LASER$CORTE
 10
1869.295272759394
 20
2624.704999812685
 30
0.0
  0
VERTEX
  5
522
  8
CORTE_LASER$CORTE
 10
1869.39757666893
 20
2624.710244572212
 30
0.0
  0
VERTEX
  5
523
  8
CORTE_LASER$CORTE
 10
1869.499999999488
 20
2624.711993505113
 30
0.0
  0
VERTEX
  5
524
  8
CORTE_LASER$CORTE
 10
1875.003980554942
 20
2624.711993505113
 30
0.0
  0
VERTEX
  5
525
  8
CORTE_LASER$CORTE
 10
1875.1064038855
 20
2624.710244572212
 30
0.0
  0
VERTEX
  5
526
  8
CORTE_LASER$CORTE
 10
1875.208707795036
 20
2624.704999812685
 30
0.0
  0
VERTEX
  5
527
  8
CORTE_LASER$CORTE
 10
1875.310773001768
 20
2624.696265341687
 30
0.0
  0
VERTEX
  5
528
  8
CORTE_LASER$CORTE
 10
1875.41248050223
 20
2624.684051343222
 30
0.0
  0
VERTEX
  5
529
  8
CORTE_LASER$CORTE
 10
1875.513711710028
 20
2624.668372058265
 30
0.0
  0
VERTEX
  5
52A
  8
CORTE_LASER$CORTE
 10
1875.6143485941
 20
2624.64924576816
 30
0.0
  0
VERTEX
  5
52B
  8
CORTE_LASER$CORTE
 10
1875.714273816341
 20
2624.626694773307
 30
0.0
  0
VERTEX
  5
52C
  8
CORTE_LASER$CORTE
 10
1875.813370868413
 20
2624.600745367156
 30
0.0
  0
VERTEX
  5
52D
  8
CORTE_LASER$CORTE
 10
1875.911524207585
 20
2624.571427805556
 30
0.0
  0
VERTEX
  5
52E
  8
CORTE_LASER$CORTE
 10
1876.008619391455
 20
2624.538776271469
 30
0.0
  0
VERTEX
  5
52F
  8
CORTE_LASER$CORTE
 10
1876.104543211381
 20
2624.502828835127
 30
0.0
  0
VERTEX
  5
530
  8
CORTE_LASER$CORTE
 10
1876.199183824481
 20
2624.46362740963
 30
0.0
  0
VERTEX
  5
531
  8
CORTE_LASER$CORTE
 10
1876.292430884032
 20
2624.421217702087
 30
0.0
  0
VERTEX
  5
532
  8
CORTE_LASER$CORTE
 10
1876.384175668135
 20
2624.37564916032
 30
0.0
  0
VERTEX
  5
533
  8
CORTE_LASER$CORTE
 10
1876.474311206476
 20
2624.326974915211
 30
0.0
  0
VERTEX
  5
534
  8
CORTE_LASER$CORTE
 10
1876.562732405048
 20
2624.275251718753
 30
0.0
  0
VERTEX
  5
535
  8
CORTE_LASER$CORTE
 10
1876.64933616869
 20
2624.220539877877
 30
0.0
  0
VERTEX
  5
536
  8
CORTE_LASER$CORTE
 10
1876.734021521286
 20
2624.162903184144
 30
0.0
  0
VERTEX
  5
537
  8
CORTE_LASER$CORTE
 10
1876.816689723505
 20
2624.102408839361
 30
0.0
  0
VERTEX
  5
538
  8
CORTE_LASER$CORTE
 10
1876.89724438792
 20
2624.039127377226
 30
0.0
  0
VERTEX
  5
539
  8
CORTE_LASER$CORTE
 10
1876.975591591396
 20
2623.973132581095
 30
0.0
  0
VERTEX
  5
53A
  8
CORTE_LASER$CORTE
 10
1877.051639984598
 20
2623.904501397948
 30
0.0
  0
VERTEX
  5
53B
  8
CORTE_LASER$CORTE
 10
1877.125300898501
 20
2623.833313848673
 30
0.0
  0
VERTEX
  5
53C
  8
CORTE_LASER$CORTE
 10
1877.196488447776
 20
2623.759652934769
 30
0.0
  0
VERTEX
  5
53D
  8
CORTE_LASER$CORTE
 10
1877.265119630924
 20
2623.683604541567
 30
0.0
  0
VERTEX
  5
53E
  8
CORTE_LASER$CORTE
 10
1877.331114427055
 20
2623.605257338091
 30
0.0
  0
VERTEX
  5
53F
  8
CORTE_LASER$CORTE
 10
1877.39439588919
 20
2623.524702673677
 30
0.0
  0
VERTEX
  5
540
  8
CORTE_LASER$CORTE
 10
1877.454890233973
 20
2623.442034471458
 30
0.0
  0
VERTEX
  5
541
  8
CORTE_LASER$CORTE
 10
1877.512526927706
 20
2623.357349118861
 30
0.0
  0
VERTEX
  5
542
  8
CORTE_LASER$CORTE
 10
1877.567238768581
 20
2623.270745355219
 30
0.0
  0
VERTEX
  5
543
  8
CORTE_LASER$CORTE
 10
1877.61896196504
 20
2623.182324156647
 30
0.0
  0
VERTEX
  5
544
  8
CORTE_LASER$CORTE
 10
1877.667636210149
 20
2623.092188618306
 30
0.0
  0
VERTEX
  5
545
  8
CORTE_LASER$CORTE
 10
1877.713204751915
 20
2623.000443834203
 30
0.0
  0
VERTEX
  5
546
  8
CORTE_LASER$CORTE
 10
1877.755614459458
 20
2622.907196774652
 30
0.0
  0
VERTEX
  5
547
  8
CORTE_LASER$CORTE
 10
1877.794815884955
 20
2622.812556161552
 30
0.0
  0
VERTEX
  5
548
  8
CORTE_LASER$CORTE
 10
1877.830763321298
 20
2622.716632341626
 30
0.0
  0
VERTEX
  5
549
  8
CORTE_LASER$CORTE
 10
1877.863414855384
 20
2622.619537157756
 30
0.0
  0
VERTEX
  5
54A
  8
CORTE_LASER$CORTE
 10
1877.892732416985
 20
2622.521383818584
 30
0.0
  0
VERTEX
  5
54B
  8
CORTE_LASER$CORTE
 10
1877.918681823136
 20
2622.422286766513
 30
0.0
  0
VERTEX
  5
54C
  8
CORTE_LASER$CORTE
 10
1877.941232817989
 20
2622.322361544271
 30
0.0
  0
VERTEX
  5
54D
  8
CORTE_LASER$CORTE
 10
1877.960359108093
 20
2622.221724660199
 30
0.0
  0
VERTEX
  5
54E
  8
CORTE_LASER$CORTE
 10
1877.976038393051
 20
2622.120493452402
 30
0.0
  0
VERTEX
  5
54F
  8
CORTE_LASER$CORTE
 10
1877.988252391516
 20
2622.018785951939
 30
0.0
  0
VERTEX
  5
550
  8
CORTE_LASER$CORTE
 10
1877.996986862513
 20
2621.916720745207
 30
0.0
  0
VERTEX
  5
551
  8
CORTE_LASER$CORTE
 10
1878.00223162204
 20
2621.814416835671
 30
0.0
  0
VERTEX
  5
552
  8
CORTE_LASER$CORTE
 10
1878.003980554942
 20
2621.711993505113
 30
0.0
  0
VERTEX
  5
553
  8
CORTE_LASER$CORTE
 10
1878.003980554942
 20
2534.211993505113
 30
0.0
  0
VERTEX
  5
554
  8
CORTE_LASER$CORTE
 10
1878.00223162204
 20
2534.109570174555
 30
0.0
  0
VERTEX
  5
555
  8
CORTE_LASER$CORTE
 10
1877.996986862513
 20
2534.007266265019
 30
0.0
  0
VERTEX
  5
556
  8
CORTE_LASER$CORTE
 10
1877.988252391516
 20
2533.905201058287
 30
0.0
  0
VERTEX
  5
557
  8
CORTE_LASER$CORTE
 10
1877.976038393051
 20
2533.803493557824
 30
0.0
  0
VERTEX
  5
558
  8
CORTE_LASER$CORTE
 10
1877.960359108093
 20
2533.702262350027
 30
0.0
  0
VERTEX
  5
559
  8
CORTE_LASER$CORTE
 10
1877.941232817989
 20
2533.601625465955
 30
0.0
  0
VERTEX
  5
55A
  8
CORTE_LASER$CORTE
 10
1877.918681823136
 20
2533.501700243714
 30
0.0
  0
VERTEX
  5
55B
  8
CORTE_LASER$CORTE
 10
1877.892732416985
 20
2533.402603191642
 30
0.0
  0
VERTEX
  5
55C
  8
CORTE_LASER$CORTE
 10
1877.863414855384
 20
2533.30444985247
 30
0.0
  0
VERTEX
  5
55D
  8
CORTE_LASER$CORTE
 10
1877.830763321298
 20
2533.2073546686
 30
0.0
  0
VERTEX
  5
55E
  8
CORTE_LASER$CORTE
 10
1877.794815884955
 20
2533.111430848674
 30
0.0
  0
VERTEX
  5
55F
  8
CORTE_LASER$CORTE
 10
1877.755614459458
 20
2533.016790235575
 30
0.0
  0
VERTEX
  5
560
  8
CORTE_LASER$CORTE
 10
1877.713204751915
 20
2532.923543176023
 30
0.0
  0
VERTEX
  5
561
  8
CORTE_LASER$CORTE
 10
1877.667636210149
 20
2532.83179839192
 30
0.0
  0
VERTEX
  5
562
  8
CORTE_LASER$CORTE
 10
1877.61896196504
 20
2532.741662853579
 30
0.0
  0
VERTEX
  5
563
  8
CORTE_LASER$CORTE
 10
1877.567238768581
 20
2532.653241655007
 30
0.0
  0
VERTEX
  5
564
  8
CORTE_LASER$CORTE
 10
1877.512526927706
 20
2532.566637891365
 30
0.0
  0
VERTEX
  5
565
  8
CORTE_LASER$CORTE
 10
1877.454890233973
 20
2532.481952538769
 30
0.0
  0
VERTEX
  5
566
  8
CORTE_LASER$CORTE
 10
1877.39439588919
 20
2532.39928433655
 30
0.0
  0
VERTEX
  5
567
  8
CORTE_LASER$CORTE
 10
1877.331114427055
 20
2532.318729672135
 30
0.0
  0
VERTEX
  5
568
  8
CORTE_LASER$CORTE
 10
1877.265119630924
 20
2532.240382468659
 30
0.0
  0
VERTEX
  5
569
  8
CORTE_LASER$CORTE
 10
1877.196488447776
 20
2532.164334075457
 30
0.0
  0
VERTEX
  5
56A
  8
CORTE_LASER$CORTE
 10
1877.125300898501
 20
2532.090673161554
 30
0.0
  0
VERTEX
  5
56B
  8
CORTE_LASER$CORTE
 10
1877.051639984598
 20
2532.019485612279
 30
0.0
  0
VERTEX
  5
56C
  8
CORTE_LASER$CORTE
 10
1876.975591591396
 20
2531.950854429131
 30
0.0
  0
VERTEX
  5
56D
  8
CORTE_LASER$CORTE
 10
1876.89724438792
 20
2531.884859633
 30
0.0
  0
VERTEX
  5
56E
  8
CORTE_LASER$CORTE
 10
1876.816689723505
 20
2531.821578170865
 30
0.0
  0
VERTEX
  5
56F
  8
CORTE_LASER$CORTE
 10
1876.734021521286
 20
2531.761083826082
 30
0.0
  0
VERTEX
  5
570
  8
CORTE_LASER$CORTE
 10
1876.64933616869
 20
2531.703447132349
 30
0.0
  0
VERTEX
  5
571
  8
CORTE_LASER$CORTE
 10
1876.562732405048
 20
2531.648735291474
 30
0.0
  0
VERTEX
  5
572
  8
CORTE_LASER$CORTE
 10
1876.474311206476
 20
2531.597012095015
 30
0.0
  0
VERTEX
  5
573
  8
CORTE_LASER$CORTE
 10
1876.384175668135
 20
2531.548337849906
 30
0.0
  0
VERTEX
  5
574
  8
CORTE_LASER$CORTE
 10
1876.292430884032
 20
2531.50276930814
 30
0.0
  0
VERTEX
  5
575
  8
CORTE_LASER$CORTE
 10
1876.199183824481
 20
2531.460359600597
 30
0.0
  0
VERTEX
  5
576
  8
CORTE_LASER$CORTE
 10
1876.104543211381
 20
2531.4211581751
 30
0.0
  0
VERTEX
  5
577
  8
CORTE_LASER$CORTE
 10
1876.008619391455
 20
2531.385210738757
 30
0.0
  0
VERTEX
  5
578
  8
CORTE_LASER$CORTE
 10
1875.911524207585
 20
2531.352559204671
 30
0.0
  0
VERTEX
  5
579
  8
CORTE_LASER$CORTE
 10
1875.813370868413
 20
2531.32324164307
 30
0.0
  0
VERTEX
  5
57A
  8
CORTE_LASER$CORTE
 10
1875.714273816341
 20
2531.297292236919
 30
0.0
  0
VERTEX
  5
57B
  8
CORTE_LASER$CORTE
 10
1875.6143485941
 20
2531.274741242066
 30
0.0
  0
VERTEX
  5
57C
  8
CORTE_LASER$CORTE
 10
1875.513711710028
 20
2531.255614951961
 30
0.0
  0
VERTEX
  5
57D
  8
CORTE_LASER$CORTE
 10
1875.41248050223
 20
2531.239935667004
 30
0.0
  0
VERTEX
  5
57E
  8
CORTE_LASER$CORTE
 10
1875.310773001768
 20
2531.227721668539
 30
0.0
  0
VERTEX
  5
57F
  8
CORTE_LASER$CORTE
 10
1875.208707795036
 20
2531.218987197542
 30
0.0
  0
VERTEX
  5
580
  8
CORTE_LASER$CORTE
 10
1875.1064038855
 20
2531.213742438015
 30
0.0
  0
VERTEX
  5
581
  8
CORTE_LASER$CORTE
 10
1875.003980554942
 20
2531.211993505113
 30
0.0
  0
VERTEX
  5
582
  8
CORTE_LASER$CORTE
 10
1815.003980554942
 20
2531.211993505113
 30
0.0
  0
VERTEX
  5
583
  8
CORTE_LASER$CORTE
 10
1814.901557224384
 20
2531.213742438015
 30
0.0
  0
VERTEX
  5
584
  8
CORTE_LASER$CORTE
 10
1814.799253314848
 20
2531.218987197542
 30
0.0
  0
VERTEX
  5
585
  8
CORTE_LASER$CORTE
 10
1814.697188108116
 20
2531.227721668539
 30
0.0
  0
VERTEX
  5
586
  8
CORTE_LASER$CORTE
 10
1814.595480607653
 20
2531.239935667004
 30
0.0
  0
VERTEX
  5
587
  8
CORTE_LASER$CORTE
 10
1814.494249399856
 20
2531.255614951961
 30
0.0
  0
VERTEX
  5
588
  8
CORTE_LASER$CORTE
 10
1814.393612515784
 20
2531.274741242066
 30
0.0
  0
VERTEX
  5
589
  8
CORTE_LASER$CORTE
 10
1814.293687293543
 20
2531.297292236919
 30
0.0
  0
VERTEX
  5
58A
  8
CORTE_LASER$CORTE
 10
1814.194590241471
 20
2531.32324164307
 30
0.0
  0
VERTEX
  5
58B
  8
CORTE_LASER$CORTE
 10
1814.096436902299
 20
2531.352559204671
 30
0.0
  0
VERTEX
  5
58C
  8
CORTE_LASER$CORTE
 10
1813.999341718429
 20
2531.385210738757
 30
0.0
  0
VERTEX
  5
58D
  8
CORTE_LASER$CORTE
 10
1813.903417898503
 20
2531.4211581751
 30
0.0
  0
VERTEX
  5
58E
  8
CORTE_LASER$CORTE
 10
1813.808777285403
 20
2531.460359600597
 30
0.0
  0
VERTEX
  5
58F
  8
CORTE_LASER$CORTE
 10
1813.715530225852
 20
2531.50276930814
 30
0.0
  0
VERTEX
  5
590
  8
CORTE_LASER$CORTE
 10
1813.623785441749
 20
2531.548337849906
 30
0.0
  0
VERTEX
  5
591
  8
CORTE_LASER$CORTE
 10
1813.533649903408
 20
2531.597012095015
 30
0.0
  0
VERTEX
  5
592
  8
CORTE_LASER$CORTE
 10
1813.445228704836
 20
2531.648735291474
 30
0.0
  0
VERTEX
  5
593
  8
CORTE_LASER$CORTE
 10
1813.358624941194
 20
2531.703447132349
 30
0.0
  0
VERTEX
  5
594
  8
CORTE_LASER$CORTE
 10
1813.273939588597
 20
2531.761083826082
 30
0.0
  0
VERTEX
  5
595
  8
CORTE_LASER$CORTE
 10
1813.191271386379
 20
2531.821578170865
 30
0.0
  0
VERTEX
  5
596
  8
CORTE_LASER$CORTE
 10
1813.110716721964
 20
2531.884859633
 30
0.0
  0
VERTEX
  5
597
  8
CORTE_LASER$CORTE
 10
1813.032369518488
 20
2531.950854429131
 30
0.0
  0
VERTEX
  5
598
  8
CORTE_LASER$CORTE
 10
1812.956321125286
 20
2532.019485612279
 30
0.0
  0
VERTEX
  5
599
  8
CORTE_LASER$CORTE
 10
1812.882660211382
 20
2532.090673161554
 30
0.0
  0
VERTEX
  5
59A
  8
CORTE_LASER$CORTE
 10
1812.811472662108
 20
2532.164334075457
 30
0.0
  0
VERTEX
  5
59B
  8
CORTE_LASER$CORTE
 10
1812.74284147896
 20
2532.240382468659
 30
0.0
  0
VERTEX
  5
59C
  8
CORTE_LASER$CORTE
 10
1812.676846682829
 20
2532.318729672135
 30
0.0
  0
VERTEX
  5
59D
  8
CORTE_LASER$CORTE
 10
1812.613565220695
 20
2532.39928433655
 30
0.0
  0
VERTEX
  5
59E
  8
CORTE_LASER$CORTE
 10
1812.553070875911
 20
2532.481952538768
 30
0.0
  0
VERTEX
  5
59F
  8
CORTE_LASER$CORTE
 10
1812.495434182178
 20
2532.566637891365
 30
0.0
  0
VERTEX
  5
5A0
  8
CORTE_LASER$CORTE
 10
1812.440722341303
 20
2532.653241655007
 30
0.0
  0
VERTEX
  5
5A1
  8
CORTE_LASER$CORTE
 10
1812.388999144844
 20
2532.741662853579
 30
0.0
  0
VERTEX
  5
5A2
  8
CORTE_LASER$CORTE
 10
1812.340324899735
 20
2532.83179839192
 30
0.0
  0
VERTEX
  5
5A3
  8
CORTE_LASER$CORTE
 10
1812.294756357969
 20
2532.923543176023
 30
0.0
  0
VERTEX
  5
5A4
  8
CORTE_LASER$CORTE
 10
1812.252346650426
 20
2533.016790235574
 30
0.0
  0
VERTEX
  5
5A5
  8
CORTE_LASER$CORTE
 10
1812.213145224929
 20
2533.111430848674
 30
0.0
  0
VERTEX
  5
5A6
  8
CORTE_LASER$CORTE
 10
1812.177197788586
 20
2533.2073546686
 30
0.0
  0
VERTEX
  5
5A7
  8
CORTE_LASER$CORTE
 10
1812.1445462545
 20
2533.30444985247
 30
0.0
  0
VERTEX
  5
5A8
  8
CORTE_LASER$CORTE
 10
1812.115228692899
 20
2533.402603191642
 30
0.0
  0
VERTEX
  5
5A9
  8
CORTE_LASER$CORTE
 10
1812.089279286748
 20
2533.501700243714
 30
0.0
  0
VERTEX
  5
5AA
  8
CORTE_LASER$CORTE
 10
1812.066728291895
 20
2533.601625465955
 30
0.0
  0
VERTEX
  5
5AB
  8
CORTE_LASER$CORTE
 10
1812.047602001791
 20
2533.702262350027
 30
0.0
  0
VERTEX
  5
5AC
  8
CORTE_LASER$CORTE
 10
1812.031922716833
 20
2533.803493557824
 30
0.0
  0
VERTEX
  5
5AD
  8
CORTE_LASER$CORTE
 10
1812.019708718368
 20
2533.905201058287
 30
0.0
  0
VERTEX
  5
5AE
  8
CORTE_LASER$CORTE
 10
1812.010974247371
 20
2534.007266265019
 30
0.0
  0
VERTEX
  5
5AF
  8
CORTE_LASER$CORTE
 10
1812.005729487844
 20
2534.109570174555
 30
0.0
  0
VERTEX
  5
5B0
  8
CORTE_LASER$CORTE
 10
1812.003980554942
 20
2534.211993505113
 30
0.0
  0
VERTEX
  5
5B1
  8
CORTE_LASER$CORTE
 10
1812.003980554942
 20
2621.711993505113
 30
0.0
  0
VERTEX
  5
5B2
  8
CORTE_LASER$CORTE
 10
1812.005729487843
 20
2621.814416835671
 30
0.0
  0
VERTEX
  5
5B3
  8
CORTE_LASER$CORTE
 10
1812.01097424737
 20
2621.916720745207
 30
0.0
  0
VERTEX
  5
5B4
  8
CORTE_LASER$CORTE
 10
1812.019708718368
 20
2622.018785951939
 30
0.0
  0
VERTEX
  5
5B5
  8
CORTE_LASER$CORTE
 10
1812.031922716833
 20
2622.120493452402
 30
0.0
  0
VERTEX
  5
5B6
  8
CORTE_LASER$CORTE
 10
1812.04760200179
 20
2622.221724660199
 30
0.0
  0
VERTEX
  5
5B7
  8
CORTE_LASER$CORTE
 10
1812.066728291895
 20
2622.322361544271
 30
0.0
  0
VERTEX
  5
5B8
  8
CORTE_LASER$CORTE
 10
1812.089279286748
 20
2622.422286766513
 30
0.0
  0
VERTEX
  5
5B9
  8
CORTE_LASER$CORTE
 10
1812.115228692898
 20
2622.521383818584
 30
0.0
  0
VERTEX
  5
5BA
  8
CORTE_LASER$CORTE
 10
1812.144546254499
 20
2622.619537157756
 30
0.0
  0
VERTEX
  5
5BB
  8
CORTE_LASER$CORTE
 10
1812.177197788585
 20
2622.716632341626
 30
0.0
  0
VERTEX
  5
5BC
  8
CORTE_LASER$CORTE
 10
1812.213145224928
 20
2622.812556161552
 30
0.0
  0
VERTEX
  5
5BD
  8
CORTE_LASER$CORTE
 10
1812.252346650426
 20
2622.907196774652
 30
0.0
  0
VERTEX
  5
5BE
  8
CORTE_LASER$CORTE
 10
1812.294756357968
 20
2623.000443834203
 30
0.0
  0
VERTEX
  5
5BF
  8
CORTE_LASER$CORTE
 10
1812.340324899735
 20
2623.092188618307
 30
0.0
  0
VERTEX
  5
5C0
  8
CORTE_LASER$CORTE
 10
1812.388999144844
 20
2623.182324156647
 30
0.0
  0
VERTEX
  5
5C1
  8
CORTE_LASER$CORTE
 10
1812.440722341302
 20
2623.270745355219
 30
0.0
  0
VERTEX
  5
5C2
  8
CORTE_LASER$CORTE
 10
1812.495434182178
 20
2623.357349118861
 30
0.0
  0
VERTEX
  5
5C3
  8
CORTE_LASER$CORTE
 10
1812.55307087591
 20
2623.442034471458
 30
0.0
  0
VERTEX
  5
5C4
  8
CORTE_LASER$CORTE
 10
1812.613565220694
 20
2623.524702673677
 30
0.0
  0
VERTEX
  5
5C5
  8
CORTE_LASER$CORTE
 10
1812.676846682829
 20
2623.605257338091
 30
0.0
  0
VERTEX
  5
5C6
  8
CORTE_LASER$CORTE
 10
1812.74284147896
 20
2623.683604541567
 30
0.0
  0
VERTEX
  5
5C7
  8
CORTE_LASER$CORTE
 10
1812.811472662107
 20
2623.759652934769
 30
0.0
  0
VERTEX
  5
5C8
  8
CORTE_LASER$CORTE
 10
1812.882660211382
 20
2623.833313848673
 30
0.0
  0
VERTEX
  5
5C9
  8
CORTE_LASER$CORTE
 10
1812.956321125286
 20
2623.904501397948
 30
0.0
  0
VERTEX
  5
5CA
  8
CORTE_LASER$CORTE
 10
1813.032369518488
 20
2623.973132581095
 30
0.0
  0
VERTEX
  5
5CB
  8
CORTE_LASER$CORTE
 10
1813.110716721964
 20
2624.039127377227
 30
0.0
  0
VERTEX
  5
5CC
  8
CORTE_LASER$CORTE
 10
1813.191271386379
 20
2624.102408839361
 30
0.0
  0
VERTEX
  5
5CD
  8
CORTE_LASER$CORTE
 10
1813.273939588597
 20
2624.162903184144
 30
0.0
  0
VERTEX
  5
5CE
  8
CORTE_LASER$CORTE
 10
1813.358624941194
 20
2624.220539877877
 30
0.0
  0
VERTEX
  5
5CF
  8
CORTE_LASER$CORTE
 10
1813.445228704835
 20
2624.275251718753
 30
0.0
  0
VERTEX
  5
5D0
  8
CORTE_LASER$CORTE
 10
1813.533649903408
 20
2624.326974915211
 30
0.0
  0
VERTEX
  5
5D1
  8
CORTE_LASER$CORTE
 10
1813.623785441748
 20
2624.37564916032
 30
0.0
  0
VERTEX
  5
5D2
  8
CORTE_LASER$CORTE
 10
1813.715530225852
 20
2624.421217702087
 30
0.0
  0
VERTEX
  5
5D3
  8
CORTE_LASER$CORTE
 10
1813.808777285403
 20
2624.46362740963
 30
0.0
  0
VERTEX
  5
5D4
  8
CORTE_LASER$CORTE
 10
1813.903417898503
 20
2624.502828835127
 30
0.0
  0
VERTEX
  5
5D5
  8
CORTE_LASER$CORTE
 10
1813.999341718429
 20
2624.538776271469
 30
0.0
  0
VERTEX
  5
5D6
  8
CORTE_LASER$CORTE
 10
1814.096436902299
 20
2624.571427805556
 30
0.0
  0
VERTEX
  5
5D7
  8
CORTE_LASER$CORTE
 10
1814.194590241471
 20
2624.600745367156
 30
0.0
  0
VERTEX
  5
5D8
  8
CORTE_LASER$CORTE
 10
1814.293687293542
 20
2624.626694773307
 30
0.0
  0
VERTEX
  5
5D9
  8
CORTE_LASER$CORTE
 10
1814.393612515784
 20
2624.64924576816
 30
0.0
  0
VERTEX
  5
5DA
  8
CORTE_LASER$CORTE
 10
1814.494249399856
 20
2624.668372058265
 30
0.0
  0
VERTEX
  5
5DB
  8
CORTE_LASER$CORTE
 10
1814.595480607653
 20
2624.684051343222
 30
0.0
  0
VERTEX
  5
5DC
  8
CORTE_LASER$CORTE
 10
1814.697188108116
 20
2624.696265341688
 30
0.0
  0
VERTEX
  5
5DD
  8
CORTE_LASER$CORTE
 10
1814.799253314848
 20
2624.704999812685
 30
0.0
  0
VERTEX
  5
5DE
  8
CORTE_LASER$CORTE
 10
1814.901557224384
 20
2624.710244572212
 30
0.0
  0
VERTEX
  5
5DF
  8
CORTE_LASER$CORTE
 10
1815.003980554942
 20
2624.711993505113
 30
0.0
  0
VERTEX
  5
5E0
  8
CORTE_LASER$CORTE
 10
1820.499999999487
 20
2624.711993505113
 30
0.0
  0
VERTEX
  5
5E1
  8
CORTE_LASER$CORTE
 10
1820.602423330045
 20
2624.710244572212
 30
0.0
  0
VERTEX
  5
5E2
  8
CORTE_LASER$CORTE
 10
1820.704727239582
 20
2624.704999812685
 30
0.0
  0
VERTEX
  5
5E3
  8
CORTE_LASER$CORTE
 10
1820.806792446314
 20
2624.696265341688
 30
0.0
  0
VERTEX
  5
5E4
  8
CORTE_LASER$CORTE
 10
1820.908499946776
 20
2624.684051343222
 30
0.0
  0
VERTEX
  5
5E5
  8
CORTE_LASER$CORTE
 10
1821.009731154574
 20
2624.668372058265
 30
0.0
  0
VERTEX
  5
5E6
  8
CORTE_LASER$CORTE
 10
1821.110368038645
 20
2624.64924576816
 30
0.0
  0
VERTEX
  5
5E7
  8
CORTE_LASER$CORTE
 10
1821.210293260887
 20
2624.626694773307
 30
0.0
  0
VERTEX
  5
5E8
  8
CORTE_LASER$CORTE
 10
1821.309390312959
 20
2624.600745367157
 30
0.0
  0
VERTEX
  5
5E9
  8
CORTE_LASER$CORTE
 10
1821.407543652131
 20
2624.571427805556
 30
0.0
  0
VERTEX
  5
5EA
  8
CORTE_LASER$CORTE
 10
1821.504638836001
 20
2624.538776271469
 30
0.0
  0
VERTEX
  5
5EB
  8
CORTE_LASER$CORTE
 10
1821.600562655927
 20
2624.502828835127
 30
0.0
  0
VERTEX
  5
5EC
  8
CORTE_LASER$CORTE
 10
1821.695203269026
 20
2624.46362740963
 30
0.0
  0
VERTEX
  5
5ED
  8
CORTE_LASER$CORTE
 10
1821.788450328578
 20
2624.421217702087
 30
0.0
  0
VERTEX
  5
5EE
  8
CORTE_LASER$CORTE
 10
1821.880195112681
 20
2624.37564916032
 30
0.0
  0
VERTEX
  5
5EF
  8
CORTE_LASER$CORTE
 10
1821.970330651022
 20
2624.326974915211
 30
0.0
  0
VERTEX
  5
5F0
  8
CORTE_LASER$CORTE
 10
1822.058751849594
 20
2624.275251718753
 30
0.0
  0
VERTEX
  5
5F1
  8
CORTE_LASER$CORTE
 10
1822.145355613236
 20
2624.220539877877
 30
0.0
  0
VERTEX
  5
5F2
  8
CORTE_LASER$CORTE
 10
1822.230040965832
 20
2624.162903184144
 30
0.0
  0
VERTEX
  5
5F3
  8
CORTE_LASER$CORTE
 10
1822.312709168051
 20
2624.102408839361
 30
0.0
  0
VERTEX
  5
5F4
  8
CORTE_LASER$CORTE
 10
1822.393263832466
 20
2624.039127377227
 30
0.0
  0
VERTEX
  5
5F5
  8
CORTE_LASER$CORTE
 10
1822.471611035941
 20
2623.973132581095
 30
0.0
  0
VERTEX
  5
5F6
  8
CORTE_LASER$CORTE
 10
1822.547659429144
 20
2623.904501397948
 30
0.0
  0
VERTEX
  5
5F7
  8
CORTE_LASER$CORTE
 10
1822.621320343047
 20
2623.833313848673
 30
0.0
  0
VERTEX
  5
5F8
  8
CORTE_LASER$CORTE
 10
1822.692507892322
 20
2623.759652934769
 30
0.0
  0
VERTEX
  5
5F9
  8
CORTE_LASER$CORTE
 10
1822.76113907547
 20
2623.683604541567
 30
0.0
  0
VERTEX
  5
5FA
  8
CORTE_LASER$CORTE
 10
1822.827133871601
 20
2623.605257338091
 30
0.0
  0
VERTEX
  5
5FB
  8
CORTE_LASER$CORTE
 10
1822.890415333735
 20
2623.524702673677
 30
0.0
  0
VERTEX
  5
5FC
  8
CORTE_LASER$CORTE
 10
1822.950909678519
 20
2623.442034471458
 30
0.0
  0
VERTEX
  5
5FD
  8
CORTE_LASER$CORTE
 10
1823.008546372252
 20
2623.357349118861
 30
0.0
  0
VERTEX
  5
5FE
  8
CORTE_LASER$CORTE
 10
1823.063258213127
 20
2623.270745355219
 30
0.0
  0
VERTEX
  5
5FF
  8
CORTE_LASER$CORTE
 10
1823.114981409586
 20
2623.182324156647
 30
0.0
  0
VERTEX
  5
600
  8
CORTE_LASER$CORTE
 10
1823.163655654695
 20
2623.092188618307
 30
0.0
  0
VERTEX
  5
601
  8
CORTE_LASER$CORTE
 10
1823.209224196461
 20
2623.000443834203
 30
0.0
  0
VERTEX
  5
602
  8
CORTE_LASER$CORTE
 10
1823.251633904004
 20
2622.907196774652
 30
0.0
  0
VERTEX
  5
603
  8
CORTE_LASER$CORTE
 10
1823.290835329501
 20
2622.812556161552
 30
0.0
  0
VERTEX
  5
604
  8
CORTE_LASER$CORTE
 10
1823.326782765844
 20
2622.716632341626
 30
0.0
  0
VERTEX
  5
605
  8
CORTE_LASER$CORTE
 10
1823.35943429993
 20
2622.619537157756
 30
0.0
  0
VERTEX
  5
606
  8
CORTE_LASER$CORTE
 10
1823.388751861531
 20
2622.521383818584
 30
0.0
  0
VERTEX
  5
607
  8
CORTE_LASER$CORTE
 10
1823.414701267681
 20
2622.422286766513
 30
0.0
  0
VERTEX
  5
608
  8
CORTE_LASER$CORTE
 10
1823.437252262534
 20
2622.322361544271
 30
0.0
  0
VERTEX
  5
609
  8
CORTE_LASER$CORTE
 10
1823.456378552639
 20
2622.221724660199
 30
0.0
  0
VERTEX
  5
60A
  8
CORTE_LASER$CORTE
 10
1823.472057837597
 20
2622.120493452402
 30
0.0
  0
VERTEX
  5
60B
  8
CORTE_LASER$CORTE
 10
1823.484271836062
 20
2622.018785951939
 30
0.0
  0
VERTEX
  5
60C
  8
CORTE_LASER$CORTE
 10
1823.493006307059
 20
2621.916720745207
 30
0.0
  0
VERTEX
  5
60D
  8
CORTE_LASER$CORTE
 10
1823.498251066586
 20
2621.814416835671
 30
0.0
  0
VERTEX
  5
60E
  8
CORTE_LASER$CORTE
 10
1823.499999999487
 20
2621.711993505113
 30
0.0
  0
VERTEX
  5
60F
  8
CORTE_LASER$CORTE
 10
1823.499999999487
 20
2617.211993505113
 30
0.0
  0
VERTEX
  5
610
  8
CORTE_LASER$CORTE
 10
1823.501748932389
 20
2617.109570174556
 30
0.0
  0
VERTEX
  5
611
  8
CORTE_LASER$CORTE
 10
1823.506993691916
 20
2617.00726626502
 30
0.0
  0
VERTEX
  5
612
  8
CORTE_LASER$CORTE
 10
1823.515728162913
 20
2616.905201058288
 30
0.0
  0
VERTEX
  5
613
  8
CORTE_LASER$CORTE
 10
1823.527942161379
 20
2616.803493557825
 30
0.0
  0
VERTEX
  5
614
  8
CORTE_LASER$CORTE
 10
1823.543621446336
 20
2616.702262350028
 30
0.0
  0
VERTEX
  5
615
  8
CORTE_LASER$CORTE
 10
1823.562747736441
 20
2616.601625465956
 30
0.0
  0
VERTEX
  5
616
  8
CORTE_LASER$CORTE
 10
1823.585298731294
 20
2616.501700243714
 30
0.0
  0
VERTEX
  5
617
  8
CORTE_LASER$CORTE
 10
1823.611248137444
 20
2616.402603191643
 30
0.0
  0
VERTEX
  5
618
  8
CORTE_LASER$CORTE
 10
1823.640565699045
 20
2616.30444985247
 30
0.0
  0
VERTEX
  5
619
  8
CORTE_LASER$CORTE
 10
1823.673217233131
 20
2616.207354668601
 30
0.0
  0
VERTEX
  5
61A
  8
CORTE_LASER$CORTE
 10
1823.709164669474
 20
2616.111430848674
 30
0.0
  0
VERTEX
  5
61B
  8
CORTE_LASER$CORTE
 10
1823.748366094972
 20
2616.016790235575
 30
0.0
  0
VERTEX
  5
61C
  8
CORTE_LASER$CORTE
 10
1823.790775802514
 20
2615.923543176023
 30
0.0
  0
VERTEX
  5
61D
  8
CORTE_LASER$CORTE
 10
1823.836344344281
 20
2615.83179839192
 30
0.0
  0
VERTEX
  5
61E
  8
CORTE_LASER$CORTE
 10
1823.88501858939
 20
2615.74166285358
 30
0.0
  0
VERTEX
  5
61F
  8
CORTE_LASER$CORTE
 10
1823.936741785848
 20
2615.653241655008
 30
0.0
  0
VERTEX
  5
620
  8
CORTE_LASER$CORTE
 10
1823.991453626724
 20
2615.566637891366
 30
0.0
  0
VERTEX
  5
621
  8
CORTE_LASER$CORTE
 10
1824.049090320456
 20
2615.481952538769
 30
0.0
  0
VERTEX
  5
622
  8
CORTE_LASER$CORTE
 10
1824.10958466524
 20
2615.39928433655
 30
0.0
  0
VERTEX
  5
623
  8
CORTE_LASER$CORTE
 10
1824.172866127374
 20
2615.318729672136
 30
0.0
  0
VERTEX
  5
624
  8
CORTE_LASER$CORTE
 10
1824.238860923506
 20
2615.24038246866
 30
0.0
  0
VERTEX
  5
625
  8
CORTE_LASER$CORTE
 10
1824.307492106653
 20
2615.164334075458
 30
0.0
  0
VERTEX
  5
626
  8
CORTE_LASER$CORTE
 10
1824.378679655928
 20
2615.090673161554
 30
0.0
  0
VERTEX
  5
627
  8
CORTE_LASER$CORTE
 10
1824.452340569832
 20
2615.019485612279
 30
0.0
  0
VERTEX
  5
628
  8
CORTE_LASER$CORTE
 10
1824.528388963034
 20
2614.950854429132
 30
0.0
  0
VERTEX
  5
629
  8
CORTE_LASER$CORTE
 10
1824.60673616651
 20
2614.884859633
 30
0.0
  0
VERTEX
  5
62A
  8
CORTE_LASER$CORTE
 10
1824.687290830924
 20
2614.821578170866
 30
0.0
  0
VERTEX
  5
62B
  8
CORTE_LASER$CORTE
 10
1824.769959033143
 20
2614.761083826083
 30
0.0
  0
VERTEX
  5
62C
  8
CORTE_LASER$CORTE
 10
1824.85464438574
 20
2614.70344713235
 30
0.0
  0
VERTEX
  5
62D
  8
CORTE_LASER$CORTE
 10
1824.941248149381
 20
2614.648735291474
 30
0.0
  0
VERTEX
  5
62E
  8
CORTE_LASER$CORTE
 10
1825.029669347954
 20
2614.597012095016
 30
0.0
  0
VERTEX
  5
62F
  8
CORTE_LASER$CORTE
 10
1825.119804886294
 20
2614.548337849907
 30
0.0
  0
VERTEX
  5
630
  8
CORTE_LASER$CORTE
 10
1825.211549670398
 20
2614.502769308141
 30
0.0
  0
VERTEX
  5
631
  8
CORTE_LASER$CORTE
 10
1825.304796729949
 20
2614.460359600598
 30
0.0
  0
VERTEX
  5
632
  8
CORTE_LASER$CORTE
 10
1825.399437343048
 20
2614.421158175101
 30
0.0
  0
VERTEX
  5
633
  8
CORTE_LASER$CORTE
 10
1825.495361162975
 20
2614.385210738757
 30
0.0
  0
VERTEX
  5
634
  8
CORTE_LASER$CORTE
 10
1825.592456346845
 20
2614.352559204672
 30
0.0
  0
VERTEX
  5
635
  8
CORTE_LASER$CORTE
 10
1825.690609686017
 20
2614.323241643071
 30
0.0
  0
VERTEX
  5
636
  8
CORTE_LASER$CORTE
 10
1825.789706738088
 20
2614.29729223692
 30
0.0
  0
VERTEX
  5
637
  8
CORTE_LASER$CORTE
 10
1825.88963196033
 20
2614.274741242067
 30
0.0
  0
VERTEX
  5
638
  8
CORTE_LASER$CORTE
 10
1825.990268844402
 20
2614.255614951962
 30
0.0
  0
VERTEX
  5
639
  8
CORTE_LASER$CORTE
 10
1826.091500052199
 20
2614.239935667005
 30
0.0
  0
VERTEX
  5
63A
  8
CORTE_LASER$CORTE
 10
1826.193207552662
 20
2614.22772166854
 30
0.0
  0
VERTEX
  5
63B
  8
CORTE_LASER$CORTE
 10
1826.295272759394
 20
2614.218987197542
 30
0.0
  0
VERTEX
  5
63C
  8
CORTE_LASER$CORTE
 10
1826.39757666893
 20
2614.213742438015
 30
0.0
  0
VERTEX
  5
63D
  8
CORTE_LASER$CORTE
 10
1826.499999999487
 20
2614.211993505114
 30
0.0
  0
VERTEX
  5
63E
  8
CORTE_LASER$CORTE
 10
1863.499999999487
 20
2614.211993505113
 30
0.0
  0
VERTEX
  5
63F
  8
CORTE_LASER$CORTE
 10
1863.602423330046
 20
2614.213742438015
 30
0.0
  0
VERTEX
  5
640
  8
CORTE_LASER$CORTE
 10
1863.704727239582
 20
2614.218987197542
 30
0.0
  0
VERTEX
  5
641
  8
CORTE_LASER$CORTE
 10
1863.806792446314
 20
2614.227721668539
 30
0.0
  0
VERTEX
  5
642
  8
CORTE_LASER$CORTE
 10
1863.908499946777
 20
2614.239935667004
 30
0.0
  0
VERTEX
  5
643
  8
CORTE_LASER$CORTE
 10
1864.009731154574
 20
2614.255614951962
 30
0.0
  0
VERTEX
  5
644
  8
CORTE_LASER$CORTE
 10
1864.110368038646
 20
2614.274741242066
 30
0.0
  0
VERTEX
  5
645
  8
CORTE_LASER$CORTE
 10
1864.210293260887
 20
2614.297292236919
 30
0.0
  0
VERTEX
  5
646
  8
CORTE_LASER$CORTE
 10
1864.309390312959
 20
2614.32324164307
 30
0.0
  0
VERTEX
  5
647
  8
CORTE_LASER$CORTE
 10
1864.407543652131
 20
2614.352559204671
 30
0.0
  0
VERTEX
  5
648
  8
CORTE_LASER$CORTE
 10
1864.504638836001
 20
2614.385210738757
 30
0.0
  0
VERTEX
  5
649
  8
CORTE_LASER$CORTE
 10
1864.600562655927
 20
2614.421158175099
 30
0.0
  0
VERTEX
  5
64A
  8
CORTE_LASER$CORTE
 10
1864.695203269026
 20
2614.460359600596
 30
0.0
  0
VERTEX
  5
64B
  8
CORTE_LASER$CORTE
 10
1864.788450328578
 20
2614.502769308139
 30
0.0
  0
VERTEX
  5
64C
  8
CORTE_LASER$CORTE
 10
1864.880195112681
 20
2614.548337849906
 30
0.0
  0
VERTEX
  5
64D
  8
CORTE_LASER$CORTE
 10
1864.970330651022
 20
2614.597012095015
 30
0.0
  0
VERTEX
  5
64E
  8
CORTE_LASER$CORTE
 10
1865.058751849594
 20
2614.648735291473
 30
0.0
  0
VERTEX
  5
64F
  8
CORTE_LASER$CORTE
 10
1865.145355613236
 20
2614.703447132349
 30
0.0
  0
VERTEX
  5
650
  8
CORTE_LASER$CORTE
 10
1865.230040965833
 20
2614.761083826082
 30
0.0
  0
VERTEX
  5
651
  8
CORTE_LASER$CORTE
 10
1865.312709168051
 20
2614.821578170865
 30
0.0
  0
VERTEX
  5
652
  8
CORTE_LASER$CORTE
 10
1865.393263832466
 20
2614.884859633
 30
0.0
  0
VERTEX
  5
653
  8
CORTE_LASER$CORTE
 10
1865.471611035942
 20
2614.950854429131
 30
0.0
  0
VERTEX
  5
654
  8
CORTE_LASER$CORTE
 10
1865.547659429144
 20
2615.019485612279
 30
0.0
  0
VERTEX
  5
655
  8
CORTE_LASER$CORTE
 10
1865.621320343048
 20
2615.090673161553
 30
0.0
  0
VERTEX
  5
656
  8
CORTE_LASER$CORTE
 10
1865.692507892322
 20
2615.164334075457
 30
0.0
  0
VERTEX
  5
657
  8
CORTE_LASER$CORTE
 10
1865.76113907547
 20
2615.240382468659
 30
0.0
  0
VERTEX
  5
658
  8
CORTE_LASER$CORTE
 10
1865.827133871601
 20
2615.318729672135
 30
0.0
  0
VERTEX
  5
659
  8
CORTE_LASER$CORTE
 10
1865.890415333736
 20
2615.39928433655
 30
0.0
  0
VERTEX
  5
65A
  8
CORTE_LASER$CORTE
 10
1865.950909678519
 20
2615.481952538769
 30
0.0
  0
VERTEX
  5
65B
  8
CORTE_LASER$CORTE
 10
1866.008546372252
 20
2615.566637891365
 30
0.0
  0
VERTEX
  5
65C
  8
CORTE_LASER$CORTE
 10
1866.063258213127
 20
2615.653241655007
 30
0.0
  0
VERTEX
  5
65D
  8
CORTE_LASER$CORTE
 10
1866.114981409586
 20
2615.741662853579
 30
0.0
  0
VERTEX
  5
65E
  8
CORTE_LASER$CORTE
 10
1866.163655654695
 20
2615.83179839192
 30
0.0
  0
VERTEX
  5
65F
  8
CORTE_LASER$CORTE
 10
1866.209224196461
 20
2615.923543176023
 30
0.0
  0
VERTEX
  5
660
  8
CORTE_LASER$CORTE
 10
1866.251633904004
 20
2616.016790235575
 30
0.0
  0
VERTEX
  5
661
  8
CORTE_LASER$CORTE
 10
1866.290835329501
 20
2616.111430848674
 30
0.0
  0
VERTEX
  5
662
  8
CORTE_LASER$CORTE
 10
1866.326782765844
 20
2616.207354668601
 30
0.0
  0
VERTEX
  5
663
  8
CORTE_LASER$CORTE
 10
1866.35943429993
 20
2616.30444985247
 30
0.0
  0
VERTEX
  5
664
  8
CORTE_LASER$CORTE
 10
1866.388751861531
 20
2616.402603191642
 30
0.0
  0
VERTEX
  5
665
  8
CORTE_LASER$CORTE
 10
1866.414701267681
 20
2616.501700243714
 30
0.0
  0
VERTEX
  5
666
  8
CORTE_LASER$CORTE
 10
1866.437252262534
 20
2616.601625465955
 30
0.0
  0
VERTEX
  5
667
  8
CORTE_LASER$CORTE
 10
1866.456378552639
 20
2616.702262350027
 30
0.0
  0
VERTEX
  5
668
  8
CORTE_LASER$CORTE
 10
1866.472057837597
 20
2616.803493557825
 30
0.0
  0
VERTEX
  5
669
  8
CORTE_LASER$CORTE
 10
1866.484271836062
 20
2616.905201058287
 30
0.0
  0
VERTEX
  5
66A
  8
CORTE_LASER$CORTE
 10
1866.493006307059
 20
2617.00726626502
 30
0.0
  0
VERTEX
  5
66B
  8
CORTE_LASER$CORTE
 10
1866.498251066586
 20
2617.109570174556
 30
0.0
  0
SEQEND
  5
66C
  8
CORTE_LASER$CORTE
  0
CIRCLE
  5
66D
  8
CORTE_LASER$CORTE
 10
1820.499999999487
 20
2617.711993505113
 30
0.0
 40
1.75
  0
CIRCLE
  5
66E
  8
CORTE_LASER$CORTE
 10
1869.499999999487
 20
2617.711993505113
 30
0.0
 40
1.75
  0
CIRCLE
  5
66F
  8
CORTE_LASER$CORTE
 10
1869.499999999487
 20
2559.711993505113
 30
0.0
 40
1.75
  0
CIRCLE
  5
670
  8
CORTE_LASER$CORTE
 10
1820.499999999487
 20
2559.711993505113
 30
0.0
 40
1.75
  0
ENDSEC
  0
EOF
